<svg width="16" height="16" viewBox="0 0 16 16" fill="none" xmlns="http://www.w3.org/2000/svg">
<path fill-rule="evenodd" clip-rule="evenodd" d="M7.47854 13.9474C-0.895399 12.9268 0.952682 1.09832 8.81388 2.05499C16.6435 3.01439 15.1286 14.8837 7.47854 13.9474ZM3.89343 11.1672L5.2836 8.48772L3.11334 6.51585C2.6527 8.08219 2.86794 9.85265 3.89343 11.1672ZM6.0253 9.15998L5.23288 10.7222L6.85201 9.90572L6.0253 9.15998ZM6.15143 6.81524L4.54739 6.62064L5.71272 7.66032L6.15143 6.81524ZM3.50819 5.53876L6.62031 5.91844L8.18871 2.88647C5.94305 2.78849 4.33215 3.96018 3.50819 5.53876ZM8.40258 4.47594L7.61427 6.03003L8.76589 6.16611L8.40258 4.47594ZM7.15362 6.93771L6.45168 8.32033L7.73766 9.46753L9.30606 8.68232L8.97839 7.15953L7.15362 6.93771ZM8.45742 10.1112L9.88598 11.385L9.50759 9.59273L8.45742 10.1112ZM9.11549 2.99398L9.79138 6.29131L12.9844 6.67371C12.5909 4.93727 11.342 3.41856 9.11549 2.99398ZM11.0157 12.2722C12.4168 11.2666 13.1517 9.51244 13.116 7.78824L10.3741 9.14909L11.0157 12.2722ZM11.6847 7.49022L9.99566 7.27929L10.1917 8.23188L11.6847 7.49022ZM7.56354 10.5562L4.70916 11.9797C6.34337 13.2575 8.57944 13.3228 10.0327 12.7962L7.56354 10.5562Z" fill="currentColor"/>
</svg>
