<svg width="16" height="16" viewBox="0 0 16 16" fill="none" xmlns="http://www.w3.org/2000/svg">
<path fill-rule="evenodd" clip-rule="evenodd" d="M12.7419 12.7157C12.0332 13.4443 10.9351 12.6298 11.1443 11.8737L9.87896 10.8278L8.25228 11.6297L7.91068 11.0867L8.64501 10.3443L7.57023 9.29384L6.58725 10.2664L6.9672 10.932C6.01094 11.8703 4.81301 11.2264 4.81301 11.2264L3.59648 12.2804L3.76845 12.624C2.696 13.6642 1.32842 12.2804 2.37415 11.2619L2.7111 11.4143L3.78123 10.2023C3.78123 10.2023 3.18517 8.89861 4.04963 8.06004L4.71076 8.44038L5.74719 7.5136L2.88307 4.71838L2.68554 3L4.4412 3.07103L7.48077 5.96363L10.346 3.4021L12.3213 3.09279L12.0308 4.89365L9.25269 7.64305L10.324 8.66148L10.941 8.03828L11.508 8.38195L10.733 9.8357L11.8949 11.2001C12.6873 11.0363 13.3984 12.0409 12.7419 12.7157ZM11.2907 4.83179L11.6637 3.74463L10.5203 4.0631C10.5203 4.0631 5.82504 8.47704 5.29172 8.95704C4.7584 9.43704 5.56361 10.3168 6.16664 9.74863C6.76967 9.18042 11.2907 4.83179 11.2907 4.83179Z" fill="currentColor"/>
</svg>
