<svg width="16" height="16" viewBox="0 0 16 16" fill="none" xmlns="http://www.w3.org/2000/svg">
<path fill-rule="evenodd" clip-rule="evenodd" d="M11.843 6.37685L11.5663 5.62584C11.8231 5.47033 12.3274 5.52678 12.6393 5.22153C13.6209 4.25742 12.182 2.82104 11.171 3.81395C10.6562 4.31962 11.0186 5.1098 10.3501 6.23287L9.61594 5.52102C10.085 4.55345 9.87981 3.73793 10.4568 3.17121C12.4505 1.21303 15.2851 3.97751 13.3571 5.86888C12.9454 6.27088 12.3672 6.2179 11.843 6.37685ZM9.59014 7.36861L8.72464 6.33193L9.23831 5.89768L10.1144 6.87907L9.59014 7.36861ZM9.32744 10.5696L10.356 9.69884L10.8251 10.1849L9.70507 11.0707L9.32744 10.5696ZM13.3148 12.7386L12.3931 13.5L11.1511 12.3113L11.972 11.4727L13.3148 12.7386ZM10.2047 11.4716L11.1077 10.4787L11.6319 10.9002L10.6398 11.9231L10.2047 11.4716ZM8.52527 8.2256L9.76254 9.39244L8.9416 10.1987L5.38929 6.79959L6.17035 6.00365L7.81223 7.55291C8.0632 7.31217 8.28133 7.09216 8.4678 6.92169L9.13159 7.62433L8.52527 8.2256ZM4.46984 6.06355L5.45145 5.15933L5.9358 5.62008L4.88031 6.5289L4.46984 6.06355ZM3.61255 5.32865L4.48978 4.25857L5.0058 4.69973L4.11567 5.73642L3.61255 5.32865ZM7.20708 9.53182C5.38343 11.3403 3.23258 13.4758 3.23258 13.4758L2.50781 12.6338C2.50781 12.6338 4.68563 10.5535 6.51515 8.79923L7.20708 9.53182ZM2 3.55478L2.6978 2.72659L4.06641 4.01898L3.31584 4.81377L2 3.55478Z" fill="currentColor"/>
</svg>
