<svg width="16" height="16" viewBox="0 0 16 16" fill="none" xmlns="http://www.w3.org/2000/svg">
<path fill-rule="evenodd" clip-rule="evenodd" d="M8.53058 4.84338L7.57269 2.6912C10.6003 1.73857 12.9499 3.16686 12.9499 6.1599H8.41118L8.53058 4.84338ZM11.0023 9.30499C10.794 9.30499 10.5193 9.30499 10.2062 9.30499L7.58065 6.8318H12.9791C12.9791 8.30038 12.0358 9.30499 10.9956 9.30499H11.0023ZM10.9943 10.1848C13.259 10.1848 13.3161 13.6016 11.1522 13.6016C9.39162 13.6016 8.92727 11.9952 9.52429 10.9854L8.59559 10.0757L7.63239 11.0205C8.20156 12.0316 7.75578 13.6003 6.28975 13.6003C3.72122 13.6003 3.90962 10.1835 6.13187 10.1835C6.36357 10.1821 6.59352 10.223 6.80983 10.3044L7.83803 9.33488C7.05394 9.34398 6.32823 9.35048 5.8851 9.35048C4.41642 9.35048 3.86849 8.14183 3.86849 6.8318H5.27216L3.25289 4.85507C2.49666 4.11169 3.77031 3.40859 4.47215 3.74519L4.50929 4.72771L10.2964 10.3161C10.5157 10.228 10.7507 10.1834 10.9877 10.1848H10.9943ZM6.19688 12.606C7.09905 12.606 7.07517 11.1764 6.13187 11.1764C5.18857 11.1764 5.12755 12.606 6.19688 12.606ZM11.0593 12.606C11.9615 12.606 11.9376 11.1764 10.9943 11.1764C10.051 11.1764 9.98997 12.606 11.0593 12.606Z" fill="currentColor"/>
</svg>
