<svg width="64" height="64" viewBox="0 0 64 64" fill="none" xmlns="http://www.w3.org/2000/svg">
<path fill-rule="evenodd" clip-rule="evenodd" d="M43.1773 49.0932L20.9542 49.4642L20.7277 50.974L19 51V12.2745L45 12V50.9258L43.4074 50.9518L43.1773 49.0932ZM42.9581 14.3742L20.7204 14.5003L20.8081 23.615L22.6344 23.578L22.5979 16.1029L24.8699 16.2661L24.7384 23.5371L30.9919 23.4184L30.791 17.0341L34.3706 17.1936L34.4254 23.3405H35.9157L35.7148 15.6207H37.68V23.3146L39.0753 23.2849L38.9694 16.5073L41.5957 16.4182L41.5044 23.2404L42.9654 23.2107L42.9581 14.3742ZM42.9983 25.0433L20.8264 25.2955L20.925 35.5566L23.2664 35.512L23.2335 33.468L33.0008 33.2306V35.3228L34.9441 35.2857L34.8162 26.7015L37.8443 26.6422V28.8902L39.3054 27.9443L43.0422 34.503L42.9983 25.0433ZM37.8845 30.1552L37.9028 35.2301L40.825 35.1707L37.8845 30.1552ZM43.0531 36.9885L20.9542 37.237L21.0419 47.1568H22.7915L22.5797 39.0288H24.5083L24.5485 47.1605H26.0826L25.9694 39.5482L28.7126 39.4406L28.6103 47.1419H30.4549L30.2394 38.669L32.252 38.8285L32.2849 47.1382H33.9432L33.7241 40.2048L37.3074 40.368L37.3695 47.1345H38.9036L38.7867 39.0029L41.3436 38.9101L41.2377 47.1308H43.0641L43.0531 36.9885ZM24.6946 29.647L33.3077 29.5209L33.3953 31.7764L24.7275 31.6651L24.6946 29.647Z" fill="currentColor"/>
</svg>
