<svg width="64" height="64" viewBox="0 0 64 64" fill="none" xmlns="http://www.w3.org/2000/svg">
<path fill-rule="evenodd" clip-rule="evenodd" d="M41.8466 24.3151L39.5108 35.3255L41.1309 35.3468L40.8823 37.6677L22.0728 37.7712L21.935 35.0818L23.4144 35.1184L21.1414 24.2328H18.4911L18 23.514L31.5 10L45 23.514L44.4819 24.3242L41.8466 24.3151ZM31.4701 14.9341C28.7928 14.9341 28.667 19.0733 31.515 19.0733C34.1173 19.0733 34.1353 14.9341 31.4701 14.9341ZM31.4701 21.5617C22.8484 21.5617 21.7853 35.2128 31.7486 35.2128C40.1366 35.2128 40.2474 21.5617 31.4581 21.5617H31.4701ZM30.9909 30.0137L27.9453 27.1141L28.712 26.0694L31.5 27.0897L35.3032 24.0836L35.992 24.7628L31.9612 29.8279L30.9909 30.0137ZM27.4572 39.2667H29.5864L29.4397 41.7672C32.5032 42.7328 32.1349 48.0446 28.5413 48.0446C24.2409 48.0446 24.3307 42.6201 27.5141 41.7398L27.4572 39.2667ZM33.2519 39.4433H35.3931L35.3332 46.6922C38.5135 47.5603 38.1691 53 34.5426 53C30.2902 53 30.3291 47.6912 33.4106 46.7227L33.2519 39.4433Z" fill="currentColor"/>
</svg>
