<svg width="64" height="64" viewBox="0 0 64 64" fill="none" xmlns="http://www.w3.org/2000/svg">
<path fill-rule="evenodd" clip-rule="evenodd" d="M45.0958 44.838C41.5317 53.2473 28.7018 47.986 31.3083 40.8025C33.1249 35.8108 35.4055 26.3179 35.8745 19.6345C36.3435 12.9512 40.8109 10.426 45.7968 11.1075C50.7826 11.7891 55.9017 17.2368 54.865 23.3023C53.8284 29.3678 48.655 36.4287 45.0958 44.838ZM46.552 20.4583L46.3102 14.8439L43.7037 14.6331L43.0768 20.2916C36.2546 24.3222 35.6129 34.4624 35.6129 34.4624L38.4661 35.0018C38.4661 35.0018 38.8166 25.4843 44.5528 22.2529C47.9639 26.2149 46.8729 30.3779 43.3433 36.8602L45.698 38.2478C51.6169 28.4999 49.3658 23.7975 46.552 20.4583V20.4583ZM25.577 48.1085C25.6116 55.7431 11.755 56.4443 11.2268 47.3289C10.6986 38.2135 8.21058 29.8434 9.25217 23.7926C10.2938 17.7418 16.9925 14.2996 21.9092 15.3097C26.826 16.3198 30.1976 20.1837 28.3859 26.666C26.5742 33.1483 25.5227 42.7982 25.577 48.1085ZM22.6744 19.3109L20.1469 18.6539L18.044 23.8711C14.2676 26.0825 10.5603 29.7551 12.8459 40.9398L15.5313 40.3955C14.391 33.1189 14.7662 28.8333 19.3176 26.2345C23.637 31.1722 20.7591 40.2533 20.7591 40.2533L23.637 40.6799C23.637 40.6799 26.4459 30.9123 21.3761 24.8517L22.6744 19.3109Z" fill="#6B360D"/>
</svg>
