<svg width="64" height="64" viewBox="0 0 64 64" fill="none" xmlns="http://www.w3.org/2000/svg">
<path fill-rule="evenodd" clip-rule="evenodd" d="M49.3783 15.121H52C51.6704 23.8364 47.5395 27.6423 47.5395 27.6423C47.5395 27.6423 49.3783 19.0867 49.3783 15.121ZM43.6199 12.8983H46.8493C46.8493 22.181 43.3675 31.3966 43.3675 31.3966L43.6199 12.8983ZM34.668 44.3563C38.5516 46.6718 37.6451 54 32.0927 54C26.0458 54 25.2887 46.7801 29.1774 44.3976L29.1002 36.8064C25.7213 35.775 22.9194 32.7581 22.9194 27.7712C22.9194 25.4609 22.9194 10.0103 22.9194 10.0103H27.9464C27.9464 14.4093 28.0134 25.1669 28.0134 27.3587C28.0134 33.5059 35.7394 33.4698 35.7394 27.3587C35.7394 25.5331 35.7909 14.3216 35.8063 10H40.7613C40.7613 10 40.8643 24.9194 40.8643 27.7867C40.8643 32.8715 37.9078 35.9142 34.3899 36.894L34.668 44.3563ZM20.0762 12.8983L20.4007 31.3966C20.4007 31.3966 16.9189 22.181 16.9189 12.8983H20.0762ZM14.5238 15.2654C14.5238 19.2208 16.5841 27.6423 16.5841 27.6423C16.5841 27.6423 12.3296 23.9756 12 15.2654H14.5238Z" fill="#6B360D"/>
</svg>
