<svg width="64" height="64" viewBox="0 0 64 64" fill="none" xmlns="http://www.w3.org/2000/svg">
<path fill-rule="evenodd" clip-rule="evenodd" d="M52.9664 17.652C52.4939 21.0409 50.7185 37.0849 49.9825 43.1801C50.9473 49.7933 49.3012 52.3059 40.6629 51.3038C35.5058 51.4345 32.3926 51.7879 24.8931 51.9961C17.5826 52.1801 18.1247 45.7944 22.1579 43.8046C25.1418 42.3522 27.5637 41.476 29.8613 40.4932C32.1588 39.5104 33.1684 37.1866 32.7954 34.4222C32.2285 30.2296 31.5173 21.3507 30.9305 17.7681C29.6822 10.1576 54.0257 10.0366 52.9664 17.652ZM42.2692 20.7746C52.2901 20.7746 52.3547 14.815 42.0951 14.815C31.8356 14.815 31.2985 20.7746 42.2692 20.7746ZM19.3928 42.4975C16.22 44.0661 15.8669 46.7966 16.7322 49.0816H16.6626C9.34713 49.0816 9.89417 42.8848 13.9324 40.8902C16.9162 39.4378 19.3332 38.5615 21.6307 37.5787C23.9283 36.5959 24.9379 34.277 24.5649 31.5077C23.998 27.3152 22.133 14.1662 22.133 14.1662L27.315 13.5126C28.1455 19.0898 29.7618 29.973 30.1945 33.0134C30.5923 35.7729 29.9309 37.2495 27.7079 38.3388C25.4849 39.4281 22.3469 41.0112 19.3779 42.4733L19.3928 42.4975Z" fill="#6B360D"/>
</svg>
