<svg width="64" height="64" viewBox="0 0 64 64" fill="none" xmlns="http://www.w3.org/2000/svg">
<path fill-rule="evenodd" clip-rule="evenodd" d="M49.2722 33.3067L48.4144 22.465L52 23.2706L51.8313 32.6306L49.2722 33.3067ZM40.8625 44.0092C40.8625 44.0092 38.4528 34.6157 21.7297 34.6157L13.8163 34.5486C11.3729 32.3189 11.4355 24.3351 13.7585 20.4079L21.7393 20.288C37.4745 20.288 41.3782 11 41.3782 11L45.465 11.2062L45.1999 43.7647L40.8625 44.0092ZM30.7418 38.3175L30.925 43.9709L27.1466 44.2778L26.7418 47.8021C28.9057 48.2817 29.2478 51.2162 29.2478 52.7555L16.5537 53L18.6356 37.2914L30.7418 38.3175Z" fill="#6B360D"/>
</svg>
