<svg width="64" height="64" viewBox="0 0 64 64" fill="none" xmlns="http://www.w3.org/2000/svg">
<path fill-rule="evenodd" clip-rule="evenodd" d="M43.7747 31.8124L37.4873 36.9109C37.4873 36.9109 28.2343 37.1501 21.4611 37.1501C7.22999 37.1501 7.87307 16.2636 21.2344 16.2636C23.4617 16.204 25.6424 16.9172 27.4154 18.2852C28.9375 14.7298 32.2085 12 37.1774 12C48.4753 12 50.5803 26.3152 43.7747 31.8124ZM21.1373 24.1435C17.8663 24.1435 17.7044 29.2702 21.1928 29.2702C24.3804 29.2702 24.3989 24.1435 21.1373 24.1435ZM37.0802 20.3912C33.8046 20.3912 33.6473 25.5131 37.1357 25.5131C40.3234 25.5178 40.3419 20.4006 37.0802 20.4006V20.3912ZM39.3102 52L19.9344 51.6482L19.8789 44.2795L15.2107 44.3593L15.1136 39.7955L39.25 39.1201L39.3102 52ZM52.727 51.4794L41.3828 46.8687V41.6435L53 36.1886L52.727 51.4794Z" fill="#6B360D"/>
</svg>
