<svg width="64" height="64" viewBox="0 0 64 64" fill="none" xmlns="http://www.w3.org/2000/svg">
<path fill-rule="evenodd" clip-rule="evenodd" d="M44.94 28.1282L44.485 31.1404L36.225 31.5456L35.225 47.5684C38.9975 47.3469 42.5998 45.9585 45.51 43.6042L44.065 40.7336L52 40.9533C42.9 60.2421 16.74 57.767 12 36.0175L19.45 38.1119L17.745 40.5969C19.845 43.4382 23.285 45.5765 27.185 46.7141L30.04 30.9353L21.84 28.7091L22.295 25.6872L31.085 25.3308L31.585 22.4016C25.31 19.4431 27.785 9.08828 35.67 10.0647C43.555 11.0411 42.99 21.4349 36.75 23.0021L36.57 25.9313L44.94 28.1282ZM35.1 14.1412C31.815 13.7506 31.045 18.6082 34.54 19.0232C37.735 19.4138 38.38 14.5366 35.1 14.1412Z" fill="#6B360D"/>
</svg>
