<svg width="64" height="64" viewBox="0 0 64 64" fill="none" xmlns="http://www.w3.org/2000/svg">
<path fill-rule="evenodd" clip-rule="evenodd" d="M43.5432 55.3707C36.288 57.2932 32.7117 54.5199 31.6334 50.9824C31.0528 49.0838 31.4577 46.123 33.1703 45.6712C35.3903 45.0896 36.5222 45.8779 38.6154 45.3252C41.5428 44.5513 40.567 42.9219 42.06 39.6872L40.284 38.7259C37.4395 40.5379 39.2301 43.2007 36.1612 44.013C33.9266 44.6042 32.3067 43.0998 32.1115 40.735C31.9164 38.3702 34.4974 35.8276 34.4974 35.8276L32.5995 28.195L35.3561 27.4452L26.9885 12.8816L23.6171 25.2919H26.7202L26.8812 33.1216C26.8812 33.1216 30.0477 34.924 30.4819 37.2551C30.9162 39.5863 29.7403 41.456 27.4276 41.456C24.2514 41.456 25.2808 38.4279 22.0607 37.4041L20.5969 38.8076C22.8999 41.5665 22.3827 43.3737 25.4077 43.3737C27.3593 43.3737 28.2717 42.523 30.1111 42.3548C28.2571 44.7147 27.8668 49.5645 29.6232 53.1212C28.0424 53.8806 25.9688 54.3613 23.2853 54.3613C15.6593 54.3613 12 50.1364 12 42.4701C12 36.3515 14.3566 33.4965 15.6886 32.3766L21.5093 32.2516L21.6898 30.281L16.6351 29.9445L16.7961 25.2774H20.0017C20.6652 23.0136 23.3341 13.9342 24.4904 9.72857C25.1735 7.23402 28.2229 7.60412 29.3695 9.78625C31.809 14.3428 36.6344 23.1674 38.5178 26.6088L42.1624 25.6475L43.5432 30.1127L38.752 31.7277L39.4448 33.5878L45.0948 32.2035C46.6756 32.9485 49.7055 35.0874 51.3107 41.0186C53.3453 48.4349 50.9106 53.424 43.5432 55.3707Z" fill="#6B360D"/>
</svg>
