<svg width="16" height="16" viewBox="0 0 16 16" fill="none" xmlns="http://www.w3.org/2000/svg">
<path fill-rule="evenodd" clip-rule="evenodd" d="M9.60501 13.25C8.10286 13.25 6.90776 12.6288 6.23935 11.4998C5.57094 10.3708 5.55322 8.87386 6.20392 7.60975C7.00577 6.04891 6.94909 4.72449 6.14015 3.97664C5.56858 3.44711 4.87891 3.48571 4.23766 3.91753C3.17482 4.6304 2.98587 6.18521 3.72986 8.41188L2.74378 8.68569C1.7825 5.81008 2.56546 3.94648 3.74639 3.15159C4.19035 2.85375 4.71864 2.71511 5.24817 2.75747C5.7777 2.79983 6.27842 3.02079 6.67157 3.38559C7.07072 3.75469 8.25993 5.1732 6.83454 7.94628C6.29957 8.98724 6.30548 10.2055 6.84989 11.1259C7.3943 12.0462 8.36385 12.5263 9.60855 12.5263C10.6501 12.5263 11.5252 12.1415 12.1405 11.4129C12.6843 10.7511 12.9813 9.91403 12.9789 9.04997C12.9789 7.82445 12.3412 6.58809 10.917 6.58809C10.3514 6.58809 9.64044 7.25512 9.48692 7.94508C9.69923 8.07686 9.95005 8.12851 10.1958 8.09105C10.4415 8.05359 10.6666 7.92939 10.832 7.74002L11.5134 8.84974C10.9784 9.11993 10.0868 8.92211 9.54124 8.59161C10.1175 9.29121 11.0056 9.87984 11.4071 9.70132L11.0883 10.8593C10.6761 10.8665 10.1435 10.3044 9.73964 9.717C9.82903 10.2471 9.86857 10.7847 9.85773 11.3225L8.77009 11.3695C9.01448 10.5497 9.08177 9.68545 8.9673 8.83647C8.89173 9.48782 8.62247 10.15 7.98713 10.4854L7.48405 9.4649C8.27292 9.39133 8.74175 8.63985 8.87401 8.05002C8.86308 7.76837 8.90773 7.48736 9.00532 7.2237C9.1029 6.96005 9.25143 6.71914 9.44205 6.51533C9.63266 6.31151 9.86148 6.14895 10.1149 6.03732C10.3683 5.9257 10.6411 5.86729 10.917 5.86557C12.5479 5.86557 13.6875 7.17551 13.6875 9.05117C13.6877 10.0888 13.3283 11.0929 12.6731 11.8858C12.1476 12.5082 11.1863 13.25 9.60501 13.25ZM5.32176 11.9569C5.75871 13.2174 3.55036 13.7988 3.31417 12.5202C3.09688 11.355 2.70363 9.46129 2.70363 9.46129L4.33686 9.00896C4.33686 9.00896 4.92733 10.8231 5.32176 11.9569ZM4.18924 11.7832C4.04517 11.4117 3.91763 11.1174 3.71687 11.1488C3.42164 11.1946 3.70388 12.7362 4.06288 12.6469C4.33686 12.5806 4.34513 12.1873 4.18924 11.7832Z" fill="currentColor"/>
</svg>
