<svg width="32" height="32" viewBox="0 0 32 32" fill="none" xmlns="http://www.w3.org/2000/svg">
<path fill-rule="evenodd" clip-rule="evenodd" d="M4.99307 14.1918L4.21526 13.151C3.85508 13.4198 3.50496 13.7158 3.16197 14.0358L4.04964 14.9851C4.35657 14.6983 4.67021 14.4329 4.99307 14.1918ZM11.4944 12.7548C14.7809 13.2752 16.9776 12.5213 18.2234 10.4562C18.7894 9.51778 18.9563 8.41501 18.6938 7.34998C18.4301 6.2862 17.7688 5.38847 16.83 4.82241C15.3469 3.92636 13.4135 4.40605 12.5187 5.88619C11.8198 7.04515 12.1938 8.55715 13.3573 9.25907C14.3054 9.83393 15.5436 9.52407 16.1168 8.57854L15.0035 7.90597C14.8023 8.24226 14.3662 8.35001 14.024 8.14456C13.4789 7.81456 13.3033 7.10342 13.6311 6.55917C14.1574 5.68953 15.2899 5.41154 16.1587 5.93441C16.7998 6.32142 17.2514 6.93486 17.4317 7.66194C17.6116 8.38943 17.4971 9.14208 17.1101 9.7832C16.5097 10.7811 15.2941 12.0391 11.6973 11.4701C9.23349 11.083 7.13278 11.4067 5.27065 12.4592L5.91051 13.5913C7.52944 12.6735 9.30393 12.4043 11.4944 12.7548ZM14.9603 28.7999L16.1289 29.3798L16.7063 28.2145L15.5381 27.6346L14.9603 28.7999ZM24.7263 6.2275L23.8055 5.30251L22.8839 6.2187L23.8047 7.1441L24.7263 6.2275ZM17.2904 14.801L18.4594 15.3826L19.0381 14.2199L17.869 13.6383L17.2904 14.801ZM13.0227 25.9943L14.1913 26.5759L14.77 25.4132L13.6014 24.8316L13.0227 25.9943ZM25.8165 23.4672H27.1222V22.1673H25.8165V23.4672ZM28.5034 12.2789C28.1319 10.7757 27.1977 9.50771 25.8719 8.7081C24.8756 8.10514 23.7032 7.92484 22.5715 8.20787C21.4411 8.48713 20.4868 9.1903 19.8842 10.187C18.9337 11.7636 19.4419 13.8186 21.0256 14.7746C21.6378 15.1453 22.3581 15.2543 23.0508 15.0815C23.7452 14.91 24.3309 14.4773 24.6907 13.8781C25.2119 13.0609 24.9721 11.9715 24.1557 11.4499L23.455 12.5443C23.6689 12.681 23.7313 12.967 23.5871 13.1955C23.3971 13.51 23.0957 13.7322 22.7393 13.8198C22.3824 13.9112 22.0118 13.8517 21.6889 13.6571C20.727 13.076 20.4167 11.8218 20.9975 10.8595C21.4201 10.1589 22.0898 9.66496 22.8839 9.46956C23.6772 9.27165 24.5003 9.39743 25.2006 9.82009C26.2287 10.4407 26.9533 11.4244 27.2417 12.5913C27.5298 13.7565 27.347 14.9649 26.7256 15.9931C26.0031 17.1902 24.8253 17.9986 23.4089 18.2716C21.7057 18.6041 19.7396 18.1307 17.7269 16.916C16.2132 16.0019 14.9431 15.3813 13.7305 14.9624L13.3049 16.191C14.4299 16.5793 15.6216 17.1634 17.0556 18.028C18.8569 19.1156 20.6511 19.6729 22.3195 19.6729C22.7745 19.6729 23.221 19.631 23.6542 19.5484C25.4379 19.2045 26.9235 18.1814 27.8388 16.6656C28.6393 15.3394 28.8754 13.7817 28.5034 12.2789ZM14.266 21.8994L13.5259 22.9682C18.4087 26.3537 22.7787 26.3537 24.4236 26.3537H24.4332L24.4236 25.0538C22.8894 25.0538 18.8154 25.0538 14.266 21.8994ZM24.4236 22.0378C23.0558 22.0378 19.8704 22.0315 16.2036 19.4888C10.9078 15.8178 7.64223 18.3882 6.76714 19.2616C5.10796 20.9207 5.10796 23.6194 6.76714 25.2786C7.40071 25.9117 8.23219 26.2279 9.06409 26.2279C9.89641 26.2279 10.7283 25.9117 11.3619 25.2786C11.8403 24.8001 12.1036 24.1628 12.1036 23.4873C12.1036 22.811 11.8403 22.1749 11.3564 21.6914C10.5493 20.8838 9.2381 20.8864 8.43052 21.6914L9.34964 22.6101C9.6486 22.3107 10.1375 22.3107 10.4428 22.6152C10.6755 22.8487 10.8038 23.1573 10.8038 23.4873C10.8038 23.816 10.6755 24.1259 10.4428 24.3594C9.68298 25.1184 8.4473 25.1184 7.68626 24.3594C6.53443 23.2068 6.53443 21.3333 7.68626 20.1807C8.57728 19.2896 11.1178 17.5441 15.4631 20.5576C19.4641 23.3313 23.0609 23.3376 24.432 23.3376H24.4408L24.4332 22.0378H24.4236ZM11.8726 15.7872L12.1481 14.518C9.10015 13.8504 4.86267 15.2249 3.01983 19.0649L4.19178 19.6285C5.74614 16.3889 9.30854 15.2392 11.8726 15.7872ZM16.0002 30.7002C7.89423 30.7002 1.29984 24.1058 1.29984 15.9994C1.29984 7.89423 7.89423 1.29984 16.0002 1.29984C24.1058 1.29984 30.7002 7.89423 30.7002 15.9994C30.7002 24.1058 24.1058 30.7002 16.0002 30.7002ZM16.0002 0C7.17764 0 0 7.17723 0 15.9994C0 24.8215 7.17764 32 16.0002 32C24.8224 32 32 24.8215 32 15.9994C32 7.17723 24.8224 0 16.0002 0Z" fill="currentColor"/>
</svg>
