<svg width="64" height="64" viewBox="0 0 64 64" fill="none" xmlns="http://www.w3.org/2000/svg">
<path fill-rule="evenodd" clip-rule="evenodd" d="M23.6583 43.852C21.8565 41.7351 22.4027 36.9192 24.8394 35.635C27.3719 34.3049 32.139 33.758 34.9056 36.2877C35.1113 36.0795 35.8136 35.4692 35.9236 35.3316C34.4232 33.1088 29.6562 31.4295 23.1901 33.4052L22.2466 24.4085L27.4819 26.7758C28.06 25.9996 31.4332 25.7174 32.7313 25.982L36.9664 22.2775L38.8214 28.4517C38.8214 28.4517 44.234 28.8045 47.2028 31.5212C50.1716 34.2378 51.1045 39.5865 48.3875 43.4322C44.195 49.3171 28.5566 49.5782 23.6583 43.852ZM26.4391 21.3108V22.8561L23.0305 22.9513L22.6049 21.6177L23.8498 20.0583L22.7432 19.9877L22.424 18.4106L26.0099 18.326L26.5065 19.9383L25.1693 21.3108H26.4391ZM20.1007 24.5284V26.0879L16.6815 26.1831L16.2523 24.8389L17.4973 23.2795L16.4048 23.2089L16.0856 21.6353L19.668 21.5507L20.1646 23.163L18.8309 24.5355L20.1007 24.5284ZM19.6786 16.957L19.8099 18.8622L14.7094 19.0069L14 17.4545L16.873 14.0604L14.1986 13.9616L14.0674 12.127L19.1643 12L19.8737 13.7641L17.2525 17.0347L19.6786 16.957Z" fill="currentColor"/>
</svg>
