<svg width="24" height="24" viewBox="0 0 24 24" fill="none" xmlns="http://www.w3.org/2000/svg">
<path d="M20.5 19.75C18.2909 21.9591 12.9183 20.1682 8.50002 15.75C4.08173 11.3317 2.29086 5.95909 4.50001 3.74994C6.70915 1.5408 12.0817 3.33166 16.5 7.74996C20.9183 12.1682 22.7092 17.5408 20.5 19.75Z" fill="none" stroke="currentColor"/>
<path d="M4.50007 19.75C2.29092 17.5409 4.08179 12.1683 8.50008 7.74996C12.9184 3.33167 18.291 1.5408 20.5001 3.74995C22.7093 5.95909 20.9184 11.3317 16.5001 15.75C12.0818 20.1683 6.70922 21.9592 4.50007 19.75Z" fill="none" stroke="currentColor"/>
<path d="M14.5 11.75C14.5 12.8546 13.6046 13.75 12.5 13.75C11.3954 13.75 10.5 12.8546 10.5 11.75C10.5 10.6454 11.3954 9.75 12.5 9.75C13.6046 9.75 14.5 10.6454 14.5 11.75Z" fill="none" stroke="currentColor"/>
</svg>
