<svg width="24" height="24" viewBox="0 0 24 24" fill="none" xmlns="http://www.w3.org/2000/svg">
<path d="M5.00002 12C5.00002 4.5885 4.58852 3 12 3C19.4115 3 19 4.5885 19 12C19 19.4115 19.4115 21 12 21C4.58852 21 5.00002 19.4115 5.00002 12Z" stroke="currentColor"/>
<path d="M8 14C8.42546 12.4619 9.51999 12 12 12C14.48 12 15.5745 12.4619 16 14" stroke="currentColor" stroke-linecap="round"/>
<path d="M14 8C14 9.10457 13.1046 10 12 10C10.8954 10 10 9.10457 10 8C10 6.89543 10.8954 6 12 6C13.1046 6 14 6.89543 14 8Z" stroke="currentColor"/>
<path fill-rule="evenodd" clip-rule="evenodd" d="M5 16.5C5 16.2239 5.18435 16 5.41176 16H18.5882C18.8156 16 19 16.2239 19 16.5C19 16.7761 18.8156 17 18.5882 17H5.41176C5.18435 17 5 16.7761 5 16.5Z" fill="currentColor"/>
</svg>
