<svg width="64" height="64" viewBox="0 0 64 64" fill="none" xmlns="http://www.w3.org/2000/svg">
<path fill-rule="evenodd" clip-rule="evenodd" d="M45.9834 20.5506L48.0654 43.5901C49.2816 43.0431 50.4556 42.4104 51.578 41.697L53.5751 43.7655C45.8937 53.3969 21.7825 53.4153 13.5439 43.7978L15.6591 41.6186C16.6727 42.3673 17.7499 43.03 18.8789 43.5993L21.7636 25.5232C19.6438 24.7106 16.8866 25.574 16.8866 34.2958L10.3571 35.1038C7.69437 19.1193 20.6635 19.1793 24.6907 23.8611L34.6053 23.6856C34.6053 17.2632 38.8827 6.78693 53.136 12.7938L54 25.7218L50.4072 26.9638L45.9834 20.5506ZM22.0374 44.9429C29.1192 47.4131 37.7024 47.2284 44.9589 44.8044C40.3038 32.8322 27.2119 32.7121 22.0374 44.9429Z" fill="#6B360D"/>
</svg>
