<svg width="64" height="64" viewBox="0 0 64 64" fill="none" xmlns="http://www.w3.org/2000/svg">
<path fill-rule="evenodd" clip-rule="evenodd" d="M40.2036 27.9972C35.5446 32.7572 28.8682 33.0369 24.1114 27.8713C22.2198 29.5403 19.8018 30.7665 17.1228 30.6686C16.4358 29.3731 16.0519 27.9383 16 26.4727C16.233 4.06201 48.2777 5.07835 47.9982 26.1137C47.9309 27.7081 47.5176 29.2688 46.7868 30.6872C44.3611 30.5193 42.0534 29.5764 40.2036 27.9972V27.9972ZM23.9902 31.0695C28.5887 35.4146 36.3739 34.8271 40.4785 31.2793C42.0349 32.1796 43.7807 32.7018 45.5755 32.8038C42.0533 38.1978 35.8847 42.79 35.3909 44.1606L28.4489 44.5989C27.983 43.3168 21.9775 38.333 18.4879 33.0416C20.4626 32.8761 22.3596 32.1962 23.9902 31.0695V31.0695ZM35.8568 47.6805L36.5696 52.1421C35.3256 54.5897 29.0033 54.6643 27.5078 52.0955L28.0762 47.205L35.8568 47.6805Z" fill="#6B360D"/>
</svg>
