<svg width="64" height="64" viewBox="0 0 64 64" fill="none" xmlns="http://www.w3.org/2000/svg">
<path fill-rule="evenodd" clip-rule="evenodd" d="M33.899 34.6443C29.2616 37.5633 24.3224 39.8471 22.1034 44.9289L38.6439 47.0816C38.4665 45.8862 38.1224 44.7206 37.6213 43.6181L26.884 42.4485L28.7247 40.326L35.5966 40.3563C34.9047 39.5162 34.1655 38.715 33.3826 37.9565L36.5578 35.3652C40.0755 39.2421 43.2047 44.1273 42.3713 51.5988L42.131 51.5484L42.0031 51.5181L38.7513 50.8325L21.3671 47.127C21.2294 47.6972 21.1235 48.2745 21.0501 48.8562C21.0046 49.236 20.9858 49.6183 20.9939 50.0006L30.9744 52.2038L28.2236 54.906L21.2597 52.8188C21.4694 54.1699 21.725 55.2337 21.725 55.2337L18.7544 56C18.7544 56 16.5967 52.4256 17.0671 48.6848C18.0437 40.931 23.4123 36.5096 28.4946 33.157C25.1456 29.628 21.8784 25.3226 21.8784 19.671C21.9669 17.9391 22.3524 16.2345 23.0186 14.6296L25.9483 15.3606C25.9483 15.3606 25.8614 16.4395 25.7898 17.599L42.8928 18.8392C42.9439 18.567 42.9899 18.2846 43.0257 17.9973C43.1323 17.1766 43.1665 16.3484 43.128 15.5219L29.7678 15.0178L31.1278 12.9306L42.5451 12.3458C42.0645 10.9392 41.3947 9.47715 41.3947 9.47715L44.0228 8C44.0228 8 47.6019 13.2129 46.9116 18.4611C45.8481 26.7443 39.5745 31.0749 33.899 34.6443ZM25.7183 19.908C25.7225 21.0011 25.8949 22.0873 26.2296 23.1295L37.5804 25.2016L33.4491 27.2484L27.5589 25.8822C28.7809 27.7374 30.4427 29.3053 32.089 30.8732C36.0158 28.4281 39.871 26.1241 41.8037 22.1212L25.7183 19.908Z" fill="black"/>
</svg>
