<svg width="64" height="64" viewBox="0 0 64 64" fill="none" xmlns="http://www.w3.org/2000/svg">
<path fill-rule="evenodd" clip-rule="evenodd" d="M56.4972 17.7384C55.1663 18.8489 54.8559 22.7479 54.8559 22.7479H53.929C53.929 22.7479 54.0012 19.5543 52.4025 17.968C50.8038 16.3817 47.9422 16.1479 47.9422 16.1479L48.0315 15.1753C48.0315 15.1753 51.348 14.7912 52.445 13.7016C53.9545 12.203 53.8652 9.47283 53.8652 9.47283L54.8091 9.39351C54.8091 9.39351 54.9792 12.4785 56.2803 13.7601C57.5814 15.0417 60.9575 15.1627 60.9575 15.1627L61 16.1897C61 16.1897 58.1299 16.3692 56.4972 17.7384ZM46.0288 11.844H45.4803C45.4803 11.844 45.4803 9.94037 44.5449 9.00528C43.6094 8.07018 41.9469 7.95747 41.9469 7.95747L42.0022 7.38555C42.0022 7.38555 43.9963 7.17683 44.6426 6.55065C45.5313 5.66982 45.442 4.04592 45.442 4.04592L45.999 4C45.999 4 46.1223 5.79505 46.8919 6.55065C47.6615 7.30624 49.6132 7.38555 49.6132 7.38555L49.6387 7.99086C49.6387 7.99086 47.9379 8.0994 46.994 8.90509C46.2116 9.54797 46.0288 11.844 46.0288 11.844ZM44.277 14.0189C44.277 14.0189 42.5762 14.1233 41.6322 14.929C40.8499 15.5844 40.667 17.8804 40.667 17.8804H40.1185C40.1185 17.8804 40.1185 15.9809 39.1831 15.0458C38.2477 14.1107 36.5894 13.9939 36.5894 13.9939L36.6404 13.4178C36.6404 13.4178 38.6346 13.209 39.2809 12.5829C40.1738 11.6979 40.0803 10.0781 40.0803 10.0781L40.6415 10.0322C40.6415 10.0322 40.7266 11.8607 41.4919 12.6121C42.2573 13.3635 44.2472 13.447 44.2472 13.447L44.277 14.0189ZM40.5012 22.2928L46.5901 19.4625L46.9685 19.9092L42.8993 24.6932L43.5074 33.8772L40.531 34.9L36.8743 29.5566L36.6277 38.1603L33.3366 43.2449L32.8817 56.9791H31.0448L29.0932 44.3386L19.1946 44.4597L14.6449 48.4965L13.9179 56.7996L11.7408 56.8706L11.1243 46.572L14.2283 39.8927L14.275 34.4909C12.6635 33.6267 10.1804 33.8939 10.1804 40.6984L5.26509 41.8673C3.28367 29.9364 12.9569 29.3019 16.1204 32.6833L26.3251 32.8127C26.3124 28.7467 30.3688 19.4709 40.5012 22.2928ZM26.104 46.2756L21.9286 48.6968L22.8513 56.7245L20.602 57L18.1911 47.912L19.3646 46.4134L26.104 46.2756ZM42.2615 39.3626L44.6724 48.5841L42.793 49.2854L39.8167 43.2115L35.6455 44.0464L38.2987 39.2248L42.2615 39.3626Z" fill="currentColor"/>
</svg>
