<svg width="64" height="64" viewBox="0 0 64 64" fill="none" xmlns="http://www.w3.org/2000/svg">
<path fill-rule="evenodd" clip-rule="evenodd" d="M46.6782 40.3252L42.7827 31.1954L41.7777 31.0855L38.5427 42.4236L35.0157 35.6026L34.2882 35.4257L31.6179 40.6837L22.2333 40.9466C21.8089 39.7852 21.5871 38.5597 21.5777 37.3234C21.5372 35.7112 22.0582 34.1349 23.0516 32.8636C20.3286 27.3475 21.592 22.7014 24.4347 20.0533L23.2335 15.7513L26.9136 14.2217L28.3493 17.9166C28.9649 17.7628 29.5957 17.6778 30.23 17.6633L31.2877 13.6863L34.6376 14.4225L32.8908 23.949C30.7469 23.2415 28.9236 26.1334 31.3834 29.207V29.2356L32.8191 30.7796L34.1686 29.6419L32.9148 27.0321C33.7138 26.0942 34.6831 25.3157 35.7718 24.7377C35.8819 20.1823 36.4609 13.6099 38.758 10.6272C40.1363 8.83466 48.157 11.1291 46.2523 14.4177C44.4385 17.5581 44.1131 21.5399 44.1753 24.4031C45.557 24.9382 46.8239 25.7315 47.9081 26.7405C51.0283 29.6515 52.8134 34.5127 53 40.2248L46.6782 40.3252ZM44.405 13.8202C44.7065 12.6921 40.3229 11.5258 40.0262 12.63C39.7056 13.8345 44.1035 14.953 44.405 13.8202ZM11.2647 26.8887C9.89118 25.0914 14.1791 17.9501 16.8734 20.6364C17.7792 21.5253 18.8015 22.2875 19.9123 22.9022C18.8307 26.7261 19.6251 30.6887 19.9553 32.0415C16.4523 30.7461 12.8822 28.9966 11.2647 26.8887ZM34.518 39.5556L38.4422 48.3938L39.5524 47.9636L42.4621 38.0738L44.8549 43.1358L52.9426 43.1741C52.721 46.5397 52.0449 49.86 50.9326 53.0447C38.9351 56.3907 27.2773 50.4444 23.1282 43.0068L33.178 42.916L34.518 39.5556Z" fill="black"/>
</svg>
