<svg width="24" height="24" viewBox="0 0 24 24" fill="none" xmlns="http://www.w3.org/2000/svg">
<path fill-rule="evenodd" clip-rule="evenodd" d="M18.5288 10.4879L21.8657 10.0941L22 11.5472L18.6769 11.7618L18.5288 10.4879ZM16.6234 6.98917L18.4676 5.2467L19.4805 6.37882L17.3993 7.90274L16.6234 6.98917ZM13.008 5.29986L13.7109 2L15.0931 2.35046L14.167 5.6267L13.008 5.29986ZM12.1135 17.8456C3.62306 17.8811 4.20357 6.4871 11.5449 6.4556C19.0283 6.42213 19.2673 17.8141 12.1135 17.8456ZM11.5646 7.92243C5.87403 7.94605 5.53638 16.5147 11.9951 16.4871C17.4408 16.4635 17.3618 7.89683 11.5646 7.92243ZM7.68072 3.29553L9.17939 2.85253L9.98302 5.14629L8.84767 5.52825L7.68072 3.29553ZM2.88854 6.60327L3.62701 5.26442L6.40122 7.25694L5.84638 8.33983L2.88854 6.60327ZM4.60638 12.7068L2.03949 12.9037L2 11.3089L4.50765 11.5058L4.60638 12.7068ZM6.5967 16.9478L4.06536 19.3341L3.10969 18.0228L5.83453 16.0224L6.5967 16.9478ZM10.8696 19.4286L10.7314 22L9.00958 21.8189L9.7362 19.2436L10.8696 19.4286ZM17.1999 21.0628L15.7289 21.7657L14.2184 18.7651L15.5018 18.202L17.1999 21.0628ZM20.5882 16.2095L19.909 17.5267L17.4704 15.9653L18.0628 14.9199L20.5882 16.2095Z" fill="currentColor"/>
</svg>
