<svg width="64" height="64" viewBox="0 0 64 64" fill="none" xmlns="http://www.w3.org/2000/svg">
<path fill-rule="evenodd" clip-rule="evenodd" d="M52.3527 33.828L47.6862 32.0247L45.9258 33.8576L47.4452 38.6153L52.0036 39.307L48.7188 42.6418L50.4104 47.938L44.8292 46.609L41.5887 49.9093L40.9249 45.6802L35.7322 44.4451L33.0572 47.2266L34.7734 51.6187L30.0331 50.3786L26.5565 54L25.2092 49.1188L20.4394 47.8738L24.0536 44.9391L23.0702 41.4314L19.5346 40.5668L16.7219 44.1091L15.4828 39.6034L10 38.2942L14.0174 34.2726L12.7783 29.757L16.9285 31.3627L19.5789 28.7146L18.5168 24.861L14.0224 24.1792L17.3809 20.7554L15.9942 15.7656L21.0344 17.0501L24.4224 13.5917L25.1158 18.0925L29.1726 19.1251L31.2772 17.0204L29.802 13.2706L33.9669 14.3526L38.3138 10L40.2266 15.9829L44.1605 17.0155L41.2937 19.3474L42.2772 22.4698L45.4046 23.2751L48.409 19.4857L49.7564 24.3818L54 25.4637L50.9316 28.6602L52.3527 33.828Z" fill="black"/>
</svg>
