<svg width="32" height="32" viewBox="0 0 32 32" fill="none" xmlns="http://www.w3.org/2000/svg">
<path d="M8.41455 22.1693C8.41433 22.1612 8.41421 22.1532 8.41419 22.1451C8.41419 22.1452 8.41419 22.145 8.41419 22.1451C8.41419 22.1442 8.41418 22.143 8.41418 22.1421C8.41418 22.1422 8.41418 22.142 8.41418 22.1421L8.41418 12.1421C8.41418 11.5898 8.8619 11.1421 9.41418 11.1421C9.96647 11.1421 10.4142 11.5898 10.4142 12.1421V19.7279L21.435 8.70708C21.8255 8.31655 22.4587 8.31655 22.8492 8.70708C23.2397 9.0976 23.2397 9.73077 22.8492 10.1213L11.8284 21.1421L19.4142 21.1421C19.9665 21.1421 20.4142 21.5898 20.4142 22.1421C20.4142 22.6944 19.9665 23.1421 19.4142 23.1421L9.41418 23.1421C8.87099 23.1421 8.42895 22.709 8.41455 22.1693Z" fill="currentColor"/>
</svg>
