<svg width="32" height="32" viewBox="0 0 32 32" fill="none" xmlns="http://www.w3.org/2000/svg">
<path d="M9 9C9 8.44772 9.44772 8 10 8C10.5523 8 11 8.44772 11 9V23C11 23.5523 10.5523 24 10 24C9.44772 24 9 23.5523 9 23V9Z" fill="currentColor"/>
<path d="M15 9C15 8.44772 15.4477 8 16 8C16.5523 8 17 8.44772 17 9V23C17 23.5523 16.5523 24 16 24C15.4477 24 15 23.5523 15 23V9Z" fill="currentColor"/>
<path d="M22 8C21.4477 8 21 8.44772 21 9V23C21 23.5523 21.4477 24 22 24C22.5523 24 23 23.5523 23 23V9C23 8.44772 22.5523 8 22 8Z" fill="currentColor"/>
</svg>
