<svg width="64" height="64" viewBox="0 0 64 64" fill="none" xmlns="http://www.w3.org/2000/svg">
<path fill-rule="evenodd" clip-rule="evenodd" d="M44.8854 53.9999C36.3336 53.975 35.608 41.4723 29.8434 40.4395L29.2379 42.5C30.3488 42.6996 31.2395 43.7623 32.0701 45.2291L20.9613 45.0545C21.5718 37.7803 21.0113 35.1062 14.7913 32.9359C11.874 23.252 16.7929 8.15497 33.3912 10.1855C49.9895 12.2161 50.1096 27.0038 45.7811 35.7049C39.6162 36.1389 37.8648 38.1994 36.9841 42.8892C38.5453 44.5256 39.8113 46.2568 41.5377 47.2098L42.2583 44.3011L49.4691 44.3959C49.4691 44.3959 49.8243 46.8905 49.9695 48.3872C50.2947 52.7277 47.9829 54.0099 44.8854 53.9999ZM25.1246 23.4915C18.9196 22.7282 17.4685 32.0828 24.0738 32.891C30.1086 33.6294 31.3045 24.2449 25.1246 23.4915ZM37.7247 26.9839C33.3862 26.455 32.3654 32.9708 36.9891 33.5645C41.2125 34.0634 42.0481 27.5028 37.7247 26.9689V26.9839Z" fill="black"/>
</svg>
