<svg width="32" height="32" viewBox="0 0 32 32" xmlns="http://www.w3.org/2000/svg">
<path d="M16 4C13.6266 4 11.3066 4.70379 9.33316 6.02236C7.35977 7.34094 5.8217 9.21509 4.91345 11.4078C4.0052 13.6005 3.76756 16.0133 4.23058 18.3411C4.6936 20.6689 5.83649 22.8071 7.51472 24.4853C9.19295 26.1635 11.3312 27.3064 13.6589 27.7694C15.9867 28.2324 18.3995 27.9948 20.5922 27.0866C22.7849 26.1783 24.6591 24.6402 25.9776 22.6668C27.2962 20.6935 28 18.3734 28 16C27.9965 12.8185 26.7311 9.76824 24.4815 7.51855C22.2318 5.26887 19.1815 4.00347 16 4ZM18.4253 14.9157L16.6 21H17.8596C17.9356 21 18.0106 21.0173 18.0789 21.0506C18.1472 21.084 18.2069 21.1324 18.2537 21.1923C18.3005 21.2522 18.333 21.322 18.3487 21.3963C18.3645 21.4707 18.3631 21.5476 18.3446 21.6213L18.0946 22.6213C18.0676 22.7295 18.0051 22.8255 17.9173 22.8941C17.8294 22.9627 17.7211 23 17.6096 23H14C13.762 23.0194 13.523 22.9779 13.3054 22.8795C13.0878 22.781 12.8989 22.6289 12.7563 22.4373C12.6138 22.2457 12.5223 22.021 12.4906 21.7843C12.4588 21.5476 12.4877 21.3068 12.5747 21.0844L14.4 15H13.6404C13.5644 15 13.4894 14.9827 13.4212 14.9494C13.3529 14.916 13.2931 14.8676 13.2463 14.8077C13.1995 14.7478 13.167 14.678 13.1513 14.6037C13.1355 14.5293 13.1369 14.4524 13.1554 14.3787L13.4054 13.3787C13.4324 13.2705 13.4948 13.1745 13.5827 13.1059C13.6706 13.0373 13.7789 13 13.8904 13H17C17.238 12.9806 17.4771 13.0221 17.6946 13.1205C17.9122 13.219 18.1011 13.3711 18.2437 13.5627C18.3862 13.7543 18.4777 13.979 18.5095 14.2157C18.5412 14.4524 18.5123 14.6933 18.4253 14.9157ZM18.5696 11.5823C18.5502 11.699 18.4899 11.8051 18.3996 11.8815C18.3093 11.958 18.1948 12 18.0764 12H15.5902C15.5176 12 15.4458 11.9842 15.38 11.9536C15.3141 11.9231 15.2556 11.8786 15.2087 11.8231C15.1618 11.7677 15.1275 11.7028 15.1082 11.6327C15.0889 11.5627 15.0851 11.4894 15.0971 11.4177L15.4304 9.41772C15.4498 9.30098 15.5101 9.19494 15.6004 9.11845C15.6907 9.04197 15.8052 8.99999 15.9236 9H18.4098C18.4824 9 18.5542 9.01583 18.6201 9.04637C18.6859 9.07691 18.7444 9.12144 18.7913 9.17685C18.8383 9.23227 18.8726 9.29724 18.8918 9.36726C18.9111 9.43727 18.9149 9.51065 18.903 9.58228L18.5696 11.5823Z" fill="currentColor"/>
</svg>
