<svg width="16" height="16" viewBox="0 0 16 16" fill="none" xmlns="http://www.w3.org/2000/svg">
<path fill-rule="evenodd" clip-rule="evenodd" d="M9.37291 13.7038L10.7629 11.5796C13.9777 12.1854 13.6831 13.8368 12.4392 14.3417C12.0389 14.0281 10.8033 13.8024 9.37291 13.7038ZM10.6358 11.0901H10.2532L8.11478 14.375L7.67521 14.3108L5.47259 11.1245H4.89045C3.34601 11.1352 3.15711 9.251 4.41524 8.78886L4.77165 7.0365C4.75858 5.40414 4.61127 3.83712 3.94003 2.57899L4.4889 2.31287C4.4889 2.31287 4.63503 2.53147 4.84531 2.81304L5.3027 2.62295L5.65911 3.12311L5.34904 3.41418C5.67099 3.76109 6.02146 4.0581 6.28521 4.06285C6.7426 4.06998 7.18336 3.62565 7.38295 2.74175L6.94694 2.71918L6.93031 2.11091H7.48037C7.49225 1.9624 7.49938 1.80558 7.49938 1.63569L8.0934 1.625C8.0934 1.79727 8.09934 1.95884 8.10884 2.11091H8.61732L8.59 2.79284L8.19676 2.77264C8.3809 3.6506 8.79077 4.03434 9.29331 4.03434C9.54874 4.03434 9.92773 3.70406 10.2734 3.33221L9.99307 3.0946L10.2568 2.57186L10.7463 2.78809C10.9589 2.52078 11.1027 2.31287 11.1027 2.31287L11.6825 2.53266C10.8508 3.94286 10.7665 5.53364 10.7653 7.24441L11.0896 8.78886C12.2622 9.23912 12.1185 11.0818 10.6358 11.0913V11.0901ZM7.45424 9.86878H8.27517C8.27517 10.3214 9.08184 10.2632 8.82879 9.56821C8.38803 9.1821 7.34137 9.17616 6.88517 9.55989C6.59291 10.2632 7.45424 10.3464 7.45424 9.86878ZM5.55338 6.32131C5.55338 7.55924 5.62941 8.45977 5.85039 9.17259L7.11802 8.52511H8.6197L9.76734 9.22724C9.97643 8.5061 10.0394 7.59369 10.0394 6.33437L5.55338 6.32131ZM6.41233 13.6871C5.15539 13.7667 4.08259 13.9675 3.64539 14.3204C2.40033 13.6812 1.94769 12.1819 4.9154 11.5879L6.41233 13.6871Z" fill="currentColor"/>
</svg>
