<svg width="16" height="16" viewBox="0 0 16 16" fill="none" xmlns="http://www.w3.org/2000/svg">
<path fill-rule="evenodd" clip-rule="evenodd" d="M11.3891 8.99054C12.025 6.0807 10.68 3.44507 8.4438 3.01486C9.6647 1.92988 12.5934 2.28208 12.5934 4.93308C12.5934 6.74611 11.4565 7.70463 12.9031 8.81444C12.4764 9.17846 11.8713 9.20446 11.3891 8.99054ZM10.0075 10.9017C10.0075 10.3107 9.99209 9.73041 9.94954 9.18082C9.78053 9.80487 9.51106 10.3284 9.08912 10.683L9.29595 11.9228L11.7448 12.8743L11.5865 13.5326L3.2399 13.5598L3.09689 12.8944L5.71244 11.9098L5.85781 10.6298C5.52373 10.335 5.26241 9.96692 5.0943 9.5543C4.91935 10.0398 4.83677 10.5537 4.85083 11.0695C3.15953 8.66079 3.16308 4.36931 6.45939 3.55735C6.76862 3.46392 7.09017 3.4177 7.41319 3.42025C7.46755 3.42025 7.51956 3.42025 7.57156 3.42025H7.64011C10.5358 3.42261 12.1975 7.37607 10.0075 10.9017ZM8.58918 12.1048C8.56908 11.8555 8.53599 11.3449 8.51472 11.0234C8.20223 11.138 7.87124 11.1937 7.53847 11.1877C7.1748 11.1926 6.8136 11.1272 6.47476 10.995C6.45467 11.3496 6.42039 11.95 6.40857 12.2124C6.36839 13.0078 8.65182 13.022 8.58445 12.1048H8.58918ZM5.52215 8.84162C5.84835 9.92778 6.46767 10.5187 7.49592 10.5187C8.9532 10.5187 9.47205 9.26001 9.57724 7.17987C9.40114 6.7142 9.15767 6.37973 8.82556 6.24262C8.39535 7.91974 6.5374 7.68218 5.52215 8.84162Z" fill="currentColor"/>
</svg>
