<svg width="320" height="320" viewBox="0 0 320 320" fill="none" xmlns="http://www.w3.org/2000/svg">
<path fill-rule="evenodd" clip-rule="evenodd" d="M297.943 162.928L197.396 156.789L197.933 185.081C230.121 205.932 263.665 230.546 284.577 260.394L258.804 279.066L198.555 214.957L199.77 279.717L169.052 280L167.045 156.082H151.616L151.785 278.84L121.039 279.123L121.491 212.354L60.1677 278.925L34.7341 261.158C54.5158 232.13 88.8229 205.536 121.576 183.808L121.887 156.987L21 163.579L22.6391 132.062L116.291 131.524C85.2057 110.503 53.5832 85.2387 34.8472 57.7956L60.2808 40.0283L144.325 131.326L173.093 131.156L258.804 40L284.577 58.6726C264.625 86.9645 233.173 110.871 202.426 130.987L298 130.421L297.943 162.928ZM158.652 106.344C124.204 106.429 123.978 52.307 159.302 52.307C194.627 52.307 196.492 106.429 158.709 106.429L158.652 106.344Z" fill="currentColor"/>
</svg>
