<svg width="24" height="24" viewBox="0 0 24 24" fill="none" xmlns="http://www.w3.org/2000/svg">
<path d="M3 9.00009C3 8.01867 3 7.52795 3.21115 7.10566C3.42229 6.68337 3.81486 6.38894 4.6 5.80009L7 4.00009C7.69964 3.47536 8.04946 3.21299 8.43022 3.11374C8.79466 3.01875 9.17851 3.02858 9.53761 3.14212C9.91278 3.26074 10.2487 3.54068 10.9206 4.10055L12.5699 5.475C13.736 6.44676 14.3191 6.93264 15.0141 6.95045C15.7091 6.96826 16.3163 6.51288 17.5306 5.60212L18 5.25009C19.2361 4.32304 21 5.20501 21 6.75009V14.0001V15.0001C21 15.9815 21 16.4722 20.7889 16.8945C20.5777 17.3168 20.1851 17.6112 19.4 18.2001L17 20.0001C16.3004 20.5248 15.9505 20.7872 15.5698 20.8864C15.2053 20.9814 14.8215 20.9716 14.4624 20.8581C14.0872 20.7395 13.7513 20.4595 13.0794 19.8996L10.9206 18.1006C10.2487 17.5407 9.91278 17.2607 9.53761 17.1421C9.17851 17.0286 8.79466 17.0188 8.43022 17.1138C8.04946 17.213 7.69964 17.4754 7 18.0001C6.3181 18.5115 5.97715 18.7672 5.7171 18.8671C4.61978 19.2886 3.39734 18.6774 3.07612 17.5466C3 17.2787 3 16.8525 3 16.0001V10.0001V9.00009Z" fill="none" stroke="currentColor" stroke-linejoin="round"/>
<path d="M15 7.22925V20.5" fill="none" stroke="currentColor" stroke-linecap="round" stroke-linejoin="round"/>
<path d="M9 3.5V16.7083" fill="none" stroke="currentColor" stroke-linecap="round" stroke-linejoin="round"/>
</svg>
