<svg width="64" height="64" viewBox="0 0 64 64" fill="none" xmlns="http://www.w3.org/2000/svg">
<path fill-rule="evenodd" clip-rule="evenodd" d="M45.4662 30.3133L45.7378 30.4067C48.518 35.0744 44.8322 48.6109 41.3321 51.9997L28.4818 51.799L20.0643 56L12 40.4704L20.8431 35.7046L23.9448 27.4006L28.4727 26.9339L20.7299 13.1266C23.7818 8.26747 39.5662 6.71311 44.4881 9.10767L43.4557 15.3671C47.1551 16.4407 50.5646 18.4432 52 20.4177L45.4662 30.3133ZM26.1952 30.3133L22.8762 38.1458L20.2273 39.8262L25.0088 49.7265L27.377 49.0077H39.4123C41.7125 46.025 44.1032 38.2718 42.9396 33.198L30.2296 35.3638L29.1836 30.1313L26.1952 30.3133ZM36.6547 11.3949C33.9304 11.4112 31.2164 11.7415 28.5633 12.3798C29.9986 14.2469 29.9217 17.701 27.9113 19.9415L31.3389 26.1917L32.5841 31.7183L34.3636 31.3542L32.9056 15.9739C34.3807 15.031 36.0875 14.545 37.823 14.5736C37.1621 13.6493 36.7582 12.5568 36.6547 11.4135V11.3949ZM39.8605 17.7524C39.9737 19.6195 38.6335 21.8227 36.5053 22.5648L36.7181 27.1766C38.5293 24.712 42.2649 25.4962 43.4693 28.6703L46.0684 24.558C44.4202 23.6244 43.3742 21.0898 44.0806 18.6812C42.7209 18.1804 41.301 17.8741 39.8605 17.771V17.7524Z" fill="black"/>
</svg>
