<svg width="32" height="32" viewBox="0 0 32 32" xmlns="http://www.w3.org/2000/svg">
<path d="M19 24C19 24.5933 18.8241 25.1734 18.4944 25.6667C18.1648 26.1601 17.6962 26.5446 17.1481 26.7716C16.5999 26.9987 15.9967 27.0581 15.4147 26.9424C14.8328 26.8266 14.2982 26.5409 13.8787 26.1213C13.4591 25.7018 13.1734 25.1672 13.0576 24.5853C12.9419 24.0033 13.0013 23.4001 13.2284 22.852C13.4554 22.3038 13.8399 21.8352 14.3333 21.5056C14.8266 21.1759 15.4067 21 16 21C16.7957 21 17.5587 21.3161 18.1213 21.8787C18.6839 22.4413 19 23.2044 19 24ZM16 13C15.4067 13 14.8266 13.1759 14.3333 13.5056C13.8399 13.8352 13.4554 14.3038 13.2284 14.852C13.0013 15.4001 12.9419 16.0033 13.0576 16.5853C13.1734 17.1672 13.4591 17.7018 13.8787 18.1213C14.2982 18.5409 14.8328 18.8266 15.4147 18.9424C15.9967 19.0581 16.5999 18.9987 17.1481 18.7716C17.6962 18.5446 18.1648 18.1601 18.4944 17.6667C18.8241 17.1734 19 16.5933 19 16C19 15.2044 18.6839 14.4413 18.1213 13.8787C17.5587 13.3161 16.7957 13 16 13ZM16 11C16.5933 11 17.1734 10.8241 17.6667 10.4944C18.1601 10.1648 18.5446 9.69623 18.7716 9.14805C18.9987 8.59987 19.0581 7.99667 18.9424 7.41473C18.8266 6.83279 18.5409 6.29824 18.1213 5.87868C17.7018 5.45912 17.1672 5.1734 16.5853 5.05765C16.0033 4.94189 15.4001 5.0013 14.852 5.22836C14.3038 5.45543 13.8352 5.83994 13.5056 6.33329C13.1759 6.82664 13 7.40666 13 8C13 8.79565 13.3161 9.55871 13.8787 10.1213C14.4413 10.6839 15.2044 11 16 11Z" fill="currentColor"/>
</svg>
