<svg width="16" height="16" viewBox="0 0 16 16" fill="none" xmlns="http://www.w3.org/2000/svg">
    <path d="M14 12V12.5C14 12.6326 13.9473 12.7598 13.8536 12.8536C13.7598 12.9473 13.6326 13 13.5 13H5.5C5.36739 13 5.24021 12.9473 5.14645 12.8536C5.05268 12.7598 5 12.6326 5 12.5V12C5 11.8674 5.05268 11.7402 5.14645 11.6464C5.24021 11.5527 5.36739 11.5 5.5 11.5H13.5C13.6326 11.5 13.7598 11.5527 13.8536 11.6464C13.9473 11.7402 14 11.8674 14 12ZM13.5 8.5H5.5C5.36739 8.5 5.24021 8.55268 5.14645 8.64645C5.05268 8.74021 5 8.86739 5 9V9.5C5 9.63261 5.05268 9.75979 5.14645 9.85355C5.24021 9.94732 5.36739 10 5.5 10H13.5C13.6326 10 13.7598 9.94732 13.8536 9.85355C13.9473 9.75979 14 9.63261 14 9.5V9C14 8.86739 13.9473 8.74021 13.8536 8.64645C13.7598 8.55268 13.6326 8.5 13.5 8.5ZM13.5 5.5H5.5C5.36739 5.5 5.24021 5.55268 5.14645 5.64645C5.05268 5.74021 5 5.86739 5 6V6.5C5 6.63261 5.05268 6.75979 5.14645 6.85355C5.24021 6.94732 5.36739 7 5.5 7H13.5C13.6326 7 13.7598 6.94732 13.8536 6.85355C13.9473 6.75979 14 6.63261 14 6.5V6C14 5.86739 13.9473 5.74021 13.8536 5.64645C13.7598 5.55268 13.6326 5.5 13.5 5.5ZM13.5 2.5H5.5C5.36739 2.5 5.24021 2.55268 5.14645 2.64645C5.05268 2.74021 5 2.86739 5 3V3.5C5 3.63261 5.05268 3.75979 5.14645 3.85355C5.24021 3.94732 5.36739 4 5.5 4H13.5C13.6326 4 13.7598 3.94732 13.8536 3.85355C13.9473 3.75979 14 3.63261 14 3.5V3C14 2.86739 13.9473 2.74021 13.8536 2.64645C13.7598 2.55268 13.6326 2.5 13.5 2.5ZM3 11.5H2.5C2.36739 11.5 2.24021 11.5527 2.14645 11.6464C2.05268 11.7402 2 11.8674 2 12V12.5C2 12.6326 2.05268 12.7598 2.14645 12.8536C2.24021 12.9473 2.36739 13 2.5 13H3C3.13261 13 3.25979 12.9473 3.35355 12.8536C3.44732 12.7598 3.5 12.6326 3.5 12.5V12C3.5 11.8674 3.44732 11.7402 3.35355 11.6464C3.25979 11.5527 3.13261 11.5 3 11.5ZM3 8.5H2.5C2.36739 8.5 2.24021 8.55268 2.14645 8.64645C2.05268 8.74021 2 8.86739 2 9V9.5C2 9.63261 2.05268 9.75979 2.14645 9.85355C2.24021 9.94732 2.36739 10 2.5 10H3C3.13261 10 3.25979 9.94732 3.35355 9.85355C3.44732 9.75979 3.5 9.63261 3.5 9.5V9C3.5 8.86739 3.44732 8.74021 3.35355 8.64645C3.25979 8.55268 3.13261 8.5 3 8.5ZM3 5.5H2.5C2.36739 5.5 2.24021 5.55268 2.14645 5.64645C2.05268 5.74021 2 5.86739 2 6V6.5C2 6.63261 2.05268 6.75979 2.14645 6.85355C2.24021 6.94732 2.36739 7 2.5 7H3C3.13261 7 3.25979 6.94732 3.35355 6.85355C3.44732 6.75979 3.5 6.63261 3.5 6.5V6C3.5 5.86739 3.44732 5.74021 3.35355 5.64645C3.25979 5.55268 3.13261 5.5 3 5.5ZM3 2.5H2.5C2.36739 2.5 2.24021 2.55268 2.14645 2.64645C2.05268 2.74021 2 2.86739 2 3V3.5C2 3.63261 2.05268 3.75979 2.14645 3.85355C2.24021 3.94732 2.36739 4 2.5 4H3C3.13261 4 3.25979 3.94732 3.35355 3.85355C3.44732 3.75979 3.5 3.63261 3.5 3.5V3C3.5 2.86739 3.44732 2.74021 3.35355 2.64645C3.25979 2.55268 3.13261 2.5 3 2.5Z" fill="currentColor"/>
</svg>
