<svg width="24" height="24" viewBox="0 0 24 24" fill="none" xmlns="http://www.w3.org/2000/svg">
<path d="M3 8C3 7.06812 3 6.60218 3.15224 6.23463C3.35523 5.74458 3.74458 5.35523 4.23463 5.15224C4.60218 5 5.06812 5 6 5H10H14C14.9319 5 15.3978 5 15.7654 5.15224C16.2554 5.35523 16.6448 5.74458 16.8478 6.23463C17 6.60218 17 7.06812 17 8V14.6667C17 19 16.15 20 10 20C3.84999 20 3 19 3 14.6667V8Z" stroke="currentColor" stroke-linejoin="round"/>
<path d="M17 8H19C20.1046 8 21 8.89543 21 10V13C21 14.1046 20.1046 15 19 15H17" stroke="currentColor" stroke-linecap="round" stroke-linejoin="round"/>
</svg>
