<svg width="64" height="64" viewBox="0 0 64 64" fill="none" xmlns="http://www.w3.org/2000/svg">
<path fill-rule="evenodd" clip-rule="evenodd" d="M56.9713 29.5892C56.9006 29.7301 56.8255 29.871 56.7459 30.0296C58.1688 30.1969 58.9333 32.1873 60.8202 31.3242L61.2267 32.6453C58.8007 34.0369 57.5104 32.0861 55.3761 32.0376C55.1286 32.3415 54.8546 32.6409 54.563 32.9183C56.8166 34.0237 56.0345 36.9697 58.9465 37.5333L58.593 38.7179C55.133 38.5858 54.7309 35.9084 53.825 35.1069C50.9925 32.6101 50.4004 33.4468 50.4004 33.4468L50.3517 31.038C50.3517 31.038 53.2947 31.4784 54.7707 29.0079C55.7922 27.2816 56.5124 25.395 56.9006 23.4285L58.3411 23.8689C58.3855 25.0376 58.2362 26.2055 57.8993 27.3257C59.2249 27.2597 60.5506 26.0399 60.9925 25.3089L62 26.0575C61.5636 27.0465 60.8647 27.898 59.9786 28.5204C59.0924 29.1427 58.0526 29.5123 56.9713 29.5892ZM46.6045 34.0589C45.8268 34.0589 43.8825 34.1117 43.0296 34.1161C40.2589 34.1161 40.2457 30.2982 43.2196 30.2762C44.1829 30.2762 45.6279 30.2762 46.4012 30.2762C49.2205 30.2498 49.2868 34.0413 46.6045 34.0589V34.0589ZM37.4706 34.0589C36.6885 34.0589 34.8193 34.1117 33.9885 34.1161C31.2179 34.1161 31.2046 30.2982 34.1785 30.2762C35.1463 30.2762 36.494 30.2762 37.2718 30.2762C40.0645 30.2498 40.1485 34.0413 37.4706 34.0589V34.0589ZM35.1153 24.4238L34.9651 25.8549C32.2872 26.3966 31.9249 24.4194 30.1441 23.7192C28.0362 24.6439 26.3615 25.4278 26.3615 27.9114C26.3615 30.994 30.2678 30.809 30.2678 30.809L30.0247 33.2794C30.0247 33.2794 26.8873 32.7994 26.8873 35.4813C26.8873 37.0489 28.6549 38.4757 30.745 38.2643C34.0194 37.9341 34.4304 39.9818 37.285 40.4926L36.9845 42.0955C34.89 42.0955 34.1255 40.977 32.5391 40.541H32.4949C32.7335 41.6551 32.3889 43.0203 33.9222 43.6896L33.1136 44.8566C30.5108 43.9758 31.1472 41.9017 29.9187 40.3296C29.331 40.3296 28.6637 40.3649 27.8241 40.3296C28.4914 42.7472 25.7605 44.1168 27.2673 46.6621L26.0433 47.2786C23.8338 44.61 25.6014 42.5359 25.6014 41.3249C25.6014 37.5598 20.9616 37.1502 20.7936 39.2243C20.6611 40.9109 20.4136 42.5755 19.5475 43.8349C19.8436 45.658 21.5714 46.5564 20.3606 48.974L19.0879 48.7758C19.7375 47.1156 18.3588 46.3846 17.7623 45.3366C17.031 45.6661 16.2472 45.8643 15.4468 45.9222C14.9695 47.6837 12.9677 50 12.9677 50L11.8321 49.1193C12.4651 48.156 12.9381 47.0973 13.2329 45.9839C7.1392 46.1953 4.31551 48.014 4.31551 48.014L3.67919 46.6709C3.67919 46.6709 5.21255 45.0107 8.61953 44.1168C7.80067 43.319 7.06077 42.4445 6.41008 41.5054L7.73575 40.5983C8.71096 41.8852 9.97449 42.9272 11.4255 43.6412C11.9779 43.5927 12.5612 43.5619 13.1931 43.5619C17.643 43.5619 17.802 41.1223 17.802 38.9821C17.802 36.842 17.4176 34.3055 13.825 33.6053C6.22006 32.1213 3.0517 35.2082 3.0517 35.2082L2.20327 33.689C3.07962 32.8727 4.10389 32.23 5.22139 31.7954C3.66151 30.8398 2 28.4002 2 28.4002L3.64825 27.4931C4.82101 29.0362 6.40376 30.2215 8.21741 30.9147C9.23838 30.7329 10.2735 30.6415 11.3106 30.6417C10.0778 28.6997 7.68272 27.3037 7.68272 27.3037L8.94653 26.2601C8.94653 26.2601 12.7114 27.8586 14.3111 30.8398C16.6266 31.0116 16.9183 28.5676 16.0477 27.3169C13.9443 24.2608 12.0265 22.059 5.00044 22.6403L4.73089 21.077C4.73089 21.077 8.8449 19.9453 11.673 21.0065C11.0456 19.1625 10.7232 17.229 10.7185 15.2818L12.4507 15C13.3964 20.87 14.8856 22.5302 16.6973 23.8645C17.0597 21.5746 16.114 18.8972 16.114 18.8972L17.6474 18.4568C17.6474 18.4568 19.5033 21.9797 18.8449 25.2428C20.228 25.7272 22.38 25.6832 23.2638 24.6616C23.8402 23.9839 24.4777 23.3604 25.1684 22.7988C25.2523 17.9548 26.8829 15.3127 26.8829 15.3127L28.3632 15.7927C27.6786 17.6001 27.3602 19.5249 27.4264 21.4557C30.0778 20.4693 32.0795 21.5042 34.8414 18.3952L35.9903 19.5578C35.0655 20.8334 33.8551 21.8768 32.4551 22.6051C33.1357 23.4594 33.582 24.5999 35.1153 24.4238ZM21.6509 30.2013C19.11 30.2013 18.9996 34.0589 21.6951 34.0589C24.1697 34.0589 24.1874 30.2013 21.6509 30.2013Z" fill="black"/>
</svg>
