<svg width="24" height="24" viewBox="0 0 24 24" fill="none" xmlns="http://www.w3.org/2000/svg">
<path d="M3 12C3 4.5885 4.5885 3 12 3C19.4115 3 21 4.5885 21 12C21 19.4115 19.4115 21 12 21C4.5885 21 3 19.4115 3 12Z" stroke="#6B360D"/>
<path d="M12 17.0625C11.7234 17.0625 11.4738 17.0148 11.2512 16.9194C11.0353 16.8314 10.8498 16.7067 10.6946 16.5452C10.5462 16.3912 10.4315 16.2077 10.3506 15.995C10.2696 15.7822 10.2292 15.5511 10.2292 15.3016H11.1804C11.1804 15.8519 11.4536 16.127 12 16.127C12.5464 16.127 12.8196 15.8446 12.8196 15.2796C12.8196 15.1476 12.796 15.0302 12.7488 14.9274C12.7016 14.8247 12.6173 14.7257 12.4958 14.6303C12.3744 14.5276 12.2091 14.4249 12 14.3221C11.7976 14.2194 11.5345 14.0984 11.2107 13.959C10.806 13.7829 10.4821 13.5298 10.2393 13.1996C9.99643 12.8621 9.875 12.4622 9.875 12C9.875 11.5818 9.98631 11.2149 10.2089 10.8995C10.4315 10.5766 10.7351 10.3272 11.1196 10.1511C10.8565 9.98234 10.6407 9.79158 10.472 9.5788C10.3101 9.3587 10.2292 9.07255 10.2292 8.72038C10.2292 8.47092 10.2696 8.23614 10.3506 8.01603C10.4315 7.79592 10.5462 7.60883 10.6946 7.45476C10.8498 7.29334 11.0353 7.16861 11.2512 7.08057C11.4738 6.98519 11.7234 6.9375 12 6.9375C12.2766 6.9375 12.5228 6.98519 12.7387 7.08057C12.9613 7.16861 13.1468 7.29334 13.2952 7.45476C13.4504 7.61617 13.5685 7.80693 13.6494 8.02704C13.7304 8.24715 13.7708 8.48927 13.7708 8.7534H12.8196C12.8196 8.1591 12.5464 7.86196 12 7.86196C11.7437 7.86196 11.5413 7.93899 11.3929 8.09307C11.2512 8.24715 11.1804 8.45625 11.1804 8.72038C11.1804 8.85245 11.204 8.96984 11.2512 9.07255C11.2984 9.17527 11.3827 9.27799 11.5042 9.38071C11.6256 9.47609 11.7909 9.57514 12 9.67785C12.2091 9.78057 12.4722 9.90163 12.7893 10.041C13.194 10.2171 13.5179 10.4776 13.7607 10.8224C14.0036 11.1599 14.125 11.5561 14.125 12.011C14.125 12.4292 14.0103 12.7961 13.781 13.1115C13.5583 13.427 13.2581 13.6728 12.8804 13.8489C13.1367 14.0103 13.3492 14.2011 13.5179 14.4212C13.6865 14.6413 13.7708 14.9274 13.7708 15.2796C13.7708 15.5364 13.7304 15.7712 13.6494 15.984C13.5685 16.2041 13.4504 16.3912 13.2952 16.5452C13.1468 16.7067 12.9613 16.8314 12.7387 16.9194C12.5228 17.0148 12.2766 17.0625 12 17.0625ZM12 13.1886C12.344 13.1886 12.6274 13.0785 12.85 12.8584C13.0794 12.6383 13.194 12.3558 13.194 12.011C13.194 11.8423 13.1637 11.6845 13.103 11.5378C13.0423 11.391 12.9579 11.2663 12.85 11.1636C12.7421 11.0535 12.6139 10.9692 12.4655 10.9105C12.3238 10.8444 12.1687 10.8114 12 10.8114C11.656 10.8114 11.3692 10.9251 11.1399 11.1526C10.9173 11.3727 10.806 11.6552 10.806 12C10.806 12.3448 10.9173 12.631 11.1399 12.8584C11.3692 13.0785 11.656 13.1886 12 13.1886Z" fill="#6B360D"/>
</svg>
