<svg width="16" height="16" viewBox="0 0 16 16" fill="none" xmlns="http://www.w3.org/2000/svg">
<path fill-rule="evenodd" clip-rule="evenodd" d="M10.8222 11.7795C11.2636 13.2659 10.4584 13.9611 10.4584 13.9611L9.72364 11.7028C9.21309 11.8893 8.67215 11.9811 8.12793 11.9737C7.4738 11.9831 6.82428 11.8641 6.21696 11.6237L5.50762 14.021C5.50762 14.021 4.70613 12.9422 5.08202 11.758C5.13658 11.589 5.20327 11.3576 5.29179 11.0855C4.669 10.6152 4.24059 9.93693 4.08652 9.1773L4.82617 8.82371C4.96428 9.30461 5.22917 9.7406 5.59371 10.0871C5.95747 8.88843 6.37701 7.45726 6.58072 6.76924C5.55248 5.79595 5.892 3.79063 7.45618 3.40707L7.12637 2.07658L8.45047 1.97949L8.50382 3.39508C10.1432 3.75467 10.4015 5.91222 9.31744 6.85794C9.47992 7.38175 9.79154 8.3922 10.102 9.40505L9.21073 10.0979L8.29162 7.29185C8.21107 7.30029 8.13011 7.30429 8.04911 7.30384C7.86907 7.30407 7.68947 7.286 7.51317 7.2499L6.50069 10.6756C7.00687 10.8801 7.54966 10.9812 8.0964 10.9729C9.79397 10.9729 10.8465 9.98998 11.1617 8.7386L11.9135 9.07422C11.7552 9.90322 11.3071 10.6508 10.6476 11.1862L10.8222 11.7795ZM8.01274 6.18551C9.12464 6.18551 9.13192 4.46546 7.99334 4.46546C6.85476 4.46546 6.79413 6.18551 8.01274 6.18551Z" fill="currentColor"/>
</svg>
