<svg width="64" height="64" viewBox="0 0 64 64" fill="none" xmlns="http://www.w3.org/2000/svg">
<path fill-rule="evenodd" clip-rule="evenodd" d="M47.9889 22.4422C47.2693 24.7297 47.1971 27.1736 47.7804 29.5001C48.4208 32.1252 48.8153 34.805 48.9586 37.5042C48.9586 44.1572 41.2881 44.2841 39.9256 41.4063C39.5523 41.4063 38.5874 41.4063 37.3122 41.4355L34.4806 46.7033L34.5243 53.9953C34.5243 53.9953 35.7607 54.6977 35.494 56H32.5121L31.3242 41.5136L23.6973 41.6209L21.3651 48.0544L22.9942 53.571C23.4221 53.7922 23.7853 54.1217 24.048 54.5271C24.3107 54.9326 24.4639 55.3998 24.4924 55.8829L21.4572 55.9707L12.977 34.5094L9.85444 38.7529C6.6592 35.8263 13.2145 29.1343 16.5504 25.7882C18.4898 21.7203 20.1966 19.1742 22.2184 19.1742C24.3227 19.1742 25.5446 20.9058 27.004 22.4617C26.1895 23.8518 26.2767 26.1589 26.2767 26.1589L27.2465 26.1931C28.4344 22.5105 30.5338 19.4084 33.0066 19.4084C35.6249 19.4084 36.0807 21.5594 37.7292 25.1542C38.2141 26.2614 37.0989 27.7881 39.6056 27.7881C39.6056 23.6811 39.9499 20.4327 41.0602 18.2378C39.8335 16.9403 40.5753 15.0039 40.5753 15.0039L42.9415 15.9794C43.9915 15.2995 45.2233 14.9591 46.4713 15.0039L55 18.5694L54.7576 22.0228L47.9889 22.4422ZM15.988 53.6831C16.3948 53.8768 16.74 54.1807 16.9849 54.5606C17.2299 54.9405 17.3648 55.3815 17.3747 55.8342L13.743 55.922L13.4085 42.2111L16.3516 48.8348L15.988 53.6831ZM39.1644 46.3278L38.6795 53.9758C38.6795 53.9758 39.9935 54.7123 39.8432 55.9951H36.6916L36.4249 46.4302L37.9231 43.5036L39.1644 46.3278Z" fill="currentColor"/>
</svg>
