<svg width="64" height="64" viewBox="0 0 64 64" fill="none" xmlns="http://www.w3.org/2000/svg">
<path fill-rule="evenodd" clip-rule="evenodd" d="M37.0578 49.9346V36.2289L26.6123 36.3496L26.7037 49.9598L10 50L10.8172 32.3625L14.7253 29.5671L16.1363 19.592L29.3683 19.4512L29.4445 22.1963L33.6724 22.1612L33.7181 19.3758L46.8536 19.235L48.5082 29.738L53.1778 32.3022L54 49.8994L37.0578 49.9346ZM29.5815 26.9526L29.7135 31.5581H33.5252L33.6013 26.9074L29.5815 26.9526ZM33.8399 12.1508L42.9302 12L43.3566 16.5753L33.7688 16.6155L33.8399 12.1508ZM20.3085 12.3821L29.1551 12.2313L29.282 16.6457L19.9379 16.6809L20.3085 12.3821Z" fill="#6B360D"/>
</svg>
