<svg width="16" height="16" viewBox="0 0 16 16" fill="none" xmlns="http://www.w3.org/2000/svg">
<path fill-rule="evenodd" clip-rule="evenodd" d="M10.3572 11.8071H9.78213L9.87577 12.3689L12.3631 13.3353L12.2023 14.004L3.72456 14.0316L3.5793 13.3605L6.23594 12.3605L6.29477 11.8395H5.75215C4.88661 11.8455 4.44244 11.2597 4.43164 10.6583C2.82301 10.3353 2.83861 8.05684 4.5961 7.74592C4.35 5.86478 5.53727 3.76756 8.03785 3.76756C10.518 3.76756 11.6261 5.85037 11.3896 7.72911C13.1735 7.93799 13.2551 10.3353 11.6044 10.6282C11.6068 11.2201 11.1927 11.8011 10.3572 11.8071ZM9.15668 12.5586C9.13628 12.3065 9.10266 11.7879 9.08106 11.4602C8.76404 11.5764 8.42826 11.6329 8.09067 11.627C7.72137 11.6323 7.35453 11.5663 7.01025 11.4326C6.98984 11.7927 6.95502 12.4013 6.94302 12.6678C6.9022 13.4758 9.22151 13.4902 9.15308 12.5586H9.15668ZM9.9526 7.06525C9.7017 7.36777 9.24072 7.76392 8.87217 7.81674C9.01743 7.27533 9.12307 6.56345 9.03064 6.25613C8.47482 7.05204 7.1375 7.78553 5.77496 7.60066C5.91542 9.7411 6.57207 10.9476 8.04745 10.9476C9.54444 10.9476 10.0654 9.64026 10.1639 7.48541C10.1177 7.33441 10.0463 7.19234 9.9526 7.06525ZM11.3824 2.0773L10.2551 3.6127L8.02944 3.03287L7.72573 1.08931C7.18431 1.02569 7.06547 0.184157 7.67531 0.0208933C8.28514 -0.142371 8.58646 0.695557 8.13869 0.993274C8.35357 1.86121 8.937 1.96205 9.43639 1.13493C8.99582 0.810802 9.31635 0.0196929 9.92499 0.182957C10.5336 0.346221 10.3764 1.21776 9.84335 1.25618C9.88417 2.14332 10.2359 2.40022 11.0822 1.79639C10.8073 1.28379 11.5012 0.715965 11.961 1.17575C12.4208 1.63552 11.8625 2.27417 11.3824 2.0773Z" fill="currentColor"/>
</svg>
