<svg width="16" height="16" viewBox="0 0 16 16" fill="none" xmlns="http://www.w3.org/2000/svg">
<path fill-rule="evenodd" clip-rule="evenodd" d="M8.27961 6.80151C10.107 6.80151 10.0951 9.65816 8.31075 9.65816C6.35638 9.65816 6.4402 6.80151 8.27961 6.80151ZM11.8123 12.282C11.718 12.3681 11.6143 12.4429 11.5034 12.505L11.3992 11.8371L11.4112 11.8261C11.8842 11.391 11.8986 10.6533 11.6255 9.81135C10.729 10.2961 9.76918 10.6469 8.77539 10.853C8.56822 10.8984 8.35984 10.9364 8.14908 10.9756C8.51533 11.275 8.90918 11.5373 9.32505 11.7587C9.4027 11.6212 9.51561 11.5082 9.65155 11.4317C9.78748 11.3552 9.94128 11.3183 10.0963 11.3248C11.2651 11.3248 11.2579 13.1508 10.1166 13.1508C9.54181 13.1508 9.24482 12.7636 9.2041 12.3469C8.53417 12.01 7.91147 11.5826 7.35272 11.0761C6.83514 11.1257 6.31444 11.1314 5.79593 11.0932C5.91568 12.0736 6.33123 12.6545 6.86173 12.8322C7.31919 12.9842 7.81976 12.7869 8.29877 12.342L8.79096 12.6729C8.14309 13.3334 7.41739 13.6643 6.68091 13.4192C5.73605 13.1043 5.30854 12.1741 5.21513 11.0234C4.09544 10.8273 3.24519 10.3297 3.05957 9.42164C3.03392 9.29501 3.02028 9.16614 3.01886 9.03683C2.19974 8.69246 2.3686 7.28559 3.39728 7.28559C4.48942 7.28559 4.55409 8.87874 3.626 9.0883C3.62613 9.15785 3.63295 9.22722 3.64636 9.29541C3.76612 9.87752 4.34692 10.2525 5.20315 10.4241C5.20904 9.88029 5.26234 9.3381 5.36242 8.80398C4.19483 7.08828 3.59367 5.1814 4.64391 4.2108C5.24267 3.66178 6.0067 3.61276 6.81623 3.87134L6.57672 4.42526C5.91209 4.24879 5.37919 4.35541 5.04508 4.67036C4.38644 5.27576 4.66546 6.58215 5.53966 8.00986C5.59115 7.8101 5.64744 7.6128 5.70851 7.42039C6.15279 6.02577 6.90604 4.56742 7.7994 3.70712C7.64252 3.1777 7.94191 2.5 8.65563 2.5C9.82443 2.5 9.81724 4.326 8.67599 4.326C8.49208 4.33024 8.31072 4.2814 8.15267 4.18507C7.38745 4.93385 6.69887 6.25494 6.26896 7.60667C6.1492 7.98167 6.0546 8.33462 5.97915 8.6704C6.20309 8.98168 6.45817 9.29541 6.72402 9.60424C6.98987 9.91306 7.2641 10.1888 7.54672 10.4535C7.90598 10.4106 8.27362 10.3493 8.64965 10.2672C9.6139 10.0693 10.5452 9.73003 11.4147 9.25987C11.3513 9.11771 11.2818 8.97188 11.2064 8.82727L11.5656 8.25128C11.695 8.48086 11.8115 8.71085 11.9153 8.94124C12.6099 8.43878 13.0135 7.85054 12.8841 7.22554C12.7548 6.60053 12.144 6.21205 11.3046 6.03067C11.2644 7.0496 11.085 8.05776 10.7717 9.0258L10.0831 9.22556C10.1238 9.10301 10.1633 8.99149 10.2028 8.87016C10.5143 7.92447 10.6929 6.93831 10.7334 5.94121C9.74077 5.85844 8.74167 5.92867 7.76946 6.14955L7.56349 6.19857L7.75749 5.53802C8.7277 5.32909 9.72195 5.26183 10.7106 5.33826C10.6543 4.66791 10.4711 4.12624 10.1118 3.81864L10.2184 3.15197C10.8974 3.53923 11.2195 4.38482 11.2866 5.42037C12.4039 5.63116 13.2673 6.14587 13.4637 7.09441C13.6541 8.01721 13.0781 8.83707 12.1321 9.49026C12.5189 10.5981 12.5201 11.63 11.8123 12.282ZM6.29051 10.0025C6.13483 9.82483 5.98275 9.64223 5.83665 9.45472C5.78534 9.79946 5.75971 10.1477 5.76 10.4964C6.09536 10.5248 6.43215 10.5314 6.76833 10.516C6.60426 10.3493 6.4402 10.1778 6.29051 10.0025Z" fill="currentColor"/>
</svg>
