<svg width="16" height="16" viewBox="0 0 16 16" fill="none" xmlns="http://www.w3.org/2000/svg">
<path fill-rule="evenodd" clip-rule="evenodd" d="M8.53067 4.84338L7.57278 2.6912C10.6004 1.73857 12.95 3.16686 12.95 6.1599H8.41127L8.53067 4.84338ZM11.0024 9.30499C10.7941 9.30499 10.5194 9.30499 10.2063 9.30499L7.58074 6.8318H12.9792C12.9792 8.30038 12.0359 9.30499 10.9957 9.30499H11.0024ZM10.9944 10.1848C13.2591 10.1848 13.3162 13.6016 11.1523 13.6016C9.39172 13.6016 8.92736 11.9952 9.52439 10.9854L8.59568 10.0757L7.63248 11.0205C8.20165 12.0316 7.75587 13.6003 6.28984 13.6003C3.72131 13.6003 3.90971 10.1835 6.13196 10.1835C6.36367 10.1821 6.59361 10.223 6.80992 10.3044L7.83813 9.33488C7.05403 9.34398 6.32832 9.35048 5.88519 9.35048C4.41652 9.35048 3.86858 8.14183 3.86858 6.8318H5.27225L3.25298 4.85507C2.49675 4.11169 3.7704 3.40859 4.47224 3.74519L4.50939 4.72771L10.2965 10.3161C10.5158 10.228 10.7508 10.1834 10.9878 10.1848H10.9944ZM6.19697 12.606C7.09914 12.606 7.07526 11.1764 6.13196 11.1764C5.18867 11.1764 5.12764 12.606 6.19697 12.606ZM11.0594 12.606C11.9616 12.606 11.9377 11.1764 10.9944 11.1764C10.0511 11.1764 9.99007 12.606 11.0594 12.606Z" fill="currentColor"/>
</svg>
