<svg width="64" height="64" viewBox="0 0 64 64" fill="none" xmlns="http://www.w3.org/2000/svg">
<path fill-rule="evenodd" clip-rule="evenodd" d="M40.5518 33.193L43.3992 43.5386L56 44.8183C54.0358 48.472 48.8381 51.1683 40.5952 50.1181C32.9749 49.1412 32.1737 53 27.0147 53C11.0887 53 8 39.9435 8 39.9435L19.0999 41.0719L18.7573 36.2557C18.7573 36.2557 24.2783 29.5442 25.5765 17.8017C31.334 7.98369 43.0517 9.70306 47.1587 17.1911L40.4022 17.3523C40.8848 19.1157 38.9544 20.7373 37.4534 20.8448L39.3018 26.2178L41.8403 27.6832L36.3869 31.7618L36.8695 33.32L40.5518 33.193ZM28.1392 25.9394L27.4249 32.177L33.2982 33.2077L33.7808 31.6495L28.1392 25.9394ZM24.8526 39.8019L25.3593 40.896C32.2075 40.896 35.7885 39.3622 35.7885 39.3622L39.9196 41.1842L40.4022 40.4613C37.6417 35.4302 30.1951 35.7477 24.8671 39.8019H24.8526Z" fill="black"/>
</svg>
