<svg width="24" height="24" viewBox="0 0 24 24" fill="none" xmlns="http://www.w3.org/2000/svg">
<path d="M3 12C3 4.5885 4.5885 3 12 3C19.4115 3 21 4.5885 21 12C21 19.4115 19.4115 21 12 21C4.5885 21 3 19.4115 3 12Z" stroke="currentColor"/>
<path d="M12.0054 15.12C11.5588 15.12 11.1588 15.0267 10.8054 14.84C10.4521 14.6533 10.1754 14.3967 9.97543 14.07C9.7821 13.7367 9.68543 13.3633 9.68543 12.95V10.51C9.68543 10.09 9.7821 9.71667 9.97543 9.39C10.1754 9.05667 10.4521 8.79667 10.8054 8.61C11.1588 8.42333 11.5588 8.33 12.0054 8.33C12.4521 8.33 12.8488 8.42333 13.1954 8.61C13.5488 8.79667 13.8221 9.05667 14.0154 9.39C14.2154 9.72333 14.3154 10.0967 14.3154 10.51V12.95C14.3154 13.3633 14.2154 13.7367 14.0154 14.07C13.8221 14.3967 13.5488 14.6533 13.1954 14.84C12.8488 15.0267 12.4521 15.12 12.0054 15.12ZM12.0054 14.25C12.4321 14.25 12.7688 14.13 13.0154 13.89C13.2621 13.6433 13.3854 13.31 13.3854 12.89V10.56C13.3854 10.1467 13.2588 9.81667 13.0054 9.57C12.7588 9.32333 12.4254 9.2 12.0054 9.2C11.5788 9.2 11.2388 9.32333 10.9854 9.57C10.7388 9.81 10.6154 10.14 10.6154 10.56V12.89C10.6154 13.3033 10.7388 13.6333 10.9854 13.88C11.2388 14.1267 11.5788 14.25 12.0054 14.25Z" fill="currentColor"/>
</svg>
