<svg width="24" height="24" viewBox="0 0 24 24" fill="none" xmlns="http://www.w3.org/2000/svg">
<path d="M3 12C3 4.5885 4.5885 3 12 3C19.4115 3 21 4.5885 21 12C21 19.4115 19.4115 21 12 21C4.5885 21 3 19.4115 3 12Z" stroke="currentColor"/>
<path d="M11.0607 15H10.1307V9.88C9.8907 9.97333 9.60737 10.02 9.2807 10.02H8.5107V9.16H9.2407C9.53404 9.16 9.75404 9.1 9.9007 8.98C10.054 8.85333 10.1307 8.67333 10.1307 8.44H11.0607V15ZM14.84 15H13.91V9.88C13.67 9.97333 13.3867 10.02 13.06 10.02H12.29V9.16H13.02C13.3133 9.16 13.5333 9.1 13.68 8.98C13.8333 8.85333 13.91 8.67333 13.91 8.44H14.84V15Z" fill="currentColor"/>
</svg>
