<svg width="24" height="24" viewBox="0 0 24 24" fill="none" xmlns="http://www.w3.org/2000/svg">
<path d="M3 12C3 4.5885 4.5885 3 12 3C19.4115 3 21 4.5885 21 12C21 19.4115 19.4115 21 12 21C4.5885 21 3 19.4115 3 12Z" stroke="currentColor"/>
<path d="M10.0158 15H9.08578V9.88C8.84578 9.97333 8.56245 10.02 8.23578 10.02H7.46578V9.16H8.19578C8.48911 9.16 8.70911 9.1 8.85578 8.98C9.00911 8.85333 9.08578 8.67333 9.08578 8.44H10.0158V15ZM13.8951 15.12C13.4484 15.12 13.0484 15.0267 12.6951 14.84C12.3417 14.6533 12.0651 14.3967 11.8651 14.07C11.6717 13.7367 11.5751 13.3633 11.5751 12.95V10.51C11.5751 10.09 11.6717 9.71667 11.8651 9.39C12.0651 9.05667 12.3417 8.79667 12.6951 8.61C13.0484 8.42333 13.4484 8.33 13.8951 8.33C14.3417 8.33 14.7384 8.42333 15.0851 8.61C15.4384 8.79667 15.7117 9.05667 15.9051 9.39C16.1051 9.72333 16.2051 10.0967 16.2051 10.51V12.95C16.2051 13.3633 16.1051 13.7367 15.9051 14.07C15.7117 14.3967 15.4384 14.6533 15.0851 14.84C14.7384 15.0267 14.3417 15.12 13.8951 15.12ZM13.8951 14.25C14.3217 14.25 14.6584 14.13 14.9051 13.89C15.1517 13.6433 15.2751 13.31 15.2751 12.89V10.56C15.2751 10.1467 15.1484 9.81667 14.8951 9.57C14.6484 9.32333 14.3151 9.2 13.8951 9.2C13.4684 9.2 13.1284 9.32333 12.8751 9.57C12.6284 9.81 12.5051 10.14 12.5051 10.56V12.89C12.5051 13.3033 12.6284 13.6333 12.8751 13.88C13.1284 14.1267 13.4684 14.25 13.8951 14.25Z" fill="currentColor"/>
</svg>
