<svg width="24" height="24" viewBox="0 0 24 24" fill="none" xmlns="http://www.w3.org/2000/svg">
<path d="M3 12C3 4.5885 4.5885 3 12 3C19.4115 3 21 4.5885 21 12C21 19.4115 19.4115 21 12 21C4.5885 21 3 19.4115 3 12Z" stroke="currentColor"/>
<path d="M12.26 11.01C12.8534 11.0433 13.3167 11.2233 13.65 11.55C13.9834 11.8767 14.15 12.3133 14.15 12.86V13.13C14.15 13.7433 13.95 14.23 13.55 14.59C13.1567 14.9433 12.6167 15.12 11.93 15.12C11.2434 15.12 10.7 14.9533 10.3 14.62C9.90671 14.2867 9.71004 13.83 9.71004 13.25V13.05H10.63V13.25C10.63 13.57 10.7434 13.8167 10.97 13.99C11.1967 14.1633 11.5167 14.25 11.93 14.25C12.33 14.25 12.6434 14.1533 12.87 13.96C13.1034 13.7667 13.22 13.4933 13.22 13.14V12.88C13.22 12.54 13.1034 12.2767 12.87 12.09C12.6367 11.9033 12.31 11.81 11.89 11.81H11V11.08L12.87 9.29H9.83004V8.44H14.08V9.29L12.26 11.01Z" fill="currentColor"/>
</svg>
