<svg width="24" height="24" viewBox="0 0 24 24" fill="none" xmlns="http://www.w3.org/2000/svg">
<path d="M3 12C3 4.5885 4.5885 3 12 3C19.4115 3 21 4.5885 21 12C21 19.4115 19.4115 21 12 21C4.5885 21 3 19.4115 3 12Z" stroke="currentColor"/>
<path d="M12.1733 10.88C12.6 10.88 12.9767 10.9633 13.3033 11.13C13.6367 11.2967 13.8933 11.53 14.0733 11.83C14.26 12.13 14.3533 12.47 14.3533 12.85V13.12C14.3533 13.5067 14.2567 13.8533 14.0633 14.16C13.8767 14.46 13.6133 14.6967 13.2733 14.87C12.9333 15.0367 12.5433 15.12 12.1033 15.12C11.65 15.12 11.2467 15.03 10.8933 14.85C10.54 14.67 10.2633 14.4167 10.0633 14.09C9.86999 13.7633 9.77332 13.39 9.77332 12.97V10.53C9.77332 10.0967 9.86999 9.71333 10.0633 9.38C10.2567 9.04667 10.5267 8.78667 10.8733 8.6C11.2267 8.41333 11.6333 8.32 12.0933 8.32C12.52 8.32 12.9033 8.4 13.2433 8.56C13.5833 8.71333 13.8467 8.93 14.0333 9.21C14.2267 9.48333 14.3233 9.8 14.3233 10.16V10.28H13.3933V10.16C13.3933 9.86667 13.27 9.63 13.0233 9.45C12.7833 9.27 12.4733 9.18 12.0933 9.18C11.6733 9.18 11.3367 9.30333 11.0833 9.55C10.83 9.79 10.7033 10.11 10.7033 10.51V11.35C11.1033 11.0367 11.5933 10.88 12.1733 10.88ZM13.4233 12.87C13.4233 12.51 13.3067 12.23 13.0733 12.03C12.8467 11.83 12.5233 11.73 12.1033 11.73C11.7767 11.73 11.4933 11.7867 11.2533 11.9C11.0133 12.0133 10.83 12.1733 10.7033 12.38V12.96C10.7033 13.3467 10.8333 13.66 11.0933 13.9C11.3533 14.14 11.69 14.26 12.1033 14.26C12.51 14.26 12.83 14.16 13.0633 13.96C13.3033 13.7533 13.4233 13.4767 13.4233 13.13V12.87Z" fill="currentColor"/>
</svg>
