<svg width="64" height="64" viewBox="0 0 64 64" fill="none" xmlns="http://www.w3.org/2000/svg">
<path fill-rule="evenodd" clip-rule="evenodd" d="M10.4754 48C10.4754 48 10.0598 31.2797 10.0031 28.0833C9.91333 24.2951 11.7931 23.4143 15.0946 22.9076C16.6674 22.6661 19.9784 22.1737 23.2657 21.6859L24.4276 17.5473C27.7952 15.3927 36.6558 15.6532 40.1745 17.3153L41.6387 21.918C45.3039 22.5051 48.969 23.0781 50.4899 23.3007C52.45 23.5801 54.0417 25.0006 53.9992 28.107C53.9567 31.3649 53.7063 47.6496 53.7063 47.6496L10.4754 48ZM16.6155 30.1195C14.2161 30.1195 14.1028 33.7752 16.6533 33.7752C18.9865 33.7752 19.0007 30.1006 16.6155 30.1006V30.1195ZM32.4569 25.3274C20.1248 25.3274 19.5297 44.1455 32.6647 44.1455C44.6379 44.1455 44.7371 25.3274 32.4569 25.3274ZM13.092 19.0626L18.9204 19.001L19.4494 21.2456L12.6197 21.5391L13.092 19.0626Z" fill="#6B360D"/>
</svg>
