<svg width="64" height="64" viewBox="0 0 64 64" fill="none" xmlns="http://www.w3.org/2000/svg">
<path fill-rule="evenodd" clip-rule="evenodd" d="M31.0587 28.7434C38.8291 24.0415 34.5122 3.19135 54.1724 9.01979C54.7891 10.9789 55.84 12.2769 58.361 12.6932C61.9329 13.2858 63.1318 19.0261 60.7982 23.3166L47.0434 23.6056L46.2738 26.5737C47.8772 27.1957 50.5019 28.2194 51.1679 28.4986C53.5508 29.4781 53.3041 31.7997 50.418 33.2984L49.4313 31.4471L44.9911 31.5646L43.9057 35.767C46.2195 43.1137 42.2628 46.4296 37.3095 48.6336C38.263 50.4995 39.9102 51.924 41.9027 52.6058C44.4138 53.5364 45.0009 54.8637 44.8283 55.9412H35.2226L35.9133 53.796L32.8693 48.9961L32.9384 44.7692H26.2534C21.5912 44.7692 4.72333 44.1766 2 23.7966L3.43073 23.4195C8.63564 32.5393 24.2701 32.8527 31.0587 28.7434ZM54.2464 16.009C55.9732 16.009 55.988 13.3348 54.2119 13.3348C54.024 13.317 53.8345 13.3385 53.6556 13.3981C53.4766 13.4577 53.3123 13.5539 53.1733 13.6806C53.0342 13.8072 52.9235 13.9615 52.8483 14.1333C52.7732 14.3052 52.7352 14.4908 52.737 14.6782C52.7387 14.8655 52.7801 15.0504 52.8584 15.2209C52.9368 15.3913 53.0503 15.5435 53.1917 15.6676C53.3331 15.7917 53.4992 15.8849 53.6792 15.9412C53.8592 15.9975 54.0491 16.0156 54.2366 15.9943L54.2464 16.009ZM48.6962 16.7143C51.7451 16.7143 51.5182 12.5756 48.8837 12.5756C46.2491 12.5756 46.1159 16.6996 48.6863 16.6996L48.6962 16.7143ZM30.3581 46.6451C30.3581 46.6451 29.5342 51.1609 30.6295 52.3462C31.7247 53.5315 32.6029 55.2849 32.4006 56L23.2587 55.9412L26.5741 46.4835L30.3581 46.6451Z" fill="currentColor"/>
</svg>
