<svg width="24" height="24" viewBox="0 0 24 24" fill="none" xmlns="http://www.w3.org/2000/svg">
<path fill-rule="evenodd" clip-rule="evenodd" d="M3.8521 7.5755C3.59932 8.71289 3.5 10.1585 3.5 12C3.5 13.8415 3.59932 15.2871 3.8521 16.4245C4.10361 17.5562 4.50036 18.3519 5.07424 18.9258C5.64812 19.4996 6.44378 19.8964 7.5755 20.1479C8.71289 20.4007 10.1585 20.5 12 20.5C13.8415 20.5 15.2871 20.4007 16.4245 20.1479C17.5562 19.8964 18.3519 19.4996 18.9258 18.9258C19.4996 18.3519 19.8964 17.5562 20.1479 16.4245C20.4007 15.2871 20.5 13.8415 20.5 12C20.5 10.1585 20.4007 8.71289 20.1479 7.5755C19.8964 6.44378 19.4996 5.64812 18.9258 5.07424C18.3519 4.50036 17.5562 4.10361 16.4245 3.8521C15.2871 3.59932 13.8415 3.5 12 3.5C10.1585 3.5 8.71289 3.59932 7.5755 3.8521C6.44378 4.10361 5.64812 4.50036 5.07424 5.07424C4.50036 5.64812 4.10361 6.44378 3.8521 7.5755ZM7.35855 2.87592C8.60348 2.59924 10.1357 2.5 12 2.5C13.8643 2.5 15.3965 2.59924 16.6415 2.87592C17.8921 3.15385 18.8832 3.61745 19.6329 4.36713C20.3825 5.11681 20.8461 6.10794 21.1241 7.35855C21.4008 8.60348 21.5 10.1357 21.5 12C21.5 13.8643 21.4008 15.3965 21.1241 16.6415C20.8461 17.8921 20.3825 18.8832 19.6329 19.6329C18.8832 20.3825 17.8921 20.8461 16.6415 21.1241C15.3965 21.4008 13.8643 21.5 12 21.5C10.1357 21.5 8.60348 21.4008 7.35855 21.1241C6.10794 20.8461 5.11681 20.3825 4.36713 19.6329C3.61745 18.8832 3.15385 17.8921 2.87592 16.6415C2.59924 15.3965 2.5 13.8643 2.5 12C2.5 10.1357 2.59924 8.60348 2.87592 7.35855C3.15385 6.10794 3.61745 5.11681 4.36713 4.36713C5.11681 3.61745 6.10794 3.15385 7.35855 2.87592Z" fill="currentColor"/>
<path fill-rule="evenodd" clip-rule="evenodd" d="M12 7.5C10.6192 7.5 9.5 8.61929 9.5 10C9.5 11.3808 10.6192 12.5 12 12.5C13.3808 12.5 14.5 11.3808 14.5 10C14.5 8.61929 13.3808 7.5 12 7.5ZM8.5 10C8.5 8.06701 10.067 6.5 12 6.5C13.933 6.5 15.5 8.06701 15.5 10C15.5 11.933 13.933 13.5 12 13.5C10.067 13.5 8.5 11.933 8.5 10Z" fill="currentColor"/>
<path fill-rule="evenodd" clip-rule="evenodd" d="M8.06187 17.085C7.25902 17.473 6.76991 18.0921 6.48191 19.1333C6.40829 19.3994 6.13285 19.5555 5.86671 19.4819C5.60056 19.4083 5.44448 19.1328 5.5181 18.8667C5.86829 17.6007 6.51917 16.7198 7.62677 16.1846C8.69008 15.6708 10.128 15.5 12 15.5C13.8687 15.5 15.3059 15.6577 16.3684 16.1572C17.4782 16.6788 18.1311 17.5482 18.4819 18.8164C18.5555 19.0825 18.3995 19.358 18.1333 19.4316C17.8672 19.5052 17.5917 19.3491 17.5181 19.083C17.2307 18.044 16.7436 17.4385 15.943 17.0621C15.095 16.6636 13.8513 16.5 12 16.5C10.1519 16.5 8.909 16.6756 8.06187 17.085Z" fill="currentColor"/>
</svg>
