<svg width="24" height="24" viewBox="0 0 24 24" fill="none" xmlns="http://www.w3.org/2000/svg">
<path d="M15.6311 7.28017C15.9018 7.17982 16.1945 7.125 16.5001 7.125C17.8808 7.125 19.0001 8.24429 19.0001 9.625C19.0001 11.0057 17.8808 12.125 16.5001 12.125C16.1945 12.125 15.9018 12.0702 15.6311 11.9698" stroke="currentColor" stroke-linecap="round"/>
<path d="M3 19.125C3.69137 16.8178 5.46998 16.125 9.5 16.125C13.53 16.125 15.3086 16.8178 16 19.125" stroke="currentColor" stroke-linecap="round"/>
<path d="M17 15.125C19.403 15.22 20.5292 15.7633 21 17.125" stroke="currentColor" stroke-linecap="round"/>
<path d="M13 9.625C13 11.558 11.433 13.125 9.5 13.125C7.567 13.125 6 11.558 6 9.625C6 7.692 7.567 6.125 9.5 6.125C11.433 6.125 13 7.692 13 9.625Z" stroke="currentColor"/>
</svg>
