<svg width="16" height="16" viewBox="0 0 16 16" fill="none" xmlns="http://www.w3.org/2000/svg">
<path fill-rule="evenodd" clip-rule="evenodd" d="M11.5242 12.0373C12.7717 11.2059 12.4327 8.86252 10.4521 8.86252C8.06289 8.86252 7.92889 12.2663 10.428 12.3245H10.42C11.2923 12.3245 11.358 13.4178 10.5299 13.5C7.13828 13.5 6.53929 9.89124 8.41263 8.35638L8.77444 6.69246C9.46857 6.32045 11.149 6.34196 12.0548 6.63046L12.4206 8.29691C14.0139 9.53948 13.837 12.3055 11.9315 13.2115C11.997 12.9998 11.9931 12.7744 11.9204 12.5648C11.8477 12.3553 11.7096 12.1714 11.5242 12.0373ZM10.4736 7.23909C10.4139 7.23663 10.3543 7.24569 10.2985 7.2657C10.2427 7.28571 10.1917 7.31626 10.1488 7.35548C10.1059 7.3947 10.0719 7.44176 10.0489 7.4938C10.0259 7.54585 10.0143 7.60177 10.015 7.65816C10.0156 7.71455 10.0284 7.77023 10.0526 7.8218C10.0768 7.87336 10.1118 7.91973 10.1556 7.95807C10.1994 7.99642 10.251 8.02593 10.3073 8.04481C10.3636 8.06369 10.4234 8.07154 10.483 8.06789C11.0525 8.06789 11.0525 7.23909 10.4736 7.23909ZM9.68029 5.27148C9.29168 4.63881 9.10542 4.22377 9.30777 3.8796L8.89504 3.80495L8.68064 2.89137L10.1372 3.27097C10.7992 2.97994 11.1061 3.19505 11.6769 4.07193C12.233 4.92478 12.1499 5.4094 11.3942 5.83076C10.6384 6.25212 10.1707 6.0775 9.68029 5.27148ZM11.0203 4.40978C10.9801 4.3434 10.9353 4.27958 10.8863 4.21871C10.8233 4.43129 10.6183 4.59832 10.1238 4.57301C10.1693 4.6695 10.2216 4.76293 10.2806 4.85265C10.5486 5.27274 10.6826 5.3512 11.0002 5.18037C11.3178 5.00955 11.295 4.86404 11.0216 4.40978H11.0203ZM6.19624 5.10066L6.06224 5.56251C6.43686 5.58665 6.80733 5.65118 7.16642 5.75484L7.62604 7.85404C7.38507 8.07986 7.17729 8.33521 7.00829 8.61325C6.84232 8.40796 6.62653 8.24333 6.37911 8.13323C6.13168 8.02312 5.85986 7.97077 5.58653 7.98058C3.1745 7.98058 3.06194 11.4438 5.62808 11.4438C5.92959 11.4513 6.22823 11.3869 6.49641 11.2565C6.56049 11.6602 6.69164 12.0518 6.88501 12.4169C6.49944 12.564 6.0868 12.6376 5.67096 12.6332C2.27535 12.6332 1.67234 9.02575 3.54837 7.48962L3.90079 5.82064C4.17735 5.69122 4.47662 5.6106 4.78386 5.58275L5.51149 4.35917C5.19525 3.70119 5.33193 3.37726 6.32488 2.85721C7.31784 2.33715 7.71448 2.35107 8.18751 3.12419C8.6793 3.93148 8.45551 4.29337 7.59924 4.74383C6.98417 5.06649 6.53929 5.20315 6.1949 5.10066H6.19624ZM5.51685 6.40649C5.45719 6.40404 5.39762 6.4131 5.34178 6.43311C5.28594 6.45312 5.23501 6.48367 5.19209 6.52288C5.14917 6.5621 5.11517 6.60917 5.09216 6.66121C5.06914 6.71325 5.0576 6.76917 5.05824 6.82557C5.05888 6.88196 5.07168 6.93764 5.09587 6.9892C5.12005 7.04077 5.15511 7.08713 5.19891 7.12548C5.24271 7.16382 5.29432 7.19333 5.3506 7.21221C5.40687 7.23109 5.46664 7.23895 5.52623 7.23529C6.0944 7.23529 6.0944 6.40649 5.51685 6.40649ZM7.4773 3.48861C7.3031 3.20391 7.23744 3.20771 6.68669 3.48861C6.55345 3.54793 6.43198 3.62839 6.32756 3.7265C6.49429 3.72361 6.65823 3.76705 6.79903 3.85141C6.93982 3.93577 7.05127 4.05733 7.11952 4.201L7.1557 4.18202C7.64346 3.90997 7.6582 3.77964 7.4773 3.48861Z" fill="currentColor"/>
</svg>
