<svg width="24" height="24" viewBox="0 0 24 24" fill="none" xmlns="http://www.w3.org/2000/svg">
<path d="M12 3C4.5885 3 3 4.5885 3 12C3 19.4115 4.5885 21 12 21C19.4115 21 21 20.5 21 14.5" stroke="#6B360D" stroke-linecap="round"/>
<path d="M18.8657 5.375L20.6462 6.65096H20.6479C20.0744 7.56249 19.3595 8.37561 18.5304 9.05941L21 12.197L18.4214 12.3371L16.8538 10.2662C16.5789 10.4316 16.3509 10.5565 16.1832 10.6375L16.1312 12.3455C13.9634 12.6628 10.5667 10.4164 10 5.79019L12.3254 5.75813C12.2567 7.0729 13.3397 9.31595 14.2283 9.47123L14.1713 6.60201L13.8863 5.65855L16.3274 5.69905L16.2469 8.28135L18.8657 5.375Z" fill="#6B360D"/>
</svg>
