<svg width="16" height="16" viewBox="0 0 16 16" fill="none" xmlns="http://www.w3.org/2000/svg">
<path fill-rule="evenodd" clip-rule="evenodd" d="M12.3219 3.00069C12.3771 2.97544 13.5 3.65593 13.5 3.65593C11.1601 8.73313 6.14113 2.47409 3.69068 5.78636L2.5 4.94476C5.54579 0.129655 10.2131 6.30694 12.3219 3.00069ZM12.3219 6.60751C12.3771 6.58226 13.5 7.26275 13.5 7.26275C11.1601 12.34 6.14113 6.08091 3.69068 9.39318L2.5 8.55159C5.54579 3.73648 10.2131 9.91376 12.3219 6.60751ZM12.3219 10.2143C12.3771 10.1891 13.5 10.8696 13.5 10.8696C11.1601 15.9468 6.14113 9.68773 3.69068 13L2.5 12.1584C5.54579 7.3433 10.2131 13.5206 12.3219 10.2143Z" fill="currentColor"/>
</svg>
