<svg width="196" height="196" viewBox="0 0 196 196" fill="none" xmlns="http://www.w3.org/2000/svg">
<g opacity="0.25">
<path d="M176.878 133.464C177.117 134.079 177.357 134.694 177.603 135.304C177.696 135.535 177.321 135.635 177.23 135.407C176.989 134.802 176.741 134.199 176.492 133.595C175.906 132.171 175.318 130.743 174.827 129.291C174.771 129.13 175.03 129.022 175.101 129.175C175.753 130.574 176.316 132.021 176.878 133.464Z" fill="url(#paint0_linear_1151_3904)"/>
<path d="M125.251 141.703C125.812 139.626 126.385 137.509 126.35 135.412C126.342 134.97 125.651 134.704 125.449 135.169C124.608 137.107 124.317 139.282 124.031 141.42C123.911 142.313 123.792 143.2 123.635 144.061C123.521 144.679 124.451 144.95 124.589 144.323C124.776 143.46 125.012 142.585 125.251 141.703Z" fill="url(#paint1_linear_1151_3904)"/>
<path d="M128.279 127.264C128.042 128.179 127.804 129.093 127.569 130.008C127.343 130.896 126.005 130.518 126.202 129.631C126.391 128.781 126.579 127.931 126.766 127.081C127.162 125.292 127.557 123.502 127.964 121.716C128.058 121.304 128.145 120.88 128.233 120.453C128.623 118.559 129.031 116.575 130.131 115.034C130.264 114.849 130.64 114.822 130.683 115.106C130.957 116.943 130.481 118.738 130.007 120.526C129.912 120.885 129.817 121.244 129.728 121.603C129.259 123.492 128.769 125.38 128.279 127.264Z" fill="url(#paint2_linear_1151_3904)"/>
<path d="M59.391 156.243C59.4904 156.133 59.6677 156.275 59.594 156.398C55.9925 162.309 51.8519 167.916 47.7358 173.49C47.1536 174.279 46.5716 175.067 45.992 175.855C45.263 176.845 43.596 175.858 44.3387 174.891C44.9536 174.091 45.5676 173.289 46.1821 172.486L46.2672 172.375C50.4793 166.872 54.7128 161.342 59.391 156.243Z" fill="url(#paint3_linear_1151_3904)"/>
<path d="M63.1609 151.498C63.8201 150.657 64.4999 149.825 65.1807 148.993C66.5367 147.334 67.8961 145.672 69.1012 143.918C69.197 143.778 68.9764 143.606 68.8642 143.735C67.4708 145.342 66.2055 147.076 64.9435 148.806C64.3091 149.675 63.6755 150.544 63.0269 151.394C62.9674 151.471 63.1005 151.575 63.1609 151.498Z" fill="url(#paint4_linear_1151_3904)"/>
<path d="M71.9128 163.001C71.6684 163.38 71.4239 163.759 71.1787 164.138C71.0957 164.266 70.8883 164.144 70.9748 164.019L72.1738 162.279C72.2353 162.188 72.3827 162.272 72.3216 162.367C72.1854 162.578 72.0491 162.789 71.9128 163.001Z" fill="url(#paint5_linear_1151_3904)"/>
<path d="M4.71698 92.1172C14.3075 89.1253 24.1125 86.0665 33.8633 83.7127C34.2475 83.6195 34.3778 84.1559 34.0236 84.292C24.6114 87.9152 14.7565 90.9891 5.11416 93.9967L4.33296 94.2404C3.15325 94.6075 2.65352 92.762 3.82382 92.3959L4.71698 92.1172Z" fill="url(#paint6_linear_1151_3904)"/>
<path d="M58.6991 74.8423C55.9032 75.8375 53.1333 76.8235 50.4102 77.6932C49.7544 77.9015 50.032 78.935 50.6958 78.7288C53.43 77.875 56.2688 77.0891 59.1348 76.2956C65.681 74.4834 72.3694 72.6318 78.279 69.8412C78.6902 69.6459 78.3784 69.086 77.9891 69.1534C71.5783 70.2578 65.07 72.5745 58.6991 74.8423Z" fill="url(#paint7_linear_1151_3904)"/>
<path d="M34.8099 62.5878C36.1451 62.4288 37.4832 62.2721 38.8231 62.1151C48.1669 61.0208 57.6006 59.916 66.7698 57.9372C67.0281 57.883 66.9748 57.4562 66.7071 57.4736C57.3402 58.048 47.9544 59.5357 38.6577 61.0092C37.3303 61.2196 36.0042 61.4298 34.6807 61.6369C34.1497 61.7209 34.2676 62.6516 34.8099 62.5878Z" fill="url(#paint8_linear_1151_3904)"/>
<path d="M47.9707 108.418C47.1363 108.912 46.3017 109.405 45.4671 109.898C44.9052 110.23 44.4052 109.366 44.958 109.026C45.767 108.528 46.5757 108.03 47.3842 107.532L47.39 107.528C55.1158 102.768 62.8274 98.016 70.7043 93.504C71.2591 93.186 71.7384 94.0186 71.2016 94.3578C63.5525 99.2119 55.7688 103.811 47.9707 108.418Z" fill="url(#paint9_linear_1151_3904)"/>
<path d="M54.836 122.846C52.2933 123.942 50.1187 125.883 47.9978 127.775C47.1993 128.488 46.4076 129.194 45.6075 129.845C45.1762 130.195 45.7558 130.957 46.2075 130.621C47.0331 130.008 47.9064 129.416 48.7876 128.82C51.1682 127.208 53.6069 125.556 55.322 123.331C55.5666 123.013 55.1125 122.727 54.836 122.846Z" fill="url(#paint10_linear_1151_3904)"/>
<path d="M28.5651 126.485C24.3048 128.813 20.2006 131.494 16.117 134.161L16.1142 134.163C14.8284 135.002 13.5446 135.841 12.2587 136.666C11.7012 137.025 12.2226 137.922 12.7803 137.558C14.0425 136.731 15.3149 135.911 16.5892 135.089C20.7142 132.43 24.8602 129.757 28.7493 126.799C28.9308 126.661 28.7789 126.368 28.5651 126.485Z" fill="url(#paint11_linear_1151_3904)"/>
<path d="M43.636 117.42C43.3518 117.615 43.0665 117.81 42.7873 118.008C42.5843 118.151 42.3868 117.816 42.5912 117.674C42.8797 117.475 43.1663 117.27 43.4535 117.065C44.1361 116.577 44.8229 116.086 45.5443 115.671C45.6783 115.596 45.8381 115.788 45.7141 115.891C45.0606 116.444 44.3467 116.933 43.636 117.42Z" fill="url(#paint12_linear_1151_3904)"/>
<path d="M139.505 119.788C138.747 124.633 138.554 129.606 138.362 134.544C138.293 136.301 138.225 138.053 138.132 139.794C138.086 140.638 139.395 140.635 139.442 139.795C139.54 138.05 139.665 136.295 139.791 134.536C140.139 129.655 140.49 124.739 140.265 119.889C140.245 119.48 139.577 119.334 139.505 119.788Z" fill="url(#paint13_linear_1151_3904)"/>
<path d="M122.721 83.1694L121.261 81.7034C120.762 81.2037 119.982 81.9819 120.486 82.4782L121.01 82.9961C121.107 83.0918 121.203 83.1874 121.3 83.2831C121.387 83.369 121.474 83.455 121.561 83.541C121.693 83.6716 121.825 83.8022 121.958 83.9328C122.05 84.0244 122.143 84.1224 122.237 84.222C122.58 84.5858 122.942 84.9703 123.399 85.134C123.697 85.2406 124.036 84.9036 123.927 84.6045C123.762 84.1505 123.379 83.7921 123.015 83.4511C122.914 83.3564 122.814 83.2631 122.721 83.1694Z" fill="url(#paint14_linear_1151_3904)"/>
<path d="M174.219 98.0504C158.511 101.949 141.834 98.0389 128.717 89.0802C128.23 88.7478 128.674 87.9627 129.182 88.2825C135.441 92.2162 142.667 95.0485 149.909 96.5466C158.33 98.2877 165.407 97.8808 173.79 96.4961C174.793 96.3311 175.243 97.7959 174.219 98.0504Z" fill="url(#paint15_linear_1151_3904)"/>
<path d="M181.062 97.6459C181.622 97.4877 182.181 97.3292 182.741 97.1708C183.301 97.0123 183.861 96.8538 184.421 96.6956C184.521 96.6674 184.621 96.6398 184.721 96.6123C185.573 96.3772 186.4 96.1487 187.11 95.5987C187.522 95.2812 187.132 94.7219 186.73 94.6818C185.903 94.5994 185.089 94.8534 184.296 95.1013C184.129 95.1534 183.963 95.2053 183.798 95.2537C183.287 95.4034 182.777 95.5528 182.267 95.7023L182.184 95.7263C181.675 95.8755 181.166 96.0247 180.656 96.1741C179.715 96.4504 180.113 97.9141 181.062 97.6459Z" fill="url(#paint16_linear_1151_3904)"/>
<path d="M129.449 68.5396C129.613 68.7283 129.366 68.9752 129.177 68.8126C128.767 68.4618 128.384 68.0793 128.002 67.697C127.895 67.5908 127.789 67.4847 127.682 67.3792C127.467 67.1656 127.803 66.8282 128.017 67.0446C128.128 67.1571 128.239 67.2688 128.351 67.3806C128.727 67.7577 129.104 68.1346 129.449 68.5396Z" fill="url(#paint17_linear_1151_3904)"/>
<path fill-rule="evenodd" clip-rule="evenodd" d="M98 0C43.8754 0 0 43.8753 0 98C0 152.124 43.8754 196 98 196C152.124 196 196 152.124 196 98C196 43.8753 152.124 0 98 0ZM158.603 171.295C157.111 150.287 155.273 129.292 153.421 108.315C154.478 108.383 155.538 108.428 156.598 108.45L156.848 110.184L156.849 110.191C157.126 112.113 157.402 114.034 157.687 115.954C157.801 116.715 158.968 116.396 158.848 115.634C158.567 113.853 158.278 112.073 157.989 110.293L157.694 108.472C159.62 108.482 161.545 108.413 163.467 108.267C163.735 109.353 164.066 110.428 164.395 111.499L164.396 111.502C164.529 111.933 164.662 112.365 164.79 112.795C165.091 113.8 166.667 113.373 166.365 112.362C166.234 111.923 166.108 111.481 165.981 111.039C165.701 110.061 165.42 109.08 165.092 108.118C165.818 108.045 166.545 107.968 167.269 107.873C168.418 111.347 169.541 114.83 170.664 118.313L170.665 118.316L170.936 119.158C171.109 119.693 171.941 119.473 171.785 118.923L171.484 117.857L171.478 117.836C170.518 114.452 169.559 111.066 168.625 107.674C169.202 107.586 169.777 107.497 170.352 107.395C172.499 113.905 174.808 120.352 177.117 126.798L177.12 126.808C178.907 131.798 180.694 136.789 182.407 141.81C181.928 142.73 181.438 143.643 180.93 144.546L180.911 144.489C180.899 144.45 180.886 144.412 180.875 144.374C180.829 144.231 180.786 144.085 180.743 143.939C180.602 143.464 180.46 142.981 180.201 142.564C180.051 142.32 179.628 142.406 179.64 142.716C179.662 143.216 179.816 143.701 179.969 144.181C180.012 144.317 180.055 144.454 180.095 144.59C180.184 144.891 180.273 145.193 180.362 145.496L180.369 145.52C179.099 147.718 177.751 149.863 176.315 151.945C176.046 150.918 175.778 149.89 175.51 148.862L175.508 148.856C173.531 141.279 171.548 133.68 169.054 126.263C168.939 125.92 168.445 126.059 168.514 126.411C170.05 134.108 172.119 141.707 174.183 149.285C174.507 150.476 174.831 151.666 175.153 152.856C175.199 153.027 175.296 153.138 175.411 153.216C173.019 156.563 170.423 159.751 167.627 162.756C165.966 153.09 163.973 143.422 161.875 133.845C161.801 133.498 161.313 133.656 161.358 133.987C162.73 144.099 164.223 154.252 166.074 164.288C166.076 164.303 166.081 164.314 166.087 164.326C166.092 164.335 166.097 164.345 166.1 164.357C163.723 166.796 161.229 169.122 158.603 171.295ZM91.3135 192.823L91.327 192.799C91.3571 192.744 91.3876 192.69 91.4117 192.628C97.3433 177.464 103.246 162.291 109.081 147.089C110.925 142.288 112.682 137.406 114.444 132.509L114.446 132.505L114.447 132.502C118.25 121.936 122.078 111.3 126.848 101.26C127.004 101.337 127.162 101.41 127.32 101.483L127.453 101.545C127.511 101.573 127.57 101.6 127.628 101.628C124.583 110.481 121.698 119.394 118.815 128.304L118.809 128.322L118.803 128.341C117.94 131.008 117.077 133.674 116.21 136.339C115.922 137.224 117.303 137.595 117.598 136.722C118.503 134.042 119.413 131.364 120.323 128.685C123.304 119.912 126.286 111.136 129.109 102.312C130.211 102.806 131.322 103.277 132.448 103.713C132.32 104.317 132.216 104.933 132.114 105.538C132.021 106.089 131.93 106.634 131.823 107.149C131.665 107.916 132.832 108.247 133.005 107.474L133.364 105.864C133.467 105.406 133.569 104.948 133.671 104.49C133.694 104.388 133.72 104.286 133.745 104.185L134.005 104.279C134.472 104.449 134.941 104.619 135.413 104.777L135.225 105.857C130.334 133.87 125.442 161.886 120.86 189.95C120.841 190.073 120.855 190.181 120.869 190.29L120.872 190.318C119.412 190.678 117.938 191.008 116.453 191.301C116.829 188.916 117.218 186.528 117.608 184.135L117.613 184.105L117.613 184.101C119.095 175.004 120.586 165.854 121.439 156.722C121.468 156.407 120.961 156.344 120.891 156.648C118.812 165.514 117.326 174.634 115.851 183.684C115.418 186.336 114.987 188.982 114.542 191.615C114.541 191.624 114.544 191.632 114.543 191.641C110.169 192.409 105.696 192.878 101.138 193.026C102.168 189.394 103.224 185.75 104.283 182.096C107.472 171.099 110.685 160.014 113.251 148.952C113.327 148.626 112.865 148.505 112.754 148.816C108.939 159.526 105.658 170.603 102.402 181.595C101.285 185.365 100.171 189.126 99.0396 192.858C99.0232 192.912 99.0228 192.961 99.0224 193.01C99.0222 193.033 99.022 193.056 99.0201 193.079C98.8639 193.081 98.7085 193.086 98.5533 193.092C98.3695 193.098 98.1851 193.105 98 193.105C95.7455 193.105 93.5173 192.999 91.3017 192.845L91.3135 192.823ZM28.8361 163.242C29.408 163.488 30.0957 163.458 30.6815 162.921C40.1447 154.239 49.5879 145.536 59.0308 136.834C76.0803 121.123 93.1291 105.412 110.294 89.8207C110.34 89.8628 110.385 89.904 110.431 89.9454L110.494 90.0019L110.527 90.0316C109.699 91.0509 108.868 92.0696 108.035 93.089L108.014 93.1149C102.957 99.3111 97.8754 105.537 93.3728 112.128C89.8118 117.342 85.7537 122.196 81.6961 127.05C79.1374 130.111 76.5789 133.172 74.1453 136.322C73.7545 136.83 74.6267 137.509 75.0405 137.012C77.5644 133.976 79.9698 130.829 82.3754 127.682C86.0082 122.93 89.6418 118.176 93.6846 113.802C99.7858 107.199 105.377 100.133 110.957 93.0829L112.18 91.5377C112.405 91.7328 112.635 91.9216 112.865 92.1102C113.002 92.2229 113.14 92.3362 113.277 92.4501C103.985 104.733 96.1302 118.22 88.3204 131.63L88.3177 131.634L88.3158 131.637C84.8671 137.559 81.4262 143.467 77.8751 149.248C77.5186 149.829 78.4138 150.341 78.784 149.78C82.5201 144.107 86.4184 138.482 90.3268 132.842L90.3289 132.839C99.1072 120.173 107.937 107.433 115.092 93.915C116.536 95.0359 118.016 96.0996 119.536 97.0934C113.983 107.901 108.713 118.848 103.443 129.795C100.213 136.507 96.9805 143.221 93.6846 149.9C93.5081 150.258 94.0376 150.573 94.2233 150.214C97.6356 143.6 101.113 137.02 104.59 130.439L104.593 130.434L104.595 130.43C110.248 119.732 115.901 109.033 121.277 98.1891C122.362 98.8528 123.462 99.4901 124.579 100.092C121.31 110.627 116.945 120.953 112.607 131.215C110.621 135.912 108.641 140.597 106.774 145.282C100.603 160.768 94.4995 176.28 88.427 191.806C88.3089 192.109 88.2963 192.38 88.3502 192.62C84.3752 192.219 80.4838 191.548 76.6693 190.674C76.7678 190.593 76.8561 190.484 76.9214 190.335C77.1562 189.802 77.3917 189.269 77.6273 188.735C80.2123 182.877 82.8187 176.972 84.7809 170.882C84.8554 170.648 84.5081 170.509 84.3878 170.717C81.1697 176.239 78.5186 182.116 75.889 187.944C75.6761 188.416 75.4632 188.888 75.2503 189.359C75.0783 189.742 75.1678 190.102 75.3683 190.373C70.1153 189.091 65.0331 187.376 60.1629 185.262C60.1683 185.256 60.1739 185.249 60.1796 185.244L60.1905 185.233C60.2042 185.219 60.2178 185.206 60.2293 185.187C60.5768 184.564 60.9326 183.942 61.2892 183.318L61.3119 183.279L61.3142 183.275C62.5284 181.154 63.7515 179.017 64.6926 176.775C64.8348 176.434 64.3281 176.296 64.1425 176.543C62.7121 178.459 61.5097 180.568 60.3178 182.66L60.3143 182.666C59.9467 183.311 59.5801 183.954 59.2081 184.59C59.1668 184.661 59.1485 184.731 59.1382 184.798C47.6441 179.645 37.3672 172.282 28.8361 163.242ZM40.1771 27.42C47.1978 29.0142 54.3113 30.6296 61.4225 31.3302C61.9154 31.3783 61.9555 30.6516 61.5337 30.5061C54.8322 28.1987 47.7519 26.7194 40.7613 25.2588C39.685 25.0339 38.6107 24.8095 37.5403 24.5825C40.3898 22.2328 43.394 20.0677 46.5082 18.0572C52.2113 19.8745 57.9579 21.5655 63.7047 23.2565C73.0869 26.0172 82.4695 28.778 91.6638 32.089C91.4507 33.4472 91.2741 34.8089 91.1354 36.174C88.1319 35.2797 84.9107 34.7443 81.7498 34.2189C80.0617 33.9384 78.3906 33.6606 76.7793 33.3326C76.1065 33.1962 75.8154 34.2186 76.4939 34.3699C78.1036 34.7276 79.748 35.1555 81.4098 35.5879C84.5823 36.4134 87.8205 37.256 91.0002 37.6584C90.8386 39.639 90.7595 41.6196 90.7595 43.5968C81.775 43.2113 72.7282 43.23 63.6868 43.2486C57.1636 43.2621 50.6427 43.2755 44.1505 43.1372C43.9292 43.1326 43.9292 43.4742 44.1505 43.4811C50.6457 43.6587 57.1615 43.9895 63.6798 44.3203C72.7211 44.7793 81.7676 45.2385 90.771 45.2898C90.7753 45.4575 90.7815 45.6252 90.7877 45.7929L90.7939 45.9603C79.6429 46.7548 68.491 47.5329 57.3391 48.3111L57.3331 48.3115L57.323 48.3121C43.2701 49.2927 29.2165 50.2733 15.1654 51.2867C16.7838 48.4246 18.5466 45.6577 20.4413 42.9905C21.1346 43.0154 21.8353 43.0472 22.54 43.0791C25.4622 43.2114 28.4546 43.347 31.2832 43.0145C31.5136 42.9882 31.6145 42.6294 31.3428 42.571C28.538 41.9697 25.5203 41.8243 22.5765 41.6825C22.1871 41.6638 21.7983 41.645 21.4121 41.6254C25.5327 36.0353 30.2585 30.9256 35.4806 26.3637C37.0407 26.7078 38.6067 27.0634 40.1771 27.42ZM102.286 3.0019C101.039 5.07766 99.8787 7.20157 98.823 9.37362C95.4405 8.1336 92.176 6.27906 88.9706 4.45818C88.4102 4.13982 87.8516 3.8225 87.2945 3.50966C90.8099 3.11537 94.3792 2.89415 98 2.89415C99.4374 2.89415 100.863 2.93886 102.286 3.0019ZM2.89415 98C2.89415 92.5407 3.37899 87.1971 4.26271 81.9888C33.477 73.6077 62.806 65.4571 92.3607 58.3633C92.7447 60.0849 93.1986 61.7893 93.7259 63.4765C93.1251 63.6221 92.533 63.8519 91.9436 64.0807C91.6189 64.2068 91.2945 64.3327 90.9704 64.4439C89.1365 65.0743 87.3014 65.7047 85.4663 66.3351C84.3775 66.7099 84.8336 68.4361 85.9466 68.0762C87.7908 67.4802 89.6351 66.8841 91.4782 66.2881C91.8173 66.1785 92.1721 66.0821 92.5308 65.9848C93.1467 65.8176 93.774 65.6473 94.3528 65.401C94.9936 67.2395 95.7248 69.0505 96.5444 70.8328C65.5924 84.0015 34.6588 97.2183 3.73088 110.447C3.1979 106.37 2.89415 102.221 2.89415 98ZM84.6285 3.84894C85.8218 4.46707 87.048 5.06865 88.2824 5.67424C91.6304 7.3168 95.0387 8.98891 98.0149 11.1009C97.4785 12.2735 96.9627 13.4541 96.4825 14.6473C94.6976 13.5938 92.7681 12.7922 90.8326 11.988C89.2619 11.3354 87.6872 10.6812 86.1827 9.88941C83.6149 8.53772 80.9236 7.42569 78.2383 6.31615C77.5403 6.02772 76.8416 5.739 76.1466 5.44674C78.9284 4.79111 81.7561 4.2524 84.6285 3.84894ZM61.4014 13.0878C67.915 15.9856 74.4732 18.9034 81.1165 21.4133C81.912 21.7136 82.4541 20.4195 81.6954 20.039C75.3998 16.8722 68.8506 14.038 62.3538 11.2264L62.3406 11.2207C61.7873 10.9812 61.2344 10.7419 60.6821 10.5026C63.1567 9.44468 65.6933 8.50709 68.2699 7.6589C68.2782 7.66629 68.2862 7.67373 68.2941 7.68112C68.3292 7.71372 68.3638 7.74586 68.4132 7.77008C71.0239 9.03907 73.6369 10.3576 76.2565 11.6795C81.7313 14.4421 87.2345 17.219 92.8032 19.5874C93.3935 19.8396 93.9196 19.0303 93.3235 18.6968C88.0271 15.7336 82.4443 13.0728 76.8922 10.4265C74.5732 9.32119 72.2595 8.21843 69.9743 7.09726C71.5515 6.61128 73.1481 6.17113 74.7597 5.76653C74.6783 6.02213 74.7459 6.30066 75.0749 6.45425C75.9322 6.85145 76.7873 7.25903 77.6433 7.66702C80.0304 8.80484 82.4244 9.94597 84.8921 10.874C86.5244 11.4878 88.117 12.2283 89.7065 12.9674C91.8183 13.9492 93.9248 14.9287 96.1122 15.6055C94.9947 18.4893 94.0468 21.427 93.2697 24.4014C92.7046 24.108 92.1048 23.8819 91.4972 23.6529L91.4942 23.6518C91.3387 23.5932 91.1826 23.5344 91.0266 23.4742L89.7122 22.9661C88.8391 22.6285 87.9659 22.2909 87.0928 21.9543C85.5214 21.3468 84.8783 23.8409 86.4016 24.461L90.0546 25.9465C90.2517 26.0266 90.4474 26.1097 90.6429 26.1927C91.3056 26.4741 91.9645 26.7538 92.6576 26.9105C92.3928 28.0738 92.1544 29.2395 91.9458 30.4098C82.5512 27.7844 73.3203 24.6098 64.0897 21.4354C59.1194 19.7261 54.1481 18.0164 49.1525 16.3929C52.0546 14.6519 55.0634 13.0735 58.1547 11.6454C59.234 12.1235 60.3142 12.6041 61.3958 13.0853L61.4014 13.0878ZM9.41885 66.9457C11.544 66.6302 13.8664 66.2855 15.5459 65.1889C16.0376 64.8668 16.0204 63.9911 15.3717 63.8525C13.4094 63.4352 11.1319 63.9132 9.02518 64.3843C10.3204 60.9606 11.8139 57.6355 13.4782 54.4135C28.0816 53.3686 42.6821 52.286 57.283 51.2034C68.5014 50.3715 79.7202 49.5397 90.9406 48.7249C91.0415 50.1107 91.1916 51.4896 91.3784 52.8627C88.6324 53.1712 85.8916 53.5751 83.1565 53.9782C82.488 54.0767 81.8176 54.1755 81.1498 54.2725C80.4735 54.3711 80.6248 55.5448 81.3114 55.476C81.8848 55.4189 82.4586 55.3625 83.0326 55.306C85.888 55.0254 88.7485 54.7442 91.5905 54.3654C91.6845 54.9557 91.7911 55.5437 91.9 56.1305C63.0284 64.8932 33.822 72.6415 4.59396 80.1319C5.43871 75.6892 6.59638 71.36 8.036 67.1604C8.48048 67.085 8.94549 67.016 9.41885 66.9457ZM27.7667 162.12C24.4851 158.527 21.4832 154.68 18.7793 150.615L20.9185 149.095C23.3295 147.381 25.7414 145.667 28.1518 143.952C28.7719 143.512 29.407 143.079 30.045 142.644C32.3973 141.041 34.7893 139.411 36.6188 137.26C36.8618 136.974 36.6394 136.395 36.2119 136.559C33.5613 137.574 31.2317 139.275 28.9309 140.955C28.3374 141.388 27.7458 141.82 27.1512 142.239L17.6813 148.903C14.2461 143.494 11.337 137.72 9.03778 131.644C11.0314 130.546 12.9698 129.366 14.9091 128.186C16.3797 127.291 17.853 126.394 19.349 125.534C20.7983 124.7 22.2918 123.945 23.785 123.19C25.9172 122.111 28.049 121.033 30.0511 119.727C30.3365 119.542 30.09 119.154 29.7909 119.283C27.5938 120.22 25.5131 121.39 23.4315 122.56C21.9696 123.382 20.5073 124.204 19.004 124.946C17.4498 125.714 15.8809 126.442 14.3123 127.17C12.3399 128.086 10.3679 129.002 8.42571 129.995C6.51499 124.646 5.07309 119.076 4.14123 113.333C35.4061 100.109 66.6641 86.8739 97.9026 73.5906C98.6041 74.9316 99.3583 76.2543 100.17 77.553C97.5156 78.961 94.8574 80.3614 92.1991 81.7618L92.1941 81.7645C88.0981 83.9223 84.0018 86.0803 79.9199 88.2665C78.784 88.8751 79.7892 90.5852 80.9285 89.9915C85.0231 87.8569 89.1024 85.6945 93.1817 83.532C95.8788 82.1023 98.5788 80.6711 101.28 79.2493C101.323 79.3137 101.366 79.3782 101.409 79.4426C101.506 79.5894 101.603 79.7363 101.705 79.882C96.4552 82.3566 91.4361 85.5148 86.4586 88.6468C84.3676 89.9625 82.2829 91.2743 80.1927 92.5281C73.0026 96.84 65.8537 101.212 58.7198 105.617C57.7341 106.225 58.6235 107.766 59.631 107.175C66.8647 102.939 74.0766 98.6728 81.2541 94.3436C83.3456 93.0818 85.4857 91.8524 87.6337 90.6184C92.7735 87.6657 97.9583 84.6872 102.631 81.1772C103.4 82.2295 104.21 83.2622 105.059 84.2777C99.8236 88.292 94.5749 92.2887 89.3263 96.2853L89.3176 96.292L89.3147 96.2943C80.7229 102.837 72.1314 109.379 63.5969 115.998C62.72 116.678 63.8926 118.221 64.7946 117.551C73.3938 111.154 81.9337 104.683 90.4739 98.2113C95.8396 94.1452 101.206 90.0791 106.586 86.0314C106.695 86.1517 106.803 86.2725 106.912 86.3933C107.204 86.7196 107.498 87.0475 107.805 87.3667C107.925 87.4932 108.049 87.6151 108.174 87.7372C108.257 87.8187 108.34 87.9003 108.422 87.9834C91.2757 103.648 74.02 119.184 56.7638 134.721L56.7595 134.725L56.7411 134.741C47.2283 143.307 37.7154 151.872 28.2206 160.459C27.6589 160.966 27.5764 161.582 27.7667 162.12ZM147.44 179.001C147.446 179.083 147.471 179.152 147.499 179.22C144.184 181.244 140.723 183.05 137.158 184.665C137.628 175.958 137.8 167.278 137.973 158.572V158.566C138.004 156.997 138.035 155.425 138.068 153.853C138.075 153.531 137.601 153.543 137.573 153.853C137.419 155.538 137.263 157.221 137.107 158.904L137.104 158.935C136.285 167.772 135.469 176.584 134.972 185.458C134.97 185.501 134.978 185.537 134.986 185.572C134.988 185.584 134.991 185.596 134.993 185.608L134.996 185.621C134.997 185.627 134.998 185.633 134.998 185.64C131.221 187.236 127.311 188.571 123.304 189.675C128.383 162.054 133.166 134.377 137.948 106.702L138.133 105.631C138.576 105.762 139.024 105.881 139.472 105.999L139.757 106.075C139.766 106.32 139.787 106.563 139.816 106.797C139.94 107.788 139.876 108.809 139.813 109.827C139.792 110.159 139.771 110.491 139.757 110.821C139.713 111.842 141.322 111.846 141.347 110.821C141.355 110.513 141.358 110.206 141.362 109.9C141.373 108.856 141.384 107.826 141.571 106.797C141.575 106.769 141.58 106.741 141.583 106.712L141.587 106.685L141.59 106.659L141.595 106.615L141.598 106.595C141.601 106.577 141.603 106.558 141.606 106.54C142.517 106.757 143.432 106.956 144.349 107.136C144.986 122.211 145.511 137.285 145.813 152.379C145.817 152.613 146.182 152.614 146.178 152.379C145.931 137.393 145.905 122.42 145.99 107.441C147.434 107.689 148.884 107.888 150.341 108.046C152.159 129.768 153.99 151.507 156.201 173.191C153.786 175.064 151.279 176.821 148.687 178.457C148.188 171.903 147.632 165.333 146.9 158.802C146.874 158.562 146.507 158.548 146.513 158.802C146.678 165.533 147.032 172.281 147.44 179.001ZM187.349 65.3414C187.091 65.3964 186.833 65.5064 186.59 65.699C171.512 77.702 141.449 71.7291 132.619 54.1029C126.571 42.0323 136.414 26.9895 150.475 34.0249C155.649 36.6142 161.61 44.0175 156.116 49.5903C150.868 54.9132 145.919 48.9748 143.575 44.3201C143.057 43.2896 141.494 43.606 141.198 44.6307C137.576 57.2102 159.546 59.9508 161.855 46.8337C164.501 31.7761 142.306 23.583 132.345 32.9945C120.229 44.4404 129.798 61.5555 141.564 68.5175C155.87 76.9833 174.847 79.4247 188.44 68.5656C188.983 70.2345 189.488 71.9194 189.94 73.6284C175.585 83.4708 157.338 86.1655 141.889 76.7036C141.617 76.5363 141.371 76.9615 141.639 77.13C156.821 86.6011 176.12 87.463 190.485 75.8497C191.693 80.9102 192.494 86.1242 192.857 91.4632C192.484 91.618 192.108 91.7727 191.734 91.9263C190.71 92.3504 191.296 93.8003 192.33 93.3407C192.545 93.2456 192.762 93.1493 192.978 93.053C192.999 93.4682 193.007 93.8867 193.014 94.3048C193.019 94.5479 193.023 94.7914 193.03 95.0336C192.988 95.0554 192.947 95.0703 192.904 95.0967C166.811 111.53 131.611 107.246 110.236 84.9345C88.7089 62.4678 90.3136 28.4166 106.146 3.26438C107.964 3.41911 109.769 3.61626 111.556 3.87186L111.548 3.88102C111.543 3.88663 111.538 3.89202 111.533 3.89738C111.522 3.90892 111.511 3.92036 111.501 3.93376C96.1913 25.0708 95.8154 56.1729 113.865 76.2199C114.396 76.8102 115.435 76.0297 114.978 75.3603C107.524 64.4244 102.707 53.9974 102.832 40.4597C102.948 27.824 106.624 15.6972 113.876 5.3218C114.136 4.95044 114.175 4.58709 114.073 4.27418C116.45 4.67878 118.8 5.15904 121.113 5.73673C116.319 12.8225 112.518 23.661 114.16 32.1807C114.239 32.5922 114.794 32.442 114.835 32.089C115.001 30.6584 115.092 29.2301 115.183 27.8063C115.386 24.6375 115.587 21.4909 116.598 18.3908C118.033 13.9859 120.596 10.0785 123.301 6.36026C123.306 6.35472 123.308 6.34885 123.31 6.34301C123.311 6.33797 123.313 6.33294 123.316 6.32816C152.997 14.5074 176.872 36.6875 187.349 65.3414ZM188.052 128.576C187.91 128.285 187.768 127.993 187.625 127.701C187.227 126.884 185.983 127.602 186.401 128.417C186.521 128.652 186.642 128.887 186.762 129.122C186.883 129.359 187.004 129.595 187.125 129.831C187.144 129.868 187.162 129.904 187.181 129.941C187.262 130.102 187.342 130.26 187.435 130.403C186.327 133.457 185.074 136.44 183.672 139.339C182.251 135.008 180.878 130.665 179.505 126.321L179.504 126.318C177.447 119.809 175.39 113.3 173.172 106.836C174.084 106.635 174.991 106.418 175.896 106.179C175.884 106.355 175.904 106.536 175.987 106.725C177.973 111.218 180.094 115.514 182.577 119.755C182.717 119.993 183.111 119.836 183.03 119.565C181.599 114.77 179.865 110.215 177.903 105.617C178.802 105.349 179.698 105.063 180.589 104.758C180.591 104.915 180.623 105.078 180.705 105.245C181.093 106.031 181.468 106.833 181.844 107.639C182.954 110.013 184.08 112.421 185.583 114.527C187.04 116.566 188.088 118.541 188.733 120.935C189.098 122.287 189.157 122.499 189.714 123.166C189.215 124.993 188.658 126.795 188.052 128.576ZM190.35 120.731C190.24 120.582 190.115 120.417 189.964 120.218C188.314 118.03 187.696 116.163 186.888 113.724C186.826 113.538 186.764 113.35 186.7 113.157C185.935 110.865 184.833 108.671 183.739 106.495C183.346 105.713 182.954 104.932 182.579 104.151C182.569 104.13 182.556 104.115 182.543 104.101C182.533 104.089 182.522 104.078 182.513 104.062C186.145 102.697 189.681 101.012 193.081 98.9995C193.003 106.483 192.062 113.757 190.35 120.731Z" fill="url(#paint18_linear_1151_3904)"/>
</g>
<defs>
<linearGradient id="paint0_linear_1151_3904" x1="152.717" y1="20.4167" x2="33.8917" y2="167.825" gradientUnits="userSpaceOnUse">
<stop stop-color="var(--color-sociotype-primary)"/>
<stop offset="1" stop-color="var(--color-sociotype-secondary)"/>
</linearGradient>
<linearGradient id="paint1_linear_1151_3904" x1="152.717" y1="20.4167" x2="33.8917" y2="167.825" gradientUnits="userSpaceOnUse">
<stop stop-color="var(--color-sociotype-primary)"/>
<stop offset="1" stop-color="var(--color-sociotype-secondary)"/>
</linearGradient>
<linearGradient id="paint2_linear_1151_3904" x1="152.717" y1="20.4167" x2="33.8917" y2="167.825" gradientUnits="userSpaceOnUse">
<stop stop-color="var(--color-sociotype-primary)"/>
<stop offset="1" stop-color="var(--color-sociotype-secondary)"/>
</linearGradient>
<linearGradient id="paint3_linear_1151_3904" x1="152.717" y1="20.4167" x2="33.8917" y2="167.825" gradientUnits="userSpaceOnUse">
<stop stop-color="var(--color-sociotype-primary)"/>
<stop offset="1" stop-color="var(--color-sociotype-secondary)"/>
</linearGradient>
<linearGradient id="paint4_linear_1151_3904" x1="152.717" y1="20.4167" x2="33.8917" y2="167.825" gradientUnits="userSpaceOnUse">
<stop stop-color="var(--color-sociotype-primary)"/>
<stop offset="1" stop-color="var(--color-sociotype-secondary)"/>
</linearGradient>
<linearGradient id="paint5_linear_1151_3904" x1="152.717" y1="20.4167" x2="33.8917" y2="167.825" gradientUnits="userSpaceOnUse">
<stop stop-color="var(--color-sociotype-primary)"/>
<stop offset="1" stop-color="var(--color-sociotype-secondary)"/>
</linearGradient>
<linearGradient id="paint6_linear_1151_3904" x1="152.717" y1="20.4167" x2="33.8917" y2="167.825" gradientUnits="userSpaceOnUse">
<stop stop-color="var(--color-sociotype-primary)"/>
<stop offset="1" stop-color="var(--color-sociotype-secondary)"/>
</linearGradient>
<linearGradient id="paint7_linear_1151_3904" x1="152.717" y1="20.4167" x2="33.8917" y2="167.825" gradientUnits="userSpaceOnUse">
<stop stop-color="var(--color-sociotype-primary)"/>
<stop offset="1" stop-color="var(--color-sociotype-secondary)"/>
</linearGradient>
<linearGradient id="paint8_linear_1151_3904" x1="152.717" y1="20.4167" x2="33.8917" y2="167.825" gradientUnits="userSpaceOnUse">
<stop stop-color="var(--color-sociotype-primary)"/>
<stop offset="1" stop-color="var(--color-sociotype-secondary)"/>
</linearGradient>
<linearGradient id="paint9_linear_1151_3904" x1="152.717" y1="20.4167" x2="33.8917" y2="167.825" gradientUnits="userSpaceOnUse">
<stop stop-color="var(--color-sociotype-primary)"/>
<stop offset="1" stop-color="var(--color-sociotype-secondary)"/>
</linearGradient>
<linearGradient id="paint10_linear_1151_3904" x1="152.717" y1="20.4167" x2="33.8917" y2="167.825" gradientUnits="userSpaceOnUse">
<stop stop-color="var(--color-sociotype-primary)"/>
<stop offset="1" stop-color="var(--color-sociotype-secondary)"/>
</linearGradient>
<linearGradient id="paint11_linear_1151_3904" x1="152.717" y1="20.4167" x2="33.8917" y2="167.825" gradientUnits="userSpaceOnUse">
<stop stop-color="var(--color-sociotype-primary)"/>
<stop offset="1" stop-color="var(--color-sociotype-secondary)"/>
</linearGradient>
<linearGradient id="paint12_linear_1151_3904" x1="152.717" y1="20.4167" x2="33.8917" y2="167.825" gradientUnits="userSpaceOnUse">
<stop stop-color="var(--color-sociotype-primary)"/>
<stop offset="1" stop-color="var(--color-sociotype-secondary)"/>
</linearGradient>
<linearGradient id="paint13_linear_1151_3904" x1="152.717" y1="20.4167" x2="33.8917" y2="167.825" gradientUnits="userSpaceOnUse">
<stop stop-color="var(--color-sociotype-primary)"/>
<stop offset="1" stop-color="var(--color-sociotype-secondary)"/>
</linearGradient>
<linearGradient id="paint14_linear_1151_3904" x1="152.717" y1="20.4167" x2="33.8917" y2="167.825" gradientUnits="userSpaceOnUse">
<stop stop-color="var(--color-sociotype-primary)"/>
<stop offset="1" stop-color="var(--color-sociotype-secondary)"/>
</linearGradient>
<linearGradient id="paint15_linear_1151_3904" x1="152.717" y1="20.4167" x2="33.8917" y2="167.825" gradientUnits="userSpaceOnUse">
<stop stop-color="var(--color-sociotype-primary)"/>
<stop offset="1" stop-color="var(--color-sociotype-secondary)"/>
</linearGradient>
<linearGradient id="paint16_linear_1151_3904" x1="152.717" y1="20.4167" x2="33.8917" y2="167.825" gradientUnits="userSpaceOnUse">
<stop stop-color="var(--color-sociotype-primary)"/>
<stop offset="1" stop-color="var(--color-sociotype-secondary)"/>
</linearGradient>
<linearGradient id="paint17_linear_1151_3904" x1="152.717" y1="20.4167" x2="33.8917" y2="167.825" gradientUnits="userSpaceOnUse">
<stop stop-color="var(--color-sociotype-primary)"/>
<stop offset="1" stop-color="var(--color-sociotype-secondary)"/>
</linearGradient>
<linearGradient id="paint18_linear_1151_3904" x1="152.717" y1="20.4167" x2="33.8917" y2="167.825" gradientUnits="userSpaceOnUse">
<stop stop-color="var(--color-sociotype-primary)"/>
<stop offset="1" stop-color="var(--color-sociotype-secondary)"/>
</linearGradient>
</defs>
</svg>
