<svg width="196" height="196" viewBox="0 0 196 196" fill="none" xmlns="http://www.w3.org/2000/svg">
<g opacity="0.25">
<path d="M62.3595 155.76C62.3988 155.73 62.4381 155.699 62.4788 155.67C62.4913 155.665 62.5007 155.663 62.505 155.663C62.5266 155.663 62.4328 155.728 62.1581 155.906C62.2293 155.859 62.2944 155.81 62.3595 155.76Z" fill="url(#paint0_linear_13_5827)"/>
<path fill-rule="evenodd" clip-rule="evenodd" d="M0 98C0 152.096 43.904 196 98 196C122.108 196 144.06 187.376 161.112 173.068C162.484 172.088 163.66 171.108 164.64 169.736C183.848 151.9 196 126.42 196 98C196 43.904 152.096 0 98 0C43.904 0 0 43.904 0 98ZM91.532 29.988C86.044 28.812 84.672 22.344 85.26 17.64C86.632 6.86001 95.06 3.72401 104.272 3.13601C112.308 3.72401 119.952 5.096 127.204 7.448C127.008 7.448 126.812 7.497 126.616 7.546C126.42 7.595 126.224 7.64401 126.028 7.64401C121.52 9.01601 117.796 11.76 116.228 16.268C115.971 17.2102 115.864 18.115 115.759 18.9988C115.624 20.1372 115.493 21.2406 115.052 22.344C114.681 23.3642 114.134 24.2966 113.579 25.2451C112.96 26.3011 112.329 27.3769 111.916 28.616C111.132 31.752 110.936 35.28 112.308 38.22C110.152 38.416 107.996 38.808 106.428 39.396C102.508 40.572 98.588 42.14 95.452 44.688C95.3725 44.7476 95.292 44.8079 95.2104 44.8688C95.1526 44.912 95.0943 44.9555 95.0356 44.9993C92.7232 46.7254 89.7114 48.9737 88.788 51.744C87.024 51.548 85.456 51.548 83.692 51.548C86.436 46.256 84.672 39.2 80.556 35.084C78.008 32.536 74.872 30.38 70.952 30.184C68.796 29.988 66.444 30.184 64.484 31.164C63.7 31.36 63.112 31.752 62.524 32.144C62.328 31.752 61.936 31.164 61.544 30.772C62.524 25.872 67.228 21.952 71.932 20.972C72.0766 20.9513 72.2189 20.9329 72.3587 20.9147C73.5453 20.7608 74.5419 20.6314 75.068 19.404C75.5043 18.8223 75.6169 18.0247 75.726 17.2515C75.7639 16.9827 75.8014 16.7168 75.852 16.464C76.1215 15.7453 76.3498 14.9442 76.5748 14.1552C76.8405 13.2228 77.1015 12.3071 77.42 11.564C78.988 8.232 81.928 5.292 85.26 3.724C85.4181 3.70423 85.5743 3.68447 85.7288 3.6649C87.1063 3.4905 88.3584 3.33199 89.768 3.33199C87.612 4.50799 85.848 6.076 84.28 8.428C83.692 9.212 83.104 10.192 82.712 11.172C77.812 17.444 74.872 27.244 81.34 33.516C85.652 37.632 94.08 37.632 98.784 33.712C101.724 32.34 103.684 29.596 103.684 25.676C103.684 19.012 93.688 15.68 92.12 22.932C91.924 23.912 93.1 24.5 93.688 23.716C94.864 21.952 98.98 21.364 99.764 23.912C100.156 24.696 99.764 25.872 99.372 26.656C98.392 29.008 95.648 30.184 93.1 30.184C92.512 30.184 91.924 30.184 91.532 29.988ZM78.4 4.9C77.42 5.684 76.44 6.468 75.46 7.448C74.9045 8.00346 74.4475 8.6573 74.0191 9.27012C73.8428 9.52222 73.6714 9.76749 73.5 9.996C73.2843 10.3554 73.1214 10.7148 72.9629 11.0646C72.6891 11.6685 72.4285 12.2435 71.932 12.74L71.54 13.132C70.6746 13.5647 69.7327 14.0059 68.7501 14.4662C63.0562 17.1335 55.9924 20.4425 54.488 26.46C50.764 25.284 46.452 25.088 42.728 25.48C40.18 25.676 37.436 26.068 34.692 27.048C46.844 16.072 61.936 8.42799 78.4 4.9ZM114.66 29.596C115.332 28.2519 116.568 27.3311 117.793 26.4188C119.069 25.4687 120.332 24.5279 120.932 23.128C121.182 22.2518 121.033 21.3757 120.892 20.5505C120.813 20.0836 120.736 19.633 120.736 19.208C120.932 16.268 122.892 13.916 125.244 12.544C128.184 10.78 131.124 10.388 134.26 10.78C129.36 11.76 125.048 15.092 123.284 19.796C122.997 20.5848 122.789 21.3473 122.583 22.1028C122.225 23.4123 121.874 24.7008 121.128 26.068C120.384 27.3076 119.484 28.1552 118.526 29.057C117.969 29.5811 117.392 30.1237 116.816 30.772C115.052 33.124 114.268 35.672 115.444 38.22H114.66C113.876 35.28 113.288 32.34 114.66 29.596ZM132.104 43.12C131.577 42.8186 131.078 42.4883 130.586 42.1624C129.799 41.6405 129.029 41.13 128.184 40.768C126.812 40.18 125.44 39.788 124.068 39.592C122.108 38.808 120.148 38.416 117.992 38.22C115.616 35.0055 118.024 32.688 120.312 30.4856C121.232 29.5994 122.134 28.7318 122.696 27.832C123.559 26.5376 123.578 25.6654 123.604 24.4409C123.613 23.9967 123.624 23.5059 123.676 22.932C124.656 15.68 130.34 12.152 137.004 11.172C138.196 11.7016 139.387 12.3206 140.518 12.9082C141.062 13.1905 141.591 13.4656 142.1 13.72C142.002 13.72 141.855 13.769 141.708 13.818C141.561 13.867 141.414 13.916 141.316 13.916H141.12C134.26 13.916 124.46 20.188 127.792 28.028C129.36 32.144 133.28 34.3 137.2 35.28C140.336 36.26 145.824 36.456 147.98 33.516C149.94 32.144 151.116 29.988 150.136 27.048C148.764 23.324 141.316 20.972 140.532 26.264C140.336 28.028 142.296 29.596 143.668 28.028C144.44 27.4492 145.401 27.0604 146.366 27.609C146.17 27.5139 146.238 27.834 146.334 28.284C146.471 28.9312 146.665 29.8471 146.216 30.184C144.256 32.144 138.964 29.4 137.788 27.832C135.828 24.892 136.808 20.776 139.356 18.424C141.12 16.856 143.668 16.072 146.216 16.072C151.312 19.012 156.212 22.54 160.72 26.46C161.014 27.832 161.259 29.302 161.504 30.772C161.749 32.242 161.994 33.712 162.288 35.084C163.268 39.004 163.072 42.924 162.68 46.844C158.956 42.728 153.86 40.18 148.176 39.984C144.256 39.984 141.316 41.16 137.788 42.924C136.416 43.708 135.632 44.1 134.652 44.1C134.064 44.1 133.28 43.904 132.104 43.12ZM130.34 28.616C127.204 23.716 130.732 19.404 135.24 17.248C134.848 17.64 134.456 18.032 134.26 18.62C130.732 23.912 132.692 30.772 137.984 33.712C135.044 33.32 132.104 31.752 130.34 28.616ZM81.928 30.772C78.988 27.048 79.184 22.148 80.948 17.64C79.968 23.716 81.536 29.988 87.22 33.32C87.5195 33.6195 87.9333 33.8045 88.2868 33.9626C88.396 34.0115 88.4995 34.0578 88.592 34.104C86.044 33.908 83.692 32.928 81.928 30.772ZM73.696 17.836C73.5 18.228 73.304 18.424 73.108 18.62C72.4614 19.2666 71.2815 19.4984 70.057 19.739C69.0545 19.936 68.0221 20.1388 67.228 20.58C63.896 22.344 61.152 25.676 59.976 29.4C58.8 28.42 57.624 27.832 56.84 27.44C59.192 20.972 66.836 17.836 73.5 17.836H73.696ZM165.228 50.176L164.052 48.608C165.032 45.08 164.64 39.984 164.248 37.24C163.856 34.3 163.072 30.772 162.092 27.636C162.219 27.8891 162.427 28.0605 162.664 28.2558C162.794 28.3629 162.933 28.4771 163.072 28.616C164.444 32.536 165.816 37.436 166.012 41.356C166.169 43.708 165.824 46.0601 165.479 48.4121C165.393 49 165.306 49.588 165.228 50.176ZM43.316 27.832C47.04 27.832 51.94 28.224 55.076 30.576C56.7859 31.8584 57.4599 33.348 58.2276 35.0448C58.5159 35.682 58.8174 36.3484 59.192 37.044C59.584 37.828 60.956 38.416 61.936 38.22C62.8507 37.828 63.3298 37.3489 63.896 36.7827C64.1791 36.4996 64.484 36.1947 64.876 35.868C68.404 33.124 72.52 33.516 76.048 35.868C80.948 39.004 84.28 46.844 80.36 51.94C79.968 51.94 79.38 51.94 78.988 52.136C80.164 48.608 79.772 44.1 78.008 41.552C75.46 37.436 69.776 36.652 65.464 37.828C64.6828 38.0363 64.0399 38.2723 63.4619 38.4845C61.8648 39.0709 60.7628 39.4755 58.604 38.612C56.5338 37.7839 56.5044 37.7333 56.0524 36.9547C55.8624 36.6275 55.5979 36.1719 55.076 35.476C53.508 33.516 51.548 32.144 49 31.164C43.904 29.204 36.652 29.792 30.772 31.556C34.496 29.204 38.808 28.028 43.316 27.832ZM19.404 56.448C18.54 51.9553 19.5041 48.072 20.5503 43.8579C20.6908 43.2921 20.8328 42.72 20.972 42.14C23.128 39.2 25.48 36.456 27.832 33.712C33.124 31.948 39.788 30.968 45.08 31.752C47.824 32.144 50.568 32.928 52.724 35.084C53.1845 35.6366 53.5151 36.2757 53.8379 36.8997C54.2022 37.6037 54.5565 38.2885 55.076 38.808C55.664 39.788 56.644 40.572 57.82 40.964C59.9177 41.6632 62.0155 40.838 64.1132 40.0128C65.5434 39.4501 66.9737 38.8875 68.404 38.808C76.832 38.416 78.596 46.06 77.224 52.528C68.796 54.684 60.956 59.78 56.252 66.444C55.272 67.816 54.488 69.384 53.704 70.952C53.704 71.0248 53.5687 71.3141 53.3887 71.6991C53.084 72.3505 52.6512 73.2761 52.528 73.892H51.352C50.4874 74.0155 49.5451 74.2947 48.5739 74.5824C48.0039 74.7512 47.4239 74.923 46.844 75.068C46.6314 75.1531 46.4095 75.2381 46.1825 75.3251C45.363 75.6393 44.4753 75.9796 43.708 76.44C41.552 72.52 37.044 69.972 32.144 68.992C26.852 62.72 26.852 52.724 33.516 47.236C35.868 45.472 39.396 43.512 42.532 43.708C45.276 43.904 49.98 45.08 50.372 48.608C50.6973 51.8608 48.0534 52.4144 45.4642 52.9566C44.9332 53.0678 44.4044 53.1786 43.904 53.312C46.06 52.724 46.452 49.196 43.904 48.804C41.16 48.216 39.396 50.372 39.396 52.92C39.396 55.468 40.964 57.232 43.12 58.016C43.2077 58.133 43.2911 58.2456 43.3708 58.3532C43.825 58.9668 44.1585 59.4172 44.492 59.584C47.04 61.152 50.372 61.544 53.312 60.76C57.624 59.78 60.956 54.88 60.76 50.568C60.564 44.884 54.096 40.964 49.196 39.788C43.316 38.416 37.828 39.592 33.32 42.924C31.556 44.1 29.792 45.668 28.616 47.236C23.52 53.9 23.912 62.132 28.224 68.6C26.852 68.6 25.48 68.6 24.108 68.796C22.148 64.876 20.188 60.76 19.404 56.448ZM168.952 57.232V56.644C169.932 48.02 169.148 39.984 166.404 32.144C181.888 48.02 191.688 69.188 192.864 92.708C191.884 90.16 190.708 87.808 188.748 85.652C187.376 84.28 186.004 83.496 184.24 82.516C183.652 81.928 183.456 81.928 183.26 81.928C183.202 81.986 183.161 82.0269 183.122 82.0251C183.03 82.0209 182.948 81.7759 182.672 80.948C182.403 80.2754 182.503 79.3258 182.593 78.4794C182.633 78.0926 182.672 77.7274 182.672 77.42C181.888 71.736 177.576 65.072 171.108 65.464C170.716 62.72 169.932 59.78 168.952 57.232ZM93.688 52.92L91.532 52.136C92.3083 50.5833 94.1916 49.0307 95.7204 47.7703C96.1214 47.4397 96.4982 47.1291 96.824 46.844C99.764 44.492 103.292 42.728 107.016 41.748C108.78 41.16 111.132 40.768 113.68 40.768C112.798 41.062 111.867 41.356 110.936 41.65C110.005 41.944 109.074 42.238 108.192 42.532C103.292 44.296 95.844 47.432 93.688 52.92ZM51.352 43.512C49.98 42.336 48.412 41.356 46.648 40.964C51.352 41.356 55.664 43.708 57.624 48.412C60.956 56.056 51.352 61.544 45.668 58.604H46.06C53.704 58.604 56.644 48.608 51.352 43.512ZM16.856 57.232C16.464 53.9 16.856 49.784 18.032 46.452C18.816 45.472 19.404 44.492 19.992 43.512C18.816 47.824 17.64 52.136 18.032 56.644C18.424 60.956 20.188 65.268 22.148 69.188H21.56C21.0153 67.7581 20.3286 66.4464 19.6479 65.1462C18.3693 62.7038 17.1118 60.3018 16.856 57.232ZM96.04 53.9C97.412 49.588 104.468 47.04 107.8 45.864C111.328 44.688 114.856 44.296 118.58 44.296C121.52 44.492 124.46 44.884 127.008 46.256C127.706 46.663 128.386 47.1736 129.075 47.6904C130.708 48.9156 132.388 50.176 134.456 50.176C136.538 50.176 138.437 48.9501 140.323 47.7323C141.81 46.7725 143.289 45.8176 144.844 45.472C150.136 44.1 155.428 46.256 158.956 50.372C159.452 50.8684 159.87 51.4435 160.309 52.0473C160.563 52.397 160.824 52.7566 161.112 53.116C155.624 49.392 147.588 48.804 141.12 50.764C140.316 50.9834 139.545 51.2233 138.795 51.4569C135.524 52.4754 132.635 53.3749 128.968 51.94C125.44 50.568 121.912 49.196 117.796 48.804C111.132 48.412 103.096 50.176 98.588 55.664C97.804 55.076 97.02 54.488 96.04 53.9ZM100.548 57.036C105.84 51.156 116.032 50.372 123.284 52.528C124.883 53.0611 126.171 53.5943 127.302 54.0622C130.742 55.4866 132.723 56.3068 137.592 54.684C145.824 51.94 157.584 50.176 163.464 57.624C165.228 61.544 166.404 65.66 166.208 69.58C166.012 74.088 164.64 78.204 162.484 81.928C161.865 82.8912 161.125 83.8061 160.383 84.7235C159.011 86.4198 157.632 88.1248 156.996 90.16C156.604 91.7279 156.604 93.4919 156.604 95.2558C156.419 95.8865 156.24 96.5174 156.062 97.1467C155.299 99.8424 154.543 102.514 153.272 105.056C150.528 110.544 145.824 114.856 140.532 117.6C135.436 120.344 129.752 121.912 123.872 121.324C119.756 120.932 110.936 118.58 107.996 114.66C110.152 112.112 111.72 108.976 112.896 105.252C114.856 98.588 114.268 91.14 111.524 84.868C110.936 83.3 109.956 81.732 108.976 80.556C108.976 80.36 108.976 80.36 109.172 80.164C110.348 76.048 109.564 71.148 107.408 66.64C110.152 59.192 123.48 58.604 129.752 60.368C135.828 62.132 139.748 67.228 142.492 72.716C146.216 79.772 146.02 89.376 138.376 93.884C134.26 96.432 128.38 95.844 125.636 91.336C124.264 88.984 123.676 85.456 127.008 83.888C127.596 83.692 128.576 83.496 129.164 83.496C128.968 83.692 128.772 84.084 128.772 84.672C128.576 84.868 128.576 85.26 128.576 85.456C128.184 87.024 129.36 88.984 131.124 88.984C136.612 88.396 136.22 82.124 132.692 79.38C128.968 76.636 124.852 79.184 122.892 82.712C113.288 92.512 124.46 108.976 137.2 106.036C151.704 102.704 152.88 81.536 145.236 71.344C145.138 71.246 145.04 71.197 144.942 71.148C144.844 71.099 144.746 71.05 144.648 70.952C142.884 67.424 140.336 64.288 137.592 62.132C132.888 58.408 127.204 57.232 121.324 57.82C116.816 58.212 109.368 60.172 106.232 64.484C104.664 61.74 102.704 59.192 100.548 57.036ZM13.328 54.684C12.936 60.368 14.308 66.248 17.444 70.756C17.248 70.952 17.052 71.099 16.856 71.246C16.66 71.393 16.464 71.54 16.268 71.736C14.504 72.912 13.132 74.676 11.956 76.244C11.8134 76.3866 11.982 76.4254 12.2354 76.3606C12.2035 76.3796 12.17 76.4003 12.1343 76.4223C12.0309 76.4863 11.9097 76.5612 11.76 76.636C11.564 76.636 11.319 76.685 11.074 76.734C10.829 76.783 10.584 76.832 10.388 76.832C8.232 77.616 6.272 78.596 4.508 80.164C6.272 71.148 9.212 62.524 13.328 54.684ZM40.376 105.644C36.848 99.96 37.436 90.944 40.376 85.064C42.7954 80.0523 46.4339 79.3071 50.8883 78.3949C51.4857 78.2725 52.0981 78.1471 52.724 78.008C55.4973 77.5701 55.9879 76.1539 56.7052 74.0833C56.9511 73.3734 57.2237 72.5866 57.624 71.736C62.72 60.76 77.616 53.312 89.572 55.664C93.1 56.448 97.02 58.996 99.96 62.524C87.22 53.9 67.816 57.232 60.76 72.52C60.432 73.094 60.1383 74.011 59.8359 74.9553C59.4154 76.2682 58.978 77.634 58.408 78.204C57.6614 78.8439 56.4506 79.0776 55.2177 79.3155C54.1847 79.5149 53.1361 79.7172 52.332 80.164C49 81.536 46.452 84.672 44.688 88.004C40.18 96.432 41.944 105.252 48.216 111.72C48.02 111.818 47.873 111.916 47.726 112.014C47.579 112.112 47.432 112.21 47.236 112.308C44.884 111.328 41.552 107.408 40.376 105.644ZM49.196 85.064C51.156 83.3 53.116 82.516 55.664 81.732C55.8556 81.6841 56.1058 81.6362 56.3859 81.5826C57.2517 81.4168 58.4037 81.1962 58.996 80.752C60.2182 79.7044 60.5072 78.3456 60.8329 76.8144C60.8728 76.6268 60.9132 76.4366 60.956 76.244C63.112 68.012 70.168 61.544 78.4 59.78C88.004 57.82 97.412 60.564 103.684 67.816C105.448 70.952 106.232 74.284 106.036 77.42C95.256 66.444 76.048 65.268 67.62 79.772C63.308 87.416 64.288 95.648 68.992 102.9C72.52 108.388 78.596 109.564 84.476 108.584C87.808 108.78 91.336 108.192 93.688 106.232C97.608 103.096 100.156 96.432 95.256 93.1C91.728 90.748 86.632 93.296 87.416 97.804C88.004 100.548 92.12 99.372 91.728 96.628C93.492 97.804 93.884 99.372 93.296 100.94C92.708 102.508 91.728 103.684 90.356 104.468C86.24 106.82 80.556 104.272 77.812 101.332C74.48 97.412 73.108 91.532 74.872 86.436C78.988 74.872 93.688 73.696 102.9 79.576C112.7 85.456 112.308 100.94 107.604 109.76C102.9 118.58 94.276 122.304 85.26 124.852C80.36 115.444 70.364 108.78 59.78 108.192C56.252 107.996 52.92 108.976 50.176 110.544C42.14 104.076 41.356 92.512 49.196 85.064ZM171.304 68.6C174.44 68.6 177.576 71.344 178.948 73.892C179.536 74.872 179.928 75.852 180.124 76.832C179.732 76.44 179.536 75.852 179.34 75.264C179.14 74.9315 178.941 74.5538 178.734 74.1616C178.33 73.3981 177.898 72.5793 177.38 71.932C176.008 70.364 173.46 69.58 171.304 69.776V68.6ZM70.364 100.744C66.444 93.884 65.856 87.024 70.168 80.164C75.852 71.148 86.24 69.58 95.256 72.912C84.476 70.952 72.52 78.204 70.952 89.572C70.364 95.844 72.912 102.508 78.204 106.232C78.204 106.232 78.204 106.367 78.316 106.413C75.0219 105.81 72.3075 104.048 70.364 100.744ZM171.108 71.54C175.616 70.56 178.556 75.264 179.928 78.988C179.928 79.184 180.124 79.184 180.124 79.184C180.124 80.556 179.928 82.124 179.732 83.496C179.732 84.476 180.32 85.064 181.104 85.26C184.24 86.436 186.788 87.416 188.944 89.964C191.1 94.864 190.512 102.704 188.16 107.408C185.612 112.7 179.928 114.856 174.244 115.052C170.716 111.328 165.816 108.78 160.72 109.368C161.308 107.8 161.7 106.232 161.896 104.468C162.19 102.63 162.153 100.682 162.116 98.7373C162.055 95.4972 161.994 92.2667 163.464 89.572C164.64 87.612 165.62 85.848 166.6 83.888C169.148 83.3 171.892 83.888 173.852 85.652C175.224 87.024 175.812 89.572 175.812 91.336C175.812 93.296 175.42 95.648 173.852 96.824C173.068 97.412 172.088 97.608 171.108 97.412L170.128 97.216C169.54 96.824 169.344 96.432 169.54 95.648C172.284 96.04 173.46 92.12 170.716 91.532C167.972 90.748 166.012 92.904 165.816 95.452C165.032 98.392 165.816 101.332 168.364 103.096C170.912 104.86 174.44 104.664 176.792 102.9C179.536 100.548 180.908 97.804 180.712 94.276C180.712 92.708 180.124 90.356 178.948 88.984C178.556 87.22 177.772 85.456 176.596 84.084C174.44 81.732 171.108 80.752 167.972 81.34C169.54 78.4 170.716 75.264 171.108 71.54ZM10.976 80.752H13.328C14.504 80.752 15.092 80.164 15.484 79.184C19.012 69.972 36.456 70.168 40.964 78.596L39.788 79.772C36.848 72.128 26.068 73.108 20.972 78.008C20.3891 78.5909 19.8769 79.4216 19.3603 80.2593C18.6611 81.3933 17.9538 82.5404 17.052 83.104C16.4238 83.5752 15.418 83.5429 14.438 83.5115C14.1951 83.5037 13.9537 83.496 13.72 83.496C12.936 83.3 12.1521 83.3 11.5641 83.3C7.84006 83.692 5.488 85.652 3.332 88.2L3.92 83.496C5.488 82.32 6.664 81.732 8.82 81.144C9.016 81.144 11.368 80.948 10.976 80.752ZM15.484 86.24C17.248 86.044 17.248 86.044 18.424 84.672C19.1206 83.7855 19.633 82.8171 20.1398 81.8594C21.2016 79.8529 22.2385 77.8934 24.892 76.832C29.792 74.676 35.28 76.636 38.416 80.948C38.416 81.144 38.612 81.144 38.612 81.144C37.632 82.712 36.848 84.28 36.456 86.044C36.358 86.338 36.26 86.681 36.162 87.024C36.064 87.367 35.966 87.71 35.868 88.004C29.988 82.516 18.228 85.848 13.328 91.14C8.232 96.628 4.9 106.624 10.78 112.504C15.68 117.6 26.852 119.952 29.792 111.328C31.752 105.84 27.244 99.764 21.756 104.272C20.972 104.86 21.168 105.84 21.56 106.624C21.56 106.82 21.56 107.016 21.756 107.212C22.344 108.584 24.696 108.192 25.088 106.624C25.088 106.232 26.068 108.584 26.068 108.976C25.872 114.268 19.6 113.288 16.856 111.916C15.876 111.524 15.092 111.132 14.504 110.544C11.76 106.428 13.916 99.764 17.444 96.628C21.56 93.1 29.596 89.572 34.104 93.492C34.1899 93.535 34.2664 93.5779 34.3356 93.6168C34.5819 93.7551 34.735 93.841 34.888 93.688C34.692 98.196 35.28 102.704 37.24 106.428C38.808 108.976 41.748 112.896 44.884 114.856C43.12 116.816 41.944 119.364 41.552 122.108C38.612 122.108 35.084 122.304 31.752 123.676C29.008 124.656 26.656 126.616 24.5 128.968C21.6875 128.343 20.7019 126.223 19.719 124.109C18.8525 122.246 17.9881 120.386 15.876 119.56C14.7771 119.079 13.7986 118.839 12.8729 118.612C11.1568 118.191 9.62248 117.814 7.84 116.032C6.468 114.66 4.704 112.504 3.724 110.348C3.136 106.232 2.94 102.116 2.94 98C2.94 95.844 2.94 93.688 3.136 91.532C4.704 89.18 6.272 87.22 9.016 86.24C10.5332 85.671 11.6834 85.8361 12.9993 86.025L13.132 86.044C13.4049 86.044 13.6778 86.0862 13.9703 86.1315C14.308 86.1837 14.6719 86.24 15.092 86.24H15.484ZM143.276 92.708C145.628 90.356 146.804 87.416 147.196 84.28C147.588 89.768 146.804 96.628 142.884 100.352C138.376 104.86 129.948 105.448 125.44 100.548C123.088 97.804 121.716 93.492 122.108 89.572C123.088 92.904 125.636 95.648 128.968 97.02C130.34 97.412 131.516 97.608 132.888 97.608C136.808 97.608 140.532 95.648 143.276 92.708ZM12.544 96.824C13.524 94.472 14.896 92.316 16.856 90.748C21.364 87.416 30.38 85.26 34.888 89.964C35.084 90.16 35.28 90.16 35.476 90.16C35.378 90.454 35.329 90.797 35.28 91.14C35.231 91.483 35.182 91.826 35.084 92.12C29.792 87.22 19.6 91.728 15.288 96.236C12.936 98.784 11.564 102.312 11.368 105.644C10.584 102.9 11.172 99.764 12.544 96.824ZM192.472 100.744C192.668 98.588 192.472 96.628 192.08 94.472C192.276 94.864 192.668 95.256 192.864 95.452C192.864 95.648 193.06 95.648 193.06 95.648V98C193.06 100.359 192.972 102.7 192.801 105.019C192.89 103.574 192.787 102.131 192.472 100.744ZM178.948 120.148C186.506 120.148 192.085 112.892 192.762 105.523C191.478 121.707 186.098 136.83 177.772 149.744C177.726 149.285 177.67 148.816 177.612 148.341C177.425 146.786 177.23 145.169 177.38 143.668C177.603 142.218 178.207 140.831 178.831 139.399C179.303 138.316 179.786 137.206 180.124 136.024C180.712 133.476 180.908 130.928 180.516 128.184C180.32 125.44 179.34 122.696 177.772 119.952C177.968 119.952 178.164 120.001 178.36 120.05C178.556 120.099 178.752 120.148 178.948 120.148ZM178.139 96.6155C178.263 96.3025 178.392 95.9753 178.556 95.648L177.968 98C176.988 99.96 174.832 101.92 172.48 101.92C170.716 101.92 169.54 101.332 168.756 100.352C169.736 100.744 170.716 100.94 171.696 100.94C173.852 100.94 176.204 99.764 177.576 97.804C177.804 97.4615 177.966 97.0523 178.139 96.6155ZM154.252 108.779C155.036 107.408 155.82 106.036 156.604 104.468C156.604 104.664 156.555 104.811 156.506 104.958C156.457 105.105 156.408 105.252 156.408 105.448C155.232 109.956 153.076 114.072 149.94 117.208C143.472 123.48 134.652 126.42 125.636 126.42C117.6 126.42 110.936 123.088 105.448 117.6L106.428 116.62C109.467 120.039 115.267 121.617 119.547 122.782L119.952 122.892C122.108 123.48 124.264 123.676 126.42 123.676C131.124 123.676 135.632 122.5 139.944 120.736C145.432 118.188 151.116 114.071 154.252 108.779ZM159.74 112.504C166.208 111.524 172.872 117.992 175.028 123.088C176.792 127.4 176.988 132.3 175.42 136.416C175.141 137.113 174.851 137.734 174.579 138.316C173.703 140.188 173.011 141.668 173.46 144.06C173.656 144.942 173.999 145.824 174.342 146.706C174.685 147.588 175.028 148.47 175.224 149.352C175.616 150.92 175.42 152.292 175.224 153.468C172.872 156.604 170.52 159.544 167.972 162.288C168.952 157.584 168.56 152.096 167.188 147.98C165.816 143.472 163.464 138.964 158.76 137.2C154.84 135.632 150.92 136.22 147.98 138.964C146.608 139.748 145.432 141.12 145.04 143.08C143.864 147.98 150.724 154.056 153.86 148.764C154.84 147.392 153.664 145.628 152.096 145.628C146.804 145.236 152.292 141.904 154.644 143.276C157.976 145.236 157.584 151.116 156.408 154.448C153.272 163.268 139.16 164.444 133.868 157.192C133.672 157.192 133.476 156.996 133.476 156.8C134.848 154.056 135.828 150.92 136.22 148.568C136.808 142.688 135.828 135.632 131.908 130.928C135.24 130.536 138.572 129.752 141.512 128.772C148.764 126.224 154.84 120.932 158.564 114.268C158.662 113.974 158.809 113.68 158.956 113.386C159.103 113.092 159.25 112.798 159.348 112.504H159.74ZM45.864 124.068C46.452 115.64 54.292 111.328 62.132 112.7C70.756 114.268 78.596 120.54 82.516 128.576C81.9281 128.968 81.3403 129.556 80.7524 130.144C77.0284 123.676 69.972 118.776 62.72 117.6C58.996 117.012 55.468 117.796 52.332 120.148C50.764 121.324 49.784 122.696 48.804 124.264C46.452 127.596 44.688 128.38 40.964 128.576C33.516 129.164 27.636 132.692 23.912 139.552C22.54 142.1 21.56 144.844 21.168 147.588C21.364 144.452 22.148 141.316 22.932 138.572C24.5 133.868 27.44 129.752 31.752 127.4C33.712 126.224 36.26 125.832 38.612 125.832C39.0203 125.832 39.9731 126.002 40.8465 126.158C41.9984 126.364 43.0122 126.545 42.4566 126.278C42.8084 126.42 43.1602 126.42 43.512 126.42C44.688 126.42 45.668 125.636 45.864 124.068ZM175.812 116.816C180.124 116.62 184.436 115.444 187.572 112.7C185.024 115.64 180.712 118.188 176.596 117.208H176.008C176.008 117.11 175.959 117.061 175.91 117.012C175.861 116.963 175.812 116.914 175.812 116.816ZM16.856 131.124C16.139 130.264 15.7367 129.193 15.3421 128.143C15.1974 127.758 15.0538 127.376 14.896 127.008C14.8131 126.897 14.7379 126.795 14.6673 126.698C14.2374 126.11 13.9735 125.749 13.132 125.244C12.544 125.048 11.7601 125.048 10.9762 125.048C9.01617 124.46 7.448 123.872 6.076 122.696C5.88006 121.716 5.68411 120.786 5.48817 119.855C5.29222 118.924 5.09594 117.992 4.9 117.012C7.056 119.56 9.8 121.52 12.936 122.304C14.8416 122.876 16.284 124.698 17.7361 126.532C19.2711 128.472 20.8169 130.424 22.932 130.928C22.344 131.908 21.756 132.888 21.364 133.672V133.868C21.0293 133.701 20.6856 133.542 20.3407 133.383C19.0697 132.797 17.781 132.203 16.856 131.124ZM45.276 130.928C47.04 130.732 47.628 130.536 48.608 129.164C49.392 128.282 49.833 127.351 50.274 126.42C50.715 125.489 51.156 124.558 51.94 123.676C53.9 121.324 56.644 119.756 59.78 119.756C67.424 119.756 75.656 125.44 79.38 131.908C75.852 136.416 73.892 142.296 74.48 147.98C74.284 150.724 73.696 153.468 73.108 156.212C73.0705 156.428 73.033 156.645 72.9952 156.864C72.2436 161.222 71.3899 166.171 68.404 169.344C62.916 175.028 55.468 173.068 49.98 168.364C43.708 162.876 41.356 150.332 48.608 144.452C52.136 141.904 58.212 140.532 60.564 145.628C60.956 147 61.544 149.548 61.152 150.92H60.564L60.172 151.312V151.116C60.1779 151.083 60.1832 151.049 60.188 151.017C60.6584 147.757 55.6562 146.445 54.88 149.744C54.292 152.292 54.88 154.448 57.232 155.624C58.212 156.016 59.584 156.408 60.76 156.408C61.152 156.408 62.328 155.82 62.524 155.624C64.68 154.056 65.66 151.508 65.268 148.96C66.444 142.492 63.112 136.416 56.84 134.456C49.392 132.496 42.532 137.004 38.612 143.08C35.084 148.764 35.084 156.016 37.632 162.092C39.984 167.58 45.472 174.048 51.744 174.636C54.88 176.4 58.604 177.38 61.936 176.792C63.504 176.596 65.072 176.008 66.248 175.42C68.012 180.908 71.148 186.396 75.656 190.12L76.048 190.512C54.88 185.612 36.456 173.46 23.324 156.8C21.756 150.92 21.56 145.236 25.088 139.356C27.048 136.22 30.576 132.692 34.104 131.516C36.456 130.536 38.612 130.732 40.768 130.928C41.258 130.928 41.699 130.977 42.14 131.026C42.581 131.075 43.022 131.124 43.512 131.124C44.1 131.124 44.688 131.124 45.276 130.928ZM84.28 157.192C75.068 149.156 79.38 133.084 88.984 127.008C94.08 125.244 98.98 122.892 102.9 119.756C107.604 125.048 112.308 128.772 119.56 130.536C120.54 130.732 121.52 130.928 122.5 130.928C128.576 138.572 127.596 149.94 120.932 156.604C120.319 157.217 119.688 157.695 119.09 158.148C117.777 159.142 116.632 160.01 116.228 161.896C115.834 163.392 115.63 164.92 115.426 166.454C115.121 168.738 114.814 171.036 113.876 173.264C110.544 181.104 102.116 184.632 94.08 184.044C85.456 183.456 77.028 175.812 73.696 168.168C73.696 167.881 73.591 167.804 73.4578 167.707C73.409 167.671 73.3565 167.633 73.304 167.58C73.5 167.188 73.696 166.796 73.892 166.208C75.264 162.876 76.048 158.76 76.44 154.644C76.7395 154.943 76.9245 155.357 77.0826 155.711C77.1315 155.82 77.1777 155.923 77.224 156.016C79.184 159.936 83.692 163.464 86.828 165.032C93.296 168.364 102.704 168.756 108.976 164.64C115.052 160.916 117.6 151.704 115.444 145.04C114.072 140.532 109.172 135.632 104.272 135.828C102.9 135.436 101.528 135.24 99.96 135.632C96.04 136.612 94.276 141.904 97.608 144.844C99.372 146.412 102.508 144.256 100.94 142.1C98.784 138.964 104.272 140.336 105.448 141.512C106.82 142.884 107.408 145.236 107.408 147.196C107.408 151.312 104.272 155.428 100.744 157.388C98 158.956 95.06 159.936 91.924 159.936C89.18 159.936 86.632 159.152 84.28 157.192ZM6.468 124.068C7.25194 124.656 8.03589 125.048 8.81983 125.44C9.21183 125.597 9.60401 125.691 9.99602 125.785C10.584 125.926 11.172 126.067 11.76 126.42C13.188 127.199 13.4122 127.978 13.6856 128.928C13.825 129.412 13.9771 129.94 14.308 130.536C15.68 132.888 17.836 135.044 20.384 136.22C18.62 140.532 18.032 145.628 18.816 150.528C13.328 142.492 9.212 133.476 6.468 124.068ZM130.634 133.378C131.075 134.113 131.516 134.848 131.908 135.632C133.084 138.376 133.476 141.904 133.476 144.844C133.672 150.136 130.34 161.308 123.48 160.916C122.5 160.916 121.52 161.7 121.324 162.68C121.074 163.803 121.461 164.688 121.875 165.638C122.112 166.18 122.358 166.743 122.5 167.384C123.676 171.5 122.892 176.008 121.912 179.928C120.736 184.828 117.796 189.728 113.288 191.884C108.192 192.668 103.096 193.06 98 193.06C95.2334 193.06 92.6403 192.886 89.8942 192.703L89.376 192.668C88.862 192.582 88.3105 192.459 87.7379 192.331C87.0007 192.167 86.2282 191.994 85.456 191.884C82.32 190.904 79.772 189.14 77.42 186.788C74.088 183.064 71.148 177.772 69.776 172.872C70.56 172.088 71.148 171.304 71.736 170.324C75.46 178.164 83.888 185.612 92.512 186.984C101.136 188.356 111.328 185.416 115.64 177.184C117.6 173.46 117.796 168.56 117.404 164.444C117.089 161.452 118.545 160.358 120.451 158.926C120.917 158.575 121.411 158.204 121.912 157.78C123.872 156.016 125.636 154.252 126.812 151.9C129.752 146.216 129.556 137.004 125.636 131.32H126.812C127.596 131.32 128.576 131.32 129.36 131.124C129.752 131.908 130.193 132.643 130.634 133.378ZM40.572 163.66C37.828 158.564 36.848 152.292 39.2 147C41.356 141.708 45.864 136.808 51.744 136.416C56.644 135.828 60.76 138.572 62.524 142.688C55.468 134.652 42.924 142.296 40.572 151.116C39.004 157.388 40.768 164.052 44.884 168.952C43.12 167.58 41.748 165.62 40.572 163.66ZM152.88 163.856C159.936 160.524 163.464 150.528 160.328 143.276C159.544 141.316 157.584 139.748 155.624 138.768C158.564 139.356 161.7 141.904 163.072 144.452C165.032 147.98 166.012 151.9 166.208 156.016C166.208 159.152 165.62 162.876 164.248 166.208C160.72 169.54 156.996 172.676 153.076 175.616C151.829 175.915 150.646 176.278 149.488 176.633C146.093 177.673 142.91 178.649 138.964 177.772C133.868 176.596 129.752 174.44 127.008 170.324C127.008 169.736 127.008 169.148 126.812 168.56C126.812 168.005 126.418 166.957 126.05 165.975C125.898 165.572 125.75 165.179 125.636 164.836C127.988 164.052 129.948 162.092 131.516 159.936C134.848 163.856 139.356 165.816 144.256 165.816C147.196 165.816 150.136 165.032 152.88 163.856ZM95.256 162.876C104.468 160.524 114.268 151.312 109.564 140.924C109.564 140.728 109.368 140.532 109.368 140.532C110.289 141.299 110.969 142.187 111.598 143.006C111.772 143.233 111.942 143.455 112.112 143.668C113.68 146.412 113.484 149.548 113.288 152.684C112.7 159.936 107.8 164.248 100.744 165.032C96.432 165.62 92.512 165.032 88.788 163.464C89.376 163.66 89.964 163.66 90.552 163.66C92.12 163.66 93.688 163.464 95.256 162.876ZM136.808 181.496C132.496 180.516 129.556 178.556 126.812 175.616L127.008 174.048C129.36 176.596 132.496 178.36 136.416 179.536C139.944 180.712 143.08 180.712 146.216 179.928C145.432 180.32 144.844 180.712 144.256 181.104C143.276 181.104 142.296 181.251 141.316 181.398C140.336 181.545 139.356 181.692 138.376 181.692C137.984 181.692 137.396 181.692 136.808 181.496ZM123.284 186.2C124.46 183.848 125.44 181.104 126.224 178.556C128.968 181.104 131.908 182.868 136.22 183.848C136.493 183.848 136.808 183.89 137.145 183.935C137.535 183.988 137.956 184.044 138.376 184.044C132.496 186.984 126.224 189.14 119.56 190.512C121.128 189.336 122.304 187.768 123.284 186.2Z" fill="url(#paint1_linear_13_5827)"/>
</g>
<defs>
<linearGradient id="paint0_linear_13_5827" x1="152.717" y1="20.4167" x2="33.8917" y2="167.825" gradientUnits="userSpaceOnUse">
<stop stop-color="var(--color-sociotype-primary)"/>
<stop offset="1" stop-color="var(--color-sociotype-secondary)"/>
</linearGradient>
<linearGradient id="paint1_linear_13_5827" x1="152.717" y1="20.4167" x2="33.8917" y2="167.825" gradientUnits="userSpaceOnUse">
<stop stop-color="var(--color-sociotype-primary)"/>
<stop offset="1" stop-color="var(--color-sociotype-secondary)"/>
</linearGradient>
</defs>
</svg>
