<svg width="16" height="16" viewBox="0 0 16 16" fill="none" xmlns="http://www.w3.org/2000/svg">
<path fill-rule="evenodd" clip-rule="evenodd" d="M3.95557 13.5L2.96748 12.3828C6.32674 9.70517 -0.731436 5.20007 4.51266 2.5C4.51266 2.5 5.32192 3.56105 5.30005 3.62347C1.92664 5.95654 8.86774 10.1184 3.95557 13.5ZM7.81531 13.5L6.82722 12.3828C10.1865 9.70517 3.1283 5.20007 8.3724 2.5C8.3724 2.5 9.18166 3.56105 9.15979 3.62347C5.78638 5.95654 12.7275 10.1184 7.81531 13.5ZM11.6751 13.5L10.687 12.3828C14.0398 9.70517 6.98804 5.20007 12.2309 2.5C12.2309 2.5 13.0401 3.56105 13.0182 3.62347C9.64612 5.95654 16.5872 10.1184 11.6751 13.5Z" fill="currentColor"/>
</svg>
