<svg width="160" height="146" viewBox="0 0 160 146" fill="none" xmlns="http://www.w3.org/2000/svg">
<g clip-path="url(#clip0_1049_59260)">
<mask id="mask0_1049_59260" style="mask-type:alpha" maskUnits="userSpaceOnUse" x="-20" y="-14" width="180" height="160">
<rect x="-20" y="-14" width="180" height="160" fill="url(#paint0_linear_1049_59260)"/>
</mask>
<g mask="url(#mask0_1049_59260)">
<path d="M76.5504 158.211C83.3126 153.454 85.5545 143.522 79.7636 136.864C78.0924 134.942 79.0132 134.398 78.5257 131.707C78.3572 130.774 78.1224 129.857 77.8136 128.97C80.2782 127.938 82.8354 127.437 85.2588 126.14C88.9351 124.173 92.3531 121.107 94.6624 117.643C98.5333 111.837 99.5401 104.542 97.2926 97.908C97.0736 97.2605 96.8154 96.613 96.5319 95.9702C96.675 95.8729 96.8107 95.7466 96.9267 95.5641C97.9204 94.0128 97.635 91.4977 97.0137 89.4289C98.0261 82.4703 104.051 77.1286 110.621 75.5332C114.788 74.5218 120.079 75.3854 123.168 78.62C125.225 80.7749 125.954 83.8738 127.786 86.1924C127.854 86.2785 127.94 86.3346 128.024 86.3936C128.05 86.4188 128.078 86.4404 128.106 86.4628C128.106 86.4628 128.114 86.4703 128.119 86.4731C128.655 86.9166 129.367 86.9662 130.404 86.7828C132.357 86.4385 133.987 84.9704 135.915 84.4848C139.205 83.6567 143.789 84.8301 145.367 88.177C146.424 90.4217 144.974 93.3438 146.048 95.5089C146.649 96.7187 147.757 97.325 148.526 98.446C149.878 100.416 150.014 102.146 149.532 104.482C149.382 105.214 147.228 109.589 145.425 110.124C143.67 109.413 144.48 105.335 143.814 103.603C143.294 102.254 142.487 101.243 141.492 100.485C136.172 94.8642 126.1 95.7962 119.728 98.8362C111.725 102.655 105.102 107.714 100.136 115.159C95.0657 122.764 92.3344 131.702 93.1952 140.901C93.6191 145.431 94.901 152.865 98.9534 156.269C93.2186 157.619 87.2481 158.354 81.1016 158.354C79.5727 158.354 78.0578 158.298 76.5504 158.211ZM25.235 134.599C25.2266 134.543 25.2219 134.488 25.206 134.429C23.1372 126.65 25.4989 117.032 30.7359 110.831C33.629 107.405 38.0501 104.659 42.3832 103.503C44.6083 102.91 48.6457 102.241 51.0738 103.364C51.0822 103.427 51.0897 103.489 51.0991 103.551C44.4763 101.267 36.9413 106.723 33.6496 112.35C29.6103 119.256 26.9277 131.055 30.2531 139.358C28.5099 137.845 26.836 136.259 25.235 134.599ZM5.95818 61.1398C8.50416 59.1402 12.7493 58.8755 15.4385 60.2181C17.5522 61.2736 18.2857 62.7978 20.6278 62.562C21.6813 62.4553 22.3728 61.7676 23.5349 62.2981C24.4987 62.7379 26.1857 65.2998 25.2734 66.5648C25.2547 66.5901 25.2247 66.6116 25.2032 66.635C25.1751 66.6228 25.1574 66.6032 25.1274 66.5929C15.9185 63.6315 8.08217 73.2193 6.85924 81.4691C5.46882 90.8324 11.1072 103.83 19.3805 108.708C19.4366 108.74 19.4928 108.764 19.548 108.784C16.9674 112.325 14.9501 116.633 14.7517 121.05C7.59094 109.295 3.4646 95.4883 3.4646 80.7169C3.4646 73.9538 4.33291 67.3938 5.95818 61.1398ZM57.5272 6.7351C55.9917 8.14236 54.6836 9.87709 53.5402 12.0497C51.8373 15.2862 51.0644 18.0193 47.8625 20.0974C45.0312 21.9351 42.634 24.5213 41.1069 27.5463C39.1954 25.4373 36.2957 24.5456 33.3726 25.9314C29.9013 27.5791 29.4147 30.9316 28.6325 34.1447C24.6399 33.5309 20.5361 34.5208 17.1957 36.6448C26.8594 22.6593 40.9862 12.002 57.5272 6.7351ZM84.8855 3.17581C84.9182 3.18142 84.9444 3.19826 84.98 3.20107C89.5695 3.48832 94.3293 5.2792 96.7255 9.47007C97.9896 11.6829 97.8165 14.2486 99.9321 15.5969C102.121 16.991 103.977 16.7075 105.791 18.9466C106.919 20.3388 107.868 22.3019 108.246 24.0394C109.025 27.6156 108.277 31.2057 106.254 34.2326C105.036 36.0525 103.592 37.0631 103.296 34.082C103.19 33.0088 103.795 32.0338 103.534 30.8998C103.528 30.8736 103.516 30.8511 103.51 30.8249C103.392 27.3461 103.039 24.0366 100.365 21.3905C97.0072 18.067 91.8282 16.3716 87.1975 16.1845C82.899 16.0114 78.6239 16.802 74.9663 19.1206C73.0688 20.3229 71.1993 21.7929 69.7312 23.4846C68.9658 24.3669 68.3539 25.5833 67.6044 26.5686C64.7918 28.0946 62.5985 30.9541 61.1529 33.7948C60.2416 35.5838 59.7167 36.9003 58.0633 38.1157C57.0378 38.8698 55.9346 39.3526 54.9569 40.2041C52.8684 42.0202 51.2984 44.3482 50.4506 46.9849C49.092 51.2132 49.0527 56.1068 51.5201 59.7915C50.4862 59.493 49.4261 59.0186 48.4436 58.9915C45.7928 58.9194 43.2337 60.2209 41.1893 61.8911C39.2646 59.7765 39.1402 56.0488 39.7184 53.165C39.8148 52.9667 39.8709 52.7431 39.869 52.4942C39.9186 52.2967 39.9701 52.1049 40.0253 51.9197C40.5905 50.0165 41.5832 48.2462 42.896 46.7632C43.5472 46.0287 44.757 45.3363 45.1987 44.4689C46.2541 42.3926 44.4398 40.5372 43.8213 38.6434C42.5357 34.7033 43.2066 30.6724 45.5851 27.304C47.6838 24.3314 50.6443 23.638 53.1735 21.4102C54.9999 19.8027 55.4181 16.977 56.4642 14.8642C58.6809 10.3889 61.1351 7.63616 64.7459 4.82072C70.0203 3.68949 75.4894 3.08037 81.1016 3.08037C82.3713 3.08037 83.6307 3.11592 84.8855 3.17581ZM140.906 31.2123C138.286 29.253 135.204 28.0394 132.002 28.0301C131.257 28.0282 129.406 28.6551 128.734 28.4652C128.692 28.453 126.63 26.0914 126.867 26.3281C125.159 24.6214 123.352 23.9749 120.909 23.6633C117.309 23.2029 113.941 24.3454 111.263 26.5536C111.178 23.2638 110.058 20.0497 108.033 17.4326C107.17 16.3164 106.192 15.4378 105.001 14.6921C104.107 14.1335 100.805 13.2839 100.828 13.3026C100.655 13.1613 99.1826 8.71124 98.3873 7.59873C97.578 6.46563 96.6469 5.57487 95.5522 4.73464C95.3632 4.59054 95.1667 4.47171 94.9749 4.34072C113.343 7.65581 129.471 17.4121 140.906 31.2123ZM137.872 80.8656C137.716 80.1452 137.823 78.7585 137.85 78.2448C137.952 76.2443 138.621 74.7613 139.925 73.2857C140.976 72.0984 142.406 70.926 143.916 70.431C141.107 72.5512 140.513 77.5047 141.178 81.005C140.129 80.7917 139.039 80.7449 137.872 80.8656ZM134.125 81.8846C133.718 80.7898 133.254 79.7241 133.225 78.4712C133.174 76.235 133.821 74.0736 134.952 72.1611C136.148 70.1372 137.525 68.8535 139.741 68.1012C141.854 67.3845 145.036 67.6221 147.022 69.136C146.078 68.8301 145.046 68.758 143.998 68.8703C141.967 69.0865 140.495 70.5031 139.091 71.8963C137.467 73.5066 136.599 75.1131 136.279 77.3718C136.145 78.3103 135.936 79.9178 136.242 81.1529C135.727 81.3035 134.964 81.5693 134.125 81.8846ZM130.02 83.6614C129.646 82.0053 129.013 80.4689 128.167 79.0841C127.717 75.1702 126.795 71.2881 126.678 67.2694C126.568 63.4602 127.025 59.6577 128.256 56.0376C129.216 53.2118 133.8 45.3531 137.828 48.2144C137.81 48.4867 137.785 48.7646 137.73 49.064C137.077 52.5307 137.297 55.9683 141.997 56.1358C143.239 56.1807 144.252 55.7737 145.088 55.1019C145.112 55.1131 145.128 55.1328 145.155 55.1421C148.338 56.2762 150.465 60.497 149.123 63.8046C148.961 64.2004 149.226 64.7571 149.589 64.9498C151.551 65.9959 152.894 67.1141 153.455 69.1847C153.707 70.1157 152.977 74.7098 151.273 73.9585C151.052 73.8612 150.703 72.1545 150.542 71.8579C150.294 71.3994 149.996 70.9952 149.659 70.65C147.697 65.8911 140.018 66.0455 136.399 68.8235C132.881 71.5258 130.039 78.2149 132.024 82.7201C131.182 83.0748 130.45 83.4135 130.02 83.6614ZM124.097 74.649C123.085 68.9339 122.389 63.1861 123.78 57.442C125.249 51.3676 129.776 41.9239 137.06 45.3119C137.252 45.5627 137.414 45.8397 137.54 46.1503C132.573 44.381 127.495 53.1173 126.284 57.0135C124.769 61.8883 124.515 67.0046 124.918 72.0722C124.99 72.9742 125.07 74.2635 125.254 75.5912C124.884 75.26 124.496 74.9466 124.097 74.649ZM120.02 72.4277C117.264 66.1026 117.595 59.5211 120.74 53.1632C122.36 49.8865 124.795 46.3234 128.152 44.6532C128.841 44.3108 129.584 44.0516 130.339 43.8663C127.392 45.399 124.971 48.6523 123.3 52.1105C120.114 58.7052 119.567 66.2252 121.625 73.137C121.103 72.875 120.569 72.6345 120.02 72.4277ZM112.016 71.449C110.993 71.5707 110.009 71.7728 109.054 72.0198C107.447 71.2516 106.209 69.7648 105.153 68.1536C104.523 67.1898 103.62 66.0043 103.764 64.7655C103.985 62.868 105.781 62.6153 107.409 62.8755C107.542 62.896 107.666 62.8914 107.783 62.8745C109.606 63.0748 111.135 62.2261 111.098 59.4818C111.042 55.4865 106.196 52.9667 102.645 53.1314C100.266 53.2408 97.8371 54.4404 95.9733 55.842C95.5728 56.1433 94.9309 57.0453 94.4444 57.1548C93.8212 57.2942 91.9302 56.2107 91.119 56.1077C85.9587 55.449 81.7837 59.5323 80.0948 64.1115C79.9956 64.3838 79.9947 64.6252 80.062 64.8291C78.9158 65.078 77.7051 65.4869 76.732 65.1632C75.7299 62.7594 74.3394 61.0949 72.6178 59.9599C71.3752 56.119 70.2009 51.857 71.5932 48.0114C72.9734 44.2022 79.6185 40.7814 80.0171 47.856C80.0733 48.8366 79.2995 49.8977 79.4164 50.9793C79.845 54.8979 84.6076 54.3842 87.0946 52.5821C89.2476 51.0224 90.6511 48.0881 91.0076 45.5066C91.3828 42.7903 90.3592 41.5749 89.6396 39.2067C88.8219 36.5101 89.5358 33.5571 88.3905 31.2441C90.0242 29.9791 90.871 28.5082 93.5162 28.2163C95.5588 27.9908 97.7557 28.1873 99.5635 29.3671C101.828 30.8446 101.472 31.5183 101.286 34.0745C101.165 35.7166 100.765 37.8462 102.925 38.5901C106.815 39.9272 109.63 34.2822 110.745 30.0801C110.794 30.0418 110.843 30.0015 110.891 29.9501C112.871 27.8121 115.993 26.3402 118.947 26.3721C120.974 26.3936 123.187 27.1674 124.614 28.5812C125.113 29.0752 125.731 30.6247 126.401 31.1449C127.583 32.0638 128.231 31.8916 129.64 31.7512C133.218 31.3929 137.094 31.5183 139.943 34.1232C143.641 37.5066 149.476 48.0151 142.812 51.144C139.717 52.5971 140.91 50.2813 140.531 48.1919C140.234 46.5526 139.849 45.3194 138.738 44.0563C132.761 37.2624 123.694 43.9328 120.045 49.6104C115.946 55.9917 114.196 64.5391 117.133 71.6277C115.477 71.3199 113.756 71.2432 112.016 71.449ZM103.499 74.3711C102.049 72.9321 100.953 69.4981 101.163 66.8081C101.202 66.9363 101.235 67.0691 101.279 67.1908C101.985 69.1548 104.031 71.4668 106.408 72.8937C105.384 73.3129 104.412 73.805 103.499 74.3711ZM99.6393 77.5496C98.0935 75.7456 97.0979 73.7985 97.1354 71.0495C97.1606 69.1959 98.028 66.8783 99.4128 65.1725C98.6755 67.6801 99.1312 70.8886 100.036 72.9601C100.352 73.6881 101.015 74.6836 101.823 75.551C101.042 76.162 100.311 76.8263 99.6393 77.5496ZM95.1658 85.6329C94.1272 84.177 92.8846 82.8362 92.151 81.21C91.1171 78.9185 92.2465 76.9293 92.0865 74.5873C91.8198 70.7304 89.1653 68.3286 86.0794 66.4235C84.8836 65.6853 83.7262 65.0135 82.3835 64.7693C82.3872 64.7618 82.3928 64.7543 82.3956 64.7459C84.6703 58.8633 89.1016 57.8659 94.2385 59.8429C94.6165 59.988 95.1873 59.8298 95.4465 59.5229C98.0084 56.5091 100.722 53.8696 104.992 55.449C105.789 55.7428 110.356 58.8212 108.276 60.6195C108.247 60.6448 108.093 60.6504 107.869 60.6486C105.953 60.2574 103.731 60.1068 102.149 61.4691C102.06 61.5459 101.993 61.6404 101.914 61.7236C98.3237 62.5639 95.7599 66.4086 95.2144 69.9426C94.6764 73.4345 95.8788 76.8479 98.1992 79.3133C96.85 81.1744 95.8226 83.2984 95.1658 85.6329ZM65.9146 57.8331C65.0089 54.3262 65.5328 50.2429 67.6025 47.3208C68.5485 45.9847 69.8893 44.6841 71.4173 43.828C68.3548 47.4481 69.6451 54.3721 71.1469 59.1505C69.5965 58.4422 67.8412 58.0399 65.9146 57.8331ZM61.4215 57.6507C60.1265 52.0404 61.8397 46.5891 67.058 43.3087C68.5438 42.3758 71.0543 41.5187 73.517 41.3166C71.0075 41.9997 68.7834 43.9955 67.1693 45.9987C64.2453 49.6254 63.9946 53.544 64.629 57.7218C64.1565 57.6909 63.6793 57.6656 63.1899 57.6516C62.5845 57.6348 61.9988 57.6348 61.4215 57.6507ZM76.2136 29.2249C77.4262 30.0567 78.0616 30.8745 79.4641 31.3134C79.932 31.4603 80.485 30.9522 80.9369 30.9344C84.3858 30.7987 86.0831 30.6874 87.0291 34.0661C87.5643 35.9795 86.6539 37.7208 86.9 39.5276C87.1807 39.9084 87.4623 40.2893 87.743 40.6701C88.8237 42.3852 89.1428 44.2584 88.7012 46.2907C88.2998 48.0591 85.5882 53.0565 83.0637 51.6755C80.8265 50.4525 83.117 47.3817 82.7952 45.5112C82.6539 44.6963 82.2899 44.0095 81.7846 43.4425C79.7177 38.2364 71.9188 38.6874 67.6709 40.9003C61.6769 44.0207 57.631 51.2198 59.7475 57.7657C58.2261 57.936 56.7524 58.3 55.2291 59.0102C54.8418 59.1908 54.3112 59.6025 53.8471 59.8326C49.2838 54.6602 51.5098 45.7545 56.2331 41.4804C57.8406 40.0254 60.0048 39.377 61.4018 37.7049C62.7239 36.1227 63.1833 33.8687 64.4353 32.1798C67.3321 28.2696 71.7195 26.1419 76.2136 29.2249ZM93.8324 21.3148C87.6944 20.0132 81.1269 22.9475 76.4784 26.8333C75.5118 26.2813 74.5153 25.7555 73.371 25.5636C72.3876 25.3999 71.4491 25.413 70.5537 25.5562C70.9242 25.0387 71.3191 24.5316 71.7907 24.0703C74.7006 21.2249 78.171 19.0813 82.2207 18.4469C86.5688 17.7657 90.9814 18.2532 94.9711 20.1873C96.9239 21.1332 98.3574 22.3749 99.4007 23.842C97.7773 22.591 95.7824 21.7283 93.8324 21.3148ZM86.7493 29.3578C86.435 29.1323 86.0925 28.9152 85.6864 28.7187C83.8375 27.827 82.6604 28.4418 80.8443 28.4624C79.918 28.4726 79.0889 28.2013 78.2889 27.8214C82.3732 24.6224 88.1753 22.039 93.3627 23.0205C96.1052 23.5398 98.4884 24.5868 100.002 26.9166C99.7309 26.7744 99.4549 26.6397 99.1733 26.5162C94.5632 24.4792 89.3037 25.0303 86.7493 29.3578ZM83.4642 85.4963C82.3956 85.4626 81.8642 85.6759 80.7488 85.7658C77.9736 85.9903 77.9044 86.2383 76.0704 83.9365C75.2807 82.9447 74.4658 81.9931 73.4805 81.1987C71.8795 79.9094 69.9998 79.3274 68.1434 79.4865C67.2273 79.3976 66.3235 79.4135 65.4009 79.6755C63.6025 80.1854 63.3387 81.253 62.112 82.3655C55.1393 74.5536 37.847 77.8453 36.2676 88.8694C35.7717 89.7536 35.6061 90.7978 35.9757 91.9852C36.4304 93.4476 38.3355 94.1559 38.5282 95.5201C38.7294 96.9517 36.8814 97.8153 35.4947 97.9435C28.872 98.5601 28.2881 91.3489 28.9862 87.1852C29.3034 85.2942 29.1321 84.1274 28.2881 82.3777C27.1419 80.0067 27.1756 78.8773 28.8084 76.5428C30.0425 74.7763 31.4105 73.8846 33.3464 73.1557C35.1804 72.4652 37.9125 72.3735 39.3404 70.9456C40.6092 69.6769 40.4192 67.4677 41.5869 65.9987C43.1374 64.0479 44.7692 63.376 47.1121 62.9606C49.5935 62.5208 50.1316 63.3648 52.4053 63.4808C53.9828 63.5604 54.4909 63.1084 55.7765 62.4647C61.2165 59.7409 69.7162 60.0432 73.4122 65.2745C73.6648 65.8715 73.9708 66.4067 74.3413 66.8661C74.4564 67.0972 74.6183 67.2619 74.8091 67.3686C75.6101 68.1246 76.6403 68.5887 77.9643 68.6308C79.3425 68.6748 80.7442 67.988 82.1392 68.3304C84.7311 68.9686 87.5044 71.6212 88.3185 73.9323C89.4104 77.0303 88.1182 79.8149 89.8474 82.7997C91.8974 86.3402 94.5361 88.7365 94.7475 92.6757C92.1819 88.7533 88.3372 85.6497 83.4642 85.4963ZM76.0798 125.574C75.9076 125.335 75.728 125.104 75.5408 124.879C77.8885 122.873 80.4073 121.534 82.2525 118.831C83.5184 116.975 84.6469 114.997 85.3879 112.864C86.7372 108.978 86.521 104.559 84.3362 100.998C79.0422 92.366 66.3647 91.4294 60.6252 99.7728C60.5363 99.9019 60.4867 100.029 60.468 100.151C59.9814 100.926 59.8336 101.797 59.988 102.628C59.9281 103.143 59.9936 103.669 60.2519 104.174C60.8722 105.385 63.4276 105.753 63.261 107.096C62.8671 110.279 56.7346 107.202 55.7288 106.131C54.4825 104.805 53.8041 103.391 53.9576 101.469C54.0249 100.631 54.2738 99.9131 54.5105 99.2086C55.7419 98.6209 56.09 97.3512 55.6624 95.9908C54.999 93.8827 52.3706 92.4146 54.5452 90.2467C56.293 88.5054 59.377 87.4724 61.6189 86.5508C62.7052 86.1035 63.4463 85.8228 64.2107 84.9573C64.9209 84.1536 65.3279 83.1739 65.9165 82.4366C69.9745 80.5447 72.4391 85.7573 74.6754 88.0469C76.5701 89.9884 78.1149 89.6787 80.6515 89.2773C87.9676 88.119 93.5826 93.8256 95.4044 100.621C97.1429 107.099 95.3959 114.274 90.8766 119.177C86.7933 123.606 82.1842 125.034 77.0726 127.217C76.7834 126.649 76.4578 126.098 76.0798 125.574ZM66.2355 138.457C68.9845 139.941 70.3647 143.704 69.924 146.933C69.5712 149.512 68.3979 151.474 66.5331 153.314C65.4196 154.411 63.8299 154.642 62.8512 155.765C62.7483 155.884 62.679 156.006 62.6341 156.125C61.3794 155.82 60.1368 155.484 58.9082 155.118C64.9714 152.795 70.4377 144.044 66.2355 138.457ZM56.8694 151.05C59.0561 150.041 61.5394 148.09 62.9485 146.118C63.9843 144.669 65.0762 141.319 64.7431 138.959C67.7186 141.432 65.4842 146.033 63.7251 148.494C61.5936 151.476 59.6933 152.858 56.2874 153.63C56.0029 153.694 55.8046 153.862 55.6858 154.076C54.5105 153.669 53.3503 153.235 52.2022 152.774C53.8846 152.418 55.6511 151.614 56.8694 151.05ZM51.4574 125.476C53.2268 126.275 54.343 128.078 54.839 129.992C52.9975 131.871 51.5482 134.503 51.4892 137.089C50.8548 139.598 49.7807 141.588 47.7615 143.34C45.9547 144.908 44.1329 146.359 41.7385 146.902C41.4709 146.962 41.3137 147.135 41.2342 147.34C40.5614 146.935 39.9027 146.511 39.2431 146.088C46.7584 145.672 56.2958 131.835 51.4574 125.476ZM74.3039 123.587C74.1832 123.478 74.0569 123.38 73.9334 123.277C78.9776 119.537 82.7549 113.046 81.707 106.829C80.485 99.5903 74.6445 95.885 68.0826 96.5325C74.244 94.7482 81.7135 98.4834 83.8609 105.156C85.1521 109.166 83.8993 113.173 81.7219 116.621C79.7729 119.709 76.9509 121.362 74.3039 123.587ZM77.954 109.347C77.9409 106.493 76.3493 103.415 74.1401 101.345C73.6424 100.63 72.9977 99.9814 72.1967 99.4312C71.334 98.838 70.3656 98.3655 69.3523 98.0352C75.7008 98.4666 80.6309 103.689 79.8553 110.715C79.3631 115.179 76.3708 119.636 72.6187 122.342C71.9984 121.969 71.3518 121.666 70.6875 121.462C74.0831 118.277 77.9746 114.324 77.954 109.347ZM74.2365 109.334C75.0515 107.91 75.4192 106.406 75.3575 104.965C76.4765 107.175 76.9097 109.743 76.2464 111.849C75.7963 113.276 74.8756 114.821 74.0737 116.074C72.7254 118.18 70.7885 119.155 68.9808 120.678C68.8601 119.178 68.2884 117.828 67.3733 116.768C70.1953 115.507 73.1343 111.259 74.2365 109.334ZM56.0843 128.798C55.7587 126.404 54.5555 124.177 52.2724 123.012C50.7828 122.251 49.5 122.269 47.9224 122.37C47.0869 122.424 46.2625 122.844 45.8611 122.235C44.9189 120.805 48.5063 117.96 49.1051 117.624C50.9681 116.575 53.0378 116.408 55.0588 117.037C56.2668 117.412 57.2904 118.413 58.6163 118.523C60.0722 118.642 61.2493 117.546 62.6528 117.555C64.9172 117.569 66.4367 119.384 66.5958 121.49C65.8061 121.765 65.0285 122.209 64.2818 122.856C63.3826 123.632 61.5272 126.41 61.5983 126.365C60.9592 126.775 59.3143 126.759 58.5545 127.101C57.6245 127.517 56.8301 128.127 56.0843 128.798ZM16.0598 70.416C11.0015 75.7269 10.8536 83.6848 13.3061 90.2981C14.4607 93.4102 16.1056 96.0198 18.4532 98.3496C20.6717 100.552 22.9604 101.502 25.5971 102.678C23.8212 103.955 22.1847 105.505 20.682 107.332C20.6062 107.221 20.5005 107.121 20.3545 107.041C13.2303 103.139 8.2927 92.6364 8.28709 84.6701C8.28241 77.7611 13.5746 68.439 21.0142 67.8345C19.1232 68.1788 17.788 68.6008 16.0598 70.416ZM27.3721 101.518C23.3094 99.5725 19.7379 97.908 17.1283 93.8397C13.8385 88.7084 12.4237 81.0088 14.9903 75.3377C15.6256 73.9342 16.4041 72.8057 17.3641 71.9524C10.9407 80.5063 18.1417 97.1482 27.6594 101.352C27.5639 101.407 27.4676 101.462 27.3721 101.518ZM58.5237 84.046C58.3637 84.1227 58.2093 84.2078 58.0511 84.2883C55.6773 82.2719 51.8785 81.7985 48.9648 82.0221C44.8712 82.3374 42.1147 83.6436 39.5116 86.2411C39.2197 86.3646 38.9315 86.5031 38.6536 86.6565C41.9893 78.6902 55.1262 78.0614 61.1071 83.0448C60.2874 83.4397 59.3162 83.6698 58.5237 84.046ZM51.4696 88.9489C48.9367 86.5199 46.0324 85.1566 42.2316 85.5365C44.0337 84.2921 46.0595 83.5024 48.5643 83.275C50.9877 83.0551 54.8343 83.1318 57.1211 84.7767C56.0217 85.3877 54.9625 86.0698 53.9192 86.7838C52.9433 87.4518 52.0881 88.148 51.4696 88.9489ZM33.1069 59.7176C35.7567 60.1255 37.0414 61.4317 38.9755 62.9784C39.0896 63.0701 39.2066 63.1187 39.3226 63.1477C39.4078 63.2404 39.4938 63.3311 39.5837 63.42C39.172 63.885 38.778 64.3884 38.4627 64.8675C37.818 65.85 37.7553 67.7999 37.0938 68.5335C35.5022 70.2991 31.7193 70.1896 29.6917 71.5819C27.5798 73.0303 25.4512 75.478 24.6661 77.9585C23.592 81.3494 26.2905 83.6689 26.1136 87.1028C25.9939 89.4102 25.2706 91.1786 25.9761 93.53C26.7564 96.1246 28.6596 98.4638 31.069 99.7559C30.4337 99.9936 29.8086 100.25 29.2014 100.539C25.0647 97.9884 21.3435 94.0362 19.0876 89.7976C16.0205 84.0366 15.4974 74.2794 21.5288 70.2224C21.6495 70.2111 21.7581 70.1868 21.8816 70.1802C23.3955 70.097 24.4051 70.3702 25.8732 69.6974C28.0262 68.7122 29.4643 66.5003 28.6184 64.0488C28.1637 62.7295 27.2 61.4729 26.0304 60.6186C28.1543 59.3976 30.6788 59.3433 33.1069 59.7176ZM22.3204 59.4836C21.4147 55.828 27.1354 53.6619 29.8301 53.5C32.8739 53.3176 34.5918 54.8156 36.8861 56.119C36.9039 57.2951 37.062 58.4422 37.3652 59.5183C33.4316 57.0219 27.9691 56.845 24.1908 59.7017C23.577 59.5388 22.9445 59.5248 22.3204 59.4836ZM19.358 58.5274C18.3166 54.9176 20.318 51.4958 24.0392 49.9641C27.1176 48.6972 35.4423 48.6514 36.6166 52.9302C36.7018 53.238 36.8487 53.4729 37.0283 53.6544C37.0068 53.8228 36.9984 53.9903 36.9815 54.1578C36.1563 53.5627 35.1326 53.122 34.3804 52.7926C32.0084 51.755 29.3342 51.4284 26.7583 51.9711C23.562 52.6448 19.766 55.493 19.9756 59.027C19.8315 58.9166 19.6256 58.7491 19.358 58.5274ZM11.445 46.4245C11.4609 46.3964 11.4824 46.3758 11.4955 46.3421C11.5105 46.3019 11.5301 46.2663 11.5461 46.2261C12.013 45.2867 12.4892 44.3519 12.9926 43.435C16.5089 38.0783 22.7873 36.3791 29.4353 37.9323C30.6292 38.2121 31.5808 37.3915 31.68 36.2228C31.825 34.5115 31.6332 33.0032 32.5577 31.3891C34.4898 28.017 37.9715 27.4584 39.783 31.2273C39.7848 31.2329 39.7886 31.2348 39.7904 31.2394C39.3675 33.2174 39.3357 35.2656 39.6772 37.296C39.942 38.8708 40.6896 40.0843 41.1444 41.587C41.8284 43.8429 41.2417 43.8944 39.9411 45.7545C39.2683 46.7164 38.6779 47.8645 38.1942 49.1108C34.6292 45.2539 26.8163 45.2605 22.6554 47.667C20.449 48.9442 17.0647 53.5505 17.1171 57.0266C13.6757 55.289 9.59423 55.6109 6.80591 58.155C8.03726 54.0932 9.59423 50.1746 11.445 46.4245ZM30.2578 108.471C25.0919 113.432 21.206 123.305 22.0603 131.103C20.2366 128.969 18.5187 126.744 16.9328 124.42C16.958 124.361 16.9917 124.311 17.002 124.243C17.8778 119.071 18.1201 115.084 21.249 110.612C24.5941 105.833 28.916 102.361 34.2681 100.763C37.1041 101.056 40.4117 99.7129 41.2436 96.8385C41.7862 94.9644 41.0536 94.2729 40.4295 92.7468C38.5507 88.147 42.4815 86.7519 46.5966 87.9842C48.3987 88.5232 49.4298 89.6928 50.5171 91.0551C50.4085 91.697 50.4291 92.4053 50.6162 93.2034C50.8155 94.0558 51.2553 94.8221 51.681 95.5501C52.2013 96.439 52.3126 96.9817 52.4792 97.6086C52.1021 98.7529 51.2759 99.9964 51.1009 101.083C51.0794 101.215 51.0747 101.351 51.0607 101.486C44.6008 98.6397 34.5104 104.388 30.2578 108.471ZM33.1453 141.749C32.1955 137.786 30.7836 134.35 30.8332 130.06C30.8809 125.789 31.6416 121.567 33.3193 117.631C35.3675 112.826 38.3139 107.925 43.5322 106.141C45.8761 105.34 49.4251 104.993 51.944 106.09C52.5157 107.117 53.3147 108.025 54.2121 108.761C56.5756 110.699 60.5466 111.268 63.0299 109.213C64.6608 107.862 65.0163 106.191 63.9094 104.475C63.3686 103.635 62.2954 103.929 62.1064 102.675C61.9847 101.858 62.2842 101.245 62.8138 100.779C63.5286 100.306 64.3829 99.9758 64.9986 99.9028C65.8089 99.8065 66.7417 99.9683 67.5305 100.136C70.5967 100.787 73.0379 103.1 72.3783 106.367C71.83 109.083 69.734 111.59 67.7214 113.411C67.0271 114.039 66.0765 114.519 65.4374 115.229C64.6159 114.801 63.6793 114.526 62.6528 114.444C60.3688 114.262 59.2432 114.839 57.006 114.23C55.0186 113.688 52.8666 113.534 50.8436 114.092C47.362 115.054 43.0391 118.092 43.1177 122.157C43.1467 123.631 43.768 125.178 45.3166 125.638C46.2635 125.921 47.2272 125.503 48.1554 125.237C52.6158 127.748 49.9332 134.696 47.565 137.762C44.9255 141.18 42.4085 143.435 38.1848 144.648C37.9135 144.725 37.7666 144.902 37.7039 145.102C36.1385 144.044 34.6274 142.915 33.1453 141.749ZM43.0045 148.358C45.2258 147.928 47.288 146.297 48.9189 144.888C50.4871 143.534 51.5781 142.134 52.3585 140.495C52.5989 140.901 52.9059 141.291 53.2605 141.667C53.2109 141.744 53.165 141.827 53.1313 141.924C52.4118 143.993 51.492 145.681 49.7077 147.039C48.2714 148.131 46.9475 148.867 45.295 149.496C45.2576 149.509 45.2333 149.533 45.1996 149.55C44.4604 149.164 43.7296 148.766 43.0045 148.358ZM47.6183 150.778C48.9966 150.189 50.3318 149.103 51.3068 148.347C53.1809 146.891 54.1578 145.128 54.9363 142.999C57.1248 144.198 59.5183 143.71 60.3679 141.088C59.9019 139.926 60.1938 138.942 61.2437 138.136C61.3999 138.064 61.5553 138.009 61.7106 137.965C61.836 138.005 61.9735 138.024 62.1326 137.986C62.3412 137.936 62.5405 137.915 62.7426 137.886C62.8184 137.896 62.8933 137.904 62.9691 137.921C64.382 139.27 62.3178 143.733 61.778 144.454C60.6186 146.002 58.8324 147.36 57.2137 148.397C55.9861 149.183 53.8921 149.907 52.4315 150.335C51.1617 150.706 49.9725 150.46 49.0069 151.406C48.5437 151.195 48.0749 150.997 47.6183 150.778ZM64.9031 156.65C67.1806 154.924 69.1436 153.588 70.5846 150.788C71.7186 148.586 72.0002 145.719 71.5745 143.292C70.8559 139.199 67.4014 136.086 63.3564 136.231C61.9698 135.699 60.4072 135.688 59.1674 136.62C57.5028 137.873 57.6189 143.903 54.7529 139.297C52.1161 135.06 58.1157 129.254 62.2318 129.973C63.0065 130.108 63.8383 129.887 64.2463 129.154C64.8601 128.05 65.5768 126.146 66.7249 125.492C70.1616 123.534 73.4515 127.205 74.6201 129.976C75.5493 132.18 74.6211 135.034 75.698 136.96C76.1734 137.81 77.619 138.583 78.2814 139.218C80.193 141.052 81.5563 143.909 81.5451 146.64C81.5283 150.86 77.3373 155.942 73.2802 157.962C70.4386 157.679 67.6456 157.232 64.9031 156.65ZM102.139 155.446C102.056 155.39 101.966 155.34 101.862 155.301C96.5712 153.325 95.5559 143.06 95.2893 138.501C94.8308 130.63 97.475 122.642 101.89 116.184C105.776 110.498 110.619 105.602 116.772 102.417C121.574 99.9309 128.707 97.3597 134.532 98.7108C131.019 98.8427 127.545 100.049 124.393 101.873C119.789 103.365 115.127 106.253 111.401 109.137C106.382 113.022 104.057 118.46 102.574 124.495C101.136 130.34 101.074 136.768 102.499 142.615C103.564 146.982 106.056 150.07 108.923 153.2C106.708 154.05 104.445 154.799 102.139 155.446ZM111.56 152.146C111.025 151.409 110.304 150.882 109.619 150.152C108.087 148.52 106.729 146.59 105.74 144.571C103.068 139.112 103.369 132.237 104.352 126.382C105.31 120.673 107.612 114.894 112.301 111.279C113.672 110.222 115.177 109.129 116.754 108.088C116.456 108.417 116.168 108.749 115.892 109.083C111.153 114.822 108.455 122.052 108.53 129.544C108.572 133.719 109.031 137.797 110.221 141.825C111.253 145.316 113.097 147.652 115.036 150.558C113.892 151.115 112.734 151.645 111.56 152.146ZM117.397 149.348C115.243 146.724 113.295 144.634 112.26 141.262C111.22 137.878 110.878 134.373 110.747 130.862C110.449 122.891 112.144 115.84 117.543 109.756C119.872 107.131 123.381 104.475 127.144 103.048C122.1 107.082 118.562 114.875 117.572 120.268C116.405 126.611 116.505 133.77 118.226 140.016C118.778 142.017 119.683 143.87 120.845 145.562C121.244 146.142 121.531 146.543 121.79 146.839C120.356 147.723 118.89 148.558 117.397 149.348ZM124.126 145.342C121.782 145.059 120.208 140.503 119.75 138.858C118.384 133.954 118.052 128.874 118.652 123.839C119.229 118.988 120.641 114.623 123.177 110.43C124.729 107.863 127.295 105.288 130.217 103.857C126.204 108.54 124.961 117.35 125.706 122.342C126.368 126.767 128.003 131.002 131.304 134.128C131.971 134.76 133.34 136.237 134.532 137.015C131.309 140.074 127.835 142.868 124.126 145.342ZM136.466 135.126C135.655 135.71 135.852 135.787 133.915 134.323C130.873 132.024 128.835 129.018 127.842 125.33C126.305 119.622 127.435 104.69 134.876 102.733C135.217 102.738 135.559 102.76 135.901 102.81C133.573 105.285 132.89 111.133 133.229 113.959C133.885 119.41 137.537 125.788 143.16 127.369C141.1 130.103 138.861 132.691 136.466 135.126ZM143.989 126.221C143.474 126.046 142.933 125.929 142.435 125.671C140.062 124.445 138.266 121.753 137.311 119.376C136.527 117.428 136.098 115.43 135.935 113.337C135.845 112.197 136.049 104.069 138.961 104.248C141.081 106.011 141.067 108.453 142.324 110.176C142.622 110.703 143.038 111.067 143.526 111.291C143.927 111.537 144.399 111.747 144.979 111.905C145.468 112.038 145.814 111.805 145.98 111.469C147.101 111.237 148.222 110.656 149.019 109.905C152.53 106.595 154.17 100.51 151.663 96.2574C151.261 95.5744 149.817 94.6911 149.55 94.068C148.946 92.6579 149.673 90.4872 149.445 88.9667C149.053 86.3487 147.626 84.4783 145.484 82.9522C144.671 82.3739 143.859 81.9286 143.036 81.5852C142.317 79.3517 141.993 76.4202 143.232 74.3608C144.484 72.278 147.603 71.4181 148.956 73.588C149.357 74.2317 149.329 75.1356 149.763 75.7494C150.919 77.3859 152.412 77.529 153.803 76.0067C155.443 74.213 155.866 70.6724 155.37 68.3707C154.783 65.6376 153.351 64.7365 151.335 63.6043C152.633 59.3555 150.339 55.3686 146.326 53.748C147.539 51.9898 148.162 49.5852 148.439 47.6773C148.753 45.501 148.523 43.261 147.873 41.1061C154.768 52.7047 158.74 66.2448 158.74 80.7169C158.74 97.719 153.259 113.434 143.989 126.221ZM81.1016 0.716858C36.9188 0.716858 1.10107 36.5344 1.10107 80.7169C1.10107 121.622 31.8072 155.331 71.422 160.113C71.6147 160.303 71.8851 160.41 72.2285 160.308C72.2959 160.287 72.3595 160.262 72.4279 160.242C75.2779 160.549 78.1692 160.717 81.1016 160.717C125.285 160.717 161.102 124.9 161.102 80.7169C161.102 36.5344 125.285 0.716858 81.1016 0.716858Z" fill="url(#paint1_linear_1049_59260)"/>
</g>
</g>
<defs>
<linearGradient id="paint0_linear_1049_59260" x1="70" y1="-14" x2="70" y2="146" gradientUnits="userSpaceOnUse">
<stop stop-color="white"/>
<stop offset="1" stop-color="white" stop-opacity="0"/>
</linearGradient>
<linearGradient id="paint1_linear_1049_59260" x1="16.9155" y1="32.1626" x2="93.6967" y2="108.945" gradientUnits="userSpaceOnUse">
<stop stop-color="#2992DE"/>
<stop offset="1" stop-color="#DE64D2"/>
</linearGradient>
<clipPath id="clip0_1049_59260">
<rect width="160" height="146" fill="white"/>
</clipPath>
</defs>
</svg>
