<svg width="24" height="24" viewBox="0 0 24 24" fill="none" xmlns="http://www.w3.org/2000/svg">
<path d="M20.5 7.75C20.5 10.5114 18.2614 12.75 15.5 12.75C12.7386 12.75 10.5 10.5114 10.5 7.75C10.5 4.98858 12.7386 2.75 15.5 2.75C18.2614 2.75 20.5 4.98858 20.5 7.75Z" stroke="currentColor"/>
<path d="M9.5 15.25C9.5 17.183 7.933 18.75 6 18.75C4.067 18.75 2.5 17.183 2.5 15.25C2.5 13.317 4.067 11.75 6 11.75C7.933 11.75 9.5 13.317 9.5 15.25Z" stroke="currentColor"/>
<path d="M18.5 18.25C18.5 19.6307 17.3807 20.75 16 20.75C14.6193 20.75 13.5 19.6307 13.5 18.25C13.5 16.8693 14.6193 15.75 16 15.75C17.3807 15.75 18.5 16.8693 18.5 18.25Z" stroke="currentColor"/>
</svg>
