<svg width="24" height="24" viewBox="0 0 24 24" fill="none" xmlns="http://www.w3.org/2000/svg">
<path d="M4.30569 5.95615C4.89092 5.12011 5.18353 4.70209 5.61768 4.47604C6.05183 4.25 6.56209 4.25 7.58261 4.25H11.5H15.4174C16.4379 4.25 16.9482 4.25 17.3823 4.47604C17.8165 4.70209 18.1091 5.12011 18.6943 5.95615L19.2915 6.80926C20.1144 7.98493 20.5259 8.57277 20.5064 9.23546C20.4869 9.89815 20.0415 10.4607 19.1507 11.5859L13.875 18.25C13.1417 19.1763 12.775 19.6395 12.3472 19.8395C11.8103 20.0906 11.1897 20.0906 10.6528 19.8395C10.225 19.6395 9.85829 19.1763 9.12499 18.25L3.84926 11.5859C2.95849 10.4607 2.51311 9.89815 2.49358 9.23546C2.47406 8.57277 2.88554 7.98493 3.70851 6.80926L4.30569 5.95615Z" stroke="currentColor" stroke-linejoin="round"/>
<path d="M8.5 7.75L8 8.5C7.70344 8.94484 7.73479 9.53176 8.07706 9.94247L10 12.25" stroke="currentColor" stroke-linecap="round" stroke-linejoin="round"/>
</svg>
