<svg width="24" height="24" viewBox="0 0 24 24" fill="none" xmlns="http://www.w3.org/2000/svg">
<path d="M3 12C3 4.5885 4.5885 3 12 3C19.4115 3 21 4.5885 21 12C21 19.4115 19.4115 21 12 21C4.5885 21 3 19.4115 3 12Z" stroke="currentColor"/>
<path d="M14.2082 14.1601V15.0001H9.92816V14.1701L11.7882 12.3401C12.1548 11.9801 12.4315 11.6901 12.6182 11.4701C12.8048 11.2434 12.9348 11.0434 13.0082 10.8701C13.0815 10.6967 13.1182 10.5101 13.1182 10.3101V10.2101C13.1182 9.89007 13.0148 9.64007 12.8082 9.46007C12.6082 9.28007 12.3248 9.19007 11.9582 9.19007C11.5915 9.19007 11.3048 9.28673 11.0982 9.48007C10.8915 9.66673 10.7882 9.93007 10.7882 10.2701V10.4801H9.86816V10.2601C9.86816 9.6534 10.0515 9.18007 10.4182 8.84007C10.7915 8.4934 11.3048 8.32007 11.9582 8.32007C12.6048 8.32007 13.1115 8.49007 13.4782 8.83007C13.8515 9.1634 14.0382 9.6234 14.0382 10.2101V10.3101C14.0382 10.7034 13.9282 11.0867 13.7082 11.4601C13.4882 11.8267 13.0948 12.2901 12.5282 12.8501L11.1982 14.1601H14.2082Z" fill="currentColor"/>
</svg>
