<svg width="458" height="172" viewBox="0 0 458 172" fill="none" xmlns="http://www.w3.org/2000/svg">
<line opacity="0.1" x1="2" y1="111.847" x2="450" y2="111.847" stroke="#966F7B"/>
<path opacity="0.1" d="M2 4C2 1.79086 3.79086 0 6 0H68.9703C71.1794 0 72.9703 1.79086 72.9703 4V19.8613C72.9703 22.0704 71.1794 23.8613 68.9703 23.8613H6C3.79087 23.8613 2 22.0704 2 19.8613V4Z" fill="#FECE30"/>
<path opacity="0.1" d="M2 31.8381C2 29.629 3.79086 27.8381 6 27.8381H68.9703C71.1794 27.8381 72.9703 29.629 72.9703 31.8381V47.6994C72.9703 49.9085 71.1794 51.6994 68.9703 51.6994H6C3.79087 51.6994 2 49.9085 2 47.6994V31.8381Z" fill="#FECE30"/>
<path opacity="0.1" d="M2 59.6763C2 57.4671 3.79086 55.6763 6 55.6763H68.9703C71.1794 55.6763 72.9703 57.4671 72.9703 59.6763V75.5375C72.9703 77.7467 71.1794 79.5375 68.9703 79.5375H6C3.79087 79.5375 2 77.7467 2 75.5375V59.6763Z" fill="#FECE30"/>
<path opacity="0.1" d="M2 87.5144C2 85.3053 3.79086 83.5144 6 83.5144H68.9703C71.1794 83.5144 72.9703 85.3053 72.9703 87.5144V103.376C72.9703 105.585 71.1794 107.376 68.9703 107.376H6C3.79087 107.376 2 105.585 2 103.376V87.5144Z" fill="#FECE30"/>
<path opacity="0.1" d="M2 120.324C2 118.115 3.79086 116.324 6 116.324H68.9703C71.1794 116.324 72.9703 118.115 72.9703 120.324V136.185C72.9703 138.394 71.1794 140.185 68.9703 140.185H6C3.79087 140.185 2 138.394 2 136.185V120.324Z" fill="#FECE30"/>
<path opacity="0.1" d="M2 148.162C2 145.953 3.79086 144.162 6 144.162H68.9703C71.1794 144.162 72.9703 145.953 72.9703 148.162V164.023C72.9703 166.232 71.1794 168.023 68.9703 168.023H6C3.79087 168.023 2 166.232 2 164.023V148.162Z" fill="#FECE30"/>
<path opacity="0.1" d="M77.4059 4C77.4059 1.79086 79.1968 0 81.4059 0H144.376C146.585 0 148.376 1.79086 148.376 4V19.8613C148.376 22.0704 146.585 23.8613 144.376 23.8613H81.4059C79.1968 23.8613 77.4059 22.0704 77.4059 19.8613V4Z" fill="#FECE30"/>
<path opacity="0.1" d="M77.4059 31.8381C77.4059 29.629 79.1968 27.8381 81.4059 27.8381H144.376C146.585 27.8381 148.376 29.629 148.376 31.8381V47.6994C148.376 49.9085 146.585 51.6994 144.376 51.6994H81.4059C79.1968 51.6994 77.4059 49.9085 77.4059 47.6994V31.8381Z" fill="#FECE30"/>
<path opacity="0.1" d="M77.4059 59.6763C77.4059 57.4671 79.1968 55.6763 81.4059 55.6763H144.376C146.585 55.6763 148.376 57.4671 148.376 59.6763V75.5375C148.376 77.7467 146.585 79.5375 144.376 79.5375H81.4059C79.1968 79.5375 77.4059 77.7467 77.4059 75.5375V59.6763Z" fill="#FECE30"/>
<path opacity="0.1" d="M77.4059 87.5144C77.4059 85.3053 79.1968 83.5144 81.4059 83.5144H144.376C146.585 83.5144 148.376 85.3053 148.376 87.5144V103.376C148.376 105.585 146.585 107.376 144.376 107.376H81.4059C79.1968 107.376 77.4059 105.585 77.4059 103.376V87.5144Z" fill="#FECE30"/>
<path opacity="0.1" d="M77.4059 120.324C77.4059 118.115 79.1968 116.324 81.4059 116.324H144.376C146.585 116.324 148.376 118.115 148.376 120.324V136.185C148.376 138.394 146.585 140.185 144.376 140.185H81.4059C79.1968 140.185 77.4059 138.394 77.4059 136.185V120.324Z" fill="#FECE30"/>
<path opacity="0.1" d="M77.4059 148.162C77.4059 145.953 79.1968 144.162 81.4059 144.162H144.376C146.585 144.162 148.376 145.953 148.376 148.162V164.023C148.376 166.232 146.585 168.023 144.376 168.023H81.4059C79.1968 168.023 77.4059 166.232 77.4059 164.023V148.162Z" fill="#FECE30"/>
<path opacity="0.1" d="M152.812 4C152.812 1.79086 154.603 0 156.812 0H219.782C221.991 0 223.782 1.79086 223.782 4V19.8613C223.782 22.0704 221.991 23.8613 219.782 23.8613H156.812C154.603 23.8613 152.812 22.0704 152.812 19.8613V4Z" fill="#FECE30"/>
<path opacity="0.1" d="M152.812 31.8381C152.812 29.629 154.603 27.8381 156.812 27.8381H219.782C221.991 27.8381 223.782 29.629 223.782 31.8381V47.6994C223.782 49.9085 221.991 51.6994 219.782 51.6994H156.812C154.603 51.6994 152.812 49.9085 152.812 47.6994V31.8381Z" fill="#FECE30"/>
<path opacity="0.1" d="M152.812 59.6763C152.812 57.4671 154.603 55.6763 156.812 55.6763H219.782C221.991 55.6763 223.782 57.4671 223.782 59.6763V75.5375C223.782 77.7467 221.991 79.5375 219.782 79.5375H156.812C154.603 79.5375 152.812 77.7467 152.812 75.5375V59.6763Z" fill="#FECE30"/>
<path opacity="0.1" d="M152.812 87.5144C152.812 85.3053 154.603 83.5144 156.812 83.5144H219.782C221.991 83.5144 223.782 85.3053 223.782 87.5144V103.376C223.782 105.585 221.991 107.376 219.782 107.376H156.812C154.603 107.376 152.812 105.585 152.812 103.376V87.5144Z" fill="#FECE30"/>
<path opacity="0.1" d="M152.812 120.324C152.812 118.115 154.603 116.324 156.812 116.324H219.782C221.991 116.324 223.782 118.115 223.782 120.324V136.185C223.782 138.394 221.991 140.185 219.782 140.185H156.812C154.603 140.185 152.812 138.394 152.812 136.185V120.324Z" fill="#FECE30"/>
<path opacity="0.1" d="M152.812 148.162C152.812 145.953 154.603 144.162 156.812 144.162H219.782C221.991 144.162 223.782 145.953 223.782 148.162V164.023C223.782 166.232 221.991 168.023 219.782 168.023H156.812C154.603 168.023 152.812 166.232 152.812 164.023V148.162Z" fill="#FECE30"/>
<path opacity="0.1" d="M228.218 4C228.218 1.79086 230.009 0 232.218 0H295.188C297.397 0 299.188 1.79086 299.188 4V19.8613C299.188 22.0704 297.397 23.8613 295.188 23.8613H232.218C230.009 23.8613 228.218 22.0704 228.218 19.8613V4Z" fill="#FECE30"/>
<path opacity="0.1" d="M228.218 31.8381C228.218 29.629 230.009 27.8381 232.218 27.8381H295.188C297.397 27.8381 299.188 29.629 299.188 31.8381V47.6994C299.188 49.9085 297.397 51.6994 295.188 51.6994H232.218C230.009 51.6994 228.218 49.9085 228.218 47.6994V31.8381Z" fill="#FECE30"/>
<path opacity="0.1" d="M228.218 59.6763C228.218 57.4671 230.009 55.6763 232.218 55.6763H295.188C297.397 55.6763 299.188 57.4671 299.188 59.6763V75.5375C299.188 77.7467 297.397 79.5375 295.188 79.5375H232.218C230.009 79.5375 228.218 77.7467 228.218 75.5375V59.6763Z" fill="#FECE30"/>
<path opacity="0.1" d="M228.218 87.5144C228.218 85.3053 230.009 83.5144 232.218 83.5144H295.188C297.397 83.5144 299.188 85.3053 299.188 87.5144V103.376C299.188 105.585 297.397 107.376 295.188 107.376H232.218C230.009 107.376 228.218 105.585 228.218 103.376V87.5144Z" fill="#FECE30"/>
<path opacity="0.1" d="M228.218 120.324C228.218 118.115 230.009 116.324 232.218 116.324H295.188C297.397 116.324 299.188 118.115 299.188 120.324V136.185C299.188 138.394 297.397 140.185 295.188 140.185H232.218C230.009 140.185 228.218 138.394 228.218 136.185V120.324Z" fill="#FECE30"/>
<path opacity="0.1" d="M228.218 148.162C228.218 145.953 230.009 144.162 232.218 144.162H295.188C297.397 144.162 299.188 145.953 299.188 148.162V164.023C299.188 166.232 297.397 168.023 295.188 168.023H232.218C230.009 168.023 228.218 166.232 228.218 164.023V148.162Z" fill="#FECE30"/>
<path opacity="0.1" d="M303.624 4C303.624 1.79086 305.415 0 307.624 0H370.594C372.803 0 374.594 1.79086 374.594 4V19.8613C374.594 22.0704 372.803 23.8613 370.594 23.8613H307.624C305.415 23.8613 303.624 22.0704 303.624 19.8613V4Z" fill="#FECE30"/>
<path opacity="0.1" d="M303.624 31.8381C303.624 29.629 305.415 27.8381 307.624 27.8381H370.594C372.803 27.8381 374.594 29.629 374.594 31.8381V47.6994C374.594 49.9085 372.803 51.6994 370.594 51.6994H307.624C305.415 51.6994 303.624 49.9085 303.624 47.6994V31.8381Z" fill="#FECE30"/>
<path opacity="0.1" d="M303.624 59.6763C303.624 57.4671 305.415 55.6763 307.624 55.6763H370.594C372.803 55.6763 374.594 57.4671 374.594 59.6763V75.5375C374.594 77.7467 372.803 79.5375 370.594 79.5375H307.624C305.415 79.5375 303.624 77.7467 303.624 75.5375V59.6763Z" fill="#FECE30"/>
<path opacity="0.1" d="M303.624 87.5144C303.624 85.3053 305.415 83.5144 307.624 83.5144H370.594C372.803 83.5144 374.594 85.3053 374.594 87.5144V103.376C374.594 105.585 372.803 107.376 370.594 107.376H307.624C305.415 107.376 303.624 105.585 303.624 103.376V87.5144Z" fill="#FECE30"/>
<path opacity="0.1" d="M303.624 120.324C303.624 118.115 305.415 116.324 307.624 116.324H370.594C372.803 116.324 374.594 118.115 374.594 120.324V136.185C374.594 138.394 372.803 140.185 370.594 140.185H307.624C305.415 140.185 303.624 138.394 303.624 136.185V120.324Z" fill="#FECE30"/>
<path opacity="0.1" d="M303.624 148.162C303.624 145.953 305.415 144.162 307.624 144.162H370.594C372.803 144.162 374.594 145.953 374.594 148.162V164.023C374.594 166.232 372.803 168.023 370.594 168.023H307.624C305.415 168.023 303.624 166.232 303.624 164.023V148.162Z" fill="#FECE30"/>
<path opacity="0.1" d="M379.03 4C379.03 1.79086 380.821 0 383.03 0H446C448.209 0 450 1.79086 450 4V19.8613C450 22.0704 448.209 23.8613 446 23.8613H383.03C380.821 23.8613 379.03 22.0704 379.03 19.8613V4Z" fill="#FECE30"/>
<path opacity="0.1" d="M379.03 31.8381C379.03 29.629 380.821 27.8381 383.03 27.8381H446C448.209 27.8381 450 29.629 450 31.8381V47.6994C450 49.9085 448.209 51.6994 446 51.6994H383.03C380.821 51.6994 379.03 49.9085 379.03 47.6994V31.8381Z" fill="#FECE30"/>
<path opacity="0.1" d="M379.03 59.6763C379.03 57.4671 380.821 55.6763 383.03 55.6763H446C448.209 55.6763 450 57.4671 450 59.6763V75.5375C450 77.7467 448.209 79.5375 446 79.5375H383.03C380.821 79.5375 379.03 77.7467 379.03 75.5375V59.6763Z" fill="#FECE30"/>
<path opacity="0.1" d="M379.03 87.5144C379.03 85.3053 380.821 83.5144 383.03 83.5144H446C448.209 83.5144 450 85.3053 450 87.5144V103.376C450 105.585 448.209 107.376 446 107.376H383.03C380.821 107.376 379.03 105.585 379.03 103.376V87.5144Z" fill="#FECE30"/>
<path opacity="0.1" d="M379.03 120.324C379.03 118.115 380.821 116.324 383.03 116.324H446C448.209 116.324 450 118.115 450 120.324V136.185C450 138.394 448.209 140.185 446 140.185H383.03C380.821 140.185 379.03 138.394 379.03 136.185V120.324Z" fill="#FECE30"/>
<path opacity="0.1" d="M379.03 148.162C379.03 145.953 380.821 144.162 383.03 144.162H446C448.209 144.162 450 145.953 450 148.162V164.023C450 166.232 448.209 168.023 446 168.023H383.03C380.821 168.023 379.03 166.232 379.03 164.023V148.162Z" fill="#FECE30"/>
<path d="M2 109.316L72.299 60.4921C73.4833 59.6696 74.7735 59.0109 76.1343 58.534L141.258 35.7115C146.116 34.0091 151.496 34.7479 155.715 37.6967L221.244 83.4952C223.967 85.3984 227.215 86.4068 230.538 86.3802L298.293 85.8382C300.575 85.82 302.835 86.2902 304.92 87.2173L374.253 118.038C376.257 118.93 378.424 119.399 380.618 119.417L450 120" stroke="url(#paint0_linear_2815_83255)" stroke-width="4" stroke-linecap="round" stroke-linejoin="round"/>
<rect x="29" y="116" width="88" height="24" rx="4" fill="#FECE30"/>
<path d="M44.007 123.472V123.667L41.29 130.518C41.0733 131.055 40.809 131.437 40.497 131.662C40.1937 131.887 39.769 132 39.223 132H38.131V130.895H39.158C39.4007 130.895 39.5957 130.852 39.743 130.765C39.8903 130.678 40.0203 130.501 40.133 130.232L37.338 123.667V123.472H38.56L40.757 128.802L42.785 123.472H44.007ZM48.3363 125.552V126.618H45.5153V132H44.3453V125.552H48.3363ZM51.5894 132.156C50.766 132.156 50.1074 131.918 49.6134 131.441C49.1194 130.964 48.8724 130.332 48.8724 129.543V128.022C48.8724 127.225 49.1194 126.588 49.6134 126.111C50.1074 125.634 50.766 125.396 51.5894 125.396C52.4214 125.396 53.0844 125.634 53.5784 126.111C54.081 126.588 54.3324 127.225 54.3324 128.022V129.543C54.3324 130.332 54.081 130.964 53.5784 131.441C53.0844 131.918 52.4214 132.156 51.5894 132.156ZM51.6024 131.051C52.079 131.051 52.456 130.912 52.7334 130.635C53.0194 130.358 53.1624 129.985 53.1624 129.517V128.061C53.1624 127.576 53.0237 127.194 52.7464 126.917C52.469 126.64 52.0877 126.501 51.6024 126.501C51.1257 126.501 50.7444 126.64 50.4584 126.917C50.181 127.194 50.0424 127.576 50.0424 128.061V129.517C50.0424 129.994 50.181 130.371 50.4584 130.648C50.7444 130.917 51.1257 131.051 51.6024 131.051ZM62.0695 130.934V133.703H60.8865V132H56.1675V133.703H54.9975V130.934H55.8035C56.1328 130.319 56.3062 129.591 56.3235 128.75L56.3625 125.552H61.1075V130.934H62.0695ZM59.9375 130.934V126.618H57.4545L57.4155 128.802C57.3982 129.617 57.2465 130.327 56.9605 130.934H59.9375ZM68.552 132H67.382V126.618H64.899L64.834 129.673C64.8167 130.47 64.652 131.06 64.34 131.441C64.0367 131.814 63.5687 132 62.936 132H62.585V130.934H62.793C63.1137 130.934 63.3433 130.826 63.482 130.609C63.6293 130.392 63.7117 130.041 63.729 129.556L63.82 125.552H68.552V132ZM71.4001 125.552V130.141L74.4421 125.552H75.5211V132H74.3771V127.411L71.3481 132H70.2691V125.552H71.4001ZM81.6589 128.711C82.0055 128.841 82.2699 129.032 82.4519 129.283C82.6425 129.534 82.7379 129.829 82.7379 130.167V130.349C82.7379 130.869 82.5472 131.276 82.1659 131.571C81.7845 131.857 81.2212 132 80.4759 132H77.2389V125.552H80.3199C81.0739 125.552 81.6372 125.695 82.0099 125.981C82.3825 126.258 82.5689 126.661 82.5689 127.19V127.359C82.5689 127.68 82.4909 127.957 82.3349 128.191C82.1789 128.416 81.9535 128.59 81.6589 128.711ZM78.4089 126.501V128.282H80.3979C80.7099 128.282 80.9525 128.208 81.1259 128.061C81.3079 127.905 81.3989 127.701 81.3989 127.45V127.307C81.3989 127.056 81.3079 126.861 81.1259 126.722C80.9525 126.575 80.7055 126.501 80.3849 126.501H78.4089ZM81.5679 130.05C81.5679 129.781 81.4769 129.578 81.2949 129.439C81.1129 129.292 80.8572 129.218 80.5279 129.218H78.4089V131.051H80.5409C80.8529 131.051 81.0999 130.977 81.2819 130.83C81.4725 130.674 81.5679 130.466 81.5679 130.206V130.05ZM86.6538 132.156C85.8305 132.156 85.1718 131.918 84.6778 131.441C84.1838 130.964 83.9368 130.332 83.9368 129.543V128.022C83.9368 127.225 84.1838 126.588 84.6778 126.111C85.1718 125.634 85.8305 125.396 86.6538 125.396C87.4858 125.396 88.1488 125.634 88.6428 126.111C89.1455 126.588 89.3968 127.225 89.3968 128.022V129.543C89.3968 130.332 89.1455 130.964 88.6428 131.441C88.1488 131.918 87.4858 132.156 86.6538 132.156ZM86.6668 131.051C87.1435 131.051 87.5205 130.912 87.7978 130.635C88.0838 130.358 88.2268 129.985 88.2268 129.517V128.061C88.2268 127.576 88.0881 127.194 87.8108 126.917C87.5335 126.64 87.1521 126.501 86.6668 126.501C86.1901 126.501 85.8088 126.64 85.5228 126.917C85.2455 127.194 85.1068 127.576 85.1068 128.061V129.517C85.1068 129.994 85.2455 130.371 85.5228 130.648C85.8088 130.917 86.1901 131.051 86.6668 131.051ZM93.4083 132.156C92.8623 132.156 92.3813 132.048 91.9653 131.831C91.5493 131.614 91.2287 131.311 91.0033 130.921C90.778 130.522 90.6653 130.063 90.6653 129.543V128.009C90.6653 127.489 90.778 127.034 91.0033 126.644C91.2287 126.245 91.5493 125.938 91.9653 125.721C92.3813 125.504 92.8623 125.396 93.4083 125.396C93.9197 125.396 94.3747 125.504 94.7733 125.721C95.1807 125.929 95.497 126.219 95.7223 126.592C95.9477 126.965 96.0603 127.389 96.0603 127.866V128.009H94.8903V127.866C94.8903 127.467 94.7517 127.142 94.4743 126.891C94.197 126.631 93.8417 126.501 93.4083 126.501C92.923 126.501 92.5417 126.64 92.2643 126.917C91.987 127.186 91.8483 127.558 91.8483 128.035V129.517C91.8483 129.994 91.987 130.371 92.2643 130.648C92.5417 130.917 92.923 131.051 93.4083 131.051C93.8417 131.051 94.197 130.93 94.4743 130.687C94.7517 130.436 94.8903 130.115 94.8903 129.725V129.582H96.0603V129.725C96.0603 130.453 95.8177 131.042 95.3323 131.493C94.847 131.935 94.2057 132.156 93.4083 132.156ZM96.5951 126.618V125.552H102.068V126.618H99.9231V132H98.7401V126.618H96.5951ZM106.272 127.788C106.956 127.788 107.502 127.974 107.91 128.347C108.317 128.72 108.521 129.214 108.521 129.829V129.959C108.521 130.574 108.317 131.068 107.91 131.441C107.502 131.814 106.956 132 106.272 132H103.074V125.552H104.244V127.788H106.272ZM107.351 129.842C107.351 129.53 107.251 129.287 107.052 129.114C106.852 128.941 106.575 128.854 106.22 128.854H104.244V130.934H106.22C106.575 130.934 106.852 130.852 107.052 130.687C107.251 130.514 107.351 130.267 107.351 129.946V129.842Z" fill="#261E1E"/>
<g opacity="0.75">
<rect x="153" y="96" width="130" height="24" rx="4" fill="#FECE30"/>
<path d="M165.056 112.156C164.406 112.156 163.834 112.026 163.34 111.766C162.846 111.506 162.46 111.138 162.183 110.661C161.914 110.184 161.78 109.638 161.78 109.023V106.475C161.78 105.851 161.914 105.301 162.183 104.824C162.46 104.347 162.846 103.979 163.34 103.719C163.834 103.45 164.406 103.316 165.056 103.316C165.68 103.316 166.235 103.446 166.72 103.706C167.214 103.957 167.595 104.313 167.864 104.772C168.141 105.223 168.28 105.743 168.28 106.332V106.644H167.071V106.332C167.071 105.743 166.889 105.283 166.525 104.954C166.17 104.616 165.676 104.447 165.043 104.447C164.393 104.447 163.89 104.629 163.535 104.993C163.18 105.348 163.002 105.855 163.002 106.514V108.971C163.002 109.63 163.18 110.137 163.535 110.492C163.89 110.847 164.393 111.025 165.043 111.025C165.676 111.025 166.17 110.86 166.525 110.531C166.889 110.193 167.071 109.729 167.071 109.14V108.815H168.28V109.14C168.28 109.729 168.141 110.254 167.864 110.713C167.595 111.164 167.214 111.519 166.72 111.779C166.235 112.03 165.68 112.156 165.056 112.156ZM171.013 105.565V108.23H173.99V105.565H175.173V112H173.99V109.296H171.013V112H169.843V105.565H171.013ZM178.02 105.552V110.141L181.062 105.552H182.141V112H180.997V107.411L177.968 112H176.889V105.552H178.02ZM186.381 112.156C185.835 112.156 185.354 112.048 184.938 111.831C184.522 111.614 184.201 111.311 183.976 110.921C183.751 110.522 183.638 110.063 183.638 109.543V108.009C183.638 107.489 183.751 107.034 183.976 106.644C184.201 106.245 184.522 105.938 184.938 105.721C185.354 105.504 185.835 105.396 186.381 105.396C186.892 105.396 187.347 105.504 187.746 105.721C188.153 105.929 188.47 106.219 188.695 106.592C188.92 106.965 189.033 107.389 189.033 107.866V108.009H187.863V107.866C187.863 107.467 187.724 107.142 187.447 106.891C187.17 106.631 186.814 106.501 186.381 106.501C185.896 106.501 185.514 106.64 185.237 106.917C184.96 107.186 184.821 107.558 184.821 108.035V109.517C184.821 109.994 184.96 110.371 185.237 110.648C185.514 110.917 185.896 111.051 186.381 111.051C186.814 111.051 187.17 110.93 187.447 110.687C187.724 110.436 187.863 110.115 187.863 109.725V109.582H189.033V109.725C189.033 110.453 188.79 111.042 188.305 111.493C187.82 111.935 187.178 112.156 186.381 112.156ZM195.345 111.818V112H194.071L192.459 109.608L190.847 112H189.573V111.818L191.692 108.75L189.625 105.734V105.552H190.899L192.459 107.879L194.019 105.552H195.293V105.734L193.213 108.75L195.345 111.818ZM198.644 112.156C197.821 112.156 197.162 111.918 196.668 111.441C196.174 110.964 195.927 110.332 195.927 109.543V108.022C195.927 107.225 196.174 106.588 196.668 106.111C197.162 105.634 197.821 105.396 198.644 105.396C199.476 105.396 200.139 105.634 200.633 106.111C201.136 106.588 201.387 107.225 201.387 108.022V109.543C201.387 110.332 201.136 110.964 200.633 111.441C200.139 111.918 199.476 112.156 198.644 112.156ZM198.657 111.051C199.134 111.051 199.511 110.912 199.788 110.635C200.074 110.358 200.217 109.985 200.217 109.517V108.061C200.217 107.576 200.078 107.194 199.801 106.917C199.524 106.64 199.142 106.501 198.657 106.501C198.18 106.501 197.799 106.64 197.513 106.917C197.236 107.194 197.097 107.576 197.097 108.061V109.517C197.097 109.994 197.236 110.371 197.513 110.648C197.799 110.917 198.18 111.051 198.657 111.051ZM209.124 110.934V113.703H207.941V112H203.222V113.703H202.052V110.934H202.858C203.188 110.319 203.361 109.591 203.378 108.75L203.417 105.552H208.162V110.934H209.124ZM206.992 110.934V106.618H204.509L204.47 108.802C204.453 109.617 204.301 110.327 204.015 110.934H206.992ZM211.371 105.552V110.141L214.413 105.552H215.492V112H214.348V107.411L211.319 112H210.24V105.552H211.371ZM216.177 106.618V105.552H221.65V106.618H219.505V112H218.322V106.618H216.177ZM223.402 109.205V109.517C223.402 110.002 223.54 110.384 223.818 110.661C224.104 110.93 224.494 111.064 224.988 111.064C225.404 111.064 225.75 110.96 226.028 110.752C226.314 110.544 226.461 110.288 226.47 109.985H227.64C227.605 110.626 227.345 111.151 226.86 111.558C226.374 111.957 225.75 112.156 224.988 112.156C224.156 112.156 223.488 111.922 222.986 111.454C222.483 110.977 222.232 110.345 222.232 109.556V108.009C222.232 107.489 222.344 107.034 222.57 106.644C222.795 106.245 223.116 105.938 223.532 105.721C223.948 105.504 224.424 105.396 224.962 105.396C225.776 105.396 226.426 105.634 226.912 106.111C227.397 106.588 227.64 107.216 227.64 107.996V109.205H223.402ZM224.962 106.488C224.485 106.488 224.104 106.631 223.818 106.917C223.54 107.194 223.402 107.571 223.402 108.048V108.23H226.47V108.048C226.47 107.571 226.331 107.194 226.054 106.917C225.785 106.631 225.421 106.488 224.962 106.488ZM234.32 112H233.15V106.618H230.667L230.602 109.673C230.584 110.47 230.42 111.06 230.108 111.441C229.804 111.814 229.336 112 228.704 112H228.353V110.934H228.561C228.881 110.934 229.111 110.826 229.25 110.609C229.397 110.392 229.479 110.041 229.497 109.556L229.588 105.552H234.32V112ZM239.235 107.788C239.919 107.788 240.465 107.974 240.873 108.347C241.28 108.72 241.484 109.214 241.484 109.829V109.959C241.484 110.574 241.28 111.068 240.873 111.441C240.465 111.814 239.919 112 239.235 112H236.037V105.552H237.207V107.788H239.235ZM240.314 109.842C240.314 109.53 240.214 109.287 240.015 109.114C239.815 108.941 239.538 108.854 239.183 108.854H237.207V110.934H239.183C239.538 110.934 239.815 110.852 240.015 110.687C240.214 110.514 240.314 110.267 240.314 109.946V109.842ZM243.948 105.565V108.23H246.925V105.565H248.108V112H246.925V109.296H243.948V112H242.778V105.565H243.948ZM252.32 112.156C251.496 112.156 250.838 111.918 250.344 111.441C249.85 110.964 249.603 110.332 249.603 109.543V108.022C249.603 107.225 249.85 106.588 250.344 106.111C250.838 105.634 251.496 105.396 252.32 105.396C253.152 105.396 253.815 105.634 254.309 106.111C254.811 106.588 255.063 107.225 255.063 108.022V109.543C255.063 110.332 254.811 110.964 254.309 111.441C253.815 111.918 253.152 112.156 252.32 112.156ZM252.333 111.051C252.809 111.051 253.186 110.912 253.464 110.635C253.75 110.358 253.893 109.985 253.893 109.517V108.061C253.893 107.576 253.754 107.194 253.477 106.917C253.199 106.64 252.818 106.501 252.333 106.501C251.856 106.501 251.475 106.64 251.189 106.917C250.911 107.194 250.773 107.576 250.773 108.061V109.517C250.773 109.994 250.911 110.371 251.189 110.648C251.475 110.917 251.856 111.051 252.333 111.051ZM259.074 112.156C258.528 112.156 258.047 112.048 257.631 111.831C257.215 111.614 256.895 111.311 256.669 110.921C256.444 110.522 256.331 110.063 256.331 109.543V108.009C256.331 107.489 256.444 107.034 256.669 106.644C256.895 106.245 257.215 105.938 257.631 105.721C258.047 105.504 258.528 105.396 259.074 105.396C259.586 105.396 260.041 105.504 260.439 105.721C260.847 105.929 261.163 106.219 261.388 106.592C261.614 106.965 261.726 107.389 261.726 107.866V108.009H260.556V107.866C260.556 107.467 260.418 107.142 260.14 106.891C259.863 106.631 259.508 106.501 259.074 106.501C258.589 106.501 258.208 106.64 257.93 106.917C257.653 107.186 257.514 107.558 257.514 108.035V109.517C257.514 109.994 257.653 110.371 257.93 110.648C258.208 110.917 258.589 111.051 259.074 111.051C259.508 111.051 259.863 110.93 260.14 110.687C260.418 110.436 260.556 110.115 260.556 109.725V109.582H261.726V109.725C261.726 110.453 261.484 111.042 260.998 111.493C260.513 111.935 259.872 112.156 259.074 112.156ZM262.261 106.618V105.552H267.734V106.618H265.589V112H264.406V106.618H262.261ZM271.938 107.788C272.623 107.788 273.169 107.974 273.576 108.347C273.983 108.72 274.187 109.214 274.187 109.829V109.959C274.187 110.574 273.983 111.068 273.576 111.441C273.169 111.814 272.623 112 271.938 112H268.74V105.552H269.91V107.788H271.938ZM273.017 109.842C273.017 109.53 272.917 109.287 272.718 109.114C272.519 108.941 272.241 108.854 271.886 108.854H269.91V110.934H271.886C272.241 110.934 272.519 110.852 272.718 110.687C272.917 110.514 273.017 110.267 273.017 109.946V109.842Z" fill="#261E1E"/>
</g>
<g opacity="0.7">
<rect x="316" y="37" width="125" height="24" rx="4" fill="#FECE30"/>
<path d="M326.132 44.472V48.19H329.616V44.472H330.838V53H329.616V49.295H326.132V53H324.91V44.472H326.132ZM333.551 50.205V50.517C333.551 51.0023 333.69 51.3837 333.967 51.661C334.253 51.9297 334.643 52.064 335.137 52.064C335.553 52.064 335.9 51.96 336.177 51.752C336.463 51.544 336.61 51.2883 336.619 50.985H337.789C337.754 51.6263 337.494 52.1507 337.009 52.558C336.524 52.9567 335.9 53.156 335.137 53.156C334.305 53.156 333.638 52.922 333.135 52.454C332.632 51.9773 332.381 51.3447 332.381 50.556V49.009C332.381 48.489 332.494 48.034 332.719 47.644C332.944 47.2453 333.265 46.9377 333.681 46.721C334.097 46.5043 334.574 46.396 335.111 46.396C335.926 46.396 336.576 46.6343 337.061 47.111C337.546 47.5877 337.789 48.216 337.789 48.996V50.205H333.551ZM335.111 47.488C334.634 47.488 334.253 47.631 333.967 47.917C333.69 48.1943 333.551 48.5713 333.551 49.048V49.23H336.619V49.048C336.619 48.5713 336.48 48.1943 336.203 47.917C335.934 47.631 335.57 47.488 335.111 47.488ZM341.776 53.156C340.953 53.156 340.294 52.9177 339.8 52.441C339.306 51.9643 339.059 51.3317 339.059 50.543V49.022C339.059 48.2247 339.306 47.5877 339.8 47.111C340.294 46.6343 340.953 46.396 341.776 46.396C342.608 46.396 343.271 46.6343 343.765 47.111C344.268 47.5877 344.519 48.2247 344.519 49.022V50.543C344.519 51.3317 344.268 51.9643 343.765 52.441C343.271 52.9177 342.608 53.156 341.776 53.156ZM341.789 52.051C342.266 52.051 342.643 51.9123 342.92 51.635C343.206 51.3577 343.349 50.985 343.349 50.517V49.061C343.349 48.5757 343.21 48.1943 342.933 47.917C342.656 47.6397 342.274 47.501 341.789 47.501C341.312 47.501 340.931 47.6397 340.645 47.917C340.368 48.1943 340.229 48.5757 340.229 49.061V50.517C340.229 50.9937 340.368 51.3707 340.645 51.648C340.931 51.9167 341.312 52.051 341.789 52.051ZM351.299 46.552V53H350.116V47.618H347.178V53H346.008V46.552H351.299ZM355.954 46.396C356.708 46.396 357.311 46.63 357.761 47.098C358.212 47.5573 358.437 48.1727 358.437 48.944V50.608C358.437 51.3793 358.212 51.999 357.761 52.467C357.311 52.9263 356.708 53.156 355.954 53.156C355.235 53.156 354.646 52.9393 354.186 52.506V55.21H353.016V46.552H354.069L354.121 47.098C354.589 46.63 355.2 46.396 355.954 46.396ZM357.254 48.996C357.254 48.5367 357.116 48.1727 356.838 47.904C356.57 47.6353 356.201 47.501 355.733 47.501C355.395 47.501 355.088 47.579 354.81 47.735C354.542 47.8823 354.334 48.0903 354.186 48.359V51.206C354.334 51.466 354.542 51.674 354.81 51.83C355.079 51.9773 355.387 52.051 355.733 52.051C356.201 52.051 356.57 51.9167 356.838 51.648C357.116 51.3793 357.254 51.0153 357.254 50.556V48.996ZM360.871 50.205V50.517C360.871 51.0023 361.01 51.3837 361.287 51.661C361.573 51.9297 361.963 52.064 362.457 52.064C362.873 52.064 363.22 51.96 363.497 51.752C363.783 51.544 363.931 51.2883 363.939 50.985H365.109C365.075 51.6263 364.815 52.1507 364.329 52.558C363.844 52.9567 363.22 53.156 362.457 53.156C361.625 53.156 360.958 52.922 360.455 52.454C359.953 51.9773 359.701 51.3447 359.701 50.556V49.009C359.701 48.489 359.814 48.034 360.039 47.644C360.265 47.2453 360.585 46.9377 361.001 46.721C361.417 46.5043 361.894 46.396 362.431 46.396C363.246 46.396 363.896 46.6343 364.381 47.111C364.867 47.5877 365.109 48.216 365.109 48.996V50.205H360.871ZM362.431 47.488C361.955 47.488 361.573 47.631 361.287 47.917C361.01 48.1943 360.871 48.5713 360.871 49.048V49.23H363.939V49.048C363.939 48.5713 363.801 48.1943 363.523 47.917C363.255 47.631 362.891 47.488 362.431 47.488ZM372.848 51.934V54.703H371.665V53H366.946V54.703H365.776V51.934H366.582C366.911 51.3187 367.084 50.5907 367.102 49.75L367.141 46.552H371.886V51.934H372.848ZM370.716 51.934V47.618H368.233L368.194 49.802C368.176 50.6167 368.025 51.3273 367.739 51.934H370.716ZM374.709 50.205V50.517C374.709 51.0023 374.848 51.3837 375.125 51.661C375.411 51.9297 375.801 52.064 376.295 52.064C376.711 52.064 377.058 51.96 377.335 51.752C377.621 51.544 377.769 51.2883 377.777 50.985H378.947C378.913 51.6263 378.653 52.1507 378.167 52.558C377.682 52.9567 377.058 53.156 376.295 53.156C375.463 53.156 374.796 52.922 374.293 52.454C373.791 51.9773 373.539 51.3447 373.539 50.556V49.009C373.539 48.489 373.652 48.034 373.877 47.644C374.103 47.2453 374.423 46.9377 374.839 46.721C375.255 46.5043 375.732 46.396 376.269 46.396C377.084 46.396 377.734 46.6343 378.219 47.111C378.705 47.5877 378.947 48.216 378.947 48.996V50.205H374.709ZM376.269 47.488C375.793 47.488 375.411 47.631 375.125 47.917C374.848 48.1943 374.709 48.5713 374.709 49.048V49.23H377.777V49.048C377.777 48.5713 377.639 48.1943 377.361 47.917C377.093 47.631 376.729 47.488 376.269 47.488ZM385.627 53H384.457V47.618H381.974L381.909 50.673C381.892 51.4703 381.727 52.0597 381.415 52.441C381.112 52.8137 380.644 53 380.011 53H379.66V51.934H379.868C380.189 51.934 380.419 51.8257 380.557 51.609C380.705 51.3923 380.787 51.0413 380.804 50.556L380.895 46.552H385.627V53ZM388.293 50.205V50.517C388.293 51.0023 388.432 51.3837 388.709 51.661C388.995 51.9297 389.385 52.064 389.879 52.064C390.295 52.064 390.642 51.96 390.919 51.752C391.205 51.544 391.353 51.2883 391.361 50.985H392.531C392.497 51.6263 392.237 52.1507 391.751 52.558C391.266 52.9567 390.642 53.156 389.879 53.156C389.047 53.156 388.38 52.922 387.877 52.454C387.375 51.9773 387.123 51.3447 387.123 50.556V49.009C387.123 48.489 387.236 48.034 387.461 47.644C387.687 47.2453 388.007 46.9377 388.423 46.721C388.839 46.5043 389.316 46.396 389.853 46.396C390.668 46.396 391.318 46.6343 391.803 47.111C392.289 47.5877 392.531 48.216 392.531 48.996V50.205H388.293ZM389.853 47.488C389.377 47.488 388.995 47.631 388.709 47.917C388.432 48.1943 388.293 48.5713 388.293 49.048V49.23H391.361V49.048C391.361 48.5713 391.223 48.1943 390.945 47.917C390.677 47.631 390.313 47.488 389.853 47.488ZM395.192 46.565V49.23H398.169V46.565H399.352V53H398.169V50.296H395.192V53H394.022V46.565H395.192ZM402.238 46.565V49.23H405.215V46.565H406.398V53H405.215V50.296H402.238V53H401.068V46.565H402.238ZM410.61 53.156C409.787 53.156 409.128 52.9177 408.634 52.441C408.14 51.9643 407.893 51.3317 407.893 50.543V49.022C407.893 48.2247 408.14 47.5877 408.634 47.111C409.128 46.6343 409.787 46.396 410.61 46.396C411.442 46.396 412.105 46.6343 412.599 47.111C413.102 47.5877 413.353 48.2247 413.353 49.022V50.543C413.353 51.3317 413.102 51.9643 412.599 52.441C412.105 52.9177 411.442 53.156 410.61 53.156ZM410.623 52.051C411.1 52.051 411.477 51.9123 411.754 51.635C412.04 51.3577 412.183 50.985 412.183 50.517V49.061C412.183 48.5757 412.044 48.1943 411.767 47.917C411.49 47.6397 411.108 47.501 410.623 47.501C410.146 47.501 409.765 47.6397 409.479 47.917C409.202 48.1943 409.063 48.5757 409.063 49.061V50.517C409.063 50.9937 409.202 51.3707 409.479 51.648C409.765 51.9167 410.146 52.051 410.623 52.051ZM417.364 53.156C416.818 53.156 416.337 53.0477 415.921 52.831C415.505 52.6143 415.185 52.311 414.959 51.921C414.734 51.5223 414.621 51.063 414.621 50.543V49.009C414.621 48.489 414.734 48.034 414.959 47.644C415.185 47.2453 415.505 46.9377 415.921 46.721C416.337 46.5043 416.818 46.396 417.364 46.396C417.876 46.396 418.331 46.5043 418.729 46.721C419.137 46.929 419.453 47.2193 419.678 47.592C419.904 47.9647 420.016 48.3893 420.016 48.866V49.009H418.846V48.866C418.846 48.4673 418.708 48.1423 418.43 47.891C418.153 47.631 417.798 47.501 417.364 47.501C416.879 47.501 416.498 47.6397 416.22 47.917C415.943 48.1857 415.804 48.5583 415.804 49.035V50.517C415.804 50.9937 415.943 51.3707 416.22 51.648C416.498 51.9167 416.879 52.051 417.364 52.051C417.798 52.051 418.153 51.9297 418.43 51.687C418.708 51.4357 418.846 51.115 418.846 50.725V50.582H420.016V50.725C420.016 51.453 419.774 52.0423 419.288 52.493C418.803 52.935 418.162 53.156 417.364 53.156ZM420.551 47.618V46.552H426.024V47.618H423.879V53H422.696V47.618H420.551ZM430.228 48.788C430.913 48.788 431.459 48.9743 431.866 49.347C432.273 49.7197 432.477 50.2137 432.477 50.829V50.959C432.477 51.5743 432.273 52.0683 431.866 52.441C431.459 52.8137 430.913 53 430.228 53H427.03V46.552H428.2V48.788H430.228ZM431.307 50.842C431.307 50.53 431.207 50.2873 431.008 50.114C430.809 49.9407 430.531 49.854 430.176 49.854H428.2V51.934H430.176C430.531 51.934 430.809 51.8517 431.008 51.687C431.207 51.5137 431.307 51.2667 431.307 50.946V50.842Z" fill="#261E1E"/>
</g>
<defs>
<linearGradient id="paint0_linear_2815_83255" x1="448.531" y1="36.4014" x2="-0.937705" y2="36.4014" gradientUnits="userSpaceOnUse">
<stop stop-color="#FECE30" stop-opacity="0"/>
<stop offset="0.302083" stop-color="#FECE30"/>
</linearGradient>
</defs>
</svg>
