<svg width="458" height="172" viewBox="0 0 458 172" fill="none" xmlns="http://www.w3.org/2000/svg">
<line opacity="0.1" x1="2" y1="111.847" x2="450" y2="111.847" stroke="#966F7B"/>
<path opacity="0.1" d="M2 4C2 1.79086 3.79086 0 6 0H68.9703C71.1794 0 72.9703 1.79086 72.9703 4V19.8613C72.9703 22.0704 71.1794 23.8613 68.9703 23.8613H6C3.79087 23.8613 2 22.0704 2 19.8613V4Z" fill="#F6C0B1"/>
<path opacity="0.1" d="M2 31.8381C2 29.629 3.79086 27.8381 6 27.8381H68.9703C71.1794 27.8381 72.9703 29.629 72.9703 31.8381V47.6994C72.9703 49.9085 71.1794 51.6994 68.9703 51.6994H6C3.79087 51.6994 2 49.9085 2 47.6994V31.8381Z" fill="#F6C0B1"/>
<path opacity="0.1" d="M2 59.6763C2 57.4671 3.79086 55.6763 6 55.6763H68.9703C71.1794 55.6763 72.9703 57.4671 72.9703 59.6763V75.5375C72.9703 77.7467 71.1794 79.5375 68.9703 79.5375H6C3.79087 79.5375 2 77.7467 2 75.5375V59.6763Z" fill="#F6C0B1"/>
<path opacity="0.1" d="M2 87.5144C2 85.3053 3.79086 83.5144 6 83.5144H68.9703C71.1794 83.5144 72.9703 85.3053 72.9703 87.5144V103.376C72.9703 105.585 71.1794 107.376 68.9703 107.376H6C3.79087 107.376 2 105.585 2 103.376V87.5144Z" fill="#F6C0B1"/>
<path opacity="0.1" d="M2 120.324C2 118.115 3.79086 116.324 6 116.324H68.9703C71.1794 116.324 72.9703 118.115 72.9703 120.324V136.185C72.9703 138.394 71.1794 140.185 68.9703 140.185H6C3.79087 140.185 2 138.394 2 136.185V120.324Z" fill="#F6C0B1"/>
<path opacity="0.1" d="M2 148.162C2 145.953 3.79086 144.162 6 144.162H68.9703C71.1794 144.162 72.9703 145.953 72.9703 148.162V164.023C72.9703 166.232 71.1794 168.023 68.9703 168.023H6C3.79087 168.023 2 166.232 2 164.023V148.162Z" fill="#F6C0B1"/>
<path opacity="0.1" d="M77.4062 4C77.4062 1.79086 79.1971 0 81.4063 0H144.377C146.586 0 148.377 1.79086 148.377 4V19.8613C148.377 22.0704 146.586 23.8613 144.377 23.8613H81.4063C79.1971 23.8613 77.4062 22.0704 77.4062 19.8613V4Z" fill="#F6C0B1"/>
<path opacity="0.1" d="M77.4062 31.8381C77.4062 29.629 79.1971 27.8381 81.4063 27.8381H144.377C146.586 27.8381 148.377 29.629 148.377 31.8381V47.6994C148.377 49.9085 146.586 51.6994 144.377 51.6994H81.4063C79.1971 51.6994 77.4062 49.9085 77.4062 47.6994V31.8381Z" fill="#F6C0B1"/>
<path opacity="0.1" d="M77.4062 59.6763C77.4062 57.4671 79.1971 55.6763 81.4063 55.6763H144.377C146.586 55.6763 148.377 57.4671 148.377 59.6763V75.5375C148.377 77.7467 146.586 79.5375 144.377 79.5375H81.4063C79.1971 79.5375 77.4062 77.7467 77.4062 75.5375V59.6763Z" fill="#F6C0B1"/>
<path opacity="0.1" d="M77.4062 87.5144C77.4062 85.3053 79.1971 83.5144 81.4063 83.5144H144.377C146.586 83.5144 148.377 85.3053 148.377 87.5144V103.376C148.377 105.585 146.586 107.376 144.377 107.376H81.4063C79.1971 107.376 77.4062 105.585 77.4062 103.376V87.5144Z" fill="#F6C0B1"/>
<path opacity="0.1" d="M77.4062 120.324C77.4062 118.115 79.1971 116.324 81.4063 116.324H144.377C146.586 116.324 148.377 118.115 148.377 120.324V136.185C148.377 138.394 146.586 140.185 144.377 140.185H81.4063C79.1971 140.185 77.4062 138.394 77.4062 136.185V120.324Z" fill="#F6C0B1"/>
<path opacity="0.1" d="M77.4062 148.162C77.4062 145.953 79.1971 144.162 81.4063 144.162H144.377C146.586 144.162 148.377 145.953 148.377 148.162V164.023C148.377 166.232 146.586 168.023 144.377 168.023H81.4063C79.1971 168.023 77.4062 166.232 77.4062 164.023V148.162Z" fill="#F6C0B1"/>
<path opacity="0.1" d="M152.812 4C152.812 1.79086 154.602 0 156.812 0H219.782C221.991 0 223.782 1.79086 223.782 4V19.8613C223.782 22.0704 221.991 23.8613 219.782 23.8613H156.812C154.602 23.8613 152.812 22.0704 152.812 19.8613V4Z" fill="#F6C0B1"/>
<path opacity="0.1" d="M152.812 31.8381C152.812 29.629 154.602 27.8381 156.812 27.8381H219.782C221.991 27.8381 223.782 29.629 223.782 31.8381V47.6994C223.782 49.9085 221.991 51.6994 219.782 51.6994H156.812C154.602 51.6994 152.812 49.9085 152.812 47.6994V31.8381Z" fill="#F6C0B1"/>
<path opacity="0.1" d="M152.812 59.6763C152.812 57.4671 154.602 55.6763 156.812 55.6763H219.782C221.991 55.6763 223.782 57.4671 223.782 59.6763V75.5375C223.782 77.7467 221.991 79.5375 219.782 79.5375H156.812C154.602 79.5375 152.812 77.7467 152.812 75.5375V59.6763Z" fill="#F6C0B1"/>
<path opacity="0.1" d="M152.812 87.5144C152.812 85.3053 154.602 83.5144 156.812 83.5144H219.782C221.991 83.5144 223.782 85.3053 223.782 87.5144V103.376C223.782 105.585 221.991 107.376 219.782 107.376H156.812C154.602 107.376 152.812 105.585 152.812 103.376V87.5144Z" fill="#F6C0B1"/>
<path opacity="0.1" d="M152.812 120.324C152.812 118.115 154.602 116.324 156.812 116.324H219.782C221.991 116.324 223.782 118.115 223.782 120.324V136.185C223.782 138.394 221.991 140.185 219.782 140.185H156.812C154.602 140.185 152.812 138.394 152.812 136.185V120.324Z" fill="#F6C0B1"/>
<path opacity="0.1" d="M152.812 148.162C152.812 145.953 154.602 144.162 156.812 144.162H219.782C221.991 144.162 223.782 145.953 223.782 148.162V164.023C223.782 166.232 221.991 168.023 219.782 168.023H156.812C154.602 168.023 152.812 166.232 152.812 164.023V148.162Z" fill="#F6C0B1"/>
<path opacity="0.1" d="M228.218 4C228.218 1.79086 230.009 0 232.218 0H295.188C297.397 0 299.188 1.79086 299.188 4V19.8613C299.188 22.0704 297.397 23.8613 295.188 23.8613H232.218C230.009 23.8613 228.218 22.0704 228.218 19.8613V4Z" fill="#F6C0B1"/>
<path opacity="0.1" d="M228.218 31.8381C228.218 29.629 230.009 27.8381 232.218 27.8381H295.188C297.397 27.8381 299.188 29.629 299.188 31.8381V47.6994C299.188 49.9085 297.397 51.6994 295.188 51.6994H232.218C230.009 51.6994 228.218 49.9085 228.218 47.6994V31.8381Z" fill="#F6C0B1"/>
<path opacity="0.1" d="M228.218 59.6763C228.218 57.4671 230.009 55.6763 232.218 55.6763H295.188C297.397 55.6763 299.188 57.4671 299.188 59.6763V75.5375C299.188 77.7467 297.397 79.5375 295.188 79.5375H232.218C230.009 79.5375 228.218 77.7467 228.218 75.5375V59.6763Z" fill="#F6C0B1"/>
<path opacity="0.1" d="M228.218 87.5144C228.218 85.3053 230.009 83.5144 232.218 83.5144H295.188C297.397 83.5144 299.188 85.3053 299.188 87.5144V103.376C299.188 105.585 297.397 107.376 295.188 107.376H232.218C230.009 107.376 228.218 105.585 228.218 103.376V87.5144Z" fill="#F6C0B1"/>
<path opacity="0.1" d="M228.218 120.324C228.218 118.115 230.009 116.324 232.218 116.324H295.188C297.397 116.324 299.188 118.115 299.188 120.324V136.185C299.188 138.394 297.397 140.185 295.188 140.185H232.218C230.009 140.185 228.218 138.394 228.218 136.185V120.324Z" fill="#F6C0B1"/>
<path opacity="0.1" d="M228.218 148.162C228.218 145.953 230.009 144.162 232.218 144.162H295.188C297.397 144.162 299.188 145.953 299.188 148.162V164.023C299.188 166.232 297.397 168.023 295.188 168.023H232.218C230.009 168.023 228.218 166.232 228.218 164.023V148.162Z" fill="#F6C0B1"/>
<path opacity="0.1" d="M303.624 4C303.624 1.79086 305.415 0 307.624 0H370.594C372.803 0 374.594 1.79086 374.594 4V19.8613C374.594 22.0704 372.803 23.8613 370.594 23.8613H307.624C305.415 23.8613 303.624 22.0704 303.624 19.8613V4Z" fill="#F6C0B1"/>
<path opacity="0.1" d="M303.624 31.8381C303.624 29.629 305.415 27.8381 307.624 27.8381H370.594C372.803 27.8381 374.594 29.629 374.594 31.8381V47.6994C374.594 49.9085 372.803 51.6994 370.594 51.6994H307.624C305.415 51.6994 303.624 49.9085 303.624 47.6994V31.8381Z" fill="#F6C0B1"/>
<path opacity="0.1" d="M303.624 59.6763C303.624 57.4671 305.415 55.6763 307.624 55.6763H370.594C372.803 55.6763 374.594 57.4671 374.594 59.6763V75.5375C374.594 77.7467 372.803 79.5375 370.594 79.5375H307.624C305.415 79.5375 303.624 77.7467 303.624 75.5375V59.6763Z" fill="#F6C0B1"/>
<path opacity="0.1" d="M303.624 87.5144C303.624 85.3053 305.415 83.5144 307.624 83.5144H370.594C372.803 83.5144 374.594 85.3053 374.594 87.5144V103.376C374.594 105.585 372.803 107.376 370.594 107.376H307.624C305.415 107.376 303.624 105.585 303.624 103.376V87.5144Z" fill="#F6C0B1"/>
<path opacity="0.1" d="M303.624 120.324C303.624 118.115 305.415 116.324 307.624 116.324H370.594C372.803 116.324 374.594 118.115 374.594 120.324V136.185C374.594 138.394 372.803 140.185 370.594 140.185H307.624C305.415 140.185 303.624 138.394 303.624 136.185V120.324Z" fill="#F6C0B1"/>
<path opacity="0.1" d="M303.624 148.162C303.624 145.953 305.415 144.162 307.624 144.162H370.594C372.803 144.162 374.594 145.953 374.594 148.162V164.023C374.594 166.232 372.803 168.023 370.594 168.023H307.624C305.415 168.023 303.624 166.232 303.624 164.023V148.162Z" fill="#F6C0B1"/>
<path opacity="0.1" d="M379.029 4C379.029 1.79086 380.82 0 383.029 0H446C448.209 0 450 1.79086 450 4V19.8613C450 22.0704 448.209 23.8613 446 23.8613H383.029C380.82 23.8613 379.029 22.0704 379.029 19.8613V4Z" fill="#F6C0B1"/>
<path opacity="0.1" d="M379.029 31.8381C379.029 29.629 380.82 27.8381 383.029 27.8381H446C448.209 27.8381 450 29.629 450 31.8381V47.6994C450 49.9085 448.209 51.6994 446 51.6994H383.029C380.82 51.6994 379.029 49.9085 379.029 47.6994V31.8381Z" fill="#F6C0B1"/>
<path opacity="0.1" d="M379.029 59.6763C379.029 57.4671 380.82 55.6763 383.029 55.6763H446C448.209 55.6763 450 57.4671 450 59.6763V75.5375C450 77.7467 448.209 79.5375 446 79.5375H383.029C380.82 79.5375 379.029 77.7467 379.029 75.5375V59.6763Z" fill="#F6C0B1"/>
<path opacity="0.1" d="M379.029 87.5144C379.029 85.3053 380.82 83.5144 383.029 83.5144H446C448.209 83.5144 450 85.3053 450 87.5144V103.376C450 105.585 448.209 107.376 446 107.376H383.029C380.82 107.376 379.029 105.585 379.029 103.376V87.5144Z" fill="#F6C0B1"/>
<path opacity="0.1" d="M379.029 120.324C379.029 118.115 380.82 116.324 383.029 116.324H446C448.209 116.324 450 118.115 450 120.324V136.185C450 138.394 448.209 140.185 446 140.185H383.029C380.82 140.185 379.029 138.394 379.029 136.185V120.324Z" fill="#F6C0B1"/>
<path opacity="0.1" d="M379.029 148.162C379.029 145.953 380.82 144.162 383.029 144.162H446C448.209 144.162 450 145.953 450 148.162V164.023C450 166.232 448.209 168.023 446 168.023H383.029C380.82 168.023 379.029 166.232 379.029 164.023V148.162Z" fill="#F6C0B1"/>
<path d="M2 107.031L71.6363 85.2899C73.2575 84.7837 74.7879 84.0226 76.1698 83.0352L142.329 35.7633C146.515 32.7724 151.883 31.9767 156.757 33.6249L221.13 55.3961C223.942 56.347 226.433 58.061 228.326 60.3466L296.957 143.206C299.997 146.876 304.514 149 309.279 149H377.292L450 148.088" stroke="url(#paint0_linear_2816_83543)" stroke-width="4" stroke-linecap="round" stroke-linejoin="round"/>
<rect x="73" y="100" width="111" height="24" rx="4" fill="#F6C0B1"/>
<path d="M85.03 116.156C84.3887 116.156 83.821 116.026 83.327 115.766C82.833 115.497 82.4517 115.125 82.183 114.648C81.9143 114.171 81.78 113.625 81.78 113.01V110.475C81.78 109.851 81.9143 109.301 82.183 108.824C82.4603 108.347 82.8417 107.979 83.327 107.719C83.821 107.45 84.3887 107.316 85.03 107.316C85.6713 107.316 86.239 107.45 86.733 107.719C87.227 107.979 87.6083 108.352 87.877 108.837C88.1543 109.314 88.293 109.86 88.293 110.475V113.01C88.293 113.625 88.1543 114.171 87.877 114.648C87.6083 115.125 87.227 115.497 86.733 115.766C86.2477 116.026 85.68 116.156 85.03 116.156ZM85.03 115.025C85.6713 115.025 86.174 114.843 86.538 114.479C86.902 114.106 87.084 113.604 87.084 112.971V110.527C87.084 109.868 86.902 109.357 86.538 108.993C86.174 108.629 85.6713 108.447 85.03 108.447C84.3887 108.447 83.8903 108.629 83.535 108.993C83.1797 109.357 83.002 109.868 83.002 110.527V112.971C83.002 113.621 83.1797 114.128 83.535 114.492C83.8903 114.847 84.3887 115.025 85.03 115.025ZM92.8829 109.396C93.6369 109.396 94.2392 109.63 94.6899 110.098C95.1406 110.557 95.3659 111.173 95.3659 111.944V113.608C95.3659 114.379 95.1406 114.999 94.6899 115.467C94.2392 115.926 93.6369 116.156 92.8829 116.156C92.1636 116.156 91.5742 115.939 91.1149 115.506V118.21H89.9449V109.552H90.9979L91.0499 110.098C91.5179 109.63 92.1289 109.396 92.8829 109.396ZM94.1829 111.996C94.1829 111.537 94.0442 111.173 93.7669 110.904C93.4982 110.635 93.1299 110.501 92.6619 110.501C92.3239 110.501 92.0162 110.579 91.7389 110.735C91.4702 110.882 91.2622 111.09 91.1149 111.359V114.206C91.2622 114.466 91.4702 114.674 91.7389 114.83C92.0076 114.977 92.3152 115.051 92.6619 115.051C93.1299 115.051 93.4982 114.917 93.7669 114.648C94.0442 114.379 94.1829 114.015 94.1829 113.556V111.996ZM97.9822 109.552V114.141L101.024 109.552H102.103V116H100.959V111.411L97.9302 116H96.8512V109.552H97.9822ZM107.812 109.552V110.618H104.991V116H103.821V109.552H107.812ZM109.941 109.552V114.141L112.983 109.552H114.062V116H112.918V111.411L109.889 116H108.81V109.552H109.941ZM116.95 109.565V112.23H119.927V109.565H121.11V116H119.927V113.296H116.95V116H115.78V109.565H116.95ZM128.757 114.934V116H128.068C127.756 116 127.483 115.948 127.249 115.844C127.024 115.731 126.85 115.571 126.729 115.363C126.252 115.892 125.576 116.156 124.701 116.156C124.008 116.156 123.457 115.991 123.05 115.662C122.643 115.333 122.439 114.878 122.439 114.297C122.439 113.768 122.612 113.352 122.959 113.049C123.306 112.746 123.839 112.546 124.558 112.451L126.495 112.191V111.775C126.495 111.359 126.374 111.043 126.131 110.826C125.897 110.609 125.55 110.501 125.091 110.501C124.64 110.501 124.289 110.609 124.038 110.826C123.795 111.034 123.674 111.329 123.674 111.71V111.801H122.491V111.71C122.491 110.999 122.725 110.436 123.193 110.02C123.67 109.604 124.315 109.396 125.13 109.396C125.945 109.396 126.573 109.608 127.015 110.033C127.457 110.449 127.678 111.038 127.678 111.801V114.284C127.678 114.717 127.886 114.934 128.302 114.934H128.757ZM124.779 115.142C125.16 115.142 125.498 115.06 125.793 114.895C126.096 114.73 126.33 114.505 126.495 114.219V113.114L124.753 113.374C123.99 113.495 123.609 113.799 123.609 114.284C123.609 114.553 123.713 114.765 123.921 114.921C124.138 115.068 124.424 115.142 124.779 115.142ZM134.959 116H133.789V110.618H131.306L131.241 113.673C131.224 114.47 131.059 115.06 130.747 115.441C130.444 115.814 129.976 116 129.343 116H128.992V114.934H129.2C129.521 114.934 129.751 114.826 129.889 114.609C130.037 114.392 130.119 114.041 130.136 113.556L130.227 109.552H134.959V116ZM139.874 111.788C140.559 111.788 141.105 111.974 141.512 112.347C141.92 112.72 142.123 113.214 142.123 113.829V113.959C142.123 114.574 141.92 115.068 141.512 115.441C141.105 115.814 140.559 116 139.874 116H136.676V109.552H137.846V111.788H139.874ZM140.953 113.842C140.953 113.53 140.854 113.287 140.654 113.114C140.455 112.941 140.178 112.854 139.822 112.854H137.846V114.934H139.822C140.178 114.934 140.455 114.852 140.654 114.687C140.854 114.514 140.953 114.267 140.953 113.946V113.842ZM144.588 109.565V112.23H147.565V109.565H148.748V116H147.565V113.296H144.588V116H143.418V109.565H144.588ZM152.959 116.156C152.136 116.156 151.477 115.918 150.983 115.441C150.489 114.964 150.242 114.332 150.242 113.543V112.022C150.242 111.225 150.489 110.588 150.983 110.111C151.477 109.634 152.136 109.396 152.959 109.396C153.791 109.396 154.454 109.634 154.948 110.111C155.451 110.588 155.702 111.225 155.702 112.022V113.543C155.702 114.332 155.451 114.964 154.948 115.441C154.454 115.918 153.791 116.156 152.959 116.156ZM152.972 115.051C153.449 115.051 153.826 114.912 154.103 114.635C154.389 114.358 154.532 113.985 154.532 113.517V112.061C154.532 111.576 154.394 111.194 154.116 110.917C153.839 110.64 153.458 110.501 152.972 110.501C152.496 110.501 152.114 110.64 151.828 110.917C151.551 111.194 151.412 111.576 151.412 112.061V113.517C151.412 113.994 151.551 114.371 151.828 114.648C152.114 114.917 152.496 115.051 152.972 115.051ZM159.714 116.156C159.168 116.156 158.687 116.048 158.271 115.831C157.855 115.614 157.534 115.311 157.309 114.921C157.084 114.522 156.971 114.063 156.971 113.543V112.009C156.971 111.489 157.084 111.034 157.309 110.644C157.534 110.245 157.855 109.938 158.271 109.721C158.687 109.504 159.168 109.396 159.714 109.396C160.225 109.396 160.68 109.504 161.079 109.721C161.486 109.929 161.803 110.219 162.028 110.592C162.253 110.965 162.366 111.389 162.366 111.866V112.009H161.196V111.866C161.196 111.467 161.057 111.142 160.78 110.891C160.503 110.631 160.147 110.501 159.714 110.501C159.229 110.501 158.847 110.64 158.57 110.917C158.293 111.186 158.154 111.558 158.154 112.035V113.517C158.154 113.994 158.293 114.371 158.57 114.648C158.847 114.917 159.229 115.051 159.714 115.051C160.147 115.051 160.503 114.93 160.78 114.687C161.057 114.436 161.196 114.115 161.196 113.725V113.582H162.366V113.725C162.366 114.453 162.123 115.042 161.638 115.493C161.153 115.935 160.511 116.156 159.714 116.156ZM162.901 110.618V109.552H168.374V110.618H166.229V116H165.046V110.618H162.901ZM172.577 111.788C173.262 111.788 173.808 111.974 174.215 112.347C174.623 112.72 174.826 113.214 174.826 113.829V113.959C174.826 114.574 174.623 115.068 174.215 115.441C173.808 115.814 173.262 116 172.577 116H169.379V109.552H170.549V111.788H172.577ZM173.656 113.842C173.656 113.53 173.557 113.287 173.357 113.114C173.158 112.941 172.881 112.854 172.525 112.854H170.549V114.934H172.525C172.881 114.934 173.158 114.852 173.357 114.687C173.557 114.514 173.656 114.267 173.656 113.946V113.842Z" fill="#261E1E"/>
<g opacity="0.75">
<rect x="246" y="40" width="80" height="24" rx="4" fill="#F6C0B1"/>
<path d="M258.056 56.156C257.406 56.156 256.834 56.026 256.34 55.766C255.846 55.506 255.46 55.1377 255.183 54.661C254.914 54.1843 254.78 53.6383 254.78 53.023V50.475C254.78 49.851 254.914 49.3007 255.183 48.824C255.46 48.3473 255.846 47.979 256.34 47.719C256.834 47.4503 257.406 47.316 258.056 47.316C258.68 47.316 259.235 47.446 259.72 47.706C260.214 47.9573 260.595 48.3127 260.864 48.772C261.141 49.2227 261.28 49.7427 261.28 50.332V50.644H260.071V50.332C260.071 49.7427 259.889 49.2833 259.525 48.954C259.17 48.616 258.676 48.447 258.043 48.447C257.393 48.447 256.89 48.629 256.535 48.993C256.18 49.3483 256.002 49.8553 256.002 50.514V52.971C256.002 53.6297 256.18 54.1367 256.535 54.492C256.89 54.8473 257.393 55.025 258.043 55.025C258.676 55.025 259.17 54.8603 259.525 54.531C259.889 54.193 260.071 53.7293 260.071 53.14V52.815H261.28V53.14C261.28 53.7293 261.141 54.2537 260.864 54.713C260.595 55.1637 260.214 55.519 259.72 55.779C259.235 56.0303 258.68 56.156 258.056 56.156ZM267.982 56H266.812V50.618H264.329L264.264 53.673C264.246 54.4703 264.082 55.0597 263.77 55.441C263.466 55.8137 262.998 56 262.366 56H262.015V54.934H262.223C262.543 54.934 262.773 54.8257 262.912 54.609C263.059 54.3923 263.141 54.0413 263.159 53.556L263.25 49.552H267.982V56ZM272.195 56.156C271.371 56.156 270.713 55.9177 270.219 55.441C269.725 54.9643 269.478 54.3317 269.478 53.543V52.022C269.478 51.2247 269.725 50.5877 270.219 50.111C270.713 49.6343 271.371 49.396 272.195 49.396C273.027 49.396 273.69 49.6343 274.184 50.111C274.686 50.5877 274.938 51.2247 274.938 52.022V53.543C274.938 54.3317 274.686 54.9643 274.184 55.441C273.69 55.9177 273.027 56.156 272.195 56.156ZM272.208 55.051C272.684 55.051 273.061 54.9123 273.339 54.635C273.625 54.3577 273.768 53.985 273.768 53.517V52.061C273.768 51.5757 273.629 51.1943 273.352 50.917C273.074 50.6397 272.693 50.501 272.208 50.501C271.731 50.501 271.35 50.6397 271.064 50.917C270.786 51.1943 270.648 51.5757 270.648 52.061V53.517C270.648 53.9937 270.786 54.3707 271.064 54.648C271.35 54.9167 271.731 55.051 272.208 55.051ZM284.901 55.818V56H283.666L281.846 53.296H280.793V56H279.623V53.296H278.57L276.75 56H275.515V55.818L277.543 52.75L275.619 49.734V49.552H276.854L278.583 52.256H279.623V49.552H280.793V52.256H281.82L283.562 49.552H284.797V49.734L282.86 52.75L284.901 55.818ZM287.309 49.565V52.23H290.286V49.565H291.469V56H290.286V53.296H287.309V56H286.139V49.565H287.309ZM295.681 56.156C294.858 56.156 294.199 55.9177 293.705 55.441C293.211 54.9643 292.964 54.3317 292.964 53.543V52.022C292.964 51.2247 293.211 50.5877 293.705 50.111C294.199 49.6343 294.858 49.396 295.681 49.396C296.513 49.396 297.176 49.6343 297.67 50.111C298.173 50.5877 298.424 51.2247 298.424 52.022V53.543C298.424 54.3317 298.173 54.9643 297.67 55.441C297.176 55.9177 296.513 56.156 295.681 56.156ZM295.694 55.051C296.171 55.051 296.548 54.9123 296.825 54.635C297.111 54.3577 297.254 53.985 297.254 53.517V52.061C297.254 51.5757 297.115 51.1943 296.838 50.917C296.561 50.6397 296.179 50.501 295.694 50.501C295.217 50.501 294.836 50.6397 294.55 50.917C294.273 51.1943 294.134 51.5757 294.134 52.061V53.517C294.134 53.9937 294.273 54.3707 294.55 54.648C294.836 54.9167 295.217 55.051 295.694 55.051ZM302.436 56.156C301.89 56.156 301.409 56.0477 300.993 55.831C300.577 55.6143 300.256 55.311 300.031 54.921C299.805 54.5223 299.693 54.063 299.693 53.543V52.009C299.693 51.489 299.805 51.034 300.031 50.644C300.256 50.2453 300.577 49.9377 300.993 49.721C301.409 49.5043 301.89 49.396 302.436 49.396C302.947 49.396 303.402 49.5043 303.801 49.721C304.208 49.929 304.524 50.2193 304.75 50.592C304.975 50.9647 305.088 51.3893 305.088 51.866V52.009H303.918V51.866C303.918 51.4673 303.779 51.1423 303.502 50.891C303.224 50.631 302.869 50.501 302.436 50.501C301.95 50.501 301.569 50.6397 301.292 50.917C301.014 51.1857 300.876 51.5583 300.876 52.035V53.517C300.876 53.9937 301.014 54.3707 301.292 54.648C301.569 54.9167 301.95 55.051 302.436 55.051C302.869 55.051 303.224 54.9297 303.502 54.687C303.779 54.4357 303.918 54.115 303.918 53.725V53.582H305.088V53.725C305.088 54.453 304.845 55.0423 304.36 55.493C303.874 55.935 303.233 56.156 302.436 56.156ZM305.622 50.618V49.552H311.095V50.618H308.95V56H307.767V50.618H305.622ZM315.299 51.788C315.984 51.788 316.53 51.9743 316.937 52.347C317.344 52.7197 317.548 53.2137 317.548 53.829V53.959C317.548 54.5743 317.344 55.0683 316.937 55.441C316.53 55.8137 315.984 56 315.299 56H312.101V49.552H313.271V51.788H315.299ZM316.378 53.842C316.378 53.53 316.278 53.2873 316.079 53.114C315.88 52.9407 315.602 52.854 315.247 52.854H313.271V54.934H315.247C315.602 54.934 315.88 54.8517 316.079 54.687C316.278 54.5137 316.378 54.2667 316.378 53.946V53.842Z" fill="#261E1E"/>
</g>
<g opacity="0.7">
<rect x="345" y="100" width="60" height="24" rx="4" fill="#F6C0B1"/>
<path d="M357.056 116.156C356.406 116.156 355.834 116.026 355.34 115.766C354.846 115.506 354.46 115.138 354.183 114.661C353.914 114.184 353.78 113.638 353.78 113.023V110.475C353.78 109.851 353.914 109.301 354.183 108.824C354.46 108.347 354.846 107.979 355.34 107.719C355.834 107.45 356.406 107.316 357.056 107.316C357.68 107.316 358.235 107.446 358.72 107.706C359.214 107.957 359.595 108.313 359.864 108.772C360.141 109.223 360.28 109.743 360.28 110.332V110.644H359.071V110.332C359.071 109.743 358.889 109.283 358.525 108.954C358.17 108.616 357.676 108.447 357.043 108.447C356.393 108.447 355.89 108.629 355.535 108.993C355.18 109.348 355.002 109.855 355.002 110.514V112.971C355.002 113.63 355.18 114.137 355.535 114.492C355.89 114.847 356.393 115.025 357.043 115.025C357.676 115.025 358.17 114.86 358.525 114.531C358.889 114.193 359.071 113.729 359.071 113.14V112.815H360.28V113.14C360.28 113.729 360.141 114.254 359.864 114.713C359.595 115.164 359.214 115.519 358.72 115.779C358.235 116.03 357.68 116.156 357.056 116.156ZM361.128 110.618V109.552H366.601V110.618H364.456V116H363.273V110.618H361.128ZM370.883 111.788C371.576 111.788 372.122 111.979 372.521 112.36C372.928 112.733 373.132 113.222 373.132 113.829V113.959C373.132 114.566 372.928 115.06 372.521 115.441C372.122 115.814 371.576 116 370.883 116H367.646V109.552H368.816V111.788H370.883ZM375.056 109.552V116H373.873V109.552H375.056ZM371.962 113.842C371.962 113.547 371.867 113.309 371.676 113.127C371.485 112.945 371.204 112.854 370.831 112.854H368.816V114.934H370.831C371.204 114.934 371.485 114.847 371.676 114.674C371.867 114.501 371.962 114.258 371.962 113.946V113.842ZM381.616 109.552V116H380.433V113.79C379.843 113.911 379.302 113.972 378.808 113.972C378.062 113.972 377.473 113.79 377.04 113.426C376.606 113.053 376.39 112.551 376.39 111.918V109.552H377.56V111.788C377.56 112.152 377.681 112.429 377.924 112.62C378.175 112.811 378.53 112.906 378.99 112.906C379.432 112.906 379.913 112.858 380.433 112.763V109.552H381.616ZM388.901 115.818V116H387.627L385.599 113.296H384.507V116H383.337V109.552H384.507V112.256H385.573L387.523 109.552H388.797V109.734L386.639 112.763L388.901 115.818ZM391.272 109.552V114.141L394.314 109.552H395.393V116H394.249V111.411L391.22 116H390.141V109.552H391.272Z" fill="#261E1E"/>
</g>
<defs>
<linearGradient id="paint0_linear_2816_83543" x1="448.531" y1="34.3887" x2="-0.937705" y2="34.3887" gradientUnits="userSpaceOnUse">
<stop stop-color="#F6C0B1" stop-opacity="0"/>
<stop offset="0.302083" stop-color="#F6C0B1"/>
</linearGradient>
</defs>
</svg>
