<svg width="458" height="172" viewBox="0 0 458 172" fill="none" xmlns="http://www.w3.org/2000/svg">
<line opacity="0.1" x1="2" y1="111.847" x2="450" y2="111.847" stroke="#966F7B"/>
<path opacity="0.1" d="M2 4C2 1.79086 3.79086 0 6 0H68.9703C71.1794 0 72.9703 1.79086 72.9703 4V19.8613C72.9703 22.0704 71.1794 23.8613 68.9703 23.8613H6C3.79087 23.8613 2 22.0704 2 19.8613V4Z" fill="#D7DD93"/>
<path opacity="0.1" d="M2 31.8381C2 29.629 3.79086 27.8381 6 27.8381H68.9703C71.1794 27.8381 72.9703 29.629 72.9703 31.8381V47.6994C72.9703 49.9085 71.1794 51.6994 68.9703 51.6994H6C3.79087 51.6994 2 49.9085 2 47.6994V31.8381Z" fill="#D7DD93"/>
<path opacity="0.1" d="M2 59.6763C2 57.4671 3.79086 55.6763 6 55.6763H68.9703C71.1794 55.6763 72.9703 57.4671 72.9703 59.6763V75.5375C72.9703 77.7467 71.1794 79.5375 68.9703 79.5375H6C3.79087 79.5375 2 77.7467 2 75.5375V59.6763Z" fill="#D7DD93"/>
<path opacity="0.1" d="M2 87.5144C2 85.3053 3.79086 83.5144 6 83.5144H68.9703C71.1794 83.5144 72.9703 85.3053 72.9703 87.5144V103.376C72.9703 105.585 71.1794 107.376 68.9703 107.376H6C3.79087 107.376 2 105.585 2 103.376V87.5144Z" fill="#D7DD93"/>
<path opacity="0.1" d="M2 120.324C2 118.115 3.79086 116.324 6 116.324H68.9703C71.1794 116.324 72.9703 118.115 72.9703 120.324V136.185C72.9703 138.394 71.1794 140.185 68.9703 140.185H6C3.79087 140.185 2 138.394 2 136.185V120.324Z" fill="#D7DD93"/>
<path opacity="0.1" d="M2 148.162C2 145.953 3.79086 144.162 6 144.162H68.9703C71.1794 144.162 72.9703 145.953 72.9703 148.162V164.023C72.9703 166.232 71.1794 168.023 68.9703 168.023H6C3.79087 168.023 2 166.232 2 164.023V148.162Z" fill="#D7DD93"/>
<path opacity="0.1" d="M77.4059 4C77.4059 1.79086 79.1967 0 81.4059 0H144.376C146.585 0 148.376 1.79086 148.376 4V19.8613C148.376 22.0704 146.585 23.8613 144.376 23.8613H81.4059C79.1967 23.8613 77.4059 22.0704 77.4059 19.8613V4Z" fill="#D7DD93"/>
<path opacity="0.1" d="M77.406 31.8381C77.406 29.629 79.1969 27.8381 81.406 27.8381H144.376C146.585 27.8381 148.376 29.629 148.376 31.8381V47.6994C148.376 49.9085 146.585 51.6994 144.376 51.6994H81.406C79.1969 51.6994 77.406 49.9085 77.406 47.6994V31.8381Z" fill="#D7DD93"/>
<path opacity="0.1" d="M77.406 59.6763C77.406 57.4671 79.1969 55.6763 81.406 55.6763H144.376C146.585 55.6763 148.376 57.4671 148.376 59.6763V75.5375C148.376 77.7467 146.585 79.5375 144.376 79.5375H81.406C79.1969 79.5375 77.406 77.7467 77.406 75.5375V59.6763Z" fill="#D7DD93"/>
<path opacity="0.1" d="M77.406 87.5144C77.406 85.3053 79.1969 83.5144 81.406 83.5144H144.376C146.585 83.5144 148.376 85.3053 148.376 87.5144V103.376C148.376 105.585 146.585 107.376 144.376 107.376H81.406C79.1969 107.376 77.406 105.585 77.406 103.376V87.5144Z" fill="#D7DD93"/>
<path opacity="0.1" d="M77.406 120.324C77.406 118.115 79.1969 116.324 81.406 116.324H144.376C146.585 116.324 148.376 118.115 148.376 120.324V136.185C148.376 138.394 146.585 140.185 144.376 140.185H81.406C79.1969 140.185 77.406 138.394 77.406 136.185V120.324Z" fill="#D7DD93"/>
<path opacity="0.1" d="M77.406 148.162C77.406 145.953 79.1969 144.162 81.406 144.162H144.376C146.585 144.162 148.376 145.953 148.376 148.162V164.023C148.376 166.232 146.585 168.023 144.376 168.023H81.406C79.1969 168.023 77.406 166.232 77.406 164.023V148.162Z" fill="#D7DD93"/>
<path opacity="0.1" d="M152.812 4C152.812 1.79086 154.603 0 156.812 0H219.782C221.991 0 223.782 1.79086 223.782 4V19.8613C223.782 22.0704 221.991 23.8613 219.782 23.8613H156.812C154.603 23.8613 152.812 22.0704 152.812 19.8613V4Z" fill="#D7DD93"/>
<path opacity="0.1" d="M152.812 31.8381C152.812 29.629 154.603 27.8381 156.812 27.8381H219.782C221.991 27.8381 223.782 29.629 223.782 31.8381V47.6994C223.782 49.9085 221.991 51.6994 219.782 51.6994H156.812C154.603 51.6994 152.812 49.9085 152.812 47.6994V31.8381Z" fill="#D7DD93"/>
<path opacity="0.1" d="M152.812 59.6763C152.812 57.4671 154.603 55.6763 156.812 55.6763H219.782C221.991 55.6763 223.782 57.4671 223.782 59.6763V75.5375C223.782 77.7467 221.991 79.5375 219.782 79.5375H156.812C154.603 79.5375 152.812 77.7467 152.812 75.5375V59.6763Z" fill="#D7DD93"/>
<path opacity="0.1" d="M152.812 87.5144C152.812 85.3053 154.603 83.5144 156.812 83.5144H219.782C221.991 83.5144 223.782 85.3053 223.782 87.5144V103.376C223.782 105.585 221.991 107.376 219.782 107.376H156.812C154.603 107.376 152.812 105.585 152.812 103.376V87.5144Z" fill="#D7DD93"/>
<path opacity="0.1" d="M152.812 120.324C152.812 118.115 154.603 116.324 156.812 116.324H219.782C221.991 116.324 223.782 118.115 223.782 120.324V136.185C223.782 138.394 221.991 140.185 219.782 140.185H156.812C154.603 140.185 152.812 138.394 152.812 136.185V120.324Z" fill="#D7DD93"/>
<path opacity="0.1" d="M152.812 148.162C152.812 145.953 154.603 144.162 156.812 144.162H219.782C221.991 144.162 223.782 145.953 223.782 148.162V164.023C223.782 166.232 221.991 168.023 219.782 168.023H156.812C154.603 168.023 152.812 166.232 152.812 164.023V148.162Z" fill="#D7DD93"/>
<path opacity="0.1" d="M228.218 4C228.218 1.79086 230.009 0 232.218 0H295.188C297.397 0 299.188 1.79086 299.188 4V19.8613C299.188 22.0704 297.397 23.8613 295.188 23.8613H232.218C230.009 23.8613 228.218 22.0704 228.218 19.8613V4Z" fill="#D7DD93"/>
<path opacity="0.1" d="M228.218 31.8381C228.218 29.629 230.009 27.8381 232.218 27.8381H295.188C297.397 27.8381 299.188 29.629 299.188 31.8381V47.6994C299.188 49.9085 297.397 51.6994 295.188 51.6994H232.218C230.009 51.6994 228.218 49.9085 228.218 47.6994V31.8381Z" fill="#D7DD93"/>
<path opacity="0.1" d="M228.218 59.6763C228.218 57.4671 230.009 55.6763 232.218 55.6763H295.188C297.397 55.6763 299.188 57.4671 299.188 59.6763V75.5375C299.188 77.7467 297.397 79.5375 295.188 79.5375H232.218C230.009 79.5375 228.218 77.7467 228.218 75.5375V59.6763Z" fill="#D7DD93"/>
<path opacity="0.1" d="M228.218 87.5144C228.218 85.3053 230.009 83.5144 232.218 83.5144H295.188C297.397 83.5144 299.188 85.3053 299.188 87.5144V103.376C299.188 105.585 297.397 107.376 295.188 107.376H232.218C230.009 107.376 228.218 105.585 228.218 103.376V87.5144Z" fill="#D7DD93"/>
<path opacity="0.1" d="M228.218 120.324C228.218 118.115 230.009 116.324 232.218 116.324H295.188C297.397 116.324 299.188 118.115 299.188 120.324V136.185C299.188 138.394 297.397 140.185 295.188 140.185H232.218C230.009 140.185 228.218 138.394 228.218 136.185V120.324Z" fill="#D7DD93"/>
<path opacity="0.1" d="M228.218 148.162C228.218 145.953 230.009 144.162 232.218 144.162H295.188C297.397 144.162 299.188 145.953 299.188 148.162V164.023C299.188 166.232 297.397 168.023 295.188 168.023H232.218C230.009 168.023 228.218 166.232 228.218 164.023V148.162Z" fill="#D7DD93"/>
<path opacity="0.1" d="M303.624 4C303.624 1.79086 305.415 0 307.624 0H370.594C372.803 0 374.594 1.79086 374.594 4V19.8613C374.594 22.0704 372.803 23.8613 370.594 23.8613H307.624C305.415 23.8613 303.624 22.0704 303.624 19.8613V4Z" fill="#D7DD93"/>
<path opacity="0.1" d="M303.624 31.8381C303.624 29.629 305.415 27.8381 307.624 27.8381H370.594C372.803 27.8381 374.594 29.629 374.594 31.8381V47.6994C374.594 49.9085 372.803 51.6994 370.594 51.6994H307.624C305.415 51.6994 303.624 49.9085 303.624 47.6994V31.8381Z" fill="#D7DD93"/>
<path opacity="0.1" d="M303.624 59.6763C303.624 57.4671 305.415 55.6763 307.624 55.6763H370.594C372.803 55.6763 374.594 57.4671 374.594 59.6763V75.5375C374.594 77.7467 372.803 79.5375 370.594 79.5375H307.624C305.415 79.5375 303.624 77.7467 303.624 75.5375V59.6763Z" fill="#D7DD93"/>
<path opacity="0.1" d="M303.624 87.5144C303.624 85.3053 305.415 83.5144 307.624 83.5144H370.594C372.803 83.5144 374.594 85.3053 374.594 87.5144V103.376C374.594 105.585 372.803 107.376 370.594 107.376H307.624C305.415 107.376 303.624 105.585 303.624 103.376V87.5144Z" fill="#D7DD93"/>
<path opacity="0.1" d="M303.624 120.324C303.624 118.115 305.415 116.324 307.624 116.324H370.594C372.803 116.324 374.594 118.115 374.594 120.324V136.185C374.594 138.394 372.803 140.185 370.594 140.185H307.624C305.415 140.185 303.624 138.394 303.624 136.185V120.324Z" fill="#D7DD93"/>
<path opacity="0.1" d="M303.624 148.162C303.624 145.953 305.415 144.162 307.624 144.162H370.594C372.803 144.162 374.594 145.953 374.594 148.162V164.023C374.594 166.232 372.803 168.023 370.594 168.023H307.624C305.415 168.023 303.624 166.232 303.624 164.023V148.162Z" fill="#D7DD93"/>
<path opacity="0.1" d="M379.03 4C379.03 1.79086 380.821 0 383.03 0H446C448.209 0 450 1.79086 450 4V19.8613C450 22.0704 448.209 23.8613 446 23.8613H383.03C380.821 23.8613 379.03 22.0704 379.03 19.8613V4Z" fill="#D7DD93"/>
<path opacity="0.1" d="M379.03 31.8381C379.03 29.629 380.821 27.8381 383.03 27.8381H446C448.209 27.8381 450 29.629 450 31.8381V47.6994C450 49.9085 448.209 51.6994 446 51.6994H383.03C380.821 51.6994 379.03 49.9085 379.03 47.6994V31.8381Z" fill="#D7DD93"/>
<path opacity="0.1" d="M379.03 59.6763C379.03 57.4671 380.821 55.6763 383.03 55.6763H446C448.209 55.6763 450 57.4671 450 59.6763V75.5375C450 77.7467 448.209 79.5375 446 79.5375H383.03C380.821 79.5375 379.03 77.7467 379.03 75.5375V59.6763Z" fill="#D7DD93"/>
<path opacity="0.1" d="M379.03 87.5144C379.03 85.3053 380.821 83.5144 383.03 83.5144H446C448.209 83.5144 450 85.3053 450 87.5144V103.376C450 105.585 448.209 107.376 446 107.376H383.03C380.821 107.376 379.03 105.585 379.03 103.376V87.5144Z" fill="#D7DD93"/>
<path opacity="0.1" d="M379.03 120.324C379.03 118.115 380.821 116.324 383.03 116.324H446C448.209 116.324 450 118.115 450 120.324V136.185C450 138.394 448.209 140.185 446 140.185H383.03C380.821 140.185 379.03 138.394 379.03 136.185V120.324Z" fill="#D7DD93"/>
<path opacity="0.1" d="M379.03 148.162C379.03 145.953 380.821 144.162 383.03 144.162H446C448.209 144.162 450 145.953 450 148.162V164.023C450 166.232 448.209 168.023 446 168.023H383.03C380.821 168.023 379.03 166.232 379.03 164.023V148.162Z" fill="#D7DD93"/>
<path d="M2 111L70.7966 62.0889C71.9668 61.2569 73.2436 60.5863 74.5927 60.095L143.701 34.9278C147.127 33.6802 150.877 33.6401 154.329 34.8143L225.43 59L296.23 85.3875C299.797 86.7168 303.72 86.7311 307.297 85.4277L374.736 60.8493C376.428 60.2326 378.212 59.906 380.012 59.8833L450 59" stroke="url(#paint0_linear_2815_83207)" stroke-width="4" stroke-linecap="round" stroke-linejoin="round"/>
<rect x="43" y="96" width="99" height="24" rx="4" fill="#D7DD93"/>
<path d="M55.303 103.472C56.1263 103.472 56.7763 103.689 57.253 104.122C57.7297 104.547 57.968 105.132 57.968 105.877V106.072C57.968 106.817 57.7297 107.407 57.253 107.84C56.7763 108.265 56.1263 108.477 55.303 108.477H53.132V112H51.91V103.472H55.303ZM55.277 107.385C55.7623 107.385 56.1307 107.272 56.382 107.047C56.6333 106.822 56.759 106.497 56.759 106.072V105.877C56.759 105.461 56.629 105.14 56.369 104.915C56.1177 104.69 55.7537 104.577 55.277 104.577H53.132V107.385H55.277ZM65.1907 110.934V112H64.5017C64.1897 112 63.9167 111.948 63.6827 111.844C63.4574 111.731 63.2841 111.571 63.1627 111.363C62.6861 111.892 62.0101 112.156 61.1347 112.156C60.4414 112.156 59.8911 111.991 59.4837 111.662C59.0764 111.333 58.8727 110.878 58.8727 110.297C58.8727 109.768 59.0461 109.352 59.3927 109.049C59.7394 108.746 60.2724 108.546 60.9917 108.451L62.9287 108.191V107.775C62.9287 107.359 62.8074 107.043 62.5647 106.826C62.3307 106.609 61.9841 106.501 61.5247 106.501C61.0741 106.501 60.7231 106.609 60.4717 106.826C60.2291 107.034 60.1077 107.329 60.1077 107.71V107.801H58.9247V107.71C58.9247 106.999 59.1587 106.436 59.6267 106.02C60.1034 105.604 60.7491 105.396 61.5637 105.396C62.3784 105.396 63.0067 105.608 63.4487 106.033C63.8907 106.449 64.1117 107.038 64.1117 107.801V110.284C64.1117 110.717 64.3197 110.934 64.7357 110.934H65.1907ZM61.2127 111.142C61.5941 111.142 61.9321 111.06 62.2267 110.895C62.5301 110.73 62.7641 110.505 62.9287 110.219V109.114L61.1867 109.374C60.4241 109.495 60.0427 109.799 60.0427 110.284C60.0427 110.553 60.1467 110.765 60.3547 110.921C60.5714 111.068 60.8574 111.142 61.2127 111.142ZM68.6368 112.156C68.0908 112.156 67.6098 112.048 67.1938 111.831C66.7778 111.614 66.4572 111.311 66.2318 110.921C66.0065 110.522 65.8938 110.063 65.8938 109.543V108.009C65.8938 107.489 66.0065 107.034 66.2318 106.644C66.4572 106.245 66.7778 105.938 67.1938 105.721C67.6098 105.504 68.0908 105.396 68.6368 105.396C69.1482 105.396 69.6032 105.504 70.0018 105.721C70.4092 105.929 70.7255 106.219 70.9508 106.592C71.1762 106.965 71.2888 107.389 71.2888 107.866V108.009H70.1188V107.866C70.1188 107.467 69.9802 107.142 69.7028 106.891C69.4255 106.631 69.0702 106.501 68.6368 106.501C68.1515 106.501 67.7702 106.64 67.4928 106.917C67.2155 107.186 67.0768 107.558 67.0768 108.035V109.517C67.0768 109.994 67.2155 110.371 67.4928 110.648C67.7702 110.917 68.1515 111.051 68.6368 111.051C69.0702 111.051 69.4255 110.93 69.7028 110.687C69.9802 110.436 70.1188 110.115 70.1188 109.725V109.582H71.2888V109.725C71.2888 110.453 71.0462 111.042 70.5608 111.493C70.0755 111.935 69.4342 112.156 68.6368 112.156ZM75.2638 112.156C74.7178 112.156 74.2368 112.048 73.8208 111.831C73.4048 111.614 73.0841 111.311 72.8588 110.921C72.6335 110.522 72.5208 110.063 72.5208 109.543V108.009C72.5208 107.489 72.6335 107.034 72.8588 106.644C73.0841 106.245 73.4048 105.938 73.8208 105.721C74.2368 105.504 74.7178 105.396 75.2638 105.396C75.7751 105.396 76.2301 105.504 76.6288 105.721C77.0361 105.929 77.3525 106.219 77.5778 106.592C77.8031 106.965 77.9158 107.389 77.9158 107.866V108.009H76.7458V107.866C76.7458 107.467 76.6071 107.142 76.3298 106.891C76.0525 106.631 75.6971 106.501 75.2638 106.501C74.7785 106.501 74.3971 106.64 74.1198 106.917C73.8425 107.186 73.7038 107.558 73.7038 108.035V109.517C73.7038 109.994 73.8425 110.371 74.1198 110.648C74.3971 110.917 74.7785 111.051 75.2638 111.051C75.6971 111.051 76.0525 110.93 76.3298 110.687C76.6071 110.436 76.7458 110.115 76.7458 109.725V109.582H77.9158V109.725C77.9158 110.453 77.6731 111.042 77.1878 111.493C76.7025 111.935 76.0611 112.156 75.2638 112.156ZM84.5579 112H83.3879V106.618H80.9049L80.8399 109.673C80.8225 110.47 80.6579 111.06 80.3459 111.441C80.0425 111.814 79.5745 112 78.9419 112H78.5909V110.934H78.7989C79.1195 110.934 79.3492 110.826 79.4879 110.609C79.6352 110.392 79.7175 110.041 79.7349 109.556L79.8259 105.552H84.5579V112ZM92.2063 110.934V112H91.5173C91.2053 112 90.9323 111.948 90.6983 111.844C90.473 111.731 90.2997 111.571 90.1783 111.363C89.7017 111.892 89.0257 112.156 88.1503 112.156C87.457 112.156 86.9067 111.991 86.4993 111.662C86.092 111.333 85.8883 110.878 85.8883 110.297C85.8883 109.768 86.0617 109.352 86.4083 109.049C86.755 108.746 87.288 108.546 88.0073 108.451L89.9443 108.191V107.775C89.9443 107.359 89.823 107.043 89.5803 106.826C89.3463 106.609 88.9997 106.501 88.5403 106.501C88.0897 106.501 87.7387 106.609 87.4873 106.826C87.2447 107.034 87.1233 107.329 87.1233 107.71V107.801H85.9403V107.71C85.9403 106.999 86.1743 106.436 86.6423 106.02C87.119 105.604 87.7647 105.396 88.5793 105.396C89.394 105.396 90.0223 105.608 90.4643 106.033C90.9063 106.449 91.1273 107.038 91.1273 107.801V110.284C91.1273 110.717 91.3353 110.934 91.7513 110.934H92.2063ZM88.2283 111.142C88.6097 111.142 88.9477 111.06 89.2423 110.895C89.5457 110.73 89.7797 110.505 89.9443 110.219V109.114L88.2023 109.374C87.4397 109.495 87.0583 109.799 87.0583 110.284C87.0583 110.553 87.1623 110.765 87.3703 110.921C87.587 111.068 87.873 111.142 88.2283 111.142ZM95.9276 105.851C96.6903 105.851 97.2969 106.089 97.7476 106.566C98.2069 107.034 98.4366 107.662 98.4366 108.451V109.517C98.4366 110.34 98.1983 110.986 97.7216 111.454C97.2449 111.922 96.5906 112.156 95.7586 112.156C94.8746 112.156 94.1856 111.9 93.6916 111.389C93.1976 110.869 92.9506 110.15 92.9506 109.231V107.424C92.9506 106.575 93.0416 105.886 93.2236 105.357C93.4056 104.828 93.6916 104.425 94.0816 104.148C94.4716 103.862 94.9916 103.676 95.6416 103.589L96.6816 103.472C96.8549 103.455 96.9763 103.42 97.0456 103.368C97.1149 103.316 97.1496 103.238 97.1496 103.134V102.952H98.3066V103.225C98.3066 103.606 98.2069 103.897 98.0076 104.096C97.8083 104.287 97.4919 104.412 97.0586 104.473L95.8886 104.629C95.2386 104.716 94.7706 104.911 94.4846 105.214C94.1986 105.517 94.0513 105.977 94.0426 106.592C94.2766 106.358 94.5583 106.176 94.8876 106.046C95.2169 105.916 95.5636 105.851 95.9276 105.851ZM97.2666 108.542C97.2666 107.467 96.7639 106.93 95.7586 106.93C95.4466 106.93 95.1476 106.995 94.8616 107.125C94.5843 107.255 94.3373 107.441 94.1206 107.684V109.27C94.1206 109.851 94.2549 110.293 94.5236 110.596C94.8009 110.899 95.2039 111.051 95.7326 111.051C96.2353 111.051 96.6166 110.917 96.8766 110.648C97.1366 110.379 97.2666 109.989 97.2666 109.478V108.542ZM105.213 112H104.043V106.618H101.56L101.495 109.673C101.478 110.47 101.313 111.06 101.001 111.441C100.698 111.814 100.23 112 99.5971 112H99.2461V110.934H99.4541C99.7748 110.934 100.004 110.826 100.143 110.609C100.29 110.392 100.373 110.041 100.39 109.556L100.481 105.552H105.213V112ZM107.879 109.205V109.517C107.879 110.002 108.018 110.384 108.295 110.661C108.581 110.93 108.971 111.064 109.465 111.064C109.881 111.064 110.228 110.96 110.505 110.752C110.791 110.544 110.939 110.288 110.947 109.985H112.117C112.083 110.626 111.823 111.151 111.337 111.558C110.852 111.957 110.228 112.156 109.465 112.156C108.633 112.156 107.966 111.922 107.463 111.454C106.961 110.977 106.709 110.345 106.709 109.556V108.009C106.709 107.489 106.822 107.034 107.047 106.644C107.273 106.245 107.593 105.938 108.009 105.721C108.425 105.504 108.902 105.396 109.439 105.396C110.254 105.396 110.904 105.634 111.389 106.111C111.875 106.588 112.117 107.216 112.117 107.996V109.205H107.879ZM109.439 106.488C108.963 106.488 108.581 106.631 108.295 106.917C108.018 107.194 107.879 107.571 107.879 108.048V108.23H110.947V108.048C110.947 107.571 110.809 107.194 110.531 106.917C110.263 106.631 109.899 106.488 109.439 106.488ZM114.778 105.565V108.23H117.755V105.565H118.938V112H117.755V109.296H114.778V112H113.608V105.565H114.778ZM121.785 105.552V110.141L124.827 105.552H125.906V112H124.762V107.411L121.733 112H120.654V105.552H121.785ZM128.573 109.205V109.517C128.573 110.002 128.711 110.384 128.989 110.661C129.275 110.93 129.665 111.064 130.159 111.064C130.575 111.064 130.921 110.96 131.199 110.752C131.485 110.544 131.632 110.288 131.641 109.985H132.811C132.776 110.626 132.516 111.151 132.031 111.558C131.545 111.957 130.921 112.156 130.159 112.156C129.327 112.156 128.659 111.922 128.157 111.454C127.654 110.977 127.403 110.345 127.403 109.556V108.009C127.403 107.489 127.515 107.034 127.741 106.644C127.966 106.245 128.287 105.938 128.703 105.721C129.119 105.504 129.595 105.396 130.133 105.396C130.947 105.396 131.597 105.634 132.083 106.111C132.568 106.588 132.811 107.216 132.811 107.996V109.205H128.573ZM130.133 106.488C129.656 106.488 129.275 106.631 128.989 106.917C128.711 107.194 128.573 107.571 128.573 108.048V108.23H131.641V108.048C131.641 107.571 131.502 107.194 131.225 106.917C130.956 106.631 130.592 106.488 130.133 106.488Z" fill="#261E1E"/>
<g opacity="0.75">
<rect x="221" y="24" width="86" height="24" rx="4" fill="#D7DD93"/>
<path d="M231.132 31.472V35.19H234.616V31.472H235.838V40H234.616V36.295H231.132V40H229.91V31.472H231.132ZM238.551 37.205V37.517C238.551 38.0023 238.69 38.3837 238.967 38.661C239.253 38.9297 239.643 39.064 240.137 39.064C240.553 39.064 240.9 38.96 241.177 38.752C241.463 38.544 241.61 38.2883 241.619 37.985H242.789C242.754 38.6263 242.494 39.1507 242.009 39.558C241.524 39.9567 240.9 40.156 240.137 40.156C239.305 40.156 238.638 39.922 238.135 39.454C237.632 38.9773 237.381 38.3447 237.381 37.556V36.009C237.381 35.489 237.494 35.034 237.719 34.644C237.944 34.2453 238.265 33.9377 238.681 33.721C239.097 33.5043 239.574 33.396 240.111 33.396C240.926 33.396 241.576 33.6343 242.061 34.111C242.546 34.5877 242.789 35.216 242.789 35.996V37.205H238.551ZM240.111 34.488C239.634 34.488 239.253 34.631 238.967 34.917C238.69 35.1943 238.551 35.5713 238.551 36.048V36.23H241.619V36.048C241.619 35.5713 241.48 35.1943 241.203 34.917C240.934 34.631 240.57 34.488 240.111 34.488ZM246.802 40.156C246.256 40.156 245.775 40.0477 245.359 39.831C244.943 39.6143 244.622 39.311 244.397 38.921C244.172 38.5223 244.059 38.063 244.059 37.543V36.009C244.059 35.489 244.172 35.034 244.397 34.644C244.622 34.2453 244.943 33.9377 245.359 33.721C245.775 33.5043 246.256 33.396 246.802 33.396C247.313 33.396 247.768 33.5043 248.167 33.721C248.574 33.929 248.891 34.2193 249.116 34.592C249.341 34.9647 249.454 35.3893 249.454 35.866V36.009H248.284V35.866C248.284 35.4673 248.145 35.1423 247.868 34.891C247.591 34.631 247.235 34.501 246.802 34.501C246.317 34.501 245.935 34.6397 245.658 34.917C245.381 35.1857 245.242 35.5583 245.242 36.035V37.517C245.242 37.9937 245.381 38.3707 245.658 38.648C245.935 38.9167 246.317 39.051 246.802 39.051C247.235 39.051 247.591 38.9297 247.868 38.687C248.145 38.4357 248.284 38.115 248.284 37.725V37.582H249.454V37.725C249.454 38.453 249.211 39.0423 248.726 39.493C248.241 39.935 247.599 40.156 246.802 40.156ZM256.373 33.552V33.734L253.682 40.754C253.483 41.274 253.227 41.6467 252.915 41.872C252.612 42.0973 252.191 42.21 251.654 42.21H250.627V41.144H251.55C251.819 41.144 252.027 41.0963 252.174 41.001C252.33 40.9057 252.464 40.7063 252.577 40.403L252.694 40.078L250.159 33.734V33.552H251.355L253.305 38.557L255.177 33.552H256.373ZM260.535 33.396C261.289 33.396 261.892 33.63 262.342 34.098C262.793 34.5573 263.018 35.1727 263.018 35.944V37.608C263.018 38.3793 262.793 38.999 262.342 39.467C261.892 39.9263 261.289 40.156 260.535 40.156C259.816 40.156 259.227 39.9393 258.767 39.506V42.21H257.597V33.552H258.65L258.702 34.098C259.17 33.63 259.781 33.396 260.535 33.396ZM261.835 35.996C261.835 35.5367 261.697 35.1727 261.419 34.904C261.151 34.6353 260.782 34.501 260.314 34.501C259.976 34.501 259.669 34.579 259.391 34.735C259.123 34.8823 258.915 35.0903 258.767 35.359V38.206C258.915 38.466 259.123 38.674 259.391 38.83C259.66 38.9773 259.968 39.051 260.314 39.051C260.782 39.051 261.151 38.9167 261.419 38.648C261.697 38.3793 261.835 38.0153 261.835 37.556V35.996ZM270.575 38.934V40H269.886C269.574 40 269.301 39.948 269.067 39.844C268.841 39.7313 268.668 39.571 268.547 39.363C268.07 39.8917 267.394 40.156 266.519 40.156C265.825 40.156 265.275 39.9913 264.868 39.662C264.46 39.3327 264.257 38.8777 264.257 38.297C264.257 37.7683 264.43 37.3523 264.777 37.049C265.123 36.7457 265.656 36.5463 266.376 36.451L268.313 36.191V35.775C268.313 35.359 268.191 35.0427 267.949 34.826C267.715 34.6093 267.368 34.501 266.909 34.501C266.458 34.501 266.107 34.6093 265.856 34.826C265.613 35.034 265.492 35.3287 265.492 35.71V35.801H264.309V35.71C264.309 34.9993 264.543 34.436 265.011 34.02C265.487 33.604 266.133 33.396 266.948 33.396C267.762 33.396 268.391 33.6083 268.833 34.033C269.275 34.449 269.496 35.0383 269.496 35.801V38.284C269.496 38.7173 269.704 38.934 270.12 38.934H270.575ZM266.597 39.142C266.978 39.142 267.316 39.0597 267.611 38.895C267.914 38.7303 268.148 38.505 268.313 38.219V37.114L266.571 37.374C265.808 37.4953 265.427 37.7987 265.427 38.284C265.427 38.5527 265.531 38.765 265.739 38.921C265.955 39.0683 266.241 39.142 266.597 39.142ZM275.646 36.737C275.975 36.8583 276.226 37.0403 276.4 37.283C276.573 37.517 276.66 37.803 276.66 38.141V38.323C276.66 38.9037 276.417 39.3543 275.932 39.675C275.455 39.9957 274.788 40.156 273.93 40.156C273.072 40.156 272.396 39.961 271.902 39.571C271.416 39.181 271.174 38.6523 271.174 37.985V37.725H272.344V37.92C272.344 38.31 272.482 38.609 272.76 38.817C273.037 39.0163 273.44 39.116 273.969 39.116C274.471 39.116 274.848 39.038 275.1 38.882C275.36 38.726 275.49 38.4963 275.49 38.193V38.076C275.49 37.8073 275.399 37.6037 275.217 37.465C275.035 37.3177 274.779 37.244 274.45 37.244H273.111V36.23H274.385C274.723 36.23 274.983 36.1607 275.165 36.022C275.347 35.8833 275.438 35.6883 275.438 35.437V35.32C275.438 35.034 275.312 34.8173 275.061 34.67C274.818 34.5227 274.454 34.449 273.969 34.449C273.44 34.449 273.037 34.5573 272.76 34.774C272.482 34.982 272.344 35.2853 272.344 35.684V35.853H271.174V35.658C271.174 35.216 271.286 34.826 271.512 34.488C271.746 34.1413 272.071 33.877 272.487 33.695C272.903 33.5043 273.384 33.409 273.93 33.409C274.753 33.409 275.403 33.5693 275.88 33.89C276.356 34.2107 276.595 34.6483 276.595 35.203V35.385C276.595 36.0177 276.278 36.4683 275.646 36.737ZM279.206 33.552V38.141L282.248 33.552H283.327V40H282.183V35.411L279.154 40H278.075V33.552H279.206ZM291.285 38.934V41.703H290.102V40H285.045V33.552H286.215V38.934H289.14V33.552H290.323V38.934H291.285ZM298.479 38.934V40H297.79C297.478 40 297.205 39.948 296.971 39.844C296.745 39.7313 296.572 39.571 296.451 39.363C295.974 39.8917 295.298 40.156 294.423 40.156C293.729 40.156 293.179 39.9913 292.772 39.662C292.364 39.3327 292.161 38.8777 292.161 38.297C292.161 37.7683 292.334 37.3523 292.681 37.049C293.027 36.7457 293.56 36.5463 294.28 36.451L296.217 36.191V35.775C296.217 35.359 296.095 35.0427 295.853 34.826C295.619 34.6093 295.272 34.501 294.813 34.501C294.362 34.501 294.011 34.6093 293.76 34.826C293.517 35.034 293.396 35.3287 293.396 35.71V35.801H292.213V35.71C292.213 34.9993 292.447 34.436 292.915 34.02C293.391 33.604 294.037 33.396 294.852 33.396C295.666 33.396 296.295 33.6083 296.737 34.033C297.179 34.449 297.4 35.0383 297.4 35.801V38.284C297.4 38.7173 297.608 38.934 298.024 38.934H298.479ZM294.501 39.142C294.882 39.142 295.22 39.0597 295.515 38.895C295.818 38.7303 296.052 38.505 296.217 38.219V37.114L294.475 37.374C293.712 37.4953 293.331 37.7987 293.331 38.284C293.331 38.5527 293.435 38.765 293.643 38.921C293.859 39.0683 294.145 39.142 294.501 39.142Z" fill="#261E1E"/>
</g>
<g opacity="0.7">
<rect x="312" y="100" width="125" height="24" rx="4" fill="#D7DD93"/>
<path d="M325.616 111.645C326.006 111.827 326.305 112.078 326.513 112.399C326.73 112.711 326.838 113.079 326.838 113.504V113.712C326.838 114.405 326.595 114.96 326.11 115.376C325.633 115.792 325.001 116 324.212 116H320.91V107.472H324.03C324.827 107.472 325.464 107.671 325.941 108.07C326.418 108.46 326.656 108.989 326.656 109.656V109.851C326.656 110.241 326.565 110.592 326.383 110.904C326.201 111.216 325.945 111.463 325.616 111.645ZM322.132 108.577V111.138H324.043C324.476 111.138 324.819 111.034 325.07 110.826C325.321 110.609 325.447 110.315 325.447 109.942V109.747C325.447 109.374 325.326 109.088 325.083 108.889C324.84 108.681 324.489 108.577 324.03 108.577H322.132ZM325.629 113.465C325.629 113.084 325.499 112.785 325.239 112.568C324.979 112.343 324.628 112.23 324.186 112.23H322.132V114.895H324.173C324.632 114.895 324.988 114.787 325.239 114.57C325.499 114.353 325.629 114.054 325.629 113.673V113.465ZM330.845 116.156C330.299 116.156 329.818 116.048 329.402 115.831C328.986 115.614 328.665 115.311 328.44 114.921C328.215 114.522 328.102 114.063 328.102 113.543V112.009C328.102 111.489 328.215 111.034 328.44 110.644C328.665 110.245 328.986 109.938 329.402 109.721C329.818 109.504 330.299 109.396 330.845 109.396C331.356 109.396 331.811 109.504 332.21 109.721C332.617 109.929 332.934 110.219 333.159 110.592C333.384 110.965 333.497 111.389 333.497 111.866V112.009H332.327V111.866C332.327 111.467 332.188 111.142 331.911 110.891C331.634 110.631 331.278 110.501 330.845 110.501C330.36 110.501 329.978 110.64 329.701 110.917C329.424 111.186 329.285 111.558 329.285 112.035V113.517C329.285 113.994 329.424 114.371 329.701 114.648C329.978 114.917 330.36 115.051 330.845 115.051C331.278 115.051 331.634 114.93 331.911 114.687C332.188 114.436 332.327 114.115 332.327 113.725V113.582H333.497V113.725C333.497 114.453 333.254 115.042 332.769 115.493C332.284 115.935 331.642 116.156 330.845 116.156ZM335.899 113.205V113.517C335.899 114.002 336.037 114.384 336.315 114.661C336.601 114.93 336.991 115.064 337.485 115.064C337.901 115.064 338.247 114.96 338.525 114.752C338.811 114.544 338.958 114.288 338.967 113.985H340.137C340.102 114.626 339.842 115.151 339.357 115.558C338.871 115.957 338.247 116.156 337.485 116.156C336.653 116.156 335.985 115.922 335.483 115.454C334.98 114.977 334.729 114.345 334.729 113.556V112.009C334.729 111.489 334.841 111.034 335.067 110.644C335.292 110.245 335.613 109.938 336.029 109.721C336.445 109.504 336.921 109.396 337.459 109.396C338.273 109.396 338.923 109.634 339.409 110.111C339.894 110.588 340.137 111.216 340.137 111.996V113.205H335.899ZM337.459 110.488C336.982 110.488 336.601 110.631 336.315 110.917C336.037 111.194 335.899 111.571 335.899 112.048V112.23H338.967V112.048C338.967 111.571 338.828 111.194 338.551 110.917C338.282 110.631 337.918 110.488 337.459 110.488ZM347.875 114.934V117.703H346.692V116H341.973V117.703H340.803V114.934H341.609C341.938 114.319 342.112 113.591 342.129 112.75L342.168 109.552H346.913V114.934H347.875ZM345.743 114.934V110.618H343.26L343.221 112.802C343.204 113.617 343.052 114.327 342.766 114.934H345.743ZM351.284 116.156C350.46 116.156 349.802 115.918 349.308 115.441C348.814 114.964 348.567 114.332 348.567 113.543V112.022C348.567 111.225 348.814 110.588 349.308 110.111C349.802 109.634 350.46 109.396 351.284 109.396C352.116 109.396 352.779 109.634 353.273 110.111C353.775 110.588 354.027 111.225 354.027 112.022V113.543C354.027 114.332 353.775 114.964 353.273 115.441C352.779 115.918 352.116 116.156 351.284 116.156ZM351.297 115.051C351.773 115.051 352.15 114.912 352.428 114.635C352.714 114.358 352.857 113.985 352.857 113.517V112.061C352.857 111.576 352.718 111.194 352.441 110.917C352.163 110.64 351.782 110.501 351.297 110.501C350.82 110.501 350.439 110.64 350.153 110.917C349.875 111.194 349.737 111.576 349.737 112.061V113.517C349.737 113.994 349.875 114.371 350.153 114.648C350.439 114.917 350.82 115.051 351.297 115.051ZM359.663 112.737C359.993 112.858 360.244 113.04 360.417 113.283C360.591 113.517 360.677 113.803 360.677 114.141V114.323C360.677 114.904 360.435 115.354 359.949 115.675C359.473 115.996 358.805 116.156 357.947 116.156C357.089 116.156 356.413 115.961 355.919 115.571C355.434 115.181 355.191 114.652 355.191 113.985V113.725H356.361V113.92C356.361 114.31 356.5 114.609 356.777 114.817C357.055 115.016 357.458 115.116 357.986 115.116C358.489 115.116 358.866 115.038 359.117 114.882C359.377 114.726 359.507 114.496 359.507 114.193V114.076C359.507 113.807 359.416 113.604 359.234 113.465C359.052 113.318 358.797 113.244 358.467 113.244H357.128V112.23H358.402C358.74 112.23 359 112.161 359.182 112.022C359.364 111.883 359.455 111.688 359.455 111.437V111.32C359.455 111.034 359.33 110.817 359.078 110.67C358.836 110.523 358.472 110.449 357.986 110.449C357.458 110.449 357.055 110.557 356.777 110.774C356.5 110.982 356.361 111.285 356.361 111.684V111.853H355.191V111.658C355.191 111.216 355.304 110.826 355.529 110.488C355.763 110.141 356.088 109.877 356.504 109.695C356.92 109.504 357.401 109.409 357.947 109.409C358.771 109.409 359.421 109.569 359.897 109.89C360.374 110.211 360.612 110.648 360.612 111.203V111.385C360.612 112.018 360.296 112.468 359.663 112.737ZM366.512 112.711C366.859 112.841 367.123 113.032 367.305 113.283C367.496 113.534 367.591 113.829 367.591 114.167V114.349C367.591 114.869 367.401 115.276 367.019 115.571C366.638 115.857 366.075 116 365.329 116H362.092V109.552H365.173C365.927 109.552 366.491 109.695 366.863 109.981C367.236 110.258 367.422 110.661 367.422 111.19V111.359C367.422 111.68 367.344 111.957 367.188 112.191C367.032 112.416 366.807 112.59 366.512 112.711ZM363.262 110.501V112.282H365.251C365.563 112.282 365.806 112.208 365.979 112.061C366.161 111.905 366.252 111.701 366.252 111.45V111.307C366.252 111.056 366.161 110.861 365.979 110.722C365.806 110.575 365.559 110.501 365.238 110.501H363.262ZM366.421 114.05C366.421 113.781 366.33 113.578 366.148 113.439C365.966 113.292 365.711 113.218 365.381 113.218H363.262V115.051H365.394C365.706 115.051 365.953 114.977 366.135 114.83C366.326 114.674 366.421 114.466 366.421 114.206V114.05ZM371.507 116.156C370.684 116.156 370.025 115.918 369.531 115.441C369.037 114.964 368.79 114.332 368.79 113.543V112.022C368.79 111.225 369.037 110.588 369.531 110.111C370.025 109.634 370.684 109.396 371.507 109.396C372.339 109.396 373.002 109.634 373.496 110.111C373.999 110.588 374.25 111.225 374.25 112.022V113.543C374.25 114.332 373.999 114.964 373.496 115.441C373.002 115.918 372.339 116.156 371.507 116.156ZM371.52 115.051C371.997 115.051 372.374 114.912 372.651 114.635C372.937 114.358 373.08 113.985 373.08 113.517V112.061C373.08 111.576 372.942 111.194 372.664 110.917C372.387 110.64 372.006 110.501 371.52 110.501C371.044 110.501 370.662 110.64 370.376 110.917C370.099 111.194 369.96 111.576 369.96 112.061V113.517C369.96 113.994 370.099 114.371 370.376 114.648C370.662 114.917 371.044 115.051 371.52 115.051ZM380.929 116H379.759V110.618H377.276L377.211 113.673C377.194 114.47 377.029 115.06 376.717 115.441C376.414 115.814 375.946 116 375.313 116H374.962V114.934H375.17C375.491 114.934 375.72 114.826 375.859 114.609C376.006 114.392 376.089 114.041 376.106 113.556L376.197 109.552H380.929V116ZM383.595 113.205V113.517C383.595 114.002 383.734 114.384 384.011 114.661C384.297 114.93 384.687 115.064 385.181 115.064C385.597 115.064 385.944 114.96 386.221 114.752C386.507 114.544 386.654 114.288 386.663 113.985H387.833C387.798 114.626 387.538 115.151 387.053 115.558C386.568 115.957 385.944 116.156 385.181 116.156C384.349 116.156 383.682 115.922 383.179 115.454C382.676 114.977 382.425 114.345 382.425 113.556V112.009C382.425 111.489 382.538 111.034 382.763 110.644C382.988 110.245 383.309 109.938 383.725 109.721C384.141 109.504 384.618 109.396 385.155 109.396C385.97 109.396 386.62 109.634 387.105 110.111C387.59 110.588 387.833 111.216 387.833 111.996V113.205H383.595ZM385.155 110.488C384.678 110.488 384.297 110.631 384.011 110.917C383.734 111.194 383.595 111.571 383.595 112.048V112.23H386.663V112.048C386.663 111.571 386.524 111.194 386.247 110.917C385.978 110.631 385.614 110.488 385.155 110.488ZM390.494 109.565V112.23H393.471V109.565H394.654V116H393.471V113.296H390.494V116H389.324V109.565H390.494ZM397.54 109.565V112.23H400.517V109.565H401.7V116H400.517V113.296H397.54V116H396.37V109.565H397.54ZM405.912 116.156C405.088 116.156 404.43 115.918 403.936 115.441C403.442 114.964 403.195 114.332 403.195 113.543V112.022C403.195 111.225 403.442 110.588 403.936 110.111C404.43 109.634 405.088 109.396 405.912 109.396C406.744 109.396 407.407 109.634 407.901 110.111C408.403 110.588 408.655 111.225 408.655 112.022V113.543C408.655 114.332 408.403 114.964 407.901 115.441C407.407 115.918 406.744 116.156 405.912 116.156ZM405.925 115.051C406.401 115.051 406.778 114.912 407.056 114.635C407.342 114.358 407.485 113.985 407.485 113.517V112.061C407.485 111.576 407.346 111.194 407.069 110.917C406.791 110.64 406.41 110.501 405.925 110.501C405.448 110.501 405.067 110.64 404.781 110.917C404.503 111.194 404.365 111.576 404.365 112.061V113.517C404.365 113.994 404.503 114.371 404.781 114.648C405.067 114.917 405.448 115.051 405.925 115.051ZM412.666 116.156C412.12 116.156 411.639 116.048 411.223 115.831C410.807 115.614 410.486 115.311 410.261 114.921C410.036 114.522 409.923 114.063 409.923 113.543V112.009C409.923 111.489 410.036 111.034 410.261 110.644C410.486 110.245 410.807 109.938 411.223 109.721C411.639 109.504 412.12 109.396 412.666 109.396C413.177 109.396 413.632 109.504 414.031 109.721C414.438 109.929 414.755 110.219 414.98 110.592C415.205 110.965 415.318 111.389 415.318 111.866V112.009H414.148V111.866C414.148 111.467 414.009 111.142 413.732 110.891C413.455 110.631 413.099 110.501 412.666 110.501C412.181 110.501 411.799 110.64 411.522 110.917C411.245 111.186 411.106 111.558 411.106 112.035V113.517C411.106 113.994 411.245 114.371 411.522 114.648C411.799 114.917 412.181 115.051 412.666 115.051C413.099 115.051 413.455 114.93 413.732 114.687C414.009 114.436 414.148 114.115 414.148 113.725V113.582H415.318V113.725C415.318 114.453 415.075 115.042 414.59 115.493C414.105 115.935 413.463 116.156 412.666 116.156ZM415.853 110.618V109.552H421.326V110.618H419.181V116H417.998V110.618H415.853ZM425.53 111.788C426.214 111.788 426.76 111.974 427.168 112.347C427.575 112.72 427.779 113.214 427.779 113.829V113.959C427.779 114.574 427.575 115.068 427.168 115.441C426.76 115.814 426.214 116 425.53 116H422.332V109.552H423.502V111.788H425.53ZM426.609 113.842C426.609 113.53 426.509 113.287 426.31 113.114C426.11 112.941 425.833 112.854 425.478 112.854H423.502V114.934H425.478C425.833 114.934 426.11 114.852 426.31 114.687C426.509 114.514 426.609 114.267 426.609 113.946V113.842Z" fill="#261E1E"/>
</g>
<defs>
<linearGradient id="paint0_linear_2815_83207" x1="448.531" y1="37.9377" x2="-0.937705" y2="37.9377" gradientUnits="userSpaceOnUse">
<stop stop-color="#D7DD93" stop-opacity="0"/>
<stop offset="0.302083" stop-color="#D7DD93"/>
</linearGradient>
</defs>
</svg>
