<svg width="458" height="175" viewBox="0 0 458 175" fill="none" xmlns="http://www.w3.org/2000/svg">
<line opacity="0.1" x1="2" y1="111.847" x2="450" y2="111.847" stroke="#966F7B"/>
<path opacity="0.1" d="M2 4C2 1.79086 3.79086 0 6 0H68.9703C71.1794 0 72.9703 1.79086 72.9703 4V19.8613C72.9703 22.0704 71.1794 23.8613 68.9703 23.8613H6C3.79087 23.8613 2 22.0704 2 19.8613V4Z" fill="#F6C0B1"/>
<path opacity="0.1" d="M2 31.8381C2 29.629 3.79086 27.8381 6 27.8381H68.9703C71.1794 27.8381 72.9703 29.629 72.9703 31.8381V47.6994C72.9703 49.9085 71.1794 51.6994 68.9703 51.6994H6C3.79087 51.6994 2 49.9085 2 47.6994V31.8381Z" fill="#F6C0B1"/>
<path opacity="0.1" d="M2 59.6763C2 57.4671 3.79086 55.6763 6 55.6763H68.9703C71.1794 55.6763 72.9703 57.4671 72.9703 59.6763V75.5375C72.9703 77.7467 71.1794 79.5375 68.9703 79.5375H6C3.79087 79.5375 2 77.7467 2 75.5375V59.6763Z" fill="#F6C0B1"/>
<path opacity="0.1" d="M2 87.5144C2 85.3053 3.79086 83.5144 6 83.5144H68.9703C71.1794 83.5144 72.9703 85.3053 72.9703 87.5144V103.376C72.9703 105.585 71.1794 107.376 68.9703 107.376H6C3.79087 107.376 2 105.585 2 103.376V87.5144Z" fill="#F6C0B1"/>
<path opacity="0.1" d="M2 120.324C2 118.115 3.79086 116.324 6 116.324H68.9703C71.1794 116.324 72.9703 118.115 72.9703 120.324V136.185C72.9703 138.394 71.1794 140.185 68.9703 140.185H6C3.79087 140.185 2 138.394 2 136.185V120.324Z" fill="#F6C0B1"/>
<path opacity="0.1" d="M2 148.162C2 145.953 3.79086 144.162 6 144.162H68.9703C71.1794 144.162 72.9703 145.953 72.9703 148.162V164.023C72.9703 166.232 71.1794 168.023 68.9703 168.023H6C3.79087 168.023 2 166.232 2 164.023V148.162Z" fill="#F6C0B1"/>
<path opacity="0.1" d="M77.4059 4C77.4059 1.79086 79.1968 0 81.4059 0H144.376C146.585 0 148.376 1.79086 148.376 4V19.8613C148.376 22.0704 146.585 23.8613 144.376 23.8613H81.4059C79.1968 23.8613 77.4059 22.0704 77.4059 19.8613V4Z" fill="#F6C0B1"/>
<path opacity="0.1" d="M77.4059 31.8381C77.4059 29.629 79.1968 27.8381 81.4059 27.8381H144.376C146.585 27.8381 148.376 29.629 148.376 31.8381V47.6994C148.376 49.9085 146.585 51.6994 144.376 51.6994H81.4059C79.1968 51.6994 77.4059 49.9085 77.4059 47.6994V31.8381Z" fill="#F6C0B1"/>
<path opacity="0.1" d="M77.4059 59.6763C77.4059 57.4671 79.1968 55.6763 81.4059 55.6763H144.376C146.585 55.6763 148.376 57.4671 148.376 59.6763V75.5375C148.376 77.7467 146.585 79.5375 144.376 79.5375H81.4059C79.1968 79.5375 77.4059 77.7467 77.4059 75.5375V59.6763Z" fill="#F6C0B1"/>
<path opacity="0.1" d="M77.4059 87.5144C77.4059 85.3053 79.1968 83.5144 81.4059 83.5144H144.376C146.585 83.5144 148.376 85.3053 148.376 87.5144V103.376C148.376 105.585 146.585 107.376 144.376 107.376H81.4059C79.1968 107.376 77.4059 105.585 77.4059 103.376V87.5144Z" fill="#F6C0B1"/>
<path opacity="0.1" d="M77.4059 120.324C77.4059 118.115 79.1968 116.324 81.4059 116.324H144.376C146.585 116.324 148.376 118.115 148.376 120.324V136.185C148.376 138.394 146.585 140.185 144.376 140.185H81.4059C79.1968 140.185 77.4059 138.394 77.4059 136.185V120.324Z" fill="#F6C0B1"/>
<path opacity="0.1" d="M77.4059 148.162C77.4059 145.953 79.1968 144.162 81.4059 144.162H144.376C146.585 144.162 148.376 145.953 148.376 148.162V164.023C148.376 166.232 146.585 168.023 144.376 168.023H81.4059C79.1968 168.023 77.4059 166.232 77.4059 164.023V148.162Z" fill="#F6C0B1"/>
<path opacity="0.1" d="M152.812 4C152.812 1.79086 154.603 0 156.812 0H219.782C221.991 0 223.782 1.79086 223.782 4V19.8613C223.782 22.0704 221.991 23.8613 219.782 23.8613H156.812C154.603 23.8613 152.812 22.0704 152.812 19.8613V4Z" fill="#F6C0B1"/>
<path opacity="0.1" d="M152.812 31.8381C152.812 29.629 154.603 27.8381 156.812 27.8381H219.782C221.991 27.8381 223.782 29.629 223.782 31.8381V47.6994C223.782 49.9085 221.991 51.6994 219.782 51.6994H156.812C154.603 51.6994 152.812 49.9085 152.812 47.6994V31.8381Z" fill="#F6C0B1"/>
<path opacity="0.1" d="M152.812 59.6763C152.812 57.4671 154.603 55.6763 156.812 55.6763H219.782C221.991 55.6763 223.782 57.4671 223.782 59.6763V75.5375C223.782 77.7467 221.991 79.5375 219.782 79.5375H156.812C154.603 79.5375 152.812 77.7467 152.812 75.5375V59.6763Z" fill="#F6C0B1"/>
<path opacity="0.1" d="M152.812 87.5144C152.812 85.3053 154.603 83.5144 156.812 83.5144H219.782C221.991 83.5144 223.782 85.3053 223.782 87.5144V103.376C223.782 105.585 221.991 107.376 219.782 107.376H156.812C154.603 107.376 152.812 105.585 152.812 103.376V87.5144Z" fill="#F6C0B1"/>
<path opacity="0.1" d="M152.812 120.324C152.812 118.115 154.603 116.324 156.812 116.324H219.782C221.991 116.324 223.782 118.115 223.782 120.324V136.185C223.782 138.394 221.991 140.185 219.782 140.185H156.812C154.603 140.185 152.812 138.394 152.812 136.185V120.324Z" fill="#F6C0B1"/>
<path opacity="0.1" d="M152.812 148.162C152.812 145.953 154.603 144.162 156.812 144.162H219.782C221.991 144.162 223.782 145.953 223.782 148.162V164.023C223.782 166.232 221.991 168.023 219.782 168.023H156.812C154.603 168.023 152.812 166.232 152.812 164.023V148.162Z" fill="#F6C0B1"/>
<path opacity="0.1" d="M228.218 4C228.218 1.79086 230.009 0 232.218 0H295.188C297.397 0 299.188 1.79086 299.188 4V19.8613C299.188 22.0704 297.397 23.8613 295.188 23.8613H232.218C230.009 23.8613 228.218 22.0704 228.218 19.8613V4Z" fill="#F6C0B1"/>
<path opacity="0.1" d="M228.218 31.8381C228.218 29.629 230.009 27.8381 232.218 27.8381H295.188C297.397 27.8381 299.188 29.629 299.188 31.8381V47.6994C299.188 49.9085 297.397 51.6994 295.188 51.6994H232.218C230.009 51.6994 228.218 49.9085 228.218 47.6994V31.8381Z" fill="#F6C0B1"/>
<path opacity="0.1" d="M228.218 59.6763C228.218 57.4671 230.009 55.6763 232.218 55.6763H295.188C297.397 55.6763 299.188 57.4671 299.188 59.6763V75.5375C299.188 77.7467 297.397 79.5375 295.188 79.5375H232.218C230.009 79.5375 228.218 77.7467 228.218 75.5375V59.6763Z" fill="#F6C0B1"/>
<path opacity="0.1" d="M228.218 87.5144C228.218 85.3053 230.009 83.5144 232.218 83.5144H295.188C297.397 83.5144 299.188 85.3053 299.188 87.5144V103.376C299.188 105.585 297.397 107.376 295.188 107.376H232.218C230.009 107.376 228.218 105.585 228.218 103.376V87.5144Z" fill="#F6C0B1"/>
<path opacity="0.1" d="M228.218 120.324C228.218 118.115 230.009 116.324 232.218 116.324H295.188C297.397 116.324 299.188 118.115 299.188 120.324V136.185C299.188 138.394 297.397 140.185 295.188 140.185H232.218C230.009 140.185 228.218 138.394 228.218 136.185V120.324Z" fill="#F6C0B1"/>
<path opacity="0.1" d="M228.218 148.162C228.218 145.953 230.009 144.162 232.218 144.162H295.188C297.397 144.162 299.188 145.953 299.188 148.162V164.023C299.188 166.232 297.397 168.023 295.188 168.023H232.218C230.009 168.023 228.218 166.232 228.218 164.023V148.162Z" fill="#F6C0B1"/>
<path opacity="0.1" d="M303.624 4C303.624 1.79086 305.415 0 307.624 0H370.594C372.803 0 374.594 1.79086 374.594 4V19.8613C374.594 22.0704 372.803 23.8613 370.594 23.8613H307.624C305.415 23.8613 303.624 22.0704 303.624 19.8613V4Z" fill="#F6C0B1"/>
<path opacity="0.1" d="M303.624 31.8381C303.624 29.629 305.415 27.8381 307.624 27.8381H370.594C372.803 27.8381 374.594 29.629 374.594 31.8381V47.6994C374.594 49.9085 372.803 51.6994 370.594 51.6994H307.624C305.415 51.6994 303.624 49.9085 303.624 47.6994V31.8381Z" fill="#F6C0B1"/>
<path opacity="0.1" d="M303.624 59.6763C303.624 57.4671 305.415 55.6763 307.624 55.6763H370.594C372.803 55.6763 374.594 57.4671 374.594 59.6763V75.5375C374.594 77.7467 372.803 79.5375 370.594 79.5375H307.624C305.415 79.5375 303.624 77.7467 303.624 75.5375V59.6763Z" fill="#F6C0B1"/>
<path opacity="0.1" d="M303.624 87.5144C303.624 85.3053 305.415 83.5144 307.624 83.5144H370.594C372.803 83.5144 374.594 85.3053 374.594 87.5144V103.376C374.594 105.585 372.803 107.376 370.594 107.376H307.624C305.415 107.376 303.624 105.585 303.624 103.376V87.5144Z" fill="#F6C0B1"/>
<path opacity="0.1" d="M303.624 120.324C303.624 118.115 305.415 116.324 307.624 116.324H370.594C372.803 116.324 374.594 118.115 374.594 120.324V136.185C374.594 138.394 372.803 140.185 370.594 140.185H307.624C305.415 140.185 303.624 138.394 303.624 136.185V120.324Z" fill="#F6C0B1"/>
<path opacity="0.1" d="M303.624 148.162C303.624 145.953 305.415 144.162 307.624 144.162H370.594C372.803 144.162 374.594 145.953 374.594 148.162V164.023C374.594 166.232 372.803 168.023 370.594 168.023H307.624C305.415 168.023 303.624 166.232 303.624 164.023V148.162Z" fill="#F6C0B1"/>
<path opacity="0.1" d="M379.03 4C379.03 1.79086 380.821 0 383.03 0H446C448.209 0 450 1.79086 450 4V19.8613C450 22.0704 448.209 23.8613 446 23.8613H383.03C380.821 23.8613 379.03 22.0704 379.03 19.8613V4Z" fill="#F6C0B1"/>
<path opacity="0.1" d="M379.03 31.8381C379.03 29.629 380.821 27.8381 383.03 27.8381H446C448.209 27.8381 450 29.629 450 31.8381V47.6994C450 49.9085 448.209 51.6994 446 51.6994H383.03C380.821 51.6994 379.03 49.9085 379.03 47.6994V31.8381Z" fill="#F6C0B1"/>
<path opacity="0.1" d="M379.03 59.6763C379.03 57.4671 380.821 55.6763 383.03 55.6763H446C448.209 55.6763 450 57.4671 450 59.6763V75.5375C450 77.7467 448.209 79.5375 446 79.5375H383.03C380.821 79.5375 379.03 77.7467 379.03 75.5375V59.6763Z" fill="#F6C0B1"/>
<path opacity="0.1" d="M379.03 87.5144C379.03 85.3053 380.821 83.5144 383.03 83.5144H446C448.209 83.5144 450 85.3053 450 87.5144V103.376C450 105.585 448.209 107.376 446 107.376H383.03C380.821 107.376 379.03 105.585 379.03 103.376V87.5144Z" fill="#F6C0B1"/>
<path opacity="0.1" d="M379.03 120.324C379.03 118.115 380.821 116.324 383.03 116.324H446C448.209 116.324 450 118.115 450 120.324V136.185C450 138.394 448.209 140.185 446 140.185H383.03C380.821 140.185 379.03 138.394 379.03 136.185V120.324Z" fill="#F6C0B1"/>
<path opacity="0.1" d="M379.03 148.162C379.03 145.953 380.821 144.162 383.03 144.162H446C448.209 144.162 450 145.953 450 148.162V164.023C450 166.232 448.209 168.023 446 168.023H383.03C380.821 168.023 379.03 166.232 379.03 164.023V148.162Z" fill="#F6C0B1"/>
<path d="M2 107.208L67.1669 14.8074C71.2656 8.9957 78.7085 6.58694 85.4351 8.8951L148.995 30.7049L221.123 55.2502C223.939 56.2083 226.432 57.9322 228.322 60.2285L296.956 143.606C299.995 147.298 304.526 149.437 309.309 149.437H374.764C376.439 149.437 378.103 149.7 379.697 150.216L450 173" stroke="url(#paint0_linear_2816_83495)" stroke-width="4" stroke-linecap="round" stroke-linejoin="round"/>
<rect x="67" y="48" width="67" height="24" rx="4" fill="#F6C0B1"/>
<path d="M77.106 55.472V61.842L80.655 55.472H81.877V64H80.681V57.643L77.132 64H75.91V55.472H77.106ZM90.2052 62.934V65.703H89.0222V64H84.3032V65.703H83.1332V62.934H83.9392C84.2686 62.3187 84.4419 61.5907 84.4592 60.75L84.4982 57.552H89.2432V62.934H90.2052ZM88.0732 62.934V58.618H85.5902L85.5512 60.802C85.5339 61.6167 85.3822 62.3273 85.0962 62.934H88.0732ZM92.4519 57.552V62.141L95.4939 57.552H96.5729V64H95.4289V59.411L92.3999 64H91.3209V57.552H92.4519ZM103.569 64H102.399V58.618H99.9156L99.8506 61.673C99.8333 62.4703 99.6686 63.0597 99.3566 63.441C99.0533 63.8137 98.5853 64 97.9526 64H97.6016V62.934H97.8096C98.1303 62.934 98.36 62.8257 98.4986 62.609C98.646 62.3923 98.7283 62.0413 98.7456 61.556L98.8366 57.552H103.569V64ZM110.564 64H109.394V58.618H106.911L106.846 61.673C106.828 62.4703 106.664 63.0597 106.352 63.441C106.048 63.8137 105.58 64 104.948 64H104.597V62.934H104.805C105.125 62.934 105.355 62.8257 105.494 62.609C105.641 62.3923 105.723 62.0413 105.741 61.556L105.832 57.552H110.564V64ZM113.412 57.552V62.141L116.454 57.552H117.533V64H116.389V59.411L113.36 64H112.281V57.552H113.412ZM124.337 64H123.154V61.595H122.075L120.125 64H118.812V63.844L120.671 61.556C120.099 61.4693 119.648 61.2657 119.319 60.945C118.998 60.6157 118.838 60.204 118.838 59.71V59.528C118.838 58.9213 119.055 58.4403 119.488 58.085C119.921 57.7297 120.498 57.552 121.217 57.552H124.337V64ZM123.154 60.594V58.605H121.23C120.857 58.605 120.563 58.6873 120.346 58.852C120.129 59.0167 120.021 59.2463 120.021 59.541V59.697C120.021 59.983 120.125 60.204 120.333 60.36C120.55 60.516 120.849 60.594 121.23 60.594H123.154Z" fill="#261E1E"/>
<g opacity="0.75">
<rect x="156" y="92" width="68" height="24" rx="4" fill="#F6C0B1"/>
<path d="M164.143 100.577V99.472H170.227V100.577H167.796V108H166.587V100.577H164.143ZM173.293 101.396C174.047 101.396 174.649 101.63 175.1 102.098C175.551 102.557 175.776 103.173 175.776 103.944V105.608C175.776 106.379 175.551 106.999 175.1 107.467C174.649 107.926 174.047 108.156 173.293 108.156C172.574 108.156 171.984 107.939 171.525 107.506V110.21H170.355V101.552H171.408L171.46 102.098C171.928 101.63 172.539 101.396 173.293 101.396ZM174.593 103.996C174.593 103.537 174.454 103.173 174.177 102.904C173.908 102.635 173.54 102.501 173.072 102.501C172.734 102.501 172.426 102.579 172.149 102.735C171.88 102.882 171.672 103.09 171.525 103.359V106.206C171.672 106.466 171.88 106.674 172.149 106.83C172.418 106.977 172.725 107.051 173.072 107.051C173.54 107.051 173.908 106.917 174.177 106.648C174.454 106.379 174.593 106.015 174.593 105.556V103.996ZM183.332 106.934V108H182.643C182.331 108 182.058 107.948 181.824 107.844C181.599 107.731 181.426 107.571 181.304 107.363C180.828 107.892 180.152 108.156 179.276 108.156C178.583 108.156 178.033 107.991 177.625 107.662C177.218 107.333 177.014 106.878 177.014 106.297C177.014 105.768 177.188 105.352 177.534 105.049C177.881 104.746 178.414 104.546 179.133 104.451L181.07 104.191V103.775C181.07 103.359 180.949 103.043 180.706 102.826C180.472 102.609 180.126 102.501 179.666 102.501C179.216 102.501 178.865 102.609 178.613 102.826C178.371 103.034 178.249 103.329 178.249 103.71V103.801H177.066V103.71C177.066 102.999 177.3 102.436 177.768 102.02C178.245 101.604 178.891 101.396 179.705 101.396C180.52 101.396 181.148 101.608 181.59 102.033C182.032 102.449 182.253 103.038 182.253 103.801V106.284C182.253 106.717 182.461 106.934 182.877 106.934H183.332ZM179.354 107.142C179.736 107.142 180.074 107.06 180.368 106.895C180.672 106.73 180.906 106.505 181.07 106.219V105.114L179.328 105.374C178.566 105.495 178.184 105.799 178.184 106.284C178.184 106.553 178.288 106.765 178.496 106.921C178.713 107.068 178.999 107.142 179.354 107.142ZM188.247 101.552V102.618H185.426V108H184.256V101.552H188.247ZM189.953 105.205V105.517C189.953 106.002 190.092 106.384 190.369 106.661C190.655 106.93 191.045 107.064 191.539 107.064C191.955 107.064 192.302 106.96 192.579 106.752C192.865 106.544 193.013 106.288 193.021 105.985H194.191C194.157 106.626 193.897 107.151 193.411 107.558C192.926 107.957 192.302 108.156 191.539 108.156C190.707 108.156 190.04 107.922 189.537 107.454C189.035 106.977 188.783 106.345 188.783 105.556V104.009C188.783 103.489 188.896 103.034 189.121 102.644C189.347 102.245 189.667 101.938 190.083 101.721C190.499 101.504 190.976 101.396 191.513 101.396C192.328 101.396 192.978 101.634 193.463 102.111C193.949 102.588 194.191 103.216 194.191 103.996V105.205H189.953ZM191.513 102.488C191.037 102.488 190.655 102.631 190.369 102.917C190.092 103.194 189.953 103.571 189.953 104.048V104.23H193.021V104.048C193.021 103.571 192.883 103.194 192.605 102.917C192.337 102.631 191.973 102.488 191.513 102.488ZM201.93 106.934V109.703H200.747V108H196.028V109.703H194.858V106.934H195.664C195.993 106.319 196.167 105.591 196.184 104.75L196.223 101.552H200.968V106.934H201.93ZM199.798 106.934V102.618H197.315L197.276 104.802C197.259 105.617 197.107 106.327 196.821 106.934H199.798ZM204.177 101.552V106.141L207.219 101.552H208.298V108H207.154V103.411L204.125 108H203.045V101.552H204.177ZM215.102 108H213.919V105.595H212.84L210.89 108H209.577V107.844L211.436 105.556C210.864 105.469 210.413 105.266 210.084 104.945C209.763 104.616 209.603 104.204 209.603 103.71V103.528C209.603 102.921 209.819 102.44 210.253 102.085C210.686 101.73 211.262 101.552 211.982 101.552H215.102V108ZM213.919 104.594V102.605H211.995C211.622 102.605 211.327 102.687 211.111 102.852C210.894 103.017 210.786 103.246 210.786 103.541V103.697C210.786 103.983 210.89 104.204 211.098 104.36C211.314 104.516 211.613 104.594 211.995 104.594H213.919Z" fill="#261E1E"/>
</g>
<g opacity="0.7">
<rect x="313" y="104" width="114" height="24" rx="4" fill="#F6C0B1"/>
<path d="M325.03 120.156C324.389 120.156 323.821 120.026 323.327 119.766C322.833 119.497 322.452 119.125 322.183 118.648C321.914 118.171 321.78 117.625 321.78 117.01V114.475C321.78 113.851 321.914 113.301 322.183 112.824C322.46 112.347 322.842 111.979 323.327 111.719C323.821 111.45 324.389 111.316 325.03 111.316C325.671 111.316 326.239 111.45 326.733 111.719C327.227 111.979 327.608 112.352 327.877 112.837C328.154 113.314 328.293 113.86 328.293 114.475V117.01C328.293 117.625 328.154 118.171 327.877 118.648C327.608 119.125 327.227 119.497 326.733 119.766C326.248 120.026 325.68 120.156 325.03 120.156ZM325.03 119.025C325.671 119.025 326.174 118.843 326.538 118.479C326.902 118.106 327.084 117.604 327.084 116.971V114.527C327.084 113.868 326.902 113.357 326.538 112.993C326.174 112.629 325.671 112.447 325.03 112.447C324.389 112.447 323.89 112.629 323.535 112.993C323.18 113.357 323.002 113.868 323.002 114.527V116.971C323.002 117.621 323.18 118.128 323.535 118.492C323.89 118.847 324.389 119.025 325.03 119.025ZM335.236 113.552V120H334.053V114.618H331.115V120H329.945V113.552H335.236ZM342.673 113.552V113.734L339.982 120.754C339.782 121.274 339.527 121.647 339.215 121.872C338.911 122.097 338.491 122.21 337.954 122.21H336.927V121.144H337.85C338.118 121.144 338.326 121.096 338.474 121.001C338.63 120.906 338.764 120.706 338.877 120.403L338.994 120.078L336.459 113.734V113.552H337.655L339.605 118.557L341.477 113.552H342.673ZM346.165 120.156C345.619 120.156 345.138 120.048 344.722 119.831C344.306 119.614 343.985 119.311 343.76 118.921C343.535 118.522 343.422 118.063 343.422 117.543V116.009C343.422 115.489 343.535 115.034 343.76 114.644C343.985 114.245 344.306 113.938 344.722 113.721C345.138 113.504 345.619 113.396 346.165 113.396C346.676 113.396 347.131 113.504 347.53 113.721C347.937 113.929 348.254 114.219 348.479 114.592C348.704 114.965 348.817 115.389 348.817 115.866V116.009H347.647V115.866C347.647 115.467 347.508 115.142 347.231 114.891C346.954 114.631 346.598 114.501 346.165 114.501C345.68 114.501 345.298 114.64 345.021 114.917C344.744 115.186 344.605 115.558 344.605 116.035V117.517C344.605 117.994 344.744 118.371 345.021 118.648C345.298 118.917 345.68 119.051 346.165 119.051C346.598 119.051 346.954 118.93 347.231 118.687C347.508 118.436 347.647 118.115 347.647 117.725V117.582H348.817V117.725C348.817 118.453 348.574 119.042 348.089 119.493C347.604 119.935 346.962 120.156 346.165 120.156ZM349.352 114.618V113.552H354.825V114.618H352.68V120H351.497V114.618H349.352ZM358.124 120.156C357.3 120.156 356.642 119.918 356.148 119.441C355.654 118.964 355.407 118.332 355.407 117.543V116.022C355.407 115.225 355.654 114.588 356.148 114.111C356.642 113.634 357.3 113.396 358.124 113.396C358.956 113.396 359.619 113.634 360.113 114.111C360.615 114.588 360.867 115.225 360.867 116.022V117.543C360.867 118.332 360.615 118.964 360.113 119.441C359.619 119.918 358.956 120.156 358.124 120.156ZM358.137 119.051C358.613 119.051 358.99 118.912 359.268 118.635C359.554 118.358 359.697 117.985 359.697 117.517V116.061C359.697 115.576 359.558 115.194 359.281 114.917C359.003 114.64 358.622 114.501 358.137 114.501C357.66 114.501 357.279 114.64 356.993 114.917C356.715 115.194 356.577 115.576 356.577 116.061V117.517C356.577 117.994 356.715 118.371 356.993 118.648C357.279 118.917 357.66 119.051 358.137 119.051ZM363.526 113.552V118.934H366.165V113.552H367.348V118.934H369.961V113.552H371.144V120H362.356V113.552H363.526ZM373.804 117.205V117.517C373.804 118.002 373.943 118.384 374.22 118.661C374.506 118.93 374.896 119.064 375.39 119.064C375.806 119.064 376.153 118.96 376.43 118.752C376.716 118.544 376.863 118.288 376.872 117.985H378.042C378.007 118.626 377.747 119.151 377.262 119.558C376.777 119.957 376.153 120.156 375.39 120.156C374.558 120.156 373.891 119.922 373.388 119.454C372.885 118.977 372.634 118.345 372.634 117.556V116.009C372.634 115.489 372.747 115.034 372.972 114.644C373.197 114.245 373.518 113.938 373.934 113.721C374.35 113.504 374.827 113.396 375.364 113.396C376.179 113.396 376.829 113.634 377.314 114.111C377.799 114.588 378.042 115.216 378.042 115.996V117.205H373.804ZM375.364 114.488C374.887 114.488 374.506 114.631 374.22 114.917C373.943 115.194 373.804 115.571 373.804 116.048V116.23H376.872V116.048C376.872 115.571 376.733 115.194 376.456 114.917C376.187 114.631 375.823 114.488 375.364 114.488ZM380.703 113.565V116.23H383.68V113.565H384.863V120H383.68V117.296H380.703V120H379.533V113.565H380.703ZM387.749 113.565V116.23H390.726V113.565H391.909V120H390.726V117.296H387.749V120H386.579V113.565H387.749ZM396.121 120.156C395.297 120.156 394.639 119.918 394.145 119.441C393.651 118.964 393.404 118.332 393.404 117.543V116.022C393.404 115.225 393.651 114.588 394.145 114.111C394.639 113.634 395.297 113.396 396.121 113.396C396.953 113.396 397.616 113.634 398.11 114.111C398.612 114.588 398.864 115.225 398.864 116.022V117.543C398.864 118.332 398.612 118.964 398.11 119.441C397.616 119.918 396.953 120.156 396.121 120.156ZM396.134 119.051C396.61 119.051 396.987 118.912 397.265 118.635C397.551 118.358 397.694 117.985 397.694 117.517V116.061C397.694 115.576 397.555 115.194 397.278 114.917C397 114.64 396.619 114.501 396.134 114.501C395.657 114.501 395.276 114.64 394.99 114.917C394.712 115.194 394.574 115.576 394.574 116.061V117.517C394.574 117.994 394.712 118.371 394.99 118.648C395.276 118.917 395.657 119.051 396.134 119.051ZM402.875 120.156C402.329 120.156 401.848 120.048 401.432 119.831C401.016 119.614 400.695 119.311 400.47 118.921C400.245 118.522 400.132 118.063 400.132 117.543V116.009C400.132 115.489 400.245 115.034 400.47 114.644C400.695 114.245 401.016 113.938 401.432 113.721C401.848 113.504 402.329 113.396 402.875 113.396C403.386 113.396 403.841 113.504 404.24 113.721C404.647 113.929 404.964 114.219 405.189 114.592C405.414 114.965 405.527 115.389 405.527 115.866V116.009H404.357V115.866C404.357 115.467 404.218 115.142 403.941 114.891C403.664 114.631 403.308 114.501 402.875 114.501C402.39 114.501 402.008 114.64 401.731 114.917C401.454 115.186 401.315 115.558 401.315 116.035V117.517C401.315 117.994 401.454 118.371 401.731 118.648C402.008 118.917 402.39 119.051 402.875 119.051C403.308 119.051 403.664 118.93 403.941 118.687C404.218 118.436 404.357 118.115 404.357 117.725V117.582H405.527V117.725C405.527 118.453 405.284 119.042 404.799 119.493C404.314 119.935 403.672 120.156 402.875 120.156ZM406.062 114.618V113.552H411.535V114.618H409.39V120H408.207V114.618H406.062ZM415.739 115.788C416.423 115.788 416.969 115.974 417.377 116.347C417.784 116.72 417.988 117.214 417.988 117.829V117.959C417.988 118.574 417.784 119.068 417.377 119.441C416.969 119.814 416.423 120 415.739 120H412.541V113.552H413.711V115.788H415.739ZM416.818 117.842C416.818 117.53 416.718 117.287 416.519 117.114C416.319 116.941 416.042 116.854 415.687 116.854H413.711V118.934H415.687C416.042 118.934 416.319 118.852 416.519 118.687C416.718 118.514 416.818 118.267 416.818 117.946V117.842Z" fill="#261E1E"/>
</g>
<defs>
<linearGradient id="paint0_linear_2816_83495" x1="448.531" y1="34.1146" x2="-0.937705" y2="34.1146" gradientUnits="userSpaceOnUse">
<stop stop-color="#F6C0B1" stop-opacity="0"/>
<stop offset="0.302083" stop-color="#F6C0B1"/>
</linearGradient>
</defs>
</svg>
