<svg width="458" height="172" viewBox="0 0 458 172" fill="none" xmlns="http://www.w3.org/2000/svg">
<line opacity="0.1" x1="2" y1="111.847" x2="450" y2="111.847" stroke="#966F7B"/>
<path opacity="0.1" d="M2 4C2 1.79086 3.79086 0 6 0H68.9703C71.1794 0 72.9703 1.79086 72.9703 4V19.8613C72.9703 22.0704 71.1794 23.8613 68.9703 23.8613H6C3.79087 23.8613 2 22.0704 2 19.8613V4Z" fill="#D7DD93"/>
<path opacity="0.1" d="M2 31.8381C2 29.629 3.79086 27.8381 6 27.8381H68.9703C71.1794 27.8381 72.9703 29.629 72.9703 31.8381V47.6994C72.9703 49.9085 71.1794 51.6994 68.9703 51.6994H6C3.79087 51.6994 2 49.9085 2 47.6994V31.8381Z" fill="#D7DD93"/>
<path opacity="0.1" d="M2 59.6763C2 57.4671 3.79086 55.6763 6 55.6763H68.9703C71.1794 55.6763 72.9703 57.4671 72.9703 59.6763V75.5375C72.9703 77.7467 71.1794 79.5375 68.9703 79.5375H6C3.79087 79.5375 2 77.7467 2 75.5375V59.6763Z" fill="#D7DD93"/>
<path opacity="0.1" d="M2 87.5144C2 85.3053 3.79086 83.5144 6 83.5144H68.9703C71.1794 83.5144 72.9703 85.3053 72.9703 87.5144V103.376C72.9703 105.585 71.1794 107.376 68.9703 107.376H6C3.79087 107.376 2 105.585 2 103.376V87.5144Z" fill="#D7DD93"/>
<path opacity="0.1" d="M2 120.324C2 118.115 3.79086 116.324 6 116.324H68.9703C71.1794 116.324 72.9703 118.115 72.9703 120.324V136.185C72.9703 138.394 71.1794 140.185 68.9703 140.185H6C3.79087 140.185 2 138.394 2 136.185V120.324Z" fill="#D7DD93"/>
<path opacity="0.1" d="M2 148.162C2 145.953 3.79086 144.162 6 144.162H68.9703C71.1794 144.162 72.9703 145.953 72.9703 148.162V164.023C72.9703 166.232 71.1794 168.023 68.9703 168.023H6C3.79087 168.023 2 166.232 2 164.023V148.162Z" fill="#D7DD93"/>
<path opacity="0.1" d="M77.4059 4C77.4059 1.79086 79.1967 0 81.4059 0H144.376C146.585 0 148.376 1.79086 148.376 4V19.8613C148.376 22.0704 146.585 23.8613 144.376 23.8613H81.4059C79.1967 23.8613 77.4059 22.0704 77.4059 19.8613V4Z" fill="#D7DD93"/>
<path opacity="0.1" d="M77.406 31.8381C77.406 29.629 79.1969 27.8381 81.406 27.8381H144.376C146.585 27.8381 148.376 29.629 148.376 31.8381V47.6994C148.376 49.9085 146.585 51.6994 144.376 51.6994H81.406C79.1969 51.6994 77.406 49.9085 77.406 47.6994V31.8381Z" fill="#D7DD93"/>
<path opacity="0.1" d="M77.406 59.6763C77.406 57.4671 79.1969 55.6763 81.406 55.6763H144.376C146.585 55.6763 148.376 57.4671 148.376 59.6763V75.5375C148.376 77.7467 146.585 79.5375 144.376 79.5375H81.406C79.1969 79.5375 77.406 77.7467 77.406 75.5375V59.6763Z" fill="#D7DD93"/>
<path opacity="0.1" d="M77.406 87.5144C77.406 85.3053 79.1969 83.5144 81.406 83.5144H144.376C146.585 83.5144 148.376 85.3053 148.376 87.5144V103.376C148.376 105.585 146.585 107.376 144.376 107.376H81.406C79.1969 107.376 77.406 105.585 77.406 103.376V87.5144Z" fill="#D7DD93"/>
<path opacity="0.1" d="M77.406 120.324C77.406 118.115 79.1969 116.324 81.406 116.324H144.376C146.585 116.324 148.376 118.115 148.376 120.324V136.185C148.376 138.394 146.585 140.185 144.376 140.185H81.406C79.1969 140.185 77.406 138.394 77.406 136.185V120.324Z" fill="#D7DD93"/>
<path opacity="0.1" d="M77.406 148.162C77.406 145.953 79.1969 144.162 81.406 144.162H144.376C146.585 144.162 148.376 145.953 148.376 148.162V164.023C148.376 166.232 146.585 168.023 144.376 168.023H81.406C79.1969 168.023 77.406 166.232 77.406 164.023V148.162Z" fill="#D7DD93"/>
<path opacity="0.1" d="M152.812 4C152.812 1.79086 154.603 0 156.812 0H219.782C221.991 0 223.782 1.79086 223.782 4V19.8613C223.782 22.0704 221.991 23.8613 219.782 23.8613H156.812C154.603 23.8613 152.812 22.0704 152.812 19.8613V4Z" fill="#D7DD93"/>
<path opacity="0.1" d="M152.812 31.8381C152.812 29.629 154.603 27.8381 156.812 27.8381H219.782C221.991 27.8381 223.782 29.629 223.782 31.8381V47.6994C223.782 49.9085 221.991 51.6994 219.782 51.6994H156.812C154.603 51.6994 152.812 49.9085 152.812 47.6994V31.8381Z" fill="#D7DD93"/>
<path opacity="0.1" d="M152.812 59.6763C152.812 57.4671 154.603 55.6763 156.812 55.6763H219.782C221.991 55.6763 223.782 57.4671 223.782 59.6763V75.5375C223.782 77.7467 221.991 79.5375 219.782 79.5375H156.812C154.603 79.5375 152.812 77.7467 152.812 75.5375V59.6763Z" fill="#D7DD93"/>
<path opacity="0.1" d="M152.812 87.5144C152.812 85.3053 154.603 83.5144 156.812 83.5144H219.782C221.991 83.5144 223.782 85.3053 223.782 87.5144V103.376C223.782 105.585 221.991 107.376 219.782 107.376H156.812C154.603 107.376 152.812 105.585 152.812 103.376V87.5144Z" fill="#D7DD93"/>
<path opacity="0.1" d="M152.812 120.324C152.812 118.115 154.603 116.324 156.812 116.324H219.782C221.991 116.324 223.782 118.115 223.782 120.324V136.185C223.782 138.394 221.991 140.185 219.782 140.185H156.812C154.603 140.185 152.812 138.394 152.812 136.185V120.324Z" fill="#D7DD93"/>
<path opacity="0.1" d="M152.812 148.162C152.812 145.953 154.603 144.162 156.812 144.162H219.782C221.991 144.162 223.782 145.953 223.782 148.162V164.023C223.782 166.232 221.991 168.023 219.782 168.023H156.812C154.603 168.023 152.812 166.232 152.812 164.023V148.162Z" fill="#D7DD93"/>
<path opacity="0.1" d="M228.218 4C228.218 1.79086 230.009 0 232.218 0H295.188C297.397 0 299.188 1.79086 299.188 4V19.8613C299.188 22.0704 297.397 23.8613 295.188 23.8613H232.218C230.009 23.8613 228.218 22.0704 228.218 19.8613V4Z" fill="#D7DD93"/>
<path opacity="0.1" d="M228.218 31.8381C228.218 29.629 230.009 27.8381 232.218 27.8381H295.188C297.397 27.8381 299.188 29.629 299.188 31.8381V47.6994C299.188 49.9085 297.397 51.6994 295.188 51.6994H232.218C230.009 51.6994 228.218 49.9085 228.218 47.6994V31.8381Z" fill="#D7DD93"/>
<path opacity="0.1" d="M228.218 59.6763C228.218 57.4671 230.009 55.6763 232.218 55.6763H295.188C297.397 55.6763 299.188 57.4671 299.188 59.6763V75.5375C299.188 77.7467 297.397 79.5375 295.188 79.5375H232.218C230.009 79.5375 228.218 77.7467 228.218 75.5375V59.6763Z" fill="#D7DD93"/>
<path opacity="0.1" d="M228.218 87.5144C228.218 85.3053 230.009 83.5144 232.218 83.5144H295.188C297.397 83.5144 299.188 85.3053 299.188 87.5144V103.376C299.188 105.585 297.397 107.376 295.188 107.376H232.218C230.009 107.376 228.218 105.585 228.218 103.376V87.5144Z" fill="#D7DD93"/>
<path opacity="0.1" d="M228.218 120.324C228.218 118.115 230.009 116.324 232.218 116.324H295.188C297.397 116.324 299.188 118.115 299.188 120.324V136.185C299.188 138.394 297.397 140.185 295.188 140.185H232.218C230.009 140.185 228.218 138.394 228.218 136.185V120.324Z" fill="#D7DD93"/>
<path opacity="0.1" d="M228.218 148.162C228.218 145.953 230.009 144.162 232.218 144.162H295.188C297.397 144.162 299.188 145.953 299.188 148.162V164.023C299.188 166.232 297.397 168.023 295.188 168.023H232.218C230.009 168.023 228.218 166.232 228.218 164.023V148.162Z" fill="#D7DD93"/>
<path opacity="0.1" d="M303.624 4C303.624 1.79086 305.415 0 307.624 0H370.594C372.803 0 374.594 1.79086 374.594 4V19.8613C374.594 22.0704 372.803 23.8613 370.594 23.8613H307.624C305.415 23.8613 303.624 22.0704 303.624 19.8613V4Z" fill="#D7DD93"/>
<path opacity="0.1" d="M303.624 31.8381C303.624 29.629 305.415 27.8381 307.624 27.8381H370.594C372.803 27.8381 374.594 29.629 374.594 31.8381V47.6994C374.594 49.9085 372.803 51.6994 370.594 51.6994H307.624C305.415 51.6994 303.624 49.9085 303.624 47.6994V31.8381Z" fill="#D7DD93"/>
<path opacity="0.1" d="M303.624 59.6763C303.624 57.4671 305.415 55.6763 307.624 55.6763H370.594C372.803 55.6763 374.594 57.4671 374.594 59.6763V75.5375C374.594 77.7467 372.803 79.5375 370.594 79.5375H307.624C305.415 79.5375 303.624 77.7467 303.624 75.5375V59.6763Z" fill="#D7DD93"/>
<path opacity="0.1" d="M303.624 87.5144C303.624 85.3053 305.415 83.5144 307.624 83.5144H370.594C372.803 83.5144 374.594 85.3053 374.594 87.5144V103.376C374.594 105.585 372.803 107.376 370.594 107.376H307.624C305.415 107.376 303.624 105.585 303.624 103.376V87.5144Z" fill="#D7DD93"/>
<path opacity="0.1" d="M303.624 120.324C303.624 118.115 305.415 116.324 307.624 116.324H370.594C372.803 116.324 374.594 118.115 374.594 120.324V136.185C374.594 138.394 372.803 140.185 370.594 140.185H307.624C305.415 140.185 303.624 138.394 303.624 136.185V120.324Z" fill="#D7DD93"/>
<path opacity="0.1" d="M303.624 148.162C303.624 145.953 305.415 144.162 307.624 144.162H370.594C372.803 144.162 374.594 145.953 374.594 148.162V164.023C374.594 166.232 372.803 168.023 370.594 168.023H307.624C305.415 168.023 303.624 166.232 303.624 164.023V148.162Z" fill="#D7DD93"/>
<path opacity="0.1" d="M379.03 4C379.03 1.79086 380.821 0 383.03 0H446C448.209 0 450 1.79086 450 4V19.8613C450 22.0704 448.209 23.8613 446 23.8613H383.03C380.821 23.8613 379.03 22.0704 379.03 19.8613V4Z" fill="#D7DD93"/>
<path opacity="0.1" d="M379.03 31.8381C379.03 29.629 380.821 27.8381 383.03 27.8381H446C448.209 27.8381 450 29.629 450 31.8381V47.6994C450 49.9085 448.209 51.6994 446 51.6994H383.03C380.821 51.6994 379.03 49.9085 379.03 47.6994V31.8381Z" fill="#D7DD93"/>
<path opacity="0.1" d="M379.03 59.6763C379.03 57.4671 380.821 55.6763 383.03 55.6763H446C448.209 55.6763 450 57.4671 450 59.6763V75.5375C450 77.7467 448.209 79.5375 446 79.5375H383.03C380.821 79.5375 379.03 77.7467 379.03 75.5375V59.6763Z" fill="#D7DD93"/>
<path opacity="0.1" d="M379.03 87.5144C379.03 85.3053 380.821 83.5144 383.03 83.5144H446C448.209 83.5144 450 85.3053 450 87.5144V103.376C450 105.585 448.209 107.376 446 107.376H383.03C380.821 107.376 379.03 105.585 379.03 103.376V87.5144Z" fill="#D7DD93"/>
<path opacity="0.1" d="M379.03 120.324C379.03 118.115 380.821 116.324 383.03 116.324H446C448.209 116.324 450 118.115 450 120.324V136.185C450 138.394 448.209 140.185 446 140.185H383.03C380.821 140.185 379.03 138.394 379.03 136.185V120.324Z" fill="#D7DD93"/>
<path opacity="0.1" d="M379.03 148.162C379.03 145.953 380.821 144.162 383.03 144.162H446C448.209 144.162 450 145.953 450 148.162V164.023C450 166.232 448.209 168.023 446 168.023H383.03C380.821 168.023 379.03 166.232 379.03 164.023V148.162Z" fill="#D7DD93"/>
<path d="M2 111L72.5599 87.0233L146.635 61.728C148.199 61.194 149.836 60.9055 151.488 60.8727L222.905 59.4548C224.578 59.4216 226.236 59.126 227.818 58.5787L296.407 34.8505C299.868 33.6532 303.635 33.6794 307.079 34.9249L374.558 59.3264C376.366 59.9802 378.277 60.3028 380.199 60.2788L450 59.4047" stroke="url(#paint0_linear_2815_83159)" stroke-width="4" stroke-linecap="round" stroke-linejoin="round"/>
<rect x="56" y="104" width="88" height="24" rx="4" fill="#D7DD93"/>
<path d="M70.968 111.667L68.511 115.723L70.955 119.805V120H69.655L67.432 116.23H66.132V120H64.91V111.472H66.132V115.125H67.484L69.668 111.472H70.968V111.667ZM74.1333 120.156C73.31 120.156 72.6513 119.918 72.1573 119.441C71.6633 118.964 71.4163 118.332 71.4163 117.543V116.022C71.4163 115.225 71.6633 114.588 72.1573 114.111C72.6513 113.634 73.31 113.396 74.1333 113.396C74.9653 113.396 75.6283 113.634 76.1223 114.111C76.625 114.588 76.8763 115.225 76.8763 116.022V117.543C76.8763 118.332 76.625 118.964 76.1223 119.441C75.6283 119.918 74.9653 120.156 74.1333 120.156ZM74.1463 119.051C74.623 119.051 75 118.912 75.2773 118.635C75.5633 118.358 75.7063 117.985 75.7063 117.517V116.061C75.7063 115.576 75.5676 115.194 75.2903 114.917C75.013 114.64 74.6316 114.501 74.1463 114.501C73.6696 114.501 73.2883 114.64 73.0023 114.917C72.725 115.194 72.5863 115.576 72.5863 116.061V117.517C72.5863 117.994 72.725 118.371 73.0023 118.648C73.2883 118.917 73.6696 119.051 74.1463 119.051ZM85.4898 113.552V120H84.3978V115.138L84.2418 115.606L82.3958 120H81.4728L79.6268 115.606L79.4578 115.112V120H78.3658V113.552H79.9128L81.9278 118.375L83.9428 113.552H85.4898ZM92.4928 113.552V120H91.3098V114.618H88.3718V120H87.2017V113.552H92.4928ZM99.4876 120H98.3176V114.618H95.8346L95.7696 117.673C95.7522 118.47 95.5876 119.06 95.2756 119.441C94.9722 119.814 94.5042 120 93.8716 120H93.5206V118.934H93.7286C94.0492 118.934 94.2789 118.826 94.4176 118.609C94.5649 118.392 94.6472 118.041 94.6646 117.556L94.7556 113.552H99.4876V120ZM102.336 113.552V118.141L105.378 113.552H106.457V120H105.313V115.411L102.284 120H101.205V113.552H102.336ZM115.298 113.552V120H114.206V115.138L114.05 115.606L112.204 120H111.281L109.435 115.606L109.266 115.112V120H108.174V113.552H109.721L111.736 118.375L113.751 113.552H115.298ZM117.959 117.205V117.517C117.959 118.002 118.098 118.384 118.375 118.661C118.661 118.93 119.051 119.064 119.545 119.064C119.961 119.064 120.308 118.96 120.585 118.752C120.871 118.544 121.019 118.288 121.027 117.985H122.197C122.163 118.626 121.903 119.151 121.417 119.558C120.932 119.957 120.308 120.156 119.545 120.156C118.713 120.156 118.046 119.922 117.543 119.454C117.041 118.977 116.789 118.345 116.789 117.556V116.009C116.789 115.489 116.902 115.034 117.127 114.644C117.353 114.245 117.673 113.938 118.089 113.721C118.505 113.504 118.982 113.396 119.519 113.396C120.334 113.396 120.984 113.634 121.469 114.111C121.955 114.588 122.197 115.216 122.197 115.996V117.205H117.959ZM119.519 114.488C119.043 114.488 118.661 114.631 118.375 114.917C118.098 115.194 117.959 115.571 117.959 116.048V116.23H121.027V116.048C121.027 115.571 120.889 115.194 120.611 114.917C120.343 114.631 119.979 114.488 119.519 114.488ZM124.858 113.565V116.23H127.835V113.565H129.018V120H127.835V117.296H124.858V120H123.688V113.565H124.858ZM129.702 114.618V113.552H135.175V114.618H133.03V120H131.847V114.618H129.702Z" fill="#261E1E"/>
<g opacity="0.75">
<rect x="196" y="72" width="93" height="24" rx="4" fill="#D7DD93"/>
<path d="M210.968 79.667L208.511 83.723L210.955 87.805V88H209.655L207.432 84.23H206.132V88H204.91V79.472H206.132V83.125H207.484L209.668 79.472H210.968V79.667ZM214.133 88.156C213.31 88.156 212.651 87.9177 212.157 87.441C211.663 86.9643 211.416 86.3317 211.416 85.543V84.022C211.416 83.2247 211.663 82.5877 212.157 82.111C212.651 81.6343 213.31 81.396 214.133 81.396C214.965 81.396 215.628 81.6343 216.122 82.111C216.625 82.5877 216.876 83.2247 216.876 84.022V85.543C216.876 86.3317 216.625 86.9643 216.122 87.441C215.628 87.9177 214.965 88.156 214.133 88.156ZM214.146 87.051C214.623 87.051 215 86.9123 215.277 86.635C215.563 86.3577 215.706 85.985 215.706 85.517V84.061C215.706 83.5757 215.568 83.1943 215.29 82.917C215.013 82.6397 214.632 82.501 214.146 82.501C213.67 82.501 213.288 82.6397 213.002 82.917C212.725 83.1943 212.586 83.5757 212.586 84.061V85.517C212.586 85.9937 212.725 86.3707 213.002 86.648C213.288 86.9167 213.67 87.051 214.146 87.051ZM219.536 81.565V84.23H222.513V81.565H223.696V88H222.513V85.296H219.536V88H218.366V81.565H219.536ZM230.976 87.818V88H229.702L227.674 85.296H226.582V88H225.412V81.552H226.582V84.256H227.648L229.598 81.552H230.872V81.734L228.714 84.763L230.976 87.818ZM237.936 81.552V81.734L235.245 88.754C235.046 89.274 234.79 89.6467 234.478 89.872C234.175 90.0973 233.755 90.21 233.217 90.21H232.19V89.144H233.113C233.382 89.144 233.59 89.0963 233.737 89.001C233.893 88.9057 234.028 88.7063 234.14 88.403L234.257 88.078L231.722 81.734V81.552H232.918L234.868 86.557L236.74 81.552H237.936ZM242.099 81.396C242.853 81.396 243.455 81.63 243.906 82.098C244.356 82.5573 244.582 83.1727 244.582 83.944V85.608C244.582 86.3793 244.356 86.999 243.906 87.467C243.455 87.9263 242.853 88.156 242.099 88.156C241.379 88.156 240.79 87.9393 240.331 87.506V90.21H239.161V81.552H240.214L240.266 82.098C240.734 81.63 241.345 81.396 242.099 81.396ZM243.399 83.996C243.399 83.5367 243.26 83.1727 242.983 82.904C242.714 82.6353 242.346 82.501 241.878 82.501C241.54 82.501 241.232 82.579 240.955 82.735C240.686 82.8823 240.478 83.0903 240.331 83.359V86.206C240.478 86.466 240.686 86.674 240.955 86.83C241.223 86.9773 241.531 87.051 241.878 87.051C242.346 87.051 242.714 86.9167 242.983 86.648C243.26 86.3793 243.399 86.0153 243.399 85.556V83.996ZM247.016 85.205V85.517C247.016 86.0023 247.155 86.3837 247.432 86.661C247.718 86.9297 248.108 87.064 248.602 87.064C249.018 87.064 249.365 86.96 249.642 86.752C249.928 86.544 250.075 86.2883 250.084 85.985H251.254C251.219 86.6263 250.959 87.1507 250.474 87.558C249.989 87.9567 249.365 88.156 248.602 88.156C247.77 88.156 247.103 87.922 246.6 87.454C246.097 86.9773 245.846 86.3447 245.846 85.556V84.009C245.846 83.489 245.959 83.034 246.184 82.644C246.409 82.2453 246.73 81.9377 247.146 81.721C247.562 81.5043 248.039 81.396 248.576 81.396C249.391 81.396 250.041 81.6343 250.526 82.111C251.011 82.5877 251.254 83.216 251.254 83.996V85.205H247.016ZM248.576 82.488C248.099 82.488 247.718 82.631 247.432 82.917C247.155 83.1943 247.016 83.5713 247.016 84.048V84.23H250.084V84.048C250.084 83.5713 249.945 83.1943 249.668 82.917C249.399 82.631 249.035 82.488 248.576 82.488ZM253.915 81.565V84.23H256.892V81.565H258.075V88H256.892V85.296H253.915V88H252.745V81.565H253.915ZM266.031 86.934V89.703H264.848V88H259.791V81.552H260.961V86.934H263.886V81.552H265.069V86.934H266.031ZM268.285 81.552V86.141L271.327 81.552H272.406V88H271.262V83.411L268.233 88H267.154V81.552H268.285ZM279.21 88H278.027V85.595H276.948L274.998 88H273.685V87.844L275.544 85.556C274.972 85.4693 274.521 85.2657 274.192 84.945C273.871 84.6157 273.711 84.204 273.711 83.71V83.528C273.711 82.9213 273.928 82.4403 274.361 82.085C274.794 81.7297 275.371 81.552 276.09 81.552H279.21V88ZM278.027 84.594V82.605H276.103C275.73 82.605 275.436 82.6873 275.219 82.852C275.002 83.0167 274.894 83.2463 274.894 83.541V83.697C274.894 83.983 274.998 84.204 275.206 84.36C275.423 84.516 275.722 84.594 276.103 84.594H278.027Z" fill="#261E1E"/>
</g>
<g opacity="0.7">
<rect x="339" y="92" width="90" height="24" rx="4" fill="#D7DD93"/>
<path d="M353.799 99.472V108H352.577V100.577H349.132V108H347.91V99.472H353.799ZM358.06 108.156C357.237 108.156 356.578 107.918 356.084 107.441C355.59 106.964 355.343 106.332 355.343 105.543V104.022C355.343 103.225 355.59 102.588 356.084 102.111C356.578 101.634 357.237 101.396 358.06 101.396C358.892 101.396 359.555 101.634 360.049 102.111C360.552 102.588 360.803 103.225 360.803 104.022V105.543C360.803 106.332 360.552 106.964 360.049 107.441C359.555 107.918 358.892 108.156 358.06 108.156ZM358.073 107.051C358.55 107.051 358.927 106.912 359.204 106.635C359.49 106.358 359.633 105.985 359.633 105.517V104.061C359.633 103.576 359.494 103.194 359.217 102.917C358.94 102.64 358.558 102.501 358.073 102.501C357.596 102.501 357.215 102.64 356.929 102.917C356.652 103.194 356.513 103.576 356.513 104.061V105.517C356.513 105.994 356.652 106.371 356.929 106.648C357.215 106.917 357.596 107.051 358.073 107.051ZM361.374 102.618V101.552H366.847V102.618H364.702V108H363.519V102.618H361.374ZM368.599 105.205V105.517C368.599 106.002 368.738 106.384 369.015 106.661C369.301 106.93 369.691 107.064 370.185 107.064C370.601 107.064 370.948 106.96 371.225 106.752C371.511 106.544 371.658 106.288 371.667 105.985H372.837C372.802 106.626 372.542 107.151 372.057 107.558C371.572 107.957 370.948 108.156 370.185 108.156C369.353 108.156 368.686 107.922 368.183 107.454C367.68 106.977 367.429 106.345 367.429 105.556V104.009C367.429 103.489 367.542 103.034 367.767 102.644C367.992 102.245 368.313 101.938 368.729 101.721C369.145 101.504 369.622 101.396 370.159 101.396C370.974 101.396 371.624 101.634 372.109 102.111C372.594 102.588 372.837 103.216 372.837 103.996V105.205H368.599ZM370.159 102.488C369.682 102.488 369.301 102.631 369.015 102.917C368.738 103.194 368.599 103.571 368.599 104.048V104.23H371.667V104.048C371.667 103.571 371.528 103.194 371.251 102.917C370.982 102.631 370.618 102.488 370.159 102.488ZM377.266 101.396C378.02 101.396 378.622 101.63 379.073 102.098C379.523 102.557 379.749 103.173 379.749 103.944V105.608C379.749 106.379 379.523 106.999 379.073 107.467C378.622 107.926 378.02 108.156 377.266 108.156C376.546 108.156 375.957 107.939 375.498 107.506V110.21H374.328V101.552H375.381L375.433 102.098C375.901 101.63 376.512 101.396 377.266 101.396ZM378.566 103.996C378.566 103.537 378.427 103.173 378.15 102.904C377.881 102.635 377.513 102.501 377.045 102.501C376.707 102.501 376.399 102.579 376.122 102.735C375.853 102.882 375.645 103.09 375.498 103.359V106.206C375.645 106.466 375.853 106.674 376.122 106.83C376.39 106.977 376.698 107.051 377.045 107.051C377.513 107.051 377.881 106.917 378.15 106.648C378.427 106.379 378.566 106.015 378.566 105.556V103.996ZM386.46 108H385.277V105.595H384.198L382.248 108H380.935V107.844L382.794 105.556C382.222 105.469 381.771 105.266 381.442 104.945C381.121 104.616 380.961 104.204 380.961 103.71V103.528C380.961 102.921 381.178 102.44 381.611 102.085C382.044 101.73 382.621 101.552 383.34 101.552H386.46V108ZM385.277 104.594V102.605H383.353C382.98 102.605 382.686 102.687 382.469 102.852C382.252 103.017 382.144 103.246 382.144 103.541V103.697C382.144 103.983 382.248 104.204 382.456 104.36C382.673 104.516 382.972 104.594 383.353 104.594H385.277ZM396.242 104.711C396.589 104.841 396.853 105.032 397.035 105.283C397.226 105.534 397.321 105.829 397.321 106.167V106.349C397.321 106.869 397.13 107.276 396.749 107.571C396.368 107.857 395.804 108 395.059 108H391.822V101.552H394.903C395.657 101.552 396.22 101.695 396.593 101.981C396.966 102.258 397.152 102.661 397.152 103.19V103.359C397.152 103.68 397.074 103.957 396.918 104.191C396.762 104.416 396.537 104.59 396.242 104.711ZM392.992 102.501V104.282H394.981C395.293 104.282 395.536 104.208 395.709 104.061C395.891 103.905 395.982 103.701 395.982 103.45V103.307C395.982 103.056 395.891 102.861 395.709 102.722C395.536 102.575 395.289 102.501 394.968 102.501H392.992ZM396.151 106.05C396.151 105.781 396.06 105.578 395.878 105.439C395.696 105.292 395.44 105.218 395.111 105.218H392.992V107.051H395.124C395.436 107.051 395.683 106.977 395.865 106.83C396.056 106.674 396.151 106.466 396.151 106.206V106.05ZM399.69 105.205V105.517C399.69 106.002 399.828 106.384 400.106 106.661C400.392 106.93 400.782 107.064 401.276 107.064C401.692 107.064 402.038 106.96 402.316 106.752C402.602 106.544 402.749 106.288 402.758 105.985H403.928C403.893 106.626 403.633 107.151 403.148 107.558C402.662 107.957 402.038 108.156 401.276 108.156C400.444 108.156 399.776 107.922 399.274 107.454C398.771 106.977 398.52 106.345 398.52 105.556V104.009C398.52 103.489 398.632 103.034 398.858 102.644C399.083 102.245 399.404 101.938 399.82 101.721C400.236 101.504 400.712 101.396 401.25 101.396C402.064 101.396 402.714 101.634 403.2 102.111C403.685 102.588 403.928 103.216 403.928 103.996V105.205H399.69ZM401.25 102.488C400.773 102.488 400.392 102.631 400.106 102.917C399.828 103.194 399.69 103.571 399.69 104.048V104.23H402.758V104.048C402.758 103.571 402.619 103.194 402.342 102.917C402.073 102.631 401.709 102.488 401.25 102.488ZM408.357 101.396C409.111 101.396 409.713 101.63 410.164 102.098C410.614 102.557 410.84 103.173 410.84 103.944V105.608C410.84 106.379 410.614 106.999 410.164 107.467C409.713 107.926 409.111 108.156 408.357 108.156C407.637 108.156 407.048 107.939 406.589 107.506V110.21H405.419V101.552H406.472L406.524 102.098C406.992 101.63 407.603 101.396 408.357 101.396ZM409.657 103.996C409.657 103.537 409.518 103.173 409.241 102.904C408.972 102.635 408.604 102.501 408.136 102.501C407.798 102.501 407.49 102.579 407.213 102.735C406.944 102.882 406.736 103.09 406.589 103.359V106.206C406.736 106.466 406.944 106.674 407.213 106.83C407.481 106.977 407.789 107.051 408.136 107.051C408.604 107.051 408.972 106.917 409.241 106.648C409.518 106.379 409.657 106.015 409.657 105.556V103.996ZM415.601 103.788C416.294 103.788 416.84 103.979 417.239 104.36C417.646 104.733 417.85 105.222 417.85 105.829V105.959C417.85 106.566 417.646 107.06 417.239 107.441C416.84 107.814 416.294 108 415.601 108H412.364V101.552H413.534V103.788H415.601ZM419.774 101.552V108H418.591V101.552H419.774ZM416.68 105.842C416.68 105.547 416.584 105.309 416.394 105.127C416.203 104.945 415.921 104.854 415.549 104.854H413.534V106.934H415.549C415.921 106.934 416.203 106.847 416.394 106.674C416.584 106.501 416.68 106.258 416.68 105.946V105.842Z" fill="#261E1E"/>
</g>
<defs>
<linearGradient id="paint0_linear_2815_83159" x1="448.531" y1="38.5063" x2="-0.937705" y2="38.5063" gradientUnits="userSpaceOnUse">
<stop stop-color="#D7DD93" stop-opacity="0"/>
<stop offset="0.302083" stop-color="#D7DD93"/>
</linearGradient>
</defs>
</svg>
