<svg width="458" height="172" viewBox="0 0 458 172" fill="none" xmlns="http://www.w3.org/2000/svg">
<line opacity="0.1" x1="2" y1="111.847" x2="450" y2="111.847" stroke="#966F7B"/>
<path opacity="0.1" d="M2 4C2 1.79086 3.79086 0 6 0H68.9703C71.1794 0 72.9703 1.79086 72.9703 4V19.8613C72.9703 22.0704 71.1794 23.8613 68.9703 23.8613H6C3.79087 23.8613 2 22.0704 2 19.8613V4Z" fill="#D7DD93"/>
<path opacity="0.1" d="M2 31.8381C2 29.629 3.79086 27.8381 6 27.8381H68.9703C71.1794 27.8381 72.9703 29.629 72.9703 31.8381V47.6994C72.9703 49.9085 71.1794 51.6994 68.9703 51.6994H6C3.79087 51.6994 2 49.9085 2 47.6994V31.8381Z" fill="#D7DD93"/>
<path opacity="0.1" d="M2 59.6763C2 57.4671 3.79086 55.6763 6 55.6763H68.9703C71.1794 55.6763 72.9703 57.4671 72.9703 59.6763V75.5375C72.9703 77.7467 71.1794 79.5375 68.9703 79.5375H6C3.79087 79.5375 2 77.7467 2 75.5375V59.6763Z" fill="#D7DD93"/>
<path opacity="0.1" d="M2 87.5144C2 85.3053 3.79086 83.5144 6 83.5144H68.9703C71.1794 83.5144 72.9703 85.3053 72.9703 87.5144V103.376C72.9703 105.585 71.1794 107.376 68.9703 107.376H6C3.79087 107.376 2 105.585 2 103.376V87.5144Z" fill="#D7DD93"/>
<path opacity="0.1" d="M2 120.324C2 118.115 3.79086 116.324 6 116.324H68.9703C71.1794 116.324 72.9703 118.115 72.9703 120.324V136.185C72.9703 138.394 71.1794 140.185 68.9703 140.185H6C3.79087 140.185 2 138.394 2 136.185V120.324Z" fill="#D7DD93"/>
<path opacity="0.1" d="M2 148.162C2 145.953 3.79086 144.162 6 144.162H68.9703C71.1794 144.162 72.9703 145.953 72.9703 148.162V164.023C72.9703 166.232 71.1794 168.023 68.9703 168.023H6C3.79087 168.023 2 166.232 2 164.023V148.162Z" fill="#D7DD93"/>
<path opacity="0.1" d="M77.4059 4C77.4059 1.79086 79.1968 0 81.4059 0H144.376C146.585 0 148.376 1.79086 148.376 4V19.8613C148.376 22.0704 146.585 23.8613 144.376 23.8613H81.4059C79.1968 23.8613 77.4059 22.0704 77.4059 19.8613V4Z" fill="#D7DD93"/>
<path opacity="0.1" d="M77.4059 31.8381C77.4059 29.629 79.1968 27.8381 81.4059 27.8381H144.376C146.585 27.8381 148.376 29.629 148.376 31.8381V47.6994C148.376 49.9085 146.585 51.6994 144.376 51.6994H81.4059C79.1968 51.6994 77.4059 49.9085 77.4059 47.6994V31.8381Z" fill="#D7DD93"/>
<path opacity="0.1" d="M77.4059 59.6763C77.4059 57.4671 79.1968 55.6763 81.4059 55.6763H144.376C146.585 55.6763 148.376 57.4671 148.376 59.6763V75.5375C148.376 77.7467 146.585 79.5375 144.376 79.5375H81.4059C79.1968 79.5375 77.4059 77.7467 77.4059 75.5375V59.6763Z" fill="#D7DD93"/>
<path opacity="0.1" d="M77.4059 87.5144C77.4059 85.3053 79.1968 83.5144 81.4059 83.5144H144.376C146.585 83.5144 148.376 85.3053 148.376 87.5144V103.376C148.376 105.585 146.585 107.376 144.376 107.376H81.4059C79.1968 107.376 77.4059 105.585 77.4059 103.376V87.5144Z" fill="#D7DD93"/>
<path opacity="0.1" d="M77.4059 120.324C77.4059 118.115 79.1968 116.324 81.4059 116.324H144.376C146.585 116.324 148.376 118.115 148.376 120.324V136.185C148.376 138.394 146.585 140.185 144.376 140.185H81.4059C79.1968 140.185 77.4059 138.394 77.4059 136.185V120.324Z" fill="#D7DD93"/>
<path opacity="0.1" d="M77.4059 148.162C77.4059 145.953 79.1968 144.162 81.4059 144.162H144.376C146.585 144.162 148.376 145.953 148.376 148.162V164.023C148.376 166.232 146.585 168.023 144.376 168.023H81.4059C79.1968 168.023 77.4059 166.232 77.4059 164.023V148.162Z" fill="#D7DD93"/>
<path opacity="0.1" d="M152.812 4C152.812 1.79086 154.603 0 156.812 0H219.782C221.991 0 223.782 1.79086 223.782 4V19.8613C223.782 22.0704 221.991 23.8613 219.782 23.8613H156.812C154.603 23.8613 152.812 22.0704 152.812 19.8613V4Z" fill="#D7DD93"/>
<path opacity="0.1" d="M152.812 31.8381C152.812 29.629 154.603 27.8381 156.812 27.8381H219.782C221.991 27.8381 223.782 29.629 223.782 31.8381V47.6994C223.782 49.9085 221.991 51.6994 219.782 51.6994H156.812C154.603 51.6994 152.812 49.9085 152.812 47.6994V31.8381Z" fill="#D7DD93"/>
<path opacity="0.1" d="M152.812 59.6763C152.812 57.4671 154.603 55.6763 156.812 55.6763H219.782C221.991 55.6763 223.782 57.4671 223.782 59.6763V75.5375C223.782 77.7467 221.991 79.5375 219.782 79.5375H156.812C154.603 79.5375 152.812 77.7467 152.812 75.5375V59.6763Z" fill="#D7DD93"/>
<path opacity="0.1" d="M152.812 87.5144C152.812 85.3053 154.603 83.5144 156.812 83.5144H219.782C221.991 83.5144 223.782 85.3053 223.782 87.5144V103.376C223.782 105.585 221.991 107.376 219.782 107.376H156.812C154.603 107.376 152.812 105.585 152.812 103.376V87.5144Z" fill="#D7DD93"/>
<path opacity="0.1" d="M152.812 120.324C152.812 118.115 154.603 116.324 156.812 116.324H219.782C221.991 116.324 223.782 118.115 223.782 120.324V136.185C223.782 138.394 221.991 140.185 219.782 140.185H156.812C154.603 140.185 152.812 138.394 152.812 136.185V120.324Z" fill="#D7DD93"/>
<path opacity="0.1" d="M152.812 148.162C152.812 145.953 154.603 144.162 156.812 144.162H219.782C221.991 144.162 223.782 145.953 223.782 148.162V164.023C223.782 166.232 221.991 168.023 219.782 168.023H156.812C154.603 168.023 152.812 166.232 152.812 164.023V148.162Z" fill="#D7DD93"/>
<path opacity="0.1" d="M228.218 4C228.218 1.79086 230.009 0 232.218 0H295.188C297.397 0 299.188 1.79086 299.188 4V19.8613C299.188 22.0704 297.397 23.8613 295.188 23.8613H232.218C230.009 23.8613 228.218 22.0704 228.218 19.8613V4Z" fill="#D7DD93"/>
<path opacity="0.1" d="M228.218 31.8381C228.218 29.629 230.009 27.8381 232.218 27.8381H295.188C297.397 27.8381 299.188 29.629 299.188 31.8381V47.6994C299.188 49.9085 297.397 51.6994 295.188 51.6994H232.218C230.009 51.6994 228.218 49.9085 228.218 47.6994V31.8381Z" fill="#D7DD93"/>
<path opacity="0.1" d="M228.218 59.6763C228.218 57.4671 230.009 55.6763 232.218 55.6763H295.188C297.397 55.6763 299.188 57.4671 299.188 59.6763V75.5375C299.188 77.7467 297.397 79.5375 295.188 79.5375H232.218C230.009 79.5375 228.218 77.7467 228.218 75.5375V59.6763Z" fill="#D7DD93"/>
<path opacity="0.1" d="M228.218 87.5144C228.218 85.3053 230.009 83.5144 232.218 83.5144H295.188C297.397 83.5144 299.188 85.3053 299.188 87.5144V103.376C299.188 105.585 297.397 107.376 295.188 107.376H232.218C230.009 107.376 228.218 105.585 228.218 103.376V87.5144Z" fill="#D7DD93"/>
<path opacity="0.1" d="M228.218 120.324C228.218 118.115 230.009 116.324 232.218 116.324H295.188C297.397 116.324 299.188 118.115 299.188 120.324V136.185C299.188 138.394 297.397 140.185 295.188 140.185H232.218C230.009 140.185 228.218 138.394 228.218 136.185V120.324Z" fill="#D7DD93"/>
<path opacity="0.1" d="M228.218 148.162C228.218 145.953 230.009 144.162 232.218 144.162H295.188C297.397 144.162 299.188 145.953 299.188 148.162V164.023C299.188 166.232 297.397 168.023 295.188 168.023H232.218C230.009 168.023 228.218 166.232 228.218 164.023V148.162Z" fill="#D7DD93"/>
<path opacity="0.1" d="M303.624 4C303.624 1.79086 305.415 0 307.624 0H370.594C372.803 0 374.594 1.79086 374.594 4V19.8613C374.594 22.0704 372.803 23.8613 370.594 23.8613H307.624C305.415 23.8613 303.624 22.0704 303.624 19.8613V4Z" fill="#D7DD93"/>
<path opacity="0.1" d="M303.624 31.8381C303.624 29.629 305.415 27.8381 307.624 27.8381H370.594C372.803 27.8381 374.594 29.629 374.594 31.8381V47.6994C374.594 49.9085 372.803 51.6994 370.594 51.6994H307.624C305.415 51.6994 303.624 49.9085 303.624 47.6994V31.8381Z" fill="#D7DD93"/>
<path opacity="0.1" d="M303.624 59.6763C303.624 57.4671 305.415 55.6763 307.624 55.6763H370.594C372.803 55.6763 374.594 57.4671 374.594 59.6763V75.5375C374.594 77.7467 372.803 79.5375 370.594 79.5375H307.624C305.415 79.5375 303.624 77.7467 303.624 75.5375V59.6763Z" fill="#D7DD93"/>
<path opacity="0.1" d="M303.624 87.5144C303.624 85.3053 305.415 83.5144 307.624 83.5144H370.594C372.803 83.5144 374.594 85.3053 374.594 87.5144V103.376C374.594 105.585 372.803 107.376 370.594 107.376H307.624C305.415 107.376 303.624 105.585 303.624 103.376V87.5144Z" fill="#D7DD93"/>
<path opacity="0.1" d="M303.624 120.324C303.624 118.115 305.415 116.324 307.624 116.324H370.594C372.803 116.324 374.594 118.115 374.594 120.324V136.185C374.594 138.394 372.803 140.185 370.594 140.185H307.624C305.415 140.185 303.624 138.394 303.624 136.185V120.324Z" fill="#D7DD93"/>
<path opacity="0.1" d="M303.624 148.162C303.624 145.953 305.415 144.162 307.624 144.162H370.594C372.803 144.162 374.594 145.953 374.594 148.162V164.023C374.594 166.232 372.803 168.023 370.594 168.023H307.624C305.415 168.023 303.624 166.232 303.624 164.023V148.162Z" fill="#D7DD93"/>
<path opacity="0.1" d="M379.03 4C379.03 1.79086 380.821 0 383.03 0H446C448.209 0 450 1.79086 450 4V19.8613C450 22.0704 448.209 23.8613 446 23.8613H383.03C380.821 23.8613 379.03 22.0704 379.03 19.8613V4Z" fill="#D7DD93"/>
<path opacity="0.1" d="M379.03 31.8381C379.03 29.629 380.821 27.8381 383.03 27.8381H446C448.209 27.8381 450 29.629 450 31.8381V47.6994C450 49.9085 448.209 51.6994 446 51.6994H383.03C380.821 51.6994 379.03 49.9085 379.03 47.6994V31.8381Z" fill="#D7DD93"/>
<path opacity="0.1" d="M379.03 59.6763C379.03 57.4671 380.821 55.6763 383.03 55.6763H446C448.209 55.6763 450 57.4671 450 59.6763V75.5375C450 77.7467 448.209 79.5375 446 79.5375H383.03C380.821 79.5375 379.03 77.7467 379.03 75.5375V59.6763Z" fill="#D7DD93"/>
<path opacity="0.1" d="M379.03 87.5144C379.03 85.3053 380.821 83.5144 383.03 83.5144H446C448.209 83.5144 450 85.3053 450 87.5144V103.376C450 105.585 448.209 107.376 446 107.376H383.03C380.821 107.376 379.03 105.585 379.03 103.376V87.5144Z" fill="#D7DD93"/>
<path opacity="0.1" d="M379.03 120.324C379.03 118.115 380.821 116.324 383.03 116.324H446C448.209 116.324 450 118.115 450 120.324V136.185C450 138.394 448.209 140.185 446 140.185H383.03C380.821 140.185 379.03 138.394 379.03 136.185V120.324Z" fill="#D7DD93"/>
<path opacity="0.1" d="M379.03 148.162C379.03 145.953 380.821 144.162 383.03 144.162H446C448.209 144.162 450 145.953 450 148.162V164.023C450 166.232 448.209 168.023 446 168.023H383.03C380.821 168.023 379.03 166.232 379.03 164.023V148.162Z" fill="#D7DD93"/>
<path d="M2 111L67.2877 20.4279C71.3402 14.8059 78.5514 12.4321 85.151 14.5475L146.613 34.2486C148.191 34.7545 149.839 35.0122 151.497 35.0122H220.452C223.694 35.0122 226.86 35.997 229.53 37.8363L297.656 84.7715C300.326 86.6109 303.492 87.5957 306.734 87.5957H377.292L450 88.2036" stroke="url(#paint0_linear_2815_83111)" stroke-width="4" stroke-linecap="round" stroke-linejoin="round"/>
<rect x="23" y="99" width="50" height="24" rx="4" fill="#D7DD93"/>
<path d="M38.215 114.805V115H37.006L36.382 113.011H33.158L32.534 115H31.325V114.805L34.068 106.472H35.472L38.215 114.805ZM36.031 111.906L34.77 107.876L33.509 111.906H36.031ZM43.4191 111.737C43.7484 111.858 43.9997 112.04 44.1731 112.283C44.3464 112.517 44.4331 112.803 44.4331 113.141V113.323C44.4331 113.904 44.1904 114.354 43.7051 114.675C43.2284 114.996 42.5611 115.156 41.7031 115.156C40.8451 115.156 40.1691 114.961 39.6751 114.571C39.1897 114.181 38.9471 113.652 38.9471 112.985V112.725H40.1171V112.92C40.1171 113.31 40.2557 113.609 40.5331 113.817C40.8104 114.016 41.2134 114.116 41.7421 114.116C42.2447 114.116 42.6217 114.038 42.8731 113.882C43.1331 113.726 43.2631 113.496 43.2631 113.193V113.076C43.2631 112.807 43.1721 112.604 42.9901 112.465C42.8081 112.318 42.5524 112.244 42.2231 112.244H40.8841V111.23H42.1581C42.4961 111.23 42.7561 111.161 42.9381 111.022C43.1201 110.883 43.2111 110.688 43.2111 110.437V110.32C43.2111 110.034 43.0854 109.817 42.8341 109.67C42.5914 109.523 42.2274 109.449 41.7421 109.449C41.2134 109.449 40.8104 109.557 40.5331 109.774C40.2557 109.982 40.1171 110.285 40.1171 110.684V110.853H38.9471V110.658C38.9471 110.216 39.0597 109.826 39.2851 109.488C39.5191 109.141 39.8441 108.877 40.2601 108.695C40.6761 108.504 41.1571 108.409 41.7031 108.409C42.5264 108.409 43.1764 108.569 43.6531 108.89C44.1297 109.211 44.3681 109.648 44.3681 110.203V110.385C44.3681 111.018 44.0517 111.468 43.4191 111.737ZM51.9192 113.934V115H51.2302C50.9182 115 50.6452 114.948 50.4112 114.844C50.1859 114.731 50.0126 114.571 49.8912 114.363C49.4146 114.892 48.7386 115.156 47.8632 115.156C47.1699 115.156 46.6196 114.991 46.2122 114.662C45.8049 114.333 45.6012 113.878 45.6012 113.297C45.6012 112.768 45.7746 112.352 46.1212 112.049C46.4679 111.746 47.0009 111.546 47.7202 111.451L49.6572 111.191V110.775C49.6572 110.359 49.5359 110.043 49.2932 109.826C49.0592 109.609 48.7126 109.501 48.2532 109.501C47.8026 109.501 47.4516 109.609 47.2002 109.826C46.9576 110.034 46.8362 110.329 46.8362 110.71V110.801H45.6532V110.71C45.6532 109.999 45.8872 109.436 46.3552 109.02C46.8319 108.604 47.4776 108.396 48.2922 108.396C49.1069 108.396 49.7352 108.608 50.1772 109.033C50.6192 109.449 50.8402 110.038 50.8402 110.801V113.284C50.8402 113.717 51.0482 113.934 51.4642 113.934H51.9192ZM47.9412 114.142C48.3226 114.142 48.6606 114.06 48.9552 113.895C49.2586 113.73 49.4926 113.505 49.6572 113.219V112.114L47.9152 112.374C47.1526 112.495 46.7712 112.799 46.7712 113.284C46.7712 113.553 46.8752 113.765 47.0832 113.921C47.2999 114.068 47.5859 114.142 47.9412 114.142ZM55.7814 108.396C56.5354 108.396 57.1377 108.63 57.5884 109.098C58.039 109.557 58.2644 110.173 58.2644 110.944V112.608C58.2644 113.379 58.039 113.999 57.5884 114.467C57.1377 114.926 56.5354 115.156 55.7814 115.156C55.062 115.156 54.4727 114.939 54.0134 114.506V117.21H52.8434V108.552H53.8964L53.9484 109.098C54.4164 108.63 55.0274 108.396 55.7814 108.396ZM57.0814 110.996C57.0814 110.537 56.9427 110.173 56.6654 109.904C56.3967 109.635 56.0284 109.501 55.5604 109.501C55.2224 109.501 54.9147 109.579 54.6374 109.735C54.3687 109.882 54.1607 110.09 54.0134 110.359V113.206C54.1607 113.466 54.3687 113.674 54.6374 113.83C54.906 113.977 55.2137 114.051 55.5604 114.051C56.0284 114.051 56.3967 113.917 56.6654 113.648C56.9427 113.379 57.0814 113.015 57.0814 112.556V110.996ZM58.8315 109.618V108.552H64.3045V109.618H62.1595V115H60.9765V109.618H58.8315Z" fill="#261E1E"/>
<g opacity="0.75">
<rect x="118" y="49" width="87" height="24" rx="4" fill="#D7DD93"/>
<path d="M132.799 56.472V65H131.577V57.577H128.132V65H126.91V56.472H132.799ZM137.06 65.156C136.237 65.156 135.578 64.9177 135.084 64.441C134.59 63.9643 134.343 63.3317 134.343 62.543V61.022C134.343 60.2247 134.59 59.5877 135.084 59.111C135.578 58.6343 136.237 58.396 137.06 58.396C137.892 58.396 138.555 58.6343 139.049 59.111C139.552 59.5877 139.803 60.2247 139.803 61.022V62.543C139.803 63.3317 139.552 63.9643 139.049 64.441C138.555 64.9177 137.892 65.156 137.06 65.156ZM137.073 64.051C137.55 64.051 137.927 63.9123 138.204 63.635C138.49 63.3577 138.633 62.985 138.633 62.517V61.061C138.633 60.5757 138.494 60.1943 138.217 59.917C137.94 59.6397 137.558 59.501 137.073 59.501C136.596 59.501 136.215 59.6397 135.929 59.917C135.652 60.1943 135.513 60.5757 135.513 61.061V62.517C135.513 62.9937 135.652 63.3707 135.929 63.648C136.215 63.9167 136.596 64.051 137.073 64.051ZM147.54 63.934V66.703H146.357V65H141.638V66.703H140.468V63.934H141.274C141.604 63.3187 141.777 62.5907 141.794 61.75L141.833 58.552H146.578V63.934H147.54ZM145.408 63.934V59.618H142.925L142.886 61.802C142.869 62.6167 142.717 63.3273 142.431 63.934H145.408ZM154.727 63.934V65H154.038C153.726 65 153.453 64.948 153.219 64.844C152.994 64.7313 152.82 64.571 152.699 64.363C152.222 64.8917 151.546 65.156 150.671 65.156C149.978 65.156 149.427 64.9913 149.02 64.662C148.613 64.3327 148.409 63.8777 148.409 63.297C148.409 62.7683 148.582 62.3523 148.929 62.049C149.276 61.7457 149.809 61.5463 150.528 61.451L152.465 61.191V60.775C152.465 60.359 152.344 60.0427 152.101 59.826C151.867 59.6093 151.52 59.501 151.061 59.501C150.61 59.501 150.259 59.6093 150.008 59.826C149.765 60.034 149.644 60.3287 149.644 60.71V60.801H148.461V60.71C148.461 59.9993 148.695 59.436 149.163 59.02C149.64 58.604 150.285 58.396 151.1 58.396C151.915 58.396 152.543 58.6083 152.985 59.033C153.427 59.449 153.648 60.0383 153.648 60.801V63.284C153.648 63.7173 153.856 63.934 154.272 63.934H154.727ZM150.749 64.142C151.13 64.142 151.468 64.0597 151.763 63.895C152.066 63.7303 152.3 63.505 152.465 63.219V62.114L150.723 62.374C149.96 62.4953 149.579 62.7987 149.579 63.284C149.579 63.5527 149.683 63.765 149.891 63.921C150.108 64.0683 150.394 64.142 150.749 64.142ZM160.071 61.711C160.418 61.841 160.682 62.0317 160.864 62.283C161.055 62.5343 161.15 62.829 161.15 63.167V63.349C161.15 63.869 160.959 64.2763 160.578 64.571C160.197 64.857 159.633 65 158.888 65H155.651V58.552H158.732C159.486 58.552 160.049 58.695 160.422 58.981C160.795 59.2583 160.981 59.6613 160.981 60.19V60.359C160.981 60.6797 160.903 60.957 160.747 61.191C160.591 61.4163 160.366 61.5897 160.071 61.711ZM156.821 59.501V61.282H158.81C159.122 61.282 159.365 61.2083 159.538 61.061C159.72 60.905 159.811 60.7013 159.811 60.45V60.307C159.811 60.0557 159.72 59.8607 159.538 59.722C159.365 59.5747 159.118 59.501 158.797 59.501H156.821ZM159.98 63.05C159.98 62.7813 159.889 62.5777 159.707 62.439C159.525 62.2917 159.269 62.218 158.94 62.218H156.821V64.051H158.953C159.265 64.051 159.512 63.9773 159.694 63.83C159.885 63.674 159.98 63.466 159.98 63.206V63.05ZM167.848 65H166.678V59.618H164.195L164.13 62.673C164.113 63.4703 163.948 64.0597 163.636 64.441C163.333 64.8137 162.865 65 162.232 65H161.881V63.934H162.089C162.41 63.934 162.639 63.8257 162.778 63.609C162.925 63.3923 163.008 63.0413 163.025 62.556L163.116 58.552H167.848V65ZM170.514 62.205V62.517C170.514 63.0023 170.653 63.3837 170.93 63.661C171.216 63.9297 171.606 64.064 172.1 64.064C172.516 64.064 172.863 63.96 173.14 63.752C173.426 63.544 173.573 63.2883 173.582 62.985H174.752C174.717 63.6263 174.457 64.1507 173.972 64.558C173.487 64.9567 172.863 65.156 172.1 65.156C171.268 65.156 170.601 64.922 170.098 64.454C169.595 63.9773 169.344 63.3447 169.344 62.556V61.009C169.344 60.489 169.457 60.034 169.682 59.644C169.907 59.2453 170.228 58.9377 170.644 58.721C171.06 58.5043 171.537 58.396 172.074 58.396C172.889 58.396 173.539 58.6343 174.024 59.111C174.509 59.5877 174.752 60.216 174.752 60.996V62.205H170.514ZM172.074 59.488C171.597 59.488 171.216 59.631 170.93 59.917C170.653 60.1943 170.514 60.5713 170.514 61.048V61.23H173.582V61.048C173.582 60.5713 173.443 60.1943 173.166 59.917C172.897 59.631 172.533 59.488 172.074 59.488ZM177.413 58.565V61.23H180.39V58.565H181.573V65H180.39V62.296H177.413V65H176.243V58.565H177.413ZM184.42 58.552V63.141L187.462 58.552H188.541V65H187.397V60.411L184.368 65H183.289V58.552H184.42ZM191.207 62.205V62.517C191.207 63.0023 191.346 63.3837 191.623 63.661C191.909 63.9297 192.299 64.064 192.793 64.064C193.209 64.064 193.556 63.96 193.833 63.752C194.119 63.544 194.267 63.2883 194.275 62.985H195.445C195.411 63.6263 195.151 64.1507 194.665 64.558C194.18 64.9567 193.556 65.156 192.793 65.156C191.961 65.156 191.294 64.922 190.791 64.454C190.289 63.9773 190.037 63.3447 190.037 62.556V61.009C190.037 60.489 190.15 60.034 190.375 59.644C190.601 59.2453 190.921 58.9377 191.337 58.721C191.753 58.5043 192.23 58.396 192.767 58.396C193.582 58.396 194.232 58.6343 194.717 59.111C195.203 59.5877 195.445 60.216 195.445 60.996V62.205H191.207ZM192.767 59.488C192.291 59.488 191.909 59.631 191.623 59.917C191.346 60.1943 191.207 60.5713 191.207 61.048V61.23H194.275V61.048C194.275 60.5713 194.137 60.1943 193.859 59.917C193.591 59.631 193.227 59.488 192.767 59.488Z" fill="#261E1E"/>
</g>
<g opacity="0.7">
<rect x="310" y="44" width="90" height="24" rx="4" fill="#D7DD93"/>
<path d="M322.303 51.472C323.126 51.472 323.776 51.6887 324.253 52.122C324.73 52.5467 324.968 53.1317 324.968 53.877V54.072C324.968 54.8173 324.73 55.4067 324.253 55.84C323.776 56.2647 323.126 56.477 322.303 56.477H320.132V60H318.91V51.472H322.303ZM322.277 55.385C322.762 55.385 323.131 55.2723 323.382 55.047C323.633 54.8217 323.759 54.4967 323.759 54.072V53.877C323.759 53.461 323.629 53.1403 323.369 52.915C323.118 52.6897 322.754 52.577 322.277 52.577H320.132V55.385H322.277ZM332.191 58.934V60H331.502C331.19 60 330.917 59.948 330.683 59.844C330.457 59.7313 330.284 59.571 330.163 59.363C329.686 59.8917 329.01 60.156 328.135 60.156C327.441 60.156 326.891 59.9913 326.484 59.662C326.076 59.3327 325.873 58.8777 325.873 58.297C325.873 57.7683 326.046 57.3523 326.393 57.049C326.739 56.7457 327.272 56.5463 327.992 56.451L329.929 56.191V55.775C329.929 55.359 329.807 55.0427 329.565 54.826C329.331 54.6093 328.984 54.501 328.525 54.501C328.074 54.501 327.723 54.6093 327.472 54.826C327.229 55.034 327.108 55.3287 327.108 55.71V55.801H325.925V55.71C325.925 54.9993 326.159 54.436 326.627 54.02C327.103 53.604 327.749 53.396 328.564 53.396C329.378 53.396 330.007 53.6083 330.449 54.033C330.891 54.449 331.112 55.0383 331.112 55.801V58.284C331.112 58.7173 331.32 58.934 331.736 58.934H332.191ZM328.213 59.142C328.594 59.142 328.932 59.0597 329.227 58.895C329.53 58.7303 329.764 58.505 329.929 58.219V57.114L328.187 57.374C327.424 57.4953 327.043 57.7987 327.043 58.284C327.043 58.5527 327.147 58.765 327.355 58.921C327.571 59.0683 327.857 59.142 328.213 59.142ZM337.262 56.737C337.591 56.8583 337.843 57.0403 338.016 57.283C338.189 57.517 338.276 57.803 338.276 58.141V58.323C338.276 58.9037 338.033 59.3543 337.548 59.675C337.071 59.9957 336.404 60.156 335.546 60.156C334.688 60.156 334.012 59.961 333.518 59.571C333.033 59.181 332.79 58.6523 332.79 57.985V57.725H333.96V57.92C333.96 58.31 334.099 58.609 334.376 58.817C334.653 59.0163 335.056 59.116 335.585 59.116C336.088 59.116 336.465 59.038 336.716 58.882C336.976 58.726 337.106 58.4963 337.106 58.193V58.076C337.106 57.8073 337.015 57.6037 336.833 57.465C336.651 57.3177 336.395 57.244 336.066 57.244H334.727V56.23H336.001C336.339 56.23 336.599 56.1607 336.781 56.022C336.963 55.8833 337.054 55.6883 337.054 55.437V55.32C337.054 55.034 336.928 54.8173 336.677 54.67C336.434 54.5227 336.07 54.449 335.585 54.449C335.056 54.449 334.653 54.5573 334.376 54.774C334.099 54.982 333.96 55.2853 333.96 55.684V55.853H332.79V55.658C332.79 55.216 332.903 54.826 333.128 54.488C333.362 54.1413 333.687 53.877 334.103 53.695C334.519 53.5043 335 53.409 335.546 53.409C336.369 53.409 337.019 53.5693 337.496 53.89C337.973 54.2107 338.211 54.6483 338.211 55.203V55.385C338.211 56.0177 337.895 56.4683 337.262 56.737ZM340.861 53.565V56.23H343.838V53.565H345.021V60H343.838V57.296H340.861V60H339.691V53.565H340.861ZM349.233 60.156C348.41 60.156 347.751 59.9177 347.257 59.441C346.763 58.9643 346.516 58.3317 346.516 57.543V56.022C346.516 55.2247 346.763 54.5877 347.257 54.111C347.751 53.6343 348.41 53.396 349.233 53.396C350.065 53.396 350.728 53.6343 351.222 54.111C351.725 54.5877 351.976 55.2247 351.976 56.022V57.543C351.976 58.3317 351.725 58.9643 351.222 59.441C350.728 59.9177 350.065 60.156 349.233 60.156ZM349.246 59.051C349.723 59.051 350.1 58.9123 350.377 58.635C350.663 58.3577 350.806 57.985 350.806 57.517V56.061C350.806 55.5757 350.667 55.1943 350.39 54.917C350.113 54.6397 349.731 54.501 349.246 54.501C348.769 54.501 348.388 54.6397 348.102 54.917C347.825 55.1943 347.686 55.5757 347.686 56.061V57.517C347.686 57.9937 347.825 58.3707 348.102 58.648C348.388 58.9167 348.769 59.051 349.246 59.051ZM357.456 53.552V54.618H354.635V60H353.465V53.552H357.456ZM363.415 60H362.245V54.618H359.762L359.697 57.673C359.68 58.4703 359.515 59.0597 359.203 59.441C358.9 59.8137 358.432 60 357.799 60H357.448V58.934H357.656C357.977 58.934 358.207 58.8257 358.345 58.609C358.493 58.3923 358.575 58.0413 358.592 57.556L358.683 53.552H363.415V60ZM371.064 58.934V60H370.375C370.063 60 369.79 59.948 369.556 59.844C369.33 59.7313 369.157 59.571 369.036 59.363C368.559 59.8917 367.883 60.156 367.008 60.156C366.314 60.156 365.764 59.9913 365.357 59.662C364.949 59.3327 364.746 58.8777 364.746 58.297C364.746 57.7683 364.919 57.3523 365.266 57.049C365.612 56.7457 366.145 56.5463 366.865 56.451L368.802 56.191V55.775C368.802 55.359 368.68 55.0427 368.438 54.826C368.204 54.6093 367.857 54.501 367.398 54.501C366.947 54.501 366.596 54.6093 366.345 54.826C366.102 55.034 365.981 55.3287 365.981 55.71V55.801H364.798V55.71C364.798 54.9993 365.032 54.436 365.5 54.02C365.976 53.604 366.622 53.396 367.437 53.396C368.251 53.396 368.88 53.6083 369.322 54.033C369.764 54.449 369.985 55.0383 369.985 55.801V58.284C369.985 58.7173 370.193 58.934 370.609 58.934H371.064ZM367.086 59.142C367.467 59.142 367.805 59.0597 368.1 58.895C368.403 58.7303 368.637 58.505 368.802 58.219V57.114L367.06 57.374C366.297 57.4953 365.916 57.7987 365.916 58.284C365.916 58.5527 366.02 58.765 366.228 58.921C366.444 59.0683 366.73 59.142 367.086 59.142ZM374.51 60.156C373.964 60.156 373.483 60.0477 373.067 59.831C372.651 59.6143 372.33 59.311 372.105 58.921C371.88 58.5223 371.767 58.063 371.767 57.543V56.009C371.767 55.489 371.88 55.034 372.105 54.644C372.33 54.2453 372.651 53.9377 373.067 53.721C373.483 53.5043 373.964 53.396 374.51 53.396C375.021 53.396 375.476 53.5043 375.875 53.721C376.282 53.929 376.599 54.2193 376.824 54.592C377.049 54.9647 377.162 55.3893 377.162 55.866V56.009H375.992V55.866C375.992 55.4673 375.853 55.1423 375.576 54.891C375.299 54.631 374.943 54.501 374.51 54.501C374.025 54.501 373.643 54.6397 373.366 54.917C373.089 55.1857 372.95 55.5583 372.95 56.035V57.517C372.95 57.9937 373.089 58.3707 373.366 58.648C373.643 58.9167 374.025 59.051 374.51 59.051C374.943 59.051 375.299 58.9297 375.576 58.687C375.853 58.4357 375.992 58.115 375.992 57.725V57.582H377.162V57.725C377.162 58.453 376.919 59.0423 376.434 59.493C375.949 59.935 375.307 60.156 374.51 60.156ZM379.746 53.552V58.141L382.788 53.552H383.867V60H382.723V55.411L379.694 60H378.615V53.552H379.746ZM390.671 60H389.488V57.595H388.409L386.459 60H385.146V59.844L387.005 57.556C386.433 57.4693 385.982 57.2657 385.653 56.945C385.332 56.6157 385.172 56.204 385.172 55.71V55.528C385.172 54.9213 385.389 54.4403 385.822 54.085C386.255 53.7297 386.832 53.552 387.551 53.552H390.671V60ZM389.488 56.594V54.605H387.564C387.191 54.605 386.897 54.6873 386.68 54.852C386.463 55.0167 386.355 55.2463 386.355 55.541V55.697C386.355 55.983 386.459 56.204 386.667 56.36C386.884 56.516 387.183 56.594 387.564 56.594H389.488Z" fill="#261E1E"/>
</g>
<defs>
<linearGradient id="paint0_linear_2815_83111" x1="448.531" y1="38.3989" x2="-0.937705" y2="38.3989" gradientUnits="userSpaceOnUse">
<stop stop-color="#D7DD93" stop-opacity="0"/>
<stop offset="0.302083" stop-color="#D7DD93"/>
</linearGradient>
</defs>
</svg>
