<svg width="458" height="173" viewBox="0 0 458 173" fill="none" xmlns="http://www.w3.org/2000/svg">
<line opacity="0.1" x1="2" y1="111.847" x2="450" y2="111.847" stroke="#966F7B"/>
<path opacity="0.1" d="M2 4C2 1.79086 3.79086 0 6 0H68.9703C71.1794 0 72.9703 1.79086 72.9703 4V19.8613C72.9703 22.0704 71.1794 23.8613 68.9703 23.8613H6C3.79087 23.8613 2 22.0704 2 19.8613V4Z" fill="#FECE30"/>
<path opacity="0.1" d="M2 31.8381C2 29.629 3.79086 27.8381 6 27.8381H68.9703C71.1794 27.8381 72.9703 29.629 72.9703 31.8381V47.6994C72.9703 49.9085 71.1794 51.6994 68.9703 51.6994H6C3.79087 51.6994 2 49.9085 2 47.6994V31.8381Z" fill="#FECE30"/>
<path opacity="0.1" d="M2 59.6763C2 57.4671 3.79086 55.6763 6 55.6763H68.9703C71.1794 55.6763 72.9703 57.4671 72.9703 59.6763V75.5375C72.9703 77.7467 71.1794 79.5375 68.9703 79.5375H6C3.79087 79.5375 2 77.7467 2 75.5375V59.6763Z" fill="#FECE30"/>
<path opacity="0.1" d="M2 87.5144C2 85.3053 3.79086 83.5144 6 83.5144H68.9703C71.1794 83.5144 72.9703 85.3053 72.9703 87.5144V103.376C72.9703 105.585 71.1794 107.376 68.9703 107.376H6C3.79087 107.376 2 105.585 2 103.376V87.5144Z" fill="#FECE30"/>
<path opacity="0.1" d="M2 120.324C2 118.115 3.79086 116.324 6 116.324H68.9703C71.1794 116.324 72.9703 118.115 72.9703 120.324V136.185C72.9703 138.394 71.1794 140.185 68.9703 140.185H6C3.79087 140.185 2 138.394 2 136.185V120.324Z" fill="#FECE30"/>
<path opacity="0.1" d="M2 148.162C2 145.953 3.79086 144.162 6 144.162H68.9703C71.1794 144.162 72.9703 145.953 72.9703 148.162V164.023C72.9703 166.232 71.1794 168.023 68.9703 168.023H6C3.79087 168.023 2 166.232 2 164.023V148.162Z" fill="#FECE30"/>
<path opacity="0.1" d="M77.4059 4C77.4059 1.79086 79.1967 0 81.4059 0H144.376C146.585 0 148.376 1.79086 148.376 4V19.8613C148.376 22.0704 146.585 23.8613 144.376 23.8613H81.4059C79.1967 23.8613 77.4059 22.0704 77.4059 19.8613V4Z" fill="#FECE30"/>
<path opacity="0.1" d="M77.406 31.8381C77.406 29.629 79.1969 27.8381 81.406 27.8381H144.376C146.585 27.8381 148.376 29.629 148.376 31.8381V47.6994C148.376 49.9085 146.585 51.6994 144.376 51.6994H81.406C79.1969 51.6994 77.406 49.9085 77.406 47.6994V31.8381Z" fill="#FECE30"/>
<path opacity="0.1" d="M77.406 59.6763C77.406 57.4671 79.1969 55.6763 81.406 55.6763H144.376C146.585 55.6763 148.376 57.4671 148.376 59.6763V75.5375C148.376 77.7467 146.585 79.5375 144.376 79.5375H81.406C79.1969 79.5375 77.406 77.7467 77.406 75.5375V59.6763Z" fill="#FECE30"/>
<path opacity="0.1" d="M77.406 87.5144C77.406 85.3053 79.1969 83.5144 81.406 83.5144H144.376C146.585 83.5144 148.376 85.3053 148.376 87.5144V103.376C148.376 105.585 146.585 107.376 144.376 107.376H81.406C79.1969 107.376 77.406 105.585 77.406 103.376V87.5144Z" fill="#FECE30"/>
<path opacity="0.1" d="M77.406 120.324C77.406 118.115 79.1969 116.324 81.406 116.324H144.376C146.585 116.324 148.376 118.115 148.376 120.324V136.185C148.376 138.394 146.585 140.185 144.376 140.185H81.406C79.1969 140.185 77.406 138.394 77.406 136.185V120.324Z" fill="#FECE30"/>
<path opacity="0.1" d="M77.406 148.162C77.406 145.953 79.1969 144.162 81.406 144.162H144.376C146.585 144.162 148.376 145.953 148.376 148.162V164.023C148.376 166.232 146.585 168.023 144.376 168.023H81.406C79.1969 168.023 77.406 166.232 77.406 164.023V148.162Z" fill="#FECE30"/>
<path opacity="0.1" d="M152.812 4C152.812 1.79086 154.603 0 156.812 0H219.782C221.991 0 223.782 1.79086 223.782 4V19.8613C223.782 22.0704 221.991 23.8613 219.782 23.8613H156.812C154.603 23.8613 152.812 22.0704 152.812 19.8613V4Z" fill="#FECE30"/>
<path opacity="0.1" d="M152.812 31.8381C152.812 29.629 154.603 27.8381 156.812 27.8381H219.782C221.991 27.8381 223.782 29.629 223.782 31.8381V47.6994C223.782 49.9085 221.991 51.6994 219.782 51.6994H156.812C154.603 51.6994 152.812 49.9085 152.812 47.6994V31.8381Z" fill="#FECE30"/>
<path opacity="0.1" d="M152.812 59.6763C152.812 57.4671 154.603 55.6763 156.812 55.6763H219.782C221.991 55.6763 223.782 57.4671 223.782 59.6763V75.5375C223.782 77.7467 221.991 79.5375 219.782 79.5375H156.812C154.603 79.5375 152.812 77.7467 152.812 75.5375V59.6763Z" fill="#FECE30"/>
<path opacity="0.1" d="M152.812 87.5144C152.812 85.3053 154.603 83.5144 156.812 83.5144H219.782C221.991 83.5144 223.782 85.3053 223.782 87.5144V103.376C223.782 105.585 221.991 107.376 219.782 107.376H156.812C154.603 107.376 152.812 105.585 152.812 103.376V87.5144Z" fill="#FECE30"/>
<path opacity="0.1" d="M152.812 120.324C152.812 118.115 154.603 116.324 156.812 116.324H219.782C221.991 116.324 223.782 118.115 223.782 120.324V136.185C223.782 138.394 221.991 140.185 219.782 140.185H156.812C154.603 140.185 152.812 138.394 152.812 136.185V120.324Z" fill="#FECE30"/>
<path opacity="0.1" d="M152.812 148.162C152.812 145.953 154.603 144.162 156.812 144.162H219.782C221.991 144.162 223.782 145.953 223.782 148.162V164.023C223.782 166.232 221.991 168.023 219.782 168.023H156.812C154.603 168.023 152.812 166.232 152.812 164.023V148.162Z" fill="#FECE30"/>
<path opacity="0.1" d="M228.218 4C228.218 1.79086 230.009 0 232.218 0H295.188C297.397 0 299.188 1.79086 299.188 4V19.8613C299.188 22.0704 297.397 23.8613 295.188 23.8613H232.218C230.009 23.8613 228.218 22.0704 228.218 19.8613V4Z" fill="#FECE30"/>
<path opacity="0.1" d="M228.218 31.8381C228.218 29.629 230.009 27.8381 232.218 27.8381H295.188C297.397 27.8381 299.188 29.629 299.188 31.8381V47.6994C299.188 49.9085 297.397 51.6994 295.188 51.6994H232.218C230.009 51.6994 228.218 49.9085 228.218 47.6994V31.8381Z" fill="#FECE30"/>
<path opacity="0.1" d="M228.218 59.6763C228.218 57.4671 230.009 55.6763 232.218 55.6763H295.188C297.397 55.6763 299.188 57.4671 299.188 59.6763V75.5375C299.188 77.7467 297.397 79.5375 295.188 79.5375H232.218C230.009 79.5375 228.218 77.7467 228.218 75.5375V59.6763Z" fill="#FECE30"/>
<path opacity="0.1" d="M228.218 87.5144C228.218 85.3053 230.009 83.5144 232.218 83.5144H295.188C297.397 83.5144 299.188 85.3053 299.188 87.5144V103.376C299.188 105.585 297.397 107.376 295.188 107.376H232.218C230.009 107.376 228.218 105.585 228.218 103.376V87.5144Z" fill="#FECE30"/>
<path opacity="0.1" d="M228.218 120.324C228.218 118.115 230.009 116.324 232.218 116.324H295.188C297.397 116.324 299.188 118.115 299.188 120.324V136.185C299.188 138.394 297.397 140.185 295.188 140.185H232.218C230.009 140.185 228.218 138.394 228.218 136.185V120.324Z" fill="#FECE30"/>
<path opacity="0.1" d="M228.218 148.162C228.218 145.953 230.009 144.162 232.218 144.162H295.188C297.397 144.162 299.188 145.953 299.188 148.162V164.023C299.188 166.232 297.397 168.023 295.188 168.023H232.218C230.009 168.023 228.218 166.232 228.218 164.023V148.162Z" fill="#FECE30"/>
<path opacity="0.1" d="M303.624 4C303.624 1.79086 305.415 0 307.624 0H370.594C372.803 0 374.594 1.79086 374.594 4V19.8613C374.594 22.0704 372.803 23.8613 370.594 23.8613H307.624C305.415 23.8613 303.624 22.0704 303.624 19.8613V4Z" fill="#FECE30"/>
<path opacity="0.1" d="M303.624 31.8381C303.624 29.629 305.415 27.8381 307.624 27.8381H370.594C372.803 27.8381 374.594 29.629 374.594 31.8381V47.6994C374.594 49.9085 372.803 51.6994 370.594 51.6994H307.624C305.415 51.6994 303.624 49.9085 303.624 47.6994V31.8381Z" fill="#FECE30"/>
<path opacity="0.1" d="M303.624 59.6763C303.624 57.4671 305.415 55.6763 307.624 55.6763H370.594C372.803 55.6763 374.594 57.4671 374.594 59.6763V75.5375C374.594 77.7467 372.803 79.5375 370.594 79.5375H307.624C305.415 79.5375 303.624 77.7467 303.624 75.5375V59.6763Z" fill="#FECE30"/>
<path opacity="0.1" d="M303.624 87.5144C303.624 85.3053 305.415 83.5144 307.624 83.5144H370.594C372.803 83.5144 374.594 85.3053 374.594 87.5144V103.376C374.594 105.585 372.803 107.376 370.594 107.376H307.624C305.415 107.376 303.624 105.585 303.624 103.376V87.5144Z" fill="#FECE30"/>
<path opacity="0.1" d="M303.624 120.324C303.624 118.115 305.415 116.324 307.624 116.324H370.594C372.803 116.324 374.594 118.115 374.594 120.324V136.185C374.594 138.394 372.803 140.185 370.594 140.185H307.624C305.415 140.185 303.624 138.394 303.624 136.185V120.324Z" fill="#FECE30"/>
<path opacity="0.1" d="M303.624 148.162C303.624 145.953 305.415 144.162 307.624 144.162H370.594C372.803 144.162 374.594 145.953 374.594 148.162V164.023C374.594 166.232 372.803 168.023 370.594 168.023H307.624C305.415 168.023 303.624 166.232 303.624 164.023V148.162Z" fill="#FECE30"/>
<path opacity="0.1" d="M379.03 4C379.03 1.79086 380.821 0 383.03 0H446C448.209 0 450 1.79086 450 4V19.8613C450 22.0704 448.209 23.8613 446 23.8613H383.03C380.821 23.8613 379.03 22.0704 379.03 19.8613V4Z" fill="#FECE30"/>
<path opacity="0.1" d="M379.03 31.8381C379.03 29.629 380.821 27.8381 383.03 27.8381H446C448.209 27.8381 450 29.629 450 31.8381V47.6994C450 49.9085 448.209 51.6994 446 51.6994H383.03C380.821 51.6994 379.03 49.9085 379.03 47.6994V31.8381Z" fill="#FECE30"/>
<path opacity="0.1" d="M379.03 59.6763C379.03 57.4671 380.821 55.6763 383.03 55.6763H446C448.209 55.6763 450 57.4671 450 59.6763V75.5375C450 77.7467 448.209 79.5375 446 79.5375H383.03C380.821 79.5375 379.03 77.7467 379.03 75.5375V59.6763Z" fill="#FECE30"/>
<path opacity="0.1" d="M379.03 87.5144C379.03 85.3053 380.821 83.5144 383.03 83.5144H446C448.209 83.5144 450 85.3053 450 87.5144V103.376C450 105.585 448.209 107.376 446 107.376H383.03C380.821 107.376 379.03 105.585 379.03 103.376V87.5144Z" fill="#FECE30"/>
<path opacity="0.1" d="M379.03 120.324C379.03 118.115 380.821 116.324 383.03 116.324H446C448.209 116.324 450 118.115 450 120.324V136.185C450 138.394 448.209 140.185 446 140.185H383.03C380.821 140.185 379.03 138.394 379.03 136.185V120.324Z" fill="#FECE30"/>
<path opacity="0.1" d="M379.03 148.162C379.03 145.953 380.821 144.162 383.03 144.162H446C448.209 144.162 450 145.953 450 148.162V164.023C450 166.232 448.209 168.023 446 168.023H383.03C380.821 168.023 379.03 166.232 379.03 164.023V148.162Z" fill="#FECE30"/>
<path d="M2 108.215L67.9566 107.103C71.9016 107.037 75.7321 108.43 78.7122 111.016L142.216 166.118C146.427 169.771 152.236 170.97 157.549 169.281L222.972 148.483C224.6 147.965 226.301 147.711 228.01 147.732L298.417 148.572C300.619 148.599 302.803 148.17 304.832 147.313L374.243 118.007C376.254 117.158 378.418 116.729 380.601 116.747L450 117.327" stroke="url(#paint0_linear_2816_83399)" stroke-width="4" stroke-linecap="round" stroke-linejoin="round"/>
<rect x="27" y="64" width="91" height="24" rx="4" fill="#FECE30"/>
<path d="M39.056 80.156C38.406 80.156 37.834 80.026 37.34 79.766C36.846 79.506 36.4603 79.1377 36.183 78.661C35.9143 78.1843 35.78 77.6383 35.78 77.023V74.475C35.78 73.851 35.9143 73.3007 36.183 72.824C36.4603 72.3473 36.846 71.979 37.34 71.719C37.834 71.4503 38.406 71.316 39.056 71.316C39.68 71.316 40.2347 71.446 40.72 71.706C41.214 71.9573 41.5953 72.3127 41.864 72.772C42.1413 73.2227 42.28 73.7427 42.28 74.332V74.644H41.071V74.332C41.071 73.7427 40.889 73.2833 40.525 72.954C40.1697 72.616 39.6757 72.447 39.043 72.447C38.393 72.447 37.8903 72.629 37.535 72.993C37.1797 73.3483 37.002 73.8553 37.002 74.514V76.971C37.002 77.6297 37.1797 78.1367 37.535 78.492C37.8903 78.8473 38.393 79.025 39.043 79.025C39.6757 79.025 40.1697 78.8603 40.525 78.531C40.889 78.193 41.071 77.7293 41.071 77.14V76.815H42.28V77.14C42.28 77.7293 42.1413 78.2537 41.864 78.713C41.5953 79.1637 41.214 79.519 40.72 79.779C40.2347 80.0303 39.68 80.156 39.056 80.156ZM49.1344 73.552V80H47.9514V74.618H45.0134V80H43.8434V73.552H49.1344ZM53.3472 80.156C52.5238 80.156 51.8652 79.9177 51.3712 79.441C50.8772 78.9643 50.6302 78.3317 50.6302 77.543V76.022C50.6302 75.2247 50.8772 74.5877 51.3712 74.111C51.8652 73.6343 52.5238 73.396 53.3472 73.396C54.1792 73.396 54.8422 73.6343 55.3362 74.111C55.8388 74.5877 56.0902 75.2247 56.0902 76.022V77.543C56.0902 78.3317 55.8388 78.9643 55.3362 79.441C54.8422 79.9177 54.1792 80.156 53.3472 80.156ZM53.3602 79.051C53.8368 79.051 54.2138 78.9123 54.4912 78.635C54.7772 78.3577 54.9202 77.985 54.9202 77.517V76.061C54.9202 75.5757 54.7815 75.1943 54.5042 74.917C54.2268 74.6397 53.8455 74.501 53.3602 74.501C52.8835 74.501 52.5022 74.6397 52.2162 74.917C51.9388 75.1943 51.8002 75.5757 51.8002 76.061V77.517C51.8002 77.9937 51.9388 78.3707 52.2162 78.648C52.5022 78.9167 52.8835 79.051 53.3602 79.051ZM63.1437 79.818V80H61.8697L59.8417 77.296H58.7497V80H57.5797V73.552H58.7497V76.256H59.8157L61.7657 73.552H63.0397V73.734L60.8817 76.763L63.1437 79.818ZM66.4487 80.156C65.6254 80.156 64.9667 79.9177 64.4727 79.441C63.9787 78.9643 63.7317 78.3317 63.7317 77.543V76.022C63.7317 75.2247 63.9787 74.5877 64.4727 74.111C64.9667 73.6343 65.6254 73.396 66.4487 73.396C67.2807 73.396 67.9437 73.6343 68.4377 74.111C68.9404 74.5877 69.1917 75.2247 69.1917 76.022V77.543C69.1917 78.3317 68.9404 78.9643 68.4377 79.441C67.9437 79.9177 67.2807 80.156 66.4487 80.156ZM66.4617 79.051C66.9384 79.051 67.3154 78.9123 67.5927 78.635C67.8787 78.3577 68.0217 77.985 68.0217 77.517V76.061C68.0217 75.5757 67.8831 75.1943 67.6057 74.917C67.3284 74.6397 66.9471 74.501 66.4617 74.501C65.9851 74.501 65.6037 74.6397 65.3177 74.917C65.0404 75.1943 64.9017 75.5757 64.9017 76.061V77.517C64.9017 77.9937 65.0404 78.3707 65.3177 78.648C65.6037 78.9167 65.9851 79.051 66.4617 79.051ZM71.8122 73.552V78.141L74.8542 73.552H75.9332V80H74.7892V75.411L71.7602 80H70.6812V73.552H71.8122ZM73.3072 72.642C72.6572 72.642 72.1546 72.5077 71.7992 72.239C71.4526 71.9617 71.2792 71.5673 71.2792 71.056V70.965H72.3062V71.056C72.3062 71.4633 72.6442 71.667 73.3202 71.667C73.9789 71.667 74.3082 71.4633 74.3082 71.056V70.965H75.3352V71.056C75.3352 71.5673 75.1619 71.9617 74.8152 72.239C74.4686 72.5077 73.9659 72.642 73.3072 72.642ZM80.173 80.156C79.627 80.156 79.146 80.0477 78.73 79.831C78.314 79.6143 77.9933 79.311 77.768 78.921C77.5426 78.5223 77.43 78.063 77.43 77.543V76.009C77.43 75.489 77.5426 75.034 77.768 74.644C77.9933 74.2453 78.314 73.9377 78.73 73.721C79.146 73.5043 79.627 73.396 80.173 73.396C80.6843 73.396 81.1393 73.5043 81.538 73.721C81.9453 73.929 82.2616 74.2193 82.487 74.592C82.7123 74.9647 82.825 75.3893 82.825 75.866V76.009H81.655V75.866C81.655 75.4673 81.5163 75.1423 81.239 74.891C80.9616 74.631 80.6063 74.501 80.173 74.501C79.6876 74.501 79.3063 74.6397 79.029 74.917C78.7516 75.1857 78.613 75.5583 78.613 76.035V77.517C78.613 77.9937 78.7516 78.3707 79.029 78.648C79.3063 78.9167 79.6876 79.051 80.173 79.051C80.6063 79.051 80.9616 78.9297 81.239 78.687C81.5163 78.4357 81.655 78.115 81.655 77.725V77.582H82.825V77.725C82.825 78.453 82.5823 79.0423 82.097 79.493C81.6116 79.935 80.9703 80.156 80.173 80.156ZM83.3598 74.618V73.552H88.8328V74.618H86.6878V80H85.5048V74.618H83.3598ZM94.2585 76.711C94.6051 76.841 94.8695 77.0317 95.0515 77.283C95.2421 77.5343 95.3375 77.829 95.3375 78.167V78.349C95.3375 78.869 95.1468 79.2763 94.7655 79.571C94.3841 79.857 93.8208 80 93.0755 80H89.8385V73.552H92.9195C93.6735 73.552 94.2368 73.695 94.6095 73.981C94.9821 74.2583 95.1685 74.6613 95.1685 75.19V75.359C95.1685 75.6797 95.0905 75.957 94.9345 76.191C94.7785 76.4163 94.5531 76.5897 94.2585 76.711ZM91.0085 74.501V76.282H92.9975C93.3095 76.282 93.5521 76.2083 93.7255 76.061C93.9075 75.905 93.9985 75.7013 93.9985 75.45V75.307C93.9985 75.0557 93.9075 74.8607 93.7255 74.722C93.5521 74.5747 93.3051 74.501 92.9845 74.501H91.0085ZM94.1675 78.05C94.1675 77.7813 94.0765 77.5777 93.8945 77.439C93.7125 77.2917 93.4568 77.218 93.1275 77.218H91.0085V79.051H93.1405C93.4525 79.051 93.6995 78.9773 93.8815 78.83C94.0721 78.674 94.1675 78.466 94.1675 78.206V78.05ZM97.8884 73.552V78.141L100.93 73.552H102.009V80H100.865V75.411L97.8364 80H96.7574V73.552H97.8884ZM104.676 77.205V77.517C104.676 78.0023 104.815 78.3837 105.092 78.661C105.378 78.9297 105.768 79.064 106.262 79.064C106.678 79.064 107.025 78.96 107.302 78.752C107.588 78.544 107.735 78.2883 107.744 77.985H108.914C108.879 78.6263 108.619 79.1507 108.134 79.558C107.649 79.9567 107.025 80.156 106.262 80.156C105.43 80.156 104.763 79.922 104.26 79.454C103.757 78.9773 103.506 78.3447 103.506 77.556V76.009C103.506 75.489 103.619 75.034 103.844 74.644C104.069 74.2453 104.39 73.9377 104.806 73.721C105.222 73.5043 105.699 73.396 106.236 73.396C107.051 73.396 107.701 73.6343 108.186 74.111C108.671 74.5877 108.914 75.216 108.914 75.996V77.205H104.676ZM106.236 74.488C105.759 74.488 105.378 74.631 105.092 74.917C104.815 75.1943 104.676 75.5713 104.676 76.048V76.23H107.744V76.048C107.744 75.5713 107.605 75.1943 107.328 74.917C107.059 74.631 106.695 74.488 106.236 74.488Z" fill="#261E1E"/>
<g opacity="0.75">
<rect x="162" y="107" width="116" height="24" rx="4" fill="#FECE30"/>
<path d="M172.132 114.472V118.19H175.616V114.472H176.838V123H175.616V119.295H172.132V123H170.91V114.472H172.132ZM179.551 120.205V120.517C179.551 121.002 179.69 121.384 179.967 121.661C180.253 121.93 180.643 122.064 181.137 122.064C181.553 122.064 181.9 121.96 182.177 121.752C182.463 121.544 182.61 121.288 182.619 120.985H183.789C183.754 121.626 183.494 122.151 183.009 122.558C182.524 122.957 181.9 123.156 181.137 123.156C180.305 123.156 179.638 122.922 179.135 122.454C178.632 121.977 178.381 121.345 178.381 120.556V119.009C178.381 118.489 178.494 118.034 178.719 117.644C178.944 117.245 179.265 116.938 179.681 116.721C180.097 116.504 180.574 116.396 181.111 116.396C181.926 116.396 182.576 116.634 183.061 117.111C183.546 117.588 183.789 118.216 183.789 118.996V120.205H179.551ZM181.111 117.488C180.634 117.488 180.253 117.631 179.967 117.917C179.69 118.194 179.551 118.571 179.551 119.048V119.23H182.619V119.048C182.619 118.571 182.48 118.194 182.203 117.917C181.934 117.631 181.57 117.488 181.111 117.488ZM190.571 116.552V123H189.388V117.618H186.45V123H185.28V116.552H190.571ZM195.226 116.396C195.98 116.396 196.582 116.63 197.033 117.098C197.483 117.557 197.709 118.173 197.709 118.944V120.608C197.709 121.379 197.483 121.999 197.033 122.467C196.582 122.926 195.98 123.156 195.226 123.156C194.506 123.156 193.917 122.939 193.458 122.506V125.21H192.288V116.552H193.341L193.393 117.098C193.861 116.63 194.472 116.396 195.226 116.396ZM196.526 118.996C196.526 118.537 196.387 118.173 196.11 117.904C195.841 117.635 195.473 117.501 195.005 117.501C194.667 117.501 194.359 117.579 194.082 117.735C193.813 117.882 193.605 118.09 193.458 118.359V121.206C193.605 121.466 193.813 121.674 194.082 121.83C194.35 121.977 194.658 122.051 195.005 122.051C195.473 122.051 195.841 121.917 196.11 121.648C196.387 121.379 196.526 121.015 196.526 120.556V118.996ZM200.325 116.552V121.141L203.367 116.552H204.446V123H203.302V118.411L200.273 123H199.194V116.552H200.325ZM207.113 120.205V120.517C207.113 121.002 207.251 121.384 207.529 121.661C207.815 121.93 208.205 122.064 208.699 122.064C209.115 122.064 209.461 121.96 209.739 121.752C210.025 121.544 210.172 121.288 210.181 120.985H211.351C211.316 121.626 211.056 122.151 210.571 122.558C210.085 122.957 209.461 123.156 208.699 123.156C207.867 123.156 207.199 122.922 206.697 122.454C206.194 121.977 205.943 121.345 205.943 120.556V119.009C205.943 118.489 206.055 118.034 206.281 117.644C206.506 117.245 206.827 116.938 207.243 116.721C207.659 116.504 208.135 116.396 208.673 116.396C209.487 116.396 210.137 116.634 210.623 117.111C211.108 117.588 211.351 118.216 211.351 118.996V120.205H207.113ZM208.673 117.488C208.196 117.488 207.815 117.631 207.529 117.917C207.251 118.194 207.113 118.571 207.113 119.048V119.23H210.181V119.048C210.181 118.571 210.042 118.194 209.765 117.917C209.496 117.631 209.132 117.488 208.673 117.488ZM219.965 116.552V123H218.873V118.138L218.717 118.606L216.871 123H215.948L214.102 118.606L213.933 118.112V123H212.841V116.552H214.388L216.403 121.375L218.418 116.552H219.965ZM226.955 123H225.785V117.618H223.302L223.237 120.673C223.22 121.47 223.055 122.06 222.743 122.441C222.44 122.814 221.972 123 221.339 123H220.988V121.934H221.196C221.517 121.934 221.747 121.826 221.885 121.609C222.033 121.392 222.115 121.041 222.132 120.556L222.223 116.552H226.955V123ZM229.803 116.552V121.141L232.845 116.552H233.924V123H232.78V118.411L229.751 123H228.672V116.552H229.803ZM242.766 116.552V123H241.674V118.138L241.518 118.606L239.672 123H238.749L236.903 118.606L236.734 118.112V123H235.642V116.552H237.189L239.204 121.375L241.219 116.552H242.766ZM246.974 123.156C246.151 123.156 245.492 122.918 244.998 122.441C244.504 121.964 244.257 121.332 244.257 120.543V119.022C244.257 118.225 244.504 117.588 244.998 117.111C245.492 116.634 246.151 116.396 246.974 116.396C247.806 116.396 248.469 116.634 248.963 117.111C249.466 117.588 249.717 118.225 249.717 119.022V120.543C249.717 121.332 249.466 121.964 248.963 122.441C248.469 122.918 247.806 123.156 246.974 123.156ZM246.987 122.051C247.464 122.051 247.841 121.912 248.118 121.635C248.404 121.358 248.547 120.985 248.547 120.517V119.061C248.547 118.576 248.408 118.194 248.131 117.917C247.854 117.64 247.472 117.501 246.987 117.501C246.51 117.501 246.129 117.64 245.843 117.917C245.566 118.194 245.427 118.576 245.427 119.061V120.517C245.427 120.994 245.566 121.371 245.843 121.648C246.129 121.917 246.51 122.051 246.987 122.051ZM253.729 123.156C253.183 123.156 252.702 123.048 252.286 122.831C251.87 122.614 251.549 122.311 251.324 121.921C251.098 121.522 250.986 121.063 250.986 120.543V119.009C250.986 118.489 251.098 118.034 251.324 117.644C251.549 117.245 251.87 116.938 252.286 116.721C252.702 116.504 253.183 116.396 253.729 116.396C254.24 116.396 254.695 116.504 255.094 116.721C255.501 116.929 255.817 117.219 256.043 117.592C256.268 117.965 256.381 118.389 256.381 118.866V119.009H255.211V118.866C255.211 118.467 255.072 118.142 254.795 117.891C254.517 117.631 254.162 117.501 253.729 117.501C253.243 117.501 252.862 117.64 252.585 117.917C252.307 118.186 252.169 118.558 252.169 119.035V120.517C252.169 120.994 252.307 121.371 252.585 121.648C252.862 121.917 253.243 122.051 253.729 122.051C254.162 122.051 254.517 121.93 254.795 121.687C255.072 121.436 255.211 121.115 255.211 120.725V120.582H256.381V120.725C256.381 121.453 256.138 122.042 255.653 122.493C255.167 122.935 254.526 123.156 253.729 123.156ZM256.915 117.618V116.552H262.388V117.618H260.243V123H259.06V117.618H256.915ZM266.592 118.788C267.277 118.788 267.823 118.974 268.23 119.347C268.637 119.72 268.841 120.214 268.841 120.829V120.959C268.841 121.574 268.637 122.068 268.23 122.441C267.823 122.814 267.277 123 266.592 123H263.394V116.552H264.564V118.788H266.592ZM267.671 120.842C267.671 120.53 267.571 120.287 267.372 120.114C267.173 119.941 266.895 119.854 266.54 119.854H264.564V121.934H266.54C266.895 121.934 267.173 121.852 267.372 121.687C267.571 121.514 267.671 121.267 267.671 120.946V120.842Z" fill="#261E1E"/>
</g>
<g opacity="0.7">
<rect x="328" y="72" width="110" height="24" rx="4" fill="#FECE30"/>
<path d="M342.357 79.472V80.577H338.132V83.112H340.251C341.083 83.112 341.733 83.3243 342.201 83.749C342.678 84.165 342.916 84.737 342.916 85.465V85.66C342.916 86.3793 342.678 86.9513 342.201 87.376C341.724 87.792 341.074 88 340.251 88H336.91V79.472H342.357ZM340.225 86.895C340.71 86.895 341.079 86.791 341.33 86.583C341.581 86.3663 341.707 86.0543 341.707 85.647V85.452C341.707 85.0533 341.581 84.7457 341.33 84.529C341.079 84.3123 340.71 84.204 340.225 84.204H338.132V86.895H340.225ZM345.335 85.205V85.517C345.335 86.0023 345.474 86.3837 345.751 86.661C346.037 86.9297 346.427 87.064 346.921 87.064C347.337 87.064 347.684 86.96 347.961 86.752C348.247 86.544 348.395 86.2883 348.403 85.985H349.573C349.539 86.6263 349.279 87.1507 348.793 87.558C348.308 87.9567 347.684 88.156 346.921 88.156C346.089 88.156 345.422 87.922 344.919 87.454C344.417 86.9773 344.165 86.3447 344.165 85.556V84.009C344.165 83.489 344.278 83.034 344.503 82.644C344.729 82.2453 345.049 81.9377 345.465 81.721C345.881 81.5043 346.358 81.396 346.895 81.396C347.71 81.396 348.36 81.6343 348.845 82.111C349.331 82.5877 349.573 83.216 349.573 83.996V85.205H345.335ZM346.895 82.488C346.419 82.488 346.037 82.631 345.751 82.917C345.474 83.1943 345.335 83.5713 345.335 84.048V84.23H348.403V84.048C348.403 83.5713 348.265 83.1943 347.987 82.917C347.719 82.631 347.355 82.488 346.895 82.488ZM353.586 88.156C353.04 88.156 352.559 88.0477 352.143 87.831C351.727 87.6143 351.406 87.311 351.181 86.921C350.956 86.5223 350.843 86.063 350.843 85.543V84.009C350.843 83.489 350.956 83.034 351.181 82.644C351.406 82.2453 351.727 81.9377 352.143 81.721C352.559 81.5043 353.04 81.396 353.586 81.396C354.097 81.396 354.552 81.5043 354.951 81.721C355.358 81.929 355.675 82.2193 355.9 82.592C356.125 82.9647 356.238 83.3893 356.238 83.866V84.009H355.068V83.866C355.068 83.4673 354.929 83.1423 354.652 82.891C354.375 82.631 354.019 82.501 353.586 82.501C353.101 82.501 352.719 82.6397 352.442 82.917C352.165 83.1857 352.026 83.5583 352.026 84.035V85.517C352.026 85.9937 352.165 86.3707 352.442 86.648C352.719 86.9167 353.101 87.051 353.586 87.051C354.019 87.051 354.375 86.9297 354.652 86.687C354.929 86.4357 355.068 86.115 355.068 85.725V85.582H356.238V85.725C356.238 86.453 355.995 87.0423 355.51 87.493C355.025 87.935 354.383 88.156 353.586 88.156ZM362.982 81.552V88H361.799V82.618H358.861V88H357.691V81.552H362.982ZM367.195 88.156C366.371 88.156 365.713 87.9177 365.219 87.441C364.725 86.9643 364.478 86.3317 364.478 85.543V84.022C364.478 83.2247 364.725 82.5877 365.219 82.111C365.713 81.6343 366.371 81.396 367.195 81.396C368.027 81.396 368.69 81.6343 369.184 82.111C369.686 82.5877 369.938 83.2247 369.938 84.022V85.543C369.938 86.3317 369.686 86.9643 369.184 87.441C368.69 87.9177 368.027 88.156 367.195 88.156ZM367.208 87.051C367.684 87.051 368.061 86.9123 368.339 86.635C368.625 86.3577 368.768 85.985 368.768 85.517V84.061C368.768 83.5757 368.629 83.1943 368.352 82.917C368.074 82.6397 367.693 82.501 367.208 82.501C366.731 82.501 366.35 82.6397 366.064 82.917C365.786 83.1943 365.648 83.5757 365.648 84.061V85.517C365.648 85.9937 365.786 86.3707 366.064 86.648C366.35 86.9167 366.731 87.051 367.208 87.051ZM378.551 81.552V88H377.459V83.138L377.303 83.606L375.457 88H374.534L372.688 83.606L372.519 83.112V88H371.427V81.552H372.974L374.989 86.375L377.004 81.552H378.551ZM382.759 88.156C381.936 88.156 381.277 87.9177 380.783 87.441C380.289 86.9643 380.042 86.3317 380.042 85.543V84.022C380.042 83.2247 380.289 82.5877 380.783 82.111C381.277 81.6343 381.936 81.396 382.759 81.396C383.591 81.396 384.254 81.6343 384.748 82.111C385.251 82.5877 385.502 83.2247 385.502 84.022V85.543C385.502 86.3317 385.251 86.9643 384.748 87.441C384.254 87.9177 383.591 88.156 382.759 88.156ZM382.772 87.051C383.249 87.051 383.626 86.9123 383.903 86.635C384.189 86.3577 384.332 85.985 384.332 85.517V84.061C384.332 83.5757 384.194 83.1943 383.916 82.917C383.639 82.6397 383.258 82.501 382.772 82.501C382.296 82.501 381.914 82.6397 381.628 82.917C381.351 83.1943 381.212 83.5757 381.212 84.061V85.517C381.212 85.9937 381.351 86.3707 381.628 86.648C381.914 86.9167 382.296 87.051 382.772 87.051ZM396.729 86.934V89.703H395.546V88H386.992V81.552H388.162V86.934H390.801V81.552H391.984V86.934H394.597V81.552H395.78V86.934H396.729ZM399.105 81.565V84.23H402.082V81.565H403.265V88H402.082V85.296H399.105V88H397.935V81.565H399.105ZM407.477 88.156C406.654 88.156 405.995 87.9177 405.501 87.441C405.007 86.9643 404.76 86.3317 404.76 85.543V84.022C404.76 83.2247 405.007 82.5877 405.501 82.111C405.995 81.6343 406.654 81.396 407.477 81.396C408.309 81.396 408.972 81.6343 409.466 82.111C409.969 82.5877 410.22 83.2247 410.22 84.022V85.543C410.22 86.3317 409.969 86.9643 409.466 87.441C408.972 87.9177 408.309 88.156 407.477 88.156ZM407.49 87.051C407.967 87.051 408.344 86.9123 408.621 86.635C408.907 86.3577 409.05 85.985 409.05 85.517V84.061C409.05 83.5757 408.911 83.1943 408.634 82.917C408.357 82.6397 407.975 82.501 407.49 82.501C407.013 82.501 406.632 82.6397 406.346 82.917C406.069 83.1943 405.93 83.5757 405.93 84.061V85.517C405.93 85.9937 406.069 86.3707 406.346 86.648C406.632 86.9167 407.013 87.051 407.49 87.051ZM414.232 88.156C413.686 88.156 413.205 88.0477 412.789 87.831C412.373 87.6143 412.052 87.311 411.827 86.921C411.601 86.5223 411.489 86.063 411.489 85.543V84.009C411.489 83.489 411.601 83.034 411.827 82.644C412.052 82.2453 412.373 81.9377 412.789 81.721C413.205 81.5043 413.686 81.396 414.232 81.396C414.743 81.396 415.198 81.5043 415.597 81.721C416.004 81.929 416.32 82.2193 416.546 82.592C416.771 82.9647 416.884 83.3893 416.884 83.866V84.009H415.714V83.866C415.714 83.4673 415.575 83.1423 415.298 82.891C415.02 82.631 414.665 82.501 414.232 82.501C413.746 82.501 413.365 82.6397 413.088 82.917C412.81 83.1857 412.672 83.5583 412.672 84.035V85.517C412.672 85.9937 412.81 86.3707 413.088 86.648C413.365 86.9167 413.746 87.051 414.232 87.051C414.665 87.051 415.02 86.9297 415.298 86.687C415.575 86.4357 415.714 86.115 415.714 85.725V85.582H416.884V85.725C416.884 86.453 416.641 87.0423 416.156 87.493C415.67 87.935 415.029 88.156 414.232 88.156ZM417.418 82.618V81.552H422.891V82.618H420.746V88H419.563V82.618H417.418ZM427.095 83.788C427.78 83.788 428.326 83.9743 428.733 84.347C429.14 84.7197 429.344 85.2137 429.344 85.829V85.959C429.344 86.5743 429.14 87.0683 428.733 87.441C428.326 87.8137 427.78 88 427.095 88H423.897V81.552H425.067V83.788H427.095ZM428.174 85.842C428.174 85.53 428.074 85.2873 427.875 85.114C427.676 84.9407 427.398 84.854 427.043 84.854H425.067V86.934H427.043C427.398 86.934 427.676 86.8517 427.875 86.687C428.074 86.5137 428.174 86.2667 428.174 85.946V85.842Z" fill="#261E1E"/>
</g>
<defs>
<linearGradient id="paint0_linear_2816_83399" x1="448.531" y1="35.6648" x2="-0.937705" y2="35.6648" gradientUnits="userSpaceOnUse">
<stop stop-color="#FECE30" stop-opacity="0"/>
<stop offset="0.302083" stop-color="#FECE30"/>
</linearGradient>
</defs>
</svg>
