<svg width="351" height="351" viewBox="0 0 351 351" fill="none" xmlns="http://www.w3.org/2000/svg">
<rect width="12" height="244" transform="matrix(0.707107 0.707107 0.707107 -0.707107 0 172.534)" fill="currentColor"/>
<rect width="12" height="244" transform="matrix(0.707107 0.707107 0.707107 -0.707107 16.9707 189.505)" fill="currentColor"/>
<rect width="12" height="244" transform="matrix(0.707107 0.707107 0.707107 -0.707107 33.9409 206.475)" fill="currentColor"/>
<rect width="12" height="244" transform="matrix(0.707107 0.707107 0.707107 -0.707107 50.9116 223.446)" fill="currentColor"/>
<rect width="12" height="244" transform="matrix(0.707107 0.707107 0.707107 -0.707107 67.8823 240.417)" fill="currentColor"/>
<rect width="12" height="244" transform="matrix(0.707107 0.707107 0.707107 -0.707107 84.853 257.387)" fill="currentColor"/>
<rect width="12" height="244" transform="matrix(0.707107 0.707107 0.707107 -0.707107 101.823 274.358)" fill="currentColor"/>
<rect width="12" height="244" transform="matrix(0.707107 0.707107 0.707107 -0.707107 118.794 291.328)" fill="currentColor"/>
<rect width="12" height="244" transform="matrix(0.707107 0.707107 0.707107 -0.707107 135.765 308.299)" fill="currentColor"/>
<rect width="12" height="244" transform="matrix(0.707107 0.707107 0.707107 -0.707107 152.735 325.269)" fill="currentColor"/>
<rect width="12" height="244" transform="matrix(0.707107 0.707107 0.707107 -0.707107 169.706 342.24)" fill="currentColor"/>
</svg>
