<svg width="16" height="16" viewBox="0 0 16 16" fill="none" xmlns="http://www.w3.org/2000/svg">
<path fill-rule="evenodd" clip-rule="evenodd" d="M3.29834 13.5833L3.53924 2.66118L10.5112 2.41675L12.7017 4.30591L12.5168 13.4672L3.29834 13.5833ZM8.79274 12.0642C9.01403 11.8943 9.89078 11.0354 9.89078 11.0354L9.03504 10.8973L8.79134 9.25806C8.79134 9.25806 7.84456 9.69307 7.02103 9.44311C7.03364 9.53563 7.05325 9.81873 7.05745 9.92093C4.83476 11.132 6.07005 12.3238 8.79274 12.06V12.0642ZM8.60367 6.8027C8.59386 6.10117 8.29554 5.73798 7.59386 5.73659C6.6891 5.73659 6.62747 6.53065 6.62888 6.8607C6.62527 7.08437 6.63557 7.30804 6.65969 7.53047C6.65969 8.39772 7.00983 8.53305 7.11767 8.64353C7.15945 8.72396 7.22222 8.79196 7.29953 8.8405C7.37683 8.88905 7.46586 8.9164 7.55745 8.91972C7.92299 8.91972 7.97762 8.76229 8.02804 8.70982C8.10787 8.62696 8.4328 8.47781 8.4314 8.15743C8.4314 7.58709 8.62608 7.60504 8.63448 7.46695C8.64428 7.28052 8.60787 7.08028 8.60367 6.79856V6.8027ZM9.86417 4.99363L9.78854 3.21633L4.21851 3.44557L4.07845 11.7314C4.50983 10.8448 5.36697 10.222 5.96221 9.46797C5.62327 8.73053 5.59106 7.36614 5.80394 7.08718C5.7421 6.94443 5.71661 6.78892 5.72971 6.63422C5.72971 6.42846 6.02383 6.10531 6.09526 5.89679C6.23017 5.57711 6.45896 5.30452 6.75221 5.11405C7.04546 4.92358 7.38978 4.82393 7.74092 4.82792C9.59526 4.8003 9.85717 5.90507 9.98182 6.77784C10.0883 7.49457 10.1891 8.1381 10.2619 8.55929C10.3376 8.95839 10.388 10.0425 10.902 10.5493C11.1371 10.7489 11.3851 10.9334 11.6443 11.1017L11.7381 11.2328L11.8782 5.01849L9.86417 4.99363Z" fill="currentColor"/>
</svg>
