<svg width="16" height="16" viewBox="0 0 16 16" fill="none" xmlns="http://www.w3.org/2000/svg">
<path fill-rule="evenodd" clip-rule="evenodd" d="M10.8221 11.7793C11.2635 13.2656 10.4583 13.9608 10.4583 13.9608L9.72355 11.7026C9.213 11.889 8.67206 11.9809 8.12784 11.9735C7.47371 11.9828 6.82419 11.8639 6.21687 11.6235L5.50753 14.0208C5.50753 14.0208 4.70604 12.942 5.08192 11.7577C5.13649 11.5887 5.20318 11.3574 5.2917 11.0853C4.66891 10.615 4.2405 9.93669 4.08643 9.17706L4.82608 8.82346C4.96419 9.30436 5.22907 9.74035 5.59362 10.0868C5.95738 8.88819 6.37692 7.45702 6.58063 6.769C5.55239 5.79571 5.8919 3.79039 7.45609 3.40682L7.12628 2.07634L8.45037 1.97925L8.50373 3.39484C10.1431 3.75443 10.4014 5.91197 9.31734 6.8577C9.47982 7.3815 9.79145 8.39195 10.1019 9.4048L9.21064 10.0976L8.29153 7.29161C8.21098 7.30005 8.13002 7.30405 8.04902 7.30359C7.86898 7.30383 7.68938 7.28575 7.51308 7.24965L6.5006 10.6754C7.00678 10.8798 7.54957 10.9809 8.09631 10.9726C9.79387 10.9726 10.8464 9.98974 11.1616 8.73836L11.9134 9.07398C11.7551 9.90297 11.307 10.6506 10.6475 11.186L10.8221 11.7793ZM8.01265 6.18526C9.12455 6.18526 9.13182 4.46522 7.99324 4.46522C6.85467 4.46522 6.79404 6.18526 8.01265 6.18526Z" fill="currentColor"/>
</svg>
