<svg width="64" height="64" viewBox="0 0 64 64" fill="none" xmlns="http://www.w3.org/2000/svg">
<path fill-rule="evenodd" clip-rule="evenodd" d="M36.1058 37.6207H35.6442C35.7372 32.867 39.6524 29.8021 39.6524 26.3299C39.6524 15.7974 23.3119 15.2883 23.3119 26.5089C23.3119 30.1567 27.2485 32.1508 27.3236 37.5961H26.8298C25.7561 37.5961 25.0225 37.1853 25.0225 36.4305C25.0225 34.0783 21 30.1391 21 26.6002C21 12.1812 42 12.8307 42 26.3685C42 30.3147 38.0276 34.8436 38.0276 36.3708C38.0097 37.2134 37.2081 37.6207 36.1058 37.6207ZM29.9576 25.0484L30.9059 37.4908L28.9591 37.5364C28.9591 37.5364 28.2827 29.8126 28.0823 27.0671C27.8819 24.3217 29.9576 25.0484 29.9576 25.0484ZM32.0225 37.547L32.7991 24.9993C32.7991 24.9993 35.1145 23.946 34.8747 27.1058C34.635 30.2655 33.9872 37.4943 33.9872 37.4943L32.0225 37.547ZM37.1079 39.2462C37.1079 39.2462 37.0291 41.5528 37.022 42.578C37.022 43.9823 34.771 45.7904 33.8011 45.9448C33.5936 48.6763 29.4637 48.6938 29.317 45.9448C28.6299 45.8079 26.0532 44.221 26.0639 42.6271C26.0639 41.451 26.1355 39.2813 26.1355 39.2813L37.1079 39.2462Z" fill="currentColor"/>
</svg>
