<svg width="24" height="24" viewBox="0 0 24 24" fill="none" xmlns="http://www.w3.org/2000/svg">
<path d="M11.2 4.06699C11.6 3.53366 12.4 3.53366 12.8 4.06699L14.55 6.4003C14.8167 6.75586 14.8167 7.24475 14.55 7.6003L12.8 9.93366C12.4 10.467 11.6 10.467 11.2 9.93366L9.45 7.60035C9.18333 7.24479 9.18333 6.7559 9.45 6.40035L11.2 4.06699Z" fill="currentColor"/>
<path d="M11.2 14.067C11.6 13.5337 12.4 13.5337 12.8 14.067L14.55 16.4003C14.8167 16.7559 14.8167 17.2447 14.55 17.6003L12.8 19.9337C12.4 20.467 11.6 20.467 11.2 19.9337L9.45 17.6003C9.18333 17.2448 9.18333 16.7559 9.45 16.4003L11.2 14.067Z" fill="currentColor"/>
<path d="M7.20002 9.06699C7.60002 8.53366 8.40002 8.53366 8.80002 9.06699L10.55 11.4003C10.8167 11.7559 10.8167 12.2447 10.55 12.6003L8.79998 14.9337C8.39998 15.467 7.59998 15.467 7.19998 14.9337L5.45 12.6003C5.18333 12.2448 5.18333 11.7559 5.45 11.4003L7.20002 9.06699Z" fill="currentColor"/>
<path d="M15.2 9.06699C15.6 8.53366 16.4 8.53366 16.8 9.06699L18.55 11.4003C18.8167 11.7559 18.8167 12.2447 18.55 12.6003L16.8 14.9337C16.4 15.467 15.6 15.467 15.2 14.9337L13.45 12.6003C13.1833 12.2448 13.1833 11.7559 13.45 11.4003L15.2 9.06699Z" fill="currentColor"/>
</svg>
