<svg width="65" height="64" viewBox="0 0 65 64" fill="none" xmlns="http://www.w3.org/2000/svg">
<path d="M31.8462 0C13.385 0 3.66699 15.0559 3.66699 32.1259C3.66699 50.3226 14.2319 64 31.8462 64C50.0637 64 61.0003 50.8261 61.0003 32.1259C60.9942 16.1888 51.5199 0 31.8462 0Z" fill="#261E1E"/>
<path fill-rule="evenodd" clip-rule="evenodd" d="M55.3242 32.488L38.5663 31.4648L38.6558 36.1801C44.0204 39.6553 49.6111 43.7576 53.0965 48.7323L48.801 51.8444L38.7594 41.1595L38.962 51.9529L33.8423 52L33.5079 31.3469H30.9363L30.9645 51.8067L25.8401 51.8538L25.9155 40.7257L15.6949 51.8208L11.456 48.8596C14.753 44.0217 20.4708 39.5893 25.9296 35.9679L25.9814 31.4978L9.16699 32.5965L9.44017 27.3436L25.0489 27.254C19.8679 23.7506 14.5975 19.5398 11.4749 14.9659L15.7138 12.0047L29.7211 27.221L34.5158 27.1927L48.801 12L53.0965 15.1121C49.7712 19.8274 44.5291 23.8119 39.4047 27.1644L55.3337 27.0701L55.3242 32.488ZM32.109 23.0574C26.3676 23.0716 26.33 14.0512 32.2174 14.0512C38.1048 14.0512 38.4156 23.0716 32.1185 23.0716L32.109 23.0574Z" fill="white"/>
</svg>
