<svg width="160" height="146" viewBox="0 0 160 146" fill="none" xmlns="http://www.w3.org/2000/svg">
<g clip-path="url(#clip0_1049_60158)">
<mask id="mask0_1049_60158" style="mask-type:alpha" maskUnits="userSpaceOnUse" x="-20" y="-14" width="180" height="160">
<rect x="-20" y="-14" width="180" height="160" fill="url(#paint0_linear_1049_60158)"/>
</mask>
<g mask="url(#mask0_1049_60158)">
<path d="M29.036 138.54C30.6725 137.112 32.5869 136.076 34.228 134.611C36.3539 132.713 37.9904 130.265 39.2068 127.702C41.473 122.922 42.258 117.481 42.5153 112.247C42.7848 106.761 42.3666 99.3871 39.7336 93.8096C35.305 88.2246 31.1646 82.4627 27.7588 76.1432C25.6656 72.2611 23.449 67.9906 22.7482 63.5911C22.6144 67.462 23.6343 71.6239 25.6095 75.8465C29.7677 84.7317 37.3813 93.2566 35.7916 103.743C34.2468 113.93 26.0259 121.673 16.3744 124.466C20.0113 129.66 24.2668 134.385 29.036 138.54ZM85.7633 157.402C85.7839 157.254 85.8391 157.098 85.9364 156.942C89.2627 151.596 88.7453 143.206 87.6337 137.244C86.4014 130.632 83.9715 124.108 80.0286 118.634C76.3457 113.521 71.7936 109.118 67.0123 104.941C69.3019 107.93 71.4521 111.042 73.4666 114.323C78.0009 121.709 81.6388 129.987 81.6173 138.805C81.6024 144.648 81.2852 153.138 76.821 157.557C77.8774 157.6 78.9347 157.637 80.0005 157.637C81.9411 157.637 83.8583 157.542 85.7633 157.402ZM145.043 122.371C144.932 122.263 144.836 122.131 144.792 121.937C142.929 113.85 140.229 107.01 134.426 100.894C129.569 95.7736 123.79 91.3853 117.744 87.7679C110.188 83.2477 102.224 80.6933 94.0572 78.6218C98.395 81.0657 102.402 84.5193 105.863 87.506C112.222 92.9937 117.999 99.4751 121.91 106.96C125.772 114.352 127.9 122.703 127.56 131.053C127.407 134.815 127.143 139.246 125.528 142.871C133.218 137.293 139.841 130.341 145.043 122.371ZM151.835 50.5375C144.24 50.749 136.843 49.3156 129.28 49.3427C120.305 49.3754 111.613 51.7801 102.8 53.1368C94.5877 54.4009 86.8805 54.0454 78.6727 52.9703C71.512 52.0318 63.8834 52.2835 57.0773 49.6084C54.4883 52.1469 51.8834 55.7071 55.1573 58.778C57.8455 61.2996 62.2984 62.1951 65.7697 62.9801C73.3534 64.6933 81.1233 65.1209 88.8379 65.862C102.863 67.2084 117.155 70.1025 129.854 76.393C140.295 81.5635 150.207 89.1163 155.064 99.8596C156.737 93.5195 157.638 86.865 157.638 80C157.638 69.5682 155.567 59.6248 151.835 50.5375ZM80.0005 2.36257C60.6282 2.36257 42.928 9.47462 29.3279 21.207C29.7358 21.3221 30.1504 21.4559 30.5873 21.6262C31.9076 22.1418 33.0173 23.2889 34.5144 23.0419C36.192 22.7658 38.7436 20.0627 40.5167 19.4021C46.0728 17.3287 52.0125 19.3347 57.0315 21.8938C59.5662 23.186 61.3524 24.9825 63.9265 24.1366C66.1244 23.4143 67.9293 22.7902 70.3265 22.895C75.3417 23.1149 79.7057 26.0454 82.5175 30.0753C82.5614 30.138 82.5764 30.1979 82.597 30.2587C82.6952 30.2344 82.7897 30.2044 82.8917 30.1829C87.5486 29.1883 91.8836 30.2952 96.3758 31.4713C106.129 34.0248 115.017 27.825 124.9 30.8501C133.338 33.4316 141.675 38.0585 148.619 43.68C135.585 19.1074 109.754 2.36257 80.0005 2.36257ZM9.31093 47.9055C11.7371 47.7923 14.3739 48.5474 16.6504 48.9525C20.6074 49.6561 24.7721 50.4627 28.6589 49.2145C37.021 43.0044 50.4433 41.1527 59.6514 40.087C60.0621 39.5546 60.544 39.0587 61.126 38.6161C64.5281 36.029 68.6301 36.9684 72.4973 35.8737C75.9546 34.895 78.0281 32.0515 81.2477 30.7041C78.0618 26.1773 68.1988 20.5736 63.4334 26.3186C63.264 26.5235 62.8832 26.5619 62.6661 26.4178C58.6932 23.8007 54.8672 20.9347 50.1654 19.7558C43.9422 18.1951 39.2367 21.3745 34.7389 25.265C34.4563 25.5092 33.9464 25.6711 33.6086 25.411C31.7794 24.0056 30.228 22.8182 28.1106 22.2615C20.1994 29.3754 13.7722 38.0968 9.31093 47.9055ZM98.4698 155.193C103.155 142.847 103.464 130.363 97.4715 118.401C92.3505 108.179 84.0435 99.2552 74.8514 92.5614C66.6923 86.6199 57.6368 81.7759 50.3601 74.6938C45.605 70.0669 37.3813 61.7656 39.6288 54.342C39.8533 52.7382 40.585 51.1467 41.7808 49.6019C46.0924 44.0318 51.9797 43.1953 58.3901 41.4989C58.5276 41.4625 58.6408 41.4943 58.7278 41.5607C58.7849 41.4484 58.842 41.338 58.9028 41.2285C53.5947 41.9097 48.164 42.7715 42.9682 44.2788C42.9794 44.4023 42.9448 44.5249 42.8288 44.6204C38.1074 48.4678 34.5256 52.2442 34.2589 58.6732C34.1289 61.8152 34.709 64.7251 35.7354 67.4882C35.7822 67.5266 35.8318 67.5612 35.872 67.6173C39.1469 72.2058 41.8781 76.9647 45.5395 81.3025C48.7619 85.12 52.0705 88.7654 55.6635 92.2386C57.3065 93.8283 58.8869 95.4489 60.4139 97.1022C62.8308 99.1644 65.2757 101.207 67.7019 103.28C75.6992 110.111 83.3511 117.524 87.2913 127.487C90.6064 135.87 93.1542 148.647 88.4431 157.172C91.8452 156.804 95.1772 156.21 98.4333 155.417C98.4343 155.346 98.439 155.274 98.4698 155.193ZM150.016 46.4168C143.114 40.4688 134.609 35.6912 126.021 32.6915C121.765 31.2047 117.637 30.8089 113.204 31.6323C109.664 32.2891 106.288 33.5336 102.643 33.2332C94.4211 32.5558 85.2188 27.0709 78.058 34.1726C76.0809 36.1329 74.6026 37.3483 71.7702 37.9163C67.0881 38.8538 62.7681 38.2213 59.9863 43.0316C59.2294 44.3406 57.2981 47.2393 58.2927 48.7663C58.8934 49.6898 62.885 50.0033 63.9077 50.1689C68.2371 50.8706 72.6582 50.9202 77.0166 51.3825C86.2611 52.364 94.7224 52.5427 103.951 50.9427C112.327 49.4905 120.736 47.608 129.28 47.6257C136.518 47.6416 143.89 48.567 151.164 48.9563C150.792 48.1039 150.419 47.2533 150.016 46.4168ZM56.3559 48.3509C56.3606 48.3462 56.3652 48.3462 56.3699 48.3425C56.922 46.8959 57.2972 45.3708 57.7753 43.9092C54.0083 44.6325 49.9278 45.1481 47.6148 48.6129C45.7116 51.4629 45.3242 54.7789 46.797 57.745C48.3886 59.8868 49.9605 61.8882 52.4008 63.214C55.0647 64.6606 58.3517 65.4989 61.2804 66.2288C66.8495 67.6164 72.5684 68.2208 78.2124 69.2117C89.6698 71.2243 101.617 72.2919 112.808 75.5125C122.173 78.2082 131.13 82.8482 138.813 88.8281C143.87 92.7635 151.368 99.2861 153.058 106.307C153.575 104.874 154.04 103.415 154.472 101.943C150.223 90.357 139.309 82.3775 128.493 77.2145C116.204 71.3469 102.541 68.6531 89.0382 67.6014C83.2164 67.1476 77.4002 66.8482 71.6112 66.0267C65.9559 65.2248 58.8916 64.349 54.3021 60.5801C49.4515 56.597 52.5963 51.796 56.3559 48.3509ZM152.406 108.017C151.518 103.134 147.206 98.2101 143.938 94.9371C140.045 91.0372 135.528 87.7371 130.794 84.9319C120.986 79.1195 110.512 75.9542 99.3428 74.0435C88.4833 72.1853 77.6837 70.0763 66.8374 68.1591C62.9215 67.4667 58.9458 66.5843 55.2041 65.1696C56.8845 66.0632 58.609 66.8435 60.2249 67.5658C72.6039 73.1041 85.8831 74.6545 98.8385 78.2119C109.852 81.236 120.309 86.444 129.211 93.6178C133.464 97.047 137.507 100.836 140.562 105.399C143.638 109.99 145.11 115.042 146.346 120.34C148.718 116.447 150.739 112.321 152.406 108.017ZM121.857 145.373C125.88 141.093 125.85 133.114 125.677 127.638C125.43 119.864 122.913 111.909 118.991 105.217C111.883 93.0891 99.5094 81.7637 86.2639 76.7542C82.6643 75.9214 79.0386 75.0924 75.4035 74.1446C66.1693 71.7361 53.2756 68.1703 46.9458 60.3181C44.557 57.3558 43.8356 53.8601 45.2241 50.2606C47.5455 44.2433 52.6974 43.8063 58.2637 42.5675C58.2927 42.4973 58.3246 42.4299 58.3536 42.3607C54.7278 43.3506 50.8017 43.8306 47.5512 45.8349C43.2658 48.4772 38.665 53.6842 42.0166 58.807C45.6854 64.4145 54.0719 68.1488 60.0069 70.4823C70.4425 74.5862 81.6351 77.5757 90.6878 84.4856C100.249 91.7829 106.072 103.674 109.053 115.099C112.302 127.553 111.557 140.55 107.377 152.657C112.483 150.732 117.327 148.279 121.857 145.373ZM105.748 153.246C111.471 137.438 111.181 120.89 103.937 105.554C100.839 98.996 96.9933 92.3331 91.4588 87.5303C86.0468 82.8332 79.3782 79.8278 72.7555 77.2678C62.4556 73.2866 48.9846 70.1165 41.7733 60.9722C44.8162 69.4793 53.8324 76.0674 60.8761 80.9385C69.3749 86.8173 78.4865 92.0543 85.6557 99.6145C92.256 106.574 98.1311 114.625 101.283 123.755C104.898 134.225 103.764 144.822 99.9407 155.04C101.909 154.519 103.843 153.916 105.748 153.246ZM75.266 157.327C80.7238 152.226 80.8501 139.823 79.5897 133.006C77.9326 124.051 72.9501 116.11 67.7272 108.814C64.5646 104.396 61.0043 100.536 57.3262 96.7429C55.7973 95.4423 54.2852 94.1333 52.8162 92.7991C44.8124 85.5298 35.523 75.7942 33.1342 64.8487C31.2928 56.407 34.6351 49.9939 40.9004 44.9207C39.9048 45.2491 38.9195 45.6037 37.9474 45.9883C37.9446 46.0903 37.9062 46.1951 37.8061 46.2858C33.2418 50.415 29.4252 55.6706 28.9658 62.007C28.5522 67.7015 31.1281 73.4381 34.2402 78.0697C40.7282 87.723 50.7858 94.5273 58.2216 103.433C64.747 111.249 69.6547 120.132 71.075 130.332C72.4112 139.924 69.6219 148.081 64.748 156.13C68.1436 156.807 71.6205 157.254 75.1602 157.472C75.1902 157.422 75.2164 157.373 75.266 157.327ZM44.6889 106.974C46.4967 113.971 48.4298 121.021 47.4183 128.311C46.5051 134.888 43.5268 141 39.7579 146.407C43.5539 148.712 47.5736 150.681 51.7608 152.317C53.8717 148.024 56.0789 144.369 56.7358 139.478C57.4179 134.388 57.7603 129.109 56.7479 124.038C54.8345 114.457 49.4459 105.686 43.3135 98.2363C44.1294 101.054 44.5458 104.037 44.6889 106.974ZM38.1102 145.351C41.1605 140.224 44.3521 135.355 45.4487 129.353C46.4124 124.075 45.6995 118.847 44.5766 113.686C43.7776 123.898 39.9918 135.12 29.966 139.347C32.5419 141.52 35.2638 143.523 38.1102 145.351ZM34.8007 83.7885C40.3577 91.7137 47.3743 98.5834 52.0855 107.086C56.035 114.214 59.0151 122.138 59.0207 130.369C59.0235 134.573 58.7007 139.447 57.2177 143.425C56.0134 146.658 53.9634 149.486 52.514 152.615C56.0172 153.941 59.6401 155.018 63.3641 155.832C69.3216 144.451 71.2762 133.495 66.5838 121.101C62.1945 109.506 53.125 100.776 44.4662 92.2742C37.4215 85.3577 30.3899 77.7244 28.3398 67.7109C26.6743 59.5743 30.1775 52.4463 35.8 46.8996C34.7689 47.3666 33.7546 47.869 32.7628 48.4173C31.9497 48.8664 31.1974 49.3427 30.49 49.8386C30.4385 49.9705 30.3496 50.0865 30.1906 50.1549C30.0905 50.197 29.9913 50.226 29.8912 50.2653C27.2076 52.276 25.3363 54.6274 24.1798 57.2192C21.9314 66.2465 29.9146 76.8187 34.8007 83.7885ZM15.5322 123.267C21.6095 120.022 27.4069 118.109 31.2367 111.657C35.2433 104.908 35.2788 97.9172 32.0685 90.9174C27.8804 81.7843 20.1863 72.9684 21.0696 62.2793C21.4532 57.6393 23.4341 54.0117 26.3805 51.1476C24.5148 51.374 22.6163 51.2786 20.6598 51.0456C16.773 50.5834 12.5343 50.1567 8.68869 49.2828C4.62411 58.705 2.36258 69.0863 2.36258 80C2.36258 96.0196 7.2178 110.903 15.5322 123.267ZM25.6797 21.2884C25.6918 21.0087 25.8743 20.7495 26.2401 20.756C40.4437 7.85965 59.3042 0 80.0005 0C124.183 0 160.001 35.8166 160.001 80C160.001 124.182 124.183 160 80.0005 160C35.8178 160 0 124.182 0 80C0 56.7916 9.89292 35.9018 25.6797 21.2884Z" fill="url(#paint1_linear_1049_60158)"/>
</g>
</g>
<defs>
<linearGradient id="paint0_linear_1049_60158" x1="70" y1="-14" x2="70" y2="146" gradientUnits="userSpaceOnUse">
<stop stop-color="white"/>
<stop offset="1" stop-color="white" stop-opacity="0"/>
</linearGradient>
<linearGradient id="paint1_linear_1049_60158" x1="15.8145" y1="31.4457" x2="92.5957" y2="108.228" gradientUnits="userSpaceOnUse">
<stop stop-color="#2992DE"/>
<stop offset="1" stop-color="#EA5C3D"/>
</linearGradient>
<clipPath id="clip0_1049_60158">
<rect width="160" height="146" fill="white"/>
</clipPath>
</defs>
</svg>
