<svg width="160" height="146" viewBox="0 0 160 146" fill="none" xmlns="http://www.w3.org/2000/svg">
<g clip-path="url(#clip0_1049_62860)">
<mask id="mask0_1049_62860" style="mask-type:alpha" maskUnits="userSpaceOnUse" x="-20" y="-14" width="180" height="160">
<rect x="-20" y="-14" width="180" height="160" fill="url(#paint0_linear_1049_62860)"/>
</mask>
<g mask="url(#mask0_1049_62860)">
<path d="M30.1636 118.854C29.662 118.057 30.9225 117.328 31.4214 118.118C31.7016 118.562 31.9895 119.003 32.2777 119.445C33.2457 120.929 34.2186 122.421 34.9281 124.041C35.0909 124.415 34.6851 124.75 34.3631 124.477C32.84 123.184 31.7794 121.465 30.7349 119.772C30.5448 119.464 30.3553 119.157 30.1636 118.854Z" fill="url(#paint1_linear_1049_62860)"/>
<path d="M35.7237 113.121C35.0687 112.168 34.3586 111.312 33.4163 110.634C32.504 109.976 31.6554 111.477 32.5396 112.134C33.2587 112.668 33.7473 113.391 34.2382 114.117C34.3553 114.29 34.4729 114.464 34.5934 114.636C34.668 114.742 34.7453 114.855 34.8254 114.973C35.2837 115.647 35.837 116.46 36.5153 116.793C36.9663 117.015 37.4641 116.651 37.3527 116.15C37.1354 115.172 36.3487 114.029 35.773 113.192L35.7237 113.121Z" fill="url(#paint2_linear_1049_62860)"/>
<path d="M45.16 133.896C44.7223 133.361 45.4713 132.59 45.929 133.126C50.2757 138.231 54.3064 143.795 58.1017 149.315C58.522 149.925 57.6214 150.523 57.1244 150.069C54.1481 147.358 51.9436 143.918 49.7451 140.488C48.2884 138.215 46.8342 135.946 45.16 133.896Z" fill="url(#paint3_linear_1049_62860)"/>
<path d="M50.2523 147.39C50.1129 147.254 49.9719 147.116 49.8347 146.978C49.2349 146.379 48.3039 147.309 48.9037 147.909C49.0418 148.047 49.1787 148.187 49.3156 148.327C49.6295 148.647 49.9441 148.969 50.2763 149.269C50.3548 149.339 50.434 149.414 50.5144 149.489C50.8739 149.826 51.2568 150.186 51.7041 150.35C52.0251 150.469 52.3947 150.099 52.2758 149.778C52.1101 149.329 51.7498 148.945 51.4113 148.585C51.3371 148.506 51.264 148.428 51.1942 148.351C50.8945 148.018 50.5731 147.704 50.2523 147.39Z" fill="url(#paint4_linear_1049_62860)"/>
<path d="M48.5244 128.994C48.4002 128.859 48.2755 128.723 48.1449 128.598C48.0023 128.461 47.863 128.322 47.7238 128.183C47.5202 127.979 47.3168 127.776 47.1034 127.582C46.6263 127.147 47.3355 126.442 47.8108 126.874C48.535 127.535 49.3519 128.376 49.6476 129.337C49.7421 129.642 49.3725 129.78 49.1638 129.619C48.9308 129.437 48.7272 129.215 48.5244 128.994Z" fill="url(#paint5_linear_1049_62860)"/>
<path d="M49.6689 64.6039C44.6288 70.9678 39.0767 77.3207 33.1323 82.8533C32.5635 83.3833 31.7228 82.5501 32.2761 81.9976C34.6241 79.6507 36.7537 77.0451 38.8852 74.4372C41.9885 70.6402 45.0958 66.8384 48.887 63.8229C49.4476 63.3761 50.1119 64.0438 49.6689 64.6039Z" fill="url(#paint6_linear_1049_62860)"/>
<path d="M46.1926 74.6053C43.6491 77.0086 41.3527 79.6905 39.0572 82.3713C37.3414 84.3751 35.6261 86.3784 33.8085 88.2642C33.3616 88.7281 34.0598 89.4282 34.5155 88.9715C35.1506 88.3349 35.7947 87.6967 36.4423 87.0552C40.1845 83.3477 44.0442 79.5237 46.978 75.21C47.306 74.7278 46.5937 74.226 46.1926 74.6053Z" fill="url(#paint7_linear_1049_62860)"/>
<path d="M32.4385 64.3268C36.3391 59.3461 40.2833 54.3097 45.6402 51.1611C45.9924 50.9537 46.3342 51.4265 46.066 51.7112C44.2131 53.6791 42.3724 55.6717 40.5291 57.6671C35.9542 62.6196 31.3625 67.5903 26.5284 72.2423C26.2685 72.4929 25.8805 72.1058 26.1314 71.8458C28.3539 69.5426 30.3903 66.9422 32.4385 64.3268Z" fill="url(#paint8_linear_1049_62860)"/>
<path d="M42.2369 49.1992C44.5881 46.7297 46.9376 44.2619 49.1093 41.6437C49.5563 41.1052 48.8919 40.4633 48.353 40.8867C43.5705 44.6358 39.5457 49.6375 35.7084 54.4061L35.6862 54.4337C35.276 54.9434 34.868 55.4504 34.4614 55.9529C33.9786 56.5516 34.8184 57.412 35.3181 56.809C37.5063 54.1679 39.873 51.682 42.2369 49.1992Z" fill="url(#paint9_linear_1049_62860)"/>
<path d="M82.7591 80.0636C82.2231 79.4423 81.6912 78.8257 81.1509 78.2359C80.4817 77.5054 81.5623 76.4165 82.2432 77.1436C82.7 77.6327 83.1688 78.1212 83.6404 78.6127C85.5521 80.6046 87.5112 82.646 88.9125 84.9841C89.0873 85.275 88.7369 85.6324 88.4451 85.4531C86.2353 84.0931 84.4764 82.0542 82.7591 80.0636Z" fill="url(#paint10_linear_1049_62860)"/>
<path d="M80.6483 69.6307C80.0889 69.1521 79.2806 69.9341 79.8299 70.4499C80.3582 70.9455 80.8506 71.5171 81.3469 72.0933C82.2737 73.1694 83.2143 74.2614 84.4288 74.9045C84.7532 75.0761 85.0859 74.734 84.921 74.4124C83.9758 72.5653 82.205 70.9623 80.6483 69.6307Z" fill="url(#paint11_linear_1049_62860)"/>
<path d="M84.6097 68.6646C84.7538 69.0606 84.2404 69.2385 83.9792 69.0323C82.121 67.5594 80.6395 65.5869 79.2124 63.6868C79.1122 63.5533 79.0123 63.4203 78.9125 63.2878C78.4382 62.6583 79.5113 61.8416 80.001 62.4476C80.4443 62.9959 80.9244 63.5268 81.4062 64.0596C82.6765 65.4645 83.9585 66.8823 84.6097 68.6646Z" fill="url(#paint12_linear_1049_62860)"/>
<path d="M76.2156 86.5907C76.5371 86.8065 76.9769 86.3732 76.7558 86.0504C75.1332 83.6868 73.2305 81.5054 71.3366 79.334C70.6233 78.5163 69.9113 77.6999 69.216 76.8759C68.4731 75.9938 67.2101 77.2659 67.9508 78.1403C68.3372 78.5964 68.7216 79.0589 69.1075 79.523C71.2481 82.0979 73.4317 84.7244 76.2156 86.5907Z" fill="url(#paint13_linear_1049_62860)"/>
<path d="M57.8122 52.7643C59.0398 53.8291 60.1579 55.0052 61.2583 56.1982C61.4458 56.4016 61.6398 56.6061 61.8357 56.8126C62.6926 57.7158 63.5884 58.6601 64.158 59.736C64.3666 60.1299 64.0082 60.7783 63.5142 60.5734C62.1163 59.9952 61.0889 58.7797 60.1551 57.6289C60.0683 57.5219 59.9816 57.4149 59.895 57.308L59.8912 57.3033C58.9042 56.0847 57.9247 54.8754 56.7708 53.8057C56.0681 53.1563 57.102 52.1486 57.8122 52.7643Z" fill="url(#paint14_linear_1049_62860)"/>
<path d="M60.0809 51.7197C60.7491 52.5922 61.4493 53.5066 62.2651 54.1396C62.7517 54.5167 63.6743 54.1967 63.4235 53.465C62.993 52.2085 61.9642 51.0618 61.0722 50.0676L60.9748 49.959C60.432 49.3528 59.8697 48.7661 59.3075 48.1795C58.7418 47.5893 58.176 46.999 57.6307 46.3895C56.9917 45.6755 55.9858 46.7141 56.5884 47.4318C57.5344 48.5583 58.4654 49.7008 59.3945 50.8414C59.6211 51.1194 59.848 51.4157 60.0788 51.717L60.0809 51.7197Z" fill="url(#paint15_linear_1049_62860)"/>
<path d="M71.7548 48.9911C71.3983 49.3036 71.0362 49.6068 70.6525 49.8846C70.1407 50.2552 69.6448 49.4009 70.1566 49.036C70.5075 48.7855 70.8332 48.5049 71.1594 48.2237L71.2298 48.163C71.2763 48.1231 71.3223 48.0827 71.3682 48.0423C71.6521 47.7928 71.9321 47.5467 72.3003 47.4323C72.6296 47.3293 72.9477 47.7317 72.7569 48.0245C72.5623 48.3224 72.2847 48.5509 72.0096 48.7772C71.9235 48.848 71.8377 48.9186 71.7548 48.9911Z" fill="url(#paint16_linear_1049_62860)"/>
<path d="M50.3548 106.869C49.7223 106.045 48.2964 106.836 48.9307 107.701C49.472 108.438 49.9787 109.198 50.4855 109.957C50.8738 110.539 51.2628 111.122 51.6667 111.694C52.4667 112.826 53.2891 113.97 54.717 114.264C55.0407 114.331 55.3457 114.063 55.2559 113.725C54.9724 112.65 54.2855 111.847 53.5841 111.027C53.4451 110.865 53.3055 110.701 53.1684 110.535C52.5193 109.748 51.9091 108.933 51.2984 108.118C50.9858 107.7 50.6729 107.283 50.3548 106.869Z" fill="url(#paint17_linear_1049_62860)"/>
<path d="M52.632 102.469C53.3182 103.211 54.0317 103.983 54.6049 104.815C54.6577 104.891 54.7135 104.971 54.7711 105.054C55.2517 105.742 55.8609 106.614 55.9962 107.388C56.0954 107.953 55.5817 108.36 55.0559 108.111C54.4808 107.839 53.972 107.269 53.5048 106.746C53.3419 106.564 53.184 106.387 53.0301 106.23C52.6528 105.847 52.3089 105.426 51.9649 105.005C51.6719 104.646 51.3784 104.286 51.0643 103.95C50.1155 102.936 51.6462 101.403 52.5903 102.424L52.632 102.469Z" fill="url(#paint18_linear_1049_62860)"/>
<path d="M105.822 118.788C105.445 119.275 105.067 119.763 104.684 120.249L104.522 120.455C102.557 122.946 100.64 125.375 99.0747 128.153C98.8642 128.527 99.4396 128.863 99.6511 128.489C100.894 126.282 102.587 124.376 104.272 122.478C104.939 121.728 105.606 120.977 106.242 120.21C107.52 118.67 108.757 117.1 109.994 115.529C110.886 114.396 111.779 113.263 112.687 112.141C112.93 111.84 112.566 111.479 112.265 111.719C109.732 113.742 107.784 116.256 105.822 118.788Z" fill="url(#paint19_linear_1049_62860)"/>
<path d="M128.763 79.4067C126.752 81.6911 124.694 83.9563 122.573 86.1473C121.779 86.9681 120.508 85.6972 121.32 84.8942C121.815 84.4048 122.301 83.8933 122.788 83.3792C124.446 81.6322 126.131 79.8569 128.316 78.8288C128.696 78.6497 129.046 79.0861 128.763 79.4067Z" fill="url(#paint20_linear_1049_62860)"/>
<path d="M123.719 91.4215C122.338 92.8194 121.079 94.3333 120.051 96.0101C119.707 96.5705 120.583 97.0786 120.929 96.5237C121.972 94.8517 123.308 93.4005 124.736 92.0494C125.276 91.5385 125.864 91.0594 126.454 90.5795C127.297 89.8931 128.143 89.2048 128.851 88.419C129.229 87.9988 128.758 87.3953 128.256 87.647C126.646 88.4532 125.199 89.921 123.927 91.2105L123.719 91.4215Z" fill="url(#paint21_linear_1049_62860)"/>
<path d="M110.805 137.434C115.363 133.682 119.97 129.89 123.894 125.533C124.115 125.287 123.824 124.844 123.522 125.052C119.263 127.978 115.4 131.496 111.554 134.999C109.822 136.576 108.094 138.149 106.335 139.665C105.777 140.146 106.585 140.941 107.142 140.472C108.35 139.455 109.576 138.446 110.805 137.434Z" fill="url(#paint22_linear_1049_62860)"/>
<path d="M125.269 111.402C122.838 115.076 118.577 118.186 114.914 120.557C114.365 120.912 113.899 120.063 114.409 119.693C116.376 118.266 118.194 116.611 119.937 114.917C120.377 114.489 120.81 114.04 121.245 113.588C122.268 112.526 123.304 111.451 124.478 110.61C124.95 110.271 125.579 110.934 125.269 111.402Z" fill="url(#paint23_linear_1049_62860)"/>
<path fill-rule="evenodd" clip-rule="evenodd" d="M-0.887451 80.3441C-0.887451 36.1616 34.9294 0.344086 79.1131 0.344086C123.296 0.344086 159.114 36.1616 159.114 80.3441C159.114 124.527 123.296 160.344 79.1131 160.344C34.9294 160.344 -0.887451 124.527 -0.887451 80.3441ZM153.479 99.4457C153.727 99.6381 153.976 99.8318 154.227 100.028C155.87 93.741 156.75 87.1455 156.75 80.3441C156.75 79.3036 156.713 78.2725 156.672 77.2405C154.227 75.5029 151.914 73.6316 149.826 71.4674C148.751 70.3519 147.828 69.101 146.908 67.8545C146.018 66.647 145.13 65.4435 144.109 64.3712C143.117 63.3282 141.824 62.7128 140.547 62.1052C139.122 61.4275 137.718 60.7596 136.776 59.5188C136.458 59.1 136.321 58.6304 136.179 58.145C136.061 57.7422 135.94 57.3286 135.71 56.9242C135.267 56.1438 134.671 55.5272 134.005 54.9911C134.159 55.5676 134.321 56.1472 134.484 56.7295C135.467 60.2448 136.477 63.8579 135.887 67.4561C135.704 68.5773 135.193 69.4632 134.69 70.3342C134.265 71.0703 133.846 71.7958 133.637 72.6435C132.38 74.4278 133.001 75.7443 135.5 76.592C135.938 76.7726 136.374 76.956 136.81 77.1403C137.054 77.2965 137.304 77.4244 137.551 77.5507C137.995 77.7777 138.429 77.9995 138.803 78.3717C139.857 79.4224 139.929 79.9679 139.677 81.3995C139.542 82.1646 139.303 82.6043 139.108 82.962C138.721 83.676 138.51 84.0631 139.656 86.0592C140.295 87.1742 141.407 88.122 142.402 88.9706L142.496 89.0507C142.553 89.0993 142.609 89.1476 142.665 89.1955L142.846 89.3501L143.101 89.569C144.596 90.8478 145.979 92.0309 147.206 93.6213C149.035 95.9914 151.182 97.6605 153.477 99.4441L153.479 99.4457ZM134.675 131.606C134.275 133.033 133.622 134.763 132.766 136.428C137.293 132.097 141.293 127.227 144.669 121.916C144.044 121.345 143.458 120.742 142.874 120.14C141.742 118.974 140.616 117.814 139.229 116.906C138.023 116.117 139.15 114.172 140.363 114.967C141.87 115.955 143.092 117.196 144.321 118.445C144.829 118.96 145.338 119.478 145.869 119.979C149.17 114.431 151.791 108.434 153.637 102.105C153.401 102.098 153.16 102.024 152.936 101.848C152.288 101.339 151.58 100.834 150.858 100.32L150.854 100.318C150.578 100.121 150.3 99.9231 150.023 99.7228C149.588 101.56 147.991 102.748 146.16 104.112C145.933 104.281 145.702 104.453 145.47 104.629C144.316 105.5 143.677 106.503 143.094 107.417C142.24 108.757 141.507 109.908 139.453 110.178C138.634 110.286 138.446 110.047 138.267 109.82C138.008 109.492 137.768 109.187 135.676 109.982C135.064 110.215 134.433 110.781 133.847 111.307C133.533 111.589 133.231 111.86 132.952 112.062C132.482 112.402 131.85 112.756 131.167 113.139C128.856 114.435 125.949 116.065 126.66 118.617C126.959 119.693 127.691 120.58 128.441 121.489C129.275 122.499 130.131 123.537 130.443 124.894C130.544 125.337 130.55 125.829 130.556 126.324C130.565 127.127 130.574 127.936 130.996 128.541C131.412 129.139 132.37 129.536 133.223 129.889C133.559 130.028 133.878 130.16 134.141 130.295C134.593 130.526 134.807 131.135 134.675 131.606ZM9.44389 100.581C7.06195 95.8693 4.67995 91.1572 1.75958 86.7609C5.0251 126.635 38.397 157.982 79.1131 157.982C86.1082 157.982 92.8816 157.041 99.3294 155.306C97.5032 153.816 95.8959 152.097 94.2897 150.379C92.7674 148.75 91.2446 147.121 89.5384 145.691C89.2727 146.207 88.5924 146.455 88.0142 145.953C86.4311 144.582 85.3461 142.848 84.2559 141.106C83.4684 139.848 82.6782 138.586 81.6956 137.452C80.4002 135.957 78.8351 134.798 77.2657 133.636L77.2629 133.633C76.5173 133.081 75.7703 132.528 75.0513 131.938C72.4999 129.845 70.8372 127.205 69.1725 124.562C68.4208 123.368 67.6686 122.174 66.8342 121.029C66.8772 121.578 66.8894 122.136 66.8566 122.71C66.79 123.867 66.521 124.99 66.252 126.114C65.9467 127.389 65.6413 128.665 65.6309 129.99C65.6054 133.322 66.5645 136.774 67.5085 140.172C68.0563 142.144 68.5991 144.098 68.9413 145.999C69.1069 146.921 67.9907 147.787 67.2505 146.985C66.5559 146.231 65.7715 145.512 64.9808 144.788C63.2963 143.244 61.5829 141.674 60.6475 139.683C60.319 138.982 61.0507 137.968 61.8236 138.506C63.7876 139.872 65.6384 141.671 67.2131 143.594C67.1559 141.132 66.2448 138.832 65.3301 136.523C64.524 134.489 63.7151 132.447 63.4854 130.281C63.2815 128.359 63.4648 126.537 63.6473 124.725C63.8692 122.52 64.0898 120.328 63.6108 117.984C61.8741 119.662 60.3733 121.503 58.9979 123.535C58.269 124.61 56.7691 124.108 56.4949 123.177C52.0542 120.875 47.4731 117.456 44.3751 113.608C43.4647 112.478 42.6831 111.277 41.9037 110.079C40.7445 108.298 39.5905 106.524 38.0256 105.003C36.0803 103.113 33.79 101.751 31.4897 100.383C30.9531 100.064 30.4158 99.7443 29.8823 99.4178C26.0199 97.0514 23.3841 94.4007 21.0486 90.5598C20.7315 90.0383 20.3962 89.4389 20.0387 88.7997C18.0451 85.2351 15.3598 80.4338 11.2698 81.0281C15.0893 88.9785 17.8823 97.6802 19.5206 106.328C19.584 106.662 19.7529 107.332 19.9733 108.206C20.9316 112.005 22.8632 119.662 21.3228 120.412C20.6257 120.752 20.0034 119.465 19.4823 117.633C19.4018 117.57 19.3251 117.498 19.2558 117.408C15.3139 112.193 12.3789 106.387 9.44389 100.581ZM25.2244 52.0518C18.7047 55.5094 11.9978 59.0663 4.71726 58.1312C2.61853 65.1712 1.47513 72.622 1.47513 80.3441C1.47513 80.955 1.49564 81.5607 1.51616 82.1667C1.52301 82.369 1.52986 82.5714 1.53595 82.774C1.69315 82.8517 1.84005 82.9658 1.96356 83.1324C2.62415 84.0278 3.24918 84.9448 3.8583 85.8711C6.03922 83.4793 7.65568 80.7171 9.26403 77.9688C11.003 74.9972 12.7325 72.0418 15.1557 69.5885C16.6091 68.1181 18.313 66.9977 20.0225 65.8735C20.6584 65.4554 21.2949 65.0368 21.9197 64.5995C25.3855 62.1733 27.5497 59.4028 29.2713 55.5553C30.4625 52.8933 31.7434 50.4765 33.1553 48.1738C30.5254 49.2405 27.8905 50.6379 25.2244 52.0518ZM33.9787 17.364C33.8898 17.3855 33.8103 17.3817 33.7373 17.3649C29.3191 20.5537 25.2395 24.1813 21.5866 28.2084C34.8938 19.0285 52.8645 18.0152 68.4332 20.214C75.0716 21.1514 81.8842 22.8266 88.774 24.5208C104.585 28.4086 120.802 32.3964 136.251 27.7967C133.398 24.6959 130.29 21.8393 126.971 19.2362C123.033 20.1749 118.564 20.0917 114.454 20.0152C113.701 20.0011 112.96 19.9873 112.236 19.9801C106.576 19.923 101.335 19.3532 95.9085 17.6653C87.8879 15.1708 80.2387 13.0908 71.7774 12.7193C69.1752 12.6051 66.5647 12.6136 63.9551 12.7024L63.4767 12.7462C63.0761 12.7829 62.68 12.8192 62.2886 12.854C59.2496 13.1282 56.2236 13.5118 53.221 14.0517C50.8605 14.4769 48.4849 14.8325 46.1089 15.1883C42.0428 15.7971 37.9751 16.4061 33.9787 17.364ZM119.677 18.5014C121.657 18.362 123.635 18.2227 125.611 18.1668C112.649 8.45823 96.5532 2.70666 79.1131 2.70666C63.1195 2.70666 48.2591 7.54689 35.9062 15.837C41.9666 14.3408 48.0514 13.1871 54.2624 12.4068C60.6578 11.603 68.0047 11.0407 74.4992 11.9006C79.871 12.2711 85.2146 13.1628 90.5012 14.7703C97.3822 16.8624 103.662 18.7029 110.904 18.8526C113.833 18.9128 116.757 18.7069 119.677 18.5014ZM131.593 51.0772C131.826 51.0295 132.084 51.0622 132.349 51.2231L132.629 51.393C134.418 52.476 136.195 53.5512 137.359 55.3448C137.62 55.7475 137.833 56.2243 138.049 56.7092C138.433 57.573 138.829 58.4625 139.535 59.0042C140.101 59.4391 140.865 59.6782 141.631 59.9174C142.225 60.1034 142.82 60.2895 143.323 60.5677C145.178 61.594 146.421 63.4264 147.645 65.2292C148.24 66.1057 148.83 66.9751 149.483 67.7415C151.584 70.2079 153.934 72.3656 156.495 74.3165C155.77 64.884 153.367 55.9268 149.571 47.7396C135.631 51.1941 119.871 49.9291 106.176 46.1883C100.055 44.517 94.3509 42.0153 88.5821 39.4852C87.7816 39.1342 86.9799 38.7825 86.1756 38.4325C77.4822 34.6477 68.8309 32.5191 59.3207 33.058L59.5255 33.3096C60.3372 34.3068 61.1536 35.3098 62.0313 36.2842C62.5919 36.9064 63.2073 37.5064 63.8276 38.1112C65.4108 39.6548 67.0256 41.2291 67.8391 43.2802C67.9701 43.6105 68.0824 43.9483 68.1862 44.2898C69.2576 42.701 71.0868 41.3677 72.4641 40.5415C74.0679 39.5796 76.6204 38.3558 78.2747 39.7415C78.5012 39.9314 78.5124 40.1644 78.4113 40.3534C78.4759 40.592 78.4684 40.9083 78.3823 41.305C78.6172 42.7516 79.1337 44.025 79.8139 45.1993C80.8357 46.0562 82.041 46.5445 83.2935 47.0519C83.626 47.1866 83.962 47.3227 84.2986 47.4674C84.831 47.6966 85.3475 47.9633 85.8612 48.2393C88.14 49.0118 90.392 49.8349 92.6315 50.6534C103.452 54.6082 113.985 58.4577 125.874 55.9979C127.401 53.6334 129.577 50.9939 131.593 51.0772ZM65.4531 115.818C65.5729 115.905 65.6767 116.021 65.7619 116.163C67.3696 118.013 68.7072 119.996 70.0335 121.962L70.1371 122.115C70.7627 121.262 71.3307 120.339 71.9013 119.411C72.9787 117.66 74.0651 115.894 75.565 114.557C76.3133 113.89 77.0723 113.344 77.8006 112.819C78.3946 112.392 78.9681 111.979 79.4986 111.527C75.078 108.601 72.7787 103.853 70.492 99.1314C69.79 97.6817 69.0891 96.2345 68.3284 94.8433C67.5266 93.7631 66.7654 92.6587 66.0038 91.5538L66.0006 91.5491C65.5012 90.8246 65.0016 90.0999 64.4903 89.3817C63.5546 88.3544 62.53 87.3485 61.4821 86.3408C61.4868 87.0369 61.308 87.7406 60.8496 88.4582C60.6211 88.8146 60.2795 89.0763 59.9415 89.3352C59.6219 89.58 59.3056 89.8222 59.0914 90.1396C57.9316 91.8594 58.4948 93.2282 59.1955 94.9313C59.2642 95.0981 59.3341 95.2682 59.4039 95.4421C60.6746 98.6065 61.1481 100.912 61.1087 104.317C61.0629 108.275 61.0433 111.495 63.2758 114.852C63.7492 114.599 64.4014 114.693 64.7719 115.077C64.977 115.29 65.1728 115.507 65.3681 115.724L65.4531 115.818ZM42.5485 38.7248C40.9855 40.4448 39.4227 42.1646 37.9273 43.9445C35.692 46.6028 33.3696 49.4725 31.7294 52.5593C31.0521 53.8324 30.5279 55.1692 30.0042 56.505C29.3551 58.1605 28.7065 59.8146 27.7677 61.3443C26.1004 64.0605 23.6528 65.8899 21.1962 67.726C19.3335 69.1182 17.4655 70.5143 15.9286 72.3038C14.1592 74.3642 12.7108 76.6126 11.2773 78.8685C16.8848 77.8482 20.0502 83.5561 22.9251 88.7404C24.2976 91.2153 25.6039 93.5709 27.0781 95.0182C29.2153 97.1171 31.6732 98.6923 34.1283 100.266C36.4691 101.766 38.8074 103.264 40.8625 105.213C41.6284 104.08 42.6156 103.143 43.608 102.2C44.9279 100.947 46.2571 99.6849 47.0876 97.9422C47.6428 96.7771 48.0491 95.5599 48.4552 94.3437C48.9784 92.7763 49.5011 91.2106 50.341 89.7607C52.2292 86.4999 55.1073 84.3581 58.2025 86.0405C57.659 84.1878 56.5938 82.4557 55.5274 80.7216L55.4385 80.5771C54.2165 82.0318 52.7225 83.2349 51.2378 84.4306C50.8365 84.7538 50.4359 85.0764 50.0415 85.4033C47.7604 87.2943 45.5325 89.2433 43.5535 91.4524C43.2017 91.8454 42.66 91.2765 42.9828 90.8826C46.2679 86.861 50.34 82.3717 54.9043 79.6966C54.4411 78.9256 54.0041 78.149 53.6327 77.3546C53.6238 77.3386 53.6152 77.3225 53.6068 77.3063L53.5932 77.2801L53.5675 77.23C53.5557 77.2067 53.5437 77.1831 53.5316 77.16C49.9019 81.3169 45.8257 84.9479 41.7453 88.5824C39.0918 90.9461 36.4363 93.3115 33.9011 95.8238C33.5287 96.1925 32.9879 95.6395 33.3303 95.2531C35.1421 93.2117 37.1482 91.3808 39.1561 89.5482L39.1584 89.546C40.3579 88.4513 41.5584 87.3556 42.718 86.2145C43.8622 85.0892 44.9816 83.9406 46.1005 82.7926C48.3024 80.5333 50.504 78.2743 52.8879 76.2C52.9304 76.1642 52.9736 76.1432 53.0175 76.1218L53.0338 76.1139C52.2647 74.309 51.8923 72.3516 52.13 70.1705C52.2334 69.2234 52.4727 68.2898 52.7121 67.3558C53.0489 66.0421 53.3859 64.7274 53.3454 63.3729C53.3136 62.3427 53.0919 61.4678 52.7485 60.6819C52.6661 60.5743 52.6147 60.4648 52.5969 60.3506C52.2535 59.6582 51.8118 59.0341 51.3187 58.4344C50.4597 59.2396 49.5913 60.0183 48.7271 60.793C46.0588 63.1854 43.4315 65.5411 41.249 68.5293C40.7895 69.1581 39.7341 68.5658 40.1888 67.9099C42.8555 64.0531 46.3344 59.9352 50.2923 57.2713L50.179 57.1489L49.9741 56.9283C49.5532 56.4753 49.1234 56.0127 48.7063 55.5226C47.3421 53.9188 45.4567 51.6311 46.6609 49.4023C47.0691 48.6475 47.7794 48.2574 48.492 47.866C48.593 47.8105 48.6941 47.755 48.7943 47.6985C49.0769 47.5384 49.4238 47.4258 49.7746 47.312C50.2462 47.1589 50.725 47.0035 51.0652 46.7272C53.3603 44.8607 52.7824 42.8002 52.1762 40.6389C52.1047 40.3841 52.0329 40.128 51.9653 39.8706C51.8864 39.5699 51.8057 39.2757 51.7261 38.9853C51.3379 37.57 50.9752 36.2477 50.9791 34.7244C50.981 33.9336 51.0689 33.156 51.156 32.385C51.2842 31.2512 51.4107 30.1317 51.2598 29.0056C49.509 30.1466 47.9275 32.2171 46.5014 34.0843C45.8422 34.9473 45.2163 35.7668 44.6221 36.4311C43.9351 37.1988 43.2412 37.9625 42.5485 38.7248ZM89.2418 99.5175C89.2813 99.5225 89.3206 99.5275 89.3644 99.5459C91.9182 100.605 92.9515 103.515 93.966 106.372C94.4059 107.611 94.8423 108.84 95.3976 109.904C95.3621 107.221 95.8112 104.499 96.5382 101.937C96.6823 101.427 96.8517 100.922 97.0323 100.421L97.0712 100.261C97.2002 99.7301 97.3294 99.1988 97.4833 98.6683C98.1457 96.3731 98.6688 94.0077 98.4367 91.6012C98.4056 91.2823 98.351 90.9683 98.2968 90.6559C98.2564 90.4238 98.2163 90.1926 98.186 89.9609C97.5441 90.288 96.8914 90.5947 96.2386 90.9014C95.7079 91.1507 95.1761 91.4006 94.651 91.661C94.5228 91.7245 94.3939 91.7878 94.2646 91.8512C93.3547 92.2978 92.426 92.7536 91.6035 93.3443C90.0564 94.4576 89.8979 95.7556 89.7289 97.1406C89.6437 97.8381 89.5559 98.5576 89.2867 99.2868C89.2675 99.3383 89.2499 99.3816 89.2324 99.4248C89.2211 99.4527 89.2095 99.4814 89.1978 99.5113C89.2039 99.5124 89.21 99.5133 89.216 99.5141C89.2244 99.5153 89.2334 99.5165 89.2418 99.5175ZM76.0955 73.96C76.6092 75.1614 74.9184 75.8472 74.4599 74.6496L74.3675 74.4081C71.0628 65.7771 67.7319 57.0775 66.7705 47.8313C66.3583 43.859 64.7384 42.346 62.4167 40.1775C61.8876 39.6833 61.3221 39.1551 60.7261 38.556C59.5158 37.3396 58.4713 36.0064 57.4312 34.6786C56.1215 33.0069 54.8186 31.3439 53.2004 29.9338C53.1374 30.7769 53.0223 31.6101 52.9072 32.4431C52.6151 34.5572 52.323 36.6708 52.8841 38.9462C52.9819 39.3418 53.1033 39.7648 53.2299 40.2054C53.8558 42.3848 54.6054 44.9952 53.2154 46.8508C52.7533 47.4671 52.1237 47.7519 51.4915 48.0378C51.0623 48.2319 50.6319 48.4266 50.2521 48.7258C47.0187 51.2731 49.1106 53.4356 51.0803 55.4717C51.2782 55.6764 51.475 55.8797 51.6649 56.0821C52.9047 57.4033 53.9742 58.6767 54.6853 60.1307C58.1623 63.2203 61.6383 67.1324 63.7567 71.2325C64.0421 71.7845 63.3834 72.244 62.9305 71.8697C60.9377 70.2262 59.3057 68.1967 57.6698 66.1622L57.6677 66.1597C56.9731 65.2959 56.2776 64.4309 55.5536 63.5946C55.556 63.6507 55.5607 63.705 55.5655 63.7593C55.5722 63.8354 55.5789 63.9115 55.5789 63.9923C55.577 65.2058 55.2978 66.3983 55.0203 67.5836C54.8919 68.132 54.7638 68.6788 54.6638 69.2255C54.122 72.1878 54.5852 74.7843 55.8558 77.2526C57.0365 78.8045 58.3885 80.0866 59.7902 81.4157C60.6458 82.227 61.52 83.056 62.385 83.9745C64.8159 86.556 67.1869 89.5764 68.7766 92.8709C69.7438 94.4803 70.6039 96.1615 71.4614 97.8376C73.8583 102.523 76.2348 107.168 80.8712 110.092C81.4663 109.294 81.9379 108.325 82.2186 107.036C82.2665 106.816 82.3122 106.594 82.358 106.372C82.6795 104.808 83.0083 103.209 84.191 102.036C84.7882 101.443 85.3246 101.201 85.7982 100.987C86.664 100.596 87.3197 100.299 87.7522 98.1322C87.8433 97.6759 87.7374 97.2924 87.6292 96.9007C87.5151 96.4874 87.3985 96.065 87.508 95.5385C88.1628 92.405 91.8503 90.7486 94.664 89.4847C95.0708 89.302 95.4593 89.1275 95.8178 88.9579C99.1862 87.3663 101.646 85.4519 103.505 82.163C103.855 81.5455 104.161 80.9148 104.459 80.2851C104.455 80.2819 104.451 80.2793 104.447 80.2767C104.442 80.2741 104.438 80.2716 104.434 80.2683C103.853 79.7678 103.265 79.2647 102.672 78.7583L102.665 78.752L102.652 78.7412C99.1514 75.7503 95.5131 72.6418 92.5111 69.2507C89.9557 66.3651 89.2165 63.5497 88.3669 59.8847C87.4767 56.0411 84.8031 53.591 82.1462 51.1562C80.1146 49.2944 78.0927 47.4415 76.8852 44.9813C76.8223 46.0908 76.7815 47.2018 76.7407 48.3123C76.6371 51.133 76.5336 53.9505 76.0684 56.7333C75.9397 57.5029 75.8048 58.2587 75.6717 59.004C74.888 63.3953 74.1689 67.4241 75.1608 71.7668C75.4428 72.434 75.7272 73.0989 76.0118 73.7643L76.0955 73.96ZM73.8883 54.8339C74.0623 54.7169 74.2625 54.8395 74.3318 55.0079C74.4291 54.1088 74.5123 53.1974 74.5676 52.2655C74.5882 51.9167 74.5979 51.5664 74.6076 51.216L74.6115 51.0744C74.5054 51.1754 74.3988 51.2756 74.2926 51.3754C74.1089 51.5481 73.9261 51.72 73.7507 51.8912C73.4977 52.138 73.2479 52.388 72.998 52.638C72.458 53.1784 71.918 53.7187 71.346 54.2267C70.5647 54.92 69.4148 53.786 70.1923 53.072C70.5668 52.729 70.9514 52.3096 71.3526 51.8722C72.3254 50.8113 73.396 49.6439 74.6546 49.2021C74.6742 47.9642 74.7032 46.7272 74.838 45.4968C74.8592 45.3036 74.9795 44.7263 75.111 44.0946C75.2629 43.3652 75.4299 42.5632 75.477 42.1967C73.5411 42.0975 70.5937 45.5633 69.8283 46.8564C69.4728 47.4571 69.2145 48.0999 69.0274 48.7633C69.0227 48.8437 69.0162 48.9223 69.0087 49.0009C69.0712 49.6951 69.1207 50.3945 69.1702 51.0935C69.3172 53.1676 69.4638 55.2383 69.9481 57.1572C70.8005 60.5387 71.9514 63.8154 73.2249 67.0482C73.1394 64.2079 73.5101 61.4195 73.8941 58.5313C74.0355 57.4676 74.1789 56.3889 74.3018 55.2905C74.042 55.6711 73.7059 56.0016 73.3735 56.3283C73.2632 56.4367 73.1526 56.5454 73.0461 56.6547C72.6981 57.0103 72.1441 56.4564 72.4997 56.1083C72.6089 56.0016 72.7168 55.8916 72.8252 55.781C73.159 55.4406 73.4969 55.0959 73.8883 54.8339ZM120.354 65.2732C120.532 64.9803 120.708 64.6912 120.883 64.4086C110.615 69.1862 98.5312 64.5948 89.9192 58.3286C90.1617 58.9266 90.3887 59.505 90.6093 60.0669C92.0262 63.6765 93.1756 66.6048 96.4353 69.6774C97.4362 70.6212 98.4815 71.5309 99.5284 72.4421C101.617 74.2602 103.713 76.0841 105.477 78.1958C105.806 77.5661 106.169 76.9551 106.597 76.3768C106.6 76.3701 106.603 76.3633 106.605 76.3566C106.607 76.3507 106.609 76.3447 106.611 76.3388C106.616 76.321 106.621 76.3032 106.633 76.2851C108.249 73.8405 109.574 73.5243 111.46 73.0742C112.204 72.8965 113.036 72.698 114.007 72.3394C116.639 71.3673 118.606 68.1412 120.354 65.2732ZM112.984 98.4243L112.985 98.4168C113.23 96.89 113.475 95.3627 113.796 93.8468C114.186 92.0006 114.883 90.4263 115.587 88.8337C116.037 87.8167 116.49 86.7923 116.869 85.6849C117.792 82.984 117.041 81.1949 116.218 79.2358C115.803 78.2461 115.369 77.213 115.124 75.9969C114.985 75.3102 114.943 74.7319 114.992 74.1883C114.34 74.3751 113.667 74.4997 112.998 74.6235C111.352 74.9282 109.734 75.2278 108.539 76.4367C107.52 79.1455 106.196 82.0648 104.421 84.5602C104.563 85.0785 104.696 85.5892 104.827 86.0946C105.414 88.3481 105.973 90.4964 107.115 92.7464C108.031 94.5493 109.161 96.2084 110.291 97.8665C111.053 98.9845 111.815 100.102 112.51 101.263C112.68 100.319 112.832 99.3713 112.984 98.4243ZM86.0854 49.185C84.9748 48.7967 83.8602 48.4069 82.6836 48.1785C82.3767 48.1195 82.0923 48.0503 81.8219 47.9726C82.6011 48.8753 83.4457 49.7399 84.2921 50.6064C85.6594 52.006 87.0315 53.4106 88.1405 54.9883C89.0213 55.7226 89.9425 56.4271 90.8602 57.1288C91.6598 57.7404 92.4577 58.3506 93.2231 58.9761C94.0156 59.6245 94.8596 60.2262 95.7092 60.8157C103.759 65.1263 112.279 66.3417 121.638 63.2203C121.653 63.1959 121.67 63.171 121.686 63.1466C121.694 63.1346 121.702 63.1226 121.71 63.1109C121.794 62.9754 121.877 62.84 121.961 62.7048C122.773 61.3945 123.577 60.0955 124.252 58.7946C124.465 58.382 124.765 57.8299 125.127 57.2114C113.935 60.3521 102.239 55.5717 91.347 51.1195C90.3922 50.7292 89.4414 50.3406 88.4998 49.9609C87.6827 49.7435 86.8851 49.4646 86.0854 49.185ZM77.3269 28.8082C56.1066 23.1277 31.8463 25.7682 13.5866 38.7263C11.7124 41.6699 10.0329 44.7464 8.56197 47.9417C13.4078 44.462 18.5569 41.6512 24.1129 39.341C27.4365 37.96 30.964 36.5172 34.5607 35.4047C35.8744 34.8049 37.2134 34.2566 38.6515 33.8505C41.4651 33.058 43.9035 32.36 46.3568 31.0912C46.4346 30.9882 46.5125 30.8854 46.5903 30.7826C46.8557 30.4323 47.1219 30.0808 47.3842 29.7223C48.5781 28.0924 49.8291 26.9181 51.7332 26.2304C52.1983 26.0629 52.8776 26.3623 53.0834 26.8367C55.3412 28.375 57.0704 30.3212 58.7434 32.3534C58.7502 32.3517 58.7566 32.3494 58.7629 32.3471C58.7738 32.343 58.7846 32.3391 58.7976 32.3385C66.2138 31.8201 73.4157 32.7324 80.4127 35.2812C83.5435 36.4222 86.5899 37.7608 89.6359 39.0993C93.5887 40.8363 97.5409 42.573 101.676 43.8772C117.464 48.8568 132.754 48.5537 148.83 46.1686C147.591 43.6461 146.212 41.2068 144.715 38.847C135.564 43.5581 122.681 41.5698 113.11 39.502C106.079 37.9829 99.264 35.7328 92.4479 33.4822C87.4374 31.8277 82.4259 30.173 77.3269 28.8082ZM78.2906 23.6957C59.3085 19.6741 36.069 18.1555 19.6198 30.4793C17.7597 32.6959 16.0221 35.0164 14.4156 37.4341C29.9432 26.6599 50.6582 22.8704 69.1079 25.8515C77.4949 27.207 85.5952 29.7156 93.6951 32.224C98.1079 33.5907 102.521 34.9573 106.979 36.1373C113.449 37.8505 120.058 39.1464 126.758 39.4496C130.865 39.6361 134.793 39.0788 138.748 38.5175C140.508 38.2677 142.274 38.017 144.064 37.8309C141.907 34.542 139.515 31.4234 136.897 28.5069C121.007 33.7022 104.127 29.7172 88.0669 25.926C84.7683 25.1473 81.5043 24.3768 78.2906 23.6957ZM25.302 49.8467C28.1704 48.391 31.0119 46.949 34.1537 45.9946C34.3081 45.9478 34.4438 45.9516 34.5682 45.9768C36.1757 43.589 37.9526 41.2891 39.9867 38.9434C41.3051 37.4238 42.5711 35.9155 43.8043 34.382C40.5831 35.8419 37.1855 36.9393 33.7884 38.0366C31.2266 38.8641 28.6644 39.6917 26.1789 40.6744C19.748 43.2175 13.2057 46.1696 7.54769 50.1967C6.7009 52.2047 5.95048 54.2613 5.27212 56.3516C7.38741 55.6572 9.54547 55.1774 11.7074 54.6968C14.9353 53.9791 18.172 53.2594 21.2881 51.821C22.653 51.191 23.9806 50.5173 25.302 49.8467ZM17.8027 108.716C15.9482 99.5366 13.3096 90.3109 9.40126 81.7794C8.07166 83.7855 6.64288 85.7336 4.90065 87.4954C7.2893 91.3451 9.33709 95.3946 11.3848 99.4441C13.5651 103.756 15.7455 108.067 18.337 112.137C18.1935 111.261 18.0746 110.468 17.983 109.857C17.8997 109.302 17.8388 108.896 17.8027 108.716ZM53.6167 118.44C54.89 119.322 56.1619 120.203 57.3417 121.196C58.5637 119.397 59.9139 117.573 61.5466 116.135C58.6055 114.319 58.7343 109.761 58.855 105.491C58.931 102.802 59.0038 100.226 58.3045 98.5205C58.0371 97.8685 57.6682 97.1905 57.2886 96.4929C56.2827 94.6443 55.202 92.6581 55.7379 90.6561C56.0519 89.4825 56.8015 88.7809 57.4839 88.1421L57.5111 88.1167C53.5425 85.4093 50.857 92.6984 49.581 96.1619C49.4579 96.4961 49.3476 96.7953 49.2509 97.0458C48.2168 99.7251 46.5569 101.498 44.8421 103.33C43.9178 104.317 42.9775 105.322 42.1107 106.494C42.3615 106.775 42.6085 107.061 42.8471 107.362C43.4505 108.122 44.0246 108.894 44.5959 109.661C46.0552 111.623 47.4961 113.559 49.3594 115.224C50.6883 116.411 52.1534 117.426 53.6167 118.44ZM133.652 63.2475C133.617 62.9827 133.579 62.7188 133.537 62.4578C133.46 61.9839 133.357 61.5147 133.254 61.0445L133.223 60.9064C131.174 63.6526 128.791 66.2061 126.422 68.7436L126.421 68.7456C125.102 70.1584 123.788 71.5667 122.539 73C122.045 73.5661 121.247 72.7464 121.72 72.1813C122.611 71.1175 123.488 70.0087 124.373 68.8908C126.987 65.5863 129.665 62.2025 132.936 59.6667C132.734 58.8661 132.514 58.069 132.295 57.2724L132.294 57.2699C131.989 56.1643 131.684 55.0595 131.428 53.9478C131.419 53.9101 131.416 53.8739 131.412 53.8377C131.411 53.825 131.41 53.8108 131.408 53.7981C129.906 54.5744 128.194 56.8855 127.145 58.3021C126.915 58.6136 126.716 58.8818 126.559 59.0809C124.805 61.3013 123.218 63.6751 121.801 66.1237C121.424 66.7746 121.079 67.4638 120.732 68.1573C120.68 68.2599 120.628 68.364 120.577 68.4667C120.418 68.8617 120.257 69.253 120.097 69.6422C119.09 72.0886 118.118 74.4518 117.994 77.1375C118.083 77.4123 118.179 77.6869 118.274 77.9598C118.526 78.6856 118.773 79.399 118.89 80.0709C119.274 82.2837 118.98 83.981 118.212 86.0283C116.571 90.4017 115.778 94.6685 114.962 99.0614C114.633 100.83 114.3 102.619 113.907 104.444C113.736 105.24 112.414 105.48 112.072 104.685C111.76 103.957 111.416 103.246 111.057 102.542C110.584 103.152 110.004 103.724 109.44 104.281C109.111 104.605 108.788 104.924 108.495 105.241C107.922 105.862 107.301 106.442 106.676 107.021C105.911 107.883 105.139 108.741 104.367 109.6L104.364 109.603C102.358 111.833 100.352 114.063 98.4498 116.372C94.2982 121.41 90.1101 126.402 85.5047 131.036C85.0584 131.486 84.3725 130.797 84.8104 130.341C88.9196 126.06 92.6638 121.475 96.4123 116.884C96.9665 116.205 97.5209 115.526 98.0765 114.848C98.693 114.096 99.3086 113.331 99.9278 112.563C102.261 109.665 104.645 106.706 107.314 104.11C107.41 103.974 107.506 103.838 107.602 103.702C107.865 103.329 108.124 102.963 108.379 102.621C108.484 102.481 108.598 102.315 108.721 102.137C109.078 101.619 109.509 100.993 110 100.571C109.564 99.7948 109.114 99.0248 108.655 98.2585C107.657 99.7544 106.372 101.024 105.086 102.295L105.083 102.297C104.155 103.215 103.225 104.133 102.405 105.137C102.09 105.523 101.428 105.006 101.716 104.605C103.604 101.99 105.522 99.3738 108.272 97.6128L107.914 97.02C106.674 94.9652 105.433 92.9079 104.388 90.745C104.273 90.5068 104.141 90.2498 104.003 89.9785C103.504 89.0017 102.912 87.8401 102.634 86.7095C102.149 87.2194 101.638 87.6929 101.097 88.1251L101.054 88.2467C100.815 88.9153 100.578 89.5789 100.51 90.3474C100.508 90.3712 100.505 90.3949 100.502 90.4187C100.499 90.4431 100.496 90.4683 100.493 90.4933C100.496 90.5192 100.498 90.5462 100.499 90.5734L100.499 90.5795C100.5 90.5944 100.501 90.6094 100.502 90.6243C101.093 93.4734 100.441 95.9848 99.4276 98.7235C97.8332 103.029 97.0164 107.241 96.5579 111.818C96.5167 112.232 95.9881 112.57 95.6568 112.192C94.3383 110.685 93.5851 108.886 92.8372 107.1C92.6722 106.706 92.5075 106.313 92.337 105.924C89.7369 110.16 86.0983 113.98 82.5797 117.674C81.335 118.98 80.1053 120.271 78.9419 121.56C78.5208 122.025 77.8649 121.346 78.2597 120.876C79.8749 118.955 81.4037 116.877 82.942 114.785C85.6385 111.12 88.3641 107.414 91.6343 104.446C90.9419 103.122 90.0839 101.898 88.7833 100.925C88.7066 100.867 88.6439 100.797 88.5962 100.718C88.3891 101.008 88.161 101.223 87.8432 101.521C87.6372 101.714 87.3925 101.944 87.0925 102.252C85.2755 104.117 84.8723 105.71 84.4463 107.393C84.1524 108.555 83.8475 109.759 83.0598 111.126C82.1978 112.62 80.9471 113.414 79.5953 114.272C79.3375 114.436 79.0759 114.602 78.8127 114.776C76.4284 116.349 74.9616 118.584 73.4673 120.86C72.8319 121.828 72.1913 122.804 71.4733 123.74C71.4321 123.793 71.3881 123.837 71.3441 123.881C73.2511 126.623 75.3077 129.231 78.2597 131.275C82.5835 134.267 85.9641 137.929 88.4278 142.484C88.6823 142.403 88.977 142.435 89.2755 142.65C91.5911 144.313 93.5148 146.386 95.4379 148.459C97.3147 150.481 99.1909 152.503 101.43 154.142C101.61 154.274 101.728 154.433 101.806 154.603C105.148 153.583 108.389 152.333 111.523 150.89C114.896 146.882 118.382 142.971 122.448 139.658C123.018 139.194 123.779 139.917 123.267 140.477C122.539 141.272 121.809 142.066 121.079 142.86C119.246 144.853 117.411 146.848 115.609 148.873C119.65 146.716 123.47 144.206 127.045 141.395C127.052 141.298 127.073 141.2 127.13 141.104C127.517 140.444 127.924 139.8 128.33 139.157C128.966 138.151 129.602 137.145 130.161 136.076C130.279 135.851 130.412 135.613 130.549 135.366C130.965 134.62 131.422 133.801 131.635 133.054C131.695 132.842 131.752 132.658 131.801 132.498C131.957 131.987 132.039 131.721 131.945 131.552C131.843 131.368 131.536 131.299 130.894 131.155C130.507 131.068 129.999 130.953 129.341 130.77C128.876 130.64 128.54 130.197 128.538 129.715C128.516 125.967 127.824 123.943 125.663 120.937C125.126 120.192 124.698 119.515 124.324 118.804C124.319 118.854 124.306 118.902 124.276 118.95C122.323 121.928 119.445 124.173 116.568 126.416C114.406 128.103 112.245 129.788 110.477 131.785C109.92 132.413 109.015 131.494 109.559 130.867C113.564 126.249 118.718 121.885 123.76 118.433C123.891 118.345 124.036 118.37 124.148 118.448C123.92 117.981 123.705 117.496 123.509 116.949C123.392 116.623 123.514 116.138 123.781 115.915C125.63 114.377 127.604 113.022 129.581 111.666C130.503 111.033 131.426 110.4 132.336 109.748C132.538 109.604 132.736 109.458 132.934 109.313C134.412 108.227 135.821 107.193 137.728 107.406C138.004 107.437 138.254 107.615 138.495 107.786C138.727 107.952 138.952 108.112 139.184 108.128C140.194 108.197 140.216 108.116 140.28 107.887C140.308 107.785 140.344 107.654 140.478 107.494C140.577 107.376 140.612 107.028 140.647 106.684C140.674 106.406 140.702 106.131 140.763 105.982C141.093 105.176 141.897 104.537 142.612 103.969C142.789 103.828 142.96 103.692 143.117 103.559C143.428 103.296 143.793 103.024 144.176 102.739C145.88 101.471 147.957 99.9247 147.36 97.5969C146.895 97.1665 146.455 96.7202 146.076 96.244C145.58 95.6227 145.112 95.0379 144.643 94.4727C143.415 96.088 141.79 97.5233 140.235 98.8965C139.54 99.5111 138.858 100.113 138.232 100.714C137.653 101.27 136.799 100.414 137.352 99.8332C138.123 99.023 138.869 98.1141 139.625 97.1923C140.817 95.7389 142.037 94.2516 143.426 93.0702C142.812 92.3993 142.155 91.7424 141.409 91.079C138.084 95.3059 133.968 99.1597 130.041 102.835C129.588 103.26 129.137 103.682 128.69 104.102C128.443 104.334 128.073 103.966 128.318 103.73C130.081 102.02 131.658 100.008 133.244 97.984C135.455 95.164 137.685 92.3201 140.456 90.2416C139.207 89.131 137.996 87.8865 137.246 86.3867C137.128 86.5041 137.009 86.6206 136.89 86.7372L136.887 86.7407C136.572 87.0494 136.256 87.3589 135.969 87.6854C135.737 87.9484 135.483 88.1928 135.229 88.4367L135.17 88.4938C134.086 89.852 132.845 91.0867 131.605 92.3202C130.917 93.0046 130.229 93.6887 129.569 94.3932C129.32 94.6585 129.07 94.9242 128.82 95.1902C125.772 98.4347 122.657 101.75 120.201 105.447C119.84 105.99 118.967 105.489 119.322 104.934C122.682 99.6677 126.947 95.096 131.203 90.5349L131.209 90.5282C132.443 89.2055 133.677 87.8834 134.887 86.5457C134.923 86.4895 134.958 86.4332 134.994 86.3769L135.087 86.2296C135.244 85.9795 135.401 85.7302 135.562 85.4893C135.658 85.3459 135.753 85.1861 135.851 85.0211C136.132 84.5489 136.44 84.0333 136.866 83.7303C136.942 83.4422 137.044 83.1653 137.146 82.8897C137.388 82.2326 137.627 81.5824 137.511 80.8026C137.358 79.7817 136.382 79.2222 135.221 78.7609C134.62 79.225 134.032 79.7116 133.451 80.214C132.892 80.8667 132.289 81.4907 131.689 82.1125C131.22 82.5978 130.753 83.0818 130.309 83.5768C128.825 85.2292 127.309 86.832 125.674 88.3375C125.318 88.666 124.796 88.1504 125.141 87.8042C126.388 86.5535 127.478 85.1683 128.568 83.7826C128.853 83.4195 129.139 83.0561 129.427 82.6954C129.551 82.5413 129.674 82.385 129.799 82.2277C130.527 81.3088 131.285 80.3519 132.153 79.545C132.298 79.3557 132.444 79.1481 132.593 78.9345C132.804 78.6351 133.022 78.3237 133.258 78.0348C132.265 77.6484 131.385 77.1965 131.004 76.4601C130.477 75.443 130.539 73.4762 130.916 72.3703C131.175 71.6094 131.637 71.0343 132.108 70.4474C132.65 69.7719 133.204 69.081 133.477 68.0737C133.801 66.8788 133.852 65.6334 133.767 64.3984C132.18 66.4699 130.38 68.3861 128.579 70.3037C127.047 71.9355 125.513 73.5684 124.109 75.2989C123.764 75.7247 123.029 75.152 123.351 74.7141L123.517 74.4887C126.452 70.5087 129.592 66.2511 133.564 63.2877C133.586 63.2706 133.61 63.2623 133.634 63.254C133.64 63.2519 133.646 63.2498 133.652 63.2475Z" fill="url(#paint24_linear_1049_62860)"/>
</g>
</g>
<defs>
<linearGradient id="paint0_linear_1049_62860" x1="70" y1="-14" x2="70" y2="146" gradientUnits="userSpaceOnUse">
<stop stop-color="white"/>
<stop offset="1" stop-color="white" stop-opacity="0"/>
</linearGradient>
<linearGradient id="paint1_linear_1049_62860" x1="14.927" y1="31.7898" x2="91.7082" y2="108.572" gradientUnits="userSpaceOnUse">
<stop stop-color="#559D3E"/>
<stop offset="1" stop-color="#EA5C3D"/>
</linearGradient>
<linearGradient id="paint2_linear_1049_62860" x1="14.927" y1="31.7898" x2="91.7082" y2="108.572" gradientUnits="userSpaceOnUse">
<stop stop-color="#559D3E"/>
<stop offset="1" stop-color="#EA5C3D"/>
</linearGradient>
<linearGradient id="paint3_linear_1049_62860" x1="14.927" y1="31.7898" x2="91.7082" y2="108.572" gradientUnits="userSpaceOnUse">
<stop stop-color="#559D3E"/>
<stop offset="1" stop-color="#EA5C3D"/>
</linearGradient>
<linearGradient id="paint4_linear_1049_62860" x1="14.927" y1="31.7898" x2="91.7082" y2="108.572" gradientUnits="userSpaceOnUse">
<stop stop-color="#559D3E"/>
<stop offset="1" stop-color="#EA5C3D"/>
</linearGradient>
<linearGradient id="paint5_linear_1049_62860" x1="14.927" y1="31.7898" x2="91.7082" y2="108.572" gradientUnits="userSpaceOnUse">
<stop stop-color="#559D3E"/>
<stop offset="1" stop-color="#EA5C3D"/>
</linearGradient>
<linearGradient id="paint6_linear_1049_62860" x1="14.927" y1="31.7898" x2="91.7082" y2="108.572" gradientUnits="userSpaceOnUse">
<stop stop-color="#559D3E"/>
<stop offset="1" stop-color="#EA5C3D"/>
</linearGradient>
<linearGradient id="paint7_linear_1049_62860" x1="14.927" y1="31.7898" x2="91.7082" y2="108.572" gradientUnits="userSpaceOnUse">
<stop stop-color="#559D3E"/>
<stop offset="1" stop-color="#EA5C3D"/>
</linearGradient>
<linearGradient id="paint8_linear_1049_62860" x1="14.927" y1="31.7898" x2="91.7082" y2="108.572" gradientUnits="userSpaceOnUse">
<stop stop-color="#559D3E"/>
<stop offset="1" stop-color="#EA5C3D"/>
</linearGradient>
<linearGradient id="paint9_linear_1049_62860" x1="14.927" y1="31.7898" x2="91.7082" y2="108.572" gradientUnits="userSpaceOnUse">
<stop stop-color="#559D3E"/>
<stop offset="1" stop-color="#EA5C3D"/>
</linearGradient>
<linearGradient id="paint10_linear_1049_62860" x1="14.927" y1="31.7898" x2="91.7082" y2="108.572" gradientUnits="userSpaceOnUse">
<stop stop-color="#559D3E"/>
<stop offset="1" stop-color="#EA5C3D"/>
</linearGradient>
<linearGradient id="paint11_linear_1049_62860" x1="14.927" y1="31.7898" x2="91.7082" y2="108.572" gradientUnits="userSpaceOnUse">
<stop stop-color="#559D3E"/>
<stop offset="1" stop-color="#EA5C3D"/>
</linearGradient>
<linearGradient id="paint12_linear_1049_62860" x1="14.927" y1="31.7898" x2="91.7082" y2="108.572" gradientUnits="userSpaceOnUse">
<stop stop-color="#559D3E"/>
<stop offset="1" stop-color="#EA5C3D"/>
</linearGradient>
<linearGradient id="paint13_linear_1049_62860" x1="14.927" y1="31.7898" x2="91.7082" y2="108.572" gradientUnits="userSpaceOnUse">
<stop stop-color="#559D3E"/>
<stop offset="1" stop-color="#EA5C3D"/>
</linearGradient>
<linearGradient id="paint14_linear_1049_62860" x1="14.927" y1="31.7898" x2="91.7082" y2="108.572" gradientUnits="userSpaceOnUse">
<stop stop-color="#559D3E"/>
<stop offset="1" stop-color="#EA5C3D"/>
</linearGradient>
<linearGradient id="paint15_linear_1049_62860" x1="14.927" y1="31.7898" x2="91.7082" y2="108.572" gradientUnits="userSpaceOnUse">
<stop stop-color="#559D3E"/>
<stop offset="1" stop-color="#EA5C3D"/>
</linearGradient>
<linearGradient id="paint16_linear_1049_62860" x1="14.927" y1="31.7898" x2="91.7082" y2="108.572" gradientUnits="userSpaceOnUse">
<stop stop-color="#559D3E"/>
<stop offset="1" stop-color="#EA5C3D"/>
</linearGradient>
<linearGradient id="paint17_linear_1049_62860" x1="14.927" y1="31.7898" x2="91.7082" y2="108.572" gradientUnits="userSpaceOnUse">
<stop stop-color="#559D3E"/>
<stop offset="1" stop-color="#EA5C3D"/>
</linearGradient>
<linearGradient id="paint18_linear_1049_62860" x1="14.927" y1="31.7898" x2="91.7082" y2="108.572" gradientUnits="userSpaceOnUse">
<stop stop-color="#559D3E"/>
<stop offset="1" stop-color="#EA5C3D"/>
</linearGradient>
<linearGradient id="paint19_linear_1049_62860" x1="14.927" y1="31.7898" x2="91.7082" y2="108.572" gradientUnits="userSpaceOnUse">
<stop stop-color="#559D3E"/>
<stop offset="1" stop-color="#EA5C3D"/>
</linearGradient>
<linearGradient id="paint20_linear_1049_62860" x1="14.927" y1="31.7898" x2="91.7082" y2="108.572" gradientUnits="userSpaceOnUse">
<stop stop-color="#559D3E"/>
<stop offset="1" stop-color="#EA5C3D"/>
</linearGradient>
<linearGradient id="paint21_linear_1049_62860" x1="14.927" y1="31.7898" x2="91.7082" y2="108.572" gradientUnits="userSpaceOnUse">
<stop stop-color="#559D3E"/>
<stop offset="1" stop-color="#EA5C3D"/>
</linearGradient>
<linearGradient id="paint22_linear_1049_62860" x1="14.927" y1="31.7898" x2="91.7082" y2="108.572" gradientUnits="userSpaceOnUse">
<stop stop-color="#559D3E"/>
<stop offset="1" stop-color="#EA5C3D"/>
</linearGradient>
<linearGradient id="paint23_linear_1049_62860" x1="14.927" y1="31.7898" x2="91.7082" y2="108.572" gradientUnits="userSpaceOnUse">
<stop stop-color="#559D3E"/>
<stop offset="1" stop-color="#EA5C3D"/>
</linearGradient>
<linearGradient id="paint24_linear_1049_62860" x1="14.927" y1="31.7898" x2="91.7082" y2="108.572" gradientUnits="userSpaceOnUse">
<stop stop-color="#559D3E"/>
<stop offset="1" stop-color="#EA5C3D"/>
</linearGradient>
<clipPath id="clip0_1049_62860">
<rect width="160" height="146" fill="white"/>
</clipPath>
</defs>
</svg>
