<svg width="160" height="146" viewBox="0 0 160 146" fill="none" xmlns="http://www.w3.org/2000/svg">
<g clip-path="url(#clip0_1049_67330)">
<mask id="mask0_1049_67330" style="mask-type:alpha" maskUnits="userSpaceOnUse" x="-20" y="-14" width="180" height="160">
<rect x="-20" y="-14" width="180" height="160" fill="url(#paint0_linear_1049_67330)"/>
</mask>
<g mask="url(#mask0_1049_67330)">
<path d="M54.2778 50.449C52.3054 49.8764 50.2712 49.5479 48.5935 49.2597C41.27 48.0022 36.0788 44.6179 32.3165 38.8176C35.2723 40.3652 38.7259 40.9164 41.8407 42.3638C46.1888 44.3849 50.7091 47.0469 54.2778 50.449ZM153.452 108.11C149.425 110.069 145.349 111.496 141.172 112.443C139.408 110.301 137.979 107.878 135.569 106.357C132.785 104.601 129.263 103.996 126.115 103.244C124.412 102.837 122.637 102.462 121.047 101.688C119.888 101.124 118.341 99.4268 116.929 99.569C116.623 99.5999 116.274 99.7767 116.21 100.115C115.273 105.146 119.955 111.292 125.205 113.869C125.142 113.866 125.081 113.867 125.019 113.864C118.122 113.619 110.689 112.198 103.759 109.86C102.014 107.293 101.77 104.514 101.236 101.316C100.657 97.8558 99.6928 94.3947 98.2013 91.2088C95.3297 85.0717 90.2958 79.8132 85.3058 75.365C84.6396 74.7718 83.4382 75.3341 83.732 76.282C85.9103 83.3136 86.6345 90.7755 89.3087 97.6621C90.6223 101.045 92.4488 103.639 94.6589 106.09C94.2827 105.902 93.9047 105.714 93.536 105.521C76.7088 96.6478 73.0952 77.0006 64.9136 61.0988C64.3326 56.806 66.1955 52.8209 65.8783 48.4382C65.5677 44.1444 63.4512 39.2911 60.282 36.3166C59.6626 35.7355 58.3555 36.0967 58.45 37.0754C58.8794 41.5143 58.478 45.8296 58.61 50.2937C58.6212 50.6661 58.6474 51.0366 58.6858 51.4043C55.2659 47.4661 50.6436 44.7685 46.0728 42.3779C41.2166 39.8375 35.0159 39.5241 30.7211 36.0537C30.6987 36.0097 30.6743 35.9695 30.6519 35.9255C30.4956 35.6176 30.2664 35.4754 30.025 35.4389C29.9866 35.4024 29.9445 35.3716 29.9062 35.3351C29.3139 34.7615 28.4886 35.5746 28.9368 36.1987C28.8713 36.4148 28.8638 36.6572 28.9705 36.9079C31.5838 43.0459 35.3574 47.5447 41.6667 50.2319C45.0248 51.6616 48.6703 52.0555 52.2099 52.8022C54.5922 53.3037 56.5159 54.1412 58.3891 55.3407C59.541 57.0258 60.5655 58.784 61.4881 60.6001C60.7096 60.2258 59.8741 59.9077 58.9711 59.656C55.642 58.7278 51.7327 58.0626 48.2932 57.664C46.5959 57.4665 44.6796 57.2831 43.1778 58.2778C39.5502 60.6796 43.7467 65.2204 46.2927 66.7138C52.1454 70.1477 59.0619 66.1 65.0399 68.7199C65.6332 70.2357 66.2096 71.7608 66.7906 73.2831C64.6254 71.4492 62.1861 70.3077 58.5098 69.707C52.0677 68.6544 45.2953 68.224 39.0449 66.3554C37.9914 66.0401 36.9668 65.6995 35.9647 65.3346C35.6428 62.7456 35.5782 59.8656 34.6828 57.4291C34.0886 55.8151 32.3034 53.5442 30.2626 54.3245C28.366 55.0497 28.6973 58.0176 29.1454 59.5194C29.5253 60.79 30.0727 61.9362 30.7576 62.9964C27.4201 61.1447 24.4951 58.6941 22.0727 55.2368C21.428 54.3161 20.8928 53.3907 20.4305 52.4597C20.4811 52.3999 20.5232 52.3269 20.5484 52.2296C21.0088 50.449 22.4058 48.9266 23.1159 47.2368C23.6848 45.881 24.1686 44.5056 24.4989 43.0721C24.9078 41.2953 26.0062 37.1362 23.7269 36.0303C21.8668 35.1273 20.176 37.4609 19.4134 38.7933C18.6219 40.1762 18.1849 41.6293 17.9538 43.1199C17.7105 40.79 17.6179 38.3975 17.4551 35.9283C23.1552 27.918 30.3319 21.0408 38.5967 15.6869C38.8035 18.0551 39.7383 20.5243 41.0716 22.6249C40.1228 22.3124 39.1235 22.1243 37.953 22.1767C36.2267 22.2553 32.5382 22.8083 32.4587 25.1269C32.3782 27.4745 35.6147 28.2081 37.3457 28.3699C39.4557 28.5664 43.1301 28.427 44.9734 26.8214C49.4459 30.1047 55.337 31.5456 59.9021 34.6895C59.9246 34.7054 59.9471 34.7128 59.9695 34.7269C62.1609 37.2859 64.6273 39.6242 67.134 41.3571C71.6805 44.499 77.3469 46.9711 82.7327 48.1519C86.6513 49.0118 91.9145 50.2768 95.9248 52.4523C97.3461 53.9671 98.7085 55.54 100.068 57.1325C97.1749 56.5889 93.9992 57.4141 91.1379 57.7341C83.9098 58.5426 78.3013 57.4899 72.0603 54.0233C71.5757 53.7547 70.771 54.0822 70.8449 54.7213C71.2313 58.0888 74.7064 61.2073 77.0587 63.3098C80.27 66.1795 84.4019 67.9386 88.43 69.3758C92.445 70.8083 96.4048 70.754 100.419 69.4226C102.645 68.6834 106.618 66.6941 109.762 66.6118C111.072 67.5456 112.434 68.4204 113.845 69.2223C111.978 69.1624 110.091 69.3571 107.942 70.042C103.992 71.3005 100.517 74.259 96.2701 74.6034C95.0865 74.6988 95.0846 76.3503 96.2701 76.4467C100.165 76.762 104.035 77.3299 107.936 76.6366C112.333 75.8544 116.268 73.5657 120.57 72.4598C123.526 73.6583 126.552 74.6221 129.526 75.3678C130.311 75.5643 131.113 75.7299 131.912 75.8955C128.765 76.8499 125.868 78.4219 122.608 80.1257C116.886 83.1161 110.678 85.1802 104.213 85.6471C103.546 85.6948 103.397 86.4499 103.892 86.8326C110.548 91.9685 121.722 90.914 129.177 88.6169C136.058 86.4967 140.409 80.7058 146.502 77.4076C150.448 77.4151 154.976 77.0043 158.15 75.2471C158.284 77.1091 158.376 78.9823 158.376 80.878C158.376 90.4611 156.628 99.6345 153.452 108.11ZM140.241 119.411C138.827 120.886 137.328 122.269 135.655 123.504C129.976 127.696 123.263 128.848 116.934 131.542C118.13 130.316 119.222 128.989 120.519 127.847C123.787 124.972 127.693 123.633 131.806 122.335C134.566 121.464 137.643 120.782 140.241 119.411ZM131.75 113.778C131.704 113.725 131.648 113.679 131.584 113.642C129.991 112.727 128.228 112.824 126.517 112.206C123.646 111.172 120.929 108.695 119.423 106.072C118.812 105.009 118.493 103.81 118.151 102.647C117.852 101.627 117.918 101.089 117.459 101.099C118.118 101.084 119.722 102.72 120.426 103.162C122.545 104.496 124.951 105.22 127.366 105.86C130.216 106.616 133.062 107.293 135.445 109.099C136.809 110.133 138.004 111.528 139.192 112.855C136.752 113.317 134.275 113.621 131.75 113.778ZM101.503 155.683C105.097 152.826 107.949 148.909 109.34 144.921C109.53 144.374 109.697 143.814 109.852 143.246C110.133 146.002 110.997 148.169 113.254 146.992C118.565 144.222 113.147 135.63 111.727 132.07C112.703 125.579 114.351 119.545 121.081 116.619C121.543 116.654 122.005 116.691 122.474 116.711C128.338 116.962 134.197 116.714 139.996 115.756C140.417 115.687 140.807 115.593 141.208 115.508C140.605 115.889 139.992 116.244 139.367 116.555C135.702 118.376 131.512 118.996 127.756 120.585C125.023 121.742 122.638 122.876 120.598 125.054C118.81 126.962 117.765 129.981 115.986 131.957C115.961 131.969 115.937 131.978 115.914 131.989C115.792 132.045 115.696 132.182 115.65 132.306C115.426 132.526 115.199 132.741 114.949 132.924C114.518 133.237 114.882 133.889 115.37 133.646C118.701 131.994 122.68 131.449 126.252 130.552C129.833 129.653 132.645 128.375 135.749 126.302C137.958 124.827 139.951 123.273 141.618 121.196C143.022 119.445 144.08 116.958 145.558 115.061C146.149 114.496 146.754 113.947 147.401 113.449C149.07 112.686 150.685 111.807 152.368 110.861C143.255 132.605 124.527 149.306 101.503 155.683ZM105.639 148.298C104.293 149.243 102.897 150.084 101.354 150.705C100.295 151.132 99.2053 151.491 98.0806 151.69C97.4724 151.797 96.7538 151.983 96.1335 151.894C95.7835 151.94 95.4729 151.834 95.2006 151.575C94.3744 151.372 94.395 151.097 95.2633 150.751C96.2383 149.736 98.2771 149.246 99.5347 148.848C101.628 148.185 103.885 147.603 106.112 147.499C105.961 147.768 105.806 148.035 105.639 148.298ZM111.24 135.577L111.248 135.527C112.615 138.249 114.883 140.871 113.771 143.987C112.249 148.252 111.101 142.092 111.08 141.009C111.047 139.256 111.233 137.485 111.268 135.729C111.269 135.672 111.251 135.628 111.24 135.577ZM85.3086 133.896C83.5683 136.648 82.278 139.876 80.2887 142.267C75.9677 147.461 69.912 148.961 63.9461 151.077C65.0484 149.541 66.0196 147.834 67.3015 146.558C69.8783 143.997 72.7331 141.94 75.7273 139.913C78.0824 138.32 80.7229 137.205 83.0527 135.579C83.8143 135.049 84.5648 134.483 85.3086 133.896ZM65.2804 128.282C61.1662 128.388 57.2018 129.327 53.4394 130.995C47.1479 133.785 40.2314 135.538 33.2942 134.005C30.811 133.457 27.6989 132.593 25.4982 131.134C26.1578 131.127 26.8165 131.133 27.4743 131.171C28.1022 131.101 28.8956 130.872 29.4814 130.694C35.9899 128.725 40.5121 124.374 47.8291 124.633C53.823 124.845 59.5391 126.658 65.2804 128.282ZM80.0819 122.571C77.1111 121.612 74.1357 120.686 71.2079 119.525C66.727 117.747 63.4016 116.929 60.0116 113.224C57.751 110.755 55.6747 108.189 53.3131 105.849C55.6935 106.516 58.0149 107.534 60.4027 108.081C63.2303 108.726 66.2329 108.725 68.7995 110.244C73.3993 112.966 75.7993 117.938 79.2988 121.742C79.5542 122.02 79.8162 122.297 80.0819 122.571ZM104.838 132.434C104.342 135.053 102.721 137.169 100.895 139.023C100.007 139.925 99.0565 140.583 98.0077 141.261C97.3686 141.522 96.7857 141.879 96.2598 142.333C95.1894 143.105 95.0518 143.159 95.8453 142.496C97.3106 139.266 100.427 136.855 101.592 133.257C102.27 131.17 102.313 129.059 102.56 126.887C102.789 124.872 103.295 123.374 104.061 122.095C103.874 125.405 105.467 129.103 104.838 132.434ZM99.3475 108.219C95.0921 103.938 91.8893 99.831 90.1554 93.7931C88.8502 89.2457 87.9201 84.5992 86.7374 80.0172C90.7 84.5907 94.7646 88.8237 97.1365 94.7091C98.8713 99.0151 99.0809 104.687 101.249 108.967C100.61 108.725 99.9754 108.477 99.3475 108.219ZM16.2967 124.187C19.4911 122.796 22.2813 120.384 24.4773 117.773C25.2783 116.821 25.9744 115.809 26.6257 114.774C26.417 116.161 26.4039 117.573 26.7005 118.954C26.984 120.274 27.7513 122.69 29.6208 122.161C31.4388 121.646 31.3003 118.816 31.2329 117.451C31.1085 114.932 30.1915 112.804 29.1614 110.549C29.1417 110.507 29.1108 110.485 29.0856 110.452C30.1784 108.418 31.2881 106.398 32.6561 104.535C33.8847 103.865 35.0982 103.156 36.294 102.409C38.2168 101.205 40.0143 99.8497 41.721 98.3882C40.8424 100.129 40.1537 101.965 39.8 104.005C39.4117 106.242 38.7652 112.34 42.4676 112.25C46.5715 112.151 48.266 104.419 48.6029 101.618C48.965 98.5987 48.9837 94.8934 48.2876 91.8263C48.4494 91.642 48.615 91.4605 48.776 91.2743C52.3138 87.1807 57.8221 83.5681 63.3838 84.0228C67.3567 85.8932 71.6281 88.0555 75.1836 90.8392C75.9434 92.1098 76.7322 93.3617 77.5556 94.5847C75.6094 93.4413 73.4657 92.6824 70.8486 92.4878C68.3438 92.3016 65.8269 92.4307 63.3295 92.3971C60.0902 92.3531 57.4086 91.1433 54.2703 90.7072C52.9959 90.5304 52.2043 92.0611 53.3702 92.8434C58.3686 96.2006 62.5015 99.4202 68.6058 100.289C73.4395 100.977 78.2461 100.565 82.9835 101.434C85.6717 104.249 88.7529 106.679 92.4067 108.489C97.1478 110.838 102.306 112.114 107.321 113.687C108.346 114.009 109.365 114.311 110.384 114.599C109.6 114.756 108.812 114.976 108.016 115.286C104.584 116.628 101.521 118.998 98.4109 120.909C96.3889 122.151 94.3856 123.238 92.3758 124.172C89.5894 124.78 86.8506 124.418 84.3814 122.004C81.2908 118.981 79.0938 115.205 76.0239 112.163C73.1046 109.271 69.9307 107.2 65.8203 106.553C60.7966 105.763 55.9059 104.708 50.9149 103.747C50.3245 103.634 49.5563 104.308 50.0204 104.911C55.0104 111.384 58.871 118.689 66.989 121.369C69.6397 122.245 72.5497 122.991 75.3221 123.315C78.1011 123.642 80.6012 124.376 83.1098 125.221C83.95 125.803 84.8548 126.269 85.8223 126.602C80.9156 127.952 75.8087 128.287 70.1366 127.368C61.9831 126.047 53.9035 122.331 45.5226 122.733C41.5703 122.923 38.0119 124.129 34.4723 125.864C31.1684 127.484 27.7737 129.831 24.0441 130.296C23.5903 130.353 23.5099 130.906 23.9384 131.081C31.4482 134.156 37.2475 137.478 45.7191 136.187C53.0857 135.064 59.2874 129.251 66.6456 128.663C72.4253 130.254 78.2545 131.512 84.4431 130.613C84.5311 130.601 84.6144 130.577 84.7014 130.564C83.7891 131.298 82.9077 132.078 81.9645 132.757C79.4213 134.589 76.5825 135.886 74.1132 137.821C71.716 139.7 69.4507 141.54 67.3586 143.772C66.1469 145.066 64.9501 146.354 63.8891 147.778C62.8093 149.228 61.8596 151.544 60.2577 152.512C59.4773 152.983 59.9807 154.36 60.8996 154.035C67.672 151.639 75.1939 150.964 80.4581 145.495C84.1802 141.627 84.8324 136.267 87.6179 132C88.9915 130.835 90.3426 129.642 91.6862 128.495C94.8011 127.152 97.726 125.353 100.504 123.359C100.06 125.014 99.9511 126.804 99.7564 128.437C99.122 133.775 96.8409 138.783 94.5325 143.607C94.366 143.956 94.6523 144.523 95.0996 144.346C99.2661 142.698 103.089 140.403 105.408 136.407C108.644 130.828 106.055 125.357 106.183 119.505C106.42 119.274 106.665 119.043 106.926 118.81C109.405 117.257 111.974 116.112 115.141 115.77C116.054 115.958 116.973 116.12 117.899 116.258C117.278 116.538 116.784 116.779 116.657 116.884C115.59 117.766 114.587 118.965 113.804 120.106C111.249 123.823 110.205 128.563 109.639 132.948C109.096 137.147 108.705 141.549 107.088 145.478C107.029 145.468 106.983 145.443 106.917 145.444C103.442 145.492 99.9192 146.626 96.8062 148.126C95.6619 148.676 92.9279 150.013 93.0523 151.578C93.2441 153.975 97.522 153.051 98.8769 152.713C100.457 152.32 102.146 151.707 103.698 150.878C101.621 153.289 99.0088 155.439 96.1494 156.979C91.1678 157.983 86.0151 158.514 80.7378 158.514C53.8979 158.514 30.2411 144.893 16.2967 124.187ZM28.163 112.147C28.2275 112.031 28.2912 111.913 28.3548 111.796C29.6301 113.923 30.9083 117.581 29.9342 119.808C28.6711 122.695 27.5941 117.703 27.5576 116.613C27.5071 115.103 27.7578 113.6 28.163 112.147ZM9.11911 110.889C16.5989 111.01 23.712 109.005 30.3684 105.718C28.4147 108.754 27.3087 112.188 25.2455 115.235C23.1337 118.352 19.9262 122.21 16.1966 124.031C13.4373 119.911 11.0606 115.515 9.11911 110.889ZM23.0149 99.773C22.1578 99.4015 21.3138 98.9898 20.5269 98.4836C19.8429 98.0429 17.0733 95.8235 19.8448 95.5718C21.4074 95.4296 23.3031 96.9323 24.2378 98.0289C24.9658 98.8831 25.4869 99.8693 26.0876 100.804C25.05 100.504 24.0161 100.208 23.0149 99.773ZM14.7594 102.929C14.8997 102.902 14.9961 102.823 15.0682 102.726C15.4902 102.781 15.9121 102.83 16.336 102.872C14.9203 104.037 12.8029 104.999 11.1973 105.336C10.6901 105.442 9.87795 105.771 10.1343 104.721C10.2812 104.12 11.7746 103.547 12.1966 103.402C13.0312 103.115 13.8967 103.099 14.7594 102.929ZM8.75888 109.976C7.48261 106.82 6.38974 103.572 5.53172 100.227C6.95957 100.882 8.61759 101.305 9.62251 101.6C10.3187 101.805 11.0307 101.98 11.7493 102.141C11.0195 102.34 10.3224 102.666 9.65807 103.279C8.90952 103.969 7.96168 105.462 8.98906 106.314C10.0613 107.203 11.9804 106.349 13.0265 105.889C14.533 105.227 16.3828 104.186 17.5468 102.978C19.0214 103.081 20.4951 103.11 21.9379 103.062C23.6259 103.007 25.442 102.866 27.2965 102.62C27.4107 102.63 27.5136 102.615 27.6044 102.576C30.301 102.203 33.0659 101.6 35.6419 100.703C27.8467 106.412 18.2991 110.377 8.75888 109.976ZM47.205 97.7856C47.2181 99.4071 47.1741 101.048 46.8728 102.646C46.6529 103.819 46.3516 104.991 45.8595 106.082C44.7273 108.597 45.008 109.183 42.9196 108.328C40.9687 107.528 41.5694 106.122 41.9848 104.191C42.2534 102.94 42.6351 101.747 43.0927 100.551C43.9722 98.2506 45.153 95.9779 46.4415 93.8576C46.6314 93.6565 46.8195 93.4544 47.0066 93.2513C47.2518 94.7437 47.1938 96.3681 47.205 97.7856ZM51.976 80.1444C49.2738 81.5629 47.1853 83.7458 44.7582 85.8998C40.2688 89.8838 35.9534 91.9592 30.5303 92.7124C34.1242 91.162 36.9761 89.2429 40.236 86.1608C43.4866 83.0853 47.5858 80.5355 51.976 80.1444ZM3.68843 71.4633C3.74832 71.555 3.81943 71.6392 3.913 71.7093C8.38087 75.0179 11.667 79.1358 17.4944 80.0462C24.8273 81.1924 32.0685 78.333 39.3425 77.7978C42.3179 77.5788 45.2017 77.8183 48.0171 78.376C46.3816 78.7531 44.8209 79.3641 43.4464 80.2146C40.9462 81.7585 39.0608 83.9807 36.9331 85.9437C33.6114 89.0081 29.9735 91.2771 25.8752 93.1288C25.2905 93.3926 25.6105 94.289 26.1896 94.289C32.4016 94.289 37.24 93.6144 42.3713 89.8305C46.5987 86.7129 49.6611 81.9016 54.8308 80.3231C56.4747 80.9238 58.1019 81.5985 59.7159 82.3227C57.8755 82.4574 56.0649 82.885 54.4462 83.5559C48.7198 85.9316 45.6508 91.8525 41.3261 95.962C40.9893 96.282 40.6356 96.5945 40.2884 96.9089C36.7432 99.0216 32.207 100.081 27.9066 100.765C27.2254 98.8251 25.6273 96.5561 23.8888 95.4792C22.3487 94.5257 19.1777 93.2055 17.5936 94.7269C15.8279 96.4242 17.7236 98.4509 19.1739 99.4651C20.4521 100.36 21.7424 100.958 23.0813 101.431C19.3742 101.881 15.4714 101.808 11.8204 101.098C9.19584 100.587 7.22343 98.9224 4.99371 97.8941C3.76797 92.4158 3.09989 86.7259 3.09989 80.878C3.09989 77.6883 3.3151 74.5519 3.68843 71.4633ZM18.0399 59.5138C18.0829 59.5531 18.1203 59.5952 18.1643 59.6336C18.4188 59.859 18.6771 60.0733 18.9381 60.2773C18.2289 60.6113 17.5299 60.9903 16.7945 61.2373C15.0289 61.8296 13.0714 62.1823 11.2057 62.1009C9.71233 62.0364 6.80425 61.6593 9.59912 59.1573C10.256 58.5688 11.9598 58.3114 12.7084 58.3068C14.5049 58.2955 16.2789 59.133 18.0399 59.5138ZM35.422 75.4137C31.5932 75.933 27.7859 76.6974 23.8963 77.0193C16.9105 77.5985 12.0749 75.0226 6.76495 71.5709C11.6707 70.8757 16.2378 69.2541 21.3765 70.173C26.3843 71.0675 30.6921 73.8595 35.422 75.4137ZM80.9764 99.1676C78.2368 98.8092 75.382 98.9917 72.589 98.7521C67.3866 98.3068 63.4755 96.9023 59.6317 94.507C61.5517 94.8317 63.4989 94.9561 65.7763 94.856C67.8086 94.7662 69.9607 94.638 71.9958 94.7428C75.3689 94.9178 77.9186 96.441 80.3486 98.4125C80.5535 98.6689 80.7668 98.9159 80.9764 99.1676ZM68.4898 77.6219C69.5078 80.1276 70.5951 82.5931 71.8639 84.951C72.1025 85.3945 72.3448 85.838 72.5862 86.2815C70.7429 85.0333 68.7948 83.9133 66.8103 82.8757C60.2165 79.4314 53.3964 76.0434 45.9184 75.1171C43.1853 74.7783 40.5074 74.8588 37.8491 75.1245C33.778 71.6139 27.7859 69.3243 22.5433 68.587C16.1695 67.6906 10.5825 70.0841 4.33873 70.1383C4.13007 70.1402 3.9654 70.2048 3.83627 70.3021C4.90388 62.4686 7.13454 55.0076 10.3589 48.0986C11.9729 51.7374 13.9042 55.235 16.6392 58.143C14.4937 57.5395 12.4745 56.8939 10.154 57.8352C8.88894 58.347 6.70694 59.8057 7.24589 61.4572C7.96917 63.6728 12.3631 63.5896 14.0165 63.4417C16.0282 63.2612 19.0158 62.885 20.7234 61.504C23.5538 63.2097 26.6743 64.0602 29.8762 64.9201C30.5031 65.3019 31.1459 65.6705 31.8149 66.0139C36.9836 68.6675 43.2704 69.7622 48.9519 70.5659C52.9865 71.1367 57.3487 71.598 61.286 72.6188C64.2418 73.3851 66.5052 75.3875 68.4898 77.6219ZM64.3148 66.8981C62.6877 66.2572 60.9997 66.0448 59.1592 66.0569C57.2177 66.0682 55.2733 66.2319 53.3271 66.1411C51.3276 66.0466 44.3296 65.1709 44.5954 61.7285C44.8443 58.4995 55.5484 61.576 57.5873 62.0719C59.5887 62.5575 61.7445 63.3098 63.3698 64.6347C63.6935 65.3842 64.007 66.1393 64.3148 66.8981ZM63.8049 52.223C63.6963 54.1505 63.293 56.1229 63.2472 58.0467C63.1396 57.8595 63.0357 57.6696 62.9272 57.4852C62.9496 57.2719 62.8935 57.0455 62.7232 56.8415C60.1688 53.7631 60.734 49.1812 60.9716 45.5451C61.0895 43.7374 61.0268 42.0869 60.9014 40.4242C63.1209 43.8731 64.0238 48.3428 63.8049 52.223ZM31.1908 60.8705C30.7838 60.005 30.3993 59.0347 30.2458 58.0803C30.0924 57.4759 30.097 56.8724 30.258 56.2679C30.5621 55.4979 30.9476 55.3631 31.4135 55.8665C33.2344 56.3699 33.4945 60.0059 33.7443 61.5086C33.9268 62.6099 34.185 63.6813 34.4582 64.7535C34.2252 64.659 33.9932 64.5617 33.763 64.4626C32.7366 63.3922 31.8215 62.2123 31.1908 60.8705ZM25.995 62.1028C23.2975 60.9725 20.7767 59.5456 18.6032 57.1652C15.6436 53.925 13.3334 50.3713 11.5079 46.391C11.4555 46.2778 11.3881 46.1964 11.3152 46.1262C12.5886 43.5877 13.9977 41.1316 15.5313 38.7606C15.8073 47.7992 19.2366 56.2745 25.995 62.1028ZM19.0616 48.9772C19.2366 46.3676 19.2862 43.5971 20.2312 41.1681C20.977 39.2527 23.392 35.9882 23.1075 40.15C22.9587 42.3423 22.3889 44.5599 21.7077 46.6427C21.2455 48.0555 20.2434 49.5012 19.7522 50.9477C19.4892 50.2946 19.2591 49.6378 19.0616 48.9772ZM95.6273 4.68244C98.0853 6.46021 100.171 7.96571 101.815 10.856C103.457 13.7407 104.385 16.5851 104.96 19.6364C103.946 17.9868 102.685 16.8022 101.411 17.692C100.29 18.4742 100.593 20.3026 100.963 21.3786C101.281 22.304 101.795 23.1058 102.432 23.8422C103.278 24.8228 104.559 25.4993 105.282 26.5463C105.405 26.726 105.565 26.8204 105.734 26.8785C105.816 29.2504 105.757 31.6616 105.61 34.0757C105.258 32.7189 104.852 31.3482 104.344 29.94C102.648 25.2336 100.529 20.6357 97.595 16.5861C98.4334 15.0375 98.6739 12.8499 98.425 11.1245C98.2434 9.86887 97.4678 6.79518 95.7003 6.8167C94.4511 6.83168 94.0731 8.90419 94.0544 9.82209C94.0263 11.2106 94.5447 12.3559 95.0621 13.503C93.2086 11.5278 91.0528 9.83706 88.7968 8.36057C87.2043 7.31823 85.551 6.30677 83.8827 5.38887C83.5711 5.21765 79.8255 3.758 79.0574 3.28268C79.6188 3.27051 80.1746 3.23963 80.7378 3.23963C85.8326 3.23963 90.8076 3.74489 95.6273 4.68244ZM115.743 71.51C113.783 72.1762 111.857 73.1166 109.874 73.6742C107.72 74.2806 105.601 74.5472 103.468 74.652C104.16 74.3208 104.841 73.9774 105.508 73.6462C109.202 71.8169 112.26 71.3229 115.743 71.51ZM103.596 61.1886C104.92 62.6492 106.379 63.9947 107.936 65.2373C103.953 65.9138 99.2746 67.9854 96.9372 68.0396C92.402 68.1454 88.2045 66.2104 84.1634 64.3858C81.041 62.9748 75.6852 59.8431 73.3338 56.2895C76.8772 57.8689 79.9565 59.7767 84.125 60.3671C90.6766 61.2953 97.421 58.6445 103.471 61.0464C103.514 61.0932 103.554 61.1409 103.596 61.1886ZM89.6885 44.8583C89.2684 44.5599 88.8502 44.2614 88.4188 43.976C84.5638 41.4347 80.1661 39.845 76.4973 37.0436C72.4281 33.9381 69.0568 30.1412 67.2042 25.3206C66.2947 22.9542 65.7773 20.5533 65.0989 18.2469C69.519 22.5837 75.6403 25.3271 80.2326 29.6883C84.547 33.7837 86.5007 39.8946 89.6885 44.8583ZM97.2077 43.4333C96.8296 41.1147 96.489 38.8822 95.8032 36.6347C95.7854 36.5767 95.7611 36.5075 95.7349 36.4326C96.4142 37.7659 97.1038 39.0983 97.6848 40.4719C99.1576 43.9535 99.5375 47.1966 99.7667 50.9477C99.7929 51.3622 99.8079 51.8319 99.8266 52.3278C98.5251 49.5573 97.7223 46.5968 97.2077 43.4333ZM105.57 24.1725C105.576 24.2511 105.58 24.3306 105.586 24.4092C105.052 23.976 104.49 23.5718 103.966 23.0983C103.37 22.5585 102.818 22.0148 102.416 21.3075C102.23 20.98 101.384 19.2555 101.869 18.8888C102.877 18.1243 104.821 22.3012 105.57 24.1725ZM106.768 19.6541C106.758 18.3517 106.852 17.052 106.98 15.7486C107.052 15.016 107.08 14.0757 107.581 13.4759C107.836 13.1699 109.365 12.4083 109.677 12.6787C109.871 12.8452 109.487 14.1786 109.426 14.4059C109.038 15.8282 108.267 17.2523 107.542 18.5276C107.331 18.8981 107.043 19.2714 106.768 19.6541ZM96.9064 13.1886C96.8558 13.5414 96.7651 13.911 96.6771 14.2852C96.4853 13.8801 96.2738 13.4815 96.0755 13.0689C95.5936 12.0668 95.2268 11.1695 95.0182 10.0813C94.9658 9.80993 94.8001 9.43846 94.8189 9.17086C94.8731 8.36618 95.98 7.94325 96.4591 8.63565C97.2067 9.71355 97.0851 11.9479 96.9064 13.1886ZM98.3838 20.6057C98.4278 20.645 98.4746 20.6609 98.5204 20.6881C98.6196 20.8817 98.7178 21.0764 98.8142 21.271C97.6877 21.5096 96.6537 21.6144 95.4364 21.5217C94.1863 21.4263 91.326 21.4909 90.5746 20.3774C89.4069 18.6474 92.6705 18.9178 93.6811 19.0357C95.2184 19.2153 97.1814 19.525 98.3838 20.6057ZM92.6696 13.0651C90.9657 13.3683 89.3386 13.9587 87.587 14.1121C85.3629 14.3068 81.8466 14.5865 79.8901 13.459C77.5818 12.1285 80.3767 11.3613 81.7718 11.0759C83.2941 10.7652 84.7968 10.6558 86.3276 10.8663C88.2429 11.1302 90.9283 11.9133 92.6696 13.0651ZM57.9063 29.0567C57.1765 28.064 56.5178 27.0684 55.9133 26.0654C57.6275 23.5203 62.0589 14.6492 56.9201 13.2092C54.551 12.5458 53.1587 15.4642 52.7704 17.3215C52.6722 17.7931 52.6188 18.2796 52.5851 18.7709C51.6279 15.7889 51.06 12.6488 50.7989 9.23074C59.337 5.65834 68.6526 3.58583 78.4174 3.29858C78.422 3.34256 78.4267 3.38653 78.4304 3.43051C78.4426 3.56244 78.5072 3.6373 78.6251 3.68689C83.2614 5.63402 87.5121 7.99752 91.1089 11.1311C88.9082 10.3264 86.3659 9.98489 84.2813 9.86606C82.4941 9.76595 76.4318 9.74349 76.3233 12.6235C76.2091 15.6476 81.9533 15.7178 83.7451 15.8899C86.7711 16.18 91.1239 16.0986 93.7999 14.463C93.9571 14.3667 94.0507 14.2469 94.1152 14.1215C95.1894 15.3416 96.1803 16.6619 97.0767 18.0953C95.8584 17.6452 94.5157 17.4899 93.1927 17.4141C91.7536 17.3318 88.8474 17.3178 88.4562 19.1769C87.9819 21.4394 91.2408 22.2272 92.7941 22.4986C95.0677 22.8972 97.1684 22.8551 99.3756 22.419C101.981 28.0677 103.502 34.2366 104.237 40.3512C105.06 47.2013 104.46 53.867 106.758 60.544C106.789 60.6319 106.825 60.7124 106.855 60.7994C105.222 59.3051 103.656 57.7276 102.064 56.1051C101.501 53.6462 101.735 49.9306 101.618 48.4757C101.406 45.8202 100.862 43.3238 99.8453 40.8621C98.5344 37.692 96.475 32.3016 93.6071 30.274C93.2011 29.9868 92.7604 30.4593 92.839 30.8644C93.3807 33.6621 94.38 36.2923 94.6336 39.1816C94.8694 41.8651 94.9302 44.6806 95.4607 47.3323C95.6731 48.3971 95.9791 49.4254 96.3581 50.4237C96.1719 50.2478 95.9847 50.0757 95.7976 49.9026C95.7892 49.8829 95.7863 49.8642 95.7751 49.8445C94.4334 47.7309 92.7576 45.8277 91.5178 43.6579C90.5933 42.0392 90.1143 40.2071 89.2675 38.5538C87.6609 35.4165 85.7007 32.2764 83.4064 29.6088C77.651 22.9121 68.0959 20.107 62.8963 13.0062C62.7185 12.7199 62.5286 12.4382 62.3265 12.1594C62.145 11.8806 61.9541 11.6111 61.7857 11.3182C61.7024 11.1741 61.5733 11.0918 61.4329 11.06C61.3393 10.9561 61.2542 10.8495 61.1559 10.7475C60.5899 10.1552 59.6533 10.9103 60.0406 11.6083C63.3286 17.5414 62.8383 24.7975 66.5913 30.5828C68.8201 34.0176 71.9106 36.849 75.3483 39.0095C79.6861 41.736 84.5217 43.3875 88.7968 46.2319C89.9356 46.9898 90.9844 47.8216 91.9978 48.6852C85.4022 45.8062 77.8588 44.4392 71.658 41.0502C66.4407 38.1973 61.4095 33.8212 57.9063 29.0567ZM55.0647 24.1295C54.5014 22.5613 54.2207 20.8387 54.1618 19.2134C54.1253 18.2048 53.9849 16.3054 54.7765 15.526C57.2289 14.9159 58.1618 15.6672 57.5751 17.7772C57.5002 18.0775 57.4104 18.3732 57.3038 18.6642C56.936 20.136 56.1744 21.5414 55.6036 22.9468C55.4717 23.2714 55.2556 23.6888 55.0647 24.1295ZM40.4681 14.4874C43.597 12.5851 46.8737 10.9037 50.2731 9.45249C49.8801 15.4932 51.3631 20.7517 54.0888 26.0233C54.1112 26.0663 54.129 26.114 54.1515 26.1571C54.1571 26.1692 54.1674 26.1748 54.1739 26.1861C54.3554 26.5332 54.5239 26.8794 54.7157 27.2275C55.2574 28.2081 55.8684 29.2073 56.5356 30.2048C53.8492 28.6983 51.0226 27.365 48.3297 26.0523C43.3752 23.6364 41.5862 19.4474 40.4681 14.4874ZM43.4557 25.5666C41.9951 25.9493 40.5401 26.3152 39.0009 26.3975C38.1139 26.4452 34.8185 26.624 34.3413 25.3767C33.8014 23.9629 38.6126 23.7711 39.699 23.9638C41.0005 24.195 42.0653 24.7713 43.1965 25.3065C43.2826 25.3935 43.3678 25.4834 43.4557 25.5666ZM124.257 66.8962C124.178 67.9021 124.151 68.7395 124.2 69.4684C123.321 68.4738 122.498 67.3762 121.839 66.2291C119.752 62.595 118.434 58.5847 117.509 54.5173C115.818 47.0955 115.757 38.9833 113.333 31.7992C114.861 33.7341 116.53 35.584 117.966 37.46C121.374 41.9147 124.205 46.6324 125.284 52.224C126.251 57.2438 124.645 61.9437 124.257 66.8962ZM151.721 73.7107C148.964 73.0689 146.422 72.1444 144.152 70.0878C140.981 67.2144 138.859 63.4455 137.315 59.4998C136.169 56.5711 135.916 53.5957 135.275 50.5547C135.15 49.9634 135.04 49.2916 134.856 48.6581C135.009 48.7797 135.161 48.9014 135.307 49.024C140.319 53.2364 145.215 58.8766 147.409 65.1016C148.734 68.8612 149.404 71.5297 151.721 73.7107ZM142.785 77.2962C143.128 77.315 143.486 77.3318 143.853 77.3477C139.904 79.3341 136.281 82.3741 132.535 84.3278C128.535 86.4144 123.702 87.6158 119.217 87.9676C115.938 88.224 109.934 88.5047 106.324 86.8729C111.204 86.6651 115.951 85.7472 120.612 84.1435C126.496 82.1196 131.4 77.3112 137.808 76.8481C139.471 77.0464 141.137 77.2064 142.785 77.2962ZM157.986 73.0848C157.043 73.5994 156.013 73.9999 154.925 74.3058C152.405 72.0705 151.511 70.0045 150.406 66.681C149.548 64.0995 148.808 61.7454 147.242 59.5072C143.428 54.056 138.785 50.259 133.649 46.1589C133.212 45.8099 132.665 46.3395 133.031 46.7765C133.216 46.9973 133.369 47.2406 133.509 47.4932C133.497 47.4979 133.484 47.5026 133.474 47.4923C133.496 47.5138 133.52 47.5344 133.543 47.5559C134.991 50.2562 134.137 54.5697 134.584 57.4244C135.069 60.5103 136.153 63.3482 137.724 66.0579C140.611 71.0394 144.197 73.6499 148.846 75.162C146.024 75.2565 143.193 75.03 140.77 74.7531C136.248 74.2357 131.821 73.3973 127.481 72.0387C125.575 68.834 127.512 63.8394 127.974 60.3914C128.66 55.2537 127.766 50.435 125.477 45.7819C121.988 38.6857 116.212 31.4268 110.567 25.9128C110.389 25.6284 110.221 25.3402 110.028 25.0604C109.49 24.281 108.224 24.9903 108.741 25.8127C112.094 31.1573 112.396 36.573 112.957 42.7288C113.454 48.165 114.216 53.6939 115.73 58.9486C116.634 62.0841 118.021 65.504 120.004 68.0649C120.642 68.8892 121.286 69.5376 121.946 70.0953C119.138 68.9968 116.389 67.7112 113.845 66.1496C112.031 64.7957 110.585 63.0899 109.705 60.6899C108.396 57.1222 107.742 53.2055 107.558 49.4319C107.369 45.5592 107.124 42.0223 106.544 38.5005C107.139 32.8396 107.533 27.1507 106.859 21.5152C109.153 19.525 113.561 13.1643 110.253 11.0665C108.522 9.96805 106.931 11.6972 106.177 13.1157C105.874 13.6845 105.651 14.3189 105.489 14.987C104.327 11.3903 102.411 7.97039 99.6133 5.56197C130.926 13.3851 154.709 40.2118 157.986 73.0848ZM80.7378 0.877991C36.5551 0.877991 0.737305 36.6946 0.737305 80.878C0.737305 91.2546 2.73498 101.16 6.33079 110.258C6.32611 110.402 6.38038 110.545 6.48518 110.649C8.49408 115.654 10.9877 120.41 13.9191 124.856C13.8901 124.862 13.863 124.872 13.834 124.878C13.7358 124.9 13.7769 125.055 13.8761 125.031C13.9201 125.02 13.9622 125.002 14.0062 124.991C28.3277 146.612 52.8621 160.878 80.7378 160.878C124.922 160.878 160.738 125.06 160.738 80.878C160.738 36.6946 124.922 0.877991 80.7378 0.877991Z" fill="url(#paint1_linear_1049_67330)"/>
</g>
</g>
<defs>
<linearGradient id="paint0_linear_1049_67330" x1="70" y1="-14" x2="70" y2="146" gradientUnits="userSpaceOnUse">
<stop stop-color="white"/>
<stop offset="1" stop-color="white" stop-opacity="0"/>
</linearGradient>
<linearGradient id="paint1_linear_1049_67330" x1="16.5518" y1="32.3237" x2="93.333" y2="109.106" gradientUnits="userSpaceOnUse">
<stop stop-color="#559D3E"/>
<stop offset="1" stop-color="#DE64D2"/>
</linearGradient>
<clipPath id="clip0_1049_67330">
<rect width="160" height="146" fill="white"/>
</clipPath>
</defs>
</svg>
