<svg width="160" height="146" viewBox="0 0 160 146" fill="none" xmlns="http://www.w3.org/2000/svg">
<g clip-path="url(#clip0_1049_55681)">
<mask id="mask0_1049_55681" style="mask-type:alpha" maskUnits="userSpaceOnUse" x="-20" y="-14" width="180" height="160">
<rect x="-20" y="-14" width="180" height="160" fill="url(#paint0_linear_1049_55681)"/>
</mask>
<g mask="url(#mask0_1049_55681)">
<path d="M145.638 108.613C145.833 109.115 146.029 109.617 146.229 110.115C146.305 110.304 145.999 110.385 145.925 110.199C145.728 109.706 145.526 109.213 145.323 108.72C144.844 107.557 144.364 106.392 143.963 105.207C143.918 105.075 144.13 104.987 144.187 105.112C144.719 106.254 145.179 107.435 145.638 108.613Z" fill="url(#paint1_linear_1049_55681)"/>
<path d="M103.493 115.338C103.951 113.643 104.419 111.915 104.39 110.203C104.384 109.843 103.82 109.625 103.655 110.004C102.968 111.587 102.731 113.362 102.497 115.108C102.399 115.837 102.303 116.561 102.174 117.263C102.081 117.768 102.841 117.989 102.953 117.477C103.105 116.773 103.299 116.059 103.493 115.338Z" fill="url(#paint2_linear_1049_55681)"/>
<path d="M105.965 103.552C105.772 104.298 105.578 105.045 105.386 105.791C105.201 106.517 104.109 106.208 104.27 105.484C104.424 104.79 104.577 104.096 104.73 103.402C105.053 101.942 105.375 100.481 105.708 99.0227C105.784 98.686 105.856 98.3405 105.927 97.9914C106.246 96.4455 106.579 94.8262 107.477 93.5678C107.586 93.4171 107.893 93.3947 107.927 93.6267C108.152 95.1265 107.763 96.5918 107.376 98.0509C107.298 98.3442 107.22 98.6371 107.148 98.9301C106.765 100.473 106.365 102.013 105.965 103.552Z" fill="url(#paint3_linear_1049_55681)"/>
<path d="M49.73 127.208C49.8112 127.118 49.9559 127.234 49.8957 127.335C46.9557 132.16 43.5756 136.737 40.2156 141.288C39.7403 141.931 39.2652 142.575 38.792 143.218C38.1969 144.026 36.8362 143.22 37.4424 142.431C37.9444 141.778 38.4456 141.123 38.9472 140.468L39.0167 140.377C42.4551 135.885 45.9111 131.37 49.73 127.208Z" fill="url(#paint4_linear_1049_55681)"/>
<path d="M52.8075 123.335C53.3456 122.648 53.9006 121.969 54.4563 121.289C55.5632 119.936 56.6729 118.578 57.6567 117.147C57.7349 117.033 57.5548 116.892 57.4632 116.998C56.3258 118.309 55.2929 119.725 54.2626 121.137C53.7448 121.847 53.2276 122.556 52.6981 123.25C52.6495 123.313 52.7581 123.397 52.8075 123.335Z" fill="url(#paint5_linear_1049_55681)"/>
<path d="M59.9519 132.725C59.7524 133.034 59.5528 133.344 59.3526 133.653C59.2848 133.758 59.1156 133.658 59.1862 133.555L60.165 132.135C60.2152 132.061 60.3355 132.13 60.2856 132.207C60.1744 132.379 60.0632 132.552 59.9519 132.725Z" fill="url(#paint6_linear_1049_55681)"/>
<path d="M5.09816 74.8605C12.9272 72.4181 20.9313 69.9211 28.8911 67.9996C29.2047 67.9236 29.3111 68.3614 29.0219 68.4725C21.3385 71.4303 13.2937 73.9396 5.42238 76.3947L4.78467 76.5937C3.82164 76.8933 3.41369 75.3868 4.36904 75.0879L5.09816 74.8605Z" fill="url(#paint7_linear_1049_55681)"/>
<path d="M49.1652 60.7584C46.8828 61.5709 44.6217 62.3757 42.3987 63.0858C41.8634 63.2557 42.09 64.0994 42.6318 63.9311C44.8638 63.2341 47.1812 62.5926 49.5209 61.9449C54.8647 60.4655 60.3246 58.9539 65.1487 56.676C65.4845 56.5165 65.2299 56.0595 64.9121 56.1145C59.6788 57.016 54.3659 58.9072 49.1652 60.7584Z" fill="url(#paint8_linear_1049_55681)"/>
<path d="M29.6638 50.7548C30.7538 50.625 31.8461 50.4971 32.9399 50.3689C40.5675 49.4756 48.2684 48.5737 55.7535 46.9584C55.9644 46.9141 55.9208 46.5658 55.7023 46.5799C48.0559 47.0489 40.394 48.2633 32.8049 49.4662C31.7213 49.6379 30.6387 49.8095 29.5583 49.9786C29.1249 50.0471 29.2211 50.8069 29.6638 50.7548Z" fill="url(#paint9_linear_1049_55681)"/>
<path d="M40.4073 88.1676C39.7261 88.5701 39.0449 88.9726 38.3636 89.3755C37.9049 89.6467 37.4967 88.9411 37.948 88.6636C38.6084 88.257 39.2685 87.8502 39.9285 87.4436L39.9333 87.4406C46.2401 83.5546 52.5352 79.6757 58.9654 75.9925C59.4182 75.7329 59.8096 76.4126 59.3713 76.6895C53.1271 80.652 46.7731 84.4063 40.4073 88.1676Z" fill="url(#paint10_linear_1049_55681)"/>
<path d="M46.0116 99.9452C43.936 100.84 42.1608 102.424 40.4294 103.969C39.7776 104.55 39.1313 105.127 38.4782 105.659C38.1261 105.945 38.5992 106.566 38.968 106.292C39.6419 105.791 40.3548 105.309 41.0742 104.822C43.0175 103.506 45.0083 102.158 46.4084 100.341C46.6081 100.082 46.2373 99.8476 46.0116 99.9452Z" fill="url(#paint11_linear_1049_55681)"/>
<path d="M24.566 102.916C21.0882 104.816 17.7379 107.004 14.4043 109.182L14.402 109.183C13.3523 109.869 12.3044 110.553 11.2546 111.227C10.7995 111.52 11.2252 112.252 11.6805 111.955C12.7108 111.28 13.7495 110.61 14.7898 109.939C18.1571 107.769 21.5416 105.587 24.7164 103.172C24.8645 103.059 24.7405 102.821 24.566 102.916Z" fill="url(#paint12_linear_1049_55681)"/>
<path d="M36.8688 95.5156C36.6367 95.6746 36.4039 95.8341 36.1759 95.9957C36.0103 96.1128 35.849 95.8386 36.0159 95.723C36.2514 95.5608 36.4854 95.3935 36.7198 95.226C37.277 94.8277 37.8377 94.427 38.4266 94.0884C38.536 94.0264 38.6664 94.1832 38.5651 94.2678C38.0317 94.719 37.4489 95.1182 36.8688 95.5156Z" fill="url(#paint13_linear_1049_55681)"/>
<path d="M115.129 97.4489C114.51 101.404 114.353 105.464 114.196 109.495C114.14 110.929 114.085 112.359 114.008 113.78C113.971 114.469 115.039 114.467 115.078 113.781C115.158 112.356 115.26 110.924 115.362 109.488C115.647 105.504 115.933 101.491 115.749 97.5313C115.734 97.1972 115.188 97.0785 115.129 97.4489Z" fill="url(#paint14_linear_1049_55681)"/>
<path d="M101.428 67.5561L100.236 66.3594C99.829 65.9514 99.1919 66.5867 99.6035 66.9919L100.031 67.4147C100.11 67.4927 100.189 67.5708 100.268 67.6489C100.339 67.7191 100.41 67.7893 100.481 67.8595C100.589 67.9661 100.697 68.0727 100.805 68.1793C100.881 68.254 100.956 68.3341 101.033 68.4153C101.313 68.7123 101.609 69.0262 101.981 69.1599C102.224 69.2469 102.501 68.9718 102.412 68.7276C102.278 68.357 101.965 68.0644 101.668 67.7861C101.586 67.7088 101.504 67.6326 101.428 67.5561Z" fill="url(#paint15_linear_1049_55681)"/>
<path d="M143.467 79.7038C130.644 82.8861 117.03 79.6945 106.323 72.3813C105.925 72.1099 106.288 71.469 106.702 71.7301C111.811 74.9413 117.711 77.2533 123.622 78.4762C130.497 79.8975 136.273 79.5654 143.117 78.4351C143.936 78.3003 144.303 79.4961 143.467 79.7038Z" fill="url(#paint16_linear_1049_55681)"/>
<path d="M149.053 79.3736C149.51 79.2445 149.967 79.1151 150.424 78.9858C150.881 78.8564 151.338 78.7271 151.795 78.5979C151.877 78.5749 151.959 78.5523 152.04 78.5299C152.735 78.338 153.411 78.1514 153.991 77.7025C154.326 77.4433 154.008 76.9867 153.68 76.9539C153.005 76.8867 152.341 77.0941 151.693 77.2964C151.557 77.339 151.421 77.3813 151.286 77.4208C150.87 77.543 150.453 77.665 150.037 77.787L149.97 77.8067C149.554 77.9284 149.138 78.0502 148.722 78.1722C147.954 78.3977 148.278 79.5926 149.053 79.3736Z" fill="url(#paint17_linear_1049_55681)"/>
<path d="M106.92 55.6134C107.054 55.7675 106.852 55.969 106.698 55.8363C106.363 55.5499 106.051 55.2376 105.739 54.9256C105.652 54.8389 105.565 54.7522 105.478 54.6661C105.302 54.4918 105.577 54.2163 105.751 54.393C105.841 54.4848 105.933 54.576 106.024 54.6673C106.331 54.9751 106.638 55.2828 106.92 55.6134Z" fill="url(#paint18_linear_1049_55681)"/>
<path fill-rule="evenodd" clip-rule="evenodd" d="M81.2476 -0.33728C37.0642 -0.33728 1.24756 35.4793 1.24756 79.6627C1.24756 123.845 37.0642 159.663 81.2476 159.663C125.43 159.663 161.248 123.845 161.248 79.6627C161.248 35.4793 125.43 -0.33728 81.2476 -0.33728ZM130.719 139.495C129.501 122.346 128.001 105.208 126.489 88.0828C127.352 88.139 128.217 88.1755 129.083 88.1933L129.287 89.6092L129.288 89.6148C129.513 91.1834 129.739 92.7518 129.972 94.3191C130.064 94.9404 131.017 94.6803 130.92 94.058C130.69 92.604 130.454 91.151 130.218 89.6978L129.977 88.211C131.549 88.2194 133.121 88.1633 134.69 88.0435C134.908 88.9308 135.179 89.8081 135.448 90.6825L135.449 90.6851C135.557 91.0368 135.666 91.3891 135.77 91.7404C136.015 92.561 137.302 92.212 137.056 91.3867C136.949 91.0283 136.846 90.6678 136.742 90.3068C136.514 89.5083 136.284 88.7073 136.016 87.9219C136.609 87.863 137.203 87.8003 137.794 87.7226C138.732 90.5585 139.648 93.4016 140.565 96.2446L140.566 96.2473L140.787 96.9343C140.929 97.3713 141.608 97.1916 141.481 96.7425L141.234 95.8726L141.229 95.8557C140.446 93.0925 139.663 90.3288 138.901 87.5598C139.372 87.4878 139.841 87.4157 140.31 87.3324C142.063 92.6467 143.948 97.9088 145.833 103.171L145.835 103.18C147.294 107.253 148.753 111.328 150.151 115.426C149.76 116.177 149.36 116.922 148.945 117.659L148.93 117.613C148.92 117.581 148.91 117.55 148.9 117.519C148.863 117.402 148.828 117.283 148.793 117.164C148.678 116.776 148.562 116.382 148.35 116.042C148.228 115.842 147.882 115.913 147.893 116.165C147.91 116.574 148.036 116.97 148.161 117.362C148.196 117.473 148.232 117.584 148.264 117.695C148.336 117.941 148.409 118.188 148.482 118.435L148.488 118.455C147.451 120.248 146.351 122 145.178 123.699C144.959 122.861 144.74 122.022 144.521 121.183L144.519 121.178C142.905 114.993 141.287 108.789 139.251 102.735C139.157 102.455 138.754 102.568 138.81 102.855C140.064 109.139 141.753 115.342 143.437 121.528C143.702 122.5 143.967 123.472 144.23 124.443C144.267 124.582 144.347 124.673 144.44 124.737C142.487 127.469 140.368 130.072 138.086 132.524C136.73 124.634 135.103 116.742 133.391 108.924C133.33 108.64 132.931 108.77 132.969 109.04C134.089 117.295 135.307 125.583 136.818 133.775C136.82 133.788 136.824 133.797 136.829 133.806C136.833 133.814 136.837 133.822 136.84 133.832C134.899 135.823 132.863 137.721 130.719 139.495ZM75.7892 157.069L75.8002 157.049C75.8248 157.005 75.8496 156.96 75.8693 156.91C80.7114 144.531 85.5302 132.146 90.2937 119.736C91.7984 115.816 93.2328 111.831 94.6715 107.833L94.6725 107.83L94.6735 107.828C97.778 99.202 100.903 90.5197 104.797 82.3238C104.925 82.3867 105.053 82.4465 105.182 82.5063L105.291 82.5569C105.339 82.5791 105.386 82.6015 105.434 82.6241C102.948 89.8515 100.593 97.127 98.2394 104.4L98.2345 104.416L98.2296 104.431C97.525 106.608 96.8206 108.785 96.1126 110.96C95.8778 111.682 97.0052 111.986 97.2457 111.273C97.9848 109.085 98.7278 106.898 99.4708 104.712C101.904 97.5499 104.338 90.3858 106.643 83.1827C107.542 83.586 108.449 83.9706 109.368 84.3261C109.264 84.8191 109.179 85.3222 109.096 85.8165C109.02 86.2663 108.945 86.7107 108.858 87.1313C108.729 87.7572 109.682 88.0276 109.823 87.397L110.116 86.0827C110.2 85.7084 110.283 85.3342 110.367 84.9605C110.385 84.8772 110.407 84.7939 110.427 84.7116L110.639 84.7885C111.021 84.927 111.403 85.066 111.789 85.1953L111.635 86.0768C107.642 108.945 103.649 131.815 99.9086 154.724C99.8932 154.824 99.9046 154.913 99.916 155.001L99.9189 155.025C98.7269 155.318 97.5236 155.588 96.311 155.826C96.6184 153.88 96.9361 151.93 97.2542 149.977L97.2582 149.952L97.2585 149.95C98.4682 142.523 99.6848 135.054 100.381 127.599C100.405 127.342 99.991 127.29 99.9339 127.538C98.237 134.777 97.0237 142.221 95.8195 149.609C95.4666 151.774 95.1145 153.934 94.7512 156.083C94.7503 156.09 94.7531 156.097 94.7521 156.104C91.1816 156.731 87.5297 157.114 83.8095 157.235C84.6496 154.27 85.5121 151.295 86.3768 148.313C88.9794 139.335 91.6027 130.286 93.6976 121.256C93.7594 120.99 93.3823 120.891 93.2916 121.145C90.1774 129.888 87.4989 138.931 84.841 147.904C83.9292 150.981 83.0199 154.051 82.0962 157.098C82.0828 157.142 82.0825 157.182 82.0821 157.222C82.082 157.241 82.0818 157.259 82.0803 157.279C81.9528 157.28 81.826 157.284 81.6992 157.289C81.5492 157.294 81.3986 157.299 81.2476 157.299C79.4071 157.299 77.5882 157.213 75.7795 157.087L75.7892 157.069ZM24.7872 132.921C25.2541 133.122 25.8155 133.098 26.2936 132.659C34.0187 125.572 41.7274 118.468 49.436 111.364C63.3539 98.5384 77.2713 85.7131 91.2836 72.9858C91.3207 73.0201 91.3581 73.0537 91.3956 73.0875L91.4468 73.1336L91.4736 73.1579C90.7977 73.99 90.119 74.8215 89.4398 75.6537L89.4225 75.6749C85.2942 80.733 81.1458 85.8157 77.4703 91.1958C74.5633 95.4519 71.2505 99.4148 67.9382 103.377C65.8495 105.876 63.7609 108.374 61.7744 110.946C61.4553 111.36 62.1673 111.915 62.5051 111.509C64.5654 109.031 66.529 106.462 68.4928 103.893C71.4583 100.013 74.4245 96.1329 77.7248 92.5619C82.7054 87.1724 87.2699 81.4041 91.8243 75.6488L92.8228 74.3874C93.0066 74.5466 93.1945 74.7007 93.3822 74.8547C93.4943 74.9467 93.607 75.0392 93.7182 75.1322C86.1332 85.1592 79.7212 96.1688 73.3458 107.115L73.3436 107.119L73.3421 107.122C70.5268 111.956 67.718 116.778 64.819 121.498C64.528 121.972 65.2588 122.39 65.561 121.932C68.6109 117.301 71.7932 112.709 74.9837 108.105L74.9855 108.103C82.1514 97.7632 89.3591 87.3631 95.2003 76.328C96.3793 77.2431 97.5872 78.1114 98.8279 78.9226C94.2945 87.7452 89.9927 96.6818 85.6911 105.618C83.0537 111.097 80.4153 116.578 77.7248 122.03C77.5807 122.322 78.013 122.579 78.1645 122.286C80.9501 116.887 83.7887 111.515 86.6275 106.143L86.6295 106.139L86.6309 106.137C91.2458 97.403 95.861 88.6689 100.249 79.8171C101.135 80.3589 102.033 80.8791 102.945 81.3703C100.276 89.9706 96.7129 98.3996 93.1717 106.777C91.5507 110.612 89.9341 114.436 88.4102 118.26C83.3725 130.902 78.39 143.564 73.4328 156.239C73.3365 156.486 73.3262 156.708 73.3702 156.903C70.1252 156.576 66.9486 156.029 63.8347 155.315C63.9152 155.249 63.9872 155.16 64.0406 155.039C64.2322 154.603 64.4244 154.168 64.6168 153.732C66.727 148.95 68.8547 144.129 70.4565 139.158C70.5173 138.968 70.2338 138.853 70.1355 139.024C67.5085 143.532 65.3443 148.328 63.1978 153.086C63.024 153.472 62.8502 153.857 62.6763 154.241C62.536 154.554 62.609 154.848 62.7727 155.069C58.4845 154.022 54.3358 152.623 50.3601 150.897C50.3645 150.892 50.3691 150.887 50.3737 150.882L50.3826 150.873C50.3938 150.862 50.4049 150.851 50.4144 150.836C50.698 150.327 50.9885 149.819 51.2796 149.31L51.2981 149.278L51.3 149.275C52.2911 147.543 53.2896 145.799 54.0579 143.969C54.1739 143.691 53.7603 143.578 53.6087 143.78C52.4411 145.343 51.4595 147.066 50.4865 148.773L50.4837 148.778C50.1836 149.304 49.8844 149.83 49.5807 150.348C49.547 150.406 49.532 150.463 49.5236 150.518C40.1407 146.312 31.7514 140.301 24.7872 132.921ZM34.0452 22.0464C39.7764 23.3478 45.5833 24.6665 51.3884 25.2384C51.7907 25.2777 51.8235 24.6845 51.4791 24.5656C46.0085 22.6821 40.2287 21.4745 34.5221 20.2822C33.6434 20.0986 32.7665 19.9154 31.8927 19.7301C34.2188 17.812 36.6712 16.0445 39.2134 14.4033C43.869 15.8868 48.5601 17.2672 53.2514 18.6476C60.9103 20.9012 68.5696 23.155 76.0752 25.8578C75.9011 26.9666 75.7571 28.0782 75.6438 29.1925C73.192 28.4625 70.5624 28.0254 67.9821 27.5966C66.604 27.3675 65.2399 27.1408 63.9245 26.873C63.3753 26.7617 63.1376 27.5963 63.6915 27.7198C65.0056 28.0118 66.348 28.3611 67.7046 28.7141C70.2943 29.3879 72.9377 30.0758 75.5334 30.4042C75.4015 32.0211 75.3369 33.6379 75.3369 35.252C68.0026 34.9373 60.6175 34.9525 53.2367 34.9677C47.9117 34.9787 42.5885 34.9897 37.2887 34.8768C37.1082 34.873 37.1082 35.1518 37.2887 35.1575C42.591 35.3025 47.91 35.5725 53.2311 35.8426C60.6118 36.2172 67.9966 36.5921 75.3463 36.6339C75.3498 36.7709 75.3549 36.9078 75.36 37.0447L75.365 37.1813C66.2622 37.8299 57.1586 38.4651 48.055 39.1003L48.0501 39.1007L48.0419 39.1012C36.5701 39.9017 25.0978 40.7022 13.6274 41.5294C14.9486 39.193 16.3877 36.9343 17.9343 34.757C18.5003 34.7774 19.0723 34.8033 19.6476 34.8293C22.033 34.9374 24.4758 35.048 26.7849 34.7766C26.9729 34.7551 27.0553 34.4623 26.8335 34.4145C24.5438 33.9237 22.0805 33.805 19.6774 33.6893C19.3595 33.674 19.0421 33.6587 18.7269 33.6426C22.0906 29.0793 25.9484 24.9081 30.2113 21.1841C31.4848 21.465 32.7632 21.7553 34.0452 22.0464ZM84.7461 2.11325C83.728 3.80775 82.7812 5.54155 81.9194 7.31465C79.1582 6.30239 76.4932 4.78848 73.8766 3.30205C73.4192 3.04217 72.9632 2.78312 72.5084 2.52775C75.3781 2.20588 78.2918 2.02529 81.2476 2.02529C82.4209 2.02529 83.5849 2.06179 84.7461 2.11325ZM3.61013 79.6627C3.61013 75.2061 4.00592 70.844 4.72732 66.5923C28.5757 59.7507 52.5177 53.0971 76.6441 47.3062C76.9575 48.7116 77.328 50.103 77.7585 51.4803C77.2681 51.5991 76.7847 51.7867 76.3036 51.9735C76.0385 52.0764 75.7736 52.1792 75.5091 52.27C74.012 52.7846 72.514 53.2992 71.016 53.8138C70.1271 54.1198 70.4995 55.5289 71.408 55.2351C72.9135 54.7486 74.419 54.262 75.9236 53.7755C76.2004 53.6859 76.4901 53.6073 76.7829 53.5278C77.2857 53.3913 77.7978 53.2523 78.2703 53.0513C78.7933 54.5521 79.3903 56.0304 80.0593 57.4854C54.7924 68.2354 29.5404 79.0246 4.29318 89.8232C3.85809 86.495 3.61013 83.1088 3.61013 79.6627ZM70.332 2.80471C71.3062 3.30931 72.3072 3.80039 73.3148 4.29476C76.0479 5.63562 78.8301 7.0006 81.2597 8.72471C80.8218 9.6819 80.4008 10.6456 80.0088 11.6197C78.5517 10.7597 76.9766 10.1053 75.3966 9.44886C74.1144 8.91613 72.8289 8.38205 71.6008 7.7357C69.5046 6.63228 67.3076 5.7245 65.1156 4.81876C64.5457 4.5833 63.9754 4.34762 63.408 4.10904C65.6789 3.57383 67.9872 3.13407 70.332 2.80471ZM51.3711 10.3466C56.6883 12.7122 62.042 15.094 67.4651 17.143C68.1145 17.3881 68.557 16.3317 67.9376 16.0211C62.7985 13.436 57.4521 11.1223 52.1486 8.82711L52.1378 8.82243C51.6862 8.62697 51.2348 8.43164 50.7839 8.23629C52.8041 7.37266 54.8747 6.60728 56.9781 5.91488C56.9848 5.92092 56.9914 5.92698 56.9979 5.93302C57.0265 5.95964 57.0547 5.98587 57.0951 6.00565C59.2262 7.04155 61.3593 8.11792 63.4977 9.19697C67.967 11.4522 72.4594 13.719 77.0052 15.6524C77.4871 15.8583 77.9166 15.1977 77.43 14.9254C73.1064 12.5065 68.549 10.3344 64.0167 8.17414C62.1236 7.27185 60.2349 6.37164 58.3694 5.4564C59.6569 5.05968 60.9603 4.70038 62.2759 4.37009C62.2094 4.57874 62.2647 4.80611 62.5332 4.93149C63.2331 5.25574 63.9311 5.58846 64.6298 5.92151C66.5785 6.85034 68.5328 7.78188 70.5472 8.53944C71.8797 9.04053 73.1798 9.64499 74.4774 10.2483C76.2012 11.0498 77.9208 11.8494 79.7065 12.4019C78.7942 14.7561 78.0204 17.1542 77.3861 19.5823C76.9248 19.3427 76.4351 19.1581 75.9392 18.9712L75.9367 18.9703C75.8098 18.9224 75.6824 18.8744 75.5549 18.8253L74.482 18.4105C73.7693 18.135 73.0565 17.8594 72.3437 17.5846C71.0609 17.0887 70.536 19.1247 71.7795 19.6309L74.7615 20.8435C74.9224 20.909 75.0822 20.9768 75.2417 21.0445C75.7827 21.2742 76.3206 21.5025 76.8864 21.6304C76.6703 22.5801 76.4757 23.5317 76.3054 24.4871C68.6363 22.3439 61.1009 19.7524 53.5657 17.161C49.5083 15.7656 45.4501 14.37 41.372 13.0447C43.7411 11.6234 46.1973 10.335 48.7208 9.16915C49.6018 9.55944 50.4837 9.95178 51.3666 10.3446L51.3711 10.3466ZM8.93642 54.3123C10.6712 54.0547 12.5671 53.7733 13.9381 52.8782C14.3395 52.6152 14.3255 51.9004 13.7959 51.7872C12.194 51.4466 10.3348 51.8368 8.61505 52.2213C9.67236 49.4265 10.8915 46.7121 12.2501 44.0819C24.1713 43.229 36.0901 42.3452 48.0091 41.4614C57.1671 40.7823 66.3252 40.1033 75.4848 39.4382C75.5671 40.5694 75.6897 41.695 75.8422 42.8159C73.6005 43.0678 71.3631 43.3975 69.1304 43.7265C68.5847 43.807 68.0374 43.8876 67.4923 43.9668C66.9402 44.0473 67.0637 45.0054 67.6242 44.9493C68.0923 44.9026 68.5607 44.8566 69.0293 44.8105C71.3602 44.5814 73.6953 44.3519 76.0153 44.0426C76.092 44.5245 76.179 45.0045 76.2679 45.4835C52.6993 52.6368 28.8574 58.9619 4.99773 65.0765C5.68732 61.4498 6.63236 57.9158 7.80756 54.4875C8.1704 54.426 8.54999 54.3696 8.93642 54.3123ZM23.9142 132.005C21.2354 129.073 18.7849 125.932 16.5776 122.614L18.3239 121.373C20.2921 119.974 22.2609 118.574 24.2286 117.175C24.7349 116.815 25.2533 116.462 25.7741 116.107C27.6944 114.798 29.647 113.468 31.1404 111.711C31.3388 111.478 31.1573 111.006 30.8083 111.14C28.6446 111.968 26.7428 113.357 24.8646 114.728C24.3801 115.082 23.8972 115.434 23.4118 115.776L15.6812 121.216C12.877 116.8 10.5023 112.088 8.62533 107.128C10.2528 106.231 11.8352 105.268 13.4183 104.304C14.6187 103.574 15.8214 102.842 17.0427 102.139C18.2258 101.459 19.4449 100.842 20.6639 100.226C22.4045 99.3454 24.1447 98.4652 25.779 97.3993C26.012 97.2477 25.8108 96.9315 25.5666 97.0363C23.7731 97.8014 22.0746 98.7563 20.3754 99.7117C19.1819 100.383 17.9882 101.054 16.761 101.659C15.4923 102.286 14.2116 102.881 12.9311 103.475C11.321 104.223 9.71113 104.97 8.12569 105.781C6.56592 101.414 5.38885 96.8679 4.62815 92.1792C30.1505 81.3843 55.6672 70.5801 81.168 59.7366C81.7407 60.8314 82.3564 61.9111 83.0188 62.9712C80.8522 64.1207 78.6822 65.2639 76.5121 66.4071L76.508 66.4092C73.1643 68.1707 69.8205 69.9323 66.4883 71.717C65.561 72.2138 66.3816 73.6099 67.3117 73.1252C70.6542 71.3827 73.9842 69.6174 77.3143 67.8521C79.516 66.685 81.72 65.5167 83.9255 64.3561C83.9606 64.4086 83.9954 64.4612 84.0303 64.5138C84.1097 64.6337 84.1891 64.7536 84.2717 64.8725C79.9865 66.8926 75.8892 69.4707 71.826 72.0274C70.1191 73.1015 68.4173 74.1723 66.711 75.1958C60.8415 78.7158 55.0057 82.2845 49.1821 85.8803C48.3774 86.3771 49.1035 87.6346 49.9259 87.1528C55.831 83.6945 61.7182 80.212 67.5774 76.6779C69.2848 75.6479 71.0318 74.6442 72.7853 73.6369C76.981 71.2266 81.2135 68.7951 85.0277 65.9299C85.6555 66.7888 86.3171 67.6318 87.0104 68.4608C82.7362 71.7378 78.4516 75.0004 74.167 78.263L74.1599 78.2684L74.1575 78.2703C67.1438 83.6109 60.1303 88.9514 53.1634 94.3547C52.4476 94.9104 53.4048 96.1698 54.1411 95.6225C61.1609 90.4008 68.1322 85.1181 75.1038 79.8352C79.484 76.5159 83.8643 73.1967 88.2567 69.8924C88.3456 69.9907 88.4339 70.0892 88.5223 70.1878C88.761 70.4542 89.001 70.7219 89.2513 70.9825C89.3495 71.0857 89.451 71.1852 89.5527 71.2849C89.6206 71.3514 89.6886 71.4181 89.7556 71.4859C75.7583 84.273 61.672 96.956 47.5853 109.639L47.5819 109.642L47.5668 109.656C39.8013 116.648 32.0356 123.64 24.2848 130.649C23.8263 131.064 23.7589 131.566 23.9142 132.005ZM121.607 145.786C121.612 145.853 121.632 145.909 121.655 145.964C118.949 147.617 116.124 149.091 113.213 150.41C113.597 143.302 113.737 136.217 113.878 129.109V129.105C113.904 127.823 113.929 126.54 113.956 125.257C113.962 124.994 113.575 125.004 113.552 125.257C113.426 126.633 113.299 128.007 113.172 129.38L113.169 129.406C112.501 136.619 111.835 143.813 111.429 151.057C111.427 151.092 111.433 151.121 111.44 151.15C111.442 151.16 111.444 151.17 111.446 151.179L111.448 151.19C111.449 151.195 111.45 151.2 111.45 151.205C108.367 152.509 105.175 153.599 101.903 154.5C106.05 131.952 109.954 109.358 113.858 86.7665L114.009 85.8924C114.371 85.9989 114.737 86.0958 115.102 86.1926L115.335 86.2545C115.343 86.4548 115.359 86.6531 115.383 86.844C115.484 87.6529 115.432 88.4867 115.38 89.3171C115.364 89.5885 115.347 89.8595 115.335 90.1292C115.299 90.9619 116.612 90.9656 116.633 90.1292C116.639 89.8771 116.642 89.6266 116.645 89.3773C116.654 88.5244 116.663 87.6843 116.815 86.844C116.819 86.821 116.823 86.7978 116.826 86.7746L116.829 86.7528L116.831 86.731L116.836 86.6958L116.838 86.6788C116.84 86.664 116.842 86.6492 116.844 86.6344C117.588 86.8113 118.335 86.9741 119.083 87.121C119.604 99.4269 120.032 111.732 120.278 124.054C120.282 124.245 120.58 124.246 120.577 124.054C120.375 111.82 120.354 99.5972 120.423 87.3699C121.602 87.572 122.786 87.7348 123.975 87.8639C125.459 105.596 126.953 123.342 128.758 141.043C126.787 142.572 124.74 144.006 122.625 145.342C122.217 139.992 121.763 134.629 121.166 129.297C121.145 129.101 120.845 129.09 120.85 129.297C120.985 134.792 121.274 140.3 121.607 145.786ZM154.185 53.0026C153.975 53.0475 153.764 53.1373 153.566 53.2945C141.257 63.0929 116.716 58.2171 109.508 43.8283C104.571 33.9748 112.606 21.695 124.085 27.4382C128.308 29.5518 133.174 35.5954 128.689 40.1446C124.405 44.4899 120.365 39.6421 118.452 35.8424C118.029 35.0012 116.753 35.2594 116.511 36.0959C113.554 46.3649 131.489 48.6021 133.374 37.8943C135.534 25.6024 117.416 18.9142 109.284 26.597C99.394 35.9406 107.205 49.9121 116.81 55.5954C128.489 62.5062 143.98 64.4992 155.076 55.6346C155.519 56.997 155.932 58.3724 156.301 59.7675C144.582 67.8021 129.686 70.0019 117.075 62.2779C116.854 62.1413 116.652 62.4885 116.871 62.626C129.264 70.3575 145.019 71.0611 156.745 61.5808C157.731 65.7118 158.385 69.9682 158.682 74.3266C158.377 74.4529 158.07 74.5792 157.765 74.7046C156.929 75.0508 157.408 76.2344 158.252 75.8592C158.427 75.7815 158.604 75.703 158.78 75.6244C158.798 75.9633 158.804 76.3049 158.81 76.6462C158.814 76.8447 158.817 77.0434 158.823 77.2412C158.789 77.259 158.755 77.2711 158.72 77.2927C137.42 90.7074 108.685 87.2108 91.2359 68.997C73.663 50.6569 74.973 22.8599 87.8974 2.32752C89.3814 2.45383 90.8551 2.61477 92.3138 2.82342L92.3073 2.8309C92.3031 2.83548 92.299 2.83987 92.2948 2.84425C92.2859 2.85367 92.2771 2.86301 92.2689 2.87395C79.7711 20.1287 79.4642 45.5182 94.1982 61.8831C94.6324 62.3649 95.4801 61.7277 95.1068 61.1813C89.0221 52.2541 85.0904 43.7423 85.1924 32.691C85.2869 22.3762 88.2876 12.4768 94.2076 4.00705C94.42 3.70389 94.4518 3.40728 94.3685 3.15184C96.3091 3.48213 98.2272 3.87418 100.115 4.34576C96.2015 10.1301 93.0988 18.9778 94.4396 25.9327C94.5042 26.2686 94.9571 26.146 94.9907 25.8578C95.1256 24.69 95.2002 23.524 95.2745 22.3618C95.4399 19.775 95.6041 17.2063 96.4298 14.6756C97.6013 11.0798 99.6934 7.89009 101.902 4.85477C101.905 4.85025 101.907 4.84546 101.908 4.84069C101.91 4.83657 101.911 4.83247 101.914 4.82857C126.143 11.5055 145.633 29.6117 154.185 53.0026ZM154.76 104.623C154.644 104.385 154.528 104.146 154.411 103.909C154.086 103.242 153.071 103.827 153.411 104.493C153.51 104.685 153.608 104.877 153.706 105.069C153.805 105.262 153.904 105.455 154.003 105.647C154.018 105.677 154.033 105.707 154.048 105.737C154.115 105.869 154.18 105.997 154.255 106.114C153.351 108.607 152.329 111.042 151.184 113.409C150.024 109.873 148.903 106.328 147.782 102.782L147.782 102.779C146.102 97.466 144.423 92.1527 142.613 86.8758C143.357 86.7121 144.098 86.5343 144.836 86.3397C144.827 86.4828 144.842 86.6307 144.911 86.7851C146.531 90.4529 148.263 93.9598 150.29 97.4218C150.404 97.6164 150.726 97.4882 150.66 97.2665C149.492 93.3526 148.076 89.6342 146.474 85.8803C147.209 85.6623 147.94 85.4283 148.667 85.1794C148.668 85.3076 148.695 85.4405 148.762 85.5771C149.078 86.2183 149.384 86.8732 149.692 87.5312C150.598 89.4689 151.517 91.4349 152.744 93.1542C153.933 94.8187 154.789 96.4309 155.315 98.3855C155.613 99.4887 155.662 99.6618 156.116 100.206C155.708 101.698 155.254 103.169 154.76 104.623ZM156.636 98.219C156.546 98.0973 156.444 97.9626 156.32 97.7998C154.973 96.0136 154.468 94.4893 153.809 92.4983C153.759 92.347 153.708 92.193 153.656 92.0361C153.031 90.1648 152.131 88.3736 151.239 86.5972C150.918 85.9588 150.598 85.3212 150.292 84.6835C150.284 84.6665 150.273 84.6549 150.262 84.6432C150.254 84.6337 150.245 84.6241 150.238 84.6115C153.203 83.4971 156.089 82.1217 158.864 80.4786C158.801 86.5876 158.033 92.5254 156.636 98.219Z" fill="url(#paint19_linear_1049_55681)"/>
</g>
</g>
<defs>
<linearGradient id="paint0_linear_1049_55681" x1="70" y1="-14" x2="70" y2="146" gradientUnits="userSpaceOnUse">
<stop stop-color="white"/>
<stop offset="1" stop-color="white" stop-opacity="0"/>
</linearGradient>
<linearGradient id="paint1_linear_1049_55681" x1="17.0619" y1="31.1084" x2="93.8431" y2="107.89" gradientUnits="userSpaceOnUse">
<stop stop-color="#EA5C3D"/>
<stop offset="1" stop-color="#DE64D2"/>
</linearGradient>
<linearGradient id="paint2_linear_1049_55681" x1="17.0619" y1="31.1084" x2="93.8431" y2="107.89" gradientUnits="userSpaceOnUse">
<stop stop-color="#EA5C3D"/>
<stop offset="1" stop-color="#DE64D2"/>
</linearGradient>
<linearGradient id="paint3_linear_1049_55681" x1="17.0619" y1="31.1084" x2="93.8431" y2="107.89" gradientUnits="userSpaceOnUse">
<stop stop-color="#EA5C3D"/>
<stop offset="1" stop-color="#DE64D2"/>
</linearGradient>
<linearGradient id="paint4_linear_1049_55681" x1="17.0619" y1="31.1084" x2="93.8431" y2="107.89" gradientUnits="userSpaceOnUse">
<stop stop-color="#EA5C3D"/>
<stop offset="1" stop-color="#DE64D2"/>
</linearGradient>
<linearGradient id="paint5_linear_1049_55681" x1="17.0619" y1="31.1084" x2="93.8431" y2="107.89" gradientUnits="userSpaceOnUse">
<stop stop-color="#EA5C3D"/>
<stop offset="1" stop-color="#DE64D2"/>
</linearGradient>
<linearGradient id="paint6_linear_1049_55681" x1="17.0619" y1="31.1084" x2="93.8431" y2="107.89" gradientUnits="userSpaceOnUse">
<stop stop-color="#EA5C3D"/>
<stop offset="1" stop-color="#DE64D2"/>
</linearGradient>
<linearGradient id="paint7_linear_1049_55681" x1="17.0619" y1="31.1084" x2="93.8431" y2="107.89" gradientUnits="userSpaceOnUse">
<stop stop-color="#EA5C3D"/>
<stop offset="1" stop-color="#DE64D2"/>
</linearGradient>
<linearGradient id="paint8_linear_1049_55681" x1="17.0619" y1="31.1084" x2="93.8431" y2="107.89" gradientUnits="userSpaceOnUse">
<stop stop-color="#EA5C3D"/>
<stop offset="1" stop-color="#DE64D2"/>
</linearGradient>
<linearGradient id="paint9_linear_1049_55681" x1="17.0619" y1="31.1084" x2="93.8431" y2="107.89" gradientUnits="userSpaceOnUse">
<stop stop-color="#EA5C3D"/>
<stop offset="1" stop-color="#DE64D2"/>
</linearGradient>
<linearGradient id="paint10_linear_1049_55681" x1="17.0619" y1="31.1084" x2="93.8431" y2="107.89" gradientUnits="userSpaceOnUse">
<stop stop-color="#EA5C3D"/>
<stop offset="1" stop-color="#DE64D2"/>
</linearGradient>
<linearGradient id="paint11_linear_1049_55681" x1="17.0619" y1="31.1084" x2="93.8431" y2="107.89" gradientUnits="userSpaceOnUse">
<stop stop-color="#EA5C3D"/>
<stop offset="1" stop-color="#DE64D2"/>
</linearGradient>
<linearGradient id="paint12_linear_1049_55681" x1="17.0619" y1="31.1084" x2="93.8431" y2="107.89" gradientUnits="userSpaceOnUse">
<stop stop-color="#EA5C3D"/>
<stop offset="1" stop-color="#DE64D2"/>
</linearGradient>
<linearGradient id="paint13_linear_1049_55681" x1="17.0619" y1="31.1084" x2="93.8431" y2="107.89" gradientUnits="userSpaceOnUse">
<stop stop-color="#EA5C3D"/>
<stop offset="1" stop-color="#DE64D2"/>
</linearGradient>
<linearGradient id="paint14_linear_1049_55681" x1="17.0619" y1="31.1084" x2="93.8431" y2="107.89" gradientUnits="userSpaceOnUse">
<stop stop-color="#EA5C3D"/>
<stop offset="1" stop-color="#DE64D2"/>
</linearGradient>
<linearGradient id="paint15_linear_1049_55681" x1="17.0619" y1="31.1084" x2="93.8431" y2="107.89" gradientUnits="userSpaceOnUse">
<stop stop-color="#EA5C3D"/>
<stop offset="1" stop-color="#DE64D2"/>
</linearGradient>
<linearGradient id="paint16_linear_1049_55681" x1="17.0619" y1="31.1084" x2="93.8431" y2="107.89" gradientUnits="userSpaceOnUse">
<stop stop-color="#EA5C3D"/>
<stop offset="1" stop-color="#DE64D2"/>
</linearGradient>
<linearGradient id="paint17_linear_1049_55681" x1="17.0619" y1="31.1084" x2="93.8431" y2="107.89" gradientUnits="userSpaceOnUse">
<stop stop-color="#EA5C3D"/>
<stop offset="1" stop-color="#DE64D2"/>
</linearGradient>
<linearGradient id="paint18_linear_1049_55681" x1="17.0619" y1="31.1084" x2="93.8431" y2="107.89" gradientUnits="userSpaceOnUse">
<stop stop-color="#EA5C3D"/>
<stop offset="1" stop-color="#DE64D2"/>
</linearGradient>
<linearGradient id="paint19_linear_1049_55681" x1="17.0619" y1="31.1084" x2="93.8431" y2="107.89" gradientUnits="userSpaceOnUse">
<stop stop-color="#EA5C3D"/>
<stop offset="1" stop-color="#DE64D2"/>
</linearGradient>
<clipPath id="clip0_1049_55681">
<rect width="160" height="146" fill="white"/>
</clipPath>
</defs>
</svg>
