<svg width="160" height="146" viewBox="0 0 160 146" fill="none" xmlns="http://www.w3.org/2000/svg">
<g clip-path="url(#clip0_1049_52981)">
<mask id="mask0_1049_52981" style="mask-type:alpha" maskUnits="userSpaceOnUse" x="-20" y="-14" width="180" height="160">
<rect x="-20" y="-14" width="180" height="160" fill="url(#paint0_linear_1049_52981)"/>
</mask>
<g mask="url(#mask0_1049_52981)">
<path d="M51.4221 127.501C51.4542 127.476 51.4862 127.452 51.5194 127.428C51.5297 127.424 51.5373 127.422 51.5408 127.422C51.5585 127.422 51.4819 127.475 51.2577 127.62C51.3158 127.583 51.3689 127.542 51.4221 127.501Z" fill="url(#paint1_linear_1049_52981)"/>
<path fill-rule="evenodd" clip-rule="evenodd" d="M0.516357 80.3503C0.516357 124.51 36.3564 160.35 80.5164 160.35C100.196 160.35 118.116 153.31 132.036 141.63C133.156 140.83 134.116 140.03 134.916 138.91C150.596 124.35 160.516 103.55 160.516 80.3503C160.516 36.1903 124.676 0.350342 80.5164 0.350342C36.3564 0.350342 0.516357 36.1903 0.516357 80.3503ZM75.2364 24.8303C70.7564 23.8703 69.6364 18.5903 70.1164 14.7503C71.2364 5.95035 78.1164 3.39035 85.6364 2.91035C92.1964 3.39035 98.4364 4.51034 104.356 6.43034C104.196 6.43034 104.036 6.47034 103.876 6.51034C103.716 6.55035 103.556 6.59035 103.396 6.59035C99.7163 7.71035 96.6764 9.95034 95.3963 13.6303C95.1866 14.3995 95.099 15.1381 95.0135 15.8595C94.9034 16.7888 94.7966 17.6896 94.4364 18.5903C94.1335 19.4231 93.6874 20.1843 93.2335 20.9586C92.7283 21.8206 92.2135 22.6989 91.8764 23.7103C91.2364 26.2703 91.0764 29.1503 92.1964 31.5503C90.4364 31.7103 88.6763 32.0303 87.3963 32.5103C84.1964 33.4703 80.9964 34.7503 78.4364 36.8303C78.3715 36.879 78.3057 36.9282 78.2391 36.9779C78.192 37.0132 78.1444 37.0487 78.0965 37.0845C76.2088 38.4936 73.7502 40.3289 72.9964 42.5903C71.5564 42.4303 70.2763 42.4303 68.8364 42.4303C71.0764 38.1103 69.6364 32.3503 66.2764 28.9903C64.1964 26.9103 61.6364 25.1503 58.4364 24.9904C56.6764 24.8304 54.7564 24.9903 53.1564 25.7903C52.5164 25.9503 52.0364 26.2703 51.5564 26.5903C51.3964 26.2703 51.0764 25.7903 50.7564 25.4703C51.5564 21.4703 55.3964 18.2703 59.2364 17.4703C59.3544 17.4535 59.4706 17.4384 59.5847 17.4236C60.5533 17.2979 61.3669 17.1923 61.7963 16.1903C62.1525 15.7154 62.2444 15.0644 62.3335 14.4332C62.3644 14.2138 62.3951 13.9967 62.4364 13.7903C62.6564 13.2036 62.8428 12.5497 63.0264 11.9056C63.2433 11.1445 63.4564 10.3969 63.7164 9.79034C64.9964 7.07034 67.3964 4.67034 70.1164 3.39034C70.2454 3.37421 70.3729 3.35807 70.499 3.3421C71.6236 3.19973 72.6457 3.07034 73.7964 3.07034C72.0364 4.03034 70.5964 5.31034 69.3164 7.23034C68.8364 7.87034 68.3563 8.67035 68.0364 9.47035C64.0364 14.5903 61.6364 22.5903 66.9164 27.7103C70.4363 31.0703 77.3164 31.0703 81.1564 27.8703C83.5564 26.7503 85.1563 24.5104 85.1563 21.3103C85.1563 15.8703 76.9964 13.1503 75.7164 19.0703C75.5564 19.8703 76.5163 20.3503 76.9964 19.7103C77.9564 18.2703 81.3164 17.7903 81.9564 19.8703C82.2764 20.5103 81.9564 21.4703 81.6364 22.1103C80.8364 24.0303 78.5964 24.9904 76.5164 24.9904C76.0364 24.9904 75.5564 24.9903 75.2364 24.8303ZM64.5164 4.35034C63.7164 4.99034 62.9164 5.63034 62.1164 6.43034C61.6629 6.88377 61.2898 7.41753 60.9401 7.91779C60.7962 8.12358 60.6563 8.3238 60.5164 8.51034C60.3403 8.80374 60.2073 9.09715 60.0779 9.38266C59.8544 9.87563 59.6416 10.3451 59.2364 10.7503L58.9164 11.0703C58.2099 11.4236 57.441 11.7838 56.6389 12.1595C51.9908 14.3369 46.2244 17.0381 44.9964 21.9503C41.9564 20.9903 38.4364 20.8303 35.3964 21.1503C33.3164 21.3103 31.0764 21.6303 28.8364 22.4303C38.7564 13.4703 51.0764 7.23034 64.5164 4.35034ZM94.1163 24.5103C94.665 23.4131 95.6742 22.6614 96.6741 21.9167C97.7155 21.1411 98.7466 20.3731 99.2364 19.2303C99.4407 18.5151 99.3188 17.7999 99.204 17.1263C99.139 16.7451 99.0763 16.3773 99.0763 16.0303C99.2364 13.6303 100.836 11.7103 102.756 10.5903C105.156 9.15034 107.556 8.83034 110.116 9.15034C106.116 9.95034 102.596 12.6703 101.156 16.5103C100.922 17.1542 100.752 17.7767 100.584 18.3934C100.292 19.4624 100.005 20.5142 99.3963 21.6303C98.7892 22.6422 98.0541 23.3342 97.2719 24.0703C96.8174 24.4982 96.3468 24.9411 95.8764 25.4703C94.4364 27.3903 93.7963 29.4703 94.7564 31.5503H94.1163C93.4764 29.1503 92.9964 26.7503 94.1163 24.5103ZM108.356 35.5503C107.926 35.3043 107.519 35.0347 107.117 34.7686C106.475 34.3426 105.846 33.9258 105.156 33.6303C104.036 33.1503 102.916 32.8303 101.796 32.6703C100.196 32.0303 98.5964 31.7103 96.8363 31.5503C94.8968 28.9263 96.8623 27.0344 98.7299 25.2366C99.4815 24.5131 100.217 23.8049 100.676 23.0703C101.381 22.0137 101.396 21.3017 101.417 20.3021C101.425 19.9395 101.434 19.5388 101.476 19.0703C102.276 13.1503 106.916 10.2703 112.356 9.47035C113.329 9.90265 114.302 10.4079 115.225 10.8876C115.669 11.1181 116.101 11.3426 116.516 11.5503C116.436 11.5503 116.316 11.5903 116.196 11.6303C116.076 11.6703 115.956 11.7103 115.876 11.7103H115.716C110.116 11.7103 102.116 16.8303 104.836 23.2303C106.116 26.5903 109.316 28.3503 112.516 29.1503C115.076 29.9503 119.556 30.1103 121.316 27.7103C122.916 26.5903 123.876 24.8303 123.076 22.4303C121.956 19.3903 115.876 17.4703 115.236 21.7903C115.076 23.2303 116.676 24.5103 117.796 23.2303C118.426 22.7579 119.211 22.4405 119.999 22.8883C119.839 22.8107 119.895 23.072 119.972 23.4394C120.085 23.9676 120.243 24.7153 119.876 24.9904C118.276 26.5903 113.956 24.3503 112.996 23.0703C111.396 20.6703 112.196 17.3103 114.276 15.3903C115.716 14.1103 117.796 13.4703 119.876 13.4703C124.036 15.8703 128.036 18.7503 131.716 21.9503C131.956 23.0703 132.156 24.2703 132.356 25.4703C132.556 26.6703 132.756 27.8703 132.996 28.9903C133.796 32.1903 133.636 35.3903 133.316 38.5903C130.276 35.2303 126.116 33.1503 121.476 32.9903C118.276 32.9903 115.876 33.9503 112.996 35.3903C111.876 36.0303 111.236 36.3503 110.436 36.3503C109.956 36.3503 109.316 36.1903 108.356 35.5503ZM106.916 23.7103C104.356 19.7103 107.236 16.1903 110.916 14.4303C110.596 14.7503 110.276 15.0703 110.116 15.5503C107.236 19.8703 108.836 25.4703 113.156 27.8703C110.756 27.5503 108.356 26.2703 106.916 23.7103ZM67.3964 25.4703C64.9964 22.4303 65.1564 18.4303 66.5964 14.7503C65.7964 19.7103 67.0764 24.8303 71.7164 27.5503C71.9608 27.7948 72.2987 27.9459 72.5872 28.0749C72.6763 28.1148 72.7608 28.1526 72.8364 28.1903C70.7564 28.0303 68.8364 27.2303 67.3964 25.4703ZM60.6763 14.9103C60.5164 15.2303 60.3564 15.3903 60.1964 15.5503C59.6685 16.0782 58.7053 16.2674 57.7058 16.4638C56.8874 16.6246 56.0446 16.7902 55.3964 17.1503C52.6764 18.5903 50.4364 21.3103 49.4764 24.3503C48.5164 23.5503 47.5564 23.0703 46.9164 22.7503C48.8364 17.4703 55.0764 14.9103 60.5164 14.9103H60.6763ZM135.396 41.3103L134.436 40.0303C135.236 37.1503 134.916 32.9903 134.596 30.7503C134.276 28.3503 133.636 25.4703 132.836 22.9103C132.94 23.117 133.11 23.2569 133.303 23.4163C133.41 23.5037 133.523 23.597 133.636 23.7103C134.756 26.9103 135.876 30.9103 136.036 34.1103C136.164 36.0304 135.883 37.9504 135.601 39.8704C135.531 40.3504 135.46 40.8304 135.396 41.3103ZM35.8764 23.0703C38.9164 23.0703 42.9164 23.3903 45.4764 25.3103C46.8722 26.3572 47.4224 27.5732 48.0491 28.9583C48.2844 29.4785 48.5306 30.0225 48.8364 30.5903C49.1564 31.2303 50.2764 31.7103 51.0764 31.5503C51.823 31.2303 52.2141 30.8392 52.6763 30.377C52.9075 30.1459 53.1563 29.897 53.4764 29.6303C56.3564 27.3903 59.7164 27.7103 62.5964 29.6303C66.5964 32.1903 69.3164 38.5903 66.1164 42.7503C65.7964 42.7503 65.3164 42.7503 64.9964 42.9103C65.9564 40.0303 65.6364 36.3503 64.1964 34.2703C62.1164 30.9103 57.4764 30.2703 53.9564 31.2303C53.3186 31.4004 52.7938 31.5931 52.322 31.7663C51.0182 32.245 50.1186 32.5752 48.3564 31.8703C46.6664 31.1944 46.6424 31.153 46.2734 30.5174C46.1183 30.2504 45.9024 29.8784 45.4764 29.3103C44.1964 27.7103 42.5964 26.5903 40.5164 25.7903C36.3564 24.1903 30.4364 24.6703 25.6364 26.1103C28.6764 24.1903 32.1964 23.2303 35.8764 23.0703ZM16.3564 46.4303C15.6511 42.7628 16.4381 39.5928 17.2921 36.1527C17.4068 35.6908 17.5227 35.2238 17.6364 34.7503C19.3964 32.3503 21.3164 30.1103 23.2364 27.8703C27.5564 26.4303 32.9964 25.6303 37.3164 26.2703C39.5564 26.5903 41.7964 27.2303 43.5564 28.9903C43.9322 29.4414 44.2022 29.9631 44.4657 30.4725C44.763 31.0472 45.0523 31.6062 45.4764 32.0303C45.9564 32.8303 46.7564 33.4703 47.7164 33.7903C49.4288 34.3612 51.1412 33.6875 52.8536 33.0138C54.0212 32.5545 55.1888 32.0952 56.3564 32.0303C63.2364 31.7103 64.6763 37.9503 63.5563 43.2303C56.6764 44.9903 50.2764 49.1503 46.4364 54.5903C45.6364 55.7103 44.9964 56.9903 44.3564 58.2703C44.3564 58.3298 44.2459 58.5659 44.0989 58.8802C43.8503 59.412 43.4969 60.1676 43.3964 60.6703H42.4364C41.7306 60.7712 40.9613 60.9991 40.1685 61.2339C39.7032 61.3717 39.2298 61.512 38.7564 61.6303C38.5828 61.6998 38.4017 61.7692 38.2163 61.8403C37.5474 62.0967 36.8227 62.3745 36.1964 62.7503C34.4364 59.5503 30.7564 57.4703 26.7564 56.6703C22.4364 51.5503 22.4364 43.3903 27.8764 38.9103C29.7964 37.4703 32.6764 35.8703 35.2364 36.0303C37.4764 36.1903 41.3164 37.1503 41.6364 40.0303C41.9019 42.6857 39.7437 43.1376 37.63 43.5802C37.1965 43.671 36.7648 43.7614 36.3564 43.8703C38.1164 43.3903 38.4364 40.5103 36.3564 40.1903C34.1164 39.7103 32.6764 41.4703 32.6764 43.5503C32.6764 45.6303 33.9564 47.0703 35.7164 47.7103C35.788 47.8058 35.856 47.8978 35.9211 47.9856C36.2919 48.4865 36.5641 48.8542 36.8364 48.9903C38.9164 50.2703 41.6364 50.5903 44.0364 49.9503C47.5564 49.1503 50.2764 45.1503 50.1164 41.6303C49.9564 36.9903 44.6764 33.7903 40.6764 32.8303C35.8764 31.7103 31.3964 32.6703 27.7164 35.3903C26.2764 36.3503 24.8364 37.6303 23.8764 38.9103C19.7164 44.3503 20.0364 51.0703 23.5564 56.3503C22.4364 56.3503 21.3163 56.3503 20.1964 56.5103C18.5964 53.3103 16.9964 49.9503 16.3564 46.4303ZM138.436 47.0703V46.5903C139.236 39.5503 138.596 32.9903 136.356 26.5903C148.996 39.5503 156.996 56.8303 157.956 76.0303C157.156 73.9503 156.196 72.0303 154.596 70.2703C153.476 69.1503 152.356 68.5103 150.916 67.7103C150.436 67.2303 150.276 67.2303 150.116 67.2303C150.069 67.2777 150.036 67.311 150.004 67.3096C149.928 67.3062 149.862 67.1061 149.636 66.4303C149.417 65.8813 149.499 65.1061 149.572 64.4152C149.605 64.0994 149.636 63.8013 149.636 63.5503C148.996 58.9103 145.476 53.4703 140.196 53.7903C139.876 51.5503 139.236 49.1503 138.436 47.0703ZM76.9964 43.5503L75.2364 42.9103C75.8701 41.6429 77.4075 40.3754 78.6555 39.3465C78.9828 39.0766 79.2904 38.8231 79.5563 38.5903C81.9564 36.6703 84.8364 35.2303 87.8764 34.4303C89.3164 33.9503 91.2363 33.6303 93.3163 33.6303C92.5964 33.8703 91.8363 34.1103 91.0763 34.3503C90.3163 34.5903 89.5563 34.8303 88.8363 35.0703C84.8364 36.5103 78.7564 39.0703 76.9964 43.5503ZM42.4364 35.8703C41.3164 34.9103 40.0364 34.1103 38.5964 33.7903C42.4364 34.1103 45.9564 36.0303 47.5564 39.8703C50.2764 46.1103 42.4364 50.5903 37.7964 48.1903H38.1164C44.3564 48.1903 46.7564 40.0303 42.4364 35.8703ZM14.2764 47.0703C13.9564 44.3503 14.2764 40.9903 15.2364 38.2703C15.8764 37.4703 16.3564 36.6703 16.8364 35.8703C15.8764 39.3903 14.9164 42.9103 15.2364 46.5903C15.5564 50.1103 16.9964 53.6303 18.5964 56.8303H18.1164C17.6717 55.6631 17.1111 54.5923 16.5555 53.531C15.5117 51.5371 14.4852 49.5763 14.2764 47.0703ZM78.9164 44.3503C80.0364 40.8303 85.7964 38.7503 88.5164 37.7903C91.3964 36.8303 94.2764 36.5103 97.3164 36.5103C99.7164 36.6703 102.116 36.9903 104.196 38.1103C104.766 38.4426 105.322 38.8594 105.884 39.2813C107.217 40.2814 108.588 41.3103 110.276 41.3103C111.976 41.3103 113.526 40.3096 115.066 39.3155C116.28 38.5319 117.487 37.7524 118.756 37.4703C123.076 36.3503 127.396 38.1103 130.276 41.4703C130.682 41.8756 131.023 42.345 131.381 42.8379C131.588 43.1234 131.802 43.4169 132.036 43.7103C127.556 40.6703 120.996 40.1903 115.716 41.7903C115.06 41.9694 114.431 42.1653 113.818 42.3559C111.148 43.1874 108.79 43.9217 105.796 42.7503C102.916 41.6303 100.036 40.5103 96.6764 40.1903C91.2363 39.8703 84.6764 41.3103 80.9964 45.7903C80.3564 45.3103 79.7164 44.8303 78.9164 44.3503ZM82.5964 46.9103C86.9164 42.1103 95.2364 41.4703 101.156 43.2303C102.462 43.6656 103.513 44.1008 104.436 44.4828C107.245 45.6455 108.862 46.3151 112.836 44.9903C119.556 42.7503 129.156 41.3103 133.956 47.3903C135.396 50.5903 136.356 53.9503 136.196 57.1503C136.036 60.8303 134.916 64.1903 133.156 67.2303C132.651 68.0166 132.047 68.7635 131.441 69.5124C130.321 70.8971 129.196 72.2889 128.676 73.9503C128.356 75.2303 128.356 76.6702 128.356 78.1102C128.205 78.625 128.059 79.14 127.914 79.6538C127.291 81.8543 126.674 84.0349 125.636 86.1103C123.396 90.5903 119.556 94.1103 115.236 96.3503C111.076 98.5903 106.436 99.8703 101.636 99.3903C98.2764 99.0703 91.0763 97.1504 88.6763 93.9503C90.4364 91.8703 91.7163 89.3103 92.6764 86.2703C94.2764 80.8303 93.7964 74.7503 91.5564 69.6303C91.0763 68.3503 90.2763 67.0703 89.4763 66.1103C89.4763 65.9503 89.4763 65.9503 89.6363 65.7903C90.5964 62.4303 89.9564 58.4303 88.1964 54.7503C90.4364 48.6703 101.316 48.1903 106.436 49.6303C111.396 51.0703 114.596 55.2303 116.836 59.7103C119.876 65.4703 119.716 73.3103 113.476 76.9903C110.116 79.0703 105.316 78.5903 103.076 74.9103C101.956 72.9903 101.476 70.1103 104.196 68.8303C104.676 68.6703 105.476 68.5103 105.956 68.5103C105.796 68.6703 105.636 68.9903 105.636 69.4703C105.476 69.6303 105.476 69.9503 105.476 70.1103C105.156 71.3903 106.116 72.9903 107.556 72.9903C112.036 72.5103 111.716 67.3903 108.836 65.1503C105.796 62.9103 102.436 64.9903 100.836 67.8703C92.9964 75.8703 102.116 89.3103 112.516 86.9103C124.356 84.1903 125.316 66.9103 119.076 58.5903C118.996 58.5103 118.916 58.4703 118.836 58.4303C118.756 58.3903 118.676 58.3503 118.596 58.2703C117.156 55.3903 115.076 52.8303 112.836 51.0703C108.996 48.0303 104.356 47.0703 99.5564 47.5503C95.8764 47.8703 89.7964 49.4703 87.2363 52.9903C85.9563 50.7503 84.3564 48.6703 82.5964 46.9103ZM11.3964 44.9903C11.0764 49.6303 12.1964 54.4303 14.7564 58.1103C14.5964 58.2703 14.4364 58.3903 14.2764 58.5103C14.1164 58.6303 13.9564 58.7503 13.7964 58.9103C12.3564 59.8703 11.2364 61.3103 10.2764 62.5903C10.16 62.7067 10.2976 62.7385 10.5045 62.6855C10.4784 62.701 10.451 62.7179 10.4219 62.7359C10.3375 62.7881 10.2385 62.8493 10.1164 62.9103C9.95636 62.9103 9.75636 62.9503 9.55636 62.9903C9.35639 63.0303 9.15633 63.0703 8.99636 63.0703C7.23636 63.7103 5.63636 64.5103 4.19636 65.7903C5.63636 58.4303 8.03636 51.3903 11.3964 44.9903ZM33.4764 86.5903C30.5964 81.9503 31.0764 74.5903 33.4764 69.7903C35.4514 65.6992 38.4216 65.0909 42.0578 64.3461C42.5455 64.2463 43.0455 64.1439 43.5564 64.0303C45.8203 63.6729 46.2208 62.5168 46.8063 60.8265C47.0071 60.247 47.2296 59.6047 47.5564 58.9103C51.7164 49.9503 63.8764 43.8703 73.6364 45.7903C76.5164 46.4303 79.7164 48.5103 82.1163 51.3903C71.7164 44.3503 55.8764 47.0703 50.1164 59.5503C49.8486 60.0189 49.6089 60.7675 49.362 61.5383C49.0187 62.6101 48.6617 63.725 48.1964 64.1903C47.5869 64.7127 46.5985 64.9035 45.592 65.0977C44.7487 65.2605 43.8928 65.4256 43.2364 65.7903C40.5164 66.9103 38.4364 69.4703 36.9964 72.1903C33.3164 79.0703 34.7564 86.2703 39.8764 91.5503C39.7164 91.6303 39.5964 91.7103 39.4764 91.7903C39.3564 91.8703 39.2364 91.9503 39.0764 92.0303C37.1564 91.2303 34.4364 88.0303 33.4764 86.5903ZM40.6764 69.7903C42.2764 68.3503 43.8764 67.7103 45.9564 67.0703C46.1128 67.0312 46.317 66.9921 46.5457 66.9483C47.2525 66.813 48.1929 66.633 48.6764 66.2703C49.6741 65.4151 49.91 64.306 50.1758 63.056C50.2084 62.9028 50.2414 62.7475 50.2764 62.5903C52.0364 55.8703 57.7964 50.5903 64.5164 49.1503C72.3564 47.5503 80.0363 49.7903 85.1563 55.7103C86.5963 58.2703 87.2364 60.9903 87.0764 63.5503C78.2764 54.5903 62.5964 53.6303 55.7164 65.4703C52.1964 71.7103 52.9964 78.4303 56.8364 84.3503C59.7164 88.8303 64.6764 89.7903 69.4764 88.9903C72.1964 89.1503 75.0764 88.6703 76.9964 87.0703C80.1964 84.5103 82.2764 79.0703 78.2764 76.3503C75.3964 74.4304 71.2364 76.5103 71.8764 80.1903C72.3564 82.4303 75.7163 81.4703 75.3964 79.2303C76.8363 80.1903 77.1564 81.4703 76.6764 82.7503C76.1964 84.0303 75.3964 84.9903 74.2764 85.6303C70.9163 87.5503 66.2764 85.4703 64.0364 83.0703C61.3164 79.8703 60.1964 75.0703 61.6364 70.9103C64.9964 61.4703 76.9964 60.5103 84.5163 65.3103C92.5163 70.1103 92.1964 82.7503 88.3564 89.9503C84.5163 97.1503 77.4764 100.19 70.1164 102.27C66.1164 94.5903 57.9564 89.1503 49.3164 88.6703C46.4364 88.5103 43.7164 89.3103 41.4764 90.5903C34.9164 85.3103 34.2764 75.8703 40.6764 69.7903ZM140.356 56.3503C142.916 56.3503 145.476 58.5903 146.596 60.6703C147.076 61.4703 147.396 62.2703 147.556 63.0703C147.236 62.7503 147.076 62.2703 146.916 61.7903C146.753 61.5189 146.591 61.2106 146.421 60.8904C146.092 60.2672 145.739 59.5988 145.316 59.0703C144.196 57.7903 142.116 57.1503 140.356 57.3103V56.3503ZM57.9564 82.5903C54.7564 76.9903 54.2764 71.3903 57.7964 65.7903C62.4364 58.4303 70.9164 57.1503 78.2764 59.8703C69.4764 58.2703 59.7164 64.1903 58.4364 73.4703C57.9564 78.5903 60.0364 84.0303 64.3564 87.0703C64.3564 87.0703 64.3564 87.1805 64.4478 87.218C61.7587 86.726 59.5429 85.2875 57.9564 82.5903ZM140.196 58.7503C143.876 57.9503 146.276 61.7903 147.396 64.8303C147.396 64.9903 147.556 64.9903 147.556 64.9903C147.556 66.1103 147.396 67.3903 147.236 68.5103C147.236 69.3103 147.716 69.7903 148.356 69.9503C150.916 70.9103 152.996 71.7103 154.756 73.7903C156.516 77.7903 156.036 84.1903 154.116 88.0303C152.036 92.3503 147.396 94.1103 142.756 94.2703C139.876 91.2303 135.876 89.1503 131.716 89.6303C132.196 88.3503 132.516 87.0703 132.676 85.6303C132.916 84.13 132.886 82.5397 132.856 80.9522C132.806 78.3072 132.756 75.6701 133.956 73.4703C134.916 71.8703 135.716 70.4303 136.516 68.8303C138.596 68.3503 140.836 68.8303 142.436 70.2703C143.556 71.3903 144.036 73.4703 144.036 74.9103C144.036 76.5103 143.716 78.4303 142.436 79.3903C141.796 79.8703 140.996 80.0303 140.196 79.8703L139.396 79.7103C138.916 79.3903 138.756 79.0703 138.916 78.4303C141.156 78.7503 142.116 75.5503 139.876 75.0703C137.636 74.4303 136.036 76.1903 135.876 78.2703C135.236 80.6703 135.876 83.0703 137.956 84.5103C140.036 85.9503 142.916 85.7903 144.836 84.3503C147.076 82.4303 148.196 80.1903 148.036 77.3103C148.036 76.0303 147.556 74.1103 146.596 72.9903C146.276 71.5503 145.636 70.1103 144.676 68.9903C142.916 67.0703 140.196 66.2703 137.636 66.7503C138.916 64.3503 139.876 61.7903 140.196 58.7503ZM9.47636 66.2703H11.3964C12.3564 66.2703 12.8364 65.7903 13.1564 64.9903C16.0364 57.4703 30.2764 57.6303 33.9564 64.5103L32.9964 65.4703C30.5964 59.2303 21.7964 60.0303 17.6364 64.0303C17.1605 64.5062 16.7424 65.1843 16.3207 65.8682C15.7499 66.7939 15.1725 67.7303 14.4364 68.1903C13.9235 68.575 13.1025 68.5487 12.3025 68.523C12.1042 68.5167 11.9071 68.5103 11.7164 68.5103C11.0764 68.3503 10.4364 68.3503 9.95641 68.3503C6.91641 68.6703 4.99636 70.2703 3.23636 72.3503L3.71636 68.5103C4.99636 67.5503 5.95636 67.0703 7.71636 66.5903C7.87636 66.5903 9.79636 66.4303 9.47636 66.2703ZM13.1564 70.7503C14.5964 70.5903 14.5964 70.5903 15.5564 69.4703C16.125 68.7466 16.5433 67.9561 16.957 67.1744C17.8237 65.5364 18.6702 63.9368 20.8364 63.0703C24.8364 61.3103 29.3164 62.9103 31.8764 66.4303C31.8764 66.5903 32.0364 66.5903 32.0364 66.5903C31.2364 67.8703 30.5964 69.1503 30.2764 70.5903C30.1964 70.8303 30.1164 71.1103 30.0364 71.3903C29.9564 71.6703 29.8764 71.9503 29.7964 72.1903C24.9964 67.7103 15.3964 70.4303 11.3964 74.7503C7.23636 79.2303 4.51636 87.3903 9.31636 92.1903C13.3164 96.3503 22.4364 98.2703 24.8364 91.2303C26.4364 86.7503 22.7564 81.7903 18.2764 85.4703C17.6364 85.9503 17.7964 86.7503 18.1164 87.3903C18.1164 87.5503 18.1164 87.7103 18.2764 87.8703C18.7564 88.9903 20.6764 88.6703 20.9964 87.3903C20.9964 87.0703 21.7964 88.9903 21.7964 89.3103C21.6364 93.6303 16.5164 92.8303 14.2764 91.7103C13.4764 91.3903 12.8364 91.0703 12.3564 90.5903C10.1164 87.2303 11.8764 81.7903 14.7564 79.2303C18.1164 76.3503 24.6764 73.4703 28.3564 76.6703C28.4265 76.7054 28.489 76.7405 28.5454 76.7722C28.7465 76.8851 28.8714 76.9553 28.9964 76.8303C28.8364 80.5103 29.3164 84.1903 30.9164 87.2303C32.1964 89.3103 34.5964 92.5103 37.1564 94.1103C35.7164 95.7103 34.7564 97.7903 34.4364 100.03C32.0364 100.03 29.1564 100.19 26.4364 101.31C24.1964 102.11 22.2764 103.71 20.5164 105.63C18.2204 105.12 17.4158 103.39 16.6135 101.664C15.9062 100.143 15.2005 98.625 13.4764 97.9503C12.5793 97.5579 11.7805 97.3619 11.0248 97.1765C9.62398 96.8328 8.37144 96.5254 6.91636 95.0703C5.79636 93.9503 4.35636 92.1903 3.55636 90.4303C3.07636 87.0703 2.91636 83.7103 2.91636 80.3503C2.91636 78.5903 2.91636 76.8303 3.07636 75.0703C4.35636 73.1503 5.63636 71.5503 7.87636 70.7503C9.1149 70.2859 10.0538 70.4207 11.128 70.5748L11.2364 70.5903C11.4591 70.5903 11.6819 70.6248 11.9207 70.6617C12.1964 70.7044 12.4934 70.7503 12.8364 70.7503H13.1564ZM117.476 76.0303C119.396 74.1103 120.356 71.7103 120.676 69.1503C120.996 73.6303 120.356 79.2303 117.156 82.2703C113.476 85.9503 106.596 86.4303 102.916 82.4303C100.996 80.1903 99.8763 76.6703 100.196 73.4703C100.996 76.1903 103.076 78.4303 105.796 79.5503C106.916 79.8703 107.876 80.0304 108.996 80.0304C112.196 80.0304 115.236 78.4303 117.476 76.0303ZM10.7564 79.3903C11.5564 77.4703 12.6764 75.7103 14.2764 74.4303C17.9564 71.7103 25.3164 69.9503 28.9964 73.7903C29.1564 73.9503 29.3164 73.9503 29.4764 73.9503C29.3964 74.1903 29.3564 74.4703 29.3164 74.7503C29.2764 75.0303 29.2364 75.3103 29.1564 75.5503C24.8364 71.5504 16.5164 75.2303 12.9964 78.9103C11.0764 80.9903 9.95636 83.8703 9.79636 86.5903C9.15636 84.3503 9.63636 81.7903 10.7564 79.3903ZM157.636 82.5903C157.796 80.8303 157.636 79.2303 157.316 77.4703C157.476 77.7903 157.796 78.1103 157.956 78.2703C157.956 78.4303 158.116 78.4303 158.116 78.4303V80.3503C158.116 82.276 158.045 84.1869 157.905 86.0803C157.977 84.9008 157.894 83.7228 157.636 82.5903ZM146.596 98.4303C152.766 98.4303 157.32 92.5068 157.873 86.4916C156.825 99.7028 152.433 112.048 145.636 122.59C145.599 122.216 145.553 121.833 145.506 121.445C145.353 120.176 145.194 118.856 145.316 117.63C145.498 116.446 145.992 115.314 146.501 114.146C146.886 113.261 147.281 112.355 147.556 111.39C148.036 109.31 148.196 107.23 147.876 104.99C147.716 102.75 146.916 100.51 145.636 98.2703C145.796 98.2703 145.956 98.3103 146.116 98.3503C146.276 98.3904 146.436 98.4303 146.596 98.4303ZM145.936 79.2202C146.037 78.9647 146.143 78.6975 146.276 78.4303L145.796 80.3503C144.996 81.9503 143.236 83.5503 141.316 83.5503C139.876 83.5503 138.916 83.0703 138.276 82.2703C139.076 82.5903 139.876 82.7503 140.676 82.7503C142.436 82.7503 144.356 81.7903 145.476 80.1903C145.663 79.9107 145.795 79.5767 145.936 79.2202ZM126.437 89.1499C127.077 88.0301 127.716 86.9102 128.356 85.6303C128.356 85.7903 128.316 85.9103 128.276 86.0303C128.236 86.1503 128.196 86.2703 128.196 86.4303C127.236 90.1103 125.476 93.4703 122.916 96.0303C117.636 101.15 110.436 103.55 103.076 103.55C96.5164 103.55 91.0763 100.83 86.5963 96.3503L87.3963 95.5503C89.8773 98.3414 94.6122 99.6297 98.1061 100.58L98.4364 100.67C100.196 101.15 101.956 101.31 103.716 101.31C107.556 101.31 111.236 100.35 114.756 98.9103C119.236 96.8303 123.877 93.4699 126.437 89.1499ZM130.916 92.1903C136.196 91.3903 141.636 96.6703 143.396 100.83C144.836 104.35 144.996 108.35 143.716 111.71C143.489 112.28 143.252 112.786 143.03 113.261C142.315 114.79 141.75 115.998 142.116 117.95C142.276 118.67 142.556 119.39 142.836 120.11C143.116 120.83 143.396 121.55 143.556 122.27C143.876 123.55 143.716 124.67 143.556 125.63C141.636 128.19 139.716 130.59 137.636 132.83C138.436 128.99 138.116 124.51 136.996 121.15C135.876 117.47 133.956 113.79 130.116 112.35C126.916 111.07 123.716 111.55 121.316 113.79C120.196 114.43 119.236 115.55 118.916 117.15C117.956 121.15 123.556 126.11 126.116 121.79C126.916 120.67 125.956 119.23 124.676 119.23C120.356 118.91 124.836 116.19 126.756 117.31C129.476 118.91 129.156 123.71 128.196 126.43C125.636 133.63 114.116 134.59 109.796 128.67C109.636 128.67 109.476 128.51 109.476 128.35C110.596 126.11 111.396 123.55 111.716 121.63C112.196 116.83 111.396 111.07 108.196 107.23C110.916 106.91 113.636 106.27 116.036 105.47C121.956 103.39 126.916 99.0703 129.956 93.6303C130.036 93.3904 130.156 93.1504 130.276 92.9105C130.396 92.6705 130.516 92.4303 130.596 92.1903H130.916ZM37.9564 101.63C38.4364 94.7503 44.8364 91.2303 51.2364 92.3503C58.2764 93.6303 64.6764 98.7503 67.8764 105.31C67.3965 105.63 66.9166 106.11 66.4367 106.59C63.3967 101.31 57.6364 97.3103 51.7164 96.3503C48.6763 95.8703 45.7964 96.5103 43.2364 98.4303C41.9564 99.3903 41.1564 100.51 40.3564 101.79C38.4364 104.51 36.9964 105.15 33.9564 105.31C27.8764 105.79 23.0764 108.67 20.0364 114.27C18.9164 116.35 18.1164 118.59 17.7964 120.83C17.9564 118.27 18.5964 115.71 19.2364 113.47C20.5164 109.63 22.9164 106.27 26.4364 104.35C28.0364 103.39 30.1164 103.07 32.0364 103.07C32.3697 103.07 33.1475 103.209 33.8604 103.337C34.8008 103.504 35.6284 103.652 35.1748 103.435C35.462 103.55 35.7492 103.55 36.0364 103.55C36.9964 103.55 37.7964 102.91 37.9564 101.63ZM144.036 95.7103C147.556 95.5503 151.076 94.5903 153.636 92.3503C151.556 94.7503 148.036 96.8303 144.676 96.0303H144.196C144.196 95.9503 144.156 95.9103 144.116 95.8703C144.076 95.8303 144.036 95.7903 144.036 95.7103ZM14.2764 107.39C13.691 106.688 13.3626 105.814 13.0405 104.957C12.9224 104.643 12.8052 104.331 12.6764 104.03C12.6087 103.94 12.5473 103.856 12.4897 103.777C12.1387 103.297 11.9233 103.002 11.2364 102.59C10.7564 102.43 10.1164 102.43 9.47649 102.43C7.87649 101.95 6.59636 101.47 5.47636 100.51C5.3164 99.7106 5.15645 98.9508 4.99649 98.191C4.83654 97.4312 4.67631 96.6701 4.51636 95.8703C6.27636 97.9503 8.51636 99.5504 11.0764 100.19C12.6319 100.657 13.8094 102.145 14.9948 103.642C16.2478 105.225 17.5097 106.819 19.2364 107.23C18.7564 108.03 18.2764 108.83 17.9564 109.47V109.63C17.6831 109.494 17.4026 109.364 17.121 109.235C16.0834 108.756 15.0314 108.271 14.2764 107.39ZM37.4764 107.23C38.9164 107.07 39.3964 106.91 40.1964 105.79C40.8364 105.07 41.1964 104.31 41.5564 103.55C41.9164 102.79 42.2764 102.03 42.9164 101.31C44.5163 99.3903 46.7564 98.1103 49.3164 98.1103C55.5564 98.1103 62.2764 102.75 65.3164 108.03C62.4364 111.71 60.8364 116.51 61.3164 121.15C61.1564 123.39 60.6764 125.63 60.1964 127.87C60.1657 128.046 60.1351 128.224 60.1043 128.403C59.4907 131.96 58.7938 136.001 56.3564 138.59C51.8764 143.23 45.7964 141.63 41.3164 137.79C36.1964 133.31 34.2764 123.07 40.1964 118.27C43.0764 116.19 48.0363 115.07 49.9564 119.23C50.2763 120.35 50.7564 122.43 50.4364 123.55H49.9564L49.6364 123.87V123.71C49.6412 123.683 49.6455 123.656 49.6494 123.629C50.0334 120.968 45.95 119.898 45.3164 122.59C44.8364 124.67 45.3164 126.43 47.2364 127.39C48.0364 127.71 49.1564 128.03 50.1164 128.03C50.4364 128.03 51.3964 127.55 51.5564 127.39C53.3164 126.11 54.1164 124.03 53.7964 121.95C54.7564 116.67 52.0364 111.71 46.9164 110.11C40.8364 108.51 35.2364 112.19 32.0364 117.15C29.1564 121.79 29.1564 127.71 31.2364 132.67C33.1564 137.15 37.6364 142.43 42.7564 142.91C45.3164 144.35 48.3564 145.15 51.0764 144.67C52.3564 144.51 53.6364 144.03 54.5964 143.55C56.0363 148.03 58.5964 152.51 62.2764 155.55L62.5964 155.87C45.3164 151.87 30.2764 141.95 19.5564 128.35C18.2764 123.55 18.1164 118.91 20.9964 114.11C22.5964 111.55 25.4764 108.67 28.3564 107.71C30.2764 106.91 32.0364 107.07 33.7964 107.23C34.1964 107.23 34.5564 107.27 34.9164 107.31C35.2764 107.35 35.6364 107.39 36.0364 107.39C36.5164 107.39 36.9964 107.39 37.4764 107.23ZM69.3164 128.67C61.7964 122.11 65.3164 108.99 73.1564 104.03C77.3164 102.59 81.3164 100.67 84.5163 98.1103C88.3564 102.43 92.1964 105.47 98.1164 106.91C98.9164 107.07 99.7164 107.23 100.516 107.23C105.476 113.47 104.676 122.75 99.2364 128.19C98.7362 128.69 98.2205 129.081 97.733 129.45C96.6611 130.262 95.7263 130.971 95.3963 132.51C95.075 133.732 94.9085 134.979 94.7414 136.231C94.4925 138.096 94.2421 139.972 93.4763 141.79C90.7564 148.19 83.8764 151.07 77.3164 150.59C70.2764 150.11 63.3963 143.87 60.6763 137.63C60.6763 137.396 60.5906 137.333 60.4819 137.254C60.4421 137.225 60.3992 137.193 60.3564 137.15C60.5164 136.83 60.6763 136.51 60.8364 136.03C61.9564 133.31 62.5964 129.95 62.9164 126.59C63.1608 126.835 63.3119 127.173 63.4409 127.461C63.4808 127.55 63.5186 127.635 63.5563 127.71C65.1564 130.91 68.8364 133.79 71.3964 135.07C76.6763 137.79 84.3563 138.11 89.4763 134.75C94.4364 131.71 96.5164 124.19 94.7564 118.75C93.6364 115.07 89.6364 111.07 85.6364 111.23C84.5164 110.91 83.3964 110.75 82.1163 111.07C78.9164 111.87 77.4764 116.19 80.1964 118.59C81.6364 119.87 84.1964 118.11 82.9163 116.35C81.1564 113.79 85.6364 114.91 86.5963 115.87C87.7164 116.99 88.1964 118.91 88.1964 120.51C88.1964 123.87 85.6364 127.23 82.7564 128.83C80.5164 130.11 78.1164 130.91 75.5564 130.91C73.3164 130.91 71.2364 130.27 69.3164 128.67ZM5.79636 101.63C6.43631 102.11 7.07626 102.43 7.71622 102.75C8.03622 102.878 8.35637 102.955 8.67637 103.032C9.15637 103.147 9.63636 103.262 10.1164 103.55C11.2821 104.186 11.4651 104.822 11.6883 105.597C11.8021 105.993 11.9262 106.424 12.1964 106.91C13.3164 108.83 15.0764 110.59 17.1564 111.55C15.7164 115.07 15.2364 119.23 15.8764 123.23C11.3964 116.67 8.03636 109.31 5.79636 101.63ZM107.156 109.23C107.516 109.83 107.876 110.43 108.196 111.07C109.156 113.31 109.476 116.19 109.476 118.59C109.636 122.91 106.916 132.03 101.316 131.71C100.516 131.71 99.7164 132.35 99.5564 133.15C99.3526 134.067 99.6679 134.79 100.006 135.565C100.199 136.008 100.4 136.467 100.516 136.99C101.476 140.35 100.836 144.03 100.036 147.23C99.0763 151.23 96.6764 155.23 92.9964 156.99C88.8364 157.63 84.6764 157.95 80.5164 157.95C78.2579 157.95 76.1411 157.809 73.8994 157.659L73.4764 157.63C73.0567 157.56 72.6065 157.46 72.1391 157.356C71.5373 157.221 70.9067 157.08 70.2764 156.99C67.7164 156.19 65.6364 154.75 63.7164 152.83C60.9964 149.79 58.5964 145.47 57.4764 141.47C58.1164 140.83 58.5964 140.19 59.0764 139.39C62.1164 145.79 68.9964 151.87 76.0364 152.99C83.0764 154.11 91.3964 151.71 94.9163 144.99C96.5164 141.95 96.6764 137.95 96.3563 134.59C96.0993 132.148 97.2878 131.255 98.8435 130.086C99.2243 129.799 99.6274 129.496 100.036 129.15C101.636 127.71 103.076 126.27 104.036 124.35C106.436 119.71 106.276 112.19 103.076 107.55H104.036C104.676 107.55 105.476 107.55 106.116 107.39C106.436 108.03 106.796 108.63 107.156 109.23ZM33.6364 133.95C31.3964 129.79 30.5964 124.67 32.5164 120.35C34.2764 116.03 37.9564 112.03 42.7564 111.71C46.7564 111.23 50.1164 113.47 51.5564 116.83C45.7964 110.27 35.5564 116.51 33.6364 123.71C32.3564 128.83 33.7964 134.27 37.1564 138.27C35.7164 137.15 34.5964 135.55 33.6364 133.95ZM125.316 134.11C131.076 131.39 133.956 123.23 131.396 117.31C130.756 115.71 129.156 114.43 127.556 113.63C129.956 114.11 132.516 116.19 133.636 118.27C135.236 121.15 136.036 124.35 136.196 127.71C136.196 130.27 135.716 133.31 134.596 136.03C131.716 138.75 128.676 141.31 125.476 143.71C124.459 143.955 123.493 144.251 122.547 144.54C119.776 145.39 117.177 146.186 113.956 145.47C109.796 144.51 106.436 142.75 104.196 139.39C104.196 138.91 104.196 138.43 104.036 137.95C104.036 137.497 103.715 136.642 103.414 135.84C103.29 135.511 103.17 135.19 103.076 134.91C104.996 134.27 106.596 132.67 107.876 130.91C110.596 134.11 114.276 135.71 118.276 135.71C120.676 135.71 123.076 135.07 125.316 134.11ZM78.2764 133.31C85.7964 131.39 93.7964 123.87 89.9564 115.39C89.9564 115.23 89.7964 115.07 89.7964 115.07C90.548 115.697 91.1036 116.421 91.6165 117.09C91.7586 117.276 91.8975 117.457 92.0364 117.63C93.3164 119.87 93.1564 122.43 92.9964 124.99C92.5164 130.91 88.5164 134.43 82.7564 135.07C79.2364 135.55 76.0364 135.07 72.9964 133.79C73.4764 133.95 73.9564 133.95 74.4364 133.95C75.7164 133.95 76.9964 133.79 78.2764 133.31ZM112.196 148.51C108.676 147.71 106.276 146.11 104.036 143.71L104.196 142.43C106.116 144.51 108.676 145.95 111.876 146.91C114.756 147.87 117.316 147.87 119.876 147.23C119.236 147.55 118.756 147.87 118.276 148.19C117.476 148.19 116.677 148.31 115.877 148.43C115.077 148.55 114.276 148.67 113.476 148.67C113.156 148.67 112.676 148.67 112.196 148.51ZM101.156 152.35C102.116 150.43 102.916 148.19 103.556 146.11C105.796 148.19 108.196 149.63 111.716 150.43C111.939 150.43 112.196 150.465 112.472 150.502C112.79 150.544 113.133 150.59 113.476 150.59C108.676 152.99 103.556 154.75 98.1164 155.87C99.3964 154.91 100.356 153.63 101.156 152.35Z" fill="url(#paint2_linear_1049_52981)"/>
</g>
</g>
<defs>
<linearGradient id="paint0_linear_1049_52981" x1="70" y1="-14" x2="70" y2="146" gradientUnits="userSpaceOnUse">
<stop stop-color="white"/>
<stop offset="1" stop-color="white" stop-opacity="0"/>
</linearGradient>
<linearGradient id="paint1_linear_1049_52981" x1="16.3307" y1="31.7961" x2="93.1119" y2="108.578" gradientUnits="userSpaceOnUse">
<stop stop-color="#DE64D2"/>
<stop offset="1" stop-color="#903E88"/>
</linearGradient>
<linearGradient id="paint2_linear_1049_52981" x1="16.3307" y1="31.7961" x2="93.1119" y2="108.578" gradientUnits="userSpaceOnUse">
<stop stop-color="#DE64D2"/>
<stop offset="1" stop-color="#903E88"/>
</linearGradient>
<clipPath id="clip0_1049_52981">
<rect width="160" height="146" fill="white"/>
</clipPath>
</defs>
</svg>
