<svg width="160" height="146" viewBox="0 0 160 146" fill="none" xmlns="http://www.w3.org/2000/svg">
<g clip-path="url(#clip0_1049_51177)">
<mask id="mask0_1049_51177" style="mask-type:alpha" maskUnits="userSpaceOnUse" x="-20" y="-14" width="180" height="160">
<rect x="-20" y="-14" width="180" height="160" fill="url(#paint0_linear_1049_51177)"/>
</mask>
<g mask="url(#mask0_1049_51177)">
<path fill-rule="evenodd" clip-rule="evenodd" d="M39.8587 38.1437C39.8297 38.313 39.84 38.4955 39.9401 38.6892C43.5593 45.6627 48.0019 52.5727 56.6241 53.1799C63.0531 53.6328 72.0654 49.441 73.4465 42.4955C74.7639 41.5729 75.8587 40.4567 76.5763 39.0999C76.8224 38.633 76.4135 38.0295 75.8727 38.1858C75.1026 38.4085 74.3887 38.7266 73.6973 39.0868C71.5452 35.0298 67.869 32.6223 63.1925 33.3624C60.7555 33.7477 58.6883 34.8798 56.5907 36.0285C55.9735 36.3666 55.3536 36.7061 54.7209 37.0284C49.6683 39.6005 45.1555 40.0319 40.4061 36.4239C39.637 35.8391 38.5974 37.1706 39.3647 37.7741C39.5028 37.8829 39.643 37.9856 39.7835 38.0885L39.8587 38.1437ZM51.8858 40.6597C53.7382 40.185 55.4273 39.3334 57.1185 38.4807C58.1276 37.9719 59.1375 37.4628 60.1834 37.033C65.1611 34.9895 68.9057 36.2068 72.5202 39.7427C72.2164 39.9233 71.9145 40.1082 71.6121 40.2935C70.7413 40.8268 69.8655 41.3632 68.9281 41.8068C65.629 43.3685 61.978 44.1853 58.3326 44.1965C53.934 44.2106 49.7347 42.983 45.9836 40.8749C47.8784 41.2277 49.8582 41.179 51.8858 40.6597ZM66.1745 48.0029C63.1522 49.9303 59.6248 50.7603 56.073 50.328C50.0585 49.5944 46.2774 45.2548 43.142 40.5194C47.2879 43.6978 52.2143 45.6646 57.5626 46.0632C61.1031 46.3271 66.0182 45.8808 70.0893 44.2677C68.9347 45.63 67.7848 46.9755 66.1745 48.0029Z" fill="url(#paint1_linear_1049_51177)"/>
<path fill-rule="evenodd" clip-rule="evenodd" d="M17.4143 49.6254C17.3828 49.6423 17.3512 49.6592 17.3202 49.6776C16.2591 50.311 15.3047 48.6652 16.3555 48.0261C22.1249 44.5145 29.861 44.8925 35.3946 48.813C39.7062 51.868 41.6598 57.3978 38.4524 61.7655C39.3739 62.0261 40.3295 62.174 41.296 62.3236C42.2109 62.4652 43.1355 62.6084 44.0505 62.85C44.5455 62.98 44.451 63.5966 44.0505 63.7632C42.0706 64.5866 39.694 64.4631 37.5326 63.737C37.4905 63.781 37.4456 63.8231 37.3922 63.8624C34.3055 66.1164 30.0126 66.4925 26.7873 64.2235C24.3579 62.5152 23.5242 59.7621 22.7058 57.0593C21.7602 53.9369 20.8351 50.8816 17.4933 49.5821C17.4673 49.597 17.4407 49.6113 17.4143 49.6254ZM36.9721 61.2135C39.9279 56.1206 36.1094 51.0493 31.3478 48.9973C27.8699 47.4984 24.0954 47.1831 20.5904 48.2366C23.6828 48.5576 26.4383 49.8507 28.9759 52.2226C30.2058 53.3724 31.1479 54.7542 32.0866 56.1309C32.9995 57.47 33.9093 58.8043 35.0774 59.9157C35.6753 60.4836 36.3106 60.8963 36.9721 61.2135ZM24.4269 55.87C24.9528 58.1393 25.484 60.4315 27.287 62.1061C29.6131 64.2675 32.915 64.3003 35.5368 62.8584C34.8032 62.4532 34.1249 61.9807 33.541 61.453C32.3352 60.3603 31.4266 59.0022 30.5165 57.6419C29.7332 56.4711 28.9488 55.2986 27.9728 54.2923C26.2437 52.5098 24.1936 51.0455 21.9246 50.2034C22.9408 51.3225 23.6397 52.7325 24.0851 54.4514C24.2066 54.9193 24.3166 55.3941 24.4269 55.87Z" fill="url(#paint2_linear_1049_51177)"/>
<path fill-rule="evenodd" clip-rule="evenodd" d="M27.9783 78.1736C29.7018 77.9733 31.4094 77.4381 33.0393 76.4884C33.4117 76.2713 33.1479 75.767 32.7624 75.8316C31.1839 76.0954 29.6503 76.2517 28.1626 76.2957C28.201 73.5148 26.28 71.5621 23.7883 70.4505C21.9642 69.6367 20.1129 69.5561 18.292 69.4767C15.8395 69.3699 13.4421 69.2654 11.24 67.3759C11.1511 67.3001 11.0566 67.2608 10.9602 67.2393C10.4044 66.9305 9.55484 67.3244 9.78221 68.1104C10.0673 69.0943 10.3126 70.1651 10.5652 71.2679C11.5803 75.6993 12.7137 80.6471 17.0225 82.5478C21.4613 84.5071 25.6905 81.9911 27.9783 78.1736ZM12.3357 71.2C15.8875 75.3169 21.2882 78.37 26.6861 78.2643C24.0821 81.4812 19.1053 82.8014 15.8416 79.5546C13.931 77.654 13.1318 74.4209 12.391 71.4239L12.3357 71.2ZM22.004 71.2823C24.2543 71.912 26.8629 73.7572 26.7235 76.2975C21.3733 76.1684 16.6931 74.3672 12.913 70.1267C13.8954 70.6292 14.9649 70.9034 16.3637 70.938C16.8763 70.9508 17.3851 70.9436 17.8916 70.9365C19.2694 70.917 20.6302 70.8978 22.004 71.2823Z" fill="url(#paint3_linear_1049_51177)"/>
<path fill-rule="evenodd" clip-rule="evenodd" d="M87.0975 48.3976C86.6119 48.8813 85.9214 48.2544 86.1899 47.7249C86.0346 47.548 85.9785 47.2954 86.1441 47.0325C87.1869 45.376 87.5645 43.5011 87.9448 41.6133C88.305 39.8254 88.6674 38.0258 89.5995 36.3892C91.0873 33.7768 93.2561 31.5574 95.76 29.9022C100.785 26.5796 107.108 27.2907 109.872 32.9777C109.972 33.1845 109.986 33.3791 109.967 33.5644C111.728 33.6542 113.56 34.007 115.47 34.6741C115.926 34.8322 115.853 35.5022 115.356 35.5181C114.157 35.5558 112.993 35.4437 111.835 35.3322C111.53 35.3027 111.224 35.2733 110.919 35.2467C112.57 39.0343 111.146 43.2065 107.405 45.3108C104.84 46.7546 101.593 47.1064 98.7074 47.3272C97.6909 47.4051 96.4906 47.3229 95.2384 47.2371C92.5045 47.0498 89.523 46.8456 87.6664 48.2535C87.4999 48.3798 87.3212 48.3892 87.1602 48.3349C87.1493 48.3458 87.1384 48.357 87.1274 48.3681C87.1176 48.378 87.1077 48.3879 87.0975 48.3976ZM107.815 33.5831C103.068 26.5347 94.8524 30.4972 90.9609 36.4163C89.7879 38.2006 89.4124 40.1783 89.0384 42.1481C88.8262 43.2658 88.6145 44.381 88.2578 45.4568C93.8288 39.5929 100.137 34.122 107.815 33.5831ZM93.9731 45.3627C94.5784 45.3521 95.1853 45.3414 95.7881 45.308C102.541 44.9366 110.879 43.7426 109.035 35.1494C108.149 35.1391 107.256 35.1906 106.341 35.3871C103.705 35.9541 100.982 37.1312 98.6222 38.4046C95.2304 40.2339 92.414 42.9894 89.6959 45.7599C91.0579 45.4138 92.5107 45.3883 93.9731 45.3627Z" fill="url(#paint4_linear_1049_51177)"/>
<path fill-rule="evenodd" clip-rule="evenodd" d="M80 0C35.8166 0 0 35.8175 0 80C0 124.183 35.8166 160 80 160C124.183 160 160 124.183 160 80C160 35.8175 124.183 0 80 0ZM80 157.637C78.9417 157.637 77.8928 157.6 76.8449 157.558C84.4757 155.186 91.0574 150.242 97.58 145.342C98.0235 145.009 98.4667 144.676 98.9099 144.344C109.767 136.214 124.173 129.884 138.038 131.543C123.817 147.545 103.092 157.637 80 157.637ZM145.896 121.041C139.494 122.983 133.327 124.252 126.599 124.776L125.533 124.858C119.772 125.302 114.081 125.741 108.509 127.421C107.649 127.68 106.795 127.963 105.943 128.256C108.543 126.451 111.049 124.523 113.561 122.591C116.499 120.331 119.444 118.065 122.554 115.985C131.224 110.186 142.182 103.44 152.97 106.563C151.114 111.662 148.727 116.504 145.896 121.041ZM139.56 129.786C133.968 129.028 127.799 130.498 122.396 131.804C116.099 133.328 110.028 135.733 104.493 139.113C101.525 140.925 98.6384 142.974 95.7442 145.028C88.1543 150.414 80.512 155.838 71.2159 157.129C68.4257 156.815 65.6823 156.348 62.9885 155.745C68.6587 154.517 74.5834 150.781 78.2793 148.02C80.7738 146.156 83.0437 144.067 85.2042 141.869L85.6294 141.512C88.301 139.266 90.9718 137.021 94.0088 135.282C99.3712 132.213 105.272 129.971 111.277 128.536C115.789 127.458 120.358 127.082 124.899 126.707C131.707 126.146 138.451 125.589 144.843 122.683C143.215 125.152 141.453 127.525 139.56 129.786ZM153.41 105.263C144.109 103.736 133.538 107.679 125.548 112.088C120.334 114.964 115.748 118.722 111.162 122.479C107.989 125.08 104.816 127.68 101.436 129.986C98.8837 131.072 96.3939 132.309 94.0004 133.696C92.7868 134.399 91.6435 135.185 90.5356 136.016C91.7678 134.574 92.9812 133.114 94.1942 131.654C95.7058 129.835 97.2172 128.016 98.763 126.234C105.535 118.426 113.096 111.001 122.093 105.792C131.363 100.426 144.403 96.3892 154.499 101.847C154.162 102.998 153.798 104.136 153.41 105.263ZM154.949 100.263C148.04 96.305 138.126 98.1829 131.044 100.523C122.182 103.453 114.304 108.826 107.334 114.942C102.082 119.549 97.5625 124.77 93.0297 130.007C90.8733 132.498 88.7137 134.992 86.4711 137.426C82.7284 141.488 78.6807 145.273 73.9705 148.196C69.6009 150.909 61.1228 155.505 55.7062 153.69C55.6451 153.669 55.5872 153.668 55.5294 153.667C55.5163 153.666 55.5031 153.666 55.49 153.665C45.4316 150.32 36.2882 144.981 28.5305 138.103C34.6236 141.034 41.6206 142.315 48.1787 142.146C60.8711 141.823 73.0835 137.713 83.8044 130.997C90.2026 126.988 95.5629 121.746 100.928 116.498C105.275 112.246 109.625 107.991 114.534 104.386C126.141 95.8634 142.194 87.2066 156.391 93.7946C155.998 95.9832 155.521 98.1417 154.949 100.263ZM13.6477 39.6725C17.849 41.7374 24.9546 37.4908 28.6458 35.2848C28.8149 35.1837 28.977 35.0868 29.1312 34.9951C31.084 33.8339 32.9871 32.5913 34.8678 31.3104C49.8339 23.2103 67.4535 17.8611 84.1057 16.1413C101.185 14.3785 119.267 15.854 134.387 24.6157C138.98 29.1256 143.023 34.1942 146.386 39.7249C128.169 38.0622 112.352 47.6192 100.578 60.9244C97.3527 64.5697 94.508 68.4817 91.6637 72.3932C89.4543 75.4315 87.2452 78.4695 84.858 81.382C82.0117 84.8543 78.4879 88.0842 73.9911 89.1256C68.2891 90.4477 62.3794 88.0851 60.6708 82.7265C59.6584 77.1911 62.1202 71.244 67.2748 69.4101C67.9906 69.4662 68.698 69.6019 69.3848 69.8395C70.123 70.6124 70.7667 71.4274 71.0587 72.5745C71.5396 74.4589 70.9398 75.9673 69.28 76.7167C68.218 76.5885 67.2383 77.9265 68.2039 78.7892C71.1915 81.4596 75.6481 80.5408 77.1555 76.6727C78.3541 73.5963 77.0077 70.5478 74.6825 68.5951C73.1321 65.5775 69.8872 64.2433 66.2437 64.0056C66.1792 63.9364 66.0968 63.8793 65.9724 63.8596C58.7078 62.6835 51.1551 65.0218 45.963 70.313C41.6889 74.6695 38.5431 82.517 40.9478 88.5698C35.9466 84.7991 28.9057 84.1432 23.3422 87.7567C17.2959 91.6847 15.0615 99.5705 15.9279 106.433C16.3846 110.034 17.7347 113.361 19.8961 116.273C21.7553 118.779 23.6772 120.359 25.7806 121.693C31.4704 127.621 40.7579 129.996 49.1377 130.145C65.9106 130.445 79.6322 122.666 93.6374 114.294C98.8712 111.166 103.869 107.694 108.865 104.225C113.4 101.074 117.934 97.9257 122.639 95.0372C132.894 88.741 145.401 84.4912 157.068 89.2669C156.924 90.4674 156.757 91.6613 156.56 92.8449C147.471 87.2056 135.503 91.1504 126.603 95.3665C115.389 100.678 106.737 108.739 97.8203 117.048C97.2284 117.599 96.6353 118.152 96.0402 118.705C85.8657 128.159 74.0407 135.679 60.3246 138.676C52.9356 140.29 44.7635 140.905 37.3371 139.178C32.7392 138.109 27.1869 135.748 22.865 132.551C10.1399 118.724 2.36257 100.273 2.36257 80C2.36257 65.2313 6.48888 51.4264 13.6477 39.6725ZM80 2.36257C87.8493 2.36257 95.4208 3.53871 102.563 5.7048C97.2107 5.18082 91.6154 5.7076 86.501 6.3607C78.2933 7.40865 70.2437 9.60187 62.6105 12.7906C54.2849 16.2685 46.6844 21.1013 39.3132 26.2559C38.3119 26.9563 37.3168 27.6702 36.3208 28.3846C33.5225 30.3919 30.7168 32.4044 27.7511 34.1371C27.5237 34.27 27.2699 34.4208 26.9935 34.5851C23.8267 36.4672 17.6896 40.1145 14.1913 38.8248C27.9195 16.931 52.2526 2.36257 80 2.36257ZM131.584 21.9977C117.277 14.2437 100.019 13.2772 84.1057 14.8557C69.0769 16.3462 53.5064 20.9619 39.6921 27.9233C40.2233 27.5429 40.7539 27.1618 41.2845 26.7806C45.0409 24.0821 48.7996 21.3819 52.7429 18.9782C60.9834 13.9546 69.9134 10.328 79.3497 8.27977C87.0315 6.6124 96.755 5.05076 105.049 6.51696C114.944 9.89006 123.941 15.1944 131.584 21.9977ZM25.8573 117.71C22.8529 112.997 22.1913 103.951 25.8985 99.258C23.8746 103.025 23.506 108.38 24.6624 112.044C24.6615 112.128 24.6746 112.215 24.713 112.304C24.7355 112.356 24.7614 112.404 24.7872 112.453C24.8087 112.493 24.8301 112.533 24.8496 112.575C24.8576 112.598 24.8655 112.62 24.8734 112.643C24.8858 112.679 24.8982 112.715 24.9113 112.749C28.5099 121.821 38.3859 126.181 47.5817 126.585C59.0194 127.089 69.6954 122.549 78.7462 115.853C84.4408 111.641 89.9439 107.167 95.4472 102.694C100.245 98.7937 105.043 94.8936 109.968 91.1663C116.718 86.0585 123.751 81.7768 131.782 78.9801C135.673 77.6253 139.677 76.5361 143.738 75.825C147.346 75.1925 150.835 75.2888 154.386 75.3866C155.415 75.415 156.45 75.4436 157.494 75.4545C157.581 76.96 157.637 78.4739 157.637 80C157.637 82.4823 157.508 84.9329 157.281 87.3553C146.823 83.0512 135.135 86.2213 125.475 91.3188C121.095 93.6298 117.064 96.5101 113.037 99.3877C111.353 100.591 109.669 101.795 107.961 102.956C101.615 107.267 95.0643 111.205 88.4481 115.083C77.6383 121.421 66.8145 127.033 54.1155 127.884C44.174 128.55 31.6996 126.875 25.8573 117.71ZM42.4739 107.52C43.5003 105.65 43.7399 103.283 43.0025 100.835C41.2463 94.9979 34.3757 92.0767 28.7485 94.0444C22.0978 96.3696 19.6594 105.101 20.6961 111.421C21.1799 114.369 22.2194 116.907 23.6725 119.077C23.6539 119.058 23.6344 119.041 23.6148 119.024C23.5911 119.003 23.5673 118.982 23.5453 118.958C21.3427 116.604 19.4433 113.672 18.4384 110.596C16.6971 105.261 16.887 98.924 19.6828 93.9696C23.3581 87.4564 31.4638 85.1153 38.0388 88.975C43.2786 92.0505 48.2629 103.33 42.4739 107.52ZM50.909 82.4861C50.4786 94.254 60.77 101.244 71.4058 102.375C77.6308 103.037 83.2271 101.997 88.4304 99.9055C79.0849 104.812 68.4977 106.883 59.0615 101.042C50.8135 95.9373 44.1843 87.0278 47.4732 76.9525C49.0554 72.1076 52.8327 68.2695 57.6262 66.5525C60.3901 65.5616 65.163 65.0891 68.8627 66.2625C59.8877 65.2444 51.2346 73.5813 50.909 82.4861ZM72.6568 73.0517C72.5623 72.4725 72.3593 71.8363 72.0701 71.215C72.7158 71.8016 73.2294 72.5689 73.6037 73.528C73.454 76.1226 72.6138 77.3436 71.1064 77.2323C72.3031 76.2676 72.9469 74.8154 72.6568 73.0517ZM44.3022 121.011C49.3997 120.553 54.2278 118.562 58.5787 115.941C60.3852 114.853 62.196 113.446 64.0348 112.018C66.9406 109.76 69.9171 107.448 73.0573 106.254C75.0297 106.193 77.0245 105.93 79.0241 105.418C89.1901 102.814 99.6771 96.2068 106.843 88.1254C107.197 87.8353 107.552 87.5434 107.905 87.2505C108.435 86.8124 108.974 86.3644 109.522 85.9085L109.525 85.9059C122.333 75.2593 140.212 60.3973 156.959 69.8779C157.139 71.2636 157.283 72.6615 157.389 74.0706C156.252 74.1254 155.13 74.1701 154.017 74.2143C148.116 74.4491 142.505 74.6722 136.556 76.3303C130.144 78.1184 123.868 80.5043 118.102 83.8522C106.658 90.4954 95.8884 99.2937 85.6367 107.669L85.1948 108.03C74.5375 116.735 63.1625 124.713 48.8243 124.631C42.9445 124.597 36.96 123.104 32.3256 119.415C36.0486 120.956 40.4135 121.361 44.3022 121.011ZM28.1431 114.886C27.3534 113.695 26.7078 112.415 26.2587 111.069C29.0451 114.602 34.5497 116.009 38.8117 116.061C44.2484 116.127 48.5549 112.956 52.879 109.773C55.8061 107.618 58.7413 105.458 62.0407 104.291C64.9422 105.46 68.0262 106.124 71.1943 106.245C69.1314 107.017 67.2479 108.23 65.3752 109.436C64.7397 109.845 64.1054 110.254 63.4657 110.644C59.0372 113.345 54.4028 116.144 49.4241 117.696C43.2393 119.625 33.4231 119.686 28.1431 114.886ZM40.0468 106.307C38.8379 108.394 32.4762 109.561 32.8692 106.676C34.2643 107.184 35.5593 107.423 37.0489 106.509C38.4954 105.622 39.4124 103.964 39.5883 102.297C39.6828 101.391 39.5518 100.476 39.2496 99.6126C40.7888 101.488 41.4278 103.923 40.0468 106.307ZM25.5607 106.973C25.5364 103.403 27.3385 98.0005 30.9614 96.3668C31.6426 96.2723 32.3705 96.2414 33.1565 96.3013C34.0669 96.3705 35.0072 96.6428 35.9083 97.0592C37.0779 98.0734 37.8957 99.592 38.123 101.036C38.3223 102.299 37.9752 103.577 37.1303 104.546C36.0982 105.73 33.9106 106.421 33.0311 104.597C32.6783 103.867 31.9728 103.928 31.4751 104.3C31.098 104.342 30.7537 104.54 30.5693 104.955C28.6241 109.322 32.0617 111.673 36.2975 111.319C37.7619 111.195 39.0259 110.755 40.072 110.087C45.4774 109.083 47.3226 103.599 46.7359 98.5422C49.6917 100.667 53.4718 101.447 57.1041 101.707C58.21 102.426 59.3553 103.072 60.537 103.63C57.5568 104.904 55.0592 106.765 52.5532 108.633C50.374 110.258 48.1885 111.887 45.6739 113.138C40.1235 115.899 28.1918 115.049 25.9134 108.041C25.8545 107.856 25.731 107.747 25.5897 107.693C25.5738 107.455 25.5626 107.214 25.5607 106.973ZM59.5368 86.662C63.9831 96.4987 74.8117 97.6786 83.6266 93.0367C90.6537 89.3366 95.6025 83.1948 100.563 77.0381C104.486 72.1704 108.415 67.2933 113.386 63.6061C123.571 56.0487 142.342 49.207 154.095 56.7598C155.211 60.3237 156.073 64 156.669 67.7652C148.035 63.6697 138.08 66.1736 129.729 70.2456C121.714 74.1548 114.607 79.3918 107.489 84.6367C104.191 87.0671 100.89 89.4992 97.4961 91.8016C86.9314 98.967 68.6231 104.397 58.1417 93.8498C53.337 89.0143 51.679 80.9516 55.7146 75.1373C57.5092 72.5511 60.2086 70.5899 63.2439 69.7993C58.4542 73.2894 56.7663 80.5324 59.5368 86.662ZM147.374 41.44C149.71 45.5139 151.69 49.8161 153.267 54.3111C146.255 50.4917 135.89 51.7614 128.718 53.7591C119.167 56.4201 110.934 61.9481 104.311 69.2557C102.337 71.4332 100.458 73.842 98.5562 76.2788C92.9031 83.523 87.0562 91.0155 77.9836 93.4213C72.2779 94.9333 66.7274 93.1191 63.3936 88.7972C65.9452 90.6938 69.4213 91.5396 72.9908 91.1233C81.2884 90.1539 86.5618 82.9951 90.7181 76.466C96.6671 67.1233 103.227 58.3682 112.079 51.5584C122.41 43.6117 133.962 40.568 146.89 41.557C147.091 41.5729 147.244 41.5186 147.374 41.44ZM59.112 64.7392C56.3939 65.4334 53.9275 66.5301 52.2704 67.7839C44.13 73.9443 42.9745 85.7244 48.8234 93.7993C50.5431 96.174 52.538 98.2568 54.7377 100.011C51.7455 99.3263 48.8121 98.6423 46.4514 96.349C46.4163 96.3145 46.3787 96.2947 46.3408 96.2747C46.3262 96.267 46.3116 96.2593 46.2971 96.2508C45.9827 95.098 45.5466 94.0089 44.9862 93.0629C44.2339 91.797 43.3141 90.6826 42.283 89.7076C38.821 77.396 47.4301 66.2269 59.112 64.7392Z" fill="url(#paint5_linear_1049_51177)"/>
</g>
</g>
<defs>
<linearGradient id="paint0_linear_1049_51177" x1="70" y1="-14" x2="70" y2="146" gradientUnits="userSpaceOnUse">
<stop stop-color="white"/>
<stop offset="1" stop-color="white" stop-opacity="0"/>
</linearGradient>
<linearGradient id="paint1_linear_1049_51177" x1="15.8144" y1="31.4457" x2="92.5956" y2="108.227" gradientUnits="userSpaceOnUse">
<stop stop-color="#DE64D2"/>
<stop offset="1" stop-color="#559D3E"/>
</linearGradient>
<linearGradient id="paint2_linear_1049_51177" x1="15.8144" y1="31.4457" x2="92.5956" y2="108.227" gradientUnits="userSpaceOnUse">
<stop stop-color="#DE64D2"/>
<stop offset="1" stop-color="#559D3E"/>
</linearGradient>
<linearGradient id="paint3_linear_1049_51177" x1="15.8144" y1="31.4457" x2="92.5956" y2="108.227" gradientUnits="userSpaceOnUse">
<stop stop-color="#DE64D2"/>
<stop offset="1" stop-color="#559D3E"/>
</linearGradient>
<linearGradient id="paint4_linear_1049_51177" x1="15.8144" y1="31.4457" x2="92.5956" y2="108.227" gradientUnits="userSpaceOnUse">
<stop stop-color="#DE64D2"/>
<stop offset="1" stop-color="#559D3E"/>
</linearGradient>
<linearGradient id="paint5_linear_1049_51177" x1="15.8144" y1="31.4457" x2="92.5956" y2="108.227" gradientUnits="userSpaceOnUse">
<stop stop-color="#DE64D2"/>
<stop offset="1" stop-color="#559D3E"/>
</linearGradient>
<clipPath id="clip0_1049_51177">
<rect width="160" height="146" fill="white"/>
</clipPath>
</defs>
</svg>
