<svg width="160" height="146" viewBox="0 0 160 146" fill="none" xmlns="http://www.w3.org/2000/svg">
<g clip-path="url(#clip0_1049_53879)">
<mask id="mask0_1049_53879" style="mask-type:alpha" maskUnits="userSpaceOnUse" x="-20" y="-14" width="180" height="160">
<rect x="-20" y="-14" width="180" height="160" fill="url(#paint0_linear_1049_53879)"/>
</mask>
<g mask="url(#mask0_1049_53879)">
<path fill-rule="evenodd" clip-rule="evenodd" d="M111.83 40.4657C110.926 39.3466 110.214 38.0741 109.873 36.49C109.847 36.366 109.833 36.2429 109.819 36.1197L109.811 36.052L109.805 35.999C109.802 35.9755 109.799 35.9521 109.795 35.9286C109.14 33.8739 109.555 31.8987 110.451 29.624C110.576 29.3073 110.702 28.9804 110.831 28.6467C111.851 26.0097 113.037 22.9396 114.962 20.9878C115.161 20.7866 115.485 20.7988 115.684 20.9878C116.297 21.5686 116.056 22.712 115.837 23.7548C115.782 24.0173 115.728 24.2733 115.689 24.5125C115.833 25.8851 116.166 27.2643 116.673 28.5752C116.818 28.8558 116.97 29.1341 117.122 29.4134C117.466 30.0467 117.814 30.6864 118.102 31.3672C118.483 31.9417 118.888 32.4928 119.344 32.9794C119.902 33.5749 120.466 34.1092 121.012 34.6278C122.59 36.1233 124.029 37.4884 124.81 39.8173C125.685 42.4268 126.237 45.5604 126.218 48.316C126.202 50.8175 125.374 53.1179 124.54 55.4313L124.539 55.4355L124.538 55.4381C124.452 55.6759 124.366 55.9139 124.282 56.1522L124.279 56.1616C124.185 56.4944 124.092 56.8272 123.997 57.159C123.955 57.3063 123.912 57.4759 123.865 57.6598C123.618 58.6323 123.269 60.003 122.507 60.5695C122.465 60.6042 122.422 60.636 122.373 60.6556C122.352 60.6673 122.333 60.6812 122.314 60.6949C122.286 60.7153 122.258 60.7354 122.227 60.7483C122.105 60.7988 121.955 60.738 121.862 60.6556C121.678 60.5901 121.519 60.4601 121.42 60.2823C121.301 60.2215 121.209 60.1176 121.181 59.9595C120.282 54.9003 118.485 51.4973 115.532 47.4084C113.829 45.0505 112.686 42.8881 111.83 40.4657ZM123.451 44.8109C122.925 41.392 121.966 38.9761 119.795 36.2626C117.535 33.4378 114.767 29.7083 114.518 25.8645C114.213 26.889 113.892 27.9115 113.558 28.9754L113.395 29.4949C111.648 35.0635 114.7 38.2509 118.214 41.9211L118.217 41.924L118.226 41.9336C118.438 42.1556 118.653 42.3794 118.868 42.6056C121.483 45.3583 122.794 48.2093 123.26 51.2605C123.648 49.2376 123.816 47.1773 123.451 44.8109ZM115.107 43.6198C116.127 45.3555 117.293 47.0435 118.576 48.8858C120.213 51.2362 121.16 53.5239 121.707 56.039C121.794 52.4339 120.909 49.1628 118.07 46.2566C117.225 45.3913 116.293 44.6114 115.366 43.8366L115.107 43.6198Z" fill="url(#paint1_linear_1049_53879)"/>
<path fill-rule="evenodd" clip-rule="evenodd" d="M48.7248 52.2897C48.7081 52.2552 48.6909 52.2197 48.6745 52.1853C48.6732 52.1735 48.6723 52.1617 48.6714 52.1501C48.6685 52.1131 48.6656 52.0766 48.6493 52.0375C46.2451 46.2329 47.9278 41.1108 49.7751 35.4874C49.8345 35.3067 49.894 35.1255 49.9536 34.9437C51.4254 30.4544 52.0111 25.4766 51.5255 20.7477C51.9363 19.2197 52.1562 17.558 52.0991 15.608C52.0626 14.3804 50.1978 14.3739 50.1866 15.608C50.1819 16.0422 50.1585 16.4698 50.1239 16.8937C48.7189 18.9821 46.9874 20.5054 45.1282 22.141C44.4854 22.7066 43.8267 23.2861 43.1615 23.9065C40.4481 26.4384 39.3253 29.4242 39.3056 33.1856C39.2729 39.3192 42.1152 44.0678 45.0341 48.9445C45.8676 50.337 46.7073 51.7399 47.4881 53.1884C47.955 54.0548 49.1985 53.2941 48.7905 52.4267C48.7692 52.3815 48.747 52.3356 48.7248 52.2897ZM47.8745 21.5692C48.6165 20.7748 49.2312 20.0422 49.7674 19.2843C49.2221 21.9042 48.2109 24.3691 47.1959 26.8434C46.0059 29.7441 44.8105 32.6582 44.3545 35.8494C43.9559 38.6424 44.2085 41.5121 44.8841 44.277C43.3777 40.8572 42.1828 37.3259 42.0471 33.6834C41.8413 28.146 44.2712 25.427 47.8745 21.5692ZM47.539 38.6608L47.5364 38.6676L47.5351 38.6709C47.4364 38.921 47.3373 39.1722 47.2383 39.4246C46.5122 41.2763 46.0406 42.9241 45.8497 44.51C44.6951 39.8354 44.4172 35.4312 47.0212 30.3243C47.5086 29.3685 47.9919 28.4775 48.4556 27.6225C49.1553 26.3325 49.8104 25.1245 50.3681 23.9C50.4486 25.558 50.4794 27.2151 50.3288 28.8834C50.0122 32.391 48.8087 35.442 47.539 38.6608Z" fill="url(#paint2_linear_1049_53879)"/>
<path fill-rule="evenodd" clip-rule="evenodd" d="M25.7823 46.8618C25.961 46.9067 26.107 47.047 26.1023 47.3034C25.9975 53.4695 26.4578 58.4182 30.4578 63.4026C31.3667 64.5354 32.3711 65.5689 33.373 66.5998C34.9869 68.2604 36.5945 69.9145 37.786 71.9668C41.4763 78.3237 40.7867 85.5584 37.5381 91.9434C37.1367 92.7331 36.1757 92.3457 36.0073 91.6627C35.5076 91.0102 35.2914 90.1633 35.08 89.3353C34.9664 88.8904 34.8542 88.451 34.7002 88.0501C34.4214 87.323 34.0387 86.6971 33.612 86.1095C32.1141 84.5127 30.4035 83.1646 28.6792 81.8059C26.6014 80.1684 24.504 78.5155 22.7357 76.3935C19.329 72.3046 18.9416 67.7375 19.6658 62.7626C19.2541 58.3565 21.0113 54.1703 23.1587 49.9869C23.4004 48.9926 23.9946 48.2166 24.602 47.4233C24.7279 47.2588 24.8545 47.0935 24.9785 46.9254C25.1975 46.6297 25.5727 46.6746 25.7823 46.8618ZM31.1277 70.0818C30.3809 69.2582 29.624 68.4236 28.8962 67.5233C26.0218 63.9668 24.1262 58.9647 23.9867 54.0964C21.917 59.9284 21.7888 65.593 26.921 70.6325C28.5067 72.1896 30.1926 73.6274 31.8756 75.0628C32.6692 75.7396 33.463 76.4166 34.2445 77.1046C35.2448 77.985 36.0887 78.9881 36.8092 80.1034C36.8448 80.1586 36.9234 80.3392 37.0235 80.5778C36.7521 79.1453 36.3376 77.7698 35.7856 76.5329C34.627 73.9404 32.9041 72.0405 31.1277 70.0818ZM36.4259 90.1581L36.4349 90.1302C36.4404 90.1127 36.4459 90.0954 36.4518 90.0786C36.3944 89.9669 36.335 89.8585 36.2752 89.7496L36.2412 89.6875C36.2927 89.8615 36.3488 90.0318 36.4134 90.1946C36.4178 90.1826 36.4219 90.1704 36.4259 90.1581ZM29.2225 75.8291C26.3435 73.7953 23.475 71.769 21.6607 68.7509C22.8508 72.8145 25.8749 75.804 29.5016 79.0816C29.8886 79.4311 30.319 79.8028 30.7736 80.1952C33.1215 82.2223 36.1121 84.8042 37.074 87.7572C37.3341 86.3733 37.4221 84.9249 37.3594 83.4821C37.2209 83.4447 37.0936 83.3726 37.0216 83.2463C35.1751 80.0341 32.1932 77.9277 29.2225 75.8291Z" fill="url(#paint3_linear_1049_53879)"/>
<path d="M126.568 74.5046C126.89 75.2737 128.151 74.9734 127.854 74.15C126.771 71.1562 128.034 68.0259 129.201 65.1361C129.527 64.3266 129.846 63.5357 130.104 62.7722C131.085 59.8707 130.783 57.2208 129.827 54.353C129.688 53.9329 129.051 53.8889 128.931 54.353C128.646 55.4544 128.52 56.5619 128.394 57.6753C128.318 58.341 128.242 59.0092 128.132 59.6789C127.918 60.9758 127.503 62.1151 127.076 63.2848C126.863 63.8692 126.647 64.4622 126.452 65.0852C125.463 68.2496 125.277 71.4178 126.568 74.5046Z" fill="url(#paint4_linear_1049_53879)"/>
<path d="M44.5499 59.6655C44.0083 58.2738 43.48 56.9166 42.3624 55.724C41.2185 54.5029 40.3025 53.2234 39.3673 51.9171C38.9181 51.2895 38.4643 50.6556 37.9788 50.0192C37.4586 49.3371 38.6282 48.4501 39.1643 49.1051C39.4094 49.4046 39.6468 49.7064 39.8831 50.0068C40.6616 50.9966 41.4278 51.9706 42.4148 52.7953C42.7238 53.0538 43.0361 53.2975 43.3454 53.5389C44.2042 54.209 45.0408 54.8618 45.7224 55.7642C47.2289 57.76 47.5751 59.6286 46.4176 61.9107C46.2445 62.2512 45.6981 62.2447 45.5241 61.9107C45.1338 61.1657 44.84 60.4107 44.5499 59.6655Z" fill="url(#paint5_linear_1049_53879)"/>
<path d="M26.3999 85.7249C25.773 85.2402 24.8748 86.0833 25.5073 86.6185C27.7978 88.5553 30.0621 91.338 31.6603 93.8849C33.0387 96.082 33.4166 98.4914 33.8016 100.945C33.9103 101.638 34.0195 102.334 34.152 103.03C34.2839 103.724 35.242 103.601 35.4376 103.03C37.875 95.9069 31.4834 89.6519 26.3999 85.7249Z" fill="url(#paint6_linear_1049_53879)"/>
<path d="M33.874 39.1529C32.7437 45.072 34.2089 52.4778 37.9778 57.2984C38.3587 57.7859 37.6953 58.4839 37.2836 57.9936C33.8543 53.9132 31.4768 48.9129 31.4141 43.5075C31.372 39.8567 32.5089 36.6511 33.6542 33.4219C34.4686 31.1259 35.2871 28.818 35.6892 26.3295C35.779 25.7709 36.5266 25.9964 36.5856 26.4512C36.9628 29.4069 36.0764 32.0067 35.1741 34.6533C34.6754 36.1162 34.1718 37.5934 33.874 39.1529Z" fill="url(#paint7_linear_1049_53879)"/>
<path d="M88.3002 20.8976C89.536 21.6085 90.8502 22.1837 92.164 22.7587C93.6723 23.4189 95.1801 24.0788 96.5678 24.9434C97.693 25.6443 98.6406 26.5544 99.5866 27.4629C100.503 28.3434 101.419 29.2224 102.493 29.9081C103.134 30.3189 103.783 29.5301 103.477 28.9238C101.305 24.6403 98.5964 22.5893 94.3044 20.5785L93.89 20.3845C88.6687 17.9418 84.4866 15.9852 82.8574 9.86788C82.5627 8.76004 80.9112 9.22881 81.1489 10.3385C82.1959 15.2246 83.8876 18.3591 88.3002 20.8976Z" fill="url(#paint8_linear_1049_53879)"/>
<path d="M104.623 23.9711C104.436 23.614 104.286 23.3282 104.186 23.193C102.423 20.8073 100.088 19.7457 97.6829 18.6526C96.2934 18.0209 94.8807 17.3788 93.5419 16.4646C92.9047 16.0295 93.4792 15.0115 94.1529 15.4194C95.5517 16.2667 97.13 16.6982 98.711 17.1305C100.606 17.6486 102.505 18.1678 104.103 19.4054C106.284 21.0943 107.548 23.2126 107.969 25.884C108.033 26.2844 107.923 26.6091 107.579 26.8449C106.513 27.5721 105.314 25.2875 104.623 23.9711Z" fill="url(#paint9_linear_1049_53879)"/>
<path d="M130.581 39.1922C130.648 39.5453 130.701 39.9015 130.754 40.2578C130.865 41.0087 130.976 41.7595 131.222 42.4811C131.452 43.1575 132.29 43.0977 132.542 42.4811C132.948 41.486 132.539 40.034 132.242 38.9792C132.22 38.9013 132.199 38.8256 132.179 38.7524C131.756 37.231 131.274 35.9781 130.478 34.6092C130.029 33.8364 128.854 34.525 129.281 35.3091C129.977 36.5835 130.312 37.7727 130.581 39.1922Z" fill="url(#paint10_linear_1049_53879)"/>
<path d="M121.46 24.6719C121.616 25.6029 122.054 26.3505 122.584 27.1056C123.347 28.191 121.596 29.1594 120.827 28.133C119.645 26.5564 118.456 24.1283 119.818 22.2916C120.111 21.8958 120.636 21.8668 120.924 22.2916C121.27 22.8011 121.325 23.3965 121.38 23.9912C121.402 24.2198 121.423 24.4484 121.46 24.6719Z" fill="url(#paint11_linear_1049_53879)"/>
<path fill-rule="evenodd" clip-rule="evenodd" d="M80.4341 0C124.617 0 160.434 35.8175 160.434 80C160.434 117.933 134.023 149.678 98.5936 157.905C96.1917 158.728 93.7178 159.145 91.2233 159.255C87.693 159.732 84.0954 160 80.4341 160C36.2507 160 0.434082 124.183 0.434082 80C0.434082 35.8175 36.2507 0 80.4341 0ZM21.8173 120.075C21.2744 123.274 20.7315 126.474 20.784 129.683C21.9892 131.129 23.2551 132.521 24.5604 133.875C23.6976 128.819 24.6606 124.01 25.6517 119.061C26.1041 116.802 26.5624 114.514 26.8556 112.159C28.0701 102.395 25.6645 95.083 19.7361 87.4218C14.7864 81.0255 11.1288 73.6328 9.92648 65.6084C9.32859 61.6262 9.12835 57.9209 9.61397 53.9032C10.0999 49.8752 11.2529 46.4726 12.4783 42.8565C12.5885 42.5313 12.6993 42.2043 12.8102 41.8751C9.44742 47.8278 6.8397 54.2606 5.1349 61.0554C5.15503 61.7484 5.15037 62.4416 5.14572 63.1345C5.13458 64.7925 5.12346 66.4484 5.4521 68.0936C6.18379 71.753 7.84367 75.0288 9.54192 78.2915C10.9296 80.9569 12.6674 83.4149 14.4032 85.8702C16.4477 88.7621 18.4896 91.6503 19.9541 94.8697C22.3447 100.128 23.0062 105.993 22.8425 111.71C22.7628 114.503 22.2901 117.289 21.8173 120.075ZM20.465 116.623C20.624 115.451 20.7719 114.28 20.8832 113.113C21.5765 105.825 20.9291 98.1221 17.2565 91.651C15.8841 89.2327 14.232 86.8172 12.5577 84.3693C11.8761 83.3727 11.1904 82.3702 10.5188 81.3605C11.3459 83.1457 12.0926 84.9712 12.5529 87.0522C13.1672 89.8324 13.4287 92.6441 13.6907 95.461C13.8398 97.0638 13.989 98.6682 14.2034 100.269C14.7246 104.16 16.1896 107.123 17.802 110.385C18.1118 111.011 18.4274 111.65 18.7424 112.307C19.403 113.684 20.0233 115.135 20.465 116.623ZM7.39455 76.3013C5.74683 73.3324 4.44625 70.269 3.89139 67.055C3.18402 71.2674 2.79665 75.5874 2.79665 80C2.79665 98.1062 9.01139 114.75 19.4011 127.954C19.3487 125.398 19.6182 122.838 19.9588 120.283C18.9651 116.957 17.6392 114.502 15.5489 111.594C13.366 108.555 12.2956 105.495 11.9868 101.75C11.8139 99.6651 11.7997 97.5777 11.7855 95.4911C11.7655 92.5427 11.7455 89.5961 11.2776 86.662C10.8632 84.0687 9.83732 81.8224 8.79882 79.5486C8.31306 78.485 7.82453 77.4153 7.39455 76.3013ZM23.6163 36.7888C25.0685 32.7888 25.7983 28.6138 26.2774 24.3958C21.4006 29.1462 17.1461 34.5291 13.6486 40.4173C10.8724 50.328 9.66917 60.7074 12.8327 70.7397C13.2753 72.1441 13.8217 73.4699 14.4346 74.7481C12.8065 67.2159 13.8498 59.4264 16.9581 52.0075C17.8103 49.9737 18.7388 47.9753 19.6674 45.9768C21.0711 42.9557 22.4755 39.9331 23.6163 36.7888ZM139.771 55.6351C141.989 48.0384 142.508 39.3806 141.072 31.5443C126.845 13.7637 104.977 2.36351 80.4341 2.36351C60.4453 2.36351 42.225 9.92187 28.464 22.3308C31.1674 29.5397 26.2569 38.4433 22.7335 44.832C22.5509 45.1631 22.3717 45.4879 22.1978 45.8049C19.2289 51.2178 16.4023 56.4575 15.4797 62.6835C14.5777 68.7701 15.5723 74.6742 17.6991 80.349C18.8182 82.0065 20.0114 83.6144 21.2089 85.2281C22.8729 87.4704 24.5452 89.724 26.0388 92.1376C29.7384 98.1174 30.4233 104.795 29.6935 111.665C29.3747 114.666 28.5603 117.703 27.7423 120.752C26.4598 125.534 25.1684 130.349 25.7637 135.116C39.2177 148.461 57.5326 156.898 77.8161 157.572C73.5447 156.776 69.6289 154.477 66.3981 151.488C66.1445 151.307 65.8919 151.122 65.6448 150.933C65.57 151.06 65.4624 151.177 65.2781 151.259C62.8973 152.318 60.1505 151.461 57.7024 150.698C57.3691 150.594 57.0409 150.492 56.7204 150.396C53.0404 149.301 49.3585 147.35 46.5506 144.743C41.2874 139.857 37.0722 132.85 35.5733 125.781C33.5157 116.083 36.3611 107.293 39.8493 98.3429C40.2591 97.2915 40.7069 96.204 41.1663 95.0885C44.2229 87.6664 47.789 79.0073 44.0317 71.505C44.0248 71.4916 44.0192 71.4782 44.0142 71.4649C44.01 71.4539 44.0062 71.4429 44.0023 71.4319C43.9983 71.4201 43.9942 71.4084 43.9896 71.3965C43.9503 71.3447 43.9126 71.2913 43.875 71.2379C43.8195 71.1594 43.7641 71.0808 43.7033 71.0073C43.2458 70.4449 43.3796 69.7694 43.7529 69.338C43.97 68.8468 44.6324 68.5595 45.1798 69.0302C50.0378 73.207 53.5765 78.0997 55.7744 83.5462C55.8403 82.7891 55.9135 82.0319 55.9867 81.2747C56.1901 79.1703 56.3936 77.065 56.4397 74.9623C56.5389 70.4954 56.3386 66.0875 55.8568 61.6393C55.6407 59.6458 55.3252 57.5953 55.0052 55.5163C53.9936 48.9432 52.938 42.0842 54.8444 35.8419C55.0072 31.2131 56.0729 26.6096 58.4383 22.5993C58.9211 21.7825 59.4479 21.0171 59.9915 20.2704C61.0385 18.5581 62.253 16.9375 63.4872 15.4311C63.5743 15.3246 63.6644 15.2142 63.7572 15.1005C65.7234 12.69 68.9317 8.75676 72.0402 8.0786C72.1384 8.05708 72.2198 8.06831 72.2947 8.09076C72.3761 8.0393 72.479 8.01684 72.6025 8.04678C74.2266 8.43515 73.156 10.728 72.4848 12.1655C72.3378 12.4805 72.2099 12.7543 72.1337 12.9581C70.7452 16.6718 70.7864 19.768 70.9997 23.4723C71.3908 25.0152 72.0317 26.5207 72.9768 27.9579C74.6877 30.5579 76.8181 32.7891 78.9487 35.0206C80.7377 36.8943 82.527 38.7682 84.0682 40.8608C87.3328 45.294 87.4919 50.1025 86.3569 54.865C88.9693 49.3492 90.5169 43.3113 88.7082 37.5616C87.6201 35.5135 86.3494 33.5579 84.9506 31.7118C84.738 31.4315 84.5235 31.1519 84.3089 30.8722C82.7921 28.8954 81.2709 26.9127 80.4144 24.6531C79.9344 23.8269 79.5433 22.9333 79.2757 21.9518C78.8425 20.3602 81.2238 19.7296 81.7291 21.2753C82.9005 24.8589 86.5701 26.6652 90.1234 28.4144C92.1441 29.4091 94.1273 30.3854 95.592 31.6594C96.0841 32.0861 96.5398 32.5455 96.9787 33.0189C98.9735 34.3766 100.892 35.8138 102.528 37.6992C104.953 40.4912 107.232 43.3684 109.288 46.4487C113.369 52.5623 117.269 60.8103 116.758 68.3864C116.506 72.1235 115.619 75.4835 113.295 78.4168C113.013 78.7724 112.734 79.0905 112.452 79.4105C110.341 87.1586 113.024 95.7716 115.44 103.525C115.973 105.235 116.493 106.903 116.945 108.511C116.243 99.4283 118.057 91.6501 125.099 84.8945C126.007 84.0234 127.192 84.5362 127.618 85.3951C127.868 85.6767 128.018 86.0594 127.953 86.5142C127.162 92.0762 128.544 97.6366 129.918 103.166C130.653 106.123 131.386 109.071 131.783 112.006C132.713 118.887 132.816 125.701 130.256 132.263C128.441 136.917 125.839 141.406 122.547 145.209C130.952 139.769 138.235 132.753 143.984 124.573C143.842 123.388 143.738 122.205 143.634 121.025C143.368 118.006 143.103 115 142.208 112.035C141.112 108.391 139.774 104.811 138.19 101.337C135.18 94.7312 132.177 88.0749 132.898 80.625C133.495 74.4632 135.413 68.8175 137.352 63.1108C138.189 60.6458 139.03 58.1694 139.771 55.6351ZM153.212 102.691C153.571 103.113 153.93 103.535 154.285 103.964C156.733 96.4145 158.072 88.3659 158.072 80C158.072 75.9336 157.755 71.9401 157.153 68.0421C155.918 72.9394 153.409 77.5467 150.891 81.8667C148.182 86.5104 146.507 90.8809 148.718 96.1366C149.779 98.6574 151.488 100.665 153.212 102.691ZM149.986 114.498C151.47 111.512 152.762 108.415 153.857 105.227C149.264 100.942 145.2 94.2868 146.275 87.8793C146.753 85.0248 148.318 82.4423 149.839 79.9328C150.353 79.0834 150.864 78.2412 151.324 77.4007C153.573 73.2987 155.754 68.5623 156.365 63.7942C155.517 59.8044 154.357 55.9326 152.923 52.1946C152.938 55.0278 152.803 57.8508 152.637 60.7223C152.452 63.927 152.206 67.6604 150.949 70.6498C149.906 73.1322 147.792 74.9688 145.749 76.7443C145.106 77.303 144.47 77.8557 143.876 78.4206C141.279 80.8926 140.175 83.6547 140.01 86.6115C140.626 90.5582 142.496 94.0014 144.391 97.4883C145.44 99.4209 146.498 101.367 147.352 103.42C148.914 107.172 149.927 110.745 149.986 114.498ZM145.17 75.5696C151.859 69.7628 152.818 59.549 152.36 50.7705C152.308 50.6424 152.259 50.513 152.209 50.3835C152.145 50.2175 152.081 50.0502 152.012 49.8863C151.501 55.3198 150.24 60.4594 147.647 65.3521C146.749 67.0468 145.784 68.588 144.849 70.0816C142.868 73.2444 141.021 76.1951 140.219 79.9401C141.168 78.8123 142.34 77.8729 143.535 76.9153L143.537 76.9131C144.083 76.4756 144.634 76.0344 145.17 75.5696ZM151.606 48.9759C149.214 43.4966 146.222 38.3392 142.688 33.6066C143.788 39.5228 144.035 45.3839 143.095 51.4704C142.322 56.4821 140.542 61.2087 138.761 65.9361C137.239 69.9752 135.717 74.0157 134.824 78.2344C133.122 86.2704 135.742 92.434 138.657 99.2907C139.24 100.663 139.835 102.063 140.41 103.511C142.903 109.796 144.958 115.921 145.323 122.611C146.269 121.173 147.165 119.7 148.017 118.197C148.747 111.443 144.894 104.664 141.585 98.8414C141.27 98.2869 140.959 97.7395 140.658 97.2033C138.08 92.6073 137.176 88.0271 137.877 82.8042C138.587 77.5008 140.68 73.3118 143.792 69.047C148.34 62.8145 150.762 56.5577 151.606 48.9759ZM111.729 149.26C111.681 149.304 111.628 149.33 111.577 149.352C110.537 150.481 109.414 151.531 108.213 152.499C110.809 151.504 113.333 150.371 115.786 149.114C117.595 147.777 119.275 146.171 120.826 144.21C125.236 138.636 129.141 131.671 129.433 124.415C129.711 117.52 128.094 110.64 126.521 103.968C126.338 103.193 126.142 102.421 125.946 101.649L125.944 101.641C125.327 99.2019 124.71 96.7652 124.484 94.2456C124.376 93.0461 124.428 91.8924 124.562 90.749C121.714 97.16 122.349 104.476 122.975 111.694C123.353 116.053 123.729 120.376 123.332 124.443C122.4 134 118.908 142.763 111.729 149.26ZM70.3279 12.1226C65.6701 16.8646 62.4065 23.7137 66.5786 29.789C67.8645 31.6606 69.9114 32.7217 71.9575 33.7823C72.7224 34.1788 73.4871 34.5752 74.2119 35.0138C74.0107 34.7499 73.8161 34.4814 73.6299 34.2091C69.0292 27.448 67.4834 19.5808 70.3279 12.1226ZM77.9284 68.146C79.1082 66.4861 80.2741 64.8169 81.4175 63.1345C83.4806 58.1212 84.8467 51.8756 83.2037 46.6975C82.2053 43.5498 79.8913 41.1602 77.5776 38.771C77.3391 38.5247 77.1006 38.2784 76.8636 38.0313C75.6546 37.5821 74.4639 37.2187 73.314 36.8678C70.7616 36.0889 68.4102 35.3714 66.5066 33.9116C67.3582 35.4341 68.4067 36.8809 69.5225 38.4208C70.1745 39.3206 70.8496 40.2522 71.5218 41.2491C74.4177 45.5467 75.9578 50.4337 77.0254 55.4751C77.9143 59.6706 78.3167 63.8746 77.9284 68.146ZM86.3335 74.3691C90.1417 66.0005 93.2753 56.96 92.087 47.8522C90.9838 56.1255 85.705 64.0726 80.78 71.4872C79.0174 74.1407 77.2995 76.727 75.8353 79.2346C68.0682 92.5324 59.708 112.712 68.0018 127.41C67.0727 121.095 68.1169 114.766 70.9735 108.86C72.1539 106.42 73.459 104.047 74.7636 101.675C75.7971 99.7961 76.8305 97.9173 77.8011 96.0066C78.4668 94.695 79.0903 93.3199 79.7172 91.9373C79.9204 91.4893 80.1239 91.0404 80.3293 90.5928C81.1433 84.7186 83.6032 79.5752 86.3335 74.3691ZM96.275 57.2313C99.0278 52.6466 101 47.9186 98.69 42.1305C96.1403 35.7436 91.9073 33.033 86.1043 29.8779C86.1026 29.8773 86.1012 29.8764 86.1 29.8756C86.0992 29.8751 86.0985 29.8745 86.0977 29.8742C86.2211 30.0163 86.3448 30.1584 86.4684 30.3006C87.7321 31.7529 88.9982 33.208 90.0678 34.7958C92.974 39.112 95.6463 44.0009 96.407 49.2089C96.8215 52.0402 96.7279 54.6966 96.275 57.2313ZM102.043 82.3354C105.655 80.075 109.264 77.8166 111.6 73.8947C116.636 65.4409 113.079 54.8313 108.056 47.2749C106.047 44.2517 103.949 41.2996 101.536 38.5722C100.955 37.9153 100.336 37.3343 99.6986 36.7841C99.7168 36.8173 99.7339 36.8512 99.7509 36.8849C99.7645 36.912 99.7781 36.939 99.7922 36.9656C108.093 47.3984 105.97 63.099 100.43 74.3747C99.7872 75.684 99.136 76.9727 98.4901 78.251C96.5646 82.0616 94.6851 85.7812 93.2042 89.6721C93.215 89.6573 93.2255 89.6426 93.2358 89.6279C93.2516 89.6052 93.267 89.5825 93.2823 89.5598C93.3076 89.5223 93.3328 89.4849 93.3604 89.4475C95.6797 86.3173 98.8625 84.3255 102.043 82.3354ZM116.144 136.807C117.311 133.225 117.838 129.399 117.664 125.543C117.294 117.358 115.19 109.818 113.042 102.119C112.504 100.191 111.963 98.2529 111.446 96.2919C110.335 92.0814 109.523 86.5432 110.23 81.6253C109.448 82.3036 108.645 82.9156 107.806 83.4901C104.78 88.7869 104.579 94.4842 105.229 100.367C106.213 104.735 108.215 108.875 110.225 113.032C112.375 117.48 114.534 121.946 115.466 126.728C116.075 129.853 116.484 133.433 116.144 136.807ZM84.1047 154.874C82.7143 155.5 81.2397 155.84 79.7239 155.931C87.6481 157.462 96.4594 156.455 103.316 152.647C107.164 150.51 110.264 147.557 112.595 144.107C113.575 141.398 113.774 138.383 113.458 135.521C113.409 135.08 113.361 134.639 113.314 134.198C112.8 129.451 112.29 124.736 110.663 120.205C109.856 117.959 108.892 115.711 107.922 113.449C107.568 112.624 107.214 111.797 106.866 110.968C107.398 114.282 107.836 117.617 107.677 120.985C107.501 124.726 106.377 128.257 105.249 131.797L105.125 132.189C104.124 138.33 101.449 145.607 96.8346 149.442C95.2392 150.768 92.2282 152.773 89.4652 153.651C87.7978 154.367 86.0004 154.79 84.1047 154.874ZM74.0519 109.965C75.0577 105.16 77.3183 98.9932 80.0374 94.7612C80.0374 94.7029 80.039 94.6458 80.0407 94.5887C80.0421 94.5413 80.0435 94.4939 80.0439 94.4459C78.8417 96.5708 77.6827 98.7149 76.5176 100.87L76.3022 101.269C73.2509 106.914 70.5609 112.606 70.1117 119.093C69.6682 125.477 71.8006 132.342 75.5873 137.552C80.0589 143.704 85.3922 141.349 88.1412 136.735C86.4813 137.274 84.5464 137.258 82.6002 136.725C77.4493 135.316 75.0961 131.007 74.0416 126.091C72.8841 120.696 72.9206 115.372 74.0519 109.965ZM84.3393 114.919C82.4772 109.048 80.6114 103.166 80.1291 97.0498C80.1196 96.9295 80.1166 96.8125 80.1137 96.6956L80.1135 96.6926C80.1113 96.6033 80.1091 96.5136 80.1038 96.4229C77.0666 102.649 74.5459 109.036 74.3925 116.083C74.3176 119.505 74.8434 122.996 76.0215 126.222C77.1377 129.277 78.8191 131.718 82.0519 132.878C83.6874 133.463 86.7274 134.049 88.5464 132.965C88.1098 126.806 86.2264 120.868 84.3393 114.919ZM99.9569 142.45C104.291 134.163 103.644 126.736 102.149 117.952C101.697 115.297 100.933 112.592 100.165 109.871C98.93 105.498 97.6828 101.082 97.6972 96.757C97.7066 94.0622 98.3363 91.3834 99.4526 88.9235C96.4238 91.2917 94.0257 94.1081 92.4013 97.9443C91.1005 101.014 90.5771 104.225 90.0484 107.468L89.9985 107.774C89.876 111.939 89.9976 116.2 90.3999 120.4C93.3089 130.384 95.3618 141.516 89.3473 150.353C89.2265 150.53 89.1014 150.695 88.9759 150.86L88.9438 150.902L88.8916 150.971L88.9001 150.968C93.4482 149.237 97.1413 147.832 99.9569 142.45ZM104.13 105.44C103.886 104.317 103.643 103.195 103.41 102.072C102.181 96.1254 102.481 90.4823 104.817 85.3932C104.734 85.4431 104.649 85.4939 104.565 85.5451L104.435 85.6233C104.338 85.682 104.24 85.7409 104.143 85.7993C99.9539 91.6144 101.518 98.7198 103.015 105.514C103.208 106.391 103.4 107.264 103.578 108.126C104.753 113.816 105.681 119.899 105.624 125.806C106.164 122.956 106.468 120.079 106.159 116.916C105.782 113.042 104.955 109.238 104.13 105.44ZM95.4554 62.0919L95.4539 62.094C95.0578 62.6652 94.6616 63.2364 94.2708 63.8091C92.9197 66.9951 91.1279 70.0332 89.2378 73.0452C87.2187 77.528 85.2996 82.0566 84.4435 86.8725C83.1316 94.2466 84.8467 102.026 86.9679 109.238C86.661 99.5733 88.2273 89.9677 92.915 81.1621C93.8777 79.3536 94.9492 77.5418 96.0313 75.7121C98.9331 70.8055 101.911 65.7698 103.072 60.3237C104.346 54.3485 104.15 48.1722 101.941 42.7499C103.596 50.354 99.525 56.2242 95.4554 62.0919ZM61.3408 51.5771C64.2778 57.3268 67.1737 63.0026 68.4406 69.4063C69.0965 72.7214 69.6318 76.5249 69.4203 80.1806C71.4872 77.1528 73.6252 74.167 75.7651 71.1832C77.6439 63.2805 74.5974 53.8489 71.1223 47.1205C70.1243 45.1883 68.7899 43.4802 67.4591 41.7767C66.0536 39.9776 64.6519 38.1835 63.6547 36.1357C61.9396 32.611 61.861 29.0816 62.3007 25.324C62.1557 23.4189 62.4018 21.5598 62.9632 19.7811C61.381 21.8639 60.0252 24.1179 59.1447 26.7705C56.3948 35.0568 57.3969 43.8568 61.3408 51.5771ZM54.8743 119.242C53.9022 127.034 55.5817 134.362 59.722 141.012C63.635 147.299 71.9101 153.626 79.7211 151.68C84.1917 150.566 86.5506 147.151 87.6977 143.16C86.4701 144.109 84.9712 144.832 83.1335 145.22C75.4151 146.852 71.0016 138.306 69.1227 132.323C69.0778 132.179 69.0374 132.034 68.9971 131.89C68.972 131.8 68.9469 131.71 68.9206 131.62C60.5136 120.506 61.5494 103.6 66.2034 90.8239C64.2105 94.1025 62.3251 97.454 60.6774 100.911C59.5987 103.174 58.7442 105.515 57.8905 107.853C57.3653 109.292 56.8403 110.73 56.2638 112.148C55.7033 114.494 55.1728 116.845 54.8743 119.242ZM120.399 133.767C121.833 128.424 121.798 122.931 121.534 117.488C121.411 114.977 121.132 112.519 120.857 110.102C120.489 106.87 120.129 103.71 120.166 100.593C119.189 104.292 118.631 108.152 118.091 111.968C118.074 112.089 117.994 112.167 117.893 112.212C119.884 120.815 120.58 130.417 117.865 138.695C117.546 139.67 117.171 140.613 116.759 141.531C118.343 139.172 119.63 136.631 120.399 133.767ZM57.1584 54.3017C57.6461 57.4077 58.1233 60.4459 58.2792 63.2861C58.5417 68.0843 58.0103 72.7762 57.4787 77.4695C57.1537 80.3387 56.8286 83.2085 56.6848 86.1034C58.0547 90.4131 58.6264 95.0353 58.3981 99.8943C60.4369 94.7303 63.0624 90.0313 66.0135 85.3427C66.6713 84.2976 67.3534 83.2674 68.0364 82.2381C68.0841 81.745 68.1103 81.2529 68.0991 80.7626C68.061 79.1018 67.556 77.4148 67.0649 75.7744C66.8809 75.1597 66.6988 74.5515 66.544 73.9537C65.6486 70.4926 64.552 67.0896 63.2954 63.7408C62.3825 61.3097 61.2645 58.972 60.1494 56.6404C58.6345 53.473 57.1251 50.317 56.1431 46.9539C56.389 49.4031 56.7769 51.8731 57.1584 54.3017ZM43.2252 134.151C43.4975 134.642 43.7782 135.133 44.072 135.62C46.3185 139.353 48.5782 142.972 52.2086 145.549C55.0727 147.585 60.3143 149.962 64.0991 149.654C63.0577 148.727 62.1146 147.74 61.3043 146.725C57.4381 141.884 54.6413 136.262 53.3688 130.2C51.9709 123.535 53.1836 117.112 54.8781 110.637C56.6493 103.865 56.9534 96.4538 55.4563 89.6318C54.4673 85.1294 52.2816 81.0433 49.6102 77.2819C52.0243 85.7853 49.8788 95.8868 47.1887 103.676C46.903 104.503 46.6155 105.319 46.3305 106.127C44.4118 111.569 42.6119 116.675 42.3129 122.667C42.122 126.477 42.2633 130.438 43.2252 134.151ZM44.5431 104.466C45.8761 100.671 47.2117 96.8689 47.6556 92.8702C47.9008 90.6564 48.0346 88.0982 47.9457 85.4718C47.0665 89.6799 45.3341 93.8545 43.5966 98.0414C41.4526 103.208 39.3008 108.393 38.7349 113.682C38.1707 118.955 38.9108 123.875 40.639 128.548C40.0832 122.719 40.9337 116.568 42.4112 111.06C43.0066 108.84 43.7744 106.654 44.5431 104.466Z" fill="url(#paint12_linear_1049_53879)"/>
</g>
</g>
<defs>
<linearGradient id="paint0_linear_1049_53879" x1="70" y1="-14" x2="70" y2="146" gradientUnits="userSpaceOnUse">
<stop stop-color="white"/>
<stop offset="1" stop-color="white" stop-opacity="0"/>
</linearGradient>
<linearGradient id="paint1_linear_1049_53879" x1="16.2485" y1="31.4457" x2="93.0297" y2="108.227" gradientUnits="userSpaceOnUse">
<stop stop-color="#EA5C3D"/>
<stop offset="1" stop-color="#559D3E"/>
</linearGradient>
<linearGradient id="paint2_linear_1049_53879" x1="16.2485" y1="31.4457" x2="93.0297" y2="108.227" gradientUnits="userSpaceOnUse">
<stop stop-color="#EA5C3D"/>
<stop offset="1" stop-color="#559D3E"/>
</linearGradient>
<linearGradient id="paint3_linear_1049_53879" x1="16.2485" y1="31.4457" x2="93.0297" y2="108.227" gradientUnits="userSpaceOnUse">
<stop stop-color="#EA5C3D"/>
<stop offset="1" stop-color="#559D3E"/>
</linearGradient>
<linearGradient id="paint4_linear_1049_53879" x1="16.2485" y1="31.4457" x2="93.0297" y2="108.227" gradientUnits="userSpaceOnUse">
<stop stop-color="#EA5C3D"/>
<stop offset="1" stop-color="#559D3E"/>
</linearGradient>
<linearGradient id="paint5_linear_1049_53879" x1="16.2485" y1="31.4457" x2="93.0297" y2="108.227" gradientUnits="userSpaceOnUse">
<stop stop-color="#EA5C3D"/>
<stop offset="1" stop-color="#559D3E"/>
</linearGradient>
<linearGradient id="paint6_linear_1049_53879" x1="16.2485" y1="31.4457" x2="93.0297" y2="108.227" gradientUnits="userSpaceOnUse">
<stop stop-color="#EA5C3D"/>
<stop offset="1" stop-color="#559D3E"/>
</linearGradient>
<linearGradient id="paint7_linear_1049_53879" x1="16.2485" y1="31.4457" x2="93.0297" y2="108.227" gradientUnits="userSpaceOnUse">
<stop stop-color="#EA5C3D"/>
<stop offset="1" stop-color="#559D3E"/>
</linearGradient>
<linearGradient id="paint8_linear_1049_53879" x1="16.2485" y1="31.4457" x2="93.0297" y2="108.227" gradientUnits="userSpaceOnUse">
<stop stop-color="#EA5C3D"/>
<stop offset="1" stop-color="#559D3E"/>
</linearGradient>
<linearGradient id="paint9_linear_1049_53879" x1="16.2485" y1="31.4457" x2="93.0297" y2="108.227" gradientUnits="userSpaceOnUse">
<stop stop-color="#EA5C3D"/>
<stop offset="1" stop-color="#559D3E"/>
</linearGradient>
<linearGradient id="paint10_linear_1049_53879" x1="16.2485" y1="31.4457" x2="93.0297" y2="108.227" gradientUnits="userSpaceOnUse">
<stop stop-color="#EA5C3D"/>
<stop offset="1" stop-color="#559D3E"/>
</linearGradient>
<linearGradient id="paint11_linear_1049_53879" x1="16.2485" y1="31.4457" x2="93.0297" y2="108.227" gradientUnits="userSpaceOnUse">
<stop stop-color="#EA5C3D"/>
<stop offset="1" stop-color="#559D3E"/>
</linearGradient>
<linearGradient id="paint12_linear_1049_53879" x1="16.2485" y1="31.4457" x2="93.0297" y2="108.227" gradientUnits="userSpaceOnUse">
<stop stop-color="#EA5C3D"/>
<stop offset="1" stop-color="#559D3E"/>
</linearGradient>
<clipPath id="clip0_1049_53879">
<rect width="160" height="146" fill="white"/>
</clipPath>
</defs>
</svg>
