<svg width="16" height="16" viewBox="0 0 16 16" fill="none" xmlns="http://www.w3.org/2000/svg">
<path fill-rule="evenodd" clip-rule="evenodd" d="M12.9923 5.97777C12.3379 8.09722 10.8656 9.44455 8.47055 9.44455C6.01666 9.44455 4.54432 8.0496 3.92921 5.84137L3 5.06025L3.62329 4.10541C3.59384 3.74895 3.57748 3.38091 3.57748 3L13.3931 3.0103C13.3931 3.38348 13.3767 3.7438 13.3456 4.09382L14 5.09242L12.9923 5.97777ZM5.87269 4.06937L5.06454 5.12459L5.89233 6.11675L6.64976 5.09885L5.87269 4.06937ZM8.53763 4.06937L7.6166 5.20051L8.57525 6.34967L9.45375 5.16834L8.53763 4.06937ZM11.2631 4.06937L10.4631 5.12459L11.2811 6.11675L12.0385 5.09885L11.2631 4.06937ZM7.68203 11.9874L7.87998 10.1433H9.09221L9.3425 11.9809C13.3358 12.7415 13.2409 14 8.60797 14C3.52841 14 3.42861 12.9023 7.68203 11.9874Z" fill="currentColor"/>
</svg>
