<svg width="64" height="64" viewBox="0 0 64 64" fill="none" xmlns="http://www.w3.org/2000/svg">
<path fill-rule="evenodd" clip-rule="evenodd" d="M48.2024 30.9777H32.0952C28.7698 30.9777 27.996 31.2935 27.5992 32.4934C23.873 30.4725 24.4246 24.6268 30.9048 23.415C33.4444 22.9414 43.8571 20.8139 43.8571 20.8139L45.496 23.5769H49.2183C51.996 23.5769 55.3135 23.9242 57 28.0213C55.6587 29.5923 53.9762 30.9777 48.2024 30.9777ZM48.3254 25.5978C46.1032 25.5978 45.996 28.941 48.3651 28.941C50.5238 28.941 50.5397 25.5978 48.3254 25.5978V25.5978ZM52.7143 26.1859C52.5583 26.1789 52.4025 26.2036 52.2564 26.2585C52.1104 26.3135 51.9771 26.3975 51.8649 26.5055C51.7526 26.6135 51.6637 26.7432 51.6037 26.8865C51.5436 27.0299 51.5136 27.184 51.5155 27.3393C51.5174 27.4946 51.5511 27.6479 51.6147 27.7898C51.6782 27.9317 51.7703 28.0591 51.8851 28.1644C52 28.2696 52.1352 28.3504 52.2826 28.4018C52.4299 28.4533 52.5863 28.4742 52.7421 28.4634C54.2143 28.4634 54.2262 26.1859 52.7143 26.1859ZM24.6349 22.7717L25.2579 17.6404L23.5992 17.1312L24.1151 12L27.9881 12.6197L26.7579 15.5879L28.3452 16.176L24.6349 22.7717ZM30.7143 34.5617H33.2857C39.0397 34.5617 41.7619 40.5336 38.246 42.9532C37.8214 41.0389 35.7659 41.2244 32.0913 41.2244H29.7103C20.8611 41.2244 18.631 33.9183 23.2064 28.6292C23.8254 33.5946 25.1349 34.5617 30.7143 34.5617V34.5617ZM14.6825 22.298L9 16.4681L13.3651 12.7578L16.1429 17.4944L17.9921 16.6063L21.3968 25.8899L16.7302 21.177L14.6825 22.298ZM12.5992 27.1648L13.1706 25.5859L19.8571 29.1976L14.6984 28.645L14.2063 30.2988L9.04762 29.8488L9.5873 25.9807L12.5992 27.1648ZM24.7698 48.1634C27.8056 47.5516 31.1508 46.8885 34.0952 46.332C39.746 45.2702 43.0397 43.2729 40.869 36.7563C47.9127 38.3351 47.3968 50.062 37.4048 50.058H35.3254C34.8651 50.6659 34.3294 51.3803 33.8929 52C26.8016 49.8528 15.9365 52.6947 10.7103 50.1172C14.7262 49.2686 21.4246 45.6807 21.4246 45.6807L24.7698 48.1634Z" fill="currentColor"/>
</svg>
