<svg width="64" height="64" viewBox="0 0 64 64" fill="none" xmlns="http://www.w3.org/2000/svg">
<path fill-rule="evenodd" clip-rule="evenodd" d="M42.6851 23.621C42.6851 23.621 42.8799 29.3671 42.9462 31.6614C43.0623 35.7247 41.8396 38.6634 39.415 40.3954L39.8792 55.9138L37.8483 56L35.49 41.9755C34.5589 42.1447 33.6141 42.2285 32.6675 42.2259C27.6442 42.2259 25.8537 42.1808 25.8537 42.1808L17.8255 46.7242L15.9646 55.7168L14 55.7948L14.6217 45.2097C17.9872 41.8114 18.7208 37.2679 16.8557 34.4318L14.5637 34.7109C14.5637 30.6969 17.9208 28.6817 21.7381 28.6817C25.1491 28.6817 34.0311 28.854 34.0311 28.854L37.5665 20.235C35.2579 19.7917 33.5752 18.4373 33.7368 16.656L36.6049 16.5862C33.3514 12.761 35.6724 8.10671 35.6724 8.10671L36.6298 8.51714C36.2305 9.56893 36.1826 10.7198 36.493 11.8006C37.0105 11.168 37.5971 10.594 38.242 10.0891L38.8264 10.4257C38.8264 10.4257 37.6121 12.4203 37.3136 13.6516C38.0461 14.7518 38.9811 15.7055 40.0698 16.4631L44.6289 16.3523C44.6289 17.6944 46.5355 18.6548 48.8275 18.6548C48.8109 18.7 50.6511 23.621 42.6851 23.621ZM21.8624 35.306C21.6867 35.2983 21.5113 35.3262 21.3468 35.3879C21.1824 35.4496 21.0324 35.5439 20.906 35.665C20.7796 35.7861 20.6795 35.9314 20.6118 36.0922C20.5441 36.2529 20.5102 36.4256 20.5121 36.5997C20.5141 36.7738 20.5519 36.9457 20.6233 37.1049C20.6946 37.2641 20.798 37.4072 20.9271 37.5254C21.0562 37.6437 21.2083 37.7346 21.3741 37.7926C21.5399 37.8507 21.7159 37.8746 21.8914 37.863C23.5493 37.863 23.5783 35.306 21.8624 35.306ZM24.4072 31.5013C24.2315 31.4936 24.0561 31.5215 23.8917 31.5832C23.7272 31.6449 23.5772 31.7392 23.4508 31.8603C23.3244 31.9814 23.2243 32.1267 23.1566 32.2875C23.0889 32.4482 23.055 32.6209 23.0569 32.795C23.0589 32.9691 23.0967 33.141 23.1681 33.3002C23.2395 33.4594 23.3428 33.6025 23.4719 33.7207C23.601 33.839 23.7531 33.9299 23.9189 33.9879C24.0847 34.046 24.2608 34.0699 24.4362 34.0583C26.1065 34.0419 26.1148 31.5013 24.4072 31.5013ZM29.2564 33.4714C29.079 33.4601 28.9011 33.4852 28.7339 33.5453C28.5667 33.6053 28.4139 33.699 28.2851 33.8204C28.1562 33.9418 28.0542 34.0882 27.9852 34.2506C27.9163 34.4129 27.8821 34.5876 27.8847 34.7637C27.8873 34.9398 27.9266 35.1135 28.0002 35.2738C28.0739 35.434 28.1802 35.5775 28.3126 35.6951C28.4449 35.8128 28.6004 35.902 28.7693 35.9572C28.9381 36.0125 29.1167 36.0325 29.2938 36.0161C30.9516 36.0161 30.964 33.455 29.2647 33.455L29.2564 33.4714ZM42.1919 15.2605C42.5313 14.6803 42.8091 14.0669 43.0208 13.43C42.4094 12.5955 41.7287 11.813 40.9858 11.0906L41.4624 10.6145C42.1249 10.9028 42.7601 11.249 43.3607 11.6487C43.4468 10.598 43.1786 9.54859 42.5981 8.6649L43.4726 8C44.2667 9.02056 44.7844 10.2251 44.9766 11.4993C45.1688 12.7735 45.0292 14.0752 44.5709 15.2811L42.1919 15.2605ZM24.5523 55.8112L22.3805 55.9466L20.0222 47.2865L23.1348 44.9963L24.5523 55.8112ZM34.1471 55.8112L31.9919 55.9056L31.279 43.7691L34.6445 44.0893L34.1471 55.8112Z" fill="currentColor"/>
</svg>
