<svg width="64" height="64" viewBox="0 0 64 64" fill="none" xmlns="http://www.w3.org/2000/svg">
<path fill-rule="evenodd" clip-rule="evenodd" d="M50.8847 23.1948L50.6282 32.2323L47.2096 37.5689L46.7319 52H44.8214L42.6411 38.7178L40.3016 38.7485L39.7001 31.5439L46.1658 29.4391L45.6926 16.4068C48.3948 14.78 52.123 14.2976 57.0452 16.4068L57.7882 27.7333L54.6925 28.812L50.8847 23.1948ZM37.1749 23.1948L36.9183 32.2323L40.5404 52H38.6299L32.3853 38.7222L18.8037 38.8537L14.0716 43.0896L12.5547 51.8027L10.2903 51.8772L10.3876 41.055L13.6161 34.039L13.647 28.3691C11.9709 27.4658 9.38815 27.7465 9.38815 34.8897L4.27571 36.1218C2.21481 23.5851 12.2761 22.9229 15.5797 26.4617L26.1937 26.5976C26.1937 22.0284 31.0364 11.1492 43.3399 16.4024L44.0828 27.7289L40.9871 28.8076L37.1749 23.1948ZM25.9682 40.7349L21.612 43.2782L22.5717 51.7062L20.2322 51.9956L17.729 42.4538L18.9496 40.8796L25.9682 40.7349ZM31.2221 40.8796L32.4958 43.0721L29.6345 51.6887H27.8345L28.2767 40.8621L31.2221 40.8796ZM56.4924 33.4689L59 43.1598L57.0364 43.9096L53.9406 37.5338L49.6021 38.4108L52.3662 33.3417L56.4924 33.4689Z" fill="currentColor"/>
</svg>
