<svg width="64" height="64" viewBox="0 0 64 64" fill="none" xmlns="http://www.w3.org/2000/svg">
<path fill-rule="evenodd" clip-rule="evenodd" d="M50.9435 41.4428L46.5955 42.3253L49.3628 37.2287L53.4895 37.3743L56 47.1218L54.0341 47.8631L50.9435 41.4428ZM47.8751 27.0135L47.6183 36.1079L44.1913 41.4825L43.7131 56H41.8003L39.768 42.6386L27.8131 42.7665L22.398 47.0336L21.6674 55.8058L19.4005 55.8764L18.7319 44.9949L21.9641 37.9347L21.9951 33.4559C20.3568 32.3307 17.3947 32.1321 17.3947 39.8101L12.2763 41.05C10.2129 28.4476 20.2771 27.7592 23.5758 31.3158L26.5379 31.254C25.176 29.9714 24.1551 28.3717 23.5669 26.5987L26.4405 26.2898C24.6694 25.041 23.5094 22.2523 23.2171 19.8783L27.1357 20.2798C24.4215 18.8943 23.5935 15.7172 24.6252 12.2003L27.8663 14.0933C26.0952 11.6796 25.5993 8.51137 27.8663 5.70935L30.0801 8.42753C30.2041 6.01382 31.7139 3.49863 35.7697 3C31.7405 15.3553 41.4726 21.6742 40.7288 29.1315L41.7427 29.1624C41.7427 29.1624 42.9205 24.816 41.3974 21.3874C44.1603 18.934 48.2825 17.7293 54.0385 20.2004L54.7868 31.5806L51.6874 32.6616L47.8751 27.0135ZM35.0347 44.664L30.669 47.2233L31.6298 55.7088L29.292 56L26.7593 46.4158L27.9814 44.8272L35.0347 44.664Z" fill="currentColor"/>
</svg>
