<svg width="24" height="24" viewBox="0 0 24 24" fill="none" xmlns="http://www.w3.org/2000/svg">
<path d="M15 12C15 13.6569 13.6569 15 12 15C10.3431 15 9 13.6569 9 12C9 10.3431 10.3431 9 12 9C13.6569 9 15 10.3431 15 12Z" stroke="#261E1E"/>
<path d="M7.12132 7.05025C9.85499 4.31658 14.2872 4.31658 17.0208 7.05025L19.1422 9.17157C20.4755 10.5049 21.1422 11.1716 21.1422 12C21.1422 12.8284 20.4755 13.4951 19.1422 14.8284L17.0208 16.9497C14.2872 19.6834 9.85499 19.6834 7.12132 16.9497L5 14.8284C3.66666 13.4951 3 12.8284 3 12C3 11.1716 3.66666 10.5049 5 9.17157L7.12132 7.05025Z" stroke="#261E1E" stroke-linejoin="round"/>
</svg>
