<svg width="24" height="24" viewBox="0 0 24 24" fill="none" xmlns="http://www.w3.org/2000/svg">
<path d="M17 11V9.27307C17 8.75532 17.2588 8.27182 17.6896 7.98462L17.7388 7.9518C18.2041 7.64161 18.806 7.62564 19.287 7.91072C19.729 8.17262 20 8.64823 20 9.16195V13C20 14.6997 19.4699 16.2756 18.5661 17.5714C17.1204 19.6439 14.7186 21 12 21C9.28144 21 6.87959 19.6439 5.43393 17.5714C4.53008 16.2756 4 14.6997 4 13V12.2117C3.99999 11.438 4.44631 10.7336 5.14598 10.4032C5.68669 10.1479 6.31329 10.1479 6.854 10.4032C7.55367 10.7336 7.99999 11.438 8 12.2117V13" stroke="#261E1E" stroke-linecap="round"/>
<path d="M8 12V5.80274C8 5.30121 8.25065 4.83286 8.66795 4.55466C9.1718 4.21876 9.8282 4.21876 10.3321 4.55466C10.7493 4.83286 11 5.30121 11 5.80274V11" stroke="#261E1E" stroke-linecap="round" stroke-linejoin="round"/>
<path d="M14 11V5.80274C14 5.30121 14.2507 4.83286 14.6679 4.55466C15.1718 4.21876 15.8282 4.21876 16.3321 4.55466C16.7493 4.83286 17 5.30121 17 5.80274V8.99996" stroke="#261E1E" stroke-linecap="round" stroke-linejoin="round"/>
<path d="M11 5.99996V4.80274C11 4.30121 11.2507 3.83286 11.6679 3.55466C12.1718 3.21876 12.8282 3.21876 13.3321 3.55466C13.7493 3.83286 14 4.30121 14 4.80274V5.99996" stroke="#261E1E" stroke-linecap="round" stroke-linejoin="round"/>
</svg>
