<svg width="24" height="24" viewBox="0 0 24 24" fill="none" xmlns="http://www.w3.org/2000/svg">
<path d="M3 12C3 4.5885 4.5885 3 12 3C19.4115 3 21 4.5885 21 12C21 19.4115 19.4115 21 12 21C4.5885 21 3 19.4115 3 12Z" stroke="currentColor"/>
<path d="M11.4582 12.8301C11.4582 12.5034 11.5215 12.2234 11.6482 11.9901C11.7748 11.7567 12.0082 11.4901 12.3482 11.1901C12.5948 10.9767 12.7682 10.7934 12.8682 10.6401C12.9682 10.4867 13.0182 10.3301 13.0182 10.1701V10.0401C13.0182 9.7734 12.9248 9.56007 12.7382 9.40007C12.5515 9.24007 12.3015 9.16007 11.9882 9.16007C11.6415 9.16007 11.3715 9.25007 11.1782 9.43007C10.9915 9.61007 10.8982 9.86007 10.8982 10.1801V10.4801H9.99817V10.1801C9.99817 9.6134 10.1782 9.1634 10.5382 8.83007C10.8982 8.49007 11.3815 8.32007 11.9882 8.32007C12.3682 8.32007 12.7048 8.3934 12.9982 8.54007C13.2915 8.68007 13.5182 8.87674 13.6782 9.13007C13.8448 9.3834 13.9282 9.6734 13.9282 10.0001V10.1301C13.9282 10.4034 13.8582 10.6601 13.7182 10.9001C13.5848 11.1401 13.3748 11.3834 13.0882 11.6301C12.7815 11.8901 12.5748 12.1034 12.4682 12.2701C12.3682 12.4367 12.3182 12.6367 12.3182 12.8701V13.2001H11.4582V12.8301ZM11.8982 15.1201C11.7315 15.1201 11.5915 15.0634 11.4782 14.9501C11.3648 14.8367 11.3082 14.6967 11.3082 14.5301C11.3082 14.3567 11.3615 14.2167 11.4682 14.1101C11.5815 13.9967 11.7248 13.9401 11.8982 13.9401C12.0715 13.9401 12.2115 13.9967 12.3182 14.1101C12.4315 14.2167 12.4882 14.3567 12.4882 14.5301C12.4882 14.7034 12.4348 14.8467 12.3282 14.9601C12.2215 15.0667 12.0782 15.1201 11.8982 15.1201Z" fill="currentColor"/>
</svg>
