<svg width="24" height="24" viewBox="0 0 24 24" fill="none" xmlns="http://www.w3.org/2000/svg">
<path d="M3 12C3 4.5885 4.5885 3 12 3C19.4115 3 21 4.5885 21 12C21 19.4115 19.4115 21 12 21C4.5885 21 3 19.4115 3 12Z" stroke="#261E1E"/>
<path d="M13.3903 11.6301C13.6903 11.7767 13.9236 11.9734 14.0903 12.2201C14.2569 12.4601 14.3403 12.7367 14.3403 13.0501V13.2701C14.3403 13.6367 14.2403 13.9601 14.0403 14.2401C13.8469 14.5201 13.5736 14.7367 13.2203 14.8901C12.8669 15.0434 12.4603 15.1201 12.0003 15.1201C11.5336 15.1201 11.1236 15.0434 10.7703 14.8901C10.4169 14.7367 10.1436 14.5201 9.95028 14.2401C9.75694 13.9601 9.66028 13.6367 9.66028 13.2701V13.0501C9.66028 12.7367 9.74361 12.4601 9.91028 12.2201C10.0769 11.9734 10.3103 11.7767 10.6103 11.6301C10.3503 11.4834 10.1469 11.2967 10.0003 11.0701C9.86028 10.8367 9.79028 10.5734 9.79028 10.2801V10.0901C9.79028 9.55007 9.99028 9.12007 10.3903 8.80007C10.7969 8.48007 11.3336 8.32007 12.0003 8.32007C12.6669 8.32007 13.2003 8.48007 13.6003 8.80007C14.0003 9.12007 14.2003 9.55007 14.2003 10.0901V10.2801C14.2003 10.5734 14.1303 10.8367 13.9903 11.0701C13.8503 11.2967 13.6503 11.4834 13.3903 11.6301ZM10.7203 10.2601C10.7203 10.9134 11.1469 11.2401 12.0003 11.2401C12.8536 11.2401 13.2803 10.9134 13.2803 10.2601V10.1401C13.2803 9.82674 13.1703 9.58673 12.9503 9.42007C12.7369 9.2534 12.4203 9.17007 12.0003 9.17007C11.5803 9.17007 11.2603 9.2534 11.0403 9.42007C10.8269 9.58673 10.7203 9.82674 10.7203 10.1401V10.2601ZM13.4103 13.0901C13.4103 12.7767 13.2869 12.5334 13.0403 12.3601C12.7936 12.1867 12.4469 12.1001 12.0003 12.1001C11.5536 12.1001 11.2036 12.1867 10.9503 12.3601C10.7036 12.5334 10.5803 12.7767 10.5803 13.0901V13.2901C10.5803 13.5967 10.7036 13.8367 10.9503 14.0101C11.1969 14.1767 11.5469 14.2601 12.0003 14.2601C12.4469 14.2601 12.7936 14.1767 13.0403 14.0101C13.2869 13.8367 13.4103 13.5967 13.4103 13.2901V13.0901Z" fill="#261E1E"/>
</svg>
