<svg width="24" height="24" viewBox="0 0 24 24" fill="none" xmlns="http://www.w3.org/2000/svg">
<path d="M3 12C3 4.5885 4.5885 3 12 3C19.4115 3 21 4.5885 21 12C21 19.4115 19.4115 21 12 21C4.5885 21 3 19.4115 3 12Z" stroke="#261E1E"/>
<path d="M12.0054 15.1201C11.5588 15.1201 11.1588 15.0267 10.8054 14.8401C10.4521 14.6534 10.1754 14.3967 9.97542 14.0701C9.78209 13.7367 9.68542 13.3634 9.68542 12.9501V10.5101C9.68542 10.0901 9.78209 9.71674 9.97542 9.39008C10.1754 9.05675 10.4521 8.79675 10.8054 8.61008C11.1588 8.42341 11.5588 8.33008 12.0054 8.33008C12.4521 8.33008 12.8488 8.42341 13.1954 8.61008C13.5488 8.79675 13.8221 9.05675 14.0154 9.39008C14.2154 9.72341 14.3154 10.0967 14.3154 10.5101V12.9501C14.3154 13.3634 14.2154 13.7367 14.0154 14.0701C13.8221 14.3967 13.5488 14.6534 13.1954 14.8401C12.8488 15.0267 12.4521 15.1201 12.0054 15.1201ZM12.0054 14.2501C12.4321 14.2501 12.7688 14.1301 13.0154 13.8901C13.2621 13.6434 13.3854 13.3101 13.3854 12.8901V10.5601C13.3854 10.1467 13.2588 9.81675 13.0054 9.57008C12.7588 9.32341 12.4254 9.20008 12.0054 9.20008C11.5788 9.20008 11.2388 9.32341 10.9854 9.57008C10.7388 9.81008 10.6154 10.1401 10.6154 10.5601V12.8901C10.6154 13.3034 10.7388 13.6334 10.9854 13.8801C11.2388 14.1267 11.5788 14.2501 12.0054 14.2501Z" fill="#261E1E"/>
</svg>
