<svg width="24" height="24" viewBox="0 0 24 24" fill="none" xmlns="http://www.w3.org/2000/svg">
<path d="M3 12C3 4.5885 4.5885 3 12 3C19.4115 3 21 4.5885 21 12C21 19.4115 19.4115 21 12 21C4.5885 21 3 19.4115 3 12Z" stroke="currentColor"/>
<path d="M12.1222 10.7899C12.7755 10.7899 13.2988 10.9666 13.6922 11.3199C14.0855 11.6666 14.2822 12.1299 14.2822 12.7099V13.0999C14.2822 13.7133 14.0788 14.2033 13.6722 14.5699C13.2722 14.9366 12.7322 15.1199 12.0522 15.1199C11.3655 15.1199 10.8222 14.9633 10.4222 14.6499C10.0288 14.3366 9.83215 13.9066 9.83215 13.3599V13.2599H10.7522V13.3599C10.7522 13.6399 10.8655 13.8599 11.0922 14.0199C11.3188 14.1733 11.6288 14.2499 12.0222 14.2499C12.4355 14.2499 12.7588 14.1533 12.9922 13.9599C13.2255 13.7599 13.3422 13.4833 13.3422 13.1299V12.7399C13.3422 12.4066 13.2222 12.1433 12.9822 11.9499C12.7488 11.7499 12.4288 11.6499 12.0222 11.6499C11.6688 11.6499 11.3788 11.7233 11.1522 11.8699C10.9255 12.0166 10.7955 12.2133 10.7622 12.4599H9.87215L10.0722 8.43994H14.0122V9.30994H10.9122L10.8222 11.1699C11.1688 10.9166 11.6022 10.7899 12.1222 10.7899Z" fill="currentColor"/>
</svg>
