<svg width="24" height="24" viewBox="0 0 24 24" fill="none" xmlns="http://www.w3.org/2000/svg">
<path d="M3 12C3 4.5885 4.5885 3 12 3C19.4115 3 21 4.5885 21 12C21 19.4115 19.4115 21 12 21C4.5885 21 3 19.4115 3 12Z" stroke="#261E1E"/>
<path d="M14.6995 13.5599H13.6395V14.9999H12.7195V13.5599H9.43945V12.6899C9.75945 11.9899 10.0228 11.2999 10.2295 10.6199C10.4361 9.93994 10.6028 9.21327 10.7295 8.43994H11.6795V8.58994C11.4395 10.0433 11.0328 11.4099 10.4595 12.6899H12.7195V9.59994H13.6395V12.6899H14.6995V13.5599Z" fill="#261E1E"/>
</svg>
