<svg width="24" height="24" viewBox="0 0 24 24" fill="none" xmlns="http://www.w3.org/2000/svg">
<path d="M3 12C3 4.5885 4.5885 3 12 3C19.4115 3 21 4.5885 21 12C21 19.4115 19.4115 21 12 21C4.5885 21 3 19.4115 3 12Z" stroke="#261E1E"/>
<path d="M13.8951 15.1201C13.4484 15.1201 13.0484 15.0267 12.6951 14.8401C12.3417 14.6534 12.0651 14.3967 11.8651 14.0701C11.6717 13.7367 11.5751 13.3634 11.5751 12.9501V10.5101C11.5751 10.0901 11.6717 9.71674 11.8651 9.39008C12.0651 9.05675 12.3417 8.79675 12.6951 8.61008C13.0484 8.42341 13.4484 8.33008 13.8951 8.33008C14.3417 8.33008 14.7384 8.42341 15.0851 8.61008C15.4384 8.79675 15.7117 9.05675 15.9051 9.39008C16.1051 9.72341 16.2051 10.0967 16.2051 10.5101V12.9501C16.2051 13.3634 16.1051 13.7367 15.9051 14.0701C15.7117 14.3967 15.4384 14.6534 15.0851 14.8401C14.7384 15.0267 14.3417 15.1201 13.8951 15.1201ZM13.8951 14.2501C14.3217 14.2501 14.6584 14.1301 14.9051 13.8901C15.1517 13.6434 15.2751 13.3101 15.2751 12.8901V10.5601C15.2751 10.1467 15.1484 9.81675 14.8951 9.57008C14.6484 9.32341 14.3151 9.20008 13.8951 9.20008C13.4684 9.20008 13.1284 9.32341 12.8751 9.57008C12.6284 9.81008 12.5051 10.1401 12.5051 10.5601V12.8901C12.5051 13.3034 12.6284 13.6334 12.8751 13.8801C13.1284 14.1267 13.4684 14.2501 13.8951 14.2501Z" fill="#261E1E"/>
<path d="M10.0158 15.0002H9.08582V9.88019C8.84582 9.97352 8.56249 10.0202 8.23582 10.0202H7.46582V9.16019H8.19582C8.48915 9.16019 8.70915 9.10019 8.85582 8.98019C9.00915 8.85352 9.08582 8.67352 9.08582 8.44019H10.0158V15.0002Z" fill="#261E1E"/>
</svg>
