<svg width="24" height="24" viewBox="0 0 24 24" fill="none" xmlns="http://www.w3.org/2000/svg">
<path d="M3 12C3 4.5885 4.5885 3 12 3C19.4115 3 21 4.5885 21 12C21 19.4115 19.4115 21 12 21C4.5885 21 3 19.4115 3 12Z" stroke="#261E1E"/>
<path d="M14.84 14.9999H13.91V9.87994C13.67 9.97327 13.3867 10.0199 13.06 10.0199H12.29V9.15994H13.02C13.3134 9.15994 13.5334 9.09994 13.68 8.97994C13.8334 8.85327 13.91 8.67327 13.91 8.43994H14.84V14.9999Z" fill="#261E1E"/>
<path d="M11.0607 14.9999H10.1307V9.87994C9.89074 9.97327 9.60741 10.0199 9.28074 10.0199H8.51074V9.15994H9.24074C9.53408 9.15994 9.75408 9.09994 9.90074 8.97994C10.0541 8.85327 10.1307 8.67327 10.1307 8.43994H11.0607V14.9999Z" fill="#261E1E"/>
</svg>
