<svg width="24" height="24" viewBox="0 0 24 24" fill="none" xmlns="http://www.w3.org/2000/svg">
<path d="M3 12C3 4.5885 4.5885 3 12 3C19.4115 3 21 4.5885 21 12C21 19.4115 19.4115 21 12 21C4.5885 21 3 19.4115 3 12Z" stroke="currentColor"/>
<path d="M12.1733 10.8801C12.6 10.8801 12.9766 10.9634 13.3033 11.1301C13.6366 11.2967 13.8933 11.5301 14.0733 11.8301C14.26 12.1301 14.3533 12.4701 14.3533 12.8501V13.1201C14.3533 13.5067 14.2566 13.8534 14.0633 14.1601C13.8766 14.4601 13.6133 14.6967 13.2733 14.8701C12.9333 15.0367 12.5433 15.1201 12.1033 15.1201C11.65 15.1201 11.2466 15.0301 10.8933 14.8501C10.54 14.6701 10.2633 14.4167 10.0633 14.0901C9.86998 13.7634 9.77332 13.3901 9.77332 12.9701V10.5301C9.77332 10.0967 9.86998 9.7134 10.0633 9.38007C10.2566 9.04673 10.5266 8.78673 10.8733 8.60007C11.2266 8.4134 11.6333 8.32007 12.0933 8.32007C12.52 8.32007 12.9033 8.40007 13.2433 8.56007C13.5833 8.7134 13.8466 8.93007 14.0333 9.21007C14.2266 9.4834 14.3233 9.80007 14.3233 10.1601V10.2801H13.3933V10.1601C13.3933 9.86674 13.27 9.63007 13.0233 9.45007C12.7833 9.27007 12.4733 9.18007 12.0933 9.18007C11.6733 9.18007 11.3366 9.3034 11.0833 9.55007C10.83 9.79007 10.7033 10.1101 10.7033 10.5101V11.3501C11.1033 11.0367 11.5933 10.8801 12.1733 10.8801ZM13.4233 12.8701C13.4233 12.5101 13.3066 12.2301 13.0733 12.0301C12.8466 11.8301 12.5233 11.7301 12.1033 11.7301C11.7766 11.7301 11.4933 11.7867 11.2533 11.9001C11.0133 12.0134 10.83 12.1734 10.7033 12.3801V12.9601C10.7033 13.3467 10.8333 13.6601 11.0933 13.9001C11.3533 14.1401 11.69 14.2601 12.1033 14.2601C12.51 14.2601 12.83 14.1601 13.0633 13.9601C13.3033 13.7534 13.4233 13.4767 13.4233 13.1301V12.8701Z" fill="currentColor"/>
</svg>
