<svg width="24" height="24" viewBox="0 0 24 24" fill="none" xmlns="http://www.w3.org/2000/svg">
<path d="M3 12C3 4.5885 4.5885 3 12 3C19.4115 3 21 4.5885 21 12C21 19.4115 19.4115 21 12 21C4.5885 21 3 19.4115 3 12Z" stroke="currentColor"/>
<path d="M13.9944 8.43994V9.28994H10.7444V11.2399H12.3744C13.0144 11.2399 13.5144 11.4033 13.8744 11.7299C14.2411 12.0499 14.4244 12.4899 14.4244 13.0499V13.1999C14.4244 13.7533 14.2411 14.1933 13.8744 14.5199C13.5078 14.8399 13.0078 14.9999 12.3744 14.9999H9.80444V8.43994H13.9944ZM12.3544 14.1499C12.7278 14.1499 13.0111 14.0699 13.2044 13.9099C13.3978 13.7433 13.4944 13.5033 13.4944 13.1899V13.0399C13.4944 12.7333 13.3978 12.4966 13.2044 12.3299C13.0111 12.1633 12.7278 12.0799 12.3544 12.0799H10.7444V14.1499H12.3544Z" fill="currentColor"/>
</svg>
