<svg width="24" height="24" viewBox="0 0 24 24" fill="none" xmlns="http://www.w3.org/2000/svg">
<path d="M3 12C3 4.5885 4.5885 3 12 3C19.4115 3 21 4.5885 21 12C21 19.4115 19.4115 21 12 21C4.5885 21 3 19.4115 3 12Z" stroke="#261E1E"/>
<path d="M12.2601 11.0099C12.8534 11.0433 13.3168 11.2233 13.6501 11.5499C13.9834 11.8766 14.1501 12.3133 14.1501 12.8599V13.1299C14.1501 13.7433 13.9501 14.2299 13.5501 14.5899C13.1567 14.9433 12.6168 15.1199 11.9301 15.1199C11.2434 15.1199 10.7001 14.9533 10.3001 14.6199C9.90675 14.2866 9.71008 13.8299 9.71008 13.2499V13.0499H10.6301V13.2499C10.6301 13.5699 10.7434 13.8166 10.9701 13.9899C11.1967 14.1633 11.5167 14.2499 11.9301 14.2499C12.3301 14.2499 12.6434 14.1533 12.8701 13.9599C13.1034 13.7666 13.2201 13.4933 13.2201 13.1399V12.8799C13.2201 12.5399 13.1034 12.2766 12.8701 12.0899C12.6367 11.9033 12.3101 11.8099 11.8901 11.8099H11.0001V11.0799L12.8701 9.28994H9.83008V8.43994H14.0801V9.28994L12.2601 11.0099Z" fill="#261E1E"/>
</svg>
