<svg width="24" height="24" viewBox="0 0 24 24" fill="none" xmlns="http://www.w3.org/2000/svg">
<path d="M3 12C3 4.5885 4.5885 3 12 3C19.4115 3 21 4.5885 21 12C21 19.4115 19.4115 21 12 21C4.5885 21 3 19.4115 3 12Z" stroke="currentColor"/>
<path d="M16.0978 14.1601V15.0001H11.8178V14.1701L13.6778 12.3401C14.0445 11.9801 14.3211 11.6901 14.5078 11.4701C14.6945 11.2434 14.8245 11.0434 14.8978 10.8701C14.9711 10.6967 15.0078 10.5101 15.0078 10.3101V10.2101C15.0078 9.89007 14.9045 9.64007 14.6978 9.46007C14.4978 9.28007 14.2145 9.19007 13.8478 9.19007C13.4811 9.19007 13.1945 9.28673 12.9878 9.48007C12.7811 9.66673 12.6778 9.93007 12.6778 10.2701V10.4801H11.7578V10.2601C11.7578 9.6534 11.9411 9.18007 12.3078 8.84007C12.6811 8.4934 13.1945 8.32007 13.8478 8.32007C14.4945 8.32007 15.0011 8.49007 15.3678 8.83007C15.7411 9.1634 15.9278 9.6234 15.9278 10.2101V10.3101C15.9278 10.7034 15.8178 11.0867 15.5978 11.4601C15.3778 11.8267 14.9845 12.2901 14.4178 12.8501L13.0878 14.1601H16.0978Z" fill="currentColor"/>
<path d="M10.3186 15.0002H9.38856V9.88019C9.14855 9.97352 8.86522 10.0202 8.53855 10.0202H7.76855V9.16019H8.49855C8.79189 9.16019 9.01189 9.10019 9.15856 8.98019C9.31189 8.85352 9.38856 8.67352 9.38856 8.44019H10.3186V15.0002Z" fill="currentColor"/>
</svg>
