<svg width="24" height="24" viewBox="0 0 24 24" fill="none" xmlns="http://www.w3.org/2000/svg">
<path d="M3 12C3 4.5885 4.5885 3 12 3C19.4115 3 21 4.5885 21 12C21 19.4115 19.4115 21 12 21C4.5885 21 3 19.4115 3 12Z" stroke="currentColor"/>
<path d="M11.8933 8.32007C12.3466 8.32007 12.75 8.41007 13.1033 8.59007C13.4566 8.77007 13.73 9.0234 13.9233 9.35007C14.1233 9.67674 14.2233 10.0501 14.2233 10.4701V12.9101C14.2233 13.3434 14.1266 13.7267 13.9333 14.0601C13.74 14.3934 13.4666 14.6534 13.1133 14.8401C12.7666 15.0267 12.3633 15.1201 11.9033 15.1201C11.4766 15.1201 11.0933 15.0434 10.7533 14.8901C10.4133 14.7301 10.1466 14.5134 9.95331 14.2401C9.76664 13.9601 9.67331 13.6401 9.67331 13.2801V13.1601H10.6033V13.2801C10.6033 13.5734 10.7233 13.8101 10.9633 13.9901C11.21 14.1701 11.5233 14.2601 11.9033 14.2601C12.3233 14.2601 12.66 14.1401 12.9133 13.9001C13.1666 13.6534 13.2933 13.3301 13.2933 12.9301V12.0901C12.8933 12.4034 12.4033 12.5601 11.8233 12.5601C11.3966 12.5601 11.0166 12.4767 10.6833 12.3101C10.3566 12.1434 10.1 11.9101 9.91331 11.6101C9.73331 11.3101 9.64331 10.9701 9.64331 10.5901V10.3201C9.64331 9.9334 9.73664 9.59007 9.92331 9.29007C10.1166 8.9834 10.3833 8.74674 10.7233 8.58007C11.0633 8.40674 11.4533 8.32007 11.8933 8.32007ZM11.8933 11.7101C12.22 11.7101 12.5033 11.6534 12.7433 11.5401C12.9833 11.4267 13.1666 11.2667 13.2933 11.0601V10.4801C13.2933 10.0934 13.1633 9.78007 12.9033 9.54007C12.6433 9.30007 12.3066 9.18007 11.8933 9.18007C11.4866 9.18007 11.1633 9.2834 10.9233 9.49007C10.69 9.69007 10.5733 9.9634 10.5733 10.3101V10.5701C10.5733 10.9301 10.6866 11.2101 10.9133 11.4101C11.1466 11.6101 11.4733 11.7101 11.8933 11.7101Z" fill="currentColor"/>
</svg>
