<svg width="24" height="24" viewBox="0 0 24 24" fill="none" xmlns="http://www.w3.org/2000/svg">
<path d="M3 12C3 4.5885 4.5885 3 12 3C19.4115 3 21 4.5885 21 12C21 19.4115 19.4115 21 12 21C4.5885 21 3 19.4115 3 12Z" stroke="currentColor"/>
<path d="M12.4739 8.43994L12.4239 13.1999H11.5739L11.5339 8.43994H12.4739ZM12.0039 15.1199C11.8306 15.1199 11.6873 15.0666 11.5739 14.9599C11.4673 14.8466 11.4139 14.7033 11.4139 14.5299C11.4139 14.3566 11.4673 14.2166 11.5739 14.1099C11.6873 13.9966 11.8306 13.9399 12.0039 13.9399C12.1773 13.9399 12.3173 13.9966 12.4239 14.1099C12.5373 14.2166 12.5939 14.3566 12.5939 14.5299C12.5939 14.7033 12.5373 14.8466 12.4239 14.9599C12.3173 15.0666 12.1773 15.1199 12.0039 15.1199Z" fill="currentColor"/>
</svg>
