<svg width="24" height="24" viewBox="0 0 24 24" fill="none" xmlns="http://www.w3.org/2000/svg">
<path d="M16.9584 11.0416L15.4235 12.5765C14.9507 13.0493 14.7454 13.7272 14.8766 14.3829L15.2 16L15.2456 16.2281C15.3422 16.7111 14.8159 17.0765 14.3971 16.8173L13.0527 15.985C12.4077 15.5857 11.5923 15.5857 10.9473 15.985L9.60289 16.8173C9.18411 17.0765 8.65781 16.7111 8.7544 16.2281L8.80002 16L9.12344 14.3829C9.25458 13.7272 9.04934 13.0493 8.57649 12.5765L7.00002 11C6.631 10.631 6.89235 9.99996 7.41423 9.99996H7.50002H8.94133C9.77799 9.99996 10.5262 9.47917 10.8168 8.69459L11.4444 6.99996C11.6354 6.48439 12.3646 6.48439 12.5556 6.99996L13.1832 8.69459C13.4738 9.47917 14.222 9.99996 15.0587 9.99996H16.5H16.527C17.0705 9.99996 17.3428 10.6572 16.9584 11.0416Z" stroke="currentColor" stroke-linejoin="round"/>
<path d="M3 12C3 4.5885 4.5885 3 12 3C19.4115 3 21 4.5885 21 12C21 19.4115 19.4115 21 12 21C4.5885 21 3 19.4115 3 12Z" stroke="currentColor"/>
</svg>
