<svg width="64" height="64" viewBox="0 0 64 64" fill="none" xmlns="http://www.w3.org/2000/svg">
<path fill-rule="evenodd" clip-rule="evenodd" d="M45.1276 37.4894C43.0702 38.9231 43.0569 40.7745 43.3608 42.5323L38.2507 41.9642C37.2855 44.9718 35.3216 47.7723 31.3303 47.6086C24.9343 47.3579 21.0801 42.3786 25.1414 32.6537C25.1414 32.6537 22.6999 32.6537 23.428 28.9008L21.3239 28.463C21.8958 27.1216 22.934 26.033 24.2463 25.3985C24.7473 21.9263 27.9203 21.9297 27.9203 21.9297L27.7065 24.0217C29.2329 22.07 32.3824 23.4302 32.3824 23.4302L30.3551 25.9065C32.8734 25.442 33.8219 26.8556 33.8219 26.8556L31.2168 28.8206C31.7645 30.2843 31.9983 32.1625 31.7478 34.5018L35.9762 34.8694C37.369 30.0604 41.0997 29.4622 41.0997 29.4622L40.9527 34.2846C44.8137 32.1324 48 35.5043 48 35.5043C48 35.5043 46.467 36.5537 45.1276 37.4894ZM29.2028 32.9077C25.7126 34.1175 24.5703 38.4719 26.8648 41.3292L27.4694 40.9382C26.9751 38.0007 27.5996 35.892 29.5835 33.556L29.2028 32.9077ZM37.3489 24.9674H36.4238C36.4238 24.9674 36.4238 21.6857 34.8373 20.0749C33.2508 18.4642 30.4519 18.2536 30.4519 18.2536L30.5421 17.2511C30.5421 17.2511 33.9121 16.8935 35.0043 15.7873C36.5106 14.2634 36.3603 11.4429 36.3603 11.4429L37.3122 11.3794C37.3122 11.3794 37.4792 14.5174 38.7818 15.8174C40.0843 17.1174 43.4209 17.2444 43.4209 17.2444L43.4577 18.2837C43.4577 18.2837 40.6154 18.4675 38.9855 19.8577C37.6462 20.994 37.3489 24.9674 37.3489 24.9674ZM25.4186 16.9971H24.8709C24.8709 16.9971 24.8709 15.0655 23.9357 14.1164C23.0005 13.1673 21.3472 13.0437 21.3472 13.0437L21.404 12.4622C21.404 12.4622 23.388 12.2483 24.0359 11.5966C24.9243 10.701 24.8342 9.04679 24.8342 9.04679L25.3886 9C25.3886 9 25.5088 10.828 26.2904 11.6C27.0719 12.3719 29.0057 12.4622 29.0057 12.4622L29.0325 13.0771C29.0325 13.0771 27.3625 13.184 26.3939 14.0028C25.599 14.6645 25.4186 16.9971 25.4186 16.9971ZM23.6719 19.2094C23.6719 19.2094 22.0019 19.3163 21.0333 20.1351C20.2517 20.8035 20.0714 23.1428 20.0714 23.1428H19.5236C19.5236 23.1428 19.5236 21.2112 18.5885 20.2587C17.6533 19.3063 16 19.1893 16 19.1893L16.0568 18.6045C16.0568 18.6045 18.0407 18.394 18.6887 17.7423C19.5771 16.8467 19.4869 15.1925 19.4869 15.1925L20.0413 15.1457C20.0413 15.1457 20.1315 17.0038 20.8997 17.7691C21.6679 18.5343 23.6451 18.6012 23.6451 18.6012L23.6719 19.2094ZM30.806 49.2461L30.0979 56L27.092 55.6658L28.2342 48.8217L30.806 49.2461Z" fill="currentColor"/>
</svg>
