<svg width="64" height="64" viewBox="0 0 64 64" fill="none" xmlns="http://www.w3.org/2000/svg">
<path fill-rule="evenodd" clip-rule="evenodd" d="M33.773 31.7272C31.665 28.4935 31.0088 25.5293 31.4712 23.2825L28.2888 19.84L32.1444 16L35.7348 19.0585C37.9924 18.6038 40.981 19.2067 44.3946 21.2682L33.773 31.7272ZM29.3088 28.5608L24.7528 33.6539L28.5404 37.3187C28.5404 37.3187 30.4818 39.0905 27.4898 42.4657L28.1698 44.4598L32.5422 44.4295L32.8822 43.1124H35.6668L35.8776 44.4059H37.6626L38.142 47.7743L19.1088 47.6463L19.8534 44.5204L23.7362 44.4935L23.9198 42.4724L19.1598 37.888L19 30.4202L27.16 21.6623L28.9688 23.5486L29.3088 28.5608ZM25.0928 40.7512L26.9254 38.8312L23.5696 35.9714L22.0498 37.5983L25.0928 40.7512ZM26.9628 24.9196L21.5568 30.7301L23.0902 32.475L26.9628 27.9411V24.9196Z" fill="currentColor"/>
</svg>
