<svg width="64" height="64" viewBox="0 0 64 64" fill="none" xmlns="http://www.w3.org/2000/svg">
<path fill-rule="evenodd" clip-rule="evenodd" d="M49 38.806C49 39.5124 48.9695 40.1803 48.9086 40.8097C42.4185 42.8209 28.1364 43.4888 21.1818 41.0037C16.1648 39.2164 19.9219 35.1828 15 32L17.459 29.6754C20.9382 30.6418 20.5499 32.5522 22.2476 33.6716C22.846 32.7125 23.642 31.8864 24.5849 31.2463C20.4586 21.4963 26.4881 16 34.4819 16C43.1912 16 48.0902 20.6381 44.2875 30.8993C47.1082 32.6493 49 35.2948 49 38.806ZM34.4933 18.4216C28.2391 18.4216 23.4163 22.2649 26.9525 30.3955C30.721 33.5784 37.9458 33.3284 41.8818 30.2276C45.2239 21.5448 41.4935 18.4216 34.4933 18.4216ZM27.9156 28.3955C29.5372 27.7637 31.2463 27.3737 32.9859 27.2388C32.0343 26.0634 32.6395 23.8806 34.6379 23.8806C36.6364 23.8806 37.1388 26.0149 36.2785 27.1978C37.9379 27.3009 39.5704 27.6584 41.1167 28.2575C38.1438 31.6119 30.6906 32.0037 27.9156 28.3955ZM48.4709 43.1231C47.2376 47.0634 43.5985 49 34.6532 49C25.5175 49 22.1373 46.9664 21.0486 42.9888C28.2315 45.0037 39.1563 45.694 48.4633 43.1231H48.4709Z" fill="currentColor"/>
</svg>
