<svg width="32" height="32" viewBox="0 0 32 32" fill="none" xmlns="http://www.w3.org/2000/svg">
<path d="M16 8C15.4477 8 15 8.44772 15 9V15H9C8.44772 15 8 15.4477 8 16C8 16.5523 8.44772 17 9 17H15V23C15 23.5523 15.4477 24 16 24C16.5523 24 17 23.5523 17 23V17H23C23.5523 17 24 16.5523 24 16C24 15.4477 23.5523 15 23 15H17V9C17 8.44772 16.5523 8 16 8Z" fill="currentColor"/>
<path d="M21.6569 10.3432C21.2664 9.95263 20.6332 9.95263 20.2427 10.3432L18 12.5858C17.6095 12.9763 17.6095 13.6095 18 14C18.3905 14.3905 19.0237 14.3905 19.4142 14L21.6569 11.7574C22.0474 11.3668 22.0474 10.7337 21.6569 10.3432Z" fill="currentColor"/>
<path d="M20.2427 21.6572C20.6332 22.0477 21.2664 22.0477 21.6569 21.6572C22.0474 21.2667 22.0474 20.6335 21.6569 20.243L19.4142 18.0004C19.0237 17.6098 18.3905 17.6098 18 18.0004C17.6095 18.3909 17.6095 19.024 18 19.4146L20.2427 21.6572Z" fill="currentColor"/>
<path d="M14.0312 12.617C14.4218 13.0075 14.4218 13.6407 14.0312 14.0312C13.6407 14.4218 13.0075 14.4218 12.617 14.0312L10.3431 11.7573C9.95261 11.3668 9.95261 10.7337 10.3431 10.3431C10.7337 9.95261 11.3668 9.95261 11.7573 10.3431L14.0312 12.617Z" fill="currentColor"/>
<path d="M14.0312 17.9691C14.4218 18.3596 14.4218 18.9928 14.0312 19.3833L11.7573 21.6572C11.3668 22.0477 10.7337 22.0477 10.3431 21.6572C9.95261 21.2667 9.95261 20.6335 10.3431 20.243L12.617 17.9691C13.0075 17.5786 13.6407 17.5786 14.0312 17.9691Z" fill="currentColor"/>
</svg>
