<svg width="32" height="32" viewBox="0 0 32 32" fill="none" xmlns="http://www.w3.org/2000/svg">
<path d="M8.41455 22.1694C8.41433 22.1613 8.41421 22.1533 8.41419 22.1452C8.41419 22.1451 8.41419 22.1454 8.41419 22.1452C8.41419 22.1444 8.41418 22.1431 8.41418 22.1422C8.41418 22.1424 8.41418 22.1421 8.41418 22.1422L8.41418 12.1422C8.41418 11.5899 8.8619 11.1422 9.41418 11.1422C9.96647 11.1422 10.4142 11.5899 10.4142 12.1422V19.728L21.435 8.7072C21.8255 8.31668 22.4587 8.31668 22.8492 8.7072C23.2397 9.09772 23.2397 9.73089 22.8492 10.1214L11.8284 21.1422L19.4142 21.1422C19.9665 21.1422 20.4142 21.5899 20.4142 22.1422C20.4142 22.6945 19.9665 23.1422 19.4142 23.1422L9.41418 23.1422C8.87099 23.1422 8.42895 22.7091 8.41455 22.1694Z" fill="currentColor"/>
</svg>
