<svg width="32" height="32" viewBox="0 0 32 32" fill="none" xmlns="http://www.w3.org/2000/svg">
<path d="M23.071 23.071C23.4615 22.6805 23.4615 22.0473 23.071 21.6568L17.4142 16L23.071 10.3431C23.4615 9.95259 23.4615 9.31942 23.071 8.9289C22.6805 8.53837 22.0473 8.53837 21.6568 8.9289L16 14.5857L10.3431 8.92888C9.95257 8.53836 9.31941 8.53836 8.92888 8.92888C8.53836 9.3194 8.53836 9.95257 8.92888 10.3431L14.5857 16L8.92888 21.6568C8.53836 22.0473 8.53836 22.6805 8.92888 23.071C9.3194 23.4616 9.95257 23.4616 10.3431 23.071L16 17.4142L21.6568 23.071C22.0473 23.4615 22.6805 23.4615 23.071 23.071Z" fill="currentColor"/>
</svg>
