<svg width="16" height="16" viewBox="0 0 16 16" fill="none" xmlns="http://www.w3.org/2000/svg">
<path fill-rule="evenodd" clip-rule="evenodd" d="M9.37303 13.7038L10.763 11.5796C13.9779 12.1854 13.6832 13.8368 12.4394 14.3417C12.039 14.0281 10.8034 13.8024 9.37303 13.7038ZM10.6359 11.0901H10.2534L8.1149 14.375L7.67533 14.3108L5.47271 11.1245H4.89058C3.34613 11.1352 3.15723 9.251 4.41536 8.78886L4.77177 7.0365C4.7587 5.40414 4.61139 3.83712 3.94015 2.57899L4.48902 2.31287C4.48902 2.31287 4.63515 2.53147 4.84543 2.81304L5.30282 2.62295L5.65923 3.12311L5.34916 3.41418C5.67111 3.76109 6.02159 4.0581 6.28533 4.06285C6.74272 4.06998 7.18348 3.62565 7.38307 2.74175L6.94707 2.71918L6.93043 2.11091H7.48049C7.49237 1.9624 7.4995 1.80558 7.4995 1.63569L8.09352 1.625C8.09352 1.79727 8.09946 1.95884 8.10896 2.11091H8.61744L8.59012 2.79284L8.19688 2.77264C8.38103 3.6506 8.7909 4.03434 9.29344 4.03434C9.54886 4.03434 9.92785 3.70406 10.2736 3.33221L9.99319 3.0946L10.2569 2.57186L10.7464 2.78809C10.9591 2.52078 11.1028 2.31287 11.1028 2.31287L11.6826 2.53266C10.851 3.94286 10.7666 5.53364 10.7654 7.24441L11.0897 8.78886C12.2623 9.23912 12.1186 11.0818 10.6359 11.0913V11.0901ZM7.45436 9.86878H8.27529C8.27529 10.3214 9.08197 10.2632 8.82891 9.56821C8.38815 9.1821 7.34149 9.17616 6.88529 9.55989C6.59303 10.2632 7.45436 10.3464 7.45436 9.86878ZM5.5535 6.32131C5.5535 7.55924 5.62953 8.45977 5.85051 9.17259L7.11814 8.52511H8.61982L9.76746 9.22724C9.97656 8.5061 10.0395 7.59369 10.0395 6.33437L5.5535 6.32131ZM6.41245 13.6871C5.15551 13.7667 4.08271 13.9675 3.64551 14.3204C2.40045 13.6812 1.94781 12.1819 4.91552 11.5879L6.41245 13.6871Z" fill="currentColor"/>
</svg>
