<svg width="16" height="16" viewBox="0 0 16 16" fill="none" xmlns="http://www.w3.org/2000/svg">
<path fill-rule="evenodd" clip-rule="evenodd" d="M11.3891 8.99054C12.025 6.0807 10.68 3.44507 8.44383 3.01486C9.66473 1.92988 12.5935 2.28208 12.5935 4.93308C12.5935 6.74611 11.4565 7.70463 12.9031 8.81444C12.4765 9.17846 11.8713 9.20446 11.3891 8.99054ZM10.0075 10.9017C10.0075 10.3107 9.99212 9.73041 9.94957 9.18082C9.78056 9.80487 9.51109 10.3284 9.08915 10.683L9.29598 11.9228L11.7449 12.8743L11.5865 13.5326L3.23993 13.5598L3.09692 12.8944L5.71247 11.9098L5.85784 10.6298C5.52376 10.335 5.26244 9.96692 5.09433 9.5543C4.91938 10.0398 4.8368 10.5537 4.85086 11.0695C3.15956 8.66079 3.16311 4.36931 6.45943 3.55735C6.76865 3.46392 7.0902 3.4177 7.41322 3.42025C7.46758 3.42025 7.51959 3.42025 7.57159 3.42025H7.64014C10.5358 3.42261 12.1975 7.37607 10.0075 10.9017ZM8.58921 12.1048C8.56911 11.8555 8.53602 11.3449 8.51475 11.0234C8.20226 11.138 7.87127 11.1937 7.5385 11.1877C7.17483 11.1926 6.81364 11.1272 6.47479 10.995C6.4547 11.3496 6.42042 11.95 6.4086 12.2124C6.36842 13.0078 8.65185 13.022 8.58448 12.1048H8.58921ZM5.52218 8.84162C5.84838 9.92778 6.4677 10.5187 7.49595 10.5187C8.95323 10.5187 9.47209 9.26001 9.57727 7.17987C9.40117 6.7142 9.1577 6.37973 8.82559 6.24262C8.39538 7.91974 6.53743 7.68218 5.52218 8.84162Z" fill="currentColor"/>
</svg>
