<svg width="16" height="16" viewBox="0 0 16 16" fill="none" xmlns="http://www.w3.org/2000/svg">
<path fill-rule="evenodd" clip-rule="evenodd" d="M12.4914 12.5386L12.3269 13.2224L3.65733 13.2507L3.50879 12.5595L6.22554 11.5369L6.37654 10.2074C5.93582 9.83908 5.62523 9.30384 5.41776 8.65442C3.66715 6.65829 4.67013 2.74951 8.11855 2.74951C11.6787 2.74951 12.4754 6.94801 10.5738 8.86434C10.397 9.44256 10.1269 9.92502 9.72674 10.2626L9.94035 11.5504L12.4914 12.5386ZM9.20868 11.7395C9.18781 11.4817 9.15344 10.9513 9.13134 10.6162C8.80831 10.7346 8.46623 10.7924 8.12223 10.7868C7.74458 10.7922 7.36943 10.7247 7.01736 10.5879C6.99649 10.9562 6.96089 11.5786 6.94861 11.8512C6.90687 12.6774 9.27866 12.6921 9.20868 11.7395ZM10.2436 6.52202C10.1928 6.37793 10.1195 6.24284 10.0263 6.12182C9.76971 6.43118 9.2983 6.8363 8.92142 6.89031C9.06996 6.33665 9.17799 5.60867 9.08346 5.29439C8.5163 6.1034 7.14872 6.84612 5.75535 6.66443C5.89899 8.85329 6.56927 10.0871 8.07926 10.0871C9.61503 10.092 10.1466 8.74281 10.2436 6.52202Z" fill="currentColor"/>
</svg>
