<svg width="64" height="64" viewBox="0 0 64 64" fill="none" xmlns="http://www.w3.org/2000/svg">
<path fill-rule="evenodd" clip-rule="evenodd" d="M30.1062 17.6404L43.7493 20.1834L45 16.36L43.7033 15.6822L42.5491 16.4841C35.9506 15.0531 33.2146 11.5708 31.6236 8C15.263 10.1841 18.7071 21.4416 21.1625 28.8358L18.1001 28.4282C17.6955 31.0067 18.5507 34.8655 20.0682 36.992L22.6064 35.1047C22.6288 36.8925 22.2799 38.4099 21.9162 39.9912C21.5337 41.6545 21.135 43.3885 21.135 45.5824C21.135 58.8823 36.8886 58.2576 37.068 50.376C37.2335 42.7515 28.4968 43.6109 28.4968 47.9527C28.4968 51.0317 31.6466 51.1292 32.4743 49.5254L30.9201 47.7001C32.4973 46.8318 34.2952 47.5141 34.2952 49.6185C34.2952 54.0798 26.1149 54.3146 26.1149 47.3147C26.1149 44.209 28.1059 42.2375 30.5062 40.3901L29.1589 39.4287C29.3138 38.6116 29.5289 37.8062 29.8027 37.0186L32.4191 38.9591C33.0905 38.4585 33.7618 37.949 34.401 37.4085L30.7821 34.8522C30.9356 34.5716 31.0871 34.3107 31.2326 34.0602C31.4707 33.6502 31.6928 33.2678 31.8811 32.8718L36.0196 35.8712C36.5753 35.2757 37.0596 34.6218 37.4634 33.9218L32.4329 30.3776C32.4128 29.3549 32.2693 28.3379 32.0053 27.3472L38.3095 31.9105C38.535 31.0969 38.6479 30.2582 38.6452 29.4162C38.6452 25.5751 34.8608 21.3663 30.1062 19.6695V17.6404ZM31.8658 12.4459C31.7014 12.4379 31.5371 12.4634 31.383 12.5208C31.2289 12.5782 31.0883 12.6662 30.9698 12.7794C30.8512 12.8927 30.7573 13.0288 30.6937 13.1794C30.6301 13.3299 30.5983 13.4918 30.6001 13.6551C30.6019 13.8183 30.6373 13.9795 30.7042 14.1286C30.7711 14.2778 30.8681 14.4118 30.9891 14.5224C31.1101 14.633 31.2527 14.718 31.408 14.772C31.5633 14.8259 31.7282 14.8479 31.8923 14.8363C33.4445 14.8363 33.4534 12.4459 31.8658 12.4459Z" fill="currentColor"/>
</svg>
