<svg width="64" height="64" viewBox="0 0 64 64" fill="none" xmlns="http://www.w3.org/2000/svg">
<path fill-rule="evenodd" clip-rule="evenodd" d="M50.2876 40.7008L41.6071 40.8158L41.9942 33.6267L45.7561 36.2898C46.2115 34.8272 47.851 34.3764 49.2082 35.2319L50.1191 32.7712C50.5745 31.5615 51.7859 31.8513 52 32.3664L50.2876 40.7008ZM45.4555 22.7304C46.7899 25.7339 46.4756 28.4844 45.9109 28.9398C45.1685 29.5239 42.0534 31.5431 42.0534 31.5431L39.6761 29.5423L39.6214 42.6878L42.4451 46.2341L42.2902 52.6274H36.151L36.0326 51.3534L37.6631 50.3139V48.773C37.6631 48.773 34.0515 45.2498 33.1088 44.2747C31.8791 43.0006 31.5967 43.1846 31.5967 40.7008L26.4139 40.7422L17.1004 49.1456L18.6716 51.3304L18.2754 52.8712L11.6261 52.839C11.6261 52.839 9.93193 50.4978 9.34898 49.6193C8.76603 48.7408 8.89355 47.6921 9.88184 46.6112C10.8701 45.5303 12.2956 44.1505 12.2956 44.1505L12.3685 41.3907C12.3685 41.3907 9.22146 34.8272 12.751 31.0418C16.2806 27.2563 24.3326 19.3405 25.5532 18.1078C26.7737 16.8751 27.9715 16.1254 30.4126 16.1254H32.585C33.7236 9.74585 40.177 10.0678 42.7138 13.0529C44.6858 15.3527 47.8784 20.3478 47.8784 20.3478C47.8784 20.3478 45.9974 22.091 45.4555 22.7304ZM38.788 17.887C36.5427 17.887 36.4835 21.4057 38.6331 21.4057C41.1835 21.4057 40.9877 17.887 38.788 17.887ZM43.7203 18.416C43.551 18.4077 43.3818 18.4344 43.2231 18.4946C43.0644 18.5548 42.9195 18.647 42.7975 18.7658C42.6754 18.8846 42.5786 19.0273 42.5132 19.1852C42.4477 19.3431 42.4149 19.5128 42.4167 19.684C42.4186 19.8552 42.4551 20.0242 42.524 20.1806C42.5929 20.337 42.6927 20.4775 42.8174 20.5935C42.942 20.7096 43.0888 20.7986 43.2488 20.8552C43.4088 20.9118 43.5785 20.9348 43.7476 20.9227C45.3371 20.9227 45.3507 18.416 43.7203 18.416ZM28.3359 43.0282L28.4953 50.3323L30.1895 51.3534L29.7841 52.862L21.3997 53L21.304 48.4556L27.1335 43.0006L28.3359 43.0282Z" fill="currentColor"/>
</svg>
