<svg width="64" height="64" viewBox="0 0 64 64" fill="none" xmlns="http://www.w3.org/2000/svg">
<path fill-rule="evenodd" clip-rule="evenodd" d="M51.5525 41.8632L45.8745 43.3018L49.8058 37.3425L54.2993 37.4961L57 48.074L55.0459 48.8934L51.5525 41.8632ZM52.7876 25.9266L52.5341 29.5767L51.1147 29.2042L49.709 30.8477L48.0499 27.4025L47.3816 27.6073C47.3816 27.6073 47.3309 30.3635 47.3309 31.9465C47.3309 36.0761 46.1972 39.2187 43.8605 41.1322L44.3767 57.9069L41.9295 58L39.4592 43.0318C38.5687 43.1849 37.6664 43.2566 36.7631 43.2459L12.5074 43.0783L9.01401 49.9083L7 49.0889L9.76523 38.6461L16.54 38.1107C15.6894 36.168 15.3102 34.0483 15.434 31.9278C15.5031 29.4929 15.7105 23.3147 15.7105 23.3147C7.34565 23.3147 9.25827 18.0444 9.25827 18.0444C11.664 18.0444 13.6642 17.0155 13.6642 15.5769L18.3006 15.6979C19.5399 14.8262 20.5997 13.7193 21.4207 12.4389C21.0889 11.0422 19.7431 8.78413 19.7431 8.78413L20.4114 8.41633C21.1193 8.99189 21.7623 9.64453 22.3286 10.3624C22.6813 9.12793 22.6279 7.81115 22.1765 6.6099L23.2411 6.14433C23.2411 6.14433 25.8451 11.4426 22.1673 15.805L25.08 15.8748C25.2505 17.7837 23.4854 19.2316 21.0612 19.7112L24.7712 28.9388H38.1042L41.7912 22.2299C41.252 22.0623 38.8048 20.4933 38.9707 18.5845L41.8189 18.6217C41.487 12.6484 38.0858 10.7954 38.0858 10.7954L38.3854 9.6501C38.3854 9.6501 45.1187 12.3085 45.5012 18.6636L49.7966 18.7195L50.4003 20.6749L54.3085 22.7746L53.8937 25.5681L52.7876 25.9266ZM23.0291 36.0854C22.8338 36.0767 22.6387 36.1083 22.4559 36.1783C22.273 36.2483 22.1062 36.3553 21.9657 36.4926C21.8251 36.63 21.7138 36.7949 21.6385 36.9772C21.5632 37.1595 21.5255 37.3554 21.5277 37.5529C21.5299 37.7504 21.5719 37.9454 21.6513 38.126C21.7306 38.3065 21.8456 38.4688 21.9891 38.603C22.1327 38.7371 22.3018 38.8402 22.4862 38.9061C22.6706 38.9719 22.8663 38.9991 23.0614 38.9859C24.9095 38.9859 24.9187 36.0854 23.0291 36.0854ZM25.8727 31.7789C25.4926 31.7832 25.1297 31.9399 24.8639 32.2145C24.5982 32.4891 24.4512 32.8591 24.4555 33.2431C24.4598 33.6271 24.6149 33.9937 24.8867 34.2622C25.1586 34.5306 25.5248 34.679 25.905 34.6747C27.7531 34.6514 27.7853 31.7789 25.8727 31.7789ZM31.2603 34.009C31.0649 34.0002 30.8699 34.0318 30.687 34.1018C30.5042 34.1718 30.3374 34.2788 30.1968 34.4162C30.0563 34.5535 29.945 34.7184 29.8697 34.9007C29.7944 35.083 29.7567 35.2789 29.7588 35.4764C29.761 35.674 29.8031 35.869 29.8824 36.0495C29.9618 36.2301 30.0768 36.3924 30.2203 36.5265C30.3639 36.6606 30.533 36.7638 30.7174 36.8296C30.9017 36.8955 31.0974 36.9227 31.2926 36.9095C33.1407 36.9002 33.1545 33.9857 31.2603 33.9857V34.009ZM46.8009 16.9643C47.9485 12.0013 45.6119 9.51509 45.6119 9.51509L46.2986 8.58394C46.2986 8.58394 50.9073 11.6893 50.2114 17.0527L46.8009 16.9643ZM15.9824 14.2127L13.337 14.2546C12.8272 12.8879 12.6714 11.4123 12.8843 9.96772C13.0972 8.52312 13.6719 7.15739 14.5537 6L15.5538 6.75423C14.9044 7.75507 14.6043 8.94628 14.7012 10.139C15.3716 9.68451 16.0811 9.29184 16.8212 8.96571L17.3512 9.50577C16.5103 10.318 15.7393 11.2011 15.0468 12.1456C15.2869 12.8655 15.6004 13.5583 15.9824 14.2127V14.2127ZM22.3609 57.9162L19.5956 57.8138L19.5588 45.2433L23.5776 44.8987L22.3609 57.9162Z" fill="currentColor"/>
</svg>
