<svg width="64" height="64" viewBox="0 0 64 64" fill="none" xmlns="http://www.w3.org/2000/svg">
<path fill-rule="evenodd" clip-rule="evenodd" d="M51.8189 28.3096L52.3847 26.7128L61 30.1738L59.3267 33.2215L51.8189 28.3096ZM52.6214 23.7178L58.2794 21.8778L58.8131 25.1403L53.0187 25.0957L52.6214 23.7178ZM52.5331 36.7758L49.351 30.6966L50.587 29.8172L55.1695 34.8588L52.5331 36.7758ZM44.2027 25.428C44.1465 23.8353 44.9571 22.0723 46.4739 19.6772C45.0855 14.8787 33.3764 14.8503 32.7945 22.9194C35.9004 23.5435 39.0143 25.351 42.0238 28.6338C35.5152 34.1253 34.223 36.8001 34.4076 44.9867L35.8843 44.9462L36.9116 37.7201L39.3192 39.5519L40.4107 33.4728L42.417 35.9045L43.3159 30.1211C44.587 31.7283 45.7366 33.4299 46.7548 35.2114L35.0778 50L27.4536 46.081L20.7644 49.3799L19.8013 45.546L14.9539 44.4396L18.4891 41.4811L14.344 39.3331C9.81763 42.247 3.91089 42.17 3.91089 42.17L5.34343 35.5194L3 29.5538C3 29.5538 7.99184 29.5943 13.8344 33.1567C14.4202 32.3704 15.0181 31.6166 15.6321 30.9033L11.2542 27.7341L15.6682 25.7077L15.5879 21.1848L24.741 23.8312C26.5159 23.0611 28.427 22.6627 30.3588 22.66C31.2817 11.0488 50.3342 10.3396 50.3342 25.2781C50.3261 29.1971 44.3271 29.2336 44.1907 25.4199L44.2027 25.428ZM34.3314 30.7534C37.2928 30.7534 37.0761 26.6682 34.516 26.6682C31.9559 26.6682 31.8234 30.7453 34.3194 30.7453L34.3314 30.7534Z" fill="currentColor"/>
</svg>
