<svg width="64" height="64" viewBox="0 0 64 64" fill="none" xmlns="http://www.w3.org/2000/svg">
<path fill-rule="evenodd" clip-rule="evenodd" d="M19.6641 14.5256L19.9377 12H44.5317L45.2247 14.3517L43.7565 17.3257C55.9395 25.2776 54.5671 45.8573 39.9813 51H39.9585L23.95 50.6431L23.8816 50.698C8.89453 45.0429 8.35195 24.9573 20.7493 17.2296L19.6641 14.5256ZM25.2951 47.66L39.4524 47.596C50.6642 43.0801 51.8497 27.5103 42.7626 20.716C34.5554 25.2913 31.268 13.853 20.9727 21.1323C12.1819 28.1554 13.258 43.3135 25.2951 47.66ZM26.9867 32.5249C27.8163 31.9037 28.6998 31.3586 29.6266 30.8961L28.5962 29.0934L35.1163 25.0946C35.1163 25.0946 36.972 27.4646 37.4599 28.9378C40.264 29.1117 42.9951 30.4934 44.7551 34.3047C42.6759 37.9283 39.6667 38.8525 36.7121 38.6421C35.6725 40.0696 33.0326 40.431 29.9731 40.184L32.2119 37.5852C29.8911 36.725 28.0262 35.6269 27.3058 35.3799C26.3027 38.5826 22.4545 39.4977 19.8966 38.4225C22.4636 36.3315 23.4622 32.1588 18.9847 29.098C23.1886 28.2378 25.4775 29.345 26.9867 32.5249ZM39.5892 34.4419C41.2853 34.4419 41.2944 31.7974 39.5618 31.7974C39.2123 31.801 38.8786 31.9438 38.634 32.1944C38.3895 32.4449 38.2541 32.7827 38.2578 33.1334C38.2614 33.4841 38.4037 33.819 38.6534 34.0644C38.9031 34.3098 39.2397 34.4456 39.5892 34.4419Z" fill="currentColor"/>
</svg>
