<svg width="16" height="16" viewBox="0 0 16 16" fill="none" xmlns="http://www.w3.org/2000/svg">
<path fill-rule="evenodd" clip-rule="evenodd" d="M11.2856 12.1484C13.837 8.80786 11.736 4.60721 8.05919 4.60721C5.40192 4.60721 3.83002 6.06006 3.83002 8.19161C3.83002 12.4677 9.48656 12.3357 9.48785 9.33221C9.48785 7.21126 7.71461 7.18769 7.03578 7.98776C7.0603 8.10559 7.13902 8.34125 7.16483 8.44494C8.34312 8.22931 8.21922 10.1346 7.29389 10.1346C6.02785 10.1346 5.17866 9.61618 5.17737 8.214C5.17737 4.7651 11.1011 4.9336 11.1011 9.27447C11.1011 14.3989 2.04388 14.4519 2 8.0891C2 5.46501 4.24816 3 7.96756 3C13.5557 3 15.7213 8.75484 12.4936 12.7045L11.2856 12.1484Z" fill="currentColor"/>
</svg>
