<svg width="24" height="24" viewBox="0 0 24 24" fill="none" xmlns="http://www.w3.org/2000/svg">
<path d="M3 12C3 4.5885 4.5885 3 12 3C19.4115 3 21 4.5885 21 12C21 19.4115 19.4115 21 12 21C4.5885 21 3 19.4115 3 12Z" stroke="currentColor"/>
<path d="M12.474 8.44L12.424 13.2H11.574L11.534 8.44H12.474ZM12.004 15.12C11.8307 15.12 11.6873 15.0667 11.574 14.96C11.4673 14.8467 11.414 14.7033 11.414 14.53C11.414 14.3567 11.4673 14.2167 11.574 14.11C11.6873 13.9967 11.8307 13.94 12.004 13.94C12.1773 13.94 12.3173 13.9967 12.424 14.11C12.5373 14.2167 12.594 14.3567 12.594 14.53C12.594 14.7033 12.5373 14.8467 12.424 14.96C12.3173 15.0667 12.1773 15.12 12.004 15.12Z" fill="currentColor"/>
</svg>
