<svg width="64" height="64" viewBox="0 0 64 64" fill="none" xmlns="http://www.w3.org/2000/svg">
<path fill-rule="evenodd" clip-rule="evenodd" d="M44.6226 46C42.8042 46 20.9316 45.653 18.6008 45.6101C15.9454 45.5555 14.8074 44.0505 15.0264 41.641C15.0968 40.8612 15.3627 37.6447 15.6521 34.1201L28.9485 33.9953L29.2575 36.0071L34.4118 35.5159L34.4548 33.9563L47.5439 33.8315C47.7512 37.5862 47.935 41.181 47.9937 42.1713C48.0993 44.7562 46.8791 46 44.6226 46ZM34.533 30.5877L28.4871 31.0828L28.6357 32.0575L15.789 32.4474C16.1605 27.8857 16.5242 23.3708 16.5242 23.3708L46.9573 23.7607C46.9573 23.7607 47.1685 27.4179 47.3953 31.4766L34.49 31.8665L34.533 30.5877ZM37.6225 20.7819L25.6283 20.3842L25.1317 21.8424L22.3942 21.7839C22.3942 21.7839 22.6484 20.5051 22.8791 19.6396C23.321 17.9552 23.935 17 25.9412 17C26.8954 17 35.1431 17.3899 36.3359 17.3899C38.4946 17.3899 39.9728 18.2243 40.2466 19.6512C40.3952 20.4076 40.7354 22.1894 40.7354 22.1894L38.1113 22.1348L37.6225 20.7819Z" fill="currentColor"/>
</svg>
