<svg width="24" height="24" viewBox="0 0 24 24" fill="none" xmlns="http://www.w3.org/2000/svg">
<path d="M12 5C12 4.44772 11.5523 4 11 4H5C4.44772 4 4 4.44772 4 5V19C4 19.5523 4.44772 20 5 20H19C19.5523 20 20 19.5523 20 19V13C20 12.4477 19.5523 12 19 12H13C12.4477 12 12 11.5523 12 11V5Z" fill="#202322"/>
<path d="M12 5C12 4.44772 11.5523 4 11 4H5C4.44772 4 4 4.44772 4 5V19C4 19.5523 4.44772 20 5 20H19C19.5523 20 20 19.5523 20 19V13C20 12.4477 19.5523 12 19 12H13C12.4477 12 12 11.5523 12 11V5Z" fill="#202322"/>
</svg>
