<svg width="64" height="64" viewBox="0 0 64 64" fill="none" xmlns="http://www.w3.org/2000/svg">
<path fill-rule="evenodd" clip-rule="evenodd" d="M55.7881 32.1806C54.2953 30.3862 55.4759 28.1881 57.4211 28.3765L57.5975 30.8483C58.5022 30.8931 60.2573 29.2917 58.9093 27.7081C57.7332 26.304 55.6524 26.2323 54.1777 28.2958C52.703 30.3593 54.1777 34.3653 51.3731 38.2994C47.908 43.1621 41.3896 41.9958 36.8253 38.8557C36.5925 41.1356 36.0335 43.3711 35.1652 45.4948C33.3105 49.9808 35.6175 53.0805 37.7934 53.4439C44.0087 54.5026 45.0311 47.3565 41.3172 46.715C38.6031 46.2664 38.4131 48.6933 38.9062 49.4649L41.1679 48.3793C42.3033 49.9583 40.9644 52.0757 38.6619 51.6809C34.7626 51.0215 35.6673 43.2608 42.0907 44.3509C48.9756 45.5217 47.519 58.6296 36.9475 56.8308C31.578 55.9336 28.9905 50.0301 30.6145 44.7547C31.4287 42.1438 31.189 39.9368 30.4697 38.2994C29.3479 42.2111 26.6111 45.7102 23.6482 46.872C15.542 50.057 10.2495 40.2194 7.06487 42.6911C6.1104 43.4313 6.05612 44.9341 7.11915 46.2799C7.11915 46.2799 6.1104 46.9393 5.2645 46.4055C3.64959 45.3872 3.39627 41.6325 5.59924 40.1925C10.7651 36.8146 16.0034 44.4137 20.8165 42.5027C23.8608 41.296 24.7203 39.0127 25.1274 36.671C18.0073 40.0444 11.2673 36.8594 10.1997 30.7272C9.38093 25.9766 13.2531 22.4506 12.8234 19.961C12.3936 17.4713 10.5299 16.5247 8.8562 17.2918C6.94273 18.1621 7.49913 20.1808 8.34956 20.5396L9.8559 18.6645C11.6925 19.3329 11.7558 21.6163 9.63425 22.5852C7.96506 23.3433 6.23254 22.4865 5.45449 20.6608C4.50002 18.4178 5.45449 15.8877 7.97863 14.7349C10.8737 13.3891 14.9359 15.3135 15.6189 19.2701C16.1979 22.6256 13.4386 27.0218 13.9271 29.8345C14.6283 33.9212 21.3864 34.4729 25.9598 29.6999C20.1425 27.5153 18.2697 23.5766 18.2697 20.6249C18.2697 17.9333 20.0429 12.3035 26.8645 12.3035C33.2381 12.3035 38.4719 17.0989 37.3365 28.9014C41.6791 29.1257 44.5742 25.685 44.0268 22.6211C43.3528 18.6959 39.9828 17.6866 39.2545 13.4519C38.0648 6.47179 44.8592 5.78095 46.3745 8.42316C46.5114 8.70174 46.5592 9.01514 46.5115 9.32139C46.4638 9.62765 46.3229 9.91214 46.1077 10.1368C44.3254 8.6654 41.4439 9.19923 41.9867 12.3483C42.6155 16.0044 47.1345 16.8343 48.2202 21.6566C49.5772 27.7171 46.5012 32.4587 40.2135 34.0647C43.1221 36.994 46.2569 38.3891 48.3875 35.4105C50.0477 33.0823 49.8758 29.1616 51.8571 26.3803C52.3489 25.6839 52.993 25.1065 53.7412 24.6913C54.4894 24.2762 55.3225 24.0339 56.1783 23.9826C57.0342 23.9312 57.8906 24.0722 58.6839 24.3949C59.4771 24.7177 60.1866 25.2139 60.7595 25.8465C62.5372 27.9728 62.3563 30.4625 60.5242 32.0685C59.0269 33.3694 56.9823 33.5937 55.7881 32.1806ZM29.6103 21.5624C27.1449 21.5624 27.0816 25.353 29.4384 25.353C32.2339 25.353 32.0304 21.5624 29.6103 21.5624ZM34.5002 22.2578C34.3321 22.2497 34.164 22.2757 34.0064 22.3344C33.8488 22.3931 33.7049 22.4831 33.5836 22.5989C33.4624 22.7147 33.3663 22.8539 33.3012 23.0079C33.2362 23.1619 33.2036 23.3275 33.2055 23.4944C33.2073 23.6614 33.2436 23.8262 33.312 23.9788C33.3805 24.1313 33.4796 24.2684 33.6034 24.3815C33.7272 24.4947 33.873 24.5815 34.0319 24.6367C34.1908 24.6919 34.3594 24.7143 34.5274 24.7026C36.1151 24.7026 36.1242 22.2578 34.5002 22.2578Z" fill="currentColor"/>
</svg>
