<svg width="32" height="32" viewBox="0 0 32 32" xmlns="http://www.w3.org/2000/svg">
<path d="M9 24C9.0003 24.2651 9.10576 24.5193 9.29323 24.7068C9.4807 24.8942 9.73488 24.9997 10 25H26V27C26 27.2652 25.8946 27.5196 25.7071 27.7071C25.5196 27.8946 25.2652 28 25 28H10C8.93913 28 7.92172 27.5786 7.17157 26.8284C6.42143 26.0783 6 25.0609 6 24V8C5.99999 7.47471 6.10345 6.95456 6.30446 6.46925C6.50548 5.98395 6.80011 5.54299 7.17155 5.17155C7.54299 4.80011 7.98395 4.50548 8.46925 4.30446C8.95456 4.10345 9.47471 3.99999 10 4H25C25.2652 4 25.5196 4.10536 25.7071 4.29289C25.8946 4.48043 26 4.73478 26 5V23H10C9.73488 23.0003 9.4807 23.1058 9.29323 23.2932C9.10576 23.4807 9.0003 23.7349 9 24Z" fill="currentColor"/>
</svg>
