<svg width="24" height="24" viewBox="0 0 24 24" fill="none" xmlns="http://www.w3.org/2000/svg">
<path d="M3 9.75C3 8.81812 3 8.35218 3.15224 7.98463C3.35523 7.49458 3.74458 7.10523 4.23463 6.90224C4.60218 6.75 5.06812 6.75 6 6.75H18C18.9319 6.75 19.3978 6.75 19.7654 6.90224C20.2554 7.10523 20.6448 7.49458 20.8478 7.98463C21 8.35218 21 8.81812 21 9.75V16.75C21 18.6356 21 19.5784 20.4142 20.1642C19.8284 20.75 18.8856 20.75 17 20.75H16H8H7C5.11438 20.75 4.17157 20.75 3.58579 20.1642C3 19.5784 3 18.6356 3 16.75V9.75Z" stroke="currentColor" stroke-linejoin="round"/>
<path d="M8 6.75V4.75C8 3.64543 8.89543 2.75 10 2.75H14C15.1046 2.75 16 3.64543 16 4.75V6.75" stroke="currentColor" stroke-linejoin="round"/>
<path d="M3 9.75C3.18614 11.0666 3.73499 12.2838 4.55558 13.3214C6.19462 15.394 8.91777 16.75 12 16.75C15.0822 16.75 17.8054 15.394 19.4444 13.3214C20.265 12.2838 20.8139 11.0666 21 9.75" stroke="currentColor" stroke-linecap="round"/>
<path d="M11.5 12.75H12.5" stroke="currentColor" stroke-linecap="round" stroke-linejoin="round"/>
</svg>
