<svg width="64" height="64" viewBox="0 0 64 64" fill="none" xmlns="http://www.w3.org/2000/svg">
<path fill-rule="evenodd" clip-rule="evenodd" d="M46.0298 40.2477C47.5874 43.1984 48.7816 46.6786 46.9436 48.2105C45.3392 49.547 42.4524 48.5446 39.8096 47.0692C37.9175 48.2843 35.764 49.0431 33.522 49.2848C31.9643 51.9991 29.9446 54.5077 27.8106 53.9113C25.7338 53.3664 24.9498 50.3695 24.6954 47.3365L24.3631 47.1515C22.8744 46.3162 21.4817 45.3234 20.2094 44.1905C16.8864 45.1261 12.9404 45.6659 11.767 43.4811C10.6662 41.4249 12.8054 38.5513 15.1055 36.238C14.5285 34.199 14.3818 32.0642 14.6746 29.9665C11.985 27.9463 9.21764 25.2218 10.2041 22.9497C11.1906 20.6775 15.3132 20.6158 18.8075 21.0219C19.7891 19.8914 20.9108 18.8879 22.146 18.0353C22.0214 14.663 22.4212 10.6997 24.8875 10.0776C27.2551 9.48648 29.7888 12.3755 31.6372 15.1874C33.6586 15.2571 35.6495 15.6963 37.5095 16.4828C39.9083 14.6425 42.7016 13.1774 44.5033 14.5191C46.305 15.8608 45.7806 18.9606 44.8096 21.7879C46.0745 23.3361 47.0185 25.1162 47.5874 27.0261C50.7442 27.8229 54.036 29.2109 53.9997 31.5653C53.9634 33.9196 50.739 35.3641 47.5978 36.2843C47.2206 37.6574 46.6949 38.9862 46.0298 40.2477V40.2477ZM14.9446 22.4819C12.6237 22.4356 12.172 25.2372 14.8044 25.0522C17.4368 24.8671 18.984 22.5693 14.9446 22.4819ZM14.7784 39.4869C13.1273 41.0959 14.8355 43.3732 16.5385 41.3786C18.2415 39.3841 17.6652 36.6801 14.7784 39.4869ZM36.5853 45.8972C39.5448 45.5682 40.7909 43.9335 41.1752 42.4479C41.523 41.0856 40.1938 40.6487 39.6591 41.4197C38.8439 42.6381 37.2811 43.3989 35.7182 43.6867C34.5708 43.9232 34.5292 46.1285 36.6009 45.9023L36.5853 45.8972ZM24.2229 14.7145C24.0048 17.002 26.8189 17.6549 26.8189 15.0434C26.8189 12.432 24.5863 10.7305 24.2229 14.7145ZM27.6289 17.8451C23.2 18.5082 21.3984 20.7803 20.687 22.9856C20.3028 24.204 21.3932 24.7386 22.2031 23.5511C23.4285 21.7416 25.7805 20.6004 28.1429 20.1994C29.8875 19.8756 29.6902 17.5366 27.6133 17.8451H27.6289ZM34.0568 22.3585C21.1076 18.9863 14.7317 38.6233 29.6746 42.5198C42.2759 45.8047 47.2396 25.7924 34.0568 22.3585ZM40.386 17.0431C38.6051 18.5185 40.1263 20.9243 41.9851 19.0685C43.8439 17.2128 43.4805 14.4728 40.386 17.0431ZM49.4462 29.4525C47.3122 28.5632 45.8429 30.9947 48.3611 31.7914C50.8792 32.5882 53.1742 31.0306 49.4462 29.4525Z" fill="black"/>
</svg>
