<svg width="64" height="64" viewBox="0 0 64 64" fill="none" xmlns="http://www.w3.org/2000/svg">
<path fill-rule="evenodd" clip-rule="evenodd" d="M48.6765 30.2017L46.2685 25.443L53 22.6247L52.5025 28.0268L48.6765 30.2017ZM47.0098 32.5311L34.8504 31.3789L18.5566 49.5705C14.5217 54.429 7.30759 47.9394 11.039 43.5549L25.4273 29.0295L17.5715 20.4648L15.1933 20.3401L12.0838 14.8033L15.3575 12L20.2929 15.9157L20.1039 18.1553L27.8751 26.5354L31.2185 23.1584L35.2335 12.9577L47.8954 12.0549L49.7213 15.2971L41.4575 19.5221L47.0098 32.5311ZM17.1585 43.924C14.6709 41.8389 11.4022 45.5152 14.0391 47.7349C16.4421 49.7601 19.6163 45.999 17.1535 43.924H17.1585ZM39.3629 34.3717C39.3629 34.3717 45.2486 40.4373 48.6666 43.7045C52.8856 47.7449 44.3929 54.8779 40.4674 50.7627C37.4823 47.6551 31.512 39.7888 31.512 39.7888L35.9151 34.4964L39.3629 34.3717Z" fill="#6B360D"/>
</svg>
