<svg width="64" height="64" viewBox="0 0 64 64" fill="none" xmlns="http://www.w3.org/2000/svg">
<path fill-rule="evenodd" clip-rule="evenodd" d="M32.4564 18.4941C31.9615 16.4707 33.1592 14.0037 35.9703 14.0037C36.683 13.9705 37.3877 14.1633 37.9809 14.5538C38.5742 14.9443 39.0247 15.5119 39.2663 16.1733L42.3743 16.2367C42.6139 15.6409 43.0355 15.1332 43.5808 14.7838C44.1261 14.4344 44.7681 14.2606 45.418 14.2865C48.338 14.2865 49.2635 17.2118 48.2687 19.1621L53 23.0626L51.5846 25.1494L34.9409 25.3444C34.9409 25.3444 28.1309 32.9504 26.9135 35.359C25.696 37.7675 27.6707 46.8752 34.0896 46.8752C40.5086 46.8752 42.6119 37.6944 40.6471 33.438C42.9586 31.5694 45.0953 29.5004 47.0314 27.2556L49.9019 27.2947C48.0897 29.7596 45.9845 32.0021 43.6314 33.9743C44.9875 37.3872 42.988 42.9259 42.4436 45.1882C41.8992 47.4505 48.1994 49.7616 48.1994 49.7616L48.0757 51L23.1126 50.9366L25.503 46.9971L21.8555 39.1229V36.0464L18.8861 38.611L22.88 46.7241L20.3609 50.9317H12.9373C10.3638 46.7484 9.31457 44.2082 10.4628 40.805C14.3181 29.2254 15.877 28.7183 22.88 26.1781C28.4378 24.1401 29.4375 22.3605 32.4564 18.4941ZM35.9802 19.4254C38.4002 19.4254 38.4151 15.7199 35.9406 15.7199C33.466 15.7199 33.3472 19.4254 35.9802 19.4254Z" fill="currentColor"/>
</svg>
