<svg width="64" height="64" viewBox="0 0 64 64" fill="none" xmlns="http://www.w3.org/2000/svg">
<path fill-rule="evenodd" clip-rule="evenodd" d="M44.1526 38.5942C46.2954 33.0266 45.802 25.0857 42.3743 19.3492C48.3316 20.7183 52.8352 24.9215 54 33.4053L51.6082 40.187L44.1526 38.5942ZM36.6214 16.9304L36.4436 15.0593L40.9827 15L40.8004 17.2818L36.6214 16.9304ZM40.0491 18.9613C44.4949 24.926 43.748 33.2 42.0453 38.1516L21.5502 33.7841C22.0881 23.5387 29.2947 18.8289 37.4928 18.8289C38.3465 18.8287 39.1997 18.8729 40.0491 18.9613V18.9613ZM30.2017 43.4911C24.56 43.4911 25.5469 38.9776 15.4772 38.6992L20.5765 35.7283L38.7598 39.4294C36.9059 41.3963 32.9936 43.4911 30.2017 43.4911ZM30.1528 45.3622C34.2162 45.3622 37.7862 43.0804 41.3828 39.9451L44.4371 40.5612C41.2272 43.9931 34.3318 48 30.4106 48C20.9589 48 23.0395 40.5886 10.6313 43.1032L10 41.8847L12.2229 40.584C13.4597 40.422 14.7062 40.3503 15.9529 40.3695C23.7153 40.3786 24.0443 45.3622 30.1528 45.3622Z" fill="#6B360D"/>
</svg>
