<svg width="64" height="64" viewBox="0 0 64 64" fill="none" xmlns="http://www.w3.org/2000/svg">
<path fill-rule="evenodd" clip-rule="evenodd" d="M36.1183 36.0447L25.8388 27.4657C25.8388 27.4657 32.4636 20.5594 35.4227 17.5797C34.4345 15.9736 35.6712 12.6893 35.6712 12.6893C35.6712 12.6893 39.9497 9.00075 43.8694 8.25861C52.8515 6.54171 58.3667 13.6087 49.5225 22.4867C41.2802 30.7611 36.1183 36.0447 36.1183 36.0447ZM38.9504 19.0086C38.31 18.5046 35.7705 21.2904 33.22 23.4947C29.4494 26.7568 30.2885 27.7316 31.4478 27.7316C34.8541 27.7316 40.5238 20.2548 38.9504 19.0086V19.0086ZM45.6746 10.7398C42.9585 11.2217 43.0854 14.6167 46.1163 13.8081C49.1471 12.9995 50.4114 9.89797 45.6746 10.7398ZM24.696 52.2777C18.7503 58.01 10.011 55.7946 10 48.1461C10 41.6274 15.1453 38.177 24.155 29.1439C34.3628 39.3844 38.9394 43.0563 38.9394 48.1849C38.9394 55.9497 30.7412 59.0457 24.6684 52.2556L24.696 52.2777ZM13.1026 45.7812C11.2587 48.1959 13.8921 50.8765 15.7305 47.9412C17.5689 45.0058 16.3157 41.5499 13.0971 45.7591L13.1026 45.7812Z" fill="black"/>
</svg>
