<svg width="32" height="32" viewBox="0 0 32 32" fill="none" xmlns="http://www.w3.org/2000/svg">
<path fill-rule="evenodd" clip-rule="evenodd" d="M10.1101 18.7932L8.73188 17.4147V15.9993H7.43202V17.9529L8.81028 19.3315V21.7217L12.4243 25.3356V28.6271H13.7242V24.7974L10.1101 21.1835V18.7932ZM25.622 22.0035H26.9218V20.6973H25.622V22.0035ZM15.3498 29.2795H16.6497V27.9747H15.3498V29.2795ZM5.20174 20.776H6.50159V19.4698H5.20174V20.776ZM7.31965 25.1731H8.6195V23.8682H7.31965V25.1731ZM9.39565 27.2499H10.6955V25.9437H9.39565V27.2499ZM27.025 11.8725L26.0786 12.8187L19.467 6.20599L16.6077 9.06595V11.8306L13.603 14.8354L13.1803 14.4126V10.117H10.08L7.80018 12.3968H4.15767L2.5492 14.0051L3.46833 14.9241L4.69563 13.6966H6.50033L2.71609 17.4807L3.63521 18.3997L10.6179 11.4168H11.8805V14.0318H10.5781V15.3316H12.2612L14.5569 17.6279V19.9953L13.3359 18.7742L12.4167 19.6932L16.9381 24.2148L17.8572 23.2957L15.8567 21.2952V17.0897L14.5221 15.7545L17.908 12.3689V9.60413L19.467 8.04406L19.5202 8.09739V14.0343L17.6161 15.9371L21.3534 19.6742V21.4869L25.032 25.1656L25.9511 24.2465L22.6533 20.9486V19.136L19.4544 15.9371L20.8201 14.5725V9.3975L25.1595 13.7376L22.234 16.6619L23.1531 17.581L27.025 13.7106L27.6036 14.2895V16.653H28.9035V13.7512L27.025 11.8725ZM18.8045 24.2465L17.8853 25.1656L20.4444 27.7246H22.6935V26.4248H20.9828L18.8045 24.2465ZM20.6054 22.3729L19.6829 21.45L18.7638 22.3691L19.6867 23.2919L20.6054 22.3729ZM17.1901 18.4086V19.7148H18.4908V18.4086H17.1901ZM27.6036 19.2629H28.9035V17.958H27.6036V19.2629ZM21.3505 23.8708V25.1706H22.6558V23.8708H21.3505ZM15.9997 30.7001C7.89411 30.7001 1.29967 24.1056 1.29967 15.9993C1.29967 7.89428 7.89411 1.29985 15.9997 1.29985C24.1053 1.29985 30.6998 7.89428 30.6998 15.9993C30.6998 24.1056 24.1053 30.7001 15.9997 30.7001ZM15.9997 0C7.17752 0 -0.000183105 7.1771 -0.000183105 15.9993C-0.000183105 24.8215 7.17752 32 15.9997 32C24.8224 32 31.9996 24.8215 31.9996 15.9993C31.9996 7.1771 24.8224 0 15.9997 0Z" fill="currentColor"/>
</svg>
