<svg width="18" height="18" viewBox="0 0 18 18" fill="none" xmlns="http://www.w3.org/2000/svg">
<path d="M0 9C0 1.5885 1.5885 0 9 0C16.4115 0 18 1.5885 18 9C18 16.4115 16.4115 18 9 18C1.5885 18 0 16.4115 0 9Z" fill="#202322"/>
<path d="M10 15C8.344 15 7 13.656 7 12C7 10.344 8.344 9 10 9C11.656 9 13 7.656 13 6C13 4.344 11.656 3 10 3C6.688 3 4 5.688 4 9C4 12.312 6.688 15 10 15ZM10 6.9375C9.4825 6.9375 9.0625 6.5175 9.0625 6C9.0625 5.4825 9.4825 5.0625 10 5.0625C10.5175 5.0625 10.9375 5.4825 10.9375 6C10.9375 6.5175 10.5175 6.9375 10 6.9375Z" fill="white"/>
</svg>
