<svg width="32" height="32" viewBox="0 0 32 32" fill="none" xmlns="http://www.w3.org/2000/svg">
<path fill-rule="evenodd" clip-rule="evenodd" d="M26.4354 15.0396L25.5167 15.9587C26.5738 17.0161 27.1101 18.4847 27.1101 20.3254H28.4099C28.4099 18.1268 27.7457 16.3484 26.4354 15.0396ZM6.90636 10.8672C6.90636 12.4831 6.16377 13.5367 5.37716 14.6525C4.61989 15.7277 3.83622 16.8396 3.83622 18.4035H5.13606C5.13606 17.2509 5.74028 16.3941 6.43968 15.4002C7.2678 14.226 8.2062 12.8944 8.2062 10.8672H6.90636ZM22.0281 22.2739L21.1052 23.198L22.0256 24.117L22.9485 23.1929L22.0281 22.2739ZM12.1703 4.50121H10.8705V5.80614H12.1703V4.50121ZM22.2156 4.50121H20.9157V5.80614H22.2156V4.50121ZM24.6001 15.0892L25.5192 14.1701L24.5964 13.2473L23.6772 14.1663L24.6001 15.0892ZM24.5955 8.01362H23.2957V9.31854H24.5955V8.01362ZM3.83622 20.9233H5.13606V19.6183H3.83622V20.9233ZM8.2062 8.30177H6.90636V9.60669H8.2062V8.30177ZM16.0002 30.7001C7.89424 30.7001 1.29985 24.1056 1.29985 15.9993C1.29985 7.89428 7.89424 1.29985 16.0002 1.29985C24.1058 1.29985 30.7002 7.89428 30.7002 15.9993C30.7002 24.1056 24.1058 30.7001 16.0002 30.7001ZM16.0002 0C7.17765 0 7.62939e-06 7.1771 7.62939e-06 15.9993C7.62939e-06 24.8215 7.17765 32 16.0002 32C24.8224 32 32 24.8215 32 15.9993C32 7.1771 24.8224 0 16.0002 0ZM16.5768 21.6544C16.8434 21.921 16.9818 22.4084 16.9764 23.0647C16.9655 24.2897 17.5215 25.2493 18.4628 25.6327C19.3379 25.9894 20.3794 25.7571 21.0532 25.0538L20.1153 24.1551C19.8071 24.4775 19.3416 24.5854 18.9525 24.4293C18.5102 24.249 18.2695 23.7692 18.2762 23.0761C18.285 22.0251 18.0108 21.2266 17.4611 20.7011C16.8162 20.0842 16.0476 20.1007 15.965 20.1121L15.3868 20.1426L15.3516 20.7214C15.3507 20.7341 15.2589 22.0086 14.1041 22.5087C13.045 22.9682 11.8839 22.4605 11.8738 22.4554L11.1916 22.1419L10.9795 22.8616C10.7422 23.6664 10.8902 24.5321 11.3745 25.1795C11.7493 25.6822 12.4953 26.2801 13.9171 26.2801V24.9802C13.2177 24.9802 12.6982 24.7796 12.4152 24.4014C12.2986 24.2452 12.2307 24.0739 12.1963 23.9025C12.8278 24.0333 13.7255 24.0878 14.6203 23.7019C15.7742 23.2031 16.2736 22.2549 16.4887 21.5783C16.5185 21.5998 16.5482 21.6252 16.5768 21.6544ZM13.3825 28.9852C13.8517 29.1005 14.3423 29.1894 14.84 29.2477L14.9935 27.9582C14.5402 27.9036 14.1066 27.8249 13.6936 27.7234L13.3825 28.9852ZM7.79402 20.7582C7.78606 18.8846 8.46491 17.8475 9.25068 16.6467C9.66915 16.0082 10.0973 15.3545 10.439 14.5509C10.421 14.8873 10.3254 15.3443 10.2528 15.6871C10.1233 16.3014 9.9895 16.9374 10.036 17.5187C10.1501 18.9481 11.2197 19.9865 12.5783 19.9865C14.2966 19.9865 15.196 18.7183 15.196 17.4667C15.196 16.1275 14.6257 15.2351 14.1226 14.4481C13.6182 13.6586 13.1821 12.9756 13.1821 11.8395C13.1821 10.7428 13.684 9.97228 14.1754 9.36169L13.1624 8.54677C12.5665 9.2868 11.8822 10.3302 11.8822 11.8395C11.8822 13.3552 12.4906 14.3085 13.0269 15.1476C13.4936 15.8775 13.8961 16.507 13.8961 17.4667C13.8961 18.0735 13.4886 18.6866 12.5783 18.6866C11.7912 18.6866 11.3807 18.0278 11.3317 17.4147C11.3002 17.0212 11.4143 16.4791 11.525 15.9549C11.7221 15.0168 11.9267 14.0457 11.4231 13.3679C11.1581 13.0099 10.7497 12.8055 10.2109 12.7586L9.6746 12.7116L9.52868 13.2295C9.22217 14.3174 8.70811 15.1031 8.16343 15.9346C7.33782 17.1951 6.48412 18.4987 6.49418 20.7633C6.5097 24.1716 8.56638 27.1331 11.8638 28.4913L12.359 27.2905C9.51359 26.1176 7.80702 23.6753 7.79402 20.7582ZM22.9581 16.5058L22.1665 16.4258L22.2441 17.2179C22.2625 17.4007 22.3812 19.0154 21.049 19.2578C20.5182 19.3606 20.0247 19.2096 19.6578 18.8465C19.2247 18.4175 19.0376 17.7447 19.1576 17.0478C19.2783 16.3471 19.6591 15.9638 20.1853 15.4344C20.6503 14.966 21.1786 14.4354 21.5686 13.5963C22.4302 11.7431 21.9724 10.1678 21.257 9.31091C20.7513 8.70543 20.114 8.42999 19.5484 8.57976L19.007 8.72191L19.0674 9.27791C19.1651 10.1792 18.9521 11.0284 18.5123 11.4943C18.2615 11.7608 17.96 11.8827 17.5898 11.8624C16.6996 11.8179 16.5663 11.1807 16.5663 10.805C16.5663 10.2554 16.8418 9.89484 17.2225 9.39725C17.6913 8.78288 18.2754 8.01995 18.3554 6.73406C18.4888 4.58373 17.4971 3.52888 16.8942 3.09222C16.2308 2.61236 15.4497 2.44229 14.9062 2.65807L14.1771 2.94877L14.5985 3.6114C14.8803 4.0544 15.6732 5.64621 14.045 7.52617L15.0278 8.37665C16.2799 6.93084 16.5097 5.43929 16.2388 4.22829C16.8325 4.72969 17.1239 5.59036 17.0581 6.65284C17.0024 7.54395 16.6082 8.06058 16.1897 8.60769C15.757 9.17384 15.2664 9.81613 15.2664 10.805C15.2664 11.9221 15.965 13.0835 17.5252 13.1597C18.2787 13.1978 18.9441 12.9299 19.457 12.3866C19.9492 11.8662 20.2612 11.1172 20.3585 10.2756C20.3786 10.3061 20.3983 10.3366 20.4188 10.3696C20.6243 10.7136 21.0335 11.6631 20.3895 13.048C20.0956 13.6801 19.6913 14.0876 19.2628 14.5192C18.6754 15.1108 18.0674 15.7213 17.8766 16.8269C17.6846 17.9415 18.0083 19.042 18.7437 19.7694C19.4117 20.4307 20.3362 20.71 21.2826 20.5374C22.7246 20.2746 23.3104 19.1677 23.4898 18.1776C23.9179 18.5838 24.3917 19.4165 24.4102 21.1124C24.4282 22.7816 23.7108 24.4737 22.4416 25.7571C21.4096 26.8005 19.537 28.0432 16.4761 28.0432V29.3433C19.9857 29.3433 22.1598 27.8896 23.3657 26.671C24.8769 25.144 25.7318 23.1129 25.71 21.0997C25.6643 16.8346 23.0684 16.5172 22.9581 16.5058Z" fill="currentColor"/>
</svg>
