<svg width="32" height="32" viewBox="0 0 32 32" fill="none" xmlns="http://www.w3.org/2000/svg">
<path d="M22.1404 8.41422L12.1421 8.41422C11.5898 8.41422 11.1421 8.86193 11.1421 9.41422C11.1421 9.9665 11.5898 10.4142 12.1421 10.4142L19.7279 10.4142L8.70708 21.435C8.31655 21.8256 8.31655 22.4587 8.70708 22.8492C9.0976 23.2398 9.73077 23.2398 10.1213 22.8492L21.1421 11.8284V19.4142C21.1421 19.9665 21.5898 20.4142 22.1421 20.4142C22.6944 20.4142 23.1421 19.9665 23.1421 19.4142V9.41491C23.1421 9.41404 23.1421 9.41248 23.1421 9.41162C23.1421 9.41148 23.1421 9.41175 23.1421 9.41162C23.1417 9.27712 23.1148 9.14847 23.0662 9.03143C23.0174 8.91349 22.9451 8.80298 22.8492 8.70711C22.7528 8.61069 22.6416 8.53808 22.5229 8.48928C22.4097 8.4426 22.286 8.41612 22.1563 8.41431" fill="currentColor"/>
</svg>
