<svg width="32" height="32" viewBox="0 0 32 32" fill="none" xmlns="http://www.w3.org/2000/svg">
<path d="M23.0711 23.0711C23.4616 22.6805 23.4616 22.0474 23.0711 21.6568L17.4142 16L23.0711 10.3432C23.4616 9.95263 23.4616 9.31947 23.0711 8.92894C22.6806 8.53842 22.0474 8.53842 21.6569 8.92894L16 14.5858L10.3432 8.92893C9.95263 8.5384 9.31947 8.5384 8.92894 8.92893C8.53842 9.31945 8.53842 9.95261 8.92894 10.3431L14.5858 16L8.92894 21.6569C8.53842 22.0474 8.53842 22.6806 8.92894 23.0711C9.31946 23.4616 9.95263 23.4616 10.3432 23.0711L16 17.4142L21.6569 23.0711C22.0474 23.4616 22.6806 23.4616 23.0711 23.0711Z" fill="currentColor"/>
</svg>
