<svg width="24" height="24" viewBox="0 0 24 24" fill="none" xmlns="http://www.w3.org/2000/svg">
<path d="M3 12C3 4.5885 4.5885 3 12 3C19.4115 3 21 4.5885 21 12C21 19.4115 19.4115 21 12 21C4.5885 21 3 19.4115 3 12Z" stroke="currentColor"/>
<path d="M11.4581 12.83C11.4581 12.5033 11.5215 12.2233 11.6481 11.99C11.7748 11.7567 12.0081 11.49 12.3481 11.19C12.5948 10.9767 12.7681 10.7933 12.8681 10.64C12.9681 10.4867 13.0181 10.33 13.0181 10.17V10.04C13.0181 9.77333 12.9248 9.56 12.7381 9.4C12.5515 9.24 12.3015 9.16 11.9881 9.16C11.6415 9.16 11.3715 9.25 11.1781 9.43C10.9915 9.61 10.8981 9.86 10.8981 10.18V10.48H9.99813V10.18C9.99813 9.61333 10.1781 9.16333 10.5381 8.83C10.8981 8.49 11.3815 8.32 11.9881 8.32C12.3681 8.32 12.7048 8.39333 12.9981 8.54C13.2915 8.68 13.5181 8.87667 13.6781 9.13C13.8448 9.38333 13.9281 9.67333 13.9281 10V10.13C13.9281 10.4033 13.8581 10.66 13.7181 10.9C13.5848 11.14 13.3748 11.3833 13.0881 11.63C12.7815 11.89 12.5748 12.1033 12.4681 12.27C12.3681 12.4367 12.3181 12.6367 12.3181 12.87V13.2H11.4581V12.83ZM11.8981 15.12C11.7315 15.12 11.5915 15.0633 11.4781 14.95C11.3648 14.8367 11.3081 14.6967 11.3081 14.53C11.3081 14.3567 11.3615 14.2167 11.4681 14.11C11.5815 13.9967 11.7248 13.94 11.8981 13.94C12.0715 13.94 12.2115 13.9967 12.3181 14.11C12.4315 14.2167 12.4881 14.3567 12.4881 14.53C12.4881 14.7033 12.4348 14.8467 12.3281 14.96C12.2215 15.0667 12.0781 15.12 11.8981 15.12Z" fill="currentColor"/>
</svg>
