<svg width="16" height="16" viewBox="0 0 16 16" fill="none" xmlns="http://www.w3.org/2000/svg">
<path fill-rule="evenodd" clip-rule="evenodd" d="M3.29831 13.5835L3.53921 2.66142L10.5112 2.41699L12.7017 4.30616L12.5168 13.4675L3.29831 13.5835ZM8.79271 12.0644C9.014 11.8946 9.89075 11.0356 9.89075 11.0356L9.03501 10.8975L8.79131 9.25831C8.79131 9.25831 7.84453 9.69331 7.021 9.44335C7.03361 9.53588 7.05321 9.81898 7.05742 9.92117C4.83472 11.1323 6.07002 12.3241 8.79271 12.0603V12.0644ZM8.60364 6.80295C8.59383 6.10141 8.29551 5.73822 7.59383 5.73684C6.68907 5.73684 6.62744 6.53089 6.62884 6.86095C6.62524 7.08461 6.63553 7.30829 6.65966 7.53071C6.65966 8.39796 7.0098 8.5333 7.11764 8.64377C7.15942 8.72421 7.22219 8.7922 7.29949 8.84075C7.3768 8.8893 7.46583 8.91664 7.55742 8.91997C7.92296 8.91997 7.97759 8.76254 8.02801 8.71006C8.10784 8.6272 8.43277 8.47806 8.43137 8.15767C8.43137 7.58733 8.62605 7.60529 8.63445 7.46719C8.64425 7.28076 8.60784 7.08052 8.60364 6.7988V6.80295ZM9.86414 4.99388L9.78851 3.21657L4.21848 3.44581L4.07842 11.7316C4.5098 10.845 5.36694 10.2222 5.96218 9.46821C5.62324 8.73078 5.59103 7.36638 5.80391 7.08742C5.74207 6.94467 5.71658 6.78916 5.72968 6.63447C5.72968 6.4287 6.0238 6.10556 6.09523 5.89703C6.23014 5.57736 6.45892 5.30476 6.75218 5.11429C7.04543 4.92382 7.38975 4.82418 7.74089 4.82816C9.59523 4.80054 9.85714 5.90532 9.98179 6.77809C10.0882 7.49481 10.1891 8.13834 10.2619 8.55954C10.3375 8.95864 10.388 10.0427 10.902 10.5495C11.1371 10.7492 11.385 10.9337 11.6443 11.1019L11.7381 11.2331L11.8781 5.01874L9.86414 4.99388Z" fill="currentColor"/>
</svg>
