<svg width="64" height="64" viewBox="0 0 64 64" fill="none" xmlns="http://www.w3.org/2000/svg">
<path fill-rule="evenodd" clip-rule="evenodd" d="M44.3096 14.6651C44.3096 18.0448 44.1481 24.712 44.2312 27.6957C44.365 32.2587 43.0082 35.5647 40.2992 37.5123L40.8114 54.9033L38.5547 55L35.9288 39.2758C34.8902 39.4624 33.8366 39.5533 32.7813 39.5475C27.188 39.5475 25.1943 39.4969 25.1943 39.4969L16.2596 44.5894L14.1875 54.6823L12 54.7698L12.6969 42.8995C16.4396 39.0825 17.2611 35.3022 15.1797 32.1252L12.6276 32.4337C12.6276 27.9351 16.3519 25.6743 20.6162 25.6743C24.4143 25.6743 35.3011 25.8677 35.3011 25.8677L35.3427 22.3407C34.64 22.5066 33.9847 22.8311 33.4274 23.2892L29.3616 21.337C29.1309 18.1139 30.6261 14.8907 35.3611 14.7618C35.3611 14.7296 35.3611 14.6928 35.3611 14.6651C35.3611 8.17288 21.7469 15.2729 19.7855 7.58811C18.5718 2.86856 21.4284 1.89703 21.4284 1.89703L23.2744 4.9774L25.1804 3.72038L25.7065 0.211805L26.5788 0C27.2347 1.18132 27.7949 2.4131 28.254 3.68355L30.6031 4.95437L31.7707 1.48263L32.6937 1.52867C33.0978 3.13276 33.3313 4.77487 33.3905 6.42779L34.8119 7.18292L37.0918 4.23608C40.5576 6.22059 37.0133 9.35621 37.9686 12.3675L41.4483 12.3997L41.7252 12.3675C42.6574 9.35621 38.9977 5.87526 42.5282 3.98284L44.5819 7.20594L46.0495 6.44161C46.1489 4.72671 46.4384 3.02807 46.9125 1.37673H47.8355L48.9154 4.97279L51.3706 3.69276C51.8696 2.44882 52.4668 1.24635 53.1566 0.0966936L54.0196 0.336124L54.3288 3.76182L56.2486 5.17999L58.1869 2.19171C58.1869 2.19171 60.9882 3.25534 59.6268 7.92884C57.4254 15.5446 44.3096 8.17748 44.3096 14.6651ZM23.7359 54.7836L21.3131 54.9355L18.7056 45.2248L22.1761 42.6509L23.7359 54.7836ZM34.4197 54.8066L32.0199 54.9125L31.2215 41.2972L34.9688 41.6563L34.4197 54.8066Z" fill="currentColor"/>
</svg>
