<svg width="16" height="16" viewBox="0 0 16 16" fill="none" xmlns="http://www.w3.org/2000/svg">
<path fill-rule="evenodd" clip-rule="evenodd" d="M8.32126 10.4886C8.20997 11.3096 8.46404 11.9584 8.62992 12.2156C8.97054 12.001 9.3677 11.8935 9.77007 11.907C10.3821 11.907 10.9249 12.1254 10.9249 12.602C10.9249 12.9799 10.5123 13.3631 9.72492 13.3631C9.36377 13.3631 8.94383 13.1784 8.58687 12.8802L8.23097 12.5275C8.01885 12.2541 7.88755 11.9268 7.85197 11.5826L6.79896 11.2991L7.40998 10.4036C6.0693 9.81881 4.60999 7.41357 4.61209 5.66135C4.61839 1.085 11.3932 1.29497 11.3879 5.59101C11.3848 7.50386 9.72492 10.1086 8.32126 10.4886ZM9.72387 12.8634C10.2079 12.8634 10.4231 12.6734 10.4231 12.602C10.4231 12.624 10.3989 12.4078 9.76902 12.4078C9.50536 12.3992 9.24374 12.4566 9.00787 12.5747C9.21209 12.7407 9.46161 12.8413 9.72387 12.8634ZM8 3.26871C6.66457 3.0157 5.38794 4.38052 5.59267 5.70754L5.85723 5.69285C6.23833 4.66713 6.93859 3.92278 8 3.54063V3.26871ZM7.12861 13.1994C7.48977 13.213 7.75853 13.024 7.9685 12.8214L8.29396 13.1899C8.04095 13.4282 7.65774 13.7012 7.17061 13.7012C6.97844 13.6993 6.79012 13.6471 6.62436 13.5499C6.4586 13.4526 6.32117 13.3137 6.22573 13.1469L6.4567 12.9159C6.63738 13.091 6.87709 13.1922 7.12861 13.1994Z" fill="currentColor"/>
</svg>
