<svg width="160" height="128" viewBox="0 0 160 128" fill="none" xmlns="http://www.w3.org/2000/svg">
<g opacity="0.5" clip-path="url(#clip0_1406_51577)">
<path d="M160 20.0347V18.2591C155.622 11.8878 150.873 5.79102 145.784 0H144.45C150.056 6.32145 155.253 13.0135 160 20.0347Z" fill="currentColor"/>
<path d="M130.786 0C142.174 11.6339 152.022 24.7809 160 39.1114V37.0731C152.299 23.5511 142.933 11.1005 132.182 0H130.786Z" fill="currentColor"/>
<path d="M117.866 0C135.8 16.5225 150.253 36.7659 160 59.5052V62.0856C150.168 38.2463 135.164 17.085 116.385 0H117.866Z" fill="currentColor"/>
<path d="M160 91.8381C151.708 54.9938 131.016 22.843 102.538 0H100.932C130.942 23.6966 152.42 57.7218 160 96.7115V91.8381Z" fill="currentColor"/>
<path d="M85.656 0C126.871 27.6353 154 74.6495 154 128H153C153 74.4573 125.497 27.3383 83.8469 0H85.656Z" fill="currentColor"/>
<path d="M144 128C144 72.2731 112.345 23.9396 66.0352 0H63.8278C110.766 23.4514 143 71.9613 143 128H144Z" fill="currentColor"/>
<path d="M134 128C134 67.8412 94.3567 16.9415 39.769 0H36.25C92.0855 15.7815 133 67.1127 133 128H134Z" fill="currentColor"/>
<path d="M124 128C124 59.5167 68.4833 4 0 4V5C67.931 5 123 60.069 123 128H124Z" fill="currentColor"/>
<path d="M114 128C114 65.0395 62.9605 14 0 14V15C62.4082 15 113 65.5918 113 128H114Z" fill="currentColor"/>
<path d="M104 128C104 70.5624 57.4376 24 0 24V25C56.8853 25 103 71.1147 103 128H104Z" fill="currentColor"/>
<path d="M94 128C94 76.0852 51.9148 34 0 34V35C51.3625 35 93 76.6375 93 128H94Z" fill="currentColor"/>
<path d="M84 128C84 81.6081 46.3919 44 0 44V45C45.8396 45 83 82.1604 83 128H84Z" fill="currentColor"/>
<path d="M74 128C74 87.1309 40.8691 54 0 54V55C40.3168 55 73 87.6832 73 128H74Z" fill="currentColor"/>
<path d="M64 128C64 92.6538 35.3462 64 0 64V65C34.7939 65 63 93.2061 63 128H64Z" fill="currentColor"/>
<path d="M54 128C54 98.1766 29.8234 74 0 74V75C29.2711 75 53 98.7289 53 128H54Z" fill="currentColor"/>
<path d="M44 128C44 103.699 24.3005 84 0 84V85C23.7482 85 43 104.252 43 128H44Z" fill="currentColor"/>
<path d="M32 128C32 110.327 17.6731 96 0 96V97C17.1208 97 31 110.879 31 128H32Z" fill="currentColor"/>
<path d="M20 128C20 116.954 11.0457 108 0 108V109C10.4934 109 19 117.507 19 128H20Z" fill="currentColor"/>
<path d="M10 128C10 122.477 5.52285 118 0 118V119C4.97056 119 9 123.029 9 128H10Z" fill="currentColor"/>
</g>
<defs>
<clipPath id="clip0_1406_51577">
<rect width="160" height="128" fill="white"/>
</clipPath>
</defs>
</svg>
