<svg width="18" height="18" viewBox="0 0 18 18" fill="none" xmlns="http://www.w3.org/2000/svg">
<path d="M0 9C0 1.5885 1.5885 0 9 0C16.4115 0 18 1.5885 18 9C18 16.4115 16.4115 18 9 18C1.5885 18 0 16.4115 0 9Z" fill="white"/>
<path d="M8 15C11.312 15 14 12.312 14 9C14 5.688 11.312 3 8 3C9.656 3 11 4.344 11 6C11 7.656 9.656 9 8 9C6.344 9 5 10.344 5 12C5 13.656 6.344 15 8 15ZM8 12.9375C7.4825 12.9375 7.0625 12.5175 7.0625 12C7.0625 11.4825 7.4825 11.0625 8 11.0625C8.5175 11.0625 8.9375 11.4825 8.9375 12C8.9375 12.5175 8.5175 12.9375 8 12.9375Z" fill="#202322"/>
</svg>
