<svg width="16" height="16" viewBox="0 0 16 16" fill="none" xmlns="http://www.w3.org/2000/svg">
<path fill-rule="evenodd" clip-rule="evenodd" d="M2.56278 13.5007L2.41425 12.8153L3.38822 12.4647L3.58911 12.8676L4.47908 12.5633L4.30254 12.1359L5.81099 11.5917L5.93274 10.4814C5.895 10.4278 5.85969 10.3743 5.82438 10.3195C4.99894 10.1235 4.82727 9.18114 5.20712 8.59798C5.1706 8.37477 5.14219 8.1398 5.1219 7.89306C4.59961 7.21006 3.41744 4.86886 5.352 4.40257C5.14503 3.14614 6.16527 2.55932 6.93472 3.19362C7.51667 2.08451 9.82621 2.3767 9.94065 3.55886C10.1098 3.50353 10.2916 3.4992 10.4632 3.54642C10.6348 3.59363 10.7887 3.6903 10.9058 3.82437C11.0229 3.95845 11.0979 4.12401 11.1216 4.30043C11.1452 4.47685 11.1164 4.65633 11.0388 4.81651C11.8131 5.06731 11.4187 7.1431 10.8598 7.88941C10.8525 8.10855 10.8404 8.31552 10.8233 8.51032C11.2032 9.12758 11.0546 10.132 10.2913 10.3365C10.2511 10.4011 10.2097 10.4583 10.1695 10.5277L10.3534 11.6319L11.8143 12.1566L11.611 12.6193L12.5156 12.9602L12.7481 12.4914L13.5858 12.7922L13.4214 13.4703L2.56278 13.5007ZM8.07914 13.0004L9.71177 12.282L9.60098 11.1498C9.34444 11.3826 9.07142 11.5967 8.78406 11.7902L7.40344 11.817C7.09906 11.6218 6.81154 11.4015 6.54391 11.1583L6.47208 12.2467L8.07914 13.0004ZM9.41836 10.289C9.18358 10.2156 8.96671 10.0939 8.7816 9.93185C8.5965 9.76981 8.44723 9.57093 8.34333 9.34794H7.72242C7.72242 9.34794 7.59215 10.104 6.64252 10.3037C6.91955 10.6036 7.23568 10.8648 7.58241 11.0804L8.49673 11.1096C8.84359 10.8852 9.15504 10.6102 9.42079 10.2939L9.41836 10.289ZM10.2195 7.24537C9.84934 6.43818 9.59854 5.37898 9.68377 4.47805C9.00442 5.06487 7.07473 5.97554 6.10805 5.49708C6.09588 5.94145 5.92665 6.51975 5.74281 7.01526C5.74492 7.60196 5.79828 8.18736 5.9023 8.76477C6.30407 9.17627 7.16117 8.74773 7.44849 8.38857L8.74997 8.45188C9.06773 8.8853 9.67281 9.01435 10.0685 8.81712C10.1614 8.30099 10.2127 7.77823 10.2219 7.25389L10.2195 7.24537Z" fill="currentColor"/>
</svg>
