<svg width="96" height="96" viewBox="0 0 96 96" fill="none" xmlns="http://www.w3.org/2000/svg">
<path d="M47.2689 0C19.5771 0 5 22.5838 5 48.1888C5 75.4839 20.8474 96 47.2689 96C74.5951 96 91 76.2392 91 48.1888C90.9909 24.2833 76.7794 0 47.2689 0Z" fill="#261E1E"/>
<path fill-rule="evenodd" clip-rule="evenodd" d="M82.4859 48.7321L57.349 47.1972L57.4832 54.2702C65.5302 59.483 73.9162 65.6365 79.1442 73.0984L72.701 77.7666L57.6387 61.7392L57.9425 77.9293L50.2629 78L49.7613 47.0204H45.9039L45.9463 77.71L38.2597 77.7807L38.3727 61.0885L23.0419 77.7312L16.6835 73.2894C21.629 66.0325 30.2057 59.3839 38.3939 53.9519L38.4716 47.2467L13.25 48.8947L13.6598 41.0154L37.0728 40.8811C29.3014 35.6258 21.3958 29.3097 16.7118 22.4489L23.0702 18.0071L44.0812 40.8315L51.2732 40.7891L72.701 18L79.1442 22.6682C74.1564 29.7411 66.2932 35.7178 58.6066 40.7467L82.5 40.6052L82.4859 48.7321ZM47.6631 34.5861C39.051 34.6073 38.9944 21.0767 47.8256 21.0767C56.6567 21.0767 57.1229 34.6073 47.6772 34.6073L47.6631 34.5861Z" fill="white"/>
</svg>
