<svg width="96" height="96" viewBox="0 0 96 96" fill="none" xmlns="http://www.w3.org/2000/svg">
<path fill-rule="evenodd" clip-rule="evenodd" d="M89.383 48.8785L59.2188 47.0367L59.3799 55.5242C69.0362 61.7796 79.0994 69.1637 85.373 78.1181L77.6412 83.7199L59.5664 64.4871L59.9309 83.9151L50.7155 84L50.1136 46.8245H45.4847L45.5355 83.652L36.3116 83.7369L36.4473 63.7062L18.0503 83.6775L10.4202 78.3473C16.3547 69.639 26.6469 61.6607 36.4727 55.1423L36.566 47.0961L6.29999 49.0737L6.7917 39.6185L34.8873 39.4573C25.5617 33.151 16.075 25.5716 10.4541 17.3387L18.0842 12.0085L43.2974 39.3979L51.9278 39.3469L77.6412 12L85.373 17.6018C79.3876 26.0894 69.9518 33.2613 60.7279 39.296L89.4 39.1263L89.383 48.8785ZM47.5957 31.9033C37.2611 31.9288 37.1933 15.6921 47.7906 15.6921C58.388 15.6921 58.9475 31.9288 47.6126 31.9288L47.5957 31.9033Z" fill="#2F2727"/>
</svg>
