<svg width="46" height="20" viewBox="0 0 46 20" fill="none" xmlns="http://www.w3.org/2000/svg">
<g opacity="0.1">
<path d="M41.8423 9.17434L41.9136 9.06534C41.9507 9.00868 41.9101 8.93341 41.8423 8.93341H39C38.9211 8.93341 38.8571 8.86948 38.8571 8.79054V4.82039V4.80846C38.8571 4.76646 38.8025 4.75016 38.7795 4.7853L34.7925 10.8746L34.7356 10.9615C34.706 11.0067 34.7384 11.0667 34.7925 11.0667H37.6325H37.6685C37.7464 11.0667 37.8095 11.1299 37.8095 11.2078V15.0685C37.8095 15.1471 37.9122 15.1765 37.9552 15.1109L41.8423 9.17434Z" stroke="#6B360D" fill="none" stroke-linejoin="round"/>
</g>
<g opacity="0.1">
<path d="M31.8423 9.17434L31.9136 9.06534C31.9507 9.00868 31.9101 8.93341 31.8423 8.93341H29C28.9211 8.93341 28.8571 8.86948 28.8571 8.79054V4.82039V4.80846C28.8571 4.76646 28.8025 4.75016 28.7795 4.7853L24.7925 10.8746L24.7356 10.9615C24.706 11.0067 24.7384 11.0667 24.7925 11.0667H27.6325H27.6685C27.7464 11.0667 27.8095 11.1299 27.8095 11.2078V15.0685C27.8095 15.1471 27.9122 15.1765 27.9552 15.1109L31.8423 9.17434Z" stroke="#6B360D" fill="none" stroke-linejoin="round"/>
</g>
<path d="M21.8423 9.17434L21.9136 9.06534C21.9507 9.00868 21.9101 8.93341 21.8423 8.93341H19C18.9211 8.93341 18.8571 8.86948 18.8571 8.79054V4.82039V4.80846C18.8571 4.76646 18.8025 4.75016 18.7795 4.7853L14.7925 10.8746L14.7356 10.9615C14.706 11.0067 14.7384 11.0667 14.7925 11.0667H17.6325H17.6685C17.7464 11.0667 17.8095 11.1299 17.8095 11.2078V15.0685C17.8095 15.1471 17.9122 15.1765 17.9552 15.1109L21.8423 9.17434Z" stroke="currentColor" fill="none" stroke-linejoin="round"/>
<path d="M11.8423 9.17434L11.9136 9.06534C11.9507 9.00868 11.9101 8.93341 11.8423 8.93341H9.00001C8.92115 8.93341 8.85715 8.86948 8.85715 8.79054V4.82039V4.80846C8.85715 4.76646 8.80255 4.75016 8.77955 4.7853L4.79247 10.8746L4.73559 10.9615C4.70598 11.0067 4.73842 11.0667 4.79247 11.0667H7.63255H7.66848C7.74641 11.0667 7.80955 11.1299 7.80955 11.2078V15.0685C7.80955 15.1471 7.91221 15.1765 7.95521 15.1109L11.8423 9.17434Z" stroke="currentColor" fill="none" stroke-linejoin="round"/>
</svg>
