<svg width="64" height="64" viewBox="0 0 64 64" fill="none" xmlns="http://www.w3.org/2000/svg">
<path fill-rule="evenodd" clip-rule="evenodd" d="M50.2614 38.2977L46.3111 26.3987L46.1509 27.4108L45.9104 34.9411L40.4422 40.6469L39.9284 55.9675H37.7034L35.6905 41.8307L25.909 41.97L20.8745 46.4826L20.0684 55.7679L17.372 55.8468L16.8488 44.361L20.29 36.8631L20.3277 31.1249C18.5364 30.136 16.0003 30.3635 16.0003 37.8613L10.3011 39.0637C8.09022 25.7394 18.6637 25.0291 22.1756 28.7943L36.1525 28.8732L35.6481 23.0049L27.4599 22.1043C27.4599 22.1043 27.7522 14.3 27.8418 12.1784C27.9313 10.0567 29.9254 9.62956 30.8116 10.3213L31.8251 18.3623H37.4394C42.1534 18.3623 47.0984 18.302 49.0641 20.5768C49.0641 20.5768 52.444 33.7944 52.9154 35.8139C53.023 36.1716 53.0281 36.5516 52.9301 36.912C52.8322 37.2723 52.6351 37.599 52.3605 37.856C52.0859 38.113 51.7446 38.2902 51.3742 38.3682C51.0038 38.4461 50.6187 38.4217 50.2614 38.2977V38.2977ZM41.4086 16.5796C35.2804 16.5796 35.5444 8 41.3096 8C47.0748 8 47.0182 16.5796 41.4086 16.5796ZM33.3948 43.7899L28.8741 46.7148L30.0998 55.6889L27.6014 56L24.5326 45.842L25.9468 44.036L33.3948 43.7899ZM45.5428 55.935L42.7144 55.9907L42.1911 41.5754L45.9623 38.502L45.5428 55.935Z" fill="currentColor"/>
</svg>
