<svg width="64" height="64" viewBox="0 0 64 64" fill="none" xmlns="http://www.w3.org/2000/svg">
<path fill-rule="evenodd" clip-rule="evenodd" d="M11 34.3505L11.1602 32.7213L14.2493 32.3023L13.9598 30.674L43.2834 15.34L43.7461 12.6141L46.8531 11L47.8587 12.9631L50.269 11.711L52.5723 16.1286L14.4169 36.452L11 34.3505ZM15.2673 38.1035L53 18.5014L52.8392 21.5265L36.8019 30.0494C38.6421 34.0463 37.955 35.8946 32.7967 38.5743L31.2125 39.3654L33.1553 45.197C34.7969 44.8869 36.1877 46.3808 36.78 47.5371L24.7872 54C24.7872 54 23.4145 48.4468 22.15 44.0186C20.772 39.1842 15.5366 39.7012 15.5366 39.7012L15.2673 38.1035ZM34.5756 31.2653L31.5366 32.8805L32.5135 35.9212C35.5358 34.2736 35.7862 33.6464 34.5627 31.2401L34.5756 31.2653Z" fill="#6B360D"/>
</svg>
