<svg width="16" height="16" viewBox="0 0 16 16" fill="none" xmlns="http://www.w3.org/2000/svg">
<path fill-rule="evenodd" clip-rule="evenodd" d="M12.4913 12.5386L12.3268 13.2224L3.65724 13.2507L3.5087 12.5595L6.22545 11.5369L6.37644 10.2074C5.93572 9.83908 5.62513 9.30384 5.41766 8.65442C3.66706 6.65829 4.67004 2.74951 8.11845 2.74951C11.6786 2.74951 12.4753 6.94801 10.5737 8.86434C10.3969 9.44256 10.1269 9.92502 9.72665 10.2626L9.94026 11.5504L12.4913 12.5386ZM9.20859 11.7395C9.18772 11.4817 9.15335 10.9513 9.13125 10.6162C8.80822 10.7346 8.46613 10.7924 8.12214 10.7868C7.74448 10.7922 7.36934 10.7247 7.01727 10.5879C6.9964 10.9562 6.9608 11.5786 6.94852 11.8512C6.90678 12.6774 9.27856 12.6921 9.20859 11.7395ZM10.2435 6.52202C10.1928 6.37793 10.1194 6.24284 10.0262 6.12182C9.76962 6.43118 9.29821 6.8363 8.92132 6.89031C9.06987 6.33665 9.1779 5.60867 9.08337 5.29439C8.51621 6.1034 7.14862 6.84612 5.75526 6.66443C5.8989 8.85329 6.56918 10.0871 8.07917 10.0871C9.61494 10.092 10.1465 8.74281 10.2435 6.52202Z" fill="currentColor"/>
</svg>
