<svg width="64" height="64" viewBox="0 0 64 64" fill="none" xmlns="http://www.w3.org/2000/svg">
<path fill-rule="evenodd" clip-rule="evenodd" d="M48.7504 51.9967C45.0705 51.9967 43.4991 49.2804 43.7477 46.7768L42.0654 46.9036C42.3006 49.3845 40.8935 51.9967 37.8439 51.9967C34.5636 51.9967 32.9611 49.8508 32.8235 47.6008L31.1767 47.723C31.0613 49.9278 29.6497 51.9967 26.9331 51.9967C24.0522 51.9967 22.4675 50.3397 22.0502 48.4111L20.1815 48.5515C20.019 49.5432 19.5073 50.4405 18.7423 51.0748C17.9774 51.7091 17.0117 52.0369 16.0266 51.9967C9.19511 51.9967 9.63901 42.6797 15.4718 42.5348H48.4308C54.4056 42.6253 54.5299 51.9967 48.7504 51.9967ZM15.4584 40.1037C11.024 32.3485 17.6069 25.5577 15.2054 14.3845L16.7013 13.1078L22.5652 14.466C23.7637 12.4469 25.8988 11.8629 30.1113 12.0258L29.9915 16.2045L31.2654 16.5033C31.2654 17.454 31.2654 18.3504 31.2654 19.2196L26.8265 19.1019L27.2704 22.117L31.2654 21.868C31.2836 22.6871 31.3444 23.5047 31.4474 24.3173L27.7143 25.0461L28.1183 27.8213L32.1976 27.0607C32.4371 27.5493 32.7353 28.0056 33.0854 28.4189L30.4221 31.2394L32.7702 33.1227L35.1451 30.1302C35.7891 30.4995 36.4616 30.8144 37.1559 31.0719L35.731 34.4401L38.3189 35.6127L39.8059 31.9185C47.0947 34.1006 50.2862 37.2651 47.8715 40.6334L15.4584 40.1037Z" fill="#6B360D"/>
</svg>
