<svg width="32" height="32" viewBox="0 0 32 32" xmlns="http://www.w3.org/2000/svg">
<path d="M24.5 4H7.5C6.57209 4.00112 5.6825 4.37023 5.02637 5.02637C4.37023 5.6825 4.00112 6.57209 4 7.5V24.5C4.00112 25.4279 4.37023 26.3175 5.02637 26.9736C5.6825 27.6298 6.57209 27.9989 7.5 28H24.5C25.4279 27.9989 26.3175 27.6298 26.9736 26.9736C27.6298 26.3175 27.9989 25.4279 28 24.5V7.5C27.9989 6.57209 27.6298 5.6825 26.9736 5.02637C26.3175 4.37023 25.4279 4.00112 24.5 4ZM12 14.1863V12C12 10.9391 12.4214 9.92172 13.1716 9.17157C13.9217 8.42143 14.9391 8 16 8C17.0609 8 18.0783 8.42143 18.8284 9.17157C19.5786 9.92172 20 10.9391 20 12V14.1863C20.1062 14.2784 20.181 14.4014 20.2139 14.5381C20.2468 14.6748 20.2363 14.8183 20.1838 14.9487L19.8162 16.0513C19.736 16.258 19.6106 16.4442 19.4493 16.5963C19.2879 16.7484 19.0947 16.8626 18.8837 16.9307L18.719 18.2481C18.6586 18.7318 18.4235 19.1768 18.0581 19.4994C17.6926 19.822 17.2219 20 16.7344 20H15.2656C14.7781 20 14.3074 19.822 13.9419 19.4993C13.5765 19.1767 13.3414 18.7317 13.281 18.248L13.1163 16.9306C12.9053 16.8626 12.7121 16.7484 12.5507 16.5962C12.3894 16.4441 12.264 16.2579 12.1838 16.0512L11.8162 14.9487C11.7637 14.8183 11.7532 14.6747 11.7861 14.5381C11.8191 14.4014 11.8938 14.2784 12 14.1863ZM23 24.5C23 24.6326 22.9473 24.7598 22.8536 24.8536C22.7598 24.9473 22.6326 25 22.5 25H9.5C9.36739 25 9.24021 24.9473 9.14645 24.8536C9.05268 24.7598 9 24.6326 9 24.5V22.5413C9.00001 22.2197 9.07755 21.9029 9.22606 21.6177C9.37456 21.3324 9.58965 21.0872 9.85309 20.9028L11.6397 19.6523C11.9555 20.35 12.4652 20.9422 13.108 21.3584C13.7509 21.7746 14.4998 21.9973 15.2656 22H16.7344C17.5002 21.9973 18.2491 21.7746 18.892 21.3584C19.5348 20.9422 20.0445 20.35 20.3604 19.6523L22.1469 20.9028C22.4104 21.0872 22.6255 21.3324 22.774 21.6177C22.9225 21.9029 23 22.2197 23 22.5413V24.5Z" fill="currentColor"/>
</svg>
