<svg width="32" height="32" viewBox="0 0 32 32" xmlns="http://www.w3.org/2000/svg">
<path d="M16 4C13.6266 4 11.3066 4.70379 9.33316 6.02236C7.35977 7.34094 5.8217 9.21509 4.91345 11.4078C4.0052 13.6005 3.76756 16.0133 4.23058 18.3411C4.6936 20.6689 5.83649 22.8071 7.51472 24.4853C9.19295 26.1635 11.3312 27.3064 13.6589 27.7694C15.9867 28.2324 18.3995 27.9948 20.5922 27.0866C22.7849 26.1783 24.6591 24.6402 25.9776 22.6668C27.2962 20.6935 28 18.3734 28 16C27.9965 12.8185 26.7311 9.76824 24.4815 7.51855C22.2318 5.26887 19.1815 4.00347 16 4ZM18 22C18 22.2652 17.8946 22.5196 17.7071 22.7071C17.5196 22.8946 17.2652 23 17 23H15C14.7348 23 14.4804 22.8946 14.2929 22.7071C14.1054 22.5196 14 22.2652 14 22V20C14 19.7348 14.1054 19.4804 14.2929 19.2929C14.4804 19.1054 14.7348 19 15 19H17C17.2652 19 17.5196 19.1054 17.7071 19.2929C17.8946 19.4804 18 19.7348 18 20V22ZM20.75 13.1143C20.75 14.4934 19.8831 15.1964 18.7943 15.9392C18.1267 16.3346 17.6086 16.9397 17.3206 17.6602C17.2884 17.7596 17.2253 17.8461 17.1406 17.9072C17.0558 17.9683 16.9538 18.0008 16.8494 18H14.7874C14.715 17.9998 14.6435 17.9839 14.5778 17.9534C14.5121 17.923 14.4538 17.8787 14.4069 17.8235C14.3599 17.7684 14.3255 17.7038 14.3059 17.6341C14.2862 17.5644 14.2819 17.4913 14.2932 17.4198C14.3652 16.8366 14.593 16.2835 14.9528 15.8188C15.6362 15.0923 16.42 14.4672 17.2803 13.9624C17.4231 13.8714 17.5408 13.7461 17.6228 13.598C17.7049 13.4498 17.7486 13.2836 17.75 13.1143V13C17.7497 12.7349 17.6442 12.4807 17.4568 12.2933C17.2693 12.1058 17.0151 12.0003 16.75 12H15.25C14.9848 12 14.7305 12.1054 14.5429 12.2929C14.3554 12.4804 14.25 12.7348 14.25 13C14.25 13.2652 14.1447 13.5196 13.9571 13.7071C13.7696 13.8946 13.5152 14 13.25 14H12.25C11.9848 14 11.7305 13.8946 11.5429 13.7071C11.3554 13.5196 11.25 13.2652 11.25 13C11.25 12.4747 11.3535 11.9546 11.5545 11.4693C11.7555 10.9839 12.0501 10.543 12.4216 10.1715C12.793 9.80011 13.234 9.50548 13.7193 9.30446C14.2046 9.10345 14.7247 8.99999 15.25 9H16.75C19.0328 9 20.75 10.1639 20.75 13L20.75 13.1143Z" fill="currentColor"/>
</svg>
