<svg width="64" height="64" viewBox="0 0 64 64" fill="none" xmlns="http://www.w3.org/2000/svg">
<path fill-rule="evenodd" clip-rule="evenodd" d="M50.1761 44.6083L50.0592 48.0281C52.0783 49.8189 54 51.0575 54 53.8896L10 54C10 50.805 12.0854 48.7815 14.3228 46.332L14.2721 42.7229H17.1917C18.3605 40.9156 19.1401 38.8794 19.4798 36.747L16.4472 36.6958C15.9483 34.9799 16.0184 32.5107 19.1953 32.5107C21.877 32.5107 26.0946 32.6448 27.5719 32.6448C30.0043 32.6448 30.854 35.1022 29.9614 36.9206L26.6013 36.8654C26.9523 38.9553 27.6945 40.9581 28.7881 42.7663H31.9065L31.7778 46.5924C32.7133 47.5745 33.6332 48.4186 34.405 49.1957C34.8572 48.7736 35.3327 48.3397 35.8122 47.8704L35.7654 44.5452H38.3887C39.241 42.891 39.7478 41.0771 39.8777 39.2163H37.8469C37.4298 37.7687 37.5 35.7097 40.1467 35.7097C42.3958 35.7097 44.4929 35.824 45.7286 35.824C47.7672 35.824 48.4571 37.8791 47.7282 39.4056L45.6155 39.3622C45.7596 41.2046 46.2912 42.9946 47.1747 44.6122L50.1761 44.6083ZM42.8363 34.0885C37.1141 34.0885 37.3792 25.8052 42.7427 25.8052C48.1063 25.8052 48.0634 34.0885 42.8363 34.0885ZM19.6006 30.3807L16.6187 18.8393L29.3884 18.7959L26.5663 30.3492L19.6006 30.3807ZM24.3873 16.733L21.5769 16.591L21.4755 13.8023L18.9107 13.7549L18.6339 11.479L21.3625 11.2226L21.2651 8.56405L24.2275 8L24.2782 10.9544L26.9639 10.7019V13.8969L24.3249 13.8496L24.3873 16.733Z" fill="#6B360D"/>
</svg>
