<svg width="64" height="64" viewBox="0 0 64 64" fill="none" xmlns="http://www.w3.org/2000/svg">
<path fill-rule="evenodd" clip-rule="evenodd" d="M47.3797 22.0355L42.8605 21.2963L35.6557 28.3371C36.9014 31.3898 35.3917 35.6796 31.1715 35.6796C24.0066 35.6796 24.3304 25.3397 31.0569 25.3397C32.0113 25.3205 32.9519 25.5713 33.7723 26.0639L37.4445 22.4228C35.6448 20.9934 33.4057 20.246 31.1166 20.3106C17.8382 20.3106 17.1954 40.7088 31.3409 40.7088C39.3628 40.7138 42.4569 32.8583 40.4639 26.8987L42.8057 24.8871C46.0493 32.642 42.2178 43.6408 31.4604 43.6408C13.2642 43.6408 14.0913 17.3987 31.1665 17.3987C34.6941 17.3936 37.4744 18.5353 39.5571 20.3608L40.8974 19.0281L40.5935 15.6485C37.7758 13.8996 34.5184 13.0074 31.2113 13.0786C8.47595 13.0786 7.37979 48.001 31.595 48.001C44.8635 48.001 50.2197 35.4282 47.4943 25.3699L49.5571 22.5938C52.2028 29.6899 51.1465 38.3149 46.443 44.1537L48.1221 52.6178L45.8052 53L42.2427 47.9256C39.0745 49.8919 35.4131 50.8975 31.6946 50.8224C27.9104 50.9028 24.1673 50.0171 20.8127 48.2475L17.4744 53L14.9832 52.5373L16.6075 45.1093C5.54621 33.9395 11.0669 10.2171 31.2462 10.2171C35.112 10.1338 38.9191 11.1818 42.2078 13.2345L47.9377 9L48.7001 13.6268L53 14.6829L47.3797 22.0355Z" fill="#6B360D"/>
</svg>
