<svg width="24" height="24" viewBox="0 0 24 24" fill="none" xmlns="http://www.w3.org/2000/svg">
<path d="M17 17L21 21" fill="none" stroke="currentColor" stroke-linecap="round" stroke-linejoin="round"/>
<path d="M19 11C19 15.4183 15.4183 19 11 19C6.58172 19 3 15.4183 3 11C3 6.58172 6.58172 3 11 3C15.4183 3 19 6.58172 19 11Z" stroke="currentColor"/>
<path d="M7 15C7.42546 13.4619 8.51999 13 11 13C13.48 13 14.5745 13.4619 15 15" fill="none" stroke="currentColor" stroke-linecap="round"/>
<path d="M13 9C13 10.1046 12.1046 11 11 11C9.89543 11 9 10.1046 9 9C9 7.89543 9.89543 7 11 7C12.1046 7 13 7.89543 13 9Z" fill="none" stroke="currentColor"/>
</svg>
