<svg width="24" height="24" viewBox="0 0 24 24" fill="none" xmlns="http://www.w3.org/2000/svg">
<path d="M3 12C3 4.5885 4.5885 3 12 3C19.4115 3 21 4.5885 21 12C21 19.4115 19.4115 21 12 21C4.5885 21 3 19.4115 3 12Z" stroke="currentColor"/>
<path d="M10.3185 15H9.38852V9.88C9.14852 9.97333 8.86518 10.02 8.53852 10.02H7.76852V9.16H8.49852C8.79185 9.16 9.01185 9.1 9.15852 8.98C9.31185 8.85333 9.38852 8.67333 9.38852 8.44H10.3185V15ZM16.0978 14.16V15H11.8178V14.17L13.6778 12.34C14.0445 11.98 14.3211 11.69 14.5078 11.47C14.6945 11.2433 14.8245 11.0433 14.8978 10.87C14.9711 10.6967 15.0078 10.51 15.0078 10.31V10.21C15.0078 9.89 14.9045 9.64 14.6978 9.46C14.4978 9.28 14.2145 9.19 13.8478 9.19C13.4811 9.19 13.1945 9.28667 12.9878 9.48C12.7811 9.66667 12.6778 9.93 12.6778 10.27V10.48H11.7578V10.26C11.7578 9.65333 11.9411 9.18 12.3078 8.84C12.6811 8.49333 13.1945 8.32 13.8478 8.32C14.4945 8.32 15.0011 8.49 15.3678 8.83C15.7411 9.16333 15.9278 9.62333 15.9278 10.21V10.31C15.9278 10.7033 15.8178 11.0867 15.5978 11.46C15.3778 11.8267 14.9845 12.29 14.4178 12.85L13.0878 14.16H16.0978Z" fill="currentColor"/>
</svg>
