<svg width="24" height="24" viewBox="0 0 24 24" fill="none" xmlns="http://www.w3.org/2000/svg">
<path d="M3 12C3 4.5885 4.5885 3 12 3C19.4115 3 21 4.5885 21 12C21 19.4115 19.4115 21 12 21C4.5885 21 3 19.4115 3 12Z" stroke="currentColor"/>
<path d="M14.6994 13.56H13.6394V15H12.7194V13.56H9.43941V12.69C9.75941 11.99 10.0227 11.3 10.2294 10.62C10.4361 9.94 10.6027 9.21333 10.7294 8.44H11.6794V8.59C11.4394 10.0433 11.0327 11.41 10.4594 12.69H12.7194V9.6H13.6394V12.69H14.6994V13.56Z" fill="currentColor"/>
</svg>
