<svg width="24" height="24" viewBox="0 0 24 24" fill="none" xmlns="http://www.w3.org/2000/svg">
<path d="M3 12C3 4.5885 4.5885 3 12 3C19.4115 3 21 4.5885 21 12C21 19.4115 19.4115 21 12 21C4.5885 21 3 19.4115 3 12Z" stroke="#6B360D"/>
<path d="M13.9945 8.44V9.29H10.7445V11.24H12.3745C13.0145 11.24 13.5145 11.4033 13.8745 11.73C14.2412 12.05 14.4245 12.49 14.4245 13.05V13.2C14.4245 13.7533 14.2412 14.1933 13.8745 14.52C13.5078 14.84 13.0078 15 12.3745 15H9.80449V8.44H13.9945ZM12.3545 14.15C12.7278 14.15 13.0112 14.07 13.2045 13.91C13.3978 13.7433 13.4945 13.5033 13.4945 13.19V13.04C13.4945 12.7333 13.3978 12.4967 13.2045 12.33C13.0112 12.1633 12.7278 12.08 12.3545 12.08H10.7445V14.15H12.3545Z" fill="#6B360D"/>
</svg>
