<svg width="24" height="24" viewBox="0 0 24 24" fill="none" xmlns="http://www.w3.org/2000/svg">
<path d="M3 12C3 4.5885 4.5885 3 12 3C19.4115 3 21 4.5885 21 12C21 19.4115 19.4115 21 12 21C4.5885 21 3 19.4115 3 12Z" stroke="currentColor"/>
<path d="M14.2082 14.16V15H9.92816V14.17L11.7882 12.34C12.1548 11.98 12.4315 11.69 12.6182 11.47C12.8048 11.2433 12.9348 11.0433 13.0082 10.87C13.0815 10.6967 13.1182 10.51 13.1182 10.31V10.21C13.1182 9.89 13.0148 9.64 12.8082 9.46C12.6082 9.28 12.3248 9.19 11.9582 9.19C11.5915 9.19 11.3048 9.28667 11.0982 9.48C10.8915 9.66667 10.7882 9.93 10.7882 10.27V10.48H9.86816V10.26C9.86816 9.65333 10.0515 9.18 10.4182 8.84C10.7915 8.49333 11.3048 8.32 11.9582 8.32C12.6048 8.32 13.1115 8.49 13.4782 8.83C13.8515 9.16333 14.0382 9.62333 14.0382 10.21V10.31C14.0382 10.7033 13.9282 11.0867 13.7082 11.46C13.4882 11.8267 13.0948 12.29 12.5282 12.85L11.1982 14.16H14.2082Z" fill="currentColor"/>
</svg>
