<svg width="24" height="24" viewBox="0 0 24 24" fill="none" xmlns="http://www.w3.org/2000/svg">
<path d="M3 12C3 4.5885 4.5885 3 12 3C19.4115 3 21 4.5885 21 12C21 19.4115 19.4115 21 12 21C4.5885 21 3 19.4115 3 12Z" stroke="currentColor"/>
<path d="M12.1221 10.79C12.7755 10.79 13.2988 10.9667 13.6921 11.32C14.0855 11.6667 14.2821 12.13 14.2821 12.71V13.1C14.2821 13.7133 14.0788 14.2033 13.6721 14.57C13.2721 14.9367 12.7321 15.12 12.0521 15.12C11.3655 15.12 10.8221 14.9633 10.4221 14.65C10.0288 14.3367 9.83215 13.9067 9.83215 13.36V13.26H10.7521V13.36C10.7521 13.64 10.8655 13.86 11.0921 14.02C11.3188 14.1733 11.6288 14.25 12.0221 14.25C12.4355 14.25 12.7588 14.1533 12.9921 13.96C13.2255 13.76 13.3421 13.4833 13.3421 13.13V12.74C13.3421 12.4067 13.2221 12.1433 12.9821 11.95C12.7488 11.75 12.4288 11.65 12.0221 11.65C11.6688 11.65 11.3788 11.7233 11.1521 11.87C10.9255 12.0167 10.7955 12.2133 10.7621 12.46H9.87215L10.0721 8.44H14.0121V9.31H10.9121L10.8221 11.17C11.1688 10.9167 11.6021 10.79 12.1221 10.79Z" fill="currentColor"/>
</svg>
