<svg width="24" height="24" viewBox="0 0 24 24" fill="none" xmlns="http://www.w3.org/2000/svg">
<path d="M3 12C3 4.5885 4.5885 3 12 3C19.4115 3 21 4.5885 21 12C21 19.4115 19.4115 21 12 21C4.5885 21 3 19.4115 3 12Z" stroke="currentColor"/>
<path d="M13.3903 11.63C13.6903 11.7767 13.9236 11.9733 14.0903 12.22C14.257 12.46 14.3403 12.7367 14.3403 13.05V13.27C14.3403 13.6367 14.2403 13.96 14.0403 14.24C13.847 14.52 13.5736 14.7367 13.2203 14.89C12.867 15.0433 12.4603 15.12 12.0003 15.12C11.5336 15.12 11.1236 15.0433 10.7703 14.89C10.417 14.7367 10.1436 14.52 9.95031 14.24C9.75698 13.96 9.66031 13.6367 9.66031 13.27V13.05C9.66031 12.7367 9.74365 12.46 9.91031 12.22C10.077 11.9733 10.3103 11.7767 10.6103 11.63C10.3503 11.4833 10.147 11.2967 10.0003 11.07C9.86031 10.8367 9.79031 10.5733 9.79031 10.28V10.09C9.79031 9.55 9.99031 9.12 10.3903 8.8C10.797 8.48 11.3336 8.32 12.0003 8.32C12.667 8.32 13.2003 8.48 13.6003 8.8C14.0003 9.12 14.2003 9.55 14.2003 10.09V10.28C14.2003 10.5733 14.1303 10.8367 13.9903 11.07C13.8503 11.2967 13.6503 11.4833 13.3903 11.63ZM10.7203 10.26C10.7203 10.9133 11.147 11.24 12.0003 11.24C12.8536 11.24 13.2803 10.9133 13.2803 10.26V10.14C13.2803 9.82667 13.1703 9.58667 12.9503 9.42C12.737 9.25333 12.4203 9.17 12.0003 9.17C11.5803 9.17 11.2603 9.25333 11.0403 9.42C10.827 9.58667 10.7203 9.82667 10.7203 10.14V10.26ZM13.4103 13.09C13.4103 12.7767 13.287 12.5333 13.0403 12.36C12.7936 12.1867 12.447 12.1 12.0003 12.1C11.5536 12.1 11.2036 12.1867 10.9503 12.36C10.7036 12.5333 10.5803 12.7767 10.5803 13.09V13.29C10.5803 13.5967 10.7036 13.8367 10.9503 14.01C11.197 14.1767 11.547 14.26 12.0003 14.26C12.447 14.26 12.7936 14.1767 13.0403 14.01C13.287 13.8367 13.4103 13.5967 13.4103 13.29V13.09Z" fill="currentColor"/>
</svg>
