<svg width="24" height="24" viewBox="0 0 24 24" fill="none" xmlns="http://www.w3.org/2000/svg">
<path d="M3 12C3 4.5885 4.5885 3 12 3C19.4115 3 21 4.5885 21 12C21 19.4115 19.4115 21 12 21C4.5885 21 3 19.4115 3 12Z" stroke="currentColor"/>
<path d="M11.8933 8.32C12.3467 8.32 12.75 8.41 13.1033 8.59C13.4567 8.77 13.73 9.02333 13.9233 9.35C14.1233 9.67667 14.2233 10.05 14.2233 10.47V12.91C14.2233 13.3433 14.1267 13.7267 13.9333 14.06C13.74 14.3933 13.4667 14.6533 13.1133 14.84C12.7667 15.0267 12.3633 15.12 11.9033 15.12C11.4767 15.12 11.0933 15.0433 10.7533 14.89C10.4133 14.73 10.1467 14.5133 9.95332 14.24C9.76665 13.96 9.67332 13.64 9.67332 13.28V13.16H10.6033V13.28C10.6033 13.5733 10.7233 13.81 10.9633 13.99C11.21 14.17 11.5233 14.26 11.9033 14.26C12.3233 14.26 12.66 14.14 12.9133 13.9C13.1667 13.6533 13.2933 13.33 13.2933 12.93V12.09C12.8933 12.4033 12.4033 12.56 11.8233 12.56C11.3967 12.56 11.0167 12.4767 10.6833 12.31C10.3567 12.1433 10.1 11.91 9.91332 11.61C9.73332 11.31 9.64332 10.97 9.64332 10.59V10.32C9.64332 9.93333 9.73665 9.59 9.92332 9.29C10.1167 8.98333 10.3833 8.74667 10.7233 8.58C11.0633 8.40667 11.4533 8.32 11.8933 8.32ZM11.8933 11.71C12.22 11.71 12.5033 11.6533 12.7433 11.54C12.9833 11.4267 13.1667 11.2667 13.2933 11.06V10.48C13.2933 10.0933 13.1633 9.78 12.9033 9.54C12.6433 9.3 12.3067 9.18 11.8933 9.18C11.4867 9.18 11.1633 9.28333 10.9233 9.49C10.69 9.69 10.5733 9.96333 10.5733 10.31V10.57C10.5733 10.93 10.6867 11.21 10.9133 11.41C11.1467 11.61 11.4733 11.71 11.8933 11.71Z" fill="currentColor"/>
</svg>
