<svg width="24" height="24" viewBox="0 0 24 24" fill="none" xmlns="http://www.w3.org/2000/svg">
<path d="M3 12C3 4.5885 4.5885 3 12 3C19.4115 3 21 4.5885 21 12C21 19.4115 19.4115 21 12 21C4.5885 21 3 19.4115 3 12Z" stroke="currentColor"/>
<path d="M14.0242 8.44V9.29C13.3375 10.3767 12.8342 11.36 12.5142 12.24C12.1942 13.1133 12.0342 13.9533 12.0342 14.76V15H11.0942V14.76C11.0942 13.9867 11.2575 13.1367 11.5842 12.21C11.9175 11.2767 12.4008 10.3033 13.0342 9.29H9.80418V8.44H14.0242Z" fill="currentColor"/>
</svg>
