<svg width="64" height="64" viewBox="0 0 64 64" fill="none" xmlns="http://www.w3.org/2000/svg">
<path fill-rule="evenodd" clip-rule="evenodd" d="M49.1408 33.0784L17.2544 33.5554L14.72 36.7659L13.0928 35.6067L15.2192 32.3437L13.2368 29.1666L14.84 27.8071L17.24 30.9746H17.6336L32.312 10.4522C32.7536 7.26559 37.112 7.23219 37.808 10.0754C37.0784 10.042 36.56 10.81 36.4784 11.4731C36.4784 16.7492 44.7872 18.2614 45.3776 30.6741L48.8096 30.6359L48.5216 28.4797L56 31.6234L49.4768 35.5352L49.1408 33.0784ZM32.6912 13.5196L20.2448 30.9603L39.8528 30.7361C39.5216 19.745 34.2272 17.9609 32.6912 13.5387V13.5196ZM9.8528 36.6085L8 35.1201L10.4 32.463L8.48 29.3765L10.2128 28.036L13.544 32.2626L9.8528 36.6085ZM32.6576 50.333C34.0352 45.8345 38.72 44.2364 39.68 35.3634L45.224 35.311C43.9568 46.0063 36.4544 47.237 36.4544 52.1887C36.4498 52.5852 36.5808 52.9714 36.8258 53.2842C37.0708 53.5971 37.4154 53.818 37.8032 53.9109C36.7616 57.1691 32.792 56.2722 32.3168 53.5769L19.04 35.559H21.6608L32.6576 50.333Z" fill="#6B360D"/>
</svg>
