<svg width="64" height="64" viewBox="0 0 64 64" fill="none" xmlns="http://www.w3.org/2000/svg">
<path fill-rule="evenodd" clip-rule="evenodd" d="M39.483 44.0155C35.03 36.9128 29.0867 40.0262 23.3993 54C20.9214 50.5009 19.6017 43.961 20.477 38.8961C27.6593 34.4802 23.2691 28.3398 10 23.579C13.8919 20.6426 21.0471 18.4914 25.1589 19.6986C29.5266 26.5062 35.1961 24.5411 40.3448 10C43.487 14.2933 44.3534 21.6411 43.514 25.1129C36.6774 29.7421 39.86 35.0975 54 40.6343C50.162 43.1259 43.6711 44.4875 39.483 44.0155ZM32.184 29.4517C28.6648 29.4517 28.4942 34.8706 32.2424 34.8706C35.6674 34.8706 35.6899 29.4517 32.184 29.4517Z" fill="#6B360D"/>
</svg>
