<svg width="24" height="24" viewBox="0 0 24 24" fill="none" xmlns="http://www.w3.org/2000/svg">
<path d="M12 3C4.5885 3 3 4.5885 3 12C3 19.4115 4.5885 21 12 21C19.4115 21 21 19.4115 21 12" stroke="#6B360D" stroke-linecap="round"/>
<path d="M18.1475 4.07063C18.1475 4.07063 19.0725 3.72434 18.9954 4.56532C18.9697 4.91161 18.7385 6.12361 18.5586 7.43456L17.9419 11.3179C17.9419 11.3179 17.8905 11.8868 17.428 11.9858C16.9654 12.0847 16.2716 11.6395 16.1431 11.5405C16.0403 11.4663 14.2159 10.3533 13.5735 9.80909C13.3936 9.66068 13.188 9.36386 13.5992 9.01757L16.2973 6.54411C16.6057 6.24729 16.914 5.55472 15.6292 6.3957L12.0317 8.74551C12.0317 8.74551 11.6205 8.99284 10.8497 8.77024L9.17939 8.27554C9.17939 8.27554 8.56267 7.90452 9.61623 7.53348C12.1859 6.37095 15.3466 5.18368 18.1475 4.07063Z" fill="#6B360D"/>
</svg>
