<svg width="24" height="24" viewBox="0 0 24 24" fill="none" xmlns="http://www.w3.org/2000/svg">
<path d="M12 3C4.5885 3 3 4.5885 3 12C3 19.4115 4.5885 21 12 21C19.4115 21 21 19.4115 21 12" stroke="#6B360D" stroke-linecap="round"/>
<path d="M19.7547 5.35251C19.6768 5.31414 19.601 5.27207 19.5275 5.22647C19.3139 5.09183 19.1181 4.93319 18.9442 4.75395C18.5091 4.27937 18.3467 3.79792 18.2868 3.46083H18.2892C18.2392 3.18103 18.2599 3 18.263 3H16.2815V10.305C16.2815 10.4031 16.2815 10.5 16.2772 10.5958C16.2772 10.6077 16.2759 10.6187 16.2752 10.6316C16.2752 10.6368 16.2752 10.6423 16.274 10.6478C16.274 10.6492 16.274 10.6506 16.274 10.652C16.2531 10.9141 16.165 11.1672 16.0174 11.3893C15.8698 11.6113 15.6672 11.7953 15.4275 11.9251C15.1776 12.0607 14.8951 12.1317 14.6076 12.1314C13.6844 12.1314 12.9361 11.4137 12.9361 10.5273C12.9361 9.64092 13.6844 8.9232 14.6076 8.9232C14.7824 8.92305 14.9561 8.94927 15.1222 9.00089L15.1246 7.07736C14.6202 7.01524 14.1077 7.05346 13.6196 7.18961C13.1314 7.32576 12.6781 7.55688 12.2884 7.8684C11.9468 8.15132 11.6597 8.48889 11.4399 8.86592C11.3562 9.00341 11.0406 9.5559 11.0024 10.4526C10.9784 10.9615 11.1387 11.4888 11.2151 11.7068V11.7113C11.2632 11.8397 11.4495 12.2776 11.7531 12.6467C11.9979 12.9429 12.2871 13.203 12.6114 13.4188V13.4142L12.6162 13.4188C13.5755 14.0402 14.6391 13.9995 14.6391 13.9995C14.8232 13.9923 15.44 13.9995 16.1404 13.683C16.9172 13.3322 17.3595 12.8094 17.3595 12.8094C17.642 12.4971 17.8667 12.1412 18.0239 11.7569C18.2032 11.3076 18.263 10.7686 18.263 10.5532V6.67771C18.287 6.69146 18.6072 6.89335 18.6072 6.89335C18.6072 6.89335 19.0685 7.17521 19.7881 7.35876C20.3044 7.48938 21 7.51688 21 7.51688V5.64147C20.7563 5.66668 20.2614 5.59335 19.7547 5.35251Z" fill="#6B360D"/>
</svg>
