<svg width="32" height="32" viewBox="0 0 32 32" fill="none" xmlns="http://www.w3.org/2000/svg">
<path fill-rule="evenodd" clip-rule="evenodd" d="M14.0799 17.8018L14.7386 16.6822C11.6282 14.8543 11.4689 12.1188 11.4639 12.0058L11.4131 10.5435L10.3619 11.5615C8.17188 13.6839 4.71972 14.9876 3.20896 14.9876V16.2875C4.9365 16.2875 8.08717 15.0778 10.3892 13.26C10.7477 14.4849 11.6764 16.3903 14.0799 17.8018ZM10.5196 8.77017C12.3452 6.49162 14.6632 5.98007 16.0477 6.46369C16.2003 6.51829 16.4704 6.63251 16.6729 6.82421C15.7437 6.98921 14.9533 7.41065 14.3575 8.06821C13.6661 8.8311 13.2862 9.8644 13.2862 10.9776C13.2862 13.1991 14.8963 15.5614 17.8805 15.5614V14.2615C15.7177 14.2615 14.586 12.6088 14.586 10.9776C14.586 10.1868 14.8468 9.4645 15.3202 8.94154C15.8506 8.35636 16.636 8.04662 17.5899 8.04662H18.2398V7.39669C18.2398 6.43195 17.5811 5.62462 16.4779 5.23747C14.6762 4.60151 11.7268 5.1867 9.50527 7.95777C7.17645 10.8634 3.84924 11.8903 3.20896 11.8903V13.1902C4.04045 13.1902 7.82637 12.1315 10.5196 8.77017ZM23.8481 20.4345C22.201 17.963 20.4466 17.44 19.2558 17.44H19.2307C17.9371 17.4477 16.9316 18.0735 16.6595 18.4924L16.2234 19.1652L16.971 19.4533C18.0398 19.8646 18.7749 20.5513 19.0961 21.4373C19.4001 22.2764 19.3024 23.217 18.8197 24.0853C18.4944 24.673 17.9124 25.1071 17.1807 25.3103C15.9865 25.6403 14.4908 25.3407 12.97 24.4649C8.66624 21.9832 6.18813 24.1157 5.7357 24.5689L6.65482 25.488C6.9911 25.1529 8.83983 23.5839 12.3213 25.592C13.6359 26.3499 14.963 26.7396 16.1764 26.7396C16.6469 26.7396 17.0997 26.6812 17.5283 26.5631C18.5979 26.2661 19.4604 25.6098 19.9561 24.7162C20.6236 23.5141 20.7527 22.1914 20.3179 20.9943C20.0018 20.1235 19.398 19.3784 18.5732 18.825C18.8269 18.7602 19.1309 18.7259 19.4718 18.7475C20.6374 18.8389 21.7771 19.6704 22.7663 21.1556C23.9747 22.9682 25.215 23.707 27.0482 23.707V22.4072C25.854 22.4072 24.9479 22.0847 23.8481 20.4345ZM13.6199 23.3401L14.2686 22.213C10.0135 19.7605 6.34453 20.6694 4.32935 22.3399L5.15832 23.3401C6.8389 21.9502 9.94135 21.2203 13.6199 23.3401ZM26.0209 18.4289C23.8644 14.9851 21.1523 14.2615 19.2567 14.2615V15.5614C20.8236 15.5614 23.0786 16.1783 24.9194 19.1195C26.0016 20.8484 27.5413 21.1073 28.3623 21.1073V19.8074C27.6877 19.8074 26.7337 19.5688 26.0209 18.4289ZM21.9142 24.2224C22.8795 25.1897 23.95 25.8028 25.1886 26.0998L25.4905 24.8355C24.4934 24.5969 23.6246 24.0954 22.8342 23.3033L21.9142 24.2224ZM17.8767 27.8147C16.1588 28.2933 14.0694 27.9836 12.0869 26.9465L11.4852 28.0991C13.0358 28.9089 14.6594 29.3378 16.1806 29.3378C16.8897 29.3378 17.5778 29.2464 18.2248 29.0665C19.2219 28.7898 20.107 28.32 20.8555 27.67L20.0034 26.6875C19.4017 27.2105 18.686 27.5901 17.8767 27.8147ZM9.24069 26.7738L10.3523 27.458L11.0341 26.3511L9.92206 25.667L9.24069 26.7738ZM20.8395 4.99755H19.5397V6.30377H20.8395V4.99755ZM6.15417 18.7425V17.4375H4.85432V18.7425H6.15417ZM8.89182 18.7425V17.4375H7.59197V18.7425H8.89182ZM13.5658 19.1525V20.4574H14.8657V19.1525H13.5658ZM16.5375 23.4671L15.4058 22.8172L14.7583 23.9444L15.89 24.5943L16.5375 23.4671ZM27.7124 15.9993V17.3055H29.0122V15.9993H27.7124ZM23.069 7.24562H21.7691V8.55058H23.069V7.24562ZM20.8395 9.62828H19.5397V10.9345H20.8395V9.62828ZM15.9999 30.7001C7.89429 30.7001 1.29986 24.1056 1.29986 15.9993C1.29986 7.89428 7.89429 1.29985 15.9999 1.29985C24.1055 1.29985 30.7 7.89428 30.7 15.9993C30.7 24.1056 24.1055 30.7001 15.9999 30.7001ZM15.9999 0C7.1777 0 7.62939e-06 7.1771 7.62939e-06 15.9993C7.62939e-06 24.8215 7.1777 32 15.9999 32C24.8221 32 31.9998 24.8215 31.9998 15.9993C31.9998 7.1771 24.8221 0 15.9999 0Z" fill="currentColor"/>
</svg>
