<svg width="16" height="16" viewBox="0 0 16 16" fill="none" xmlns="http://www.w3.org/2000/svg">
<path fill-rule="evenodd" clip-rule="evenodd" d="M2.56284 13.5007L2.41431 12.8153L3.38828 12.4647L3.58917 12.8676L4.47914 12.5633L4.3026 12.1359L5.81105 11.5917L5.9328 10.4814C5.89506 10.4278 5.85975 10.3743 5.82444 10.3195C4.999 10.1235 4.82733 9.18114 5.20719 8.59798C5.17066 8.37477 5.14225 8.1398 5.12196 7.89306C4.59967 7.21006 3.4175 4.86886 5.35206 4.40257C5.14509 3.14614 6.16534 2.55932 6.93478 3.19362C7.51673 2.08451 9.82627 2.3767 9.94071 3.55886C10.1099 3.50353 10.2916 3.4992 10.4632 3.54642C10.6349 3.59363 10.7888 3.6903 10.9059 3.82437C11.0229 3.95845 11.098 4.12401 11.1216 4.30043C11.1453 4.47685 11.1165 4.65633 11.0389 4.81651C11.8132 5.06731 11.4187 7.1431 10.8599 7.88941C10.8526 8.10855 10.8404 8.31552 10.8234 8.51032C11.2032 9.12758 11.0547 10.132 10.2913 10.3365C10.2512 10.4011 10.2098 10.4583 10.1696 10.5277L10.3534 11.6319L11.8144 12.1566L11.6111 12.6193L12.5157 12.9602L12.7482 12.4914L13.5858 12.7922L13.4215 13.4703L2.56284 13.5007ZM8.0792 13.0004L9.71183 12.282L9.60104 11.1498C9.3445 11.3826 9.07149 11.5967 8.78412 11.7902L7.4035 11.817C7.09912 11.6218 6.8116 11.4015 6.54397 11.1583L6.47214 12.2467L8.0792 13.0004ZM9.41842 10.289C9.18364 10.2156 8.96677 10.0939 8.78167 9.93185C8.59656 9.76981 8.44729 9.57093 8.34339 9.34794H7.72248C7.72248 9.34794 7.59221 10.104 6.64258 10.3037C6.91961 10.6036 7.23574 10.8648 7.58247 11.0804L8.49679 11.1096C8.84365 10.8852 9.1551 10.6102 9.42085 10.2939L9.41842 10.289ZM10.2195 7.24537C9.8494 6.43818 9.5986 5.37898 9.68383 4.47805C9.00448 5.06487 7.07479 5.97554 6.10811 5.49708C6.09594 5.94145 5.92671 6.51975 5.74287 7.01526C5.74498 7.60196 5.79835 8.18736 5.90236 8.76477C6.30413 9.17627 7.16123 8.74773 7.44855 8.38857L8.75003 8.45188C9.06779 8.8853 9.67287 9.01435 10.0685 8.81712C10.1614 8.30099 10.2127 7.77823 10.2219 7.25389L10.2195 7.24537Z" fill="currentColor"/>
</svg>
