<svg width="16" height="16" viewBox="0 0 16 16" fill="none" xmlns="http://www.w3.org/2000/svg">
<path fill-rule="evenodd" clip-rule="evenodd" d="M10.3572 11.8071H9.78219L9.87583 12.3689L12.3632 13.3353L12.2023 14.004L3.72462 14.0316L3.57936 13.3605L6.236 12.3605L6.29483 11.8395H5.75221C4.88668 11.8455 4.4425 11.2597 4.4317 10.6583C2.82307 10.3353 2.83867 8.05684 4.59616 7.74592C4.35007 5.86478 5.53733 3.76756 8.03791 3.76756C10.5181 3.76756 11.6261 5.85037 11.3896 7.72911C13.1735 7.93799 13.2551 10.3353 11.6045 10.6282C11.6069 11.2201 11.1927 11.8011 10.3572 11.8071ZM9.15675 12.5586C9.13634 12.3065 9.10273 11.7879 9.08112 11.4602C8.7641 11.5764 8.42832 11.6329 8.09073 11.627C7.72143 11.6323 7.35459 11.5663 7.01031 11.4326C6.9899 11.7927 6.95508 12.4013 6.94308 12.6678C6.90226 13.4758 9.22157 13.4902 9.15314 12.5586H9.15675ZM9.95266 7.06525C9.70176 7.36777 9.24078 7.76392 8.87223 7.81674C9.01749 7.27533 9.12313 6.56345 9.0307 6.25613C8.47488 7.05204 7.13756 7.78553 5.77502 7.60066C5.91548 9.7411 6.57214 10.9476 8.04751 10.9476C9.5445 10.9476 10.0655 9.64026 10.1639 7.48541C10.1178 7.33441 10.0464 7.19234 9.95266 7.06525ZM11.3824 2.0773L10.2552 3.6127L8.02951 3.03287L7.72579 1.08931C7.18437 1.02569 7.06553 0.184157 7.67537 0.0208933C8.28521 -0.142371 8.58652 0.695557 8.13875 0.993274C8.35363 1.86121 8.93706 1.96205 9.43646 1.13493C8.99588 0.810802 9.31641 0.0196929 9.92505 0.182957C10.5337 0.346221 10.3764 1.21776 9.84341 1.25618C9.88423 2.14332 10.236 2.40022 11.0823 1.79639C10.8074 1.28379 11.5013 0.715965 11.961 1.17575C12.4208 1.63552 11.8626 2.27417 11.3824 2.0773Z" fill="currentColor"/>
</svg>
