<svg width="24" height="24" viewBox="0 0 24 24" fill="none" xmlns="http://www.w3.org/2000/svg">
<path fill-rule="evenodd" clip-rule="evenodd" d="M7.5 3H16.504C18.987 3 21 5.013 21 7.496V16.505C21 18.987 18.987 21 16.504 21H7.496C5.013 21 3 18.987 3 16.504V7.5C3 5.015 5.015 3 7.5 3V3Z" stroke="#261E1E" stroke-linecap="round" stroke-linejoin="round"/>
<path fill-rule="evenodd" clip-rule="evenodd" d="M10.0939 15.4909L9.28194 12.8169C9.28094 12.8159 6.95594 12.0909 6.95594 12.0909C6.68994 12.0079 6.67694 11.6349 6.93794 11.5349L15.7889 8.12094C16.1159 7.99494 16.4529 8.28194 16.3809 8.62494L14.8939 15.6329C14.8069 16.0439 14.3239 16.2269 13.9869 15.9769L11.8749 14.4169L10.6299 15.6289C10.4549 15.7969 10.1649 15.7219 10.0939 15.4909V15.4909Z" stroke="#261E1E" stroke-linecap="round" stroke-linejoin="round"/>
</svg>
