<svg width="24" height="24" viewBox="0 0 24 24" fill="none" xmlns="http://www.w3.org/2000/svg">
<path fill-rule="evenodd" clip-rule="evenodd" d="M7.5 3H16.504C18.987 3 21 5.013 21 7.496V16.505C21 18.987 18.987 21 16.504 21H7.496C5.013 21 3 18.987 3 16.504V7.5C3 5.015 5.015 3 7.5 3V3Z" stroke="#261E1E" stroke-linecap="round" stroke-linejoin="round"/>
<path d="M10.684 9.64404H11.899V15.72H11.897C10.646 15.72 9.27101 14.96 8.29601 13.56C6.83201 11.508 6.43201 9.95704 6.43201 9.64504" stroke="#261E1E" stroke-linecap="round" stroke-linejoin="round"/>
<path d="M16.658 15.72C16.658 15.72 16.216 14.788 15.319 13.763C14.721 13.062 13.879 12.683 13.113 12.683C13.879 12.683 14.721 12.303 15.319 11.603C16.216 10.577 16.658 9.64502 16.658 9.64502" stroke="#261E1E" stroke-linecap="round" stroke-linejoin="round"/>
<path d="M13.113 12.684H11.897" stroke="#261E1E" stroke-linecap="round" stroke-linejoin="round"/>
</svg>
