<svg width="20" height="20" viewBox="0 0 16 16" fill="none" xmlns="http://www.w3.org/2000/svg">
<path fill-rule="evenodd" clip-rule="evenodd" d="M8.32123 10.4886C8.20994 11.3096 8.46401 11.9584 8.62989 12.2156C8.97051 12.001 9.36767 11.8935 9.77004 11.907C10.3821 11.907 10.9249 12.1254 10.9249 12.602C10.9249 12.9799 10.5123 13.3631 9.72489 13.3631C9.36374 13.3631 8.9438 13.1784 8.58684 12.8802L8.23094 12.5275C8.01882 12.2541 7.88752 11.9268 7.85194 11.5826L6.79893 11.2991L7.40995 10.4036C6.06927 9.81881 4.60996 7.41357 4.61206 5.66135C4.61836 1.085 11.3931 1.29497 11.3879 5.59101C11.3847 7.50386 9.72489 10.1086 8.32123 10.4886ZM9.72384 12.8634C10.2078 12.8634 10.4231 12.6734 10.4231 12.602C10.4231 12.624 10.3989 12.4078 9.76899 12.4078C9.50533 12.3992 9.24371 12.4566 9.00784 12.5747C9.21206 12.7407 9.46158 12.8413 9.72384 12.8634ZM7.99997 3.26871C6.66454 3.0157 5.38791 4.38052 5.59263 5.70754L5.8572 5.69285C6.2383 4.66713 6.93856 3.92278 7.99997 3.54063V3.26871ZM7.12858 13.1994C7.48974 13.213 7.7585 13.024 7.96847 12.8214L8.29393 13.1899C8.04091 13.4282 7.65771 13.7012 7.17058 13.7012C6.97841 13.6993 6.79009 13.6471 6.62433 13.5499C6.45857 13.4526 6.32114 13.3137 6.2257 13.1469L6.45667 12.9159C6.63735 13.091 6.87706 13.1922 7.12858 13.1994Z" fill="currentColor"/>
</svg>
