<svg width="458" height="172" viewBox="0 0 458 172" fill="none" xmlns="http://www.w3.org/2000/svg">
<line opacity="0.1" x1="2" y1="111.847" x2="450" y2="111.847" stroke="#966F7B"/>
<rect opacity="0.1" x="2" width="70.9703" height="23.8613" rx="4" fill="#B6D1C5"/>
<rect opacity="0.1" x="2" y="27.8381" width="70.9703" height="23.8613" rx="4" fill="#B6D1C5"/>
<rect opacity="0.1" x="2" y="55.6763" width="70.9703" height="23.8613" rx="4" fill="#B6D1C5"/>
<rect opacity="0.1" x="2" y="83.5144" width="70.9703" height="23.8613" rx="4" fill="#B6D1C5"/>
<rect opacity="0.1" x="2" y="116.324" width="70.9703" height="23.8613" rx="4" fill="#B6D1C5"/>
<rect opacity="0.1" x="2" y="144.162" width="70.9703" height="23.8613" rx="4" fill="#B6D1C5"/>
<rect opacity="0.1" x="77.4059" width="70.9703" height="23.8613" rx="4" fill="#B6D1C5"/>
<rect opacity="0.1" x="77.4059" y="27.8381" width="70.9703" height="23.8613" rx="4" fill="#B6D1C5"/>
<rect opacity="0.1" x="77.4059" y="55.6763" width="70.9703" height="23.8613" rx="4" fill="#B6D1C5"/>
<rect opacity="0.1" x="77.4059" y="83.5144" width="70.9703" height="23.8613" rx="4" fill="#B6D1C5"/>
<rect opacity="0.1" x="77.4059" y="116.324" width="70.9703" height="23.8613" rx="4" fill="#B6D1C5"/>
<rect opacity="0.1" x="77.4059" y="144.162" width="70.9703" height="23.8613" rx="4" fill="#B6D1C5"/>
<rect opacity="0.1" x="152.812" width="70.9703" height="23.8613" rx="4" fill="#B6D1C5"/>
<rect opacity="0.1" x="152.812" y="27.8381" width="70.9703" height="23.8613" rx="4" fill="#B6D1C5"/>
<rect opacity="0.1" x="152.812" y="55.6763" width="70.9703" height="23.8613" rx="4" fill="#B6D1C5"/>
<rect opacity="0.1" x="152.812" y="83.5144" width="70.9703" height="23.8613" rx="4" fill="#B6D1C5"/>
<rect opacity="0.1" x="152.812" y="116.324" width="70.9703" height="23.8613" rx="4" fill="#B6D1C5"/>
<rect opacity="0.1" x="152.812" y="144.162" width="70.9703" height="23.8613" rx="4" fill="#B6D1C5"/>
<rect opacity="0.1" x="228.218" width="70.9703" height="23.8613" rx="4" fill="#B6D1C5"/>
<rect opacity="0.1" x="228.218" y="27.8381" width="70.9703" height="23.8613" rx="4" fill="#B6D1C5"/>
<rect opacity="0.1" x="228.218" y="55.6763" width="70.9703" height="23.8613" rx="4" fill="#B6D1C5"/>
<rect opacity="0.1" x="228.218" y="83.5144" width="70.9703" height="23.8613" rx="4" fill="#B6D1C5"/>
<rect opacity="0.1" x="228.218" y="116.324" width="70.9703" height="23.8613" rx="4" fill="#B6D1C5"/>
<rect opacity="0.1" x="228.218" y="144.162" width="70.9703" height="23.8613" rx="4" fill="#B6D1C5"/>
<rect opacity="0.1" x="303.624" width="70.9703" height="23.8613" rx="4" fill="#B6D1C5"/>
<rect opacity="0.1" x="303.624" y="27.8381" width="70.9703" height="23.8613" rx="4" fill="#B6D1C5"/>
<rect opacity="0.1" x="303.624" y="55.6763" width="70.9703" height="23.8613" rx="4" fill="#B6D1C5"/>
<rect opacity="0.1" x="303.624" y="83.5144" width="70.9703" height="23.8613" rx="4" fill="#B6D1C5"/>
<rect opacity="0.1" x="303.624" y="116.324" width="70.9703" height="23.8613" rx="4" fill="#B6D1C5"/>
<rect opacity="0.1" x="303.624" y="144.162" width="70.9703" height="23.8613" rx="4" fill="#B6D1C5"/>
<rect opacity="0.1" x="379.03" width="70.9703" height="23.8613" rx="4" fill="#B6D1C5"/>
<rect opacity="0.1" x="379.03" y="27.8381" width="70.9703" height="23.8613" rx="4" fill="#B6D1C5"/>
<rect opacity="0.1" x="379.03" y="55.6763" width="70.9703" height="23.8613" rx="4" fill="#B6D1C5"/>
<rect opacity="0.1" x="379.03" y="83.5144" width="70.9703" height="23.8613" rx="4" fill="#B6D1C5"/>
<rect opacity="0.1" x="379.03" y="116.324" width="70.9703" height="23.8613" rx="4" fill="#B6D1C5"/>
<rect opacity="0.1" x="379.03" y="144.162" width="70.9703" height="23.8613" rx="4" fill="#B6D1C5"/>
<path d="M2 111L67.4578 20.192C71.4277 14.6846 78.441 12.2822 84.9539 14.1988L150.519 33.4924L220.402 57.5939C223.666 58.7198 227.208 58.7593 230.497 57.7063L298.083 36.068C301.452 34.9893 305.084 35.0576 308.41 36.2622L376.076 60.7677C377.888 61.4238 379.803 61.7472 381.729 61.7226L450 60.848" stroke="url(#paint0_linear_2815_82919)" stroke-width="4" stroke-linecap="round" stroke-linejoin="round"/>
<rect x="34" y="107" width="97" height="24" rx="4" fill="#B6D1C5"/>
<path d="M44.132 114.472V118.19H47.616V114.472H48.838V123H47.616V119.295H44.132V123H42.91V114.472H44.132ZM56.6731 121.934V123H55.9841C55.6721 123 55.3991 122.948 55.1651 122.844C54.9398 122.731 54.7665 122.571 54.6451 122.363C54.1685 122.892 53.4925 123.156 52.6171 123.156C51.9238 123.156 51.3735 122.991 50.9661 122.662C50.5588 122.333 50.3551 121.878 50.3551 121.297C50.3551 120.768 50.5285 120.352 50.8751 120.049C51.2218 119.746 51.7548 119.546 52.4741 119.451L54.4111 119.191V118.775C54.4111 118.359 54.2898 118.043 54.0471 117.826C53.8131 117.609 53.4665 117.501 53.0071 117.501C52.5565 117.501 52.2055 117.609 51.9541 117.826C51.7115 118.034 51.5901 118.329 51.5901 118.71V118.801H50.4071V118.71C50.4071 117.999 50.6411 117.436 51.1091 117.02C51.5858 116.604 52.2315 116.396 53.0461 116.396C53.8608 116.396 54.4891 116.608 54.9311 117.033C55.3731 117.449 55.5941 118.038 55.5941 118.801V121.284C55.5941 121.717 55.8021 121.934 56.2181 121.934H56.6731ZM52.6951 122.142C53.0765 122.142 53.4145 122.06 53.7091 121.895C54.0125 121.73 54.2465 121.505 54.4111 121.219V120.114L52.6691 120.374C51.9065 120.495 51.5251 120.799 51.5251 121.284C51.5251 121.553 51.6291 121.765 51.8371 121.921C52.0538 122.068 52.3398 122.142 52.6951 122.142ZM60.1193 123.156C59.5733 123.156 59.0923 123.048 58.6763 122.831C58.2603 122.614 57.9396 122.311 57.7143 121.921C57.4889 121.522 57.3763 121.063 57.3763 120.543V119.009C57.3763 118.489 57.4889 118.034 57.7143 117.644C57.9396 117.245 58.2603 116.938 58.6763 116.721C59.0923 116.504 59.5733 116.396 60.1193 116.396C60.6306 116.396 61.0856 116.504 61.4843 116.721C61.8916 116.929 62.2079 117.219 62.4333 117.592C62.6586 117.965 62.7713 118.389 62.7713 118.866V119.009H61.6013V118.866C61.6013 118.467 61.4626 118.142 61.1853 117.891C60.9079 117.631 60.5526 117.501 60.1193 117.501C59.6339 117.501 59.2526 117.64 58.9753 117.917C58.6979 118.186 58.5593 118.558 58.5593 119.035V120.517C58.5593 120.994 58.6979 121.371 58.9753 121.648C59.2526 121.917 59.6339 122.051 60.1193 122.051C60.5526 122.051 60.9079 121.93 61.1853 121.687C61.4626 121.436 61.6013 121.115 61.6013 120.725V120.582H62.7713V120.725C62.7713 121.453 62.5286 122.042 62.0433 122.493C61.5579 122.935 60.9166 123.156 60.1193 123.156ZM69.4133 123H68.2433V117.618H65.7603L65.6953 120.673C65.678 121.47 65.5133 122.06 65.2013 122.441C64.898 122.814 64.43 123 63.7973 123H63.4463V121.934H63.6543C63.975 121.934 64.2047 121.826 64.3433 121.609C64.4907 121.392 64.573 121.041 64.5903 120.556L64.6813 116.552H69.4133V123ZM77.0618 121.934V123H76.3728C76.0608 123 75.7878 122.948 75.5538 122.844C75.3285 122.731 75.1551 122.571 75.0338 122.363C74.5571 122.892 73.8811 123.156 73.0058 123.156C72.3125 123.156 71.7621 122.991 71.3548 122.662C70.9475 122.333 70.7438 121.878 70.7438 121.297C70.7438 120.768 70.9171 120.352 71.2638 120.049C71.6105 119.746 72.1435 119.546 72.8628 119.451L74.7998 119.191V118.775C74.7998 118.359 74.6785 118.043 74.4358 117.826C74.2018 117.609 73.8551 117.501 73.3958 117.501C72.9451 117.501 72.5941 117.609 72.3428 117.826C72.1001 118.034 71.9788 118.329 71.9788 118.71V118.801H70.7958V118.71C70.7958 117.999 71.0298 117.436 71.4978 117.02C71.9745 116.604 72.6201 116.396 73.4348 116.396C74.2495 116.396 74.8778 116.608 75.3198 117.033C75.7618 117.449 75.9828 118.038 75.9828 118.801V121.284C75.9828 121.717 76.1908 121.934 76.6068 121.934H77.0618ZM73.0838 122.142C73.4651 122.142 73.8031 122.06 74.0978 121.895C74.4011 121.73 74.6351 121.505 74.7998 121.219V120.114L73.0578 120.374C72.2951 120.495 71.9138 120.799 71.9138 121.284C71.9138 121.553 72.0178 121.765 72.2258 121.921C72.4425 122.068 72.7285 122.142 73.0838 122.142ZM86.8909 122.818V123H85.6559L83.8359 120.296H82.7829V123H81.6129V120.296H80.5599L78.7399 123H77.5049V122.818L79.5329 119.75L77.6089 116.734V116.552H78.8439L80.5729 119.256H81.6129V116.552H82.7829V119.256H83.8099L85.5519 116.552H86.7869V116.734L84.8499 119.75L86.8909 122.818ZM94.6945 121.934V124.703H93.5115V123H88.7925V124.703H87.6225V121.934H88.4285C88.7578 121.319 88.9312 120.591 88.9485 119.75L88.9875 116.552H93.7325V121.934H94.6945ZM92.5625 121.934V117.618H90.0795L90.0405 119.802C90.0232 120.617 89.8715 121.327 89.5855 121.934H92.5625ZM96.556 120.205V120.517C96.556 121.002 96.6947 121.384 96.972 121.661C97.258 121.93 97.648 122.064 98.142 122.064C98.558 122.064 98.9047 121.96 99.182 121.752C99.468 121.544 99.6154 121.288 99.624 120.985H100.794C100.759 121.626 100.499 122.151 100.014 122.558C99.5287 122.957 98.9047 123.156 98.142 123.156C97.31 123.156 96.6427 122.922 96.14 122.454C95.6374 121.977 95.386 121.345 95.386 120.556V119.009C95.386 118.489 95.4987 118.034 95.724 117.644C95.9494 117.245 96.27 116.938 96.686 116.721C97.102 116.504 97.5787 116.396 98.116 116.396C98.9307 116.396 99.5807 116.634 100.066 117.111C100.551 117.588 100.794 118.216 100.794 118.996V120.205H96.556ZM98.116 117.488C97.6394 117.488 97.258 117.631 96.972 117.917C96.6947 118.194 96.556 118.571 96.556 119.048V119.23H99.624V119.048C99.624 118.571 99.4854 118.194 99.208 117.917C98.9394 117.631 98.5754 117.488 98.116 117.488ZM103.455 116.565V119.23H106.432V116.565H107.615V123H106.432V120.296H103.455V123H102.285V116.565H103.455ZM110.462 116.552V121.141L113.504 116.552H114.583V123H113.439V118.411L110.41 123H109.331V116.552H110.462ZM117.249 120.205V120.517C117.249 121.002 117.388 121.384 117.665 121.661C117.951 121.93 118.341 122.064 118.835 122.064C119.251 122.064 119.598 121.96 119.875 121.752C120.161 121.544 120.309 121.288 120.317 120.985H121.487C121.453 121.626 121.193 122.151 120.707 122.558C120.222 122.957 119.598 123.156 118.835 123.156C118.003 123.156 117.336 122.922 116.833 122.454C116.331 121.977 116.079 121.345 116.079 120.556V119.009C116.079 118.489 116.192 118.034 116.417 117.644C116.643 117.245 116.963 116.938 117.379 116.721C117.795 116.504 118.272 116.396 118.809 116.396C119.624 116.396 120.274 116.634 120.759 117.111C121.245 117.588 121.487 118.216 121.487 118.996V120.205H117.249ZM118.809 117.488C118.333 117.488 117.951 117.631 117.665 117.917C117.388 118.194 117.249 118.571 117.249 119.048V119.23H120.317V119.048C120.317 118.571 120.179 118.194 119.901 117.917C119.633 117.631 119.269 117.488 118.809 117.488Z" fill="#261E1E"/>
<g opacity="0.75">
<rect x="176" y="80" width="95" height="24" rx="4" fill="#B6D1C5"/>
<path d="M190.799 87.472V96H189.577V88.577H186.132V96H184.91V87.472H190.799ZM195.06 96.156C194.237 96.156 193.578 95.9177 193.084 95.441C192.59 94.9643 192.343 94.3317 192.343 93.543V92.022C192.343 91.2247 192.59 90.5877 193.084 90.111C193.578 89.6343 194.237 89.396 195.06 89.396C195.892 89.396 196.555 89.6343 197.049 90.111C197.552 90.5877 197.803 91.2247 197.803 92.022V93.543C197.803 94.3317 197.552 94.9643 197.049 95.441C196.555 95.9177 195.892 96.156 195.06 96.156ZM195.073 95.051C195.55 95.051 195.927 94.9123 196.204 94.635C196.49 94.3577 196.633 93.985 196.633 93.517V92.061C196.633 91.5757 196.494 91.1943 196.217 90.917C195.94 90.6397 195.558 90.501 195.073 90.501C194.596 90.501 194.215 90.6397 193.929 90.917C193.652 91.1943 193.513 91.5757 193.513 92.061V93.517C193.513 93.9937 193.652 94.3707 193.929 94.648C194.215 94.9167 194.596 95.051 195.073 95.051ZM205.54 94.934V97.703H204.357V96H199.638V97.703H198.468V94.934H199.274C199.604 94.3187 199.777 93.5907 199.794 92.75L199.833 89.552H204.578V94.934H205.54ZM203.408 94.934V90.618H200.925L200.886 92.802C200.869 93.6167 200.717 94.3273 200.431 94.934H203.408ZM210.9 91.788C211.585 91.788 212.131 91.9743 212.538 92.347C212.945 92.7197 213.149 93.2137 213.149 93.829V93.959C213.149 94.5743 212.945 95.0683 212.538 95.441C212.131 95.8137 211.585 96 210.9 96H207.702V90.618H205.687V89.552H208.872V91.788H210.9ZM211.979 93.842C211.979 93.53 211.879 93.2873 211.68 93.114C211.481 92.9407 211.203 92.854 210.848 92.854H208.872V94.934H210.848C211.203 94.934 211.481 94.8517 211.68 94.687C211.879 94.5137 211.979 94.2667 211.979 93.946V93.842ZM215.4 93.205V93.517C215.4 94.0023 215.538 94.3837 215.816 94.661C216.102 94.9297 216.492 95.064 216.986 95.064C217.402 95.064 217.748 94.96 218.026 94.752C218.312 94.544 218.459 94.2883 218.468 93.985H219.638C219.603 94.6263 219.343 95.1507 218.858 95.558C218.372 95.9567 217.748 96.156 216.986 96.156C216.154 96.156 215.486 95.922 214.984 95.454C214.481 94.9773 214.23 94.3447 214.23 93.556V92.009C214.23 91.489 214.342 91.034 214.568 90.644C214.793 90.2453 215.114 89.9377 215.53 89.721C215.946 89.5043 216.422 89.396 216.96 89.396C217.774 89.396 218.424 89.6343 218.91 90.111C219.395 90.5877 219.638 91.216 219.638 91.996V93.205H215.4ZM216.96 90.488C216.483 90.488 216.102 90.631 215.816 90.917C215.538 91.1943 215.4 91.5713 215.4 92.048V92.23H218.468V92.048C218.468 91.5713 218.329 91.1943 218.052 90.917C217.783 90.631 217.419 90.488 216.96 90.488ZM228.253 89.552V96H227.161V91.138L227.005 91.606L225.159 96H224.236L222.39 91.606L222.221 91.112V96H221.129V89.552H222.676L224.691 94.375L226.706 89.552H228.253ZM233.123 91.866V92.932H229.847V91.866H233.123ZM237.247 96.156C236.701 96.156 236.22 96.0477 235.804 95.831C235.388 95.6143 235.068 95.311 234.842 94.921C234.617 94.5223 234.504 94.063 234.504 93.543V92.009C234.504 91.489 234.617 91.034 234.842 90.644C235.068 90.2453 235.388 89.9377 235.804 89.721C236.22 89.5043 236.701 89.396 237.247 89.396C237.759 89.396 238.214 89.5043 238.612 89.721C239.02 89.929 239.336 90.2193 239.561 90.592C239.787 90.9647 239.899 91.3893 239.899 91.866V92.009H238.729V91.866C238.729 91.4673 238.591 91.1423 238.313 90.891C238.036 90.631 237.681 90.501 237.247 90.501C236.762 90.501 236.381 90.6397 236.103 90.917C235.826 91.1857 235.687 91.5583 235.687 92.035V93.517C235.687 93.9937 235.826 94.3707 236.103 94.648C236.381 94.9167 236.762 95.051 237.247 95.051C237.681 95.051 238.036 94.9297 238.313 94.687C238.591 94.4357 238.729 94.115 238.729 93.725V93.582H239.899V93.725C239.899 94.453 239.657 95.0423 239.171 95.493C238.686 95.935 238.045 96.156 237.247 96.156ZM246.643 89.552V96H245.46V90.618H242.522V96H241.352V89.552H246.643ZM254.291 94.934V96H253.602C253.29 96 253.017 95.948 252.783 95.844C252.558 95.7313 252.385 95.571 252.263 95.363C251.787 95.8917 251.111 96.156 250.235 96.156C249.542 96.156 248.992 95.9913 248.584 95.662C248.177 95.3327 247.973 94.8777 247.973 94.297C247.973 93.7683 248.147 93.3523 248.493 93.049C248.84 92.7457 249.373 92.5463 250.092 92.451L252.029 92.191V91.775C252.029 91.359 251.908 91.0427 251.665 90.826C251.431 90.6093 251.085 90.501 250.625 90.501C250.175 90.501 249.824 90.6093 249.572 90.826C249.33 91.034 249.208 91.3287 249.208 91.71V91.801H248.025V91.71C248.025 90.9993 248.259 90.436 248.727 90.02C249.204 89.604 249.85 89.396 250.664 89.396C251.479 89.396 252.107 89.6083 252.549 90.033C252.991 90.449 253.212 91.0383 253.212 91.801V94.284C253.212 94.7173 253.42 94.934 253.836 94.934H254.291ZM250.313 95.142C250.695 95.142 251.033 95.0597 251.327 94.895C251.631 94.7303 251.865 94.505 252.029 94.219V93.114L250.287 93.374C249.525 93.4953 249.143 93.7987 249.143 94.284C249.143 94.5527 249.247 94.765 249.455 94.921C249.672 95.0683 249.958 95.142 250.313 95.142ZM261.78 94.934V97.703H260.597V96H255.878V97.703H254.708V94.934H255.514C255.844 94.3187 256.017 93.5907 256.034 92.75L256.073 89.552H260.818V94.934H261.78ZM259.648 94.934V90.618H257.165L257.126 92.802C257.109 93.6167 256.957 94.3273 256.671 94.934H259.648Z" fill="#261E1E"/>
</g>
<g opacity="0.7">
<rect x="339" y="84" width="81" height="24" rx="4" fill="#B6D1C5"/>
<path d="M349.106 91.472V97.842L352.655 91.472H353.877V100H352.681V93.643L349.132 100H347.91V91.472H349.106ZM358.162 100.156C357.616 100.156 357.135 100.048 356.719 99.831C356.303 99.6143 355.983 99.311 355.757 98.921C355.532 98.5223 355.419 98.063 355.419 97.543V96.009C355.419 95.489 355.532 95.034 355.757 94.644C355.983 94.2453 356.303 93.9377 356.719 93.721C357.135 93.5043 357.616 93.396 358.162 93.396C358.674 93.396 359.129 93.5043 359.527 93.721C359.935 93.929 360.251 94.2193 360.476 94.592C360.702 94.9647 360.814 95.3893 360.814 95.866V96.009H359.644V95.866C359.644 95.4673 359.506 95.1423 359.228 94.891C358.951 94.631 358.596 94.501 358.162 94.501C357.677 94.501 357.296 94.6397 357.018 94.917C356.741 95.1857 356.602 95.5583 356.602 96.035V97.517C356.602 97.9937 356.741 98.3707 357.018 98.648C357.296 98.9167 357.677 99.051 358.162 99.051C358.596 99.051 358.951 98.9297 359.228 98.687C359.506 98.4357 359.644 98.115 359.644 97.725V97.582H360.814V97.725C360.814 98.453 360.572 99.0423 360.086 99.493C359.601 99.935 358.96 100.156 358.162 100.156ZM361.349 94.618V93.552H366.822V94.618H364.677V100H363.494V94.618H361.349ZM370.121 100.156C369.297 100.156 368.639 99.9177 368.145 99.441C367.651 98.9643 367.404 98.3317 367.404 97.543V96.022C367.404 95.2247 367.651 94.5877 368.145 94.111C368.639 93.6343 369.297 93.396 370.121 93.396C370.953 93.396 371.616 93.6343 372.11 94.111C372.612 94.5877 372.864 95.2247 372.864 96.022V97.543C372.864 98.3317 372.612 98.9643 372.11 99.441C371.616 99.9177 370.953 100.156 370.121 100.156ZM370.134 99.051C370.61 99.051 370.987 98.9123 371.265 98.635C371.551 98.3577 371.694 97.985 371.694 97.517V96.061C371.694 95.5757 371.555 95.1943 371.278 94.917C371 94.6397 370.619 94.501 370.134 94.501C369.657 94.501 369.276 94.6397 368.99 94.917C368.712 95.1943 368.574 95.5757 368.574 96.061V97.517C368.574 97.9937 368.712 98.3707 368.99 98.648C369.276 98.9167 369.657 99.051 370.134 99.051ZM384.09 98.934V101.703H382.907V100H374.353V93.552H375.523V98.934H378.162V93.552H379.345V98.934H381.958V93.552H383.141V98.934H384.09ZM386.042 97.205V97.517C386.042 98.0023 386.181 98.3837 386.458 98.661C386.744 98.9297 387.134 99.064 387.628 99.064C388.044 99.064 388.391 98.96 388.668 98.752C388.954 98.544 389.102 98.2883 389.11 97.985H390.28C390.246 98.6263 389.986 99.1507 389.5 99.558C389.015 99.9567 388.391 100.156 387.628 100.156C386.796 100.156 386.129 99.922 385.626 99.454C385.124 98.9773 384.872 98.3447 384.872 97.556V96.009C384.872 95.489 384.985 95.034 385.21 94.644C385.436 94.2453 385.756 93.9377 386.172 93.721C386.588 93.5043 387.065 93.396 387.602 93.396C388.417 93.396 389.067 93.6343 389.552 94.111C390.038 94.5877 390.28 95.216 390.28 95.996V97.205H386.042ZM387.602 94.488C387.126 94.488 386.744 94.631 386.458 94.917C386.181 95.1943 386.042 95.5713 386.042 96.048V96.23H389.11V96.048C389.11 95.5713 388.972 95.1943 388.694 94.917C388.426 94.631 388.062 94.488 387.602 94.488ZM392.941 93.565V96.23H395.918V93.565H397.101V100H395.918V97.296H392.941V100H391.771V93.565H392.941ZM399.948 93.552V98.141L402.99 93.552H404.069V100H402.925V95.411L399.896 100H398.817V93.552H399.948ZM406.736 97.205V97.517C406.736 98.0023 406.874 98.3837 407.152 98.661C407.438 98.9297 407.828 99.064 408.322 99.064C408.738 99.064 409.084 98.96 409.362 98.752C409.648 98.544 409.795 98.2883 409.804 97.985H410.974C410.939 98.6263 410.679 99.1507 410.194 99.558C409.708 99.9567 409.084 100.156 408.322 100.156C407.49 100.156 406.822 99.922 406.32 99.454C405.817 98.9773 405.566 98.3447 405.566 97.556V96.009C405.566 95.489 405.678 95.034 405.904 94.644C406.129 94.2453 406.45 93.9377 406.866 93.721C407.282 93.5043 407.758 93.396 408.296 93.396C409.11 93.396 409.76 93.6343 410.246 94.111C410.731 94.5877 410.974 95.216 410.974 95.996V97.205H406.736ZM408.296 94.488C407.819 94.488 407.438 94.631 407.152 94.917C406.874 95.1943 406.736 95.5713 406.736 96.048V96.23H409.804V96.048C409.804 95.5713 409.665 95.1943 409.388 94.917C409.119 94.631 408.755 94.488 408.296 94.488Z" fill="#261E1E"/>
</g>
<defs>
<linearGradient id="paint0_linear_2815_82919" x1="448.531" y1="38.619" x2="-0.937705" y2="38.619" gradientUnits="userSpaceOnUse">
<stop stop-color="#B6D1C5" stop-opacity="0"/>
<stop offset="0.302083" stop-color="#B6D1C5"/>
</linearGradient>
</defs>
</svg>
