<svg width="458" height="174" viewBox="0 0 458 174" fill="none" xmlns="http://www.w3.org/2000/svg">
<line x1="2" y1="173.5" x2="450" y2="173.5" stroke="#B6D1C5"/>
<line opacity="0.2" x1="2" y1="113.847" x2="450" y2="113.847" stroke="#6B360D"/>
<rect opacity="0.25" x="2" y="2" width="70.9703" height="23.8613" fill="#F1F0EA"/>
<rect opacity="0.25" x="2" y="29.8381" width="70.9703" height="23.8613" fill="#F1F0EA"/>
<rect opacity="0.25" x="2" y="57.6763" width="70.9703" height="23.8613" fill="#F1F0EA"/>
<rect opacity="0.25" x="2" y="85.5145" width="70.9703" height="23.8613" fill="#F1F0EA"/>
<rect opacity="0.25" x="2" y="118.324" width="70.9703" height="23.8613" fill="#F1F0EA"/>
<rect opacity="0.25" x="2" y="146.162" width="70.9703" height="23.8613" fill="#F1F0EA"/>
<rect opacity="0.25" x="77.4059" y="2" width="70.9703" height="23.8613" fill="#F1F0EA"/>
<rect opacity="0.25" x="77.4059" y="29.8381" width="70.9703" height="23.8613" fill="#F1F0EA"/>
<rect opacity="0.25" x="77.4059" y="57.6763" width="70.9703" height="23.8613" fill="#F1F0EA"/>
<rect opacity="0.25" x="77.4059" y="85.5145" width="70.9703" height="23.8613" fill="#F1F0EA"/>
<rect opacity="0.25" x="77.4059" y="118.324" width="70.9703" height="23.8613" fill="#F1F0EA"/>
<rect opacity="0.25" x="77.4059" y="146.162" width="70.9703" height="23.8613" fill="#F1F0EA"/>
<rect opacity="0.25" x="152.812" y="2" width="70.9703" height="23.8613" fill="#F1F0EA"/>
<rect opacity="0.25" x="152.812" y="29.8381" width="70.9703" height="23.8613" fill="#F1F0EA"/>
<rect opacity="0.25" x="152.812" y="57.6763" width="70.9703" height="23.8613" fill="#F1F0EA"/>
<rect opacity="0.25" x="152.812" y="85.5145" width="70.9703" height="23.8613" fill="#F1F0EA"/>
<rect opacity="0.25" x="152.812" y="118.324" width="70.9703" height="23.8613" fill="#F1F0EA"/>
<rect opacity="0.25" x="152.812" y="146.162" width="70.9703" height="23.8613" fill="#F1F0EA"/>
<rect opacity="0.25" x="228.218" y="2" width="70.9703" height="23.8613" fill="#F1F0EA"/>
<rect opacity="0.25" x="228.218" y="29.8381" width="70.9703" height="23.8613" fill="#F1F0EA"/>
<rect opacity="0.25" x="228.218" y="57.6763" width="70.9703" height="23.8613" fill="#F1F0EA"/>
<rect opacity="0.25" x="228.218" y="85.5145" width="70.9703" height="23.8613" fill="#F1F0EA"/>
<rect opacity="0.25" x="228.218" y="118.324" width="70.9703" height="23.8613" fill="#F1F0EA"/>
<rect opacity="0.25" x="228.218" y="146.162" width="70.9703" height="23.8613" fill="#F1F0EA"/>
<rect opacity="0.25" x="303.624" y="2" width="70.9703" height="23.8613" fill="#F1F0EA"/>
<rect opacity="0.25" x="303.624" y="29.8381" width="70.9703" height="23.8613" fill="#F1F0EA"/>
<rect opacity="0.25" x="303.624" y="57.6763" width="70.9703" height="23.8613" fill="#F1F0EA"/>
<rect opacity="0.25" x="303.624" y="85.5145" width="70.9703" height="23.8613" fill="#F1F0EA"/>
<rect opacity="0.25" x="303.624" y="118.324" width="70.9703" height="23.8613" fill="#F1F0EA"/>
<rect opacity="0.25" x="303.624" y="146.162" width="70.9703" height="23.8613" fill="#F1F0EA"/>
<rect opacity="0.25" x="379.03" y="2" width="70.9703" height="23.8613" fill="#F1F0EA"/>
<rect opacity="0.25" x="379.03" y="29.8381" width="70.9703" height="23.8613" fill="#F1F0EA"/>
<rect opacity="0.25" x="379.03" y="57.6763" width="70.9703" height="23.8613" fill="#F1F0EA"/>
<rect opacity="0.25" x="379.03" y="85.5145" width="70.9703" height="23.8613" fill="#F1F0EA"/>
<rect opacity="0.25" x="379.03" y="118.324" width="70.9703" height="23.8613" fill="#F1F0EA"/>
<rect opacity="0.25" x="379.03" y="146.162" width="70.9703" height="23.8613" fill="#F1F0EA"/>
<path d="M2 113L69.8749 89.5624C72.6284 88.6116 75.0701 86.9271 76.9367 84.6906L141.15 7.7481C144.19 4.10557 148.69 2 153.434 2H217.92C219.863 2 221.79 2.35397 223.606 3.04457L295.961 30.5554C297.777 31.246 299.704 31.6 301.647 31.6H374.16C376.228 31.6 378.277 31.1989 380.193 30.419L450 2" stroke="url(#paint0_linear_464_113556)" stroke-width="4" stroke-linecap="round" stroke-linejoin="round"/>
<rect x="61" y="102" width="71" height="24" rx="4" fill="#B6D1C5"/>
<path d="M74.538 109.472V110.577H71.132V118H69.91V109.472H74.538ZM80.5374 116.934V118H79.8484C79.5364 118 79.2634 117.948 79.0294 117.844C78.8041 117.731 78.6307 117.571 78.5094 117.363C78.0327 117.892 77.3567 118.156 76.4814 118.156C75.7881 118.156 75.2377 117.991 74.8304 117.662C74.4231 117.333 74.2194 116.878 74.2194 116.297C74.2194 115.768 74.3927 115.352 74.7394 115.049C75.0861 114.746 75.6191 114.546 76.3384 114.451L78.2754 114.191V113.775C78.2754 113.359 78.1541 113.043 77.9114 112.826C77.6774 112.609 77.3307 112.501 76.8714 112.501C76.4207 112.501 76.0697 112.609 75.8184 112.826C75.5757 113.034 75.4544 113.329 75.4544 113.71V113.801H74.2714V113.71C74.2714 112.999 74.5054 112.436 74.9734 112.02C75.4501 111.604 76.0957 111.396 76.9104 111.396C77.7251 111.396 78.3534 111.608 78.7954 112.033C79.2374 112.449 79.4584 113.038 79.4584 113.801V116.284C79.4584 116.717 79.6664 116.934 80.0824 116.934H80.5374ZM76.5594 117.142C76.9407 117.142 77.2787 117.06 77.5734 116.895C77.8767 116.73 78.1107 116.505 78.2754 116.219V115.114L76.5334 115.374C75.7707 115.495 75.3894 115.799 75.3894 116.284C75.3894 116.553 75.4934 116.765 75.7014 116.921C75.9181 117.068 76.2041 117.142 76.5594 117.142ZM84.3995 111.396C85.1535 111.396 85.7558 111.63 86.2065 112.098C86.6572 112.557 86.8825 113.173 86.8825 113.944V115.608C86.8825 116.379 86.6572 116.999 86.2065 117.467C85.7558 117.926 85.1535 118.156 84.3995 118.156C83.6802 118.156 83.0908 117.939 82.6315 117.506V120.21H81.4615V111.552H82.5145L82.5665 112.098C83.0345 111.63 83.6455 111.396 84.3995 111.396ZM85.6995 113.996C85.6995 113.537 85.5608 113.173 85.2835 112.904C85.0148 112.635 84.6465 112.501 84.1785 112.501C83.8405 112.501 83.5328 112.579 83.2555 112.735C82.9868 112.882 82.7788 113.09 82.6315 113.359V116.206C82.7788 116.466 82.9868 116.674 83.2555 116.83C83.5242 116.977 83.8318 117.051 84.1785 117.051C84.6465 117.051 85.0148 116.917 85.2835 116.648C85.5608 116.379 85.6995 116.015 85.6995 115.556V113.996ZM95.4918 111.552V118H94.3998V113.138L94.2438 113.606L92.3978 118H91.4748L89.6288 113.606L89.4598 113.112V118H88.3678V111.552H89.9148L91.9298 116.375L93.9448 111.552H95.4918ZM99.6997 118.156C98.8764 118.156 98.2177 117.918 97.7237 117.441C97.2297 116.964 96.9827 116.332 96.9827 115.543V114.022C96.9827 113.225 97.2297 112.588 97.7237 112.111C98.2177 111.634 98.8764 111.396 99.6997 111.396C100.532 111.396 101.195 111.634 101.689 112.111C102.191 112.588 102.443 113.225 102.443 114.022V115.543C102.443 116.332 102.191 116.964 101.689 117.441C101.195 117.918 100.532 118.156 99.6997 118.156ZM99.7127 117.051C100.189 117.051 100.566 116.912 100.844 116.635C101.13 116.358 101.273 115.985 101.273 115.517V114.061C101.273 113.576 101.134 113.194 100.857 112.917C100.579 112.64 100.198 112.501 99.7127 112.501C99.236 112.501 98.8547 112.64 98.5687 112.917C98.2914 113.194 98.1527 113.576 98.1527 114.061V115.517C98.1527 115.994 98.2914 116.371 98.5687 116.648C98.8547 116.917 99.236 117.051 99.7127 117.051ZM105.102 111.565V114.23H108.079V111.565H109.262V118H108.079V115.296H105.102V118H103.932V111.565H105.102ZM112.109 111.552V116.141L115.151 111.552H116.23V118H115.086V113.411L112.057 118H110.978V111.552H112.109ZM123.034 118H121.851V115.595H120.772L118.822 118H117.509V117.844L119.368 115.556C118.796 115.469 118.346 115.266 118.016 114.945C117.696 114.616 117.535 114.204 117.535 113.71V113.528C117.535 112.921 117.752 112.44 118.185 112.085C118.619 111.73 119.195 111.552 119.914 111.552H123.034V118ZM121.851 114.594V112.605H119.927C119.555 112.605 119.26 112.687 119.043 112.852C118.827 113.017 118.718 113.246 118.718 113.541V113.697C118.718 113.983 118.822 114.204 119.03 114.36C119.247 114.516 119.546 114.594 119.927 114.594H121.851Z" fill="white"/>
<rect x="163" y="59" width="141" height="24" rx="4" fill="#B6D1C5"/>
<path d="M178.007 66.472V66.667L175.29 73.518C175.073 74.0553 174.809 74.4367 174.497 74.662C174.194 74.8873 173.769 75 173.223 75H172.131V73.895H173.158C173.401 73.895 173.596 73.8517 173.743 73.765C173.89 73.6783 174.02 73.5007 174.133 73.232L171.338 66.667V66.472H172.56L174.757 71.802L176.785 66.472H178.007ZM180.651 75.156C180.105 75.156 179.624 75.0477 179.208 74.831C178.792 74.6143 178.472 74.311 178.246 73.921C178.021 73.5223 177.908 73.063 177.908 72.543V71.009C177.908 70.489 178.021 70.034 178.246 69.644C178.472 69.2453 178.792 68.9377 179.208 68.721C179.624 68.5043 180.105 68.396 180.651 68.396C181.163 68.396 181.618 68.5043 182.016 68.721C182.424 68.929 182.74 69.2193 182.965 69.592C183.191 69.9647 183.303 70.3893 183.303 70.866V71.009H182.133V70.866C182.133 70.4673 181.995 70.1423 181.717 69.891C181.44 69.631 181.085 69.501 180.651 69.501C180.166 69.501 179.785 69.6397 179.507 69.917C179.23 70.1857 179.091 70.5583 179.091 71.035V72.517C179.091 72.9937 179.23 73.3707 179.507 73.648C179.785 73.9167 180.166 74.051 180.651 74.051C181.085 74.051 181.44 73.9297 181.717 73.687C181.995 73.4357 182.133 73.115 182.133 72.725V72.582H183.303V72.725C183.303 73.453 183.061 74.0423 182.575 74.493C182.09 74.935 181.449 75.156 180.651 75.156ZM187.252 75.156C186.429 75.156 185.77 74.9177 185.276 74.441C184.782 73.9643 184.535 73.3317 184.535 72.543V71.022C184.535 70.2247 184.782 69.5877 185.276 69.111C185.77 68.6343 186.429 68.396 187.252 68.396C188.084 68.396 188.747 68.6343 189.241 69.111C189.744 69.5877 189.995 70.2247 189.995 71.022V72.543C189.995 73.3317 189.744 73.9643 189.241 74.441C188.747 74.9177 188.084 75.156 187.252 75.156ZM187.265 74.051C187.742 74.051 188.119 73.9123 188.396 73.635C188.682 73.3577 188.825 72.985 188.825 72.517V71.061C188.825 70.5757 188.687 70.1943 188.409 69.917C188.132 69.6397 187.751 69.501 187.265 69.501C186.789 69.501 186.407 69.6397 186.121 69.917C185.844 70.1943 185.705 70.5757 185.705 71.061V72.517C185.705 72.9937 185.844 73.3707 186.121 73.648C186.407 73.9167 186.789 74.051 187.265 74.051ZM195.905 71.711C196.252 71.841 196.516 72.0317 196.698 72.283C196.889 72.5343 196.984 72.829 196.984 73.167V73.349C196.984 73.869 196.793 74.2763 196.412 74.571C196.031 74.857 195.467 75 194.722 75H191.485V68.552H194.566C195.32 68.552 195.883 68.695 196.256 68.981C196.629 69.2583 196.815 69.6613 196.815 70.19V70.359C196.815 70.6797 196.737 70.957 196.581 71.191C196.425 71.4163 196.2 71.5897 195.905 71.711ZM192.655 69.501V71.282H194.644C194.956 71.282 195.199 71.2083 195.372 71.061C195.554 70.905 195.645 70.7013 195.645 70.45V70.307C195.645 70.0557 195.554 69.8607 195.372 69.722C195.199 69.5747 194.952 69.501 194.631 69.501H192.655ZM195.814 73.05C195.814 72.7813 195.723 72.5777 195.541 72.439C195.359 72.2917 195.103 72.218 194.774 72.218H192.655V74.051H194.787C195.099 74.051 195.346 73.9773 195.528 73.83C195.719 73.674 195.814 73.466 195.814 73.206V73.05ZM199.353 72.205V72.517C199.353 73.0023 199.492 73.3837 199.769 73.661C200.055 73.9297 200.445 74.064 200.939 74.064C201.355 74.064 201.702 73.96 201.979 73.752C202.265 73.544 202.412 73.2883 202.421 72.985H203.591C203.556 73.6263 203.296 74.1507 202.811 74.558C202.326 74.9567 201.702 75.156 200.939 75.156C200.107 75.156 199.44 74.922 198.937 74.454C198.434 73.9773 198.183 73.3447 198.183 72.556V71.009C198.183 70.489 198.296 70.034 198.521 69.644C198.746 69.2453 199.067 68.9377 199.483 68.721C199.899 68.5043 200.376 68.396 200.913 68.396C201.728 68.396 202.378 68.6343 202.863 69.111C203.348 69.5877 203.591 70.216 203.591 70.996V72.205H199.353ZM200.913 69.488C200.436 69.488 200.055 69.631 199.769 69.917C199.492 70.1943 199.353 70.5713 199.353 71.048V71.23H202.421V71.048C202.421 70.5713 202.282 70.1943 202.005 69.917C201.736 69.631 201.372 69.488 200.913 69.488ZM208.02 68.396C208.774 68.396 209.376 68.63 209.827 69.098C210.277 69.5573 210.503 70.1727 210.503 70.944V72.608C210.503 73.3793 210.277 73.999 209.827 74.467C209.376 74.9263 208.774 75.156 208.02 75.156C207.3 75.156 206.711 74.9393 206.252 74.506V77.21H205.082V68.552H206.135L206.187 69.098C206.655 68.63 207.266 68.396 208.02 68.396ZM209.32 70.996C209.32 70.5367 209.181 70.1727 208.904 69.904C208.635 69.6353 208.267 69.501 207.799 69.501C207.461 69.501 207.153 69.579 206.876 69.735C206.607 69.8823 206.399 70.0903 206.252 70.359V73.206C206.399 73.466 206.607 73.674 206.876 73.83C207.144 73.9773 207.452 74.051 207.799 74.051C208.267 74.051 208.635 73.9167 208.904 73.648C209.181 73.3793 209.32 73.0153 209.32 72.556V70.996ZM213.158 68.552V73.934H215.797V68.552H216.98V73.934H219.593V68.552H220.776V75H211.988V68.552H213.158ZM223.436 72.205V72.517C223.436 73.0023 223.575 73.3837 223.852 73.661C224.138 73.9297 224.528 74.064 225.022 74.064C225.438 74.064 225.785 73.96 226.062 73.752C226.348 73.544 226.495 73.2883 226.504 72.985H227.674C227.639 73.6263 227.379 74.1507 226.894 74.558C226.409 74.9567 225.785 75.156 225.022 75.156C224.19 75.156 223.523 74.922 223.02 74.454C222.517 73.9773 222.266 73.3447 222.266 72.556V71.009C222.266 70.489 222.379 70.034 222.604 69.644C222.829 69.2453 223.15 68.9377 223.566 68.721C223.982 68.5043 224.459 68.396 224.996 68.396C225.811 68.396 226.461 68.6343 226.946 69.111C227.431 69.5877 227.674 70.216 227.674 70.996V72.205H223.436ZM224.996 69.488C224.519 69.488 224.138 69.631 223.852 69.917C223.575 70.1943 223.436 70.5713 223.436 71.048V71.23H226.504V71.048C226.504 70.5713 226.365 70.1943 226.088 69.917C225.819 69.631 225.455 69.488 224.996 69.488ZM230.335 68.565V71.23H233.312V68.565H234.495V75H233.312V72.296H230.335V75H229.165V68.565H230.335ZM238.733 75.156C238.187 75.156 237.706 75.0477 237.29 74.831C236.874 74.6143 236.553 74.311 236.328 73.921C236.102 73.5223 235.99 73.063 235.99 72.543V71.009C235.99 70.489 236.102 70.034 236.328 69.644C236.553 69.2453 236.874 68.9377 237.29 68.721C237.706 68.5043 238.187 68.396 238.733 68.396C239.244 68.396 239.699 68.5043 240.098 68.721C240.505 68.929 240.821 69.2193 241.047 69.592C241.272 69.9647 241.385 70.3893 241.385 70.866V71.009H240.215V70.866C240.215 70.4673 240.076 70.1423 239.799 69.891C239.521 69.631 239.166 69.501 238.733 69.501C238.247 69.501 237.866 69.6397 237.589 69.917C237.311 70.1857 237.173 70.5583 237.173 71.035V72.517C237.173 72.9937 237.311 73.3707 237.589 73.648C237.866 73.9167 238.247 74.051 238.733 74.051C239.166 74.051 239.521 73.9297 239.799 73.687C240.076 73.4357 240.215 73.115 240.215 72.725V72.582H241.385V72.725C241.385 73.453 241.142 74.0423 240.657 74.493C240.171 74.935 239.53 75.156 238.733 75.156ZM241.919 69.618V68.552H247.392V69.618H245.247V75H244.064V69.618H241.919ZM252.818 71.711C253.165 71.841 253.429 72.0317 253.611 72.283C253.802 72.5343 253.897 72.829 253.897 73.167V73.349C253.897 73.869 253.706 74.2763 253.325 74.571C252.944 74.857 252.38 75 251.635 75H248.398V68.552H251.479C252.233 68.552 252.796 68.695 253.169 68.981C253.542 69.2583 253.728 69.6613 253.728 70.19V70.359C253.728 70.6797 253.65 70.957 253.494 71.191C253.338 71.4163 253.113 71.5897 252.818 71.711ZM249.568 69.501V71.282H251.557C251.869 71.282 252.112 71.2083 252.285 71.061C252.467 70.905 252.558 70.7013 252.558 70.45V70.307C252.558 70.0557 252.467 69.8607 252.285 69.722C252.112 69.5747 251.865 69.501 251.544 69.501H249.568ZM252.727 73.05C252.727 72.7813 252.636 72.5777 252.454 72.439C252.272 72.2917 252.016 72.218 251.687 72.218H249.568V74.051H251.7C252.012 74.051 252.259 73.9773 252.441 73.83C252.632 73.674 252.727 73.466 252.727 73.206V73.05ZM257.813 75.156C256.99 75.156 256.331 74.9177 255.837 74.441C255.343 73.9643 255.096 73.3317 255.096 72.543V71.022C255.096 70.2247 255.343 69.5877 255.837 69.111C256.331 68.6343 256.99 68.396 257.813 68.396C258.645 68.396 259.308 68.6343 259.802 69.111C260.305 69.5877 260.556 70.2247 260.556 71.022V72.543C260.556 73.3317 260.305 73.9643 259.802 74.441C259.308 74.9177 258.645 75.156 257.813 75.156ZM257.826 74.051C258.303 74.051 258.68 73.9123 258.957 73.635C259.243 73.3577 259.386 72.985 259.386 72.517V71.061C259.386 70.5757 259.247 70.1943 258.97 69.917C258.693 69.6397 258.311 69.501 257.826 69.501C257.349 69.501 256.968 69.6397 256.682 69.917C256.405 70.1943 256.266 70.5757 256.266 71.061V72.517C256.266 72.9937 256.405 73.3707 256.682 73.648C256.968 73.9167 257.349 74.051 257.826 74.051ZM266.466 71.711C266.812 71.841 267.077 72.0317 267.259 72.283C267.449 72.5343 267.545 72.829 267.545 73.167V73.349C267.545 73.869 267.354 74.2763 266.973 74.571C266.591 74.857 266.028 75 265.283 75H262.045V68.552H265.127C265.881 68.552 266.444 68.695 266.817 68.981C267.189 69.2583 267.376 69.6613 267.376 70.19V70.359C267.376 70.6797 267.298 70.957 267.142 71.191C266.986 71.4163 266.76 71.5897 266.466 71.711ZM263.216 69.501V71.282H265.205C265.517 71.282 265.759 71.2083 265.933 71.061C266.115 70.905 266.206 70.7013 266.206 70.45V70.307C266.206 70.0557 266.115 69.8607 265.933 69.722C265.759 69.5747 265.512 69.501 265.192 69.501H263.216ZM266.375 73.05C266.375 72.7813 266.284 72.5777 266.102 72.439C265.92 72.2917 265.664 72.218 265.335 72.218H263.216V74.051H265.348C265.66 74.051 265.907 73.9773 266.089 73.83C266.279 73.674 266.375 73.466 266.375 73.206V73.05ZM275.035 73.934V75H274.346C274.034 75 273.761 74.948 273.527 74.844C273.302 74.7313 273.129 74.571 273.007 74.363C272.531 74.8917 271.855 75.156 270.979 75.156C270.286 75.156 269.736 74.9913 269.328 74.662C268.921 74.3327 268.717 73.8777 268.717 73.297C268.717 72.7683 268.891 72.3523 269.237 72.049C269.584 71.7457 270.117 71.5463 270.836 71.451L272.773 71.191V70.775C272.773 70.359 272.652 70.0427 272.409 69.826C272.175 69.6093 271.829 69.501 271.369 69.501C270.919 69.501 270.568 69.6093 270.316 69.826C270.074 70.034 269.952 70.3287 269.952 70.71V70.801H268.769V70.71C268.769 69.9993 269.003 69.436 269.471 69.02C269.948 68.604 270.594 68.396 271.408 68.396C272.223 68.396 272.851 68.6083 273.293 69.033C273.735 69.449 273.956 70.0383 273.956 70.801V73.284C273.956 73.7173 274.164 73.934 274.58 73.934H275.035ZM271.057 74.142C271.439 74.142 271.777 74.0597 272.071 73.895C272.375 73.7303 272.609 73.505 272.773 73.219V72.114L271.031 72.374C270.269 72.4953 269.887 72.7987 269.887 73.284C269.887 73.5527 269.991 73.765 270.199 73.921C270.416 74.0683 270.702 74.142 271.057 74.142ZM277.13 68.565V71.23H280.107V68.565H281.29V75H280.107V72.296H277.13V75H275.96V68.565H277.13ZM284.136 68.552V73.141L287.178 68.552H288.257V75H287.113V70.411L284.084 75H283.005V68.552H284.136ZM290.924 72.205V72.517C290.924 73.0023 291.063 73.3837 291.34 73.661C291.626 73.9297 292.016 74.064 292.51 74.064C292.926 74.064 293.273 73.96 293.55 73.752C293.836 73.544 293.984 73.2883 293.992 72.985H295.162C295.128 73.6263 294.868 74.1507 294.382 74.558C293.897 74.9567 293.273 75.156 292.51 75.156C291.678 75.156 291.011 74.922 290.508 74.454C290.006 73.9773 289.754 73.3447 289.754 72.556V71.009C289.754 70.489 289.867 70.034 290.092 69.644C290.318 69.2453 290.638 68.9377 291.054 68.721C291.47 68.5043 291.947 68.396 292.484 68.396C293.299 68.396 293.949 68.6343 294.434 69.111C294.92 69.5877 295.162 70.216 295.162 70.996V72.205H290.924ZM292.484 69.488C292.008 69.488 291.626 69.631 291.34 69.917C291.063 70.1943 290.924 70.5713 290.924 71.048V71.23H293.992V71.048C293.992 70.5713 293.854 70.1943 293.576 69.917C293.308 69.631 292.944 69.488 292.484 69.488Z" fill="white"/>
<rect x="340" y="47" width="70" height="24" rx="4" fill="#B6D1C5"/>
<path d="M354.799 54.472V63H353.577V55.577H350.132V63H348.91V54.472H354.799ZM359.502 56.396C360.256 56.396 360.858 56.63 361.309 57.098C361.76 57.5573 361.985 58.1727 361.985 58.944V60.608C361.985 61.3793 361.76 61.999 361.309 62.467C360.858 62.9263 360.256 63.156 359.502 63.156C358.783 63.156 358.193 62.9393 357.734 62.506V65.21H356.564V56.552H357.617L357.669 57.098C358.137 56.63 358.748 56.396 359.502 56.396ZM360.802 58.996C360.802 58.5367 360.663 58.1727 360.386 57.904C360.117 57.6353 359.749 57.501 359.281 57.501C358.943 57.501 358.635 57.579 358.358 57.735C358.089 57.8823 357.881 58.0903 357.734 58.359V61.206C357.881 61.466 358.089 61.674 358.358 61.83C358.627 61.9773 358.934 62.051 359.281 62.051C359.749 62.051 360.117 61.9167 360.386 61.648C360.663 61.3793 360.802 61.0153 360.802 60.556V58.996ZM365.966 63.156C365.143 63.156 364.484 62.9177 363.99 62.441C363.496 61.9643 363.249 61.3317 363.249 60.543V59.022C363.249 58.2247 363.496 57.5877 363.99 57.111C364.484 56.6343 365.143 56.396 365.966 56.396C366.798 56.396 367.461 56.6343 367.955 57.111C368.458 57.5877 368.709 58.2247 368.709 59.022V60.543C368.709 61.3317 368.458 61.9643 367.955 62.441C367.461 62.9177 366.798 63.156 365.966 63.156ZM365.979 62.051C366.456 62.051 366.833 61.9123 367.11 61.635C367.396 61.3577 367.539 60.985 367.539 60.517V59.061C367.539 58.5757 367.401 58.1943 367.123 57.917C366.846 57.6397 366.465 57.501 365.979 57.501C365.503 57.501 365.121 57.6397 364.835 57.917C364.558 58.1943 364.419 58.5757 364.419 59.061V60.517C364.419 60.9937 364.558 61.3707 364.835 61.648C365.121 61.9167 365.503 62.051 365.979 62.051ZM374.19 56.552V57.618H371.369V63H370.199V56.552H374.19ZM378.126 56.396C378.88 56.396 379.482 56.63 379.933 57.098C380.384 57.5573 380.609 58.1727 380.609 58.944V60.608C380.609 61.3793 380.384 61.999 379.933 62.467C379.482 62.9263 378.88 63.156 378.126 63.156C377.407 63.156 376.817 62.9393 376.358 62.506V65.21H375.188V56.552H376.241L376.293 57.098C376.761 56.63 377.372 56.396 378.126 56.396ZM379.426 58.996C379.426 58.5367 379.287 58.1727 379.01 57.904C378.741 57.6353 378.373 57.501 377.905 57.501C377.567 57.501 377.259 57.579 376.982 57.735C376.713 57.8823 376.505 58.0903 376.358 58.359V61.206C376.505 61.466 376.713 61.674 376.982 61.83C377.251 61.9773 377.558 62.051 377.905 62.051C378.373 62.051 378.741 61.9167 379.01 61.648C379.287 61.3793 379.426 61.0153 379.426 60.556V58.996ZM383.043 60.205V60.517C383.043 61.0023 383.182 61.3837 383.459 61.661C383.745 61.9297 384.135 62.064 384.629 62.064C385.045 62.064 385.392 61.96 385.669 61.752C385.955 61.544 386.103 61.2883 386.111 60.985H387.281C387.247 61.6263 386.987 62.1507 386.501 62.558C386.016 62.9567 385.392 63.156 384.629 63.156C383.797 63.156 383.13 62.922 382.627 62.454C382.125 61.9773 381.873 61.3447 381.873 60.556V59.009C381.873 58.489 381.986 58.034 382.211 57.644C382.437 57.2453 382.757 56.9377 383.173 56.721C383.589 56.5043 384.066 56.396 384.603 56.396C385.418 56.396 386.068 56.6343 386.553 57.111C387.039 57.5877 387.281 58.216 387.281 58.996V60.205H383.043ZM384.603 57.488C384.127 57.488 383.745 57.631 383.459 57.917C383.182 58.1943 383.043 58.5713 383.043 59.048V59.23H386.111V59.048C386.111 58.5713 385.973 58.1943 385.695 57.917C385.427 57.631 385.063 57.488 384.603 57.488ZM391.294 63.156C390.748 63.156 390.267 63.0477 389.851 62.831C389.435 62.6143 389.114 62.311 388.889 61.921C388.664 61.5223 388.551 61.063 388.551 60.543V59.009C388.551 58.489 388.664 58.034 388.889 57.644C389.114 57.2453 389.435 56.9377 389.851 56.721C390.267 56.5043 390.748 56.396 391.294 56.396C391.805 56.396 392.26 56.5043 392.659 56.721C393.066 56.929 393.383 57.2193 393.608 57.592C393.833 57.9647 393.946 58.3893 393.946 58.866V59.009H392.776V58.866C392.776 58.4673 392.637 58.1423 392.36 57.891C392.083 57.631 391.727 57.501 391.294 57.501C390.809 57.501 390.427 57.6397 390.15 57.917C389.873 58.1857 389.734 58.5583 389.734 59.035V60.517C389.734 60.9937 389.873 61.3707 390.15 61.648C390.427 61.9167 390.809 62.051 391.294 62.051C391.727 62.051 392.083 61.9297 392.36 61.687C392.637 61.4357 392.776 61.115 392.776 60.725V60.582H393.946V60.725C393.946 61.453 393.703 62.0423 393.218 62.493C392.733 62.935 392.091 63.156 391.294 63.156ZM397.921 63.156C397.375 63.156 396.894 63.0477 396.478 62.831C396.062 62.6143 395.741 62.311 395.516 61.921C395.291 61.5223 395.178 61.063 395.178 60.543V59.009C395.178 58.489 395.291 58.034 395.516 57.644C395.741 57.2453 396.062 56.9377 396.478 56.721C396.894 56.5043 397.375 56.396 397.921 56.396C398.432 56.396 398.887 56.5043 399.286 56.721C399.693 56.929 400.01 57.2193 400.235 57.592C400.46 57.9647 400.573 58.3893 400.573 58.866V59.009H399.403V58.866C399.403 58.4673 399.264 58.1423 398.987 57.891C398.71 57.631 398.354 57.501 397.921 57.501C397.436 57.501 397.054 57.6397 396.777 57.917C396.5 58.1857 396.361 58.5583 396.361 59.035V60.517C396.361 60.9937 396.5 61.3707 396.777 61.648C397.054 61.9167 397.436 62.051 397.921 62.051C398.354 62.051 398.71 61.9297 398.987 61.687C399.264 61.4357 399.403 61.115 399.403 60.725V60.582H400.573V60.725C400.573 61.453 400.33 62.0423 399.845 62.493C399.36 62.935 398.718 63.156 397.921 63.156Z" fill="white"/>
<defs>
<linearGradient id="paint0_linear_464_113556" x1="448.531" y1="32.6571" x2="-0.937705" y2="32.6571" gradientUnits="userSpaceOnUse">
<stop stop-color="#B6D1C5" stop-opacity="0"/>
<stop offset="0.302083" stop-color="#B6D1C5"/>
</linearGradient>
</defs>
</svg>
