<svg width="458" height="172" viewBox="0 0 458 172" fill="none" xmlns="http://www.w3.org/2000/svg">
<line opacity="0.1" x1="2" y1="111.847" x2="450" y2="111.847" stroke="#966F7B"/>
<path opacity="0.1" d="M2 4C2 1.79086 3.79086 0 6 0H68.9703C71.1794 0 72.9703 1.79086 72.9703 4V19.8613C72.9703 22.0704 71.1794 23.8613 68.9703 23.8613H6C3.79087 23.8613 2 22.0704 2 19.8613V4Z" fill="#FECE30"/>
<path opacity="0.1" d="M2 31.8381C2 29.629 3.79086 27.8381 6 27.8381H68.9703C71.1794 27.8381 72.9703 29.629 72.9703 31.8381V47.6994C72.9703 49.9085 71.1794 51.6994 68.9703 51.6994H6C3.79087 51.6994 2 49.9085 2 47.6994V31.8381Z" fill="#FECE30"/>
<path opacity="0.1" d="M2 59.6763C2 57.4671 3.79086 55.6763 6 55.6763H68.9703C71.1794 55.6763 72.9703 57.4671 72.9703 59.6763V75.5375C72.9703 77.7467 71.1794 79.5375 68.9703 79.5375H6C3.79087 79.5375 2 77.7467 2 75.5375V59.6763Z" fill="#FECE30"/>
<path opacity="0.1" d="M2 87.5144C2 85.3053 3.79086 83.5144 6 83.5144H68.9703C71.1794 83.5144 72.9703 85.3053 72.9703 87.5144V103.376C72.9703 105.585 71.1794 107.376 68.9703 107.376H6C3.79087 107.376 2 105.585 2 103.376V87.5144Z" fill="#FECE30"/>
<path opacity="0.1" d="M2 120.324C2 118.115 3.79086 116.324 6 116.324H68.9703C71.1794 116.324 72.9703 118.115 72.9703 120.324V136.185C72.9703 138.394 71.1794 140.185 68.9703 140.185H6C3.79087 140.185 2 138.394 2 136.185V120.324Z" fill="#FECE30"/>
<path opacity="0.1" d="M2 148.162C2 145.953 3.79086 144.162 6 144.162H68.9703C71.1794 144.162 72.9703 145.953 72.9703 148.162V164.023C72.9703 166.232 71.1794 168.023 68.9703 168.023H6C3.79087 168.023 2 166.232 2 164.023V148.162Z" fill="#FECE30"/>
<path opacity="0.1" d="M77.4059 4C77.4059 1.79086 79.1968 0 81.4059 0H144.376C146.585 0 148.376 1.79086 148.376 4V19.8613C148.376 22.0704 146.585 23.8613 144.376 23.8613H81.4059C79.1968 23.8613 77.4059 22.0704 77.4059 19.8613V4Z" fill="#FECE30"/>
<path opacity="0.1" d="M77.4059 31.8381C77.4059 29.629 79.1968 27.8381 81.4059 27.8381H144.376C146.585 27.8381 148.376 29.629 148.376 31.8381V47.6994C148.376 49.9085 146.585 51.6994 144.376 51.6994H81.4059C79.1968 51.6994 77.4059 49.9085 77.4059 47.6994V31.8381Z" fill="#FECE30"/>
<path opacity="0.1" d="M77.4059 59.6763C77.4059 57.4671 79.1968 55.6763 81.4059 55.6763H144.376C146.585 55.6763 148.376 57.4671 148.376 59.6763V75.5375C148.376 77.7467 146.585 79.5375 144.376 79.5375H81.4059C79.1968 79.5375 77.4059 77.7467 77.4059 75.5375V59.6763Z" fill="#FECE30"/>
<path opacity="0.1" d="M77.4059 87.5144C77.4059 85.3053 79.1968 83.5144 81.4059 83.5144H144.376C146.585 83.5144 148.376 85.3053 148.376 87.5144V103.376C148.376 105.585 146.585 107.376 144.376 107.376H81.4059C79.1968 107.376 77.4059 105.585 77.4059 103.376V87.5144Z" fill="#FECE30"/>
<path opacity="0.1" d="M77.4059 120.324C77.4059 118.115 79.1968 116.324 81.4059 116.324H144.376C146.585 116.324 148.376 118.115 148.376 120.324V136.185C148.376 138.394 146.585 140.185 144.376 140.185H81.4059C79.1968 140.185 77.4059 138.394 77.4059 136.185V120.324Z" fill="#FECE30"/>
<path opacity="0.1" d="M77.4059 148.162C77.4059 145.953 79.1968 144.162 81.4059 144.162H144.376C146.585 144.162 148.376 145.953 148.376 148.162V164.023C148.376 166.232 146.585 168.023 144.376 168.023H81.4059C79.1968 168.023 77.4059 166.232 77.4059 164.023V148.162Z" fill="#FECE30"/>
<path opacity="0.1" d="M152.812 4C152.812 1.79086 154.603 0 156.812 0H219.782C221.991 0 223.782 1.79086 223.782 4V19.8613C223.782 22.0704 221.991 23.8613 219.782 23.8613H156.812C154.603 23.8613 152.812 22.0704 152.812 19.8613V4Z" fill="#FECE30"/>
<path opacity="0.1" d="M152.812 31.8381C152.812 29.629 154.603 27.8381 156.812 27.8381H219.782C221.991 27.8381 223.782 29.629 223.782 31.8381V47.6994C223.782 49.9085 221.991 51.6994 219.782 51.6994H156.812C154.603 51.6994 152.812 49.9085 152.812 47.6994V31.8381Z" fill="#FECE30"/>
<path opacity="0.1" d="M152.812 59.6763C152.812 57.4671 154.603 55.6763 156.812 55.6763H219.782C221.991 55.6763 223.782 57.4671 223.782 59.6763V75.5375C223.782 77.7467 221.991 79.5375 219.782 79.5375H156.812C154.603 79.5375 152.812 77.7467 152.812 75.5375V59.6763Z" fill="#FECE30"/>
<path opacity="0.1" d="M152.812 87.5144C152.812 85.3053 154.603 83.5144 156.812 83.5144H219.782C221.991 83.5144 223.782 85.3053 223.782 87.5144V103.376C223.782 105.585 221.991 107.376 219.782 107.376H156.812C154.603 107.376 152.812 105.585 152.812 103.376V87.5144Z" fill="#FECE30"/>
<path opacity="0.1" d="M152.812 120.324C152.812 118.115 154.603 116.324 156.812 116.324H219.782C221.991 116.324 223.782 118.115 223.782 120.324V136.185C223.782 138.394 221.991 140.185 219.782 140.185H156.812C154.603 140.185 152.812 138.394 152.812 136.185V120.324Z" fill="#FECE30"/>
<path opacity="0.1" d="M152.812 148.162C152.812 145.953 154.603 144.162 156.812 144.162H219.782C221.991 144.162 223.782 145.953 223.782 148.162V164.023C223.782 166.232 221.991 168.023 219.782 168.023H156.812C154.603 168.023 152.812 166.232 152.812 164.023V148.162Z" fill="#FECE30"/>
<path opacity="0.1" d="M228.218 4C228.218 1.79086 230.009 0 232.218 0H295.188C297.397 0 299.188 1.79086 299.188 4V19.8613C299.188 22.0704 297.397 23.8613 295.188 23.8613H232.218C230.009 23.8613 228.218 22.0704 228.218 19.8613V4Z" fill="#FECE30"/>
<path opacity="0.1" d="M228.218 31.8381C228.218 29.629 230.009 27.8381 232.218 27.8381H295.188C297.397 27.8381 299.188 29.629 299.188 31.8381V47.6994C299.188 49.9085 297.397 51.6994 295.188 51.6994H232.218C230.009 51.6994 228.218 49.9085 228.218 47.6994V31.8381Z" fill="#FECE30"/>
<path opacity="0.1" d="M228.218 59.6763C228.218 57.4671 230.009 55.6763 232.218 55.6763H295.188C297.397 55.6763 299.188 57.4671 299.188 59.6763V75.5375C299.188 77.7467 297.397 79.5375 295.188 79.5375H232.218C230.009 79.5375 228.218 77.7467 228.218 75.5375V59.6763Z" fill="#FECE30"/>
<path opacity="0.1" d="M228.218 87.5144C228.218 85.3053 230.009 83.5144 232.218 83.5144H295.188C297.397 83.5144 299.188 85.3053 299.188 87.5144V103.376C299.188 105.585 297.397 107.376 295.188 107.376H232.218C230.009 107.376 228.218 105.585 228.218 103.376V87.5144Z" fill="#FECE30"/>
<path opacity="0.1" d="M228.218 120.324C228.218 118.115 230.009 116.324 232.218 116.324H295.188C297.397 116.324 299.188 118.115 299.188 120.324V136.185C299.188 138.394 297.397 140.185 295.188 140.185H232.218C230.009 140.185 228.218 138.394 228.218 136.185V120.324Z" fill="#FECE30"/>
<path opacity="0.1" d="M228.218 148.162C228.218 145.953 230.009 144.162 232.218 144.162H295.188C297.397 144.162 299.188 145.953 299.188 148.162V164.023C299.188 166.232 297.397 168.023 295.188 168.023H232.218C230.009 168.023 228.218 166.232 228.218 164.023V148.162Z" fill="#FECE30"/>
<path opacity="0.1" d="M303.624 4C303.624 1.79086 305.415 0 307.624 0H370.594C372.803 0 374.594 1.79086 374.594 4V19.8613C374.594 22.0704 372.803 23.8613 370.594 23.8613H307.624C305.415 23.8613 303.624 22.0704 303.624 19.8613V4Z" fill="#FECE30"/>
<path opacity="0.1" d="M303.624 31.8381C303.624 29.629 305.415 27.8381 307.624 27.8381H370.594C372.803 27.8381 374.594 29.629 374.594 31.8381V47.6994C374.594 49.9085 372.803 51.6994 370.594 51.6994H307.624C305.415 51.6994 303.624 49.9085 303.624 47.6994V31.8381Z" fill="#FECE30"/>
<path opacity="0.1" d="M303.624 59.6763C303.624 57.4671 305.415 55.6763 307.624 55.6763H370.594C372.803 55.6763 374.594 57.4671 374.594 59.6763V75.5375C374.594 77.7467 372.803 79.5375 370.594 79.5375H307.624C305.415 79.5375 303.624 77.7467 303.624 75.5375V59.6763Z" fill="#FECE30"/>
<path opacity="0.1" d="M303.624 87.5144C303.624 85.3053 305.415 83.5144 307.624 83.5144H370.594C372.803 83.5144 374.594 85.3053 374.594 87.5144V103.376C374.594 105.585 372.803 107.376 370.594 107.376H307.624C305.415 107.376 303.624 105.585 303.624 103.376V87.5144Z" fill="#FECE30"/>
<path opacity="0.1" d="M303.624 120.324C303.624 118.115 305.415 116.324 307.624 116.324H370.594C372.803 116.324 374.594 118.115 374.594 120.324V136.185C374.594 138.394 372.803 140.185 370.594 140.185H307.624C305.415 140.185 303.624 138.394 303.624 136.185V120.324Z" fill="#FECE30"/>
<path opacity="0.1" d="M303.624 148.162C303.624 145.953 305.415 144.162 307.624 144.162H370.594C372.803 144.162 374.594 145.953 374.594 148.162V164.023C374.594 166.232 372.803 168.023 370.594 168.023H307.624C305.415 168.023 303.624 166.232 303.624 164.023V148.162Z" fill="#FECE30"/>
<path opacity="0.1" d="M379.03 4C379.03 1.79086 380.821 0 383.03 0H446C448.209 0 450 1.79086 450 4V19.8613C450 22.0704 448.209 23.8613 446 23.8613H383.03C380.821 23.8613 379.03 22.0704 379.03 19.8613V4Z" fill="#FECE30"/>
<path opacity="0.1" d="M379.03 31.8381C379.03 29.629 380.821 27.8381 383.03 27.8381H446C448.209 27.8381 450 29.629 450 31.8381V47.6994C450 49.9085 448.209 51.6994 446 51.6994H383.03C380.821 51.6994 379.03 49.9085 379.03 47.6994V31.8381Z" fill="#FECE30"/>
<path opacity="0.1" d="M379.03 59.6763C379.03 57.4671 380.821 55.6763 383.03 55.6763H446C448.209 55.6763 450 57.4671 450 59.6763V75.5375C450 77.7467 448.209 79.5375 446 79.5375H383.03C380.821 79.5375 379.03 77.7467 379.03 75.5375V59.6763Z" fill="#FECE30"/>
<path opacity="0.1" d="M379.03 87.5144C379.03 85.3053 380.821 83.5144 383.03 83.5144H446C448.209 83.5144 450 85.3053 450 87.5144V103.376C450 105.585 448.209 107.376 446 107.376H383.03C380.821 107.376 379.03 105.585 379.03 103.376V87.5144Z" fill="#FECE30"/>
<path opacity="0.1" d="M379.03 120.324C379.03 118.115 380.821 116.324 383.03 116.324H446C448.209 116.324 450 118.115 450 120.324V136.185C450 138.394 448.209 140.185 446 140.185H383.03C380.821 140.185 379.03 138.394 379.03 136.185V120.324Z" fill="#FECE30"/>
<path opacity="0.1" d="M379.03 148.162C379.03 145.953 380.821 144.162 383.03 144.162H446C448.209 144.162 450 145.953 450 148.162V164.023C450 166.232 448.209 168.023 446 168.023H383.03C380.821 168.023 379.03 166.232 379.03 164.023V148.162Z" fill="#FECE30"/>
<path d="M2 109.316L71.6316 87.4948C73.2559 86.9857 74.7886 86.2208 76.1718 85.2287L135.469 42.7012C142.851 37.4065 153.155 39.3136 158.154 46.8995L220.643 141.734C223.628 146.265 228.706 148.974 234.131 148.93L298.711 148.414C300.723 148.398 302.713 148.002 304.578 147.249L374.504 118.99C376.347 118.245 378.311 117.85 380.298 117.825L450 116.947" stroke="url(#paint0_linear_2816_83303)" stroke-width="4" stroke-linecap="round" stroke-linejoin="round"/>
<rect x="32" y="116" width="116" height="24" rx="4" fill="#FECE30"/>
<path d="M46.357 123.472V124.577H42.132V127.112H44.251C45.083 127.112 45.733 127.324 46.201 127.749C46.6777 128.165 46.916 128.737 46.916 129.465V129.66C46.916 130.379 46.6777 130.951 46.201 131.376C45.7243 131.792 45.0743 132 44.251 132H40.91V123.472H46.357ZM44.225 130.895C44.7103 130.895 45.0787 130.791 45.33 130.583C45.5813 130.366 45.707 130.054 45.707 129.647V129.452C45.707 129.053 45.5813 128.746 45.33 128.529C45.0787 128.312 44.7103 128.204 44.225 128.204H42.132V130.895H44.225ZM53.6643 132H52.4943V126.618H50.0113L49.9463 129.673C49.929 130.47 49.7643 131.06 49.4523 131.441C49.149 131.814 48.681 132 48.0483 132H47.6973V130.934H47.9053C48.226 130.934 48.4557 130.826 48.5943 130.609C48.7417 130.392 48.824 130.041 48.8413 129.556L48.9323 125.552H53.6643V132ZM61.3128 130.934V132H60.6238C60.3118 132 60.0388 131.948 59.8048 131.844C59.5795 131.731 59.4061 131.571 59.2848 131.363C58.8081 131.892 58.1321 132.156 57.2568 132.156C56.5635 132.156 56.0131 131.991 55.6058 131.662C55.1985 131.333 54.9948 130.878 54.9948 130.297C54.9948 129.768 55.1681 129.352 55.5148 129.049C55.8615 128.746 56.3945 128.546 57.1138 128.451L59.0508 128.191V127.775C59.0508 127.359 58.9295 127.043 58.6868 126.826C58.4528 126.609 58.1061 126.501 57.6468 126.501C57.1961 126.501 56.8451 126.609 56.5938 126.826C56.3511 127.034 56.2298 127.329 56.2298 127.71V127.801H55.0468V127.71C55.0468 126.999 55.2808 126.436 55.7488 126.02C56.2255 125.604 56.8711 125.396 57.6858 125.396C58.5005 125.396 59.1288 125.608 59.5708 126.033C60.0128 126.449 60.2338 127.038 60.2338 127.801V130.284C60.2338 130.717 60.4418 130.934 60.8578 130.934H61.3128ZM57.3348 131.142C57.7161 131.142 58.0541 131.06 58.3488 130.895C58.6521 130.73 58.8861 130.505 59.0508 130.219V129.114L57.3088 129.374C56.5461 129.495 56.1648 129.799 56.1648 130.284C56.1648 130.553 56.2688 130.765 56.4768 130.921C56.6935 131.068 56.9795 131.142 57.3348 131.142ZM66.2279 125.552V126.618H63.4069V132H62.2369V125.552H66.2279ZM69.481 132.156C68.6576 132.156 67.999 131.918 67.505 131.441C67.011 130.964 66.764 130.332 66.764 129.543V128.022C66.764 127.225 67.011 126.588 67.505 126.111C67.999 125.634 68.6576 125.396 69.481 125.396C70.313 125.396 70.976 125.634 71.47 126.111C71.9726 126.588 72.224 127.225 72.224 128.022V129.543C72.224 130.332 71.9726 130.964 71.47 131.441C70.976 131.918 70.313 132.156 69.481 132.156ZM69.494 131.051C69.9706 131.051 70.3476 130.912 70.625 130.635C70.911 130.358 71.054 129.985 71.054 129.517V128.061C71.054 127.576 70.9153 127.194 70.638 126.917C70.3606 126.64 69.9793 126.501 69.494 126.501C69.0173 126.501 68.636 126.64 68.35 126.917C68.0726 127.194 67.934 127.576 67.934 128.061V129.517C67.934 129.994 68.0726 130.371 68.35 130.648C68.636 130.917 69.0173 131.051 69.494 131.051ZM76.2355 132.156C75.6895 132.156 75.2085 132.048 74.7925 131.831C74.3765 131.614 74.0558 131.311 73.8305 130.921C73.6051 130.522 73.4925 130.063 73.4925 129.543V128.009C73.4925 127.489 73.6051 127.034 73.8305 126.644C74.0558 126.245 74.3765 125.938 74.7925 125.721C75.2085 125.504 75.6895 125.396 76.2355 125.396C76.7468 125.396 77.2018 125.504 77.6005 125.721C78.0078 125.929 78.3241 126.219 78.5495 126.592C78.7748 126.965 78.8875 127.389 78.8875 127.866V128.009H77.7175V127.866C77.7175 127.467 77.5788 127.142 77.3015 126.891C77.0241 126.631 76.6688 126.501 76.2355 126.501C75.7501 126.501 75.3688 126.64 75.0915 126.917C74.8141 127.186 74.6755 127.558 74.6755 128.035V129.517C74.6755 129.994 74.8141 130.371 75.0915 130.648C75.3688 130.917 75.7501 131.051 76.2355 131.051C76.6688 131.051 77.0241 130.93 77.3015 130.687C77.5788 130.436 77.7175 130.115 77.7175 129.725V129.582H78.8875V129.725C78.8875 130.453 78.6448 131.042 78.1595 131.493C77.6741 131.935 77.0328 132.156 76.2355 132.156ZM85.9044 131.818V132H84.6304L82.6024 129.296H81.5104V132H80.3404V125.552H81.5104V128.256H82.5764L84.5264 125.552H85.8004V125.734L83.6424 128.763L85.9044 131.818ZM92.4231 132H91.2531V126.618H88.7701L88.7051 129.673C88.6878 130.47 88.5231 131.06 88.2111 131.441C87.9078 131.814 87.4398 132 86.8071 132H86.4561V130.934H86.6641C86.9848 130.934 87.2144 130.826 87.3531 130.609C87.5004 130.392 87.5828 130.041 87.6001 129.556L87.6911 125.552H92.4231V132ZM96.6362 132.156C95.8129 132.156 95.1542 131.918 94.6602 131.441C94.1662 130.964 93.9192 130.332 93.9192 129.543V128.022C93.9192 127.225 94.1662 126.588 94.6602 126.111C95.1542 125.634 95.8129 125.396 96.6362 125.396C97.4682 125.396 98.1312 125.634 98.6252 126.111C99.1279 126.588 99.3792 127.225 99.3792 128.022V129.543C99.3792 130.332 99.1279 130.964 98.6252 131.441C98.1312 131.918 97.4682 132.156 96.6362 132.156ZM96.6492 131.051C97.1259 131.051 97.5029 130.912 97.7802 130.635C98.0662 130.358 98.2092 129.985 98.2092 129.517V128.061C98.2092 127.576 98.0706 127.194 97.7932 126.917C97.5159 126.64 97.1346 126.501 96.6492 126.501C96.1726 126.501 95.7912 126.64 95.5052 126.917C95.2279 127.194 95.0892 127.576 95.0892 128.061V129.517C95.0892 129.994 95.2279 130.371 95.5052 130.648C95.7912 130.917 96.1726 131.051 96.6492 131.051ZM102.039 125.565V128.23H105.016V125.565H106.199V132H105.016V129.296H102.039V132H100.869V125.565H102.039ZM109.085 125.565V128.23H112.062V125.565H113.245V132H112.062V129.296H109.085V132H107.915V125.565H109.085ZM117.457 132.156C116.633 132.156 115.975 131.918 115.481 131.441C114.987 130.964 114.74 130.332 114.74 129.543V128.022C114.74 127.225 114.987 126.588 115.481 126.111C115.975 125.634 116.633 125.396 117.457 125.396C118.289 125.396 118.952 125.634 119.446 126.111C119.948 126.588 120.2 127.225 120.2 128.022V129.543C120.2 130.332 119.948 130.964 119.446 131.441C118.952 131.918 118.289 132.156 117.457 132.156ZM117.47 131.051C117.946 131.051 118.323 130.912 118.601 130.635C118.887 130.358 119.03 129.985 119.03 129.517V128.061C119.03 127.576 118.891 127.194 118.614 126.917C118.336 126.64 117.955 126.501 117.47 126.501C116.993 126.501 116.612 126.64 116.326 126.917C116.048 127.194 115.91 127.576 115.91 128.061V129.517C115.91 129.994 116.048 130.371 116.326 130.648C116.612 130.917 116.993 131.051 117.47 131.051ZM124.211 132.156C123.665 132.156 123.184 132.048 122.768 131.831C122.352 131.614 122.031 131.311 121.806 130.921C121.581 130.522 121.468 130.063 121.468 129.543V128.009C121.468 127.489 121.581 127.034 121.806 126.644C122.031 126.245 122.352 125.938 122.768 125.721C123.184 125.504 123.665 125.396 124.211 125.396C124.722 125.396 125.177 125.504 125.576 125.721C125.983 125.929 126.3 126.219 126.525 126.592C126.75 126.965 126.863 127.389 126.863 127.866V128.009H125.693V127.866C125.693 127.467 125.554 127.142 125.277 126.891C125 126.631 124.644 126.501 124.211 126.501C123.726 126.501 123.344 126.64 123.067 126.917C122.79 127.186 122.651 127.558 122.651 128.035V129.517C122.651 129.994 122.79 130.371 123.067 130.648C123.344 130.917 123.726 131.051 124.211 131.051C124.644 131.051 125 130.93 125.277 130.687C125.554 130.436 125.693 130.115 125.693 129.725V129.582H126.863V129.725C126.863 130.453 126.62 131.042 126.135 131.493C125.65 131.935 125.008 132.156 124.211 132.156ZM127.398 126.618V125.552H132.871V126.618H130.726V132H129.543V126.618H127.398ZM137.075 127.788C137.759 127.788 138.305 127.974 138.713 128.347C139.12 128.72 139.324 129.214 139.324 129.829V129.959C139.324 130.574 139.12 131.068 138.713 131.441C138.305 131.814 137.759 132 137.075 132H133.877V125.552H135.047V127.788H137.075ZM138.154 129.842C138.154 129.53 138.054 129.287 137.855 129.114C137.655 128.941 137.378 128.854 137.023 128.854H135.047V130.934H137.023C137.378 130.934 137.655 130.852 137.855 130.687C138.054 130.514 138.154 130.267 138.154 129.946V129.842Z" fill="#261E1E"/>
<g opacity="0.75">
<rect x="204" y="71" width="145" height="24" rx="4" fill="#FECE30"/>
<path d="M218.799 78.472V87H217.577V79.577H214.132V87H212.91V78.472H218.799ZM223.502 80.396C224.256 80.396 224.858 80.63 225.309 81.098C225.76 81.5573 225.985 82.1727 225.985 82.944V84.608C225.985 85.3793 225.76 85.999 225.309 86.467C224.858 86.9263 224.256 87.156 223.502 87.156C222.783 87.156 222.193 86.9393 221.734 86.506V89.21H220.564V80.552H221.617L221.669 81.098C222.137 80.63 222.748 80.396 223.502 80.396ZM224.802 82.996C224.802 82.5367 224.663 82.1727 224.386 81.904C224.117 81.6353 223.749 81.501 223.281 81.501C222.943 81.501 222.635 81.579 222.358 81.735C222.089 81.8823 221.881 82.0903 221.734 82.359V85.206C221.881 85.466 222.089 85.674 222.358 85.83C222.627 85.9773 222.934 86.051 223.281 86.051C223.749 86.051 224.117 85.9167 224.386 85.648C224.663 85.3793 224.802 85.0153 224.802 84.556V82.996ZM228.419 84.205V84.517C228.419 85.0023 228.558 85.3837 228.835 85.661C229.121 85.9297 229.511 86.064 230.005 86.064C230.421 86.064 230.768 85.96 231.045 85.752C231.331 85.544 231.479 85.2883 231.487 84.985H232.657C232.623 85.6263 232.363 86.1507 231.877 86.558C231.392 86.9567 230.768 87.156 230.005 87.156C229.173 87.156 228.506 86.922 228.003 86.454C227.501 85.9773 227.249 85.3447 227.249 84.556V83.009C227.249 82.489 227.362 82.034 227.587 81.644C227.813 81.2453 228.133 80.9377 228.549 80.721C228.965 80.5043 229.442 80.396 229.979 80.396C230.794 80.396 231.444 80.6343 231.929 81.111C232.415 81.5877 232.657 82.216 232.657 82.996V84.205H228.419ZM229.979 81.488C229.503 81.488 229.121 81.631 228.835 81.917C228.558 82.1943 228.419 82.5713 228.419 83.048V83.23H231.487V83.048C231.487 82.5713 231.349 82.1943 231.071 81.917C230.803 81.631 230.439 81.488 229.979 81.488ZM240.396 85.934V88.703H239.213V87H234.494V88.703H233.324V85.934H234.13C234.459 85.3187 234.632 84.5907 234.65 83.75L234.689 80.552H239.434V85.934H240.396ZM238.264 85.934V81.618H235.781L235.742 83.802C235.724 84.6167 235.573 85.3273 235.287 85.934H238.264ZM246.99 80.552V80.734L244.299 87.754C244.1 88.274 243.844 88.6467 243.532 88.872C243.229 89.0973 242.808 89.21 242.271 89.21H241.244V88.144H242.167C242.436 88.144 242.644 88.0963 242.791 88.001C242.947 87.9057 243.081 87.7063 243.194 87.403L243.311 87.078L240.776 80.734V80.552H241.972L243.922 85.557L245.794 80.552H246.99ZM253.505 80.552V87H252.322V81.618H249.384V87H248.214V80.552H253.505ZM258.16 80.396C258.914 80.396 259.517 80.63 259.967 81.098C260.418 81.5573 260.643 82.1727 260.643 82.944V84.608C260.643 85.3793 260.418 85.999 259.967 86.467C259.517 86.9263 258.914 87.156 258.16 87.156C257.441 87.156 256.852 86.9393 256.392 86.506V89.21H255.222V80.552H256.275L256.327 81.098C256.795 80.63 257.406 80.396 258.16 80.396ZM259.46 82.996C259.46 82.5367 259.322 82.1727 259.044 81.904C258.776 81.6353 258.407 81.501 257.939 81.501C257.601 81.501 257.294 81.579 257.016 81.735C256.748 81.8823 256.54 82.0903 256.392 82.359V85.206C256.54 85.466 256.748 85.674 257.016 85.83C257.285 85.9773 257.593 86.051 257.939 86.051C258.407 86.051 258.776 85.9167 259.044 85.648C259.322 85.3793 259.46 85.0153 259.46 84.556V82.996ZM263.078 84.205V84.517C263.078 85.0023 263.216 85.3837 263.494 85.661C263.78 85.9297 264.17 86.064 264.664 86.064C265.08 86.064 265.426 85.96 265.704 85.752C265.99 85.544 266.137 85.2883 266.146 84.985H267.316C267.281 85.6263 267.021 86.1507 266.536 86.558C266.05 86.9567 265.426 87.156 264.664 87.156C263.832 87.156 263.164 86.922 262.662 86.454C262.159 85.9773 261.908 85.3447 261.908 84.556V83.009C261.908 82.489 262.02 82.034 262.246 81.644C262.471 81.2453 262.792 80.9377 263.208 80.721C263.624 80.5043 264.1 80.396 264.638 80.396C265.452 80.396 266.102 80.6343 266.588 81.111C267.073 81.5877 267.316 82.216 267.316 82.996V84.205H263.078ZM264.638 81.488C264.161 81.488 263.78 81.631 263.494 81.917C263.216 82.1943 263.078 82.5713 263.078 83.048V83.23H266.146V83.048C266.146 82.5713 266.007 82.1943 265.73 81.917C265.461 81.631 265.097 81.488 264.638 81.488ZM275.054 85.934V88.703H273.871V87H269.152V88.703H267.982V85.934H268.788C269.117 85.3187 269.291 84.5907 269.308 83.75L269.347 80.552H274.092V85.934H275.054ZM272.922 85.934V81.618H270.439L270.4 83.802C270.383 84.6167 270.231 85.3273 269.945 85.934H272.922ZM277.301 80.552V85.141L280.343 80.552H281.422V87H280.278V82.411L277.249 87H276.17V80.552H277.301ZM282.107 81.618V80.552H287.58V81.618H285.435V87H284.252V81.618H282.107ZM289.331 84.205V84.517C289.331 85.0023 289.47 85.3837 289.747 85.661C290.033 85.9297 290.423 86.064 290.917 86.064C291.333 86.064 291.68 85.96 291.957 85.752C292.243 85.544 292.391 85.2883 292.399 84.985H293.569C293.535 85.6263 293.275 86.1507 292.789 86.558C292.304 86.9567 291.68 87.156 290.917 87.156C290.085 87.156 289.418 86.922 288.915 86.454C288.413 85.9773 288.161 85.3447 288.161 84.556V83.009C288.161 82.489 288.274 82.034 288.499 81.644C288.725 81.2453 289.045 80.9377 289.461 80.721C289.877 80.5043 290.354 80.396 290.891 80.396C291.706 80.396 292.356 80.6343 292.841 81.111C293.327 81.5877 293.569 82.216 293.569 82.996V84.205H289.331ZM290.891 81.488C290.415 81.488 290.033 81.631 289.747 81.917C289.47 82.1943 289.331 82.5713 289.331 83.048V83.23H292.399V83.048C292.399 82.5713 292.261 82.1943 291.983 81.917C291.715 81.631 291.351 81.488 290.891 81.488ZM300.249 87H299.079V81.618H296.596L296.531 84.673C296.514 85.4703 296.349 86.0597 296.037 86.441C295.734 86.8137 295.266 87 294.633 87H294.282V85.934H294.49C294.811 85.934 295.041 85.8257 295.179 85.609C295.327 85.3923 295.409 85.0413 295.426 84.556L295.517 80.552H300.249V87ZM305.164 82.788C305.849 82.788 306.395 82.9743 306.802 83.347C307.21 83.7197 307.413 84.2137 307.413 84.829V84.959C307.413 85.5743 307.21 86.0683 306.802 86.441C306.395 86.8137 305.849 87 305.164 87H301.966V80.552H303.136V82.788H305.164ZM306.243 84.842C306.243 84.53 306.144 84.2873 305.944 84.114C305.745 83.9407 305.468 83.854 305.112 83.854H303.136V85.934H305.112C305.468 85.934 305.745 85.8517 305.944 85.687C306.144 85.5137 306.243 85.2667 306.243 84.946V84.842ZM309.878 80.565V83.23H312.855V80.565H314.038V87H312.855V84.296H309.878V87H308.708V80.565H309.878ZM318.25 87.156C317.426 87.156 316.768 86.9177 316.274 86.441C315.78 85.9643 315.533 85.3317 315.533 84.543V83.022C315.533 82.2247 315.78 81.5877 316.274 81.111C316.768 80.6343 317.426 80.396 318.25 80.396C319.082 80.396 319.745 80.6343 320.239 81.111C320.741 81.5877 320.993 82.2247 320.993 83.022V84.543C320.993 85.3317 320.741 85.9643 320.239 86.441C319.745 86.9177 319.082 87.156 318.25 87.156ZM318.263 86.051C318.739 86.051 319.116 85.9123 319.394 85.635C319.68 85.3577 319.823 84.985 319.823 84.517V83.061C319.823 82.5757 319.684 82.1943 319.407 81.917C319.129 81.6397 318.748 81.501 318.263 81.501C317.786 81.501 317.405 81.6397 317.119 81.917C316.841 82.1943 316.703 82.5757 316.703 83.061V84.517C316.703 84.9937 316.841 85.3707 317.119 85.648C317.405 85.9167 317.786 86.051 318.263 86.051ZM325.004 87.156C324.458 87.156 323.977 87.0477 323.561 86.831C323.145 86.6143 322.824 86.311 322.599 85.921C322.374 85.5223 322.261 85.063 322.261 84.543V83.009C322.261 82.489 322.374 82.034 322.599 81.644C322.824 81.2453 323.145 80.9377 323.561 80.721C323.977 80.5043 324.458 80.396 325.004 80.396C325.515 80.396 325.97 80.5043 326.369 80.721C326.776 80.929 327.093 81.2193 327.318 81.592C327.543 81.9647 327.656 82.3893 327.656 82.866V83.009H326.486V82.866C326.486 82.4673 326.347 82.1423 326.07 81.891C325.793 81.631 325.437 81.501 325.004 81.501C324.519 81.501 324.137 81.6397 323.86 81.917C323.583 82.1857 323.444 82.5583 323.444 83.035V84.517C323.444 84.9937 323.583 85.3707 323.86 85.648C324.137 85.9167 324.519 86.051 325.004 86.051C325.437 86.051 325.793 85.9297 326.07 85.687C326.347 85.4357 326.486 85.115 326.486 84.725V84.582H327.656V84.725C327.656 85.453 327.413 86.0423 326.928 86.493C326.443 86.935 325.801 87.156 325.004 87.156ZM328.191 81.618V80.552H333.664V81.618H331.519V87H330.336V81.618H328.191ZM337.868 82.788C338.552 82.788 339.098 82.9743 339.506 83.347C339.913 83.7197 340.117 84.2137 340.117 84.829V84.959C340.117 85.5743 339.913 86.0683 339.506 86.441C339.098 86.8137 338.552 87 337.868 87H334.67V80.552H335.84V82.788H337.868ZM338.947 84.842C338.947 84.53 338.847 84.2873 338.648 84.114C338.448 83.9407 338.171 83.854 337.816 83.854H335.84V85.934H337.816C338.171 85.934 338.448 85.8517 338.648 85.687C338.847 85.5137 338.947 85.2667 338.947 84.946V84.842Z" fill="#261E1E"/>
</g>
<g opacity="0.7">
<rect x="341" y="30" width="98" height="24" rx="4" fill="#FECE30"/>
<path d="M351.132 37.472V41.19H354.616V37.472H355.838V46H354.616V42.295H351.132V46H349.91V37.472H351.132ZM363.673 44.934V46H362.984C362.672 46 362.399 45.948 362.165 45.844C361.94 45.7313 361.766 45.571 361.645 45.363C361.168 45.8917 360.492 46.156 359.617 46.156C358.924 46.156 358.373 45.9913 357.966 45.662C357.559 45.3327 357.355 44.8777 357.355 44.297C357.355 43.7683 357.528 43.3523 357.875 43.049C358.222 42.7457 358.755 42.5463 359.474 42.451L361.411 42.191V41.775C361.411 41.359 361.29 41.0427 361.047 40.826C360.813 40.6093 360.466 40.501 360.007 40.501C359.556 40.501 359.205 40.6093 358.954 40.826C358.711 41.034 358.59 41.3287 358.59 41.71V41.801H357.407V41.71C357.407 40.9993 357.641 40.436 358.109 40.02C358.586 39.604 359.231 39.396 360.046 39.396C360.861 39.396 361.489 39.6083 361.931 40.033C362.373 40.449 362.594 41.0383 362.594 41.801V44.284C362.594 44.7173 362.802 44.934 363.218 44.934H363.673ZM359.695 45.142C360.076 45.142 360.414 45.0597 360.709 44.895C361.012 44.7303 361.246 44.505 361.411 44.219V43.114L359.669 43.374C358.906 43.4953 358.525 43.7987 358.525 44.284C358.525 44.5527 358.629 44.765 358.837 44.921C359.054 45.0683 359.34 45.142 359.695 45.142ZM369.017 42.711C369.364 42.841 369.628 43.0317 369.81 43.283C370.001 43.5343 370.096 43.829 370.096 44.167V44.349C370.096 44.869 369.906 45.2763 369.524 45.571C369.143 45.857 368.58 46 367.834 46H364.597V39.552H367.678C368.432 39.552 368.996 39.695 369.368 39.981C369.741 40.2583 369.927 40.6613 369.927 41.19V41.359C369.927 41.6797 369.849 41.957 369.693 42.191C369.537 42.4163 369.312 42.5897 369.017 42.711ZM365.767 40.501V42.282H367.756C368.068 42.282 368.311 42.2083 368.484 42.061C368.666 41.905 368.757 41.7013 368.757 41.45V41.307C368.757 41.0557 368.666 40.8607 368.484 40.722C368.311 40.5747 368.064 40.501 367.743 40.501H365.767ZM368.926 44.05C368.926 43.7813 368.835 43.5777 368.653 43.439C368.471 43.2917 368.216 43.218 367.886 43.218H365.767V45.051H367.899C368.211 45.051 368.458 44.9773 368.64 44.83C368.831 44.674 368.926 44.466 368.926 44.206V44.05ZM376.603 46H375.42V43.595H374.341L372.391 46H371.078V45.844L372.937 43.556C372.365 43.4693 371.914 43.2657 371.585 42.945C371.264 42.6157 371.104 42.204 371.104 41.71V41.528C371.104 40.9213 371.32 40.4403 371.754 40.085C372.187 39.7297 372.763 39.552 373.483 39.552H376.603V46ZM375.42 42.594V40.605H373.496C373.123 40.605 372.828 40.6873 372.612 40.852C372.395 41.0167 372.287 41.2463 372.287 41.541V41.697C372.287 41.983 372.391 42.204 372.599 42.36C372.815 42.516 373.114 42.594 373.496 42.594H375.42ZM382.468 42.737C382.797 42.8583 383.049 43.0403 383.222 43.283C383.395 43.517 383.482 43.803 383.482 44.141V44.323C383.482 44.9037 383.239 45.3543 382.754 45.675C382.277 45.9957 381.61 46.156 380.752 46.156C379.894 46.156 379.218 45.961 378.724 45.571C378.239 45.181 377.996 44.6523 377.996 43.985V43.725H379.166V43.92C379.166 44.31 379.305 44.609 379.582 44.817C379.859 45.0163 380.262 45.116 380.791 45.116C381.294 45.116 381.671 45.038 381.922 44.882C382.182 44.726 382.312 44.4963 382.312 44.193V44.076C382.312 43.8073 382.221 43.6037 382.039 43.465C381.857 43.3177 381.601 43.244 381.272 43.244H379.933V42.23H381.207C381.545 42.23 381.805 42.1607 381.987 42.022C382.169 41.8833 382.26 41.6883 382.26 41.437V41.32C382.26 41.034 382.134 40.8173 381.883 40.67C381.64 40.5227 381.276 40.449 380.791 40.449C380.262 40.449 379.859 40.5573 379.582 40.774C379.305 40.982 379.166 41.2853 379.166 41.684V41.853H377.996V41.658C377.996 41.216 378.109 40.826 378.334 40.488C378.568 40.1413 378.893 39.877 379.309 39.695C379.725 39.5043 380.206 39.409 380.752 39.409C381.575 39.409 382.225 39.5693 382.702 39.89C383.179 40.2107 383.417 40.6483 383.417 41.203V41.385C383.417 42.0177 383.101 42.4683 382.468 42.737ZM389.689 39.552V46H388.506V43.79C387.917 43.9113 387.375 43.972 386.881 43.972C386.136 43.972 385.546 43.79 385.113 43.426C384.68 43.0533 384.463 42.5507 384.463 41.918V39.552H385.633V41.788C385.633 42.152 385.754 42.4293 385.997 42.62C386.248 42.8107 386.604 42.906 387.063 42.906C387.505 42.906 387.986 42.8583 388.506 42.763V39.552H389.689ZM392.541 39.552V44.141L395.583 39.552H396.662V46H395.518V41.411L392.489 46H391.41V39.552H392.541ZM402.799 42.711C403.146 42.841 403.41 43.0317 403.592 43.283C403.783 43.5343 403.878 43.829 403.878 44.167V44.349C403.878 44.869 403.688 45.2763 403.306 45.571C402.925 45.857 402.362 46 401.616 46H398.379V39.552H401.46C402.214 39.552 402.778 39.695 403.15 39.981C403.523 40.2583 403.709 40.6613 403.709 41.19V41.359C403.709 41.6797 403.631 41.957 403.475 42.191C403.319 42.4163 403.094 42.5897 402.799 42.711ZM399.549 40.501V42.282H401.538C401.85 42.282 402.093 42.2083 402.266 42.061C402.448 41.905 402.539 41.7013 402.539 41.45V41.307C402.539 41.0557 402.448 40.8607 402.266 40.722C402.093 40.5747 401.846 40.501 401.525 40.501H399.549ZM402.708 44.05C402.708 43.7813 402.617 43.5777 402.435 43.439C402.253 43.2917 401.998 43.218 401.668 43.218H399.549V45.051H401.681C401.993 45.051 402.24 44.9773 402.422 44.83C402.613 44.674 402.708 44.466 402.708 44.206V44.05ZM407.794 46.156C406.971 46.156 406.312 45.9177 405.818 45.441C405.324 44.9643 405.077 44.3317 405.077 43.543V42.022C405.077 41.2247 405.324 40.5877 405.818 40.111C406.312 39.6343 406.971 39.396 407.794 39.396C408.626 39.396 409.289 39.6343 409.783 40.111C410.286 40.5877 410.537 41.2247 410.537 42.022V43.543C410.537 44.3317 410.286 44.9643 409.783 45.441C409.289 45.9177 408.626 46.156 407.794 46.156ZM407.807 45.051C408.284 45.051 408.661 44.9123 408.938 44.635C409.224 44.3577 409.367 43.985 409.367 43.517V42.061C409.367 41.5757 409.229 41.1943 408.951 40.917C408.674 40.6397 408.293 40.501 407.807 40.501C407.331 40.501 406.949 40.6397 406.663 40.917C406.386 41.1943 406.247 41.5757 406.247 42.061V43.517C406.247 43.9937 406.386 44.3707 406.663 44.648C406.949 44.9167 407.331 45.051 407.807 45.051ZM414.549 46.156C414.003 46.156 413.522 46.0477 413.106 45.831C412.69 45.6143 412.369 45.311 412.144 44.921C411.919 44.5223 411.806 44.063 411.806 43.543V42.009C411.806 41.489 411.919 41.034 412.144 40.644C412.369 40.2453 412.69 39.9377 413.106 39.721C413.522 39.5043 414.003 39.396 414.549 39.396C415.06 39.396 415.515 39.5043 415.914 39.721C416.321 39.929 416.638 40.2193 416.863 40.592C417.088 40.9647 417.201 41.3893 417.201 41.866V42.009H416.031V41.866C416.031 41.4673 415.892 41.1423 415.615 40.891C415.338 40.631 414.982 40.501 414.549 40.501C414.064 40.501 413.682 40.6397 413.405 40.917C413.128 41.1857 412.989 41.5583 412.989 42.035V43.517C412.989 43.9937 413.128 44.3707 413.405 44.648C413.682 44.9167 414.064 45.051 414.549 45.051C414.982 45.051 415.338 44.9297 415.615 44.687C415.892 44.4357 416.031 44.115 416.031 43.725V43.582H417.201V43.725C417.201 44.453 416.958 45.0423 416.473 45.493C415.988 45.935 415.346 46.156 414.549 46.156ZM417.736 40.618V39.552H423.209V40.618H421.064V46H419.881V40.618H417.736ZM427.412 41.788C428.097 41.788 428.643 41.9743 429.05 42.347C429.458 42.7197 429.661 43.2137 429.661 43.829V43.959C429.661 44.5743 429.458 45.0683 429.05 45.441C428.643 45.8137 428.097 46 427.412 46H424.214V39.552H425.384V41.788H427.412ZM428.491 43.842C428.491 43.53 428.392 43.2873 428.192 43.114C427.993 42.9407 427.716 42.854 427.36 42.854H425.384V44.934H427.36C427.716 44.934 427.993 44.8517 428.192 44.687C428.392 44.5137 428.491 44.2667 428.491 43.946V43.842Z" fill="#261E1E"/>
</g>
<defs>
<linearGradient id="paint0_linear_2816_83303" x1="448.531" y1="36.4014" x2="-0.937705" y2="36.4014" gradientUnits="userSpaceOnUse">
<stop stop-color="#FECE30" stop-opacity="0"/>
<stop offset="0.302083" stop-color="#FECE30"/>
</linearGradient>
</defs>
</svg>
