<svg width="458" height="172" viewBox="0 0 458 172" fill="none" xmlns="http://www.w3.org/2000/svg">
<line opacity="0.1" x1="2" y1="111.847" x2="450" y2="111.847" stroke="#966F7B"/>
<rect opacity="0.1" x="2" width="70.9703" height="23.8613" rx="4" fill="#B6D1C5"/>
<rect opacity="0.1" x="2" y="27.8381" width="70.9703" height="23.8613" rx="4" fill="#B6D1C5"/>
<rect opacity="0.1" x="2" y="55.6763" width="70.9703" height="23.8613" rx="4" fill="#B6D1C5"/>
<rect opacity="0.1" x="2" y="83.5144" width="70.9703" height="23.8613" rx="4" fill="#B6D1C5"/>
<rect opacity="0.1" x="2" y="116.324" width="70.9703" height="23.8613" rx="4" fill="#B6D1C5"/>
<rect opacity="0.1" x="2" y="144.162" width="70.9703" height="23.8613" rx="4" fill="#B6D1C5"/>
<rect opacity="0.1" x="77.4059" width="70.9703" height="23.8613" rx="4" fill="#B6D1C5"/>
<rect opacity="0.1" x="77.406" y="27.8381" width="70.9703" height="23.8613" rx="4" fill="#B6D1C5"/>
<rect opacity="0.1" x="77.406" y="55.6763" width="70.9703" height="23.8613" rx="4" fill="#B6D1C5"/>
<rect opacity="0.1" x="77.406" y="83.5144" width="70.9703" height="23.8613" rx="4" fill="#B6D1C5"/>
<rect opacity="0.1" x="77.406" y="116.324" width="70.9703" height="23.8613" rx="4" fill="#B6D1C5"/>
<rect opacity="0.1" x="77.406" y="144.162" width="70.9703" height="23.8613" rx="4" fill="#B6D1C5"/>
<rect opacity="0.1" x="152.812" width="70.9703" height="23.8613" rx="4" fill="#B6D1C5"/>
<rect opacity="0.1" x="152.812" y="27.8381" width="70.9703" height="23.8613" rx="4" fill="#B6D1C5"/>
<rect opacity="0.1" x="152.812" y="55.6763" width="70.9703" height="23.8613" rx="4" fill="#B6D1C5"/>
<rect opacity="0.1" x="152.812" y="83.5144" width="70.9703" height="23.8613" rx="4" fill="#B6D1C5"/>
<rect opacity="0.1" x="152.812" y="116.324" width="70.9703" height="23.8613" rx="4" fill="#B6D1C5"/>
<rect opacity="0.1" x="152.812" y="144.162" width="70.9703" height="23.8613" rx="4" fill="#B6D1C5"/>
<rect opacity="0.1" x="228.218" width="70.9703" height="23.8613" rx="4" fill="#B6D1C5"/>
<rect opacity="0.1" x="228.218" y="27.8381" width="70.9703" height="23.8613" rx="4" fill="#B6D1C5"/>
<rect opacity="0.1" x="228.218" y="55.6763" width="70.9703" height="23.8613" rx="4" fill="#B6D1C5"/>
<rect opacity="0.1" x="228.218" y="83.5144" width="70.9703" height="23.8613" rx="4" fill="#B6D1C5"/>
<rect opacity="0.1" x="228.218" y="116.324" width="70.9703" height="23.8613" rx="4" fill="#B6D1C5"/>
<rect opacity="0.1" x="228.218" y="144.162" width="70.9703" height="23.8613" rx="4" fill="#B6D1C5"/>
<rect opacity="0.1" x="303.624" width="70.9703" height="23.8613" rx="4" fill="#B6D1C5"/>
<rect opacity="0.1" x="303.624" y="27.8381" width="70.9703" height="23.8613" rx="4" fill="#B6D1C5"/>
<rect opacity="0.1" x="303.624" y="55.6763" width="70.9703" height="23.8613" rx="4" fill="#B6D1C5"/>
<rect opacity="0.1" x="303.624" y="83.5144" width="70.9703" height="23.8613" rx="4" fill="#B6D1C5"/>
<rect opacity="0.1" x="303.624" y="116.324" width="70.9703" height="23.8613" rx="4" fill="#B6D1C5"/>
<rect opacity="0.1" x="303.624" y="144.162" width="70.9703" height="23.8613" rx="4" fill="#B6D1C5"/>
<rect opacity="0.1" x="379.03" width="70.9703" height="23.8613" rx="4" fill="#B6D1C5"/>
<rect opacity="0.1" x="379.03" y="27.8381" width="70.9703" height="23.8613" rx="4" fill="#B6D1C5"/>
<rect opacity="0.1" x="379.03" y="55.6763" width="70.9703" height="23.8613" rx="4" fill="#B6D1C5"/>
<rect opacity="0.1" x="379.03" y="83.5144" width="70.9703" height="23.8613" rx="4" fill="#B6D1C5"/>
<rect opacity="0.1" x="379.03" y="116.324" width="70.9703" height="23.8613" rx="4" fill="#B6D1C5"/>
<rect opacity="0.1" x="379.03" y="144.162" width="70.9703" height="23.8613" rx="4" fill="#B6D1C5"/>
<path d="M2 111L69.321 16.9591C72.3119 12.781 77.1274 10.2936 82.2656 10.2726L146.462 10.0104C148.14 10.0035 149.809 10.2608 151.408 10.7729L225.43 34.4848L299.172 60.5063C300.882 61.1098 302.682 61.4182 304.496 61.4182H377.292L450 62.0303" stroke="url(#paint0_linear_2815_83015)" stroke-width="4" stroke-linecap="round" stroke-linejoin="round"/>
<rect x="31" y="104" width="68" height="24" rx="4" fill="#B6D1C5"/>
<path d="M45.877 120H44.655V112.577H41.756L41.678 117.309C41.6693 118.202 41.4787 118.873 41.106 119.324C40.7333 119.775 40.1917 120 39.481 120H39.078V118.895H39.299C39.6977 118.895 39.9923 118.761 40.183 118.492C40.3737 118.215 40.4733 117.786 40.482 117.205L40.573 111.472H45.877V120ZM48.5892 117.205V117.517C48.5892 118.002 48.7279 118.384 49.0052 118.661C49.2912 118.93 49.6812 119.064 50.1752 119.064C50.5912 119.064 50.9379 118.96 51.2152 118.752C51.5012 118.544 51.6486 118.288 51.6572 117.985H52.8272C52.7926 118.626 52.5326 119.151 52.0472 119.558C51.5619 119.957 50.9379 120.156 50.1752 120.156C49.3432 120.156 48.6759 119.922 48.1732 119.454C47.6706 118.977 47.4192 118.345 47.4192 117.556V116.009C47.4192 115.489 47.5319 115.034 47.7572 114.644C47.9826 114.245 48.3032 113.938 48.7192 113.721C49.1352 113.504 49.6119 113.396 50.1492 113.396C50.9639 113.396 51.6139 113.634 52.0992 114.111C52.5846 114.588 52.8272 115.216 52.8272 115.996V117.205H48.5892ZM50.1492 114.488C49.6726 114.488 49.2912 114.631 49.0052 114.917C48.7279 115.194 48.5892 115.571 48.5892 116.048V116.23H51.6572V116.048C51.6572 115.571 51.5186 115.194 51.2412 114.917C50.9726 114.631 50.6086 114.488 50.1492 114.488ZM58.309 113.552V114.618H55.488V120H54.318V113.552H58.309ZM64.8712 119.818V120H63.5972L61.5692 117.296H60.4772V120H59.3072V113.552H60.4772V116.256H61.5432L63.4932 113.552H64.7672V113.734L62.6092 116.763L64.8712 119.818ZM68.1763 120.156C67.3529 120.156 66.6943 119.918 66.2003 119.441C65.7063 118.964 65.4593 118.332 65.4593 117.543V116.022C65.4593 115.225 65.7063 114.588 66.2003 114.111C66.6943 113.634 67.3529 113.396 68.1763 113.396C69.0083 113.396 69.6713 113.634 70.1653 114.111C70.6679 114.588 70.9193 115.225 70.9193 116.022V117.543C70.9193 118.332 70.6679 118.964 70.1653 119.441C69.6713 119.918 69.0083 120.156 68.1763 120.156ZM68.1893 119.051C68.6659 119.051 69.0429 118.912 69.3203 118.635C69.6063 118.358 69.7493 117.985 69.7493 117.517V116.061C69.7493 115.576 69.6106 115.194 69.3333 114.917C69.0559 114.64 68.6746 114.501 68.1893 114.501C67.7126 114.501 67.3313 114.64 67.0453 114.917C66.7679 115.194 66.6293 115.576 66.6293 116.061V117.517C66.6293 117.994 66.7679 118.371 67.0453 118.648C67.3313 118.917 67.7126 119.051 68.1893 119.051ZM74.9308 120.156C74.3848 120.156 73.9038 120.048 73.4878 119.831C73.0718 119.614 72.7511 119.311 72.5258 118.921C72.3004 118.522 72.1878 118.063 72.1878 117.543V116.009C72.1878 115.489 72.3004 115.034 72.5258 114.644C72.7511 114.245 73.0718 113.938 73.4878 113.721C73.9038 113.504 74.3848 113.396 74.9308 113.396C75.4421 113.396 75.8971 113.504 76.2958 113.721C76.7031 113.929 77.0194 114.219 77.2448 114.592C77.4701 114.965 77.5828 115.389 77.5828 115.866V116.009H76.4128V115.866C76.4128 115.467 76.2741 115.142 75.9968 114.891C75.7194 114.631 75.3641 114.501 74.9308 114.501C74.4454 114.501 74.0641 114.64 73.7868 114.917C73.5094 115.186 73.3708 115.558 73.3708 116.035V117.517C73.3708 117.994 73.5094 118.371 73.7868 118.648C74.0641 118.917 74.4454 119.051 74.9308 119.051C75.3641 119.051 75.7194 118.93 75.9968 118.687C76.2741 118.436 76.4128 118.115 76.4128 117.725V117.582H77.5828V117.725C77.5828 118.453 77.3401 119.042 76.8548 119.493C76.3694 119.935 75.7281 120.156 74.9308 120.156ZM78.1176 114.618V113.552H83.5906V114.618H81.4456V120H80.2626V114.618H78.1176ZM87.7943 115.788C88.4789 115.788 89.0249 115.974 89.4323 116.347C89.8396 116.72 90.0433 117.214 90.0433 117.829V117.959C90.0433 118.574 89.8396 119.068 89.4323 119.441C89.0249 119.814 88.4789 120 87.7943 120H84.5963V113.552H85.7663V115.788H87.7943ZM88.8733 117.842C88.8733 117.53 88.7736 117.287 88.5743 117.114C88.3749 116.941 88.0976 116.854 87.7423 116.854H85.7663V118.934H87.7423C88.0976 118.934 88.3749 118.852 88.5743 118.687C88.7736 118.514 88.8733 118.267 88.8733 117.946V117.842Z" fill="#261E1E"/>
<g opacity="0.75">
<rect x="174" y="62" width="90" height="24" rx="4" fill="#B6D1C5"/>
<path d="M186.303 69.472C187.126 69.472 187.776 69.6887 188.253 70.122C188.73 70.5467 188.968 71.1317 188.968 71.877V72.072C188.968 72.8173 188.73 73.4067 188.253 73.84C187.776 74.2647 187.126 74.477 186.303 74.477H184.132V78H182.91V69.472H186.303ZM186.277 73.385C186.762 73.385 187.131 73.2723 187.382 73.047C187.633 72.8217 187.759 72.4967 187.759 72.072V71.877C187.759 71.461 187.629 71.1403 187.369 70.915C187.118 70.6897 186.754 70.577 186.277 70.577H184.132V73.385H186.277ZM196.191 76.934V78H195.502C195.19 78 194.917 77.948 194.683 77.844C194.457 77.7313 194.284 77.571 194.163 77.363C193.686 77.8917 193.01 78.156 192.135 78.156C191.441 78.156 190.891 77.9913 190.484 77.662C190.076 77.3327 189.873 76.8777 189.873 76.297C189.873 75.7683 190.046 75.3523 190.393 75.049C190.739 74.7457 191.272 74.5463 191.992 74.451L193.929 74.191V73.775C193.929 73.359 193.807 73.0427 193.565 72.826C193.331 72.6093 192.984 72.501 192.525 72.501C192.074 72.501 191.723 72.6093 191.472 72.826C191.229 73.034 191.108 73.3287 191.108 73.71V73.801H189.925V73.71C189.925 72.9993 190.159 72.436 190.627 72.02C191.103 71.604 191.749 71.396 192.564 71.396C193.378 71.396 194.007 71.6083 194.449 72.033C194.891 72.449 195.112 73.0383 195.112 73.801V76.284C195.112 76.7173 195.32 76.934 195.736 76.934H196.191ZM192.213 77.142C192.594 77.142 192.932 77.0597 193.227 76.895C193.53 76.7303 193.764 76.505 193.929 76.219V75.114L192.187 75.374C191.424 75.4953 191.043 75.7987 191.043 76.284C191.043 76.5527 191.147 76.765 191.355 76.921C191.571 77.0683 191.857 77.142 192.213 77.142ZM201.535 74.711C201.882 74.841 202.146 75.0317 202.328 75.283C202.519 75.5343 202.614 75.829 202.614 76.167V76.349C202.614 76.869 202.423 77.2763 202.042 77.571C201.661 77.857 201.097 78 200.352 78H197.115V71.552H200.196C200.95 71.552 201.513 71.695 201.886 71.981C202.259 72.2583 202.445 72.6613 202.445 73.19V73.359C202.445 73.6797 202.367 73.957 202.211 74.191C202.055 74.4163 201.83 74.5897 201.535 74.711ZM198.285 72.501V74.282H200.274C200.586 74.282 200.829 74.2083 201.002 74.061C201.184 73.905 201.275 73.7013 201.275 73.45V73.307C201.275 73.0557 201.184 72.8607 201.002 72.722C200.829 72.5747 200.582 72.501 200.261 72.501H198.285ZM201.444 76.05C201.444 75.7813 201.353 75.5777 201.171 75.439C200.989 75.2917 200.733 75.218 200.404 75.218H198.285V77.051H200.417C200.729 77.051 200.976 76.9773 201.158 76.83C201.349 76.674 201.444 76.466 201.444 76.206V76.05ZM205.204 71.565V74.23H208.181V71.565H209.364V78H208.181V75.296H205.204V78H204.034V71.565H205.204ZM213.576 78.156C212.752 78.156 212.094 77.9177 211.6 77.441C211.106 76.9643 210.859 76.3317 210.859 75.543V74.022C210.859 73.2247 211.106 72.5877 211.6 72.111C212.094 71.6343 212.752 71.396 213.576 71.396C214.408 71.396 215.071 71.6343 215.565 72.111C216.067 72.5877 216.319 73.2247 216.319 74.022V75.543C216.319 76.3317 216.067 76.9643 215.565 77.441C215.071 77.9177 214.408 78.156 213.576 78.156ZM213.589 77.051C214.065 77.051 214.442 76.9123 214.72 76.635C215.006 76.3577 215.149 75.985 215.149 75.517V74.061C215.149 73.5757 215.01 73.1943 214.733 72.917C214.455 72.6397 214.074 72.501 213.589 72.501C213.112 72.501 212.731 72.6397 212.445 72.917C212.167 73.1943 212.029 73.5757 212.029 74.061V75.517C212.029 75.9937 212.167 76.3707 212.445 76.648C212.731 76.9167 213.112 77.051 213.589 77.051ZM224.056 76.934V79.703H222.873V78H218.154V79.703H216.984V76.934H217.79C218.119 76.3187 218.292 75.5907 218.31 74.75L218.349 71.552H223.094V76.934H224.056ZM221.924 76.934V72.618H219.441L219.402 74.802C219.384 75.6167 219.233 76.3273 218.947 76.934H221.924ZM230.65 71.552V71.734L227.959 78.754C227.76 79.274 227.504 79.6467 227.192 79.872C226.889 80.0973 226.469 80.21 225.931 80.21H224.904V79.144H225.827C226.096 79.144 226.304 79.0963 226.451 79.001C226.607 78.9057 226.742 78.7063 226.854 78.403L226.971 78.078L224.436 71.734V71.552H225.632L227.582 76.557L229.454 71.552H230.65ZM233.045 71.552V76.934H235.684V71.552H236.867V76.934H239.48V71.552H240.663V78H231.875V71.552H233.045ZM243.505 71.552V76.141L246.547 71.552H247.626V78H246.482V73.411L243.453 78H242.374V71.552H243.505ZM250.292 75.205V75.517C250.292 76.0023 250.431 76.3837 250.708 76.661C250.994 76.9297 251.384 77.064 251.878 77.064C252.294 77.064 252.641 76.96 252.918 76.752C253.204 76.544 253.352 76.2883 253.36 75.985H254.53C254.496 76.6263 254.236 77.1507 253.75 77.558C253.265 77.9567 252.641 78.156 251.878 78.156C251.046 78.156 250.379 77.922 249.876 77.454C249.374 76.9773 249.122 76.3447 249.122 75.556V74.009C249.122 73.489 249.235 73.034 249.46 72.644C249.686 72.2453 250.006 71.9377 250.422 71.721C250.838 71.5043 251.315 71.396 251.852 71.396C252.667 71.396 253.317 71.6343 253.802 72.111C254.288 72.5877 254.53 73.216 254.53 73.996V75.205H250.292ZM251.852 72.488C251.376 72.488 250.994 72.631 250.708 72.917C250.431 73.1943 250.292 73.5713 250.292 74.048V74.23H253.36V74.048C253.36 73.5713 253.222 73.1943 252.944 72.917C252.676 72.631 252.312 72.488 251.852 72.488Z" fill="#261E1E"/>
</g>
<g opacity="0.5">
<rect x="329" y="83" width="62" height="24" rx="4" fill="#B6D1C5"/>
<path d="M343.799 90.472V99H342.577V91.577H339.132V99H337.91V90.472H343.799ZM351.284 92.552V92.734L348.593 99.754C348.394 100.274 348.138 100.647 347.826 100.872C347.523 101.097 347.102 101.21 346.565 101.21H345.538V100.144H346.461C346.73 100.144 346.938 100.096 347.085 100.001C347.241 99.9057 347.375 99.7063 347.488 99.403L347.605 99.078L345.07 92.734V92.552H346.266L348.216 97.557L350.088 92.552H351.284ZM354.776 99.156C354.23 99.156 353.749 99.0477 353.333 98.831C352.917 98.6143 352.597 98.311 352.371 97.921C352.146 97.5223 352.033 97.063 352.033 96.543V95.009C352.033 94.489 352.146 94.034 352.371 93.644C352.597 93.2453 352.917 92.9377 353.333 92.721C353.749 92.5043 354.23 92.396 354.776 92.396C355.288 92.396 355.743 92.5043 356.141 92.721C356.549 92.929 356.865 93.2193 357.09 93.592C357.316 93.9647 357.428 94.3893 357.428 94.866V95.009H356.258V94.866C356.258 94.4673 356.12 94.1423 355.842 93.891C355.565 93.631 355.21 93.501 354.776 93.501C354.291 93.501 353.91 93.6397 353.632 93.917C353.355 94.1857 353.216 94.5583 353.216 95.035V96.517C353.216 96.9937 353.355 97.3707 353.632 97.648C353.91 97.9167 354.291 98.051 354.776 98.051C355.21 98.051 355.565 97.9297 355.842 97.687C356.12 97.4357 356.258 97.115 356.258 96.725V96.582H357.428V96.725C357.428 97.453 357.186 98.0423 356.7 98.493C356.215 98.935 355.574 99.156 354.776 99.156ZM357.963 93.618V92.552H363.436V93.618H361.291V99H360.108V93.618H357.963ZM366.735 99.156C365.912 99.156 365.253 98.9177 364.759 98.441C364.265 97.9643 364.018 97.3317 364.018 96.543V95.022C364.018 94.2247 364.265 93.5877 364.759 93.111C365.253 92.6343 365.912 92.396 366.735 92.396C367.567 92.396 368.23 92.6343 368.724 93.111C369.227 93.5877 369.478 94.2247 369.478 95.022V96.543C369.478 97.3317 369.227 97.9643 368.724 98.441C368.23 98.9177 367.567 99.156 366.735 99.156ZM366.748 98.051C367.225 98.051 367.602 97.9123 367.879 97.635C368.165 97.3577 368.308 96.985 368.308 96.517V95.061C368.308 94.5757 368.169 94.1943 367.892 93.917C367.615 93.6397 367.233 93.501 366.748 93.501C366.271 93.501 365.89 93.6397 365.604 93.917C365.327 94.1943 365.188 94.5757 365.188 95.061V96.517C365.188 96.9937 365.327 97.3707 365.604 97.648C365.89 97.9167 366.271 98.051 366.748 98.051ZM370.049 93.618V92.552H375.522V93.618H373.377V99H372.194V93.618H370.049ZM382.396 97.934V99H381.707C381.395 99 381.122 98.948 380.888 98.844C380.662 98.7313 380.489 98.571 380.368 98.363C379.891 98.8917 379.215 99.156 378.34 99.156C377.646 99.156 377.096 98.9913 376.689 98.662C376.281 98.3327 376.078 97.8777 376.078 97.297C376.078 96.7683 376.251 96.3523 376.598 96.049C376.944 95.7457 377.477 95.5463 378.197 95.451L380.134 95.191V94.775C380.134 94.359 380.012 94.0427 379.77 93.826C379.536 93.6093 379.189 93.501 378.73 93.501C378.279 93.501 377.928 93.6093 377.677 93.826C377.434 94.034 377.313 94.3287 377.313 94.71V94.801H376.13V94.71C376.13 93.9993 376.364 93.436 376.832 93.02C377.308 92.604 377.954 92.396 378.769 92.396C379.583 92.396 380.212 92.6083 380.654 93.033C381.096 93.449 381.317 94.0383 381.317 94.801V97.284C381.317 97.7173 381.525 97.934 381.941 97.934H382.396ZM378.418 98.142C378.799 98.142 379.137 98.0597 379.432 97.895C379.735 97.7303 379.969 97.505 380.134 97.219V96.114L378.392 96.374C377.629 96.4953 377.248 96.7987 377.248 97.284C377.248 97.5527 377.352 97.765 377.56 97.921C377.776 98.0683 378.062 98.142 378.418 98.142Z" fill="#261E1E"/>
</g>
<defs>
<linearGradient id="paint0_linear_2815_83015" x1="448.531" y1="37.8952" x2="-0.937705" y2="37.8952" gradientUnits="userSpaceOnUse">
<stop stop-color="#B6D1C5" stop-opacity="0"/>
<stop offset="0.302083" stop-color="#B6D1C5"/>
</linearGradient>
</defs>
</svg>
