<svg width="458" height="172" viewBox="0 0 458 172" fill="none" xmlns="http://www.w3.org/2000/svg">
<line opacity="0.1" x1="2" y1="111.847" x2="450" y2="111.847" stroke="#966F7B"/>
<rect opacity="0.1" x="2" width="70.9703" height="23.8613" rx="4" fill="#D7DD93"/>
<rect opacity="0.1" x="2" y="27.8381" width="70.9703" height="23.8613" rx="4" fill="#D7DD93"/>
<rect opacity="0.1" x="2" y="55.6763" width="70.9703" height="23.8613" rx="4" fill="#D7DD93"/>
<rect opacity="0.1" x="2" y="83.5144" width="70.9703" height="23.8613" rx="4" fill="#D7DD93"/>
<rect opacity="0.1" x="2" y="116.324" width="70.9703" height="23.8613" rx="4" fill="#D7DD93"/>
<rect opacity="0.1" x="2" y="144.162" width="70.9703" height="23.8613" rx="4" fill="#D7DD93"/>
<rect opacity="0.1" x="77.4059" width="70.9703" height="23.8613" rx="4" fill="#D7DD93"/>
<rect opacity="0.1" x="77.4059" y="27.8381" width="70.9703" height="23.8613" rx="4" fill="#D7DD93"/>
<rect opacity="0.1" x="77.4059" y="55.6763" width="70.9703" height="23.8613" rx="4" fill="#D7DD93"/>
<rect opacity="0.1" x="77.4059" y="83.5144" width="70.9703" height="23.8613" rx="4" fill="#D7DD93"/>
<rect opacity="0.1" x="77.4059" y="116.324" width="70.9703" height="23.8613" rx="4" fill="#D7DD93"/>
<rect opacity="0.1" x="77.4059" y="144.162" width="70.9703" height="23.8613" rx="4" fill="#D7DD93"/>
<rect opacity="0.1" x="152.812" width="70.9703" height="23.8613" rx="4" fill="#D7DD93"/>
<rect opacity="0.1" x="152.812" y="27.8381" width="70.9703" height="23.8613" rx="4" fill="#D7DD93"/>
<rect opacity="0.1" x="152.812" y="55.6763" width="70.9703" height="23.8613" rx="4" fill="#D7DD93"/>
<rect opacity="0.1" x="152.812" y="83.5144" width="70.9703" height="23.8613" rx="4" fill="#D7DD93"/>
<rect opacity="0.1" x="152.812" y="116.324" width="70.9703" height="23.8613" rx="4" fill="#D7DD93"/>
<rect opacity="0.1" x="152.812" y="144.162" width="70.9703" height="23.8613" rx="4" fill="#D7DD93"/>
<rect opacity="0.1" x="228.218" width="70.9703" height="23.8613" rx="4" fill="#D7DD93"/>
<rect opacity="0.1" x="228.218" y="27.8381" width="70.9703" height="23.8613" rx="4" fill="#D7DD93"/>
<rect opacity="0.1" x="228.218" y="55.6763" width="70.9703" height="23.8613" rx="4" fill="#D7DD93"/>
<rect opacity="0.1" x="228.218" y="83.5144" width="70.9703" height="23.8613" rx="4" fill="#D7DD93"/>
<rect opacity="0.1" x="228.218" y="116.324" width="70.9703" height="23.8613" rx="4" fill="#D7DD93"/>
<rect opacity="0.1" x="228.218" y="144.162" width="70.9703" height="23.8613" rx="4" fill="#D7DD93"/>
<rect opacity="0.1" x="303.624" width="70.9703" height="23.8613" rx="4" fill="#D7DD93"/>
<rect opacity="0.1" x="303.624" y="27.8381" width="70.9703" height="23.8613" rx="4" fill="#D7DD93"/>
<rect opacity="0.1" x="303.624" y="55.6763" width="70.9703" height="23.8613" rx="4" fill="#D7DD93"/>
<rect opacity="0.1" x="303.624" y="83.5144" width="70.9703" height="23.8613" rx="4" fill="#D7DD93"/>
<rect opacity="0.1" x="303.624" y="116.324" width="70.9703" height="23.8613" rx="4" fill="#D7DD93"/>
<rect opacity="0.1" x="303.624" y="144.162" width="70.9703" height="23.8613" rx="4" fill="#D7DD93"/>
<rect opacity="0.1" x="379.03" width="70.9703" height="23.8613" rx="4" fill="#D7DD93"/>
<rect opacity="0.1" x="379.03" y="27.8381" width="70.9703" height="23.8613" rx="4" fill="#D7DD93"/>
<rect opacity="0.1" x="379.03" y="55.6763" width="70.9703" height="23.8613" rx="4" fill="#D7DD93"/>
<rect opacity="0.1" x="379.03" y="83.5144" width="70.9703" height="23.8613" rx="4" fill="#D7DD93"/>
<rect opacity="0.1" x="379.03" y="116.324" width="70.9703" height="23.8613" rx="4" fill="#D7DD93"/>
<rect opacity="0.1" x="379.03" y="144.162" width="70.9703" height="23.8613" rx="4" fill="#D7DD93"/>
<path d="M2 111L67.2877 20.4279C71.3402 14.8059 78.5514 12.4321 85.151 14.5475L146.613 34.2486C148.191 34.7545 149.839 35.0122 151.497 35.0122H220.452C223.694 35.0122 226.86 35.997 229.53 37.8363L297.656 84.7715C300.326 86.6109 303.492 87.5957 306.734 87.5957H377.292L450 88.2036" stroke="url(#paint0_linear_2815_83063)" stroke-width="4" stroke-linecap="round" stroke-linejoin="round"/>
<rect x="31" y="104" width="105" height="24" rx="4" fill="#D7DD93"/>
<path d="M43.056 120.156C42.406 120.156 41.834 120.026 41.34 119.766C40.846 119.506 40.4603 119.138 40.183 118.661C39.9143 118.184 39.78 117.638 39.78 117.023V114.475C39.78 113.851 39.9143 113.301 40.183 112.824C40.4603 112.347 40.846 111.979 41.34 111.719C41.834 111.45 42.406 111.316 43.056 111.316C43.68 111.316 44.2347 111.446 44.72 111.706C45.214 111.957 45.5953 112.313 45.864 112.772C46.1413 113.223 46.28 113.743 46.28 114.332V114.644H45.071V114.332C45.071 113.743 44.889 113.283 44.525 112.954C44.1697 112.616 43.6757 112.447 43.043 112.447C42.393 112.447 41.8903 112.629 41.535 112.993C41.1797 113.348 41.002 113.855 41.002 114.514V116.971C41.002 117.63 41.1797 118.137 41.535 118.492C41.8903 118.847 42.393 119.025 43.043 119.025C43.6757 119.025 44.1697 118.86 44.525 118.531C44.889 118.193 45.071 117.729 45.071 117.14V116.815H46.28V117.14C46.28 117.729 46.1413 118.254 45.864 118.713C45.5953 119.164 45.214 119.519 44.72 119.779C44.2347 120.03 43.68 120.156 43.056 120.156ZM53.8255 118.934V120H53.1365C52.8245 120 52.5515 119.948 52.3175 119.844C52.0922 119.731 51.9188 119.571 51.7975 119.363C51.3208 119.892 50.6448 120.156 49.7695 120.156C49.0762 120.156 48.5258 119.991 48.1185 119.662C47.7112 119.333 47.5075 118.878 47.5075 118.297C47.5075 117.768 47.6808 117.352 48.0275 117.049C48.3742 116.746 48.9072 116.546 49.6265 116.451L51.5635 116.191V115.775C51.5635 115.359 51.4422 115.043 51.1995 114.826C50.9655 114.609 50.6188 114.501 50.1595 114.501C49.7088 114.501 49.3578 114.609 49.1065 114.826C48.8638 115.034 48.7425 115.329 48.7425 115.71V115.801H47.5595V115.71C47.5595 114.999 47.7935 114.436 48.2615 114.02C48.7382 113.604 49.3838 113.396 50.1985 113.396C51.0132 113.396 51.6415 113.608 52.0835 114.033C52.5255 114.449 52.7465 115.038 52.7465 115.801V118.284C52.7465 118.717 52.9545 118.934 53.3705 118.934H53.8255ZM49.8475 119.142C50.2288 119.142 50.5668 119.06 50.8615 118.895C51.1648 118.73 51.3988 118.505 51.5635 118.219V117.114L49.8215 117.374C49.0588 117.495 48.6775 117.799 48.6775 118.284C48.6775 118.553 48.7815 118.765 48.9895 118.921C49.2062 119.068 49.4922 119.142 49.8475 119.142ZM61.8736 113.552V120H60.7816V115.138L60.6256 115.606L58.7796 120H57.8566L56.0106 115.606L55.8416 115.112V120H54.7496V113.552H56.2966L58.3116 118.375L60.3266 113.552H61.8736ZM66.0815 120.156C65.2582 120.156 64.5995 119.918 64.1055 119.441C63.6115 118.964 63.3645 118.332 63.3645 117.543V116.022C63.3645 115.225 63.6115 114.588 64.1055 114.111C64.5995 113.634 65.2582 113.396 66.0815 113.396C66.9135 113.396 67.5765 113.634 68.0705 114.111C68.5732 114.588 68.8245 115.225 68.8245 116.022V117.543C68.8245 118.332 68.5732 118.964 68.0705 119.441C67.5765 119.918 66.9135 120.156 66.0815 120.156ZM66.0945 119.051C66.5712 119.051 66.9482 118.912 67.2255 118.635C67.5115 118.358 67.6545 117.985 67.6545 117.517V116.061C67.6545 115.576 67.5159 115.194 67.2385 114.917C66.9612 114.64 66.5799 114.501 66.0945 114.501C65.6179 114.501 65.2365 114.64 64.9505 114.917C64.6732 115.194 64.5345 115.576 64.5345 116.061V117.517C64.5345 117.994 64.6732 118.371 64.9505 118.648C65.2365 118.917 65.6179 119.051 66.0945 119.051ZM75.7801 113.552V113.734L73.0891 120.754C72.8898 121.274 72.6341 121.647 72.3221 121.872C72.0188 122.097 71.5985 122.21 71.0611 122.21H70.0341V121.144H70.9571C71.2258 121.144 71.4338 121.096 71.5811 121.001C71.7371 120.906 71.8715 120.706 71.9841 120.403L72.1011 120.078L69.5661 113.734V113.552H70.7621L72.7121 118.557L74.5841 113.552H75.7801ZM81.4245 116.711C81.7712 116.841 82.0355 117.032 82.2175 117.283C82.4082 117.534 82.5035 117.829 82.5035 118.167V118.349C82.5035 118.869 82.3128 119.276 81.9315 119.571C81.5502 119.857 80.9868 120 80.2415 120H77.0045V113.552H80.0855C80.8395 113.552 81.4028 113.695 81.7755 113.981C82.1482 114.258 82.3345 114.661 82.3345 115.19V115.359C82.3345 115.68 82.2565 115.957 82.1005 116.191C81.9445 116.416 81.7192 116.59 81.4245 116.711ZM78.1745 114.501V116.282H80.1635C80.4755 116.282 80.7182 116.208 80.8915 116.061C81.0735 115.905 81.1645 115.701 81.1645 115.45V115.307C81.1645 115.056 81.0735 114.861 80.8915 114.722C80.7182 114.575 80.4712 114.501 80.1505 114.501H78.1745ZM81.3335 118.05C81.3335 117.781 81.2425 117.578 81.0605 117.439C80.8785 117.292 80.6228 117.218 80.2935 117.218H78.1745V119.051H80.3065C80.6185 119.051 80.8655 118.977 81.0475 118.83C81.2382 118.674 81.3335 118.466 81.3335 118.206V118.05ZM89.9944 118.934V120H89.3054C88.9934 120 88.7204 119.948 88.4864 119.844C88.2611 119.731 88.0878 119.571 87.9664 119.363C87.4898 119.892 86.8138 120.156 85.9384 120.156C85.2451 120.156 84.6948 119.991 84.2874 119.662C83.8801 119.333 83.6764 118.878 83.6764 118.297C83.6764 117.768 83.8498 117.352 84.1964 117.049C84.5431 116.746 85.0761 116.546 85.7954 116.451L87.7324 116.191V115.775C87.7324 115.359 87.6111 115.043 87.3684 114.826C87.1344 114.609 86.7878 114.501 86.3284 114.501C85.8778 114.501 85.5268 114.609 85.2754 114.826C85.0328 115.034 84.9114 115.329 84.9114 115.71V115.801H83.7284V115.71C83.7284 114.999 83.9624 114.436 84.4304 114.02C84.9071 113.604 85.5528 113.396 86.3674 113.396C87.1821 113.396 87.8104 113.608 88.2524 114.033C88.6944 114.449 88.9154 115.038 88.9154 115.801V118.284C88.9154 118.717 89.1234 118.934 89.5394 118.934H89.9944ZM86.0164 119.142C86.3978 119.142 86.7358 119.06 87.0304 118.895C87.3338 118.73 87.5678 118.505 87.7324 118.219V117.114L85.9904 117.374C85.2278 117.495 84.8464 117.799 84.8464 118.284C84.8464 118.553 84.9504 118.765 85.1584 118.921C85.3751 119.068 85.6611 119.142 86.0164 119.142ZM99.8235 119.818V120H98.5885L96.7685 117.296H95.7155V120H94.5455V117.296H93.4925L91.6725 120H90.4375V119.818L92.4655 116.75L90.5415 113.734V113.552H91.7765L93.5055 116.256H94.5455V113.552H95.7155V116.256H96.7425L98.4845 113.552H99.7195V113.734L97.7825 116.75L99.8235 119.818ZM101.579 117.205V117.517C101.579 118.002 101.718 118.384 101.995 118.661C102.281 118.93 102.671 119.064 103.165 119.064C103.581 119.064 103.928 118.96 104.205 118.752C104.491 118.544 104.639 118.288 104.647 117.985H105.817C105.783 118.626 105.523 119.151 105.037 119.558C104.552 119.957 103.928 120.156 103.165 120.156C102.333 120.156 101.666 119.922 101.163 119.454C100.661 118.977 100.409 118.345 100.409 117.556V116.009C100.409 115.489 100.522 115.034 100.747 114.644C100.973 114.245 101.293 113.938 101.709 113.721C102.125 113.504 102.602 113.396 103.139 113.396C103.954 113.396 104.604 113.634 105.089 114.111C105.575 114.588 105.817 115.216 105.817 115.996V117.205H101.579ZM103.139 114.488C102.663 114.488 102.281 114.631 101.995 114.917C101.718 115.194 101.579 115.571 101.579 116.048V116.23H104.647V116.048C104.647 115.571 104.509 115.194 104.231 114.917C103.963 114.631 103.599 114.488 103.139 114.488ZM108.478 113.565V116.23H111.455V113.565H112.638V120H111.455V117.296H108.478V120H107.308V113.565H108.478ZM115.485 113.552V118.141L118.527 113.552H119.606V120H118.462V115.411L115.433 120H114.354V113.552H115.485ZM122.273 117.205V117.517C122.273 118.002 122.411 118.384 122.689 118.661C122.975 118.93 123.365 119.064 123.859 119.064C124.275 119.064 124.621 118.96 124.899 118.752C125.185 118.544 125.332 118.288 125.341 117.985H126.511C126.476 118.626 126.216 119.151 125.731 119.558C125.245 119.957 124.621 120.156 123.859 120.156C123.027 120.156 122.359 119.922 121.857 119.454C121.354 118.977 121.103 118.345 121.103 117.556V116.009C121.103 115.489 121.215 115.034 121.441 114.644C121.666 114.245 121.987 113.938 122.403 113.721C122.819 113.504 123.295 113.396 123.833 113.396C124.647 113.396 125.297 113.634 125.783 114.111C126.268 114.588 126.511 115.216 126.511 115.996V117.205H122.273ZM123.833 114.488C123.356 114.488 122.975 114.631 122.689 114.917C122.411 115.194 122.273 115.571 122.273 116.048V116.23H125.341V116.048C125.341 115.571 125.202 115.194 124.925 114.917C124.656 114.631 124.292 114.488 123.833 114.488Z" fill="#261E1E"/>
<g opacity="0.75">
<rect x="123" y="49" width="96" height="24" rx="4" fill="#D7DD93"/>
<path d="M136.616 60.645C137.006 60.827 137.305 61.0783 137.513 61.399C137.73 61.711 137.838 62.0793 137.838 62.504V62.712C137.838 63.4053 137.595 63.96 137.11 64.376C136.633 64.792 136.001 65 135.212 65H131.91V56.472H135.03C135.827 56.472 136.464 56.6713 136.941 57.07C137.418 57.46 137.656 57.9887 137.656 58.656V58.851C137.656 59.241 137.565 59.592 137.383 59.904C137.201 60.216 136.945 60.463 136.616 60.645ZM133.132 57.577V60.138H135.043C135.476 60.138 135.819 60.034 136.07 59.826C136.321 59.6093 136.447 59.3147 136.447 58.942V58.747C136.447 58.3743 136.326 58.0883 136.083 57.889C135.84 57.681 135.489 57.577 135.03 57.577H133.132ZM136.629 62.465C136.629 62.0837 136.499 61.7847 136.239 61.568C135.979 61.3427 135.628 61.23 135.186 61.23H133.132V63.895H135.173C135.632 63.895 135.988 63.7867 136.239 63.57C136.499 63.3533 136.629 63.0543 136.629 62.673V62.465ZM140.272 62.205V62.517C140.272 63.0023 140.411 63.3837 140.688 63.661C140.974 63.9297 141.364 64.064 141.858 64.064C142.274 64.064 142.621 63.96 142.898 63.752C143.184 63.544 143.331 63.2883 143.34 62.985H144.51C144.475 63.6263 144.215 64.1507 143.73 64.558C143.245 64.9567 142.621 65.156 141.858 65.156C141.026 65.156 140.359 64.922 139.856 64.454C139.353 63.9773 139.102 63.3447 139.102 62.556V61.009C139.102 60.489 139.215 60.034 139.44 59.644C139.665 59.2453 139.986 58.9377 140.402 58.721C140.818 58.5043 141.295 58.396 141.832 58.396C142.647 58.396 143.297 58.6343 143.782 59.111C144.267 59.5877 144.51 60.216 144.51 60.996V62.205H140.272ZM141.832 59.488C141.355 59.488 140.974 59.631 140.688 59.917C140.411 60.1943 140.272 60.5713 140.272 61.048V61.23H143.34V61.048C143.34 60.5713 143.201 60.1943 142.924 59.917C142.655 59.631 142.291 59.488 141.832 59.488ZM148.939 58.396C149.693 58.396 150.295 58.63 150.746 59.098C151.196 59.5573 151.422 60.1727 151.422 60.944V62.608C151.422 63.3793 151.196 63.999 150.746 64.467C150.295 64.9263 149.693 65.156 148.939 65.156C148.219 65.156 147.63 64.9393 147.171 64.506V67.21H146.001V58.552H147.054L147.106 59.098C147.574 58.63 148.185 58.396 148.939 58.396ZM150.239 60.996C150.239 60.5367 150.1 60.1727 149.823 59.904C149.554 59.6353 149.186 59.501 148.718 59.501C148.38 59.501 148.072 59.579 147.795 59.735C147.526 59.8823 147.318 60.0903 147.171 60.359V63.206C147.318 63.466 147.526 63.674 147.795 63.83C148.063 63.9773 148.371 64.051 148.718 64.051C149.186 64.051 149.554 63.9167 149.823 63.648C150.1 63.3793 150.239 63.0153 150.239 62.556V60.996ZM157.766 64.818V65H156.492L154.88 62.608L153.268 65H151.994V64.818L154.113 61.75L152.046 58.734V58.552H153.32L154.88 60.879L156.44 58.552H157.714V58.734L155.634 61.75L157.766 64.818ZM161.065 65.156C160.242 65.156 159.583 64.9177 159.089 64.441C158.595 63.9643 158.348 63.3317 158.348 62.543V61.022C158.348 60.2247 158.595 59.5877 159.089 59.111C159.583 58.6343 160.242 58.396 161.065 58.396C161.897 58.396 162.56 58.6343 163.054 59.111C163.557 59.5877 163.808 60.2247 163.808 61.022V62.543C163.808 63.3317 163.557 63.9643 163.054 64.441C162.56 64.9177 161.897 65.156 161.065 65.156ZM161.078 64.051C161.555 64.051 161.932 63.9123 162.209 63.635C162.495 63.3577 162.638 62.985 162.638 62.517V61.061C162.638 60.5757 162.499 60.1943 162.222 59.917C161.945 59.6397 161.563 59.501 161.078 59.501C160.601 59.501 160.22 59.6397 159.934 59.917C159.657 60.1943 159.518 60.5757 159.518 61.061V62.517C159.518 62.9937 159.657 63.3707 159.934 63.648C160.22 63.9167 160.601 64.051 161.078 64.051ZM169.717 61.711C170.064 61.841 170.328 62.0317 170.51 62.283C170.701 62.5343 170.796 62.829 170.796 63.167V63.349C170.796 63.869 170.606 64.2763 170.224 64.571C169.843 64.857 169.28 65 168.534 65H165.297V58.552H168.378C169.132 58.552 169.696 58.695 170.068 58.981C170.441 59.2583 170.627 59.6613 170.627 60.19V60.359C170.627 60.6797 170.549 60.957 170.393 61.191C170.237 61.4163 170.012 61.5897 169.717 61.711ZM166.467 59.501V61.282H168.456C168.768 61.282 169.011 61.2083 169.184 61.061C169.366 60.905 169.457 60.7013 169.457 60.45V60.307C169.457 60.0557 169.366 59.8607 169.184 59.722C169.011 59.5747 168.764 59.501 168.443 59.501H166.467ZM169.626 63.05C169.626 62.7813 169.535 62.5777 169.353 62.439C169.171 62.2917 168.916 62.218 168.586 62.218H166.467V64.051H168.599C168.911 64.051 169.158 63.9773 169.34 63.83C169.531 63.674 169.626 63.466 169.626 63.206V63.05ZM173.165 62.205V62.517C173.165 63.0023 173.304 63.3837 173.581 63.661C173.867 63.9297 174.257 64.064 174.751 64.064C175.167 64.064 175.514 63.96 175.791 63.752C176.077 63.544 176.225 63.2883 176.233 62.985H177.403C177.369 63.6263 177.109 64.1507 176.623 64.558C176.138 64.9567 175.514 65.156 174.751 65.156C173.919 65.156 173.252 64.922 172.749 64.454C172.247 63.9773 171.995 63.3447 171.995 62.556V61.009C171.995 60.489 172.108 60.034 172.333 59.644C172.559 59.2453 172.879 58.9377 173.295 58.721C173.711 58.5043 174.188 58.396 174.725 58.396C175.54 58.396 176.19 58.6343 176.675 59.111C177.161 59.5877 177.403 60.216 177.403 60.996V62.205H173.165ZM174.725 59.488C174.249 59.488 173.867 59.631 173.581 59.917C173.304 60.1943 173.165 60.5713 173.165 61.048V61.23H176.233V61.048C176.233 60.5713 176.095 60.1943 175.817 59.917C175.549 59.631 175.185 59.488 174.725 59.488ZM180.064 58.565V61.23H183.041V58.565H184.224V65H183.041V62.296H180.064V65H178.894V58.565H180.064ZM188.462 65.156C187.916 65.156 187.435 65.0477 187.019 64.831C186.603 64.6143 186.282 64.311 186.057 63.921C185.832 63.5223 185.719 63.063 185.719 62.543V61.009C185.719 60.489 185.832 60.034 186.057 59.644C186.282 59.2453 186.603 58.9377 187.019 58.721C187.435 58.5043 187.916 58.396 188.462 58.396C188.973 58.396 189.428 58.5043 189.827 58.721C190.234 58.929 190.551 59.2193 190.776 59.592C191.001 59.9647 191.114 60.3893 191.114 60.866V61.009H189.944V60.866C189.944 60.4673 189.805 60.1423 189.528 59.891C189.251 59.631 188.895 59.501 188.462 59.501C187.977 59.501 187.595 59.6397 187.318 59.917C187.041 60.1857 186.902 60.5583 186.902 61.035V62.517C186.902 62.9937 187.041 63.3707 187.318 63.648C187.595 63.9167 187.977 64.051 188.462 64.051C188.895 64.051 189.251 63.9297 189.528 63.687C189.805 63.4357 189.944 63.115 189.944 62.725V62.582H191.114V62.725C191.114 63.453 190.871 64.0423 190.386 64.493C189.901 64.935 189.259 65.156 188.462 65.156ZM191.649 59.618V58.552H197.122V59.618H194.977V65H193.794V59.618H191.649ZM202.548 61.711C202.894 61.841 203.159 62.0317 203.341 62.283C203.531 62.5343 203.627 62.829 203.627 63.167V63.349C203.627 63.869 203.436 64.2763 203.055 64.571C202.673 64.857 202.11 65 201.365 65H198.128V58.552H201.209C201.963 58.552 202.526 58.695 202.899 58.981C203.271 59.2583 203.458 59.6613 203.458 60.19V60.359C203.458 60.6797 203.38 60.957 203.224 61.191C203.068 61.4163 202.842 61.5897 202.548 61.711ZM199.298 59.501V61.282H201.287C201.599 61.282 201.841 61.2083 202.015 61.061C202.197 60.905 202.288 60.7013 202.288 60.45V60.307C202.288 60.0557 202.197 59.8607 202.015 59.722C201.841 59.5747 201.594 59.501 201.274 59.501H199.298ZM202.457 63.05C202.457 62.7813 202.366 62.5777 202.184 62.439C202.002 62.2917 201.746 62.218 201.417 62.218H199.298V64.051H201.43C201.742 64.051 201.989 63.9773 202.171 63.83C202.361 63.674 202.457 63.466 202.457 63.206V63.05ZM207.542 65.156C206.719 65.156 206.06 64.9177 205.566 64.441C205.072 63.9643 204.825 63.3317 204.825 62.543V61.022C204.825 60.2247 205.072 59.5877 205.566 59.111C206.06 58.6343 206.719 58.396 207.542 58.396C208.374 58.396 209.037 58.6343 209.531 59.111C210.034 59.5877 210.285 60.2247 210.285 61.022V62.543C210.285 63.3317 210.034 63.9643 209.531 64.441C209.037 64.9177 208.374 65.156 207.542 65.156ZM207.555 64.051C208.032 64.051 208.409 63.9123 208.686 63.635C208.972 63.3577 209.115 62.985 209.115 62.517V61.061C209.115 60.5757 208.977 60.1943 208.699 59.917C208.422 59.6397 208.041 59.501 207.555 59.501C207.079 59.501 206.697 59.6397 206.411 59.917C206.134 60.1943 205.995 60.5757 205.995 61.061V62.517C205.995 62.9937 206.134 63.3707 206.411 63.648C206.697 63.9167 207.079 64.051 207.555 64.051Z" fill="#261E1E"/>
</g>
<g opacity="0.7">
<rect x="266" y="99" width="109" height="24" rx="4" fill="#D7DD93"/>
<path d="M280.799 106.472V115H279.577V107.577H276.132V115H274.91V106.472H280.799ZM285.502 108.396C286.256 108.396 286.858 108.63 287.309 109.098C287.76 109.557 287.985 110.173 287.985 110.944V112.608C287.985 113.379 287.76 113.999 287.309 114.467C286.858 114.926 286.256 115.156 285.502 115.156C284.783 115.156 284.193 114.939 283.734 114.506V117.21H282.564V108.552H283.617L283.669 109.098C284.137 108.63 284.748 108.396 285.502 108.396ZM286.802 110.996C286.802 110.537 286.663 110.173 286.386 109.904C286.117 109.635 285.749 109.501 285.281 109.501C284.943 109.501 284.635 109.579 284.358 109.735C284.089 109.882 283.881 110.09 283.734 110.359V113.206C283.881 113.466 284.089 113.674 284.358 113.83C284.627 113.977 284.934 114.051 285.281 114.051C285.749 114.051 286.117 113.917 286.386 113.648C286.663 113.379 286.802 113.015 286.802 112.556V110.996ZM290.419 112.205V112.517C290.419 113.002 290.558 113.384 290.835 113.661C291.121 113.93 291.511 114.064 292.005 114.064C292.421 114.064 292.768 113.96 293.045 113.752C293.331 113.544 293.479 113.288 293.487 112.985H294.657C294.623 113.626 294.363 114.151 293.877 114.558C293.392 114.957 292.768 115.156 292.005 115.156C291.173 115.156 290.506 114.922 290.003 114.454C289.501 113.977 289.249 113.345 289.249 112.556V111.009C289.249 110.489 289.362 110.034 289.587 109.644C289.813 109.245 290.133 108.938 290.549 108.721C290.965 108.504 291.442 108.396 291.979 108.396C292.794 108.396 293.444 108.634 293.929 109.111C294.415 109.588 294.657 110.216 294.657 110.996V112.205H290.419ZM291.979 109.488C291.503 109.488 291.121 109.631 290.835 109.917C290.558 110.194 290.419 110.571 290.419 111.048V111.23H293.487V111.048C293.487 110.571 293.349 110.194 293.071 109.917C292.803 109.631 292.439 109.488 291.979 109.488ZM297.318 108.565V111.23H300.295V108.565H301.478V115H300.295V112.296H297.318V115H296.148V108.565H297.318ZM304.143 112.205V112.517C304.143 113.002 304.282 113.384 304.559 113.661C304.845 113.93 305.235 114.064 305.729 114.064C306.145 114.064 306.492 113.96 306.769 113.752C307.055 113.544 307.202 113.288 307.211 112.985H308.381C308.346 113.626 308.086 114.151 307.601 114.558C307.116 114.957 306.492 115.156 305.729 115.156C304.897 115.156 304.23 114.922 303.727 114.454C303.224 113.977 302.973 113.345 302.973 112.556V111.009C302.973 110.489 303.086 110.034 303.311 109.644C303.536 109.245 303.857 108.938 304.273 108.721C304.689 108.504 305.166 108.396 305.703 108.396C306.518 108.396 307.168 108.634 307.653 109.111C308.138 109.588 308.381 110.216 308.381 110.996V112.205H304.143ZM305.703 109.488C305.226 109.488 304.845 109.631 304.559 109.917C304.282 110.194 304.143 110.571 304.143 111.048V111.23H307.211V111.048C307.211 110.571 307.072 110.194 306.795 109.917C306.526 109.631 306.162 109.488 305.703 109.488ZM312.758 108.851C313.52 108.851 314.127 109.089 314.578 109.566C315.037 110.034 315.267 110.662 315.267 111.451V112.517C315.267 113.34 315.028 113.986 314.552 114.454C314.075 114.922 313.421 115.156 312.589 115.156C311.705 115.156 311.016 114.9 310.522 114.389C310.028 113.869 309.781 113.15 309.781 112.231V110.424C309.781 109.575 309.872 108.886 310.054 108.357C310.236 107.828 310.522 107.425 310.912 107.148C311.302 106.862 311.822 106.676 312.472 106.589L313.512 106.472C313.685 106.455 313.806 106.42 313.876 106.368C313.945 106.316 313.98 106.238 313.98 106.134V105.952H315.137V106.225C315.137 106.606 315.037 106.897 314.838 107.096C314.638 107.287 314.322 107.412 313.889 107.473L312.719 107.629C312.069 107.716 311.601 107.911 311.315 108.214C311.029 108.517 310.881 108.977 310.873 109.592C311.107 109.358 311.388 109.176 311.718 109.046C312.047 108.916 312.394 108.851 312.758 108.851ZM314.097 111.542C314.097 110.467 313.594 109.93 312.589 109.93C312.277 109.93 311.978 109.995 311.692 110.125C311.414 110.255 311.167 110.441 310.951 110.684V112.27C310.951 112.851 311.085 113.293 311.354 113.596C311.631 113.899 312.034 114.051 312.563 114.051C313.065 114.051 313.447 113.917 313.707 113.648C313.967 113.379 314.097 112.989 314.097 112.478V111.542ZM319.703 108.396C320.457 108.396 321.06 108.63 321.51 109.098C321.961 109.557 322.186 110.173 322.186 110.944V112.608C322.186 113.379 321.961 113.999 321.51 114.467C321.06 114.926 320.457 115.156 319.703 115.156C318.984 115.156 318.395 114.939 317.935 114.506V117.21H316.765V108.552H317.818L317.87 109.098C318.338 108.63 318.949 108.396 319.703 108.396ZM321.003 110.996C321.003 110.537 320.865 110.173 320.587 109.904C320.319 109.635 319.95 109.501 319.482 109.501C319.144 109.501 318.837 109.579 318.559 109.735C318.291 109.882 318.083 110.09 317.935 110.359V113.206C318.083 113.466 318.291 113.674 318.559 113.83C318.828 113.977 319.136 114.051 319.482 114.051C319.95 114.051 320.319 113.917 320.587 113.648C320.865 113.379 321.003 113.015 321.003 112.556V110.996ZM324.62 112.205V112.517C324.62 113.002 324.759 113.384 325.036 113.661C325.322 113.93 325.712 114.064 326.206 114.064C326.622 114.064 326.969 113.96 327.246 113.752C327.532 113.544 327.68 113.288 327.688 112.985H328.858C328.824 113.626 328.564 114.151 328.078 114.558C327.593 114.957 326.969 115.156 326.206 115.156C325.374 115.156 324.707 114.922 324.204 114.454C323.702 113.977 323.45 113.345 323.45 112.556V111.009C323.45 110.489 323.563 110.034 323.788 109.644C324.014 109.245 324.334 108.938 324.75 108.721C325.166 108.504 325.643 108.396 326.18 108.396C326.995 108.396 327.645 108.634 328.13 109.111C328.616 109.588 328.858 110.216 328.858 110.996V112.205H324.62ZM326.18 109.488C325.704 109.488 325.322 109.631 325.036 109.917C324.759 110.194 324.62 110.571 324.62 111.048V111.23H327.688V111.048C327.688 110.571 327.55 110.194 327.272 109.917C327.004 109.631 326.64 109.488 326.18 109.488ZM338.823 114.818V115H337.588L335.768 112.296H334.715V115H333.545V112.296H332.492L330.672 115H329.437V114.818L331.465 111.75L329.541 108.734V108.552H330.776L332.505 111.256H333.545V108.552H334.715V111.256H335.742L337.484 108.552H338.719V108.734L336.782 111.75L338.823 114.818ZM340.578 112.205V112.517C340.578 113.002 340.717 113.384 340.994 113.661C341.28 113.93 341.67 114.064 342.164 114.064C342.58 114.064 342.927 113.96 343.204 113.752C343.49 113.544 343.638 113.288 343.646 112.985H344.816C344.782 113.626 344.522 114.151 344.036 114.558C343.551 114.957 342.927 115.156 342.164 115.156C341.332 115.156 340.665 114.922 340.162 114.454C339.66 113.977 339.408 113.345 339.408 112.556V111.009C339.408 110.489 339.521 110.034 339.746 109.644C339.972 109.245 340.292 108.938 340.708 108.721C341.124 108.504 341.601 108.396 342.138 108.396C342.953 108.396 343.603 108.634 344.088 109.111C344.574 109.588 344.816 110.216 344.816 110.996V112.205H340.578ZM342.138 109.488C341.662 109.488 341.28 109.631 340.994 109.917C340.717 110.194 340.578 110.571 340.578 111.048V111.23H343.646V111.048C343.646 110.571 343.508 110.194 343.23 109.917C342.962 109.631 342.598 109.488 342.138 109.488ZM347.477 108.565V111.23H350.454V108.565H351.637V115H350.454V112.296H347.477V115H346.307V108.565H347.477ZM354.484 108.552V113.141L357.526 108.552H358.605V115H357.461V110.411L354.432 115H353.353V108.552H354.484ZM361.272 112.205V112.517C361.272 113.002 361.411 113.384 361.688 113.661C361.974 113.93 362.364 114.064 362.858 114.064C363.274 114.064 363.621 113.96 363.898 113.752C364.184 113.544 364.331 113.288 364.34 112.985H365.51C365.475 113.626 365.215 114.151 364.73 114.558C364.245 114.957 363.621 115.156 362.858 115.156C362.026 115.156 361.359 114.922 360.856 114.454C360.353 113.977 360.102 113.345 360.102 112.556V111.009C360.102 110.489 360.215 110.034 360.44 109.644C360.665 109.245 360.986 108.938 361.402 108.721C361.818 108.504 362.295 108.396 362.832 108.396C363.647 108.396 364.297 108.634 364.782 109.111C365.267 109.588 365.51 110.216 365.51 110.996V112.205H361.272ZM362.832 109.488C362.355 109.488 361.974 109.631 361.688 109.917C361.411 110.194 361.272 110.571 361.272 111.048V111.23H364.34V111.048C364.34 110.571 364.201 110.194 363.924 109.917C363.655 109.631 363.291 109.488 362.832 109.488Z" fill="#261E1E"/>
</g>
<defs>
<linearGradient id="paint0_linear_2815_83063" x1="448.531" y1="38.3989" x2="-0.937705" y2="38.3989" gradientUnits="userSpaceOnUse">
<stop stop-color="#D7DD93" stop-opacity="0"/>
<stop offset="0.302083" stop-color="#D7DD93"/>
</linearGradient>
</defs>
</svg>
