<svg width="458" height="172" viewBox="0 0 458 172" fill="none" xmlns="http://www.w3.org/2000/svg">
<line opacity="0.1" x1="2" y1="111.847" x2="450" y2="111.847" stroke="#966F7B"/>
<rect opacity="0.1" x="2" width="70.9703" height="23.8613" rx="4" fill="#B6D1C5"/>
<rect opacity="0.1" x="2" y="27.8381" width="70.9703" height="23.8613" rx="4" fill="#B6D1C5"/>
<rect opacity="0.1" x="2" y="55.6763" width="70.9703" height="23.8613" rx="4" fill="#B6D1C5"/>
<rect opacity="0.1" x="2" y="83.5144" width="70.9703" height="23.8613" rx="4" fill="#B6D1C5"/>
<rect opacity="0.1" x="2" y="116.324" width="70.9703" height="23.8613" rx="4" fill="#B6D1C5"/>
<rect opacity="0.1" x="2" y="144.162" width="70.9703" height="23.8613" rx="4" fill="#B6D1C5"/>
<rect opacity="0.1" x="77.4059" width="70.9703" height="23.8613" rx="4" fill="#B6D1C5"/>
<rect opacity="0.1" x="77.406" y="27.8381" width="70.9703" height="23.8613" rx="4" fill="#B6D1C5"/>
<rect opacity="0.1" x="77.406" y="55.6763" width="70.9703" height="23.8613" rx="4" fill="#B6D1C5"/>
<rect opacity="0.1" x="77.406" y="83.5144" width="70.9703" height="23.8613" rx="4" fill="#B6D1C5"/>
<rect opacity="0.1" x="77.406" y="116.324" width="70.9703" height="23.8613" rx="4" fill="#B6D1C5"/>
<rect opacity="0.1" x="77.406" y="144.162" width="70.9703" height="23.8613" rx="4" fill="#B6D1C5"/>
<rect opacity="0.1" x="152.812" width="70.9703" height="23.8613" rx="4" fill="#B6D1C5"/>
<rect opacity="0.1" x="152.812" y="27.8381" width="70.9703" height="23.8613" rx="4" fill="#B6D1C5"/>
<rect opacity="0.1" x="152.812" y="55.6763" width="70.9703" height="23.8613" rx="4" fill="#B6D1C5"/>
<rect opacity="0.1" x="152.812" y="83.5144" width="70.9703" height="23.8613" rx="4" fill="#B6D1C5"/>
<rect opacity="0.1" x="152.812" y="116.324" width="70.9703" height="23.8613" rx="4" fill="#B6D1C5"/>
<rect opacity="0.1" x="152.812" y="144.162" width="70.9703" height="23.8613" rx="4" fill="#B6D1C5"/>
<rect opacity="0.1" x="228.218" width="70.9703" height="23.8613" rx="4" fill="#B6D1C5"/>
<rect opacity="0.1" x="228.218" y="27.8381" width="70.9703" height="23.8613" rx="4" fill="#B6D1C5"/>
<rect opacity="0.1" x="228.218" y="55.6763" width="70.9703" height="23.8613" rx="4" fill="#B6D1C5"/>
<rect opacity="0.1" x="228.218" y="83.5144" width="70.9703" height="23.8613" rx="4" fill="#B6D1C5"/>
<rect opacity="0.1" x="228.218" y="116.324" width="70.9703" height="23.8613" rx="4" fill="#B6D1C5"/>
<rect opacity="0.1" x="228.218" y="144.162" width="70.9703" height="23.8613" rx="4" fill="#B6D1C5"/>
<rect opacity="0.1" x="303.624" width="70.9703" height="23.8613" rx="4" fill="#B6D1C5"/>
<rect opacity="0.1" x="303.624" y="27.8381" width="70.9703" height="23.8613" rx="4" fill="#B6D1C5"/>
<rect opacity="0.1" x="303.624" y="55.6763" width="70.9703" height="23.8613" rx="4" fill="#B6D1C5"/>
<rect opacity="0.1" x="303.624" y="83.5144" width="70.9703" height="23.8613" rx="4" fill="#B6D1C5"/>
<rect opacity="0.1" x="303.624" y="116.324" width="70.9703" height="23.8613" rx="4" fill="#B6D1C5"/>
<rect opacity="0.1" x="303.624" y="144.162" width="70.9703" height="23.8613" rx="4" fill="#B6D1C5"/>
<rect opacity="0.1" x="379.03" width="70.9703" height="23.8613" rx="4" fill="#B6D1C5"/>
<rect opacity="0.1" x="379.03" y="27.8381" width="70.9703" height="23.8613" rx="4" fill="#B6D1C5"/>
<rect opacity="0.1" x="379.03" y="55.6763" width="70.9703" height="23.8613" rx="4" fill="#B6D1C5"/>
<rect opacity="0.1" x="379.03" y="83.5144" width="70.9703" height="23.8613" rx="4" fill="#B6D1C5"/>
<rect opacity="0.1" x="379.03" y="116.324" width="70.9703" height="23.8613" rx="4" fill="#B6D1C5"/>
<rect opacity="0.1" x="379.03" y="144.162" width="70.9703" height="23.8613" rx="4" fill="#B6D1C5"/>
<path d="M2 111L71.8032 89.3886C73.3152 88.9205 74.8882 88.6793 76.4709 88.6729L144.043 88.4009C147.269 88.3879 150.416 87.4002 153.07 85.5673L221.384 38.3975C224.021 36.5767 227.144 35.5896 230.348 35.5643L298.903 35.0225C300.79 35.0076 302.665 35.3266 304.44 35.9647L374.733 61.2233C376.427 61.832 378.211 62.1505 380.011 62.1654L450 62.746" stroke="url(#paint0_linear_2815_82967)" stroke-width="4" stroke-linecap="round" stroke-linejoin="round"/>
<rect x="73" y="120" width="98" height="24" rx="4" fill="#B6D1C5"/>
<path d="M89.008 134.895V137.768H87.799V136H82.443V137.768H81.234V134.895H82.027C82.2523 134.505 82.4213 134.054 82.534 133.543C82.6467 133.023 82.7073 132.477 82.716 131.905L82.781 127.472H88.033V134.895H89.008ZM83.86 131.996C83.834 133.192 83.6303 134.158 83.249 134.895H86.824V128.577H83.925L83.86 131.996ZM92.5806 136.156C91.7572 136.156 91.0986 135.918 90.6046 135.441C90.1106 134.964 89.8636 134.332 89.8636 133.543V132.022C89.8636 131.225 90.1106 130.588 90.6046 130.111C91.0986 129.634 91.7572 129.396 92.5806 129.396C93.4126 129.396 94.0756 129.634 94.5696 130.111C95.0722 130.588 95.3236 131.225 95.3236 132.022V133.543C95.3236 134.332 95.0722 134.964 94.5696 135.441C94.0756 135.918 93.4126 136.156 92.5806 136.156ZM92.5936 135.051C93.0702 135.051 93.4472 134.912 93.7246 134.635C94.0106 134.358 94.1536 133.985 94.1536 133.517V132.061C94.1536 131.576 94.0149 131.194 93.7376 130.917C93.4602 130.64 93.0789 130.501 92.5936 130.501C92.1169 130.501 91.7356 130.64 91.4496 130.917C91.1722 131.194 91.0336 131.576 91.0336 132.061V133.517C91.0336 133.994 91.1722 134.371 91.4496 134.648C91.7356 134.917 92.1169 135.051 92.5936 135.051ZM101.233 132.711C101.58 132.841 101.844 133.032 102.026 133.283C102.217 133.534 102.312 133.829 102.312 134.167V134.349C102.312 134.869 102.121 135.276 101.74 135.571C101.359 135.857 100.795 136 100.05 136H96.8131V129.552H99.8941C100.648 129.552 101.211 129.695 101.584 129.981C101.957 130.258 102.143 130.661 102.143 131.19V131.359C102.143 131.68 102.065 131.957 101.909 132.191C101.753 132.416 101.528 132.59 101.233 132.711ZM97.9831 130.501V132.282H99.9721C100.284 132.282 100.527 132.208 100.7 132.061C100.882 131.905 100.973 131.701 100.973 131.45V131.307C100.973 131.056 100.882 130.861 100.7 130.722C100.527 130.575 100.28 130.501 99.9591 130.501H97.9831ZM101.142 134.05C101.142 133.781 101.051 133.578 100.869 133.439C100.687 133.292 100.431 133.218 100.102 133.218H97.9831V135.051H100.115C100.427 135.051 100.674 134.977 100.856 134.83C101.047 134.674 101.142 134.466 101.142 134.206V134.05ZM104.681 133.205V133.517C104.681 134.002 104.82 134.384 105.097 134.661C105.383 134.93 105.773 135.064 106.267 135.064C106.683 135.064 107.03 134.96 107.307 134.752C107.593 134.544 107.74 134.288 107.749 133.985H108.919C108.884 134.626 108.624 135.151 108.139 135.558C107.654 135.957 107.03 136.156 106.267 136.156C105.435 136.156 104.768 135.922 104.265 135.454C103.762 134.977 103.511 134.345 103.511 133.556V132.009C103.511 131.489 103.624 131.034 103.849 130.644C104.074 130.245 104.395 129.938 104.811 129.721C105.227 129.504 105.704 129.396 106.241 129.396C107.056 129.396 107.706 129.634 108.191 130.111C108.676 130.588 108.919 131.216 108.919 131.996V133.205H104.681ZM106.241 130.488C105.764 130.488 105.383 130.631 105.097 130.917C104.82 131.194 104.681 131.571 104.681 132.048V132.23H107.749V132.048C107.749 131.571 107.61 131.194 107.333 130.917C107.064 130.631 106.7 130.488 106.241 130.488ZM113.348 129.396C114.102 129.396 114.704 129.63 115.155 130.098C115.605 130.557 115.831 131.173 115.831 131.944V133.608C115.831 134.379 115.605 134.999 115.155 135.467C114.704 135.926 114.102 136.156 113.348 136.156C112.628 136.156 112.039 135.939 111.58 135.506V138.21H110.41V129.552H111.463L111.515 130.098C111.983 129.63 112.594 129.396 113.348 129.396ZM114.648 131.996C114.648 131.537 114.509 131.173 114.232 130.904C113.963 130.635 113.595 130.501 113.127 130.501C112.789 130.501 112.481 130.579 112.204 130.735C111.935 130.882 111.727 131.09 111.58 131.359V134.206C111.727 134.466 111.935 134.674 112.204 134.83C112.472 134.977 112.78 135.051 113.127 135.051C113.595 135.051 113.963 134.917 114.232 134.648C114.509 134.379 114.648 134.015 114.648 133.556V131.996ZM122.108 129.552V136H120.925V133.79C120.336 133.911 119.794 133.972 119.3 133.972C118.555 133.972 117.965 133.79 117.532 133.426C117.099 133.053 116.882 132.551 116.882 131.918V129.552H118.052V131.788C118.052 132.152 118.173 132.429 118.416 132.62C118.667 132.811 119.023 132.906 119.482 132.906C119.924 132.906 120.405 132.858 120.925 132.763V129.552H122.108ZM124.96 129.552V134.141L128.002 129.552H129.081V136H127.937V131.411L124.908 136H123.829V129.552H124.96ZM135.218 132.711C135.565 132.841 135.829 133.032 136.011 133.283C136.202 133.534 136.297 133.829 136.297 134.167V134.349C136.297 134.869 136.107 135.276 135.725 135.571C135.344 135.857 134.781 136 134.035 136H130.798V129.552H133.879C134.633 129.552 135.197 129.695 135.569 129.981C135.942 130.258 136.128 130.661 136.128 131.19V131.359C136.128 131.68 136.05 131.957 135.894 132.191C135.738 132.416 135.513 132.59 135.218 132.711ZM131.968 130.501V132.282H133.957C134.269 132.282 134.512 132.208 134.685 132.061C134.867 131.905 134.958 131.701 134.958 131.45V131.307C134.958 131.056 134.867 130.861 134.685 130.722C134.512 130.575 134.265 130.501 133.944 130.501H131.968ZM135.127 134.05C135.127 133.781 135.036 133.578 134.854 133.439C134.672 133.292 134.417 133.218 134.087 133.218H131.968V135.051H134.1C134.412 135.051 134.659 134.977 134.841 134.83C135.032 134.674 135.127 134.466 135.127 134.206V134.05ZM140.213 136.156C139.39 136.156 138.731 135.918 138.237 135.441C137.743 134.964 137.496 134.332 137.496 133.543V132.022C137.496 131.225 137.743 130.588 138.237 130.111C138.731 129.634 139.39 129.396 140.213 129.396C141.045 129.396 141.708 129.634 142.202 130.111C142.705 130.588 142.956 131.225 142.956 132.022V133.543C142.956 134.332 142.705 134.964 142.202 135.441C141.708 135.918 141.045 136.156 140.213 136.156ZM140.226 135.051C140.703 135.051 141.08 134.912 141.357 134.635C141.643 134.358 141.786 133.985 141.786 133.517V132.061C141.786 131.576 141.648 131.194 141.37 130.917C141.093 130.64 140.712 130.501 140.226 130.501C139.75 130.501 139.368 130.64 139.082 130.917C138.805 131.194 138.666 131.576 138.666 132.061V133.517C138.666 133.994 138.805 134.371 139.082 134.648C139.368 134.917 139.75 135.051 140.226 135.051ZM146.968 136.156C146.422 136.156 145.941 136.048 145.525 135.831C145.109 135.614 144.788 135.311 144.563 134.921C144.338 134.522 144.225 134.063 144.225 133.543V132.009C144.225 131.489 144.338 131.034 144.563 130.644C144.788 130.245 145.109 129.938 145.525 129.721C145.941 129.504 146.422 129.396 146.968 129.396C147.479 129.396 147.934 129.504 148.333 129.721C148.74 129.929 149.057 130.219 149.282 130.592C149.507 130.965 149.62 131.389 149.62 131.866V132.009H148.45V131.866C148.45 131.467 148.311 131.142 148.034 130.891C147.757 130.631 147.401 130.501 146.968 130.501C146.483 130.501 146.101 130.64 145.824 130.917C145.547 131.186 145.408 131.558 145.408 132.035V133.517C145.408 133.994 145.547 134.371 145.824 134.648C146.101 134.917 146.483 135.051 146.968 135.051C147.401 135.051 147.757 134.93 148.034 134.687C148.311 134.436 148.45 134.115 148.45 133.725V133.582H149.62V133.725C149.62 134.453 149.377 135.042 148.892 135.493C148.407 135.935 147.765 136.156 146.968 136.156ZM150.155 130.618V129.552H155.628V130.618H153.483V136H152.3V130.618H150.155ZM159.831 131.788C160.516 131.788 161.062 131.974 161.469 132.347C161.877 132.72 162.08 133.214 162.08 133.829V133.959C162.08 134.574 161.877 135.068 161.469 135.441C161.062 135.814 160.516 136 159.831 136H156.633V129.552H157.803V131.788H159.831ZM160.91 133.842C160.91 133.53 160.811 133.287 160.611 133.114C160.412 132.941 160.135 132.854 159.779 132.854H157.803V134.934H159.779C160.135 134.934 160.412 134.852 160.611 134.687C160.811 134.514 160.91 134.267 160.91 133.946V133.842Z" fill="#261E1E"/>
<g opacity="0.75">
<rect x="210" y="68" width="72" height="24" rx="4" fill="#B6D1C5"/>
<path d="M224.799 75.472V84H223.577V76.577H220.132V84H218.91V75.472H224.799ZM229.06 84.156C228.237 84.156 227.578 83.9177 227.084 83.441C226.59 82.9643 226.343 82.3317 226.343 81.543V80.022C226.343 79.2247 226.59 78.5877 227.084 78.111C227.578 77.6343 228.237 77.396 229.06 77.396C229.892 77.396 230.555 77.6343 231.049 78.111C231.552 78.5877 231.803 79.2247 231.803 80.022V81.543C231.803 82.3317 231.552 82.9643 231.049 83.441C230.555 83.9177 229.892 84.156 229.06 84.156ZM229.073 83.051C229.55 83.051 229.927 82.9123 230.204 82.635C230.49 82.3577 230.633 81.985 230.633 81.517V80.061C230.633 79.5757 230.494 79.1943 230.217 78.917C229.94 78.6397 229.558 78.501 229.073 78.501C228.596 78.501 228.215 78.6397 227.929 78.917C227.652 79.1943 227.513 79.5757 227.513 80.061V81.517C227.513 81.9937 227.652 82.3707 227.929 82.648C228.215 82.9167 228.596 83.051 229.073 83.051ZM238.759 77.552V77.734L236.068 84.754C235.868 85.274 235.613 85.6467 235.301 85.872C234.997 86.0973 234.577 86.21 234.04 86.21H233.013V85.144H233.936C234.204 85.144 234.412 85.0963 234.56 85.001C234.716 84.9057 234.85 84.7063 234.963 84.403L235.08 84.078L232.545 77.734V77.552H233.741L235.691 82.557L237.563 77.552H238.759ZM245.105 77.552V84H243.922V81.79C243.333 81.9113 242.791 81.972 242.297 81.972C241.552 81.972 240.962 81.79 240.529 81.426C240.096 81.0533 239.879 80.5507 239.879 79.918V77.552H241.049V79.788C241.049 80.152 241.17 80.4293 241.413 80.62C241.664 80.8107 242.02 80.906 242.479 80.906C242.921 80.906 243.402 80.8583 243.922 80.763V77.552H245.105ZM247.775 81.205V81.517C247.775 82.0023 247.913 82.3837 248.191 82.661C248.477 82.9297 248.867 83.064 249.361 83.064C249.777 83.064 250.123 82.96 250.401 82.752C250.687 82.544 250.834 82.2883 250.843 81.985H252.013C251.978 82.6263 251.718 83.1507 251.233 83.558C250.747 83.9567 250.123 84.156 249.361 84.156C248.529 84.156 247.861 83.922 247.359 83.454C246.856 82.9773 246.605 82.3447 246.605 81.556V80.009C246.605 79.489 246.717 79.034 246.943 78.644C247.168 78.2453 247.489 77.9377 247.905 77.721C248.321 77.5043 248.797 77.396 249.335 77.396C250.149 77.396 250.799 77.6343 251.285 78.111C251.77 78.5877 252.013 79.216 252.013 79.996V81.205H247.775ZM249.335 78.488C248.858 78.488 248.477 78.631 248.191 78.917C247.913 79.1943 247.775 79.5713 247.775 80.048V80.23H250.843V80.048C250.843 79.5713 250.704 79.1943 250.427 78.917C250.158 78.631 249.794 78.488 249.335 78.488ZM254.674 77.565V80.23H257.651V77.565H258.834V84H257.651V81.296H254.674V84H253.504V77.565H254.674ZM261.68 77.552V82.141L264.722 77.552H265.801V84H264.657V79.411L261.628 84H260.549V77.552H261.68ZM268.468 81.205V81.517C268.468 82.0023 268.607 82.3837 268.884 82.661C269.17 82.9297 269.56 83.064 270.054 83.064C270.47 83.064 270.817 82.96 271.094 82.752C271.38 82.544 271.527 82.2883 271.536 81.985H272.706C272.671 82.6263 272.411 83.1507 271.926 83.558C271.441 83.9567 270.817 84.156 270.054 84.156C269.222 84.156 268.555 83.922 268.052 83.454C267.549 82.9773 267.298 82.3447 267.298 81.556V80.009C267.298 79.489 267.411 79.034 267.636 78.644C267.861 78.2453 268.182 77.9377 268.598 77.721C269.014 77.5043 269.491 77.396 270.028 77.396C270.843 77.396 271.493 77.6343 271.978 78.111C272.463 78.5877 272.706 79.216 272.706 79.996V81.205H268.468ZM270.028 78.488C269.551 78.488 269.17 78.631 268.884 78.917C268.607 79.1943 268.468 79.5713 268.468 80.048V80.23H271.536V80.048C271.536 79.5713 271.397 79.1943 271.12 78.917C270.851 78.631 270.487 78.488 270.028 78.488Z" fill="#261E1E"/>
</g>
<g opacity="0.7">
<rect x="325" y="83" width="108" height="24" rx="4" fill="#B6D1C5"/>
<path d="M337.03 99.156C336.389 99.156 335.821 99.026 335.327 98.766C334.833 98.4973 334.452 98.1247 334.183 97.648C333.914 97.1713 333.78 96.6253 333.78 96.01V93.475C333.78 92.851 333.914 92.3007 334.183 91.824C334.46 91.3473 334.842 90.979 335.327 90.719C335.821 90.4503 336.389 90.316 337.03 90.316C337.671 90.316 338.239 90.4503 338.733 90.719C339.227 90.979 339.608 91.3517 339.877 91.837C340.154 92.3137 340.293 92.8597 340.293 93.475V96.01C340.293 96.6253 340.154 97.1713 339.877 97.648C339.608 98.1247 339.227 98.4973 338.733 98.766C338.248 99.026 337.68 99.156 337.03 99.156ZM337.03 98.025C337.671 98.025 338.174 97.843 338.538 97.479C338.902 97.1063 339.084 96.6037 339.084 95.971V93.527C339.084 92.8683 338.902 92.357 338.538 91.993C338.174 91.629 337.671 91.447 337.03 91.447C336.389 91.447 335.89 91.629 335.535 91.993C335.18 92.357 335.002 92.8683 335.002 93.527V95.971C335.002 96.621 335.18 97.128 335.535 97.492C335.89 97.8473 336.389 98.025 337.03 98.025ZM341.23 93.618V92.552H346.703V93.618H344.558V99H343.375V93.618H341.23ZM352.831 92.552V99H351.648V96.79C351.058 96.9113 350.517 96.972 350.023 96.972C349.277 96.972 348.688 96.79 348.255 96.426C347.821 96.0533 347.605 95.5507 347.605 94.918V92.552H348.775V94.788C348.775 95.152 348.896 95.4293 349.139 95.62C349.39 95.8107 349.745 95.906 350.205 95.906C350.647 95.906 351.128 95.8583 351.648 95.763V92.552H352.831ZM360.271 92.552V92.734L357.58 99.754C357.381 100.274 357.125 100.647 356.813 100.872C356.51 101.097 356.09 101.21 355.552 101.21H354.525V100.144H355.448C355.717 100.144 355.925 100.096 356.072 100.001C356.228 99.9057 356.363 99.7063 356.475 99.403L356.592 99.078L354.057 92.734V92.552H355.253L357.203 97.557L359.075 92.552H360.271ZM370.401 98.818V99H369.166L367.346 96.296H366.293V99H365.123V96.296H364.07L362.25 99H361.015V98.818L363.043 95.75L361.119 92.734V92.552H362.354L364.083 95.256H365.123V92.552H366.293V95.256H367.32L369.062 92.552H370.297V92.734L368.36 95.75L370.401 98.818ZM378.204 97.934V100.703H377.021V99H372.302V100.703H371.132V97.934H371.938C372.268 97.3187 372.441 96.5907 372.458 95.75L372.497 92.552H377.242V97.934H378.204ZM376.072 97.934V93.618H373.589L373.55 95.802C373.533 96.6167 373.381 97.3273 373.095 97.934H376.072ZM380.066 96.205V96.517C380.066 97.0023 380.204 97.3837 380.482 97.661C380.768 97.9297 381.158 98.064 381.652 98.064C382.068 98.064 382.414 97.96 382.692 97.752C382.978 97.544 383.125 97.2883 383.134 96.985H384.304C384.269 97.6263 384.009 98.1507 383.524 98.558C383.038 98.9567 382.414 99.156 381.652 99.156C380.82 99.156 380.152 98.922 379.65 98.454C379.147 97.9773 378.896 97.3447 378.896 96.556V95.009C378.896 94.489 379.008 94.034 379.234 93.644C379.459 93.2453 379.78 92.9377 380.196 92.721C380.612 92.5043 381.088 92.396 381.626 92.396C382.44 92.396 383.09 92.6343 383.576 93.111C384.061 93.5877 384.304 94.216 384.304 94.996V96.205H380.066ZM381.626 93.488C381.149 93.488 380.768 93.631 380.482 93.917C380.204 94.1943 380.066 94.5713 380.066 95.048V95.23H383.134V95.048C383.134 94.5713 382.995 94.1943 382.718 93.917C382.449 93.631 382.085 93.488 381.626 93.488ZM386.965 92.565V95.23H389.942V92.565H391.125V99H389.942V96.296H386.965V99H385.795V92.565H386.965ZM394.01 92.565V95.23H396.987V92.565H398.17V99H396.987V96.296H394.01V99H392.84V92.565H394.01ZM402.382 99.156C401.559 99.156 400.9 98.9177 400.406 98.441C399.912 97.9643 399.665 97.3317 399.665 96.543V95.022C399.665 94.2247 399.912 93.5877 400.406 93.111C400.9 92.6343 401.559 92.396 402.382 92.396C403.214 92.396 403.877 92.6343 404.371 93.111C404.874 93.5877 405.125 94.2247 405.125 95.022V96.543C405.125 97.3317 404.874 97.9643 404.371 98.441C403.877 98.9177 403.214 99.156 402.382 99.156ZM402.395 98.051C402.872 98.051 403.249 97.9123 403.526 97.635C403.812 97.3577 403.955 96.985 403.955 96.517V95.061C403.955 94.5757 403.817 94.1943 403.539 93.917C403.262 93.6397 402.881 93.501 402.395 93.501C401.919 93.501 401.537 93.6397 401.251 93.917C400.974 94.1943 400.835 94.5757 400.835 95.061V96.517C400.835 96.9937 400.974 97.3707 401.251 97.648C401.537 97.9167 401.919 98.051 402.395 98.051ZM409.137 99.156C408.591 99.156 408.11 99.0477 407.694 98.831C407.278 98.6143 406.957 98.311 406.732 97.921C406.507 97.5223 406.394 97.063 406.394 96.543V95.009C406.394 94.489 406.507 94.034 406.732 93.644C406.957 93.2453 407.278 92.9377 407.694 92.721C408.11 92.5043 408.591 92.396 409.137 92.396C409.648 92.396 410.103 92.5043 410.502 92.721C410.909 92.929 411.226 93.2193 411.451 93.592C411.676 93.9647 411.789 94.3893 411.789 94.866V95.009H410.619V94.866C410.619 94.4673 410.48 94.1423 410.203 93.891C409.926 93.631 409.57 93.501 409.137 93.501C408.652 93.501 408.27 93.6397 407.993 93.917C407.716 94.1857 407.577 94.5583 407.577 95.035V96.517C407.577 96.9937 407.716 97.3707 407.993 97.648C408.27 97.9167 408.652 98.051 409.137 98.051C409.57 98.051 409.926 97.9297 410.203 97.687C410.48 97.4357 410.619 97.115 410.619 96.725V96.582H411.789V96.725C411.789 97.453 411.546 98.0423 411.061 98.493C410.576 98.935 409.934 99.156 409.137 99.156ZM412.324 93.618V92.552H417.797V93.618H415.652V99H414.469V93.618H412.324ZM422 94.788C422.685 94.788 423.231 94.9743 423.638 95.347C424.046 95.7197 424.249 96.2137 424.249 96.829V96.959C424.249 97.5743 424.046 98.0683 423.638 98.441C423.231 98.8137 422.685 99 422 99H418.802V92.552H419.972V94.788H422ZM423.079 96.842C423.079 96.53 422.98 96.2873 422.78 96.114C422.581 95.9407 422.304 95.854 421.948 95.854H419.972V97.934H421.948C422.304 97.934 422.581 97.8517 422.78 97.687C422.98 97.5137 423.079 97.2667 423.079 96.946V96.842Z" fill="#261E1E"/>
</g>
<defs>
<linearGradient id="paint0_linear_2815_82967" x1="448.531" y1="55.9904" x2="-0.937705" y2="55.9904" gradientUnits="userSpaceOnUse">
<stop stop-color="#B6D1C5" stop-opacity="0"/>
<stop offset="0.302083" stop-color="#B6D1C5"/>
</linearGradient>
</defs>
</svg>
