<svg width="458" height="172" viewBox="0 0 458 172" fill="none" xmlns="http://www.w3.org/2000/svg">
<line opacity="0.1" x1="2" y1="111.847" x2="450" y2="111.847" stroke="#966F7B"/>
<path opacity="0.1" d="M2 4C2 1.79086 3.79086 0 6 0H68.9703C71.1794 0 72.9703 1.79086 72.9703 4V19.8613C72.9703 22.0704 71.1794 23.8613 68.9703 23.8613H6C3.79087 23.8613 2 22.0704 2 19.8613V4Z" fill="#F6C0B1"/>
<path opacity="0.1" d="M2 31.8381C2 29.629 3.79086 27.8381 6 27.8381H68.9703C71.1794 27.8381 72.9703 29.629 72.9703 31.8381V47.6994C72.9703 49.9085 71.1794 51.6994 68.9703 51.6994H6C3.79087 51.6994 2 49.9085 2 47.6994V31.8381Z" fill="#F6C0B1"/>
<path opacity="0.1" d="M2 59.6763C2 57.4671 3.79086 55.6763 6 55.6763H68.9703C71.1794 55.6763 72.9703 57.4671 72.9703 59.6763V75.5375C72.9703 77.7467 71.1794 79.5375 68.9703 79.5375H6C3.79087 79.5375 2 77.7467 2 75.5375V59.6763Z" fill="#F6C0B1"/>
<path opacity="0.1" d="M2 87.5144C2 85.3053 3.79086 83.5144 6 83.5144H68.9703C71.1794 83.5144 72.9703 85.3053 72.9703 87.5144V103.376C72.9703 105.585 71.1794 107.376 68.9703 107.376H6C3.79087 107.376 2 105.585 2 103.376V87.5144Z" fill="#F6C0B1"/>
<path opacity="0.1" d="M2 120.324C2 118.115 3.79086 116.324 6 116.324H68.9703C71.1794 116.324 72.9703 118.115 72.9703 120.324V136.185C72.9703 138.394 71.1794 140.185 68.9703 140.185H6C3.79087 140.185 2 138.394 2 136.185V120.324Z" fill="#F6C0B1"/>
<path opacity="0.1" d="M2 148.162C2 145.953 3.79086 144.162 6 144.162H68.9703C71.1794 144.162 72.9703 145.953 72.9703 148.162V164.023C72.9703 166.232 71.1794 168.023 68.9703 168.023H6C3.79087 168.023 2 166.232 2 164.023V148.162Z" fill="#F6C0B1"/>
<path opacity="0.1" d="M77.4059 4C77.4059 1.79086 79.1968 0 81.4059 0H144.376C146.585 0 148.376 1.79086 148.376 4V19.8613C148.376 22.0704 146.585 23.8613 144.376 23.8613H81.4059C79.1968 23.8613 77.4059 22.0704 77.4059 19.8613V4Z" fill="#F6C0B1"/>
<path opacity="0.1" d="M77.4059 31.8381C77.4059 29.629 79.1968 27.8381 81.4059 27.8381H144.376C146.585 27.8381 148.376 29.629 148.376 31.8381V47.6994C148.376 49.9085 146.585 51.6994 144.376 51.6994H81.4059C79.1968 51.6994 77.4059 49.9085 77.4059 47.6994V31.8381Z" fill="#F6C0B1"/>
<path opacity="0.1" d="M77.4059 59.6763C77.4059 57.4671 79.1968 55.6763 81.4059 55.6763H144.376C146.585 55.6763 148.376 57.4671 148.376 59.6763V75.5375C148.376 77.7467 146.585 79.5375 144.376 79.5375H81.4059C79.1968 79.5375 77.4059 77.7467 77.4059 75.5375V59.6763Z" fill="#F6C0B1"/>
<path opacity="0.1" d="M77.4059 87.5144C77.4059 85.3053 79.1968 83.5144 81.4059 83.5144H144.376C146.585 83.5144 148.376 85.3053 148.376 87.5144V103.376C148.376 105.585 146.585 107.376 144.376 107.376H81.4059C79.1968 107.376 77.4059 105.585 77.4059 103.376V87.5144Z" fill="#F6C0B1"/>
<path opacity="0.1" d="M77.4059 120.324C77.4059 118.115 79.1968 116.324 81.4059 116.324H144.376C146.585 116.324 148.376 118.115 148.376 120.324V136.185C148.376 138.394 146.585 140.185 144.376 140.185H81.4059C79.1968 140.185 77.4059 138.394 77.4059 136.185V120.324Z" fill="#F6C0B1"/>
<path opacity="0.1" d="M77.4059 148.162C77.4059 145.953 79.1968 144.162 81.4059 144.162H144.376C146.585 144.162 148.376 145.953 148.376 148.162V164.023C148.376 166.232 146.585 168.023 144.376 168.023H81.4059C79.1968 168.023 77.4059 166.232 77.4059 164.023V148.162Z" fill="#F6C0B1"/>
<path opacity="0.1" d="M152.812 4C152.812 1.79086 154.603 0 156.812 0H219.782C221.991 0 223.782 1.79086 223.782 4V19.8613C223.782 22.0704 221.991 23.8613 219.782 23.8613H156.812C154.603 23.8613 152.812 22.0704 152.812 19.8613V4Z" fill="#F6C0B1"/>
<path opacity="0.1" d="M152.812 31.8381C152.812 29.629 154.603 27.8381 156.812 27.8381H219.782C221.991 27.8381 223.782 29.629 223.782 31.8381V47.6994C223.782 49.9085 221.991 51.6994 219.782 51.6994H156.812C154.603 51.6994 152.812 49.9085 152.812 47.6994V31.8381Z" fill="#F6C0B1"/>
<path opacity="0.1" d="M152.812 59.6763C152.812 57.4671 154.603 55.6763 156.812 55.6763H219.782C221.991 55.6763 223.782 57.4671 223.782 59.6763V75.5375C223.782 77.7467 221.991 79.5375 219.782 79.5375H156.812C154.603 79.5375 152.812 77.7467 152.812 75.5375V59.6763Z" fill="#F6C0B1"/>
<path opacity="0.1" d="M152.812 87.5144C152.812 85.3053 154.603 83.5144 156.812 83.5144H219.782C221.991 83.5144 223.782 85.3053 223.782 87.5144V103.376C223.782 105.585 221.991 107.376 219.782 107.376H156.812C154.603 107.376 152.812 105.585 152.812 103.376V87.5144Z" fill="#F6C0B1"/>
<path opacity="0.1" d="M152.812 120.324C152.812 118.115 154.603 116.324 156.812 116.324H219.782C221.991 116.324 223.782 118.115 223.782 120.324V136.185C223.782 138.394 221.991 140.185 219.782 140.185H156.812C154.603 140.185 152.812 138.394 152.812 136.185V120.324Z" fill="#F6C0B1"/>
<path opacity="0.1" d="M152.812 148.162C152.812 145.953 154.603 144.162 156.812 144.162H219.782C221.991 144.162 223.782 145.953 223.782 148.162V164.023C223.782 166.232 221.991 168.023 219.782 168.023H156.812C154.603 168.023 152.812 166.232 152.812 164.023V148.162Z" fill="#F6C0B1"/>
<path opacity="0.1" d="M228.218 4C228.218 1.79086 230.009 0 232.218 0H295.188C297.397 0 299.188 1.79086 299.188 4V19.8613C299.188 22.0704 297.397 23.8613 295.188 23.8613H232.218C230.009 23.8613 228.218 22.0704 228.218 19.8613V4Z" fill="#F6C0B1"/>
<path opacity="0.1" d="M228.218 31.8381C228.218 29.629 230.009 27.8381 232.218 27.8381H295.188C297.397 27.8381 299.188 29.629 299.188 31.8381V47.6994C299.188 49.9085 297.397 51.6994 295.188 51.6994H232.218C230.009 51.6994 228.218 49.9085 228.218 47.6994V31.8381Z" fill="#F6C0B1"/>
<path opacity="0.1" d="M228.218 59.6763C228.218 57.4671 230.009 55.6763 232.218 55.6763H295.188C297.397 55.6763 299.188 57.4671 299.188 59.6763V75.5375C299.188 77.7467 297.397 79.5375 295.188 79.5375H232.218C230.009 79.5375 228.218 77.7467 228.218 75.5375V59.6763Z" fill="#F6C0B1"/>
<path opacity="0.1" d="M228.218 87.5144C228.218 85.3053 230.009 83.5144 232.218 83.5144H295.188C297.397 83.5144 299.188 85.3053 299.188 87.5144V103.376C299.188 105.585 297.397 107.376 295.188 107.376H232.218C230.009 107.376 228.218 105.585 228.218 103.376V87.5144Z" fill="#F6C0B1"/>
<path opacity="0.1" d="M228.218 120.324C228.218 118.115 230.009 116.324 232.218 116.324H295.188C297.397 116.324 299.188 118.115 299.188 120.324V136.185C299.188 138.394 297.397 140.185 295.188 140.185H232.218C230.009 140.185 228.218 138.394 228.218 136.185V120.324Z" fill="#F6C0B1"/>
<path opacity="0.1" d="M228.218 148.162C228.218 145.953 230.009 144.162 232.218 144.162H295.188C297.397 144.162 299.188 145.953 299.188 148.162V164.023C299.188 166.232 297.397 168.023 295.188 168.023H232.218C230.009 168.023 228.218 166.232 228.218 164.023V148.162Z" fill="#F6C0B1"/>
<path opacity="0.1" d="M303.624 4C303.624 1.79086 305.415 0 307.624 0H370.594C372.803 0 374.594 1.79086 374.594 4V19.8613C374.594 22.0704 372.803 23.8613 370.594 23.8613H307.624C305.415 23.8613 303.624 22.0704 303.624 19.8613V4Z" fill="#F6C0B1"/>
<path opacity="0.1" d="M303.624 31.8381C303.624 29.629 305.415 27.8381 307.624 27.8381H370.594C372.803 27.8381 374.594 29.629 374.594 31.8381V47.6994C374.594 49.9085 372.803 51.6994 370.594 51.6994H307.624C305.415 51.6994 303.624 49.9085 303.624 47.6994V31.8381Z" fill="#F6C0B1"/>
<path opacity="0.1" d="M303.624 59.6763C303.624 57.4671 305.415 55.6763 307.624 55.6763H370.594C372.803 55.6763 374.594 57.4671 374.594 59.6763V75.5375C374.594 77.7467 372.803 79.5375 370.594 79.5375H307.624C305.415 79.5375 303.624 77.7467 303.624 75.5375V59.6763Z" fill="#F6C0B1"/>
<path opacity="0.1" d="M303.624 87.5144C303.624 85.3053 305.415 83.5144 307.624 83.5144H370.594C372.803 83.5144 374.594 85.3053 374.594 87.5144V103.376C374.594 105.585 372.803 107.376 370.594 107.376H307.624C305.415 107.376 303.624 105.585 303.624 103.376V87.5144Z" fill="#F6C0B1"/>
<path opacity="0.1" d="M303.624 120.324C303.624 118.115 305.415 116.324 307.624 116.324H370.594C372.803 116.324 374.594 118.115 374.594 120.324V136.185C374.594 138.394 372.803 140.185 370.594 140.185H307.624C305.415 140.185 303.624 138.394 303.624 136.185V120.324Z" fill="#F6C0B1"/>
<path opacity="0.1" d="M303.624 148.162C303.624 145.953 305.415 144.162 307.624 144.162H370.594C372.803 144.162 374.594 145.953 374.594 148.162V164.023C374.594 166.232 372.803 168.023 370.594 168.023H307.624C305.415 168.023 303.624 166.232 303.624 164.023V148.162Z" fill="#F6C0B1"/>
<path opacity="0.1" d="M379.03 4C379.03 1.79086 380.821 0 383.03 0H446C448.209 0 450 1.79086 450 4V19.8613C450 22.0704 448.209 23.8613 446 23.8613H383.03C380.821 23.8613 379.03 22.0704 379.03 19.8613V4Z" fill="#F6C0B1"/>
<path opacity="0.1" d="M379.03 31.8381C379.03 29.629 380.821 27.8381 383.03 27.8381H446C448.209 27.8381 450 29.629 450 31.8381V47.6994C450 49.9085 448.209 51.6994 446 51.6994H383.03C380.821 51.6994 379.03 49.9085 379.03 47.6994V31.8381Z" fill="#F6C0B1"/>
<path opacity="0.1" d="M379.03 59.6763C379.03 57.4671 380.821 55.6763 383.03 55.6763H446C448.209 55.6763 450 57.4671 450 59.6763V75.5375C450 77.7467 448.209 79.5375 446 79.5375H383.03C380.821 79.5375 379.03 77.7467 379.03 75.5375V59.6763Z" fill="#F6C0B1"/>
<path opacity="0.1" d="M379.03 87.5144C379.03 85.3053 380.821 83.5144 383.03 83.5144H446C448.209 83.5144 450 85.3053 450 87.5144V103.376C450 105.585 448.209 107.376 446 107.376H383.03C380.821 107.376 379.03 105.585 379.03 103.376V87.5144Z" fill="#F6C0B1"/>
<path opacity="0.1" d="M379.03 120.324C379.03 118.115 380.821 116.324 383.03 116.324H446C448.209 116.324 450 118.115 450 120.324V136.185C450 138.394 448.209 140.185 446 140.185H383.03C380.821 140.185 379.03 138.394 379.03 136.185V120.324Z" fill="#F6C0B1"/>
<path opacity="0.1" d="M379.03 148.162C379.03 145.953 380.821 144.162 383.03 144.162H446C448.209 144.162 450 145.953 450 148.162V164.023C450 166.232 448.209 168.023 446 168.023H383.03C380.821 168.023 379.03 166.232 379.03 164.023V148.162Z" fill="#F6C0B1"/>
<path d="M2 108.25L72.2994 59.4682C73.4835 58.6465 74.7732 57.9886 76.1335 57.5123L136.934 36.2233C143.988 33.7533 151.812 36.496 155.78 42.8295L217.916 142.006C222.207 148.855 230.931 151.428 238.251 148.006L298.535 119.821C300.656 118.829 302.97 118.315 305.311 118.315H377.292L450 118.925" stroke="url(#paint0_linear_2816_83447)" stroke-width="4" stroke-linecap="round" stroke-linejoin="round"/>
<rect x="40" y="112" width="92" height="24" rx="4" fill="#F6C0B1"/>
<path d="M53.616 123.645C54.006 123.827 54.305 124.078 54.513 124.399C54.7297 124.711 54.838 125.079 54.838 125.504V125.712C54.838 126.405 54.5953 126.96 54.11 127.376C53.6333 127.792 53.0007 128 52.212 128H48.91V119.472H52.03C52.8273 119.472 53.4643 119.671 53.941 120.07C54.4177 120.46 54.656 120.989 54.656 121.656V121.851C54.656 122.241 54.565 122.592 54.383 122.904C54.201 123.216 53.9453 123.463 53.616 123.645ZM50.132 120.577V123.138H52.043C52.4763 123.138 52.8187 123.034 53.07 122.826C53.3213 122.609 53.447 122.315 53.447 121.942V121.747C53.447 121.374 53.3257 121.088 53.083 120.889C52.8403 120.681 52.4893 120.577 52.03 120.577H50.132ZM53.629 125.465C53.629 125.084 53.499 124.785 53.239 124.568C52.979 124.343 52.628 124.23 52.186 124.23H50.132V126.895H52.173C52.6323 126.895 52.9877 126.787 53.239 126.57C53.499 126.353 53.629 126.054 53.629 125.673V125.465ZM58.8188 128.156C57.9955 128.156 57.3368 127.918 56.8428 127.441C56.3488 126.964 56.1018 126.332 56.1018 125.543V124.022C56.1018 123.225 56.3488 122.588 56.8428 122.111C57.3368 121.634 57.9955 121.396 58.8188 121.396C59.6508 121.396 60.3138 121.634 60.8078 122.111C61.3105 122.588 61.5618 123.225 61.5618 124.022V125.543C61.5618 126.332 61.3105 126.964 60.8078 127.441C60.3138 127.918 59.6508 128.156 58.8188 128.156ZM58.8318 127.051C59.3085 127.051 59.6855 126.912 59.9628 126.635C60.2488 126.358 60.3918 125.985 60.3918 125.517V124.061C60.3918 123.576 60.2532 123.194 59.9758 122.917C59.6985 122.64 59.3172 122.501 58.8318 122.501C58.3552 122.501 57.9738 122.64 57.6878 122.917C57.4105 123.194 57.2718 123.576 57.2718 124.061V125.517C57.2718 125.994 57.4105 126.371 57.6878 126.648C57.9738 126.917 58.3552 127.051 58.8318 127.051ZM65.5734 128.156C65.0274 128.156 64.5464 128.048 64.1304 127.831C63.7144 127.614 63.3937 127.311 63.1684 126.921C62.943 126.522 62.8304 126.063 62.8304 125.543V124.009C62.8304 123.489 62.943 123.034 63.1684 122.644C63.3937 122.245 63.7144 121.938 64.1304 121.721C64.5464 121.504 65.0274 121.396 65.5734 121.396C66.0847 121.396 66.5397 121.504 66.9384 121.721C67.3457 121.929 67.662 122.219 67.8874 122.592C68.1127 122.965 68.2254 123.389 68.2254 123.866V124.009H67.0554V123.866C67.0554 123.467 66.9167 123.142 66.6394 122.891C66.362 122.631 66.0067 122.501 65.5734 122.501C65.088 122.501 64.7067 122.64 64.4294 122.917C64.152 123.186 64.0134 123.558 64.0134 124.035V125.517C64.0134 125.994 64.152 126.371 64.4294 126.648C64.7067 126.917 65.088 127.051 65.5734 127.051C66.0067 127.051 66.362 126.93 66.6394 126.687C66.9167 126.436 67.0554 126.115 67.0554 125.725V125.582H68.2254V125.725C68.2254 126.453 67.9827 127.042 67.4974 127.493C67.012 127.935 66.3707 128.156 65.5734 128.156ZM74.5377 127.818V128H73.2637L71.6517 125.608L70.0397 128H68.7657V127.818L70.8847 124.75L68.8177 121.734V121.552H70.0917L71.6517 123.879L73.2117 121.552H74.4857V121.734L72.4057 124.75L74.5377 127.818ZM80.1921 124.711C80.5387 124.841 80.8031 125.032 80.9851 125.283C81.1757 125.534 81.2711 125.829 81.2711 126.167V126.349C81.2711 126.869 81.0804 127.276 80.6991 127.571C80.3177 127.857 79.7544 128 79.0091 128H75.7721V121.552H78.8531C79.6071 121.552 80.1704 121.695 80.5431 121.981C80.9157 122.258 81.1021 122.661 81.1021 123.19V123.359C81.1021 123.68 81.0241 123.957 80.8681 124.191C80.7121 124.416 80.4867 124.59 80.1921 124.711ZM76.9421 122.501V124.282H78.9311C79.2431 124.282 79.4857 124.208 79.6591 124.061C79.8411 123.905 79.9321 123.701 79.9321 123.45V123.307C79.9321 123.056 79.8411 122.861 79.6591 122.722C79.4857 122.575 79.2387 122.501 78.9181 122.501H76.9421ZM80.1011 126.05C80.1011 125.781 80.0101 125.578 79.8281 125.439C79.6461 125.292 79.3904 125.218 79.0611 125.218H76.9421V127.051H79.0741C79.3861 127.051 79.6331 126.977 79.8151 126.83C80.0057 126.674 80.1011 126.466 80.1011 126.206V126.05ZM88.762 126.934V128H88.073C87.761 128 87.488 127.948 87.254 127.844C87.0287 127.731 86.8553 127.571 86.734 127.363C86.2573 127.892 85.5813 128.156 84.706 128.156C84.0127 128.156 83.4623 127.991 83.055 127.662C82.6477 127.333 82.444 126.878 82.444 126.297C82.444 125.768 82.6173 125.352 82.964 125.049C83.3107 124.746 83.8437 124.546 84.563 124.451L86.5 124.191V123.775C86.5 123.359 86.3787 123.043 86.136 122.826C85.902 122.609 85.5553 122.501 85.096 122.501C84.6453 122.501 84.2943 122.609 84.043 122.826C83.8003 123.034 83.679 123.329 83.679 123.71V123.801H82.496V123.71C82.496 122.999 82.73 122.436 83.198 122.02C83.6747 121.604 84.3203 121.396 85.135 121.396C85.9497 121.396 86.578 121.608 87.02 122.033C87.462 122.449 87.683 123.038 87.683 123.801V126.284C87.683 126.717 87.891 126.934 88.307 126.934H88.762ZM84.784 127.142C85.1653 127.142 85.5033 127.06 85.798 126.895C86.1013 126.73 86.3353 126.505 86.5 126.219V125.114L84.758 125.374C83.9953 125.495 83.614 125.799 83.614 126.284C83.614 126.553 83.718 126.765 83.926 126.921C84.1427 127.068 84.4287 127.142 84.784 127.142ZM94.9641 128H93.7941V122.618H91.3111L91.2461 125.673C91.2288 126.47 91.0641 127.06 90.7521 127.441C90.4488 127.814 89.9808 128 89.3481 128H88.9971V126.934H89.2051C89.5258 126.934 89.7555 126.826 89.8941 126.609C90.0415 126.392 90.1238 126.041 90.1411 125.556L90.2321 121.552H94.9641V128ZM97.6302 125.205V125.517C97.6302 126.002 97.7689 126.384 98.0462 126.661C98.3322 126.93 98.7222 127.064 99.2162 127.064C99.6322 127.064 99.9789 126.96 100.256 126.752C100.542 126.544 100.69 126.288 100.698 125.985H101.868C101.834 126.626 101.574 127.151 101.088 127.558C100.603 127.957 99.9789 128.156 99.2162 128.156C98.3842 128.156 97.7169 127.922 97.2142 127.454C96.7116 126.977 96.4602 126.345 96.4602 125.556V124.009C96.4602 123.489 96.5729 123.034 96.7982 122.644C97.0236 122.245 97.3442 121.938 97.7602 121.721C98.1762 121.504 98.6529 121.396 99.1902 121.396C100.005 121.396 100.655 121.634 101.14 122.111C101.626 122.588 101.868 123.216 101.868 123.996V125.205H97.6302ZM99.1902 122.488C98.7136 122.488 98.3322 122.631 98.0462 122.917C97.7689 123.194 97.6302 123.571 97.6302 124.048V124.23H100.698V124.048C100.698 123.571 100.56 123.194 100.282 122.917C100.014 122.631 99.6496 122.488 99.1902 122.488ZM104.529 121.565V124.23H107.506V121.565H108.689V128H107.506V125.296H104.529V128H103.359V121.565H104.529ZM111.536 121.552V126.141L114.578 121.552H115.657V128H114.513V123.411L111.484 128H110.405V121.552H111.536ZM118.324 125.205V125.517C118.324 126.002 118.462 126.384 118.74 126.661C119.026 126.93 119.416 127.064 119.91 127.064C120.326 127.064 120.672 126.96 120.95 126.752C121.236 126.544 121.383 126.288 121.392 125.985H122.562C122.527 126.626 122.267 127.151 121.782 127.558C121.296 127.957 120.672 128.156 119.91 128.156C119.078 128.156 118.41 127.922 117.908 127.454C117.405 126.977 117.154 126.345 117.154 125.556V124.009C117.154 123.489 117.266 123.034 117.492 122.644C117.717 122.245 118.038 121.938 118.454 121.721C118.87 121.504 119.346 121.396 119.884 121.396C120.698 121.396 121.348 121.634 121.834 122.111C122.319 122.588 122.562 123.216 122.562 123.996V125.205H118.324ZM119.884 122.488C119.407 122.488 119.026 122.631 118.74 122.917C118.462 123.194 118.324 123.571 118.324 124.048V124.23H121.392V124.048C121.392 123.571 121.253 123.194 120.976 122.917C120.707 122.631 120.343 122.488 119.884 122.488Z" fill="#261E1E"/>
<g opacity="0.75">
<rect x="179" y="28" width="130" height="24" rx="4" fill="#F6C0B1"/>
<path d="M189.132 35.472V39.19H192.616V35.472H193.838V44H192.616V40.295H189.132V44H187.91V35.472H189.132ZM196.551 41.205V41.517C196.551 42.0023 196.69 42.3837 196.967 42.661C197.253 42.9297 197.643 43.064 198.137 43.064C198.553 43.064 198.9 42.96 199.177 42.752C199.463 42.544 199.61 42.2883 199.619 41.985H200.789C200.754 42.6263 200.494 43.1507 200.009 43.558C199.524 43.9567 198.9 44.156 198.137 44.156C197.305 44.156 196.638 43.922 196.135 43.454C195.632 42.9773 195.381 42.3447 195.381 41.556V40.009C195.381 39.489 195.494 39.034 195.719 38.644C195.944 38.2453 196.265 37.9377 196.681 37.721C197.097 37.5043 197.574 37.396 198.111 37.396C198.926 37.396 199.576 37.6343 200.061 38.111C200.546 38.5877 200.789 39.216 200.789 39.996V41.205H196.551ZM198.111 38.488C197.634 38.488 197.253 38.631 196.967 38.917C196.69 39.1943 196.551 39.5713 196.551 40.048V40.23H199.619V40.048C199.619 39.5713 199.48 39.1943 199.203 38.917C198.934 38.631 198.57 38.488 198.111 38.488ZM204.802 44.156C204.256 44.156 203.775 44.0477 203.359 43.831C202.943 43.6143 202.622 43.311 202.397 42.921C202.172 42.5223 202.059 42.063 202.059 41.543V40.009C202.059 39.489 202.172 39.034 202.397 38.644C202.622 38.2453 202.943 37.9377 203.359 37.721C203.775 37.5043 204.256 37.396 204.802 37.396C205.313 37.396 205.768 37.5043 206.167 37.721C206.574 37.929 206.891 38.2193 207.116 38.592C207.341 38.9647 207.454 39.3893 207.454 39.866V40.009H206.284V39.866C206.284 39.4673 206.145 39.1423 205.868 38.891C205.591 38.631 205.235 38.501 204.802 38.501C204.317 38.501 203.935 38.6397 203.658 38.917C203.381 39.1857 203.242 39.5583 203.242 40.035V41.517C203.242 41.9937 203.381 42.3707 203.658 42.648C203.935 42.9167 204.317 43.051 204.802 43.051C205.235 43.051 205.591 42.9297 205.868 42.687C206.145 42.4357 206.284 42.115 206.284 41.725V41.582H207.454V41.725C207.454 42.453 207.211 43.0423 206.726 43.493C206.241 43.935 205.599 44.156 204.802 44.156ZM211.403 44.156C210.579 44.156 209.921 43.9177 209.427 43.441C208.933 42.9643 208.686 42.3317 208.686 41.543V40.022C208.686 39.2247 208.933 38.5877 209.427 38.111C209.921 37.6343 210.579 37.396 211.403 37.396C212.235 37.396 212.898 37.6343 213.392 38.111C213.894 38.5877 214.146 39.2247 214.146 40.022V41.543C214.146 42.3317 213.894 42.9643 213.392 43.441C212.898 43.9177 212.235 44.156 211.403 44.156ZM211.416 43.051C211.892 43.051 212.269 42.9123 212.547 42.635C212.833 42.3577 212.976 41.985 212.976 41.517V40.061C212.976 39.5757 212.837 39.1943 212.56 38.917C212.282 38.6397 211.901 38.501 211.416 38.501C210.939 38.501 210.558 38.6397 210.272 38.917C209.994 39.1943 209.856 39.5757 209.856 40.061V41.517C209.856 41.9937 209.994 42.3707 210.272 42.648C210.558 42.9167 210.939 43.051 211.416 43.051ZM219.626 37.552V38.618H216.805V44H215.635V37.552H219.626ZM225.585 44H224.415V38.618H221.932L221.867 41.673C221.85 42.4703 221.685 43.0597 221.373 43.441C221.07 43.8137 220.602 44 219.969 44H219.618V42.934H219.826C220.147 42.934 220.377 42.8257 220.515 42.609C220.663 42.3923 220.745 42.0413 220.762 41.556L220.853 37.552H225.585V44ZM233.234 42.934V44H232.545C232.233 44 231.96 43.948 231.726 43.844C231.5 43.7313 231.327 43.571 231.206 43.363C230.729 43.8917 230.053 44.156 229.178 44.156C228.484 44.156 227.934 43.9913 227.527 43.662C227.119 43.3327 226.916 42.8777 226.916 42.297C226.916 41.7683 227.089 41.3523 227.436 41.049C227.782 40.7457 228.315 40.5463 229.035 40.451L230.972 40.191V39.775C230.972 39.359 230.85 39.0427 230.608 38.826C230.374 38.6093 230.027 38.501 229.568 38.501C229.117 38.501 228.766 38.6093 228.515 38.826C228.272 39.034 228.151 39.3287 228.151 39.71V39.801H226.968V39.71C226.968 38.9993 227.202 38.436 227.67 38.02C228.146 37.604 228.792 37.396 229.607 37.396C230.421 37.396 231.05 37.6083 231.492 38.033C231.934 38.449 232.155 39.0383 232.155 39.801V42.284C232.155 42.7173 232.363 42.934 232.779 42.934H233.234ZM229.256 43.142C229.637 43.142 229.975 43.0597 230.27 42.895C230.573 42.7303 230.807 42.505 230.972 42.219V41.114L229.23 41.374C228.467 41.4953 228.086 41.7987 228.086 42.284C228.086 42.5527 228.19 42.765 228.398 42.921C228.614 43.0683 228.9 43.142 229.256 43.142ZM236.68 44.156C236.134 44.156 235.653 44.0477 235.237 43.831C234.821 43.6143 234.5 43.311 234.275 42.921C234.049 42.5223 233.937 42.063 233.937 41.543V40.009C233.937 39.489 234.049 39.034 234.275 38.644C234.5 38.2453 234.821 37.9377 235.237 37.721C235.653 37.5043 236.134 37.396 236.68 37.396C237.191 37.396 237.646 37.5043 238.045 37.721C238.452 37.929 238.768 38.2193 238.994 38.592C239.219 38.9647 239.332 39.3893 239.332 39.866V40.009H238.162V39.866C238.162 39.4673 238.023 39.1423 237.746 38.891C237.468 38.631 237.113 38.501 236.68 38.501C236.194 38.501 235.813 38.6397 235.536 38.917C235.258 39.1857 235.12 39.5583 235.12 40.035V41.517C235.12 41.9937 235.258 42.3707 235.536 42.648C235.813 42.9167 236.194 43.051 236.68 43.051C237.113 43.051 237.468 42.9297 237.746 42.687C238.023 42.4357 238.162 42.115 238.162 41.725V41.582H239.332V41.725C239.332 42.453 239.089 43.0423 238.604 43.493C238.118 43.935 237.477 44.156 236.68 44.156ZM243.281 44.156C242.457 44.156 241.799 43.9177 241.305 43.441C240.811 42.9643 240.564 42.3317 240.564 41.543V40.022C240.564 39.2247 240.811 38.5877 241.305 38.111C241.799 37.6343 242.457 37.396 243.281 37.396C244.113 37.396 244.776 37.6343 245.27 38.111C245.772 38.5877 246.024 39.2247 246.024 40.022V41.543C246.024 42.3317 245.772 42.9643 245.27 43.441C244.776 43.9177 244.113 44.156 243.281 44.156ZM243.294 43.051C243.77 43.051 244.147 42.9123 244.425 42.635C244.711 42.3577 244.854 41.985 244.854 41.517V40.061C244.854 39.5757 244.715 39.1943 244.438 38.917C244.16 38.6397 243.779 38.501 243.294 38.501C242.817 38.501 242.436 38.6397 242.15 38.917C241.872 39.1943 241.734 39.5757 241.734 40.061V41.517C241.734 41.9937 241.872 42.3707 242.15 42.648C242.436 42.9167 242.817 43.051 243.294 43.051ZM251.933 40.711C252.28 40.841 252.544 41.0317 252.726 41.283C252.917 41.5343 253.012 41.829 253.012 42.167V42.349C253.012 42.869 252.822 43.2763 252.44 43.571C252.059 43.857 251.496 44 250.75 44H247.513V37.552H250.594C251.348 37.552 251.912 37.695 252.284 37.981C252.657 38.2583 252.843 38.6613 252.843 39.19V39.359C252.843 39.6797 252.765 39.957 252.609 40.191C252.453 40.4163 252.228 40.5897 251.933 40.711ZM248.683 38.501V40.282H250.672C250.984 40.282 251.227 40.2083 251.4 40.061C251.582 39.905 251.673 39.7013 251.673 39.45V39.307C251.673 39.0557 251.582 38.8607 251.4 38.722C251.227 38.5747 250.98 38.501 250.659 38.501H248.683ZM251.842 42.05C251.842 41.7813 251.751 41.5777 251.569 41.439C251.387 41.2917 251.132 41.218 250.802 41.218H248.683V43.051H250.815C251.127 43.051 251.374 42.9773 251.556 42.83C251.747 42.674 251.842 42.466 251.842 42.206V42.05ZM260.503 42.934V44H259.814C259.502 44 259.229 43.948 258.995 43.844C258.77 43.7313 258.597 43.571 258.475 43.363C257.999 43.8917 257.323 44.156 256.447 44.156C255.754 44.156 255.204 43.9913 254.796 43.662C254.389 43.3327 254.185 42.8777 254.185 42.297C254.185 41.7683 254.359 41.3523 254.705 41.049C255.052 40.7457 255.585 40.5463 256.304 40.451L258.241 40.191V39.775C258.241 39.359 258.12 39.0427 257.877 38.826C257.643 38.6093 257.297 38.501 256.837 38.501C256.387 38.501 256.036 38.6093 255.784 38.826C255.542 39.034 255.42 39.3287 255.42 39.71V39.801H254.237V39.71C254.237 38.9993 254.471 38.436 254.939 38.02C255.416 37.604 256.062 37.396 256.876 37.396C257.691 37.396 258.319 37.6083 258.761 38.033C259.203 38.449 259.424 39.0383 259.424 39.801V42.284C259.424 42.7173 259.632 42.934 260.048 42.934H260.503ZM256.525 43.142C256.907 43.142 257.245 43.0597 257.539 42.895C257.843 42.7303 258.077 42.505 258.241 42.219V41.114L256.499 41.374C255.737 41.4953 255.355 41.7987 255.355 42.284C255.355 42.5527 255.459 42.765 255.667 42.921C255.884 43.0683 256.17 43.142 256.525 43.142ZM262.597 37.565V40.23H265.574V37.565H266.757V44H265.574V41.296H262.597V44H261.427V37.565H262.597ZM269.643 37.565V40.23H272.62V37.565H273.803V44H272.62V41.296H269.643V44H268.473V37.565H269.643ZM278.015 44.156C277.192 44.156 276.533 43.9177 276.039 43.441C275.545 42.9643 275.298 42.3317 275.298 41.543V40.022C275.298 39.2247 275.545 38.5877 276.039 38.111C276.533 37.6343 277.192 37.396 278.015 37.396C278.847 37.396 279.51 37.6343 280.004 38.111C280.507 38.5877 280.758 39.2247 280.758 40.022V41.543C280.758 42.3317 280.507 42.9643 280.004 43.441C279.51 43.9177 278.847 44.156 278.015 44.156ZM278.028 43.051C278.505 43.051 278.882 42.9123 279.159 42.635C279.445 42.3577 279.588 41.985 279.588 41.517V40.061C279.588 39.5757 279.449 39.1943 279.172 38.917C278.895 38.6397 278.513 38.501 278.028 38.501C277.551 38.501 277.17 38.6397 276.884 38.917C276.607 39.1943 276.468 39.5757 276.468 40.061V41.517C276.468 41.9937 276.607 42.3707 276.884 42.648C277.17 42.9167 277.551 43.051 278.028 43.051ZM284.77 44.156C284.224 44.156 283.743 44.0477 283.327 43.831C282.911 43.6143 282.59 43.311 282.365 42.921C282.139 42.5223 282.027 42.063 282.027 41.543V40.009C282.027 39.489 282.139 39.034 282.365 38.644C282.59 38.2453 282.911 37.9377 283.327 37.721C283.743 37.5043 284.224 37.396 284.77 37.396C285.281 37.396 285.736 37.5043 286.135 37.721C286.542 37.929 286.858 38.2193 287.084 38.592C287.309 38.9647 287.422 39.3893 287.422 39.866V40.009H286.252V39.866C286.252 39.4673 286.113 39.1423 285.836 38.891C285.558 38.631 285.203 38.501 284.77 38.501C284.284 38.501 283.903 38.6397 283.626 38.917C283.348 39.1857 283.21 39.5583 283.21 40.035V41.517C283.21 41.9937 283.348 42.3707 283.626 42.648C283.903 42.9167 284.284 43.051 284.77 43.051C285.203 43.051 285.558 42.9297 285.836 42.687C286.113 42.4357 286.252 42.115 286.252 41.725V41.582H287.422V41.725C287.422 42.453 287.179 43.0423 286.694 43.493C286.208 43.935 285.567 44.156 284.77 44.156ZM287.956 38.618V37.552H293.429V38.618H291.284V44H290.101V38.618H287.956ZM297.633 39.788C298.318 39.788 298.864 39.9743 299.271 40.347C299.678 40.7197 299.882 41.2137 299.882 41.829V41.959C299.882 42.5743 299.678 43.0683 299.271 43.441C298.864 43.8137 298.318 44 297.633 44H294.435V37.552H295.605V39.788H297.633ZM298.712 41.842C298.712 41.53 298.612 41.2873 298.413 41.114C298.214 40.9407 297.936 40.854 297.581 40.854H295.605V42.934H297.581C297.936 42.934 298.214 42.8517 298.413 42.687C298.612 42.5137 298.712 42.2667 298.712 41.946V41.842Z" fill="#261E1E"/>
</g>
<g opacity="0.7">
<rect x="301" y="72" width="134" height="24" rx="4" fill="#F6C0B1"/>
<path d="M311.132 79.472V83.19H314.616V79.472H315.838V88H314.616V84.295H311.132V88H309.91V79.472H311.132ZM318.551 85.205V85.517C318.551 86.0023 318.69 86.3837 318.967 86.661C319.253 86.9297 319.643 87.064 320.137 87.064C320.553 87.064 320.9 86.96 321.177 86.752C321.463 86.544 321.61 86.2883 321.619 85.985H322.789C322.754 86.6263 322.494 87.1507 322.009 87.558C321.524 87.9567 320.9 88.156 320.137 88.156C319.305 88.156 318.638 87.922 318.135 87.454C317.632 86.9773 317.381 86.3447 317.381 85.556V84.009C317.381 83.489 317.494 83.034 317.719 82.644C317.944 82.2453 318.265 81.9377 318.681 81.721C319.097 81.5043 319.574 81.396 320.111 81.396C320.926 81.396 321.576 81.6343 322.061 82.111C322.546 82.5877 322.789 83.216 322.789 83.996V85.205H318.551ZM320.111 82.488C319.634 82.488 319.253 82.631 318.967 82.917C318.69 83.1943 318.551 83.5713 318.551 84.048V84.23H321.619V84.048C321.619 83.5713 321.48 83.1943 321.203 82.917C320.934 82.631 320.57 82.488 320.111 82.488ZM328.7 84.711C329.047 84.841 329.311 85.0317 329.493 85.283C329.684 85.5343 329.779 85.829 329.779 86.167V86.349C329.779 86.869 329.588 87.2763 329.207 87.571C328.826 87.857 328.262 88 327.517 88H324.28V81.552H327.361C328.115 81.552 328.678 81.695 329.051 81.981C329.424 82.2583 329.61 82.6613 329.61 83.19V83.359C329.61 83.6797 329.532 83.957 329.376 84.191C329.22 84.4163 328.995 84.5897 328.7 84.711ZM325.45 82.501V84.282H327.439C327.751 84.282 327.994 84.2083 328.167 84.061C328.349 83.905 328.44 83.7013 328.44 83.45V83.307C328.44 83.0557 328.349 82.8607 328.167 82.722C327.994 82.5747 327.747 82.501 327.426 82.501H325.45ZM328.609 86.05C328.609 85.7813 328.518 85.5777 328.336 85.439C328.154 85.2917 327.898 85.218 327.569 85.218H325.45V87.051H327.582C327.894 87.051 328.141 86.9773 328.323 86.83C328.514 86.674 328.609 86.466 328.609 86.206V86.05ZM333.695 88.156C332.871 88.156 332.213 87.9177 331.719 87.441C331.225 86.9643 330.978 86.3317 330.978 85.543V84.022C330.978 83.2247 331.225 82.5877 331.719 82.111C332.213 81.6343 332.871 81.396 333.695 81.396C334.527 81.396 335.19 81.6343 335.684 82.111C336.186 82.5877 336.438 83.2247 336.438 84.022V85.543C336.438 86.3317 336.186 86.9643 335.684 87.441C335.19 87.9177 334.527 88.156 333.695 88.156ZM333.708 87.051C334.184 87.051 334.561 86.9123 334.839 86.635C335.125 86.3577 335.268 85.985 335.268 85.517V84.061C335.268 83.5757 335.129 83.1943 334.852 82.917C334.574 82.6397 334.193 82.501 333.708 82.501C333.231 82.501 332.85 82.6397 332.564 82.917C332.286 83.1943 332.148 83.5757 332.148 84.061V85.517C332.148 85.9937 332.286 86.3707 332.564 86.648C332.85 86.9167 333.231 87.051 333.708 87.051ZM340.449 88.156C339.903 88.156 339.422 88.0477 339.006 87.831C338.59 87.6143 338.27 87.311 338.044 86.921C337.819 86.5223 337.706 86.063 337.706 85.543V84.009C337.706 83.489 337.819 83.034 338.044 82.644C338.27 82.2453 338.59 81.9377 339.006 81.721C339.422 81.5043 339.903 81.396 340.449 81.396C340.961 81.396 341.416 81.5043 341.814 81.721C342.222 81.929 342.538 82.2193 342.763 82.592C342.989 82.9647 343.101 83.3893 343.101 83.866V84.009H341.931V83.866C341.931 83.4673 341.793 83.1423 341.515 82.891C341.238 82.631 340.883 82.501 340.449 82.501C339.964 82.501 339.583 82.6397 339.305 82.917C339.028 83.1857 338.889 83.5583 338.889 84.035V85.517C338.889 85.9937 339.028 86.3707 339.305 86.648C339.583 86.9167 339.964 87.051 340.449 87.051C340.883 87.051 341.238 86.9297 341.515 86.687C341.793 86.4357 341.931 86.115 341.931 85.725V85.582H343.101V85.725C343.101 86.453 342.859 87.0423 342.373 87.493C341.888 87.935 341.247 88.156 340.449 88.156ZM349.845 81.552V88H348.662V82.618H345.724V88H344.554V81.552H349.845ZM354.5 81.396C355.254 81.396 355.856 81.63 356.307 82.098C356.758 82.5573 356.983 83.1727 356.983 83.944V85.608C356.983 86.3793 356.758 86.999 356.307 87.467C355.856 87.9263 355.254 88.156 354.5 88.156C353.781 88.156 353.191 87.9393 352.732 87.506V90.21H351.562V81.552H352.615L352.667 82.098C353.135 81.63 353.746 81.396 354.5 81.396ZM355.8 83.996C355.8 83.5367 355.661 83.1727 355.384 82.904C355.115 82.6353 354.747 82.501 354.279 82.501C353.941 82.501 353.633 82.579 353.356 82.735C353.087 82.8823 352.879 83.0903 352.732 83.359V86.206C352.879 86.466 353.087 86.674 353.356 86.83C353.625 86.9773 353.932 87.051 354.279 87.051C354.747 87.051 355.115 86.9167 355.384 86.648C355.661 86.3793 355.8 86.0153 355.8 85.556V83.996ZM359.599 81.552V86.141L362.641 81.552H363.72V88H362.576V83.411L359.547 88H358.468V81.552H359.599ZM366.569 81.552V86.141L369.611 81.552H370.69V88H369.546V83.411L366.517 88H365.438V81.552H366.569ZM379.532 81.552V88H378.44V83.138L378.284 83.606L376.438 88H375.515L373.669 83.606L373.5 83.112V88H372.408V81.552H373.955L375.97 86.375L377.985 81.552H379.532ZM386.048 81.552V88H384.865V85.79C384.276 85.9113 383.734 85.972 383.24 85.972C382.495 85.972 381.906 85.79 381.472 85.426C381.039 85.0533 380.822 84.5507 380.822 83.918V81.552H381.992V83.788C381.992 84.152 382.114 84.4293 382.356 84.62C382.608 84.8107 382.963 84.906 383.422 84.906C383.864 84.906 384.345 84.8583 384.865 84.763V81.552H386.048ZM388.9 81.552V86.141L391.942 81.552H393.021V88H391.877V83.411L388.848 88H387.769V81.552H388.9ZM399.159 84.711C399.506 84.841 399.77 85.0317 399.952 85.283C400.143 85.5343 400.238 85.829 400.238 86.167V86.349C400.238 86.869 400.047 87.2763 399.666 87.571C399.285 87.857 398.721 88 397.976 88H394.739V81.552H397.82C398.574 81.552 399.137 81.695 399.51 81.981C399.883 82.2583 400.069 82.6613 400.069 83.19V83.359C400.069 83.6797 399.991 83.957 399.835 84.191C399.679 84.4163 399.454 84.5897 399.159 84.711ZM395.909 82.501V84.282H397.898C398.21 84.282 398.453 84.2083 398.626 84.061C398.808 83.905 398.899 83.7013 398.899 83.45V83.307C398.899 83.0557 398.808 82.8607 398.626 82.722C398.453 82.5747 398.206 82.501 397.885 82.501H395.909ZM399.068 86.05C399.068 85.7813 398.977 85.5777 398.795 85.439C398.613 85.2917 398.357 85.218 398.028 85.218H395.909V87.051H398.041C398.353 87.051 398.6 86.9773 398.782 86.83C398.973 86.674 399.068 86.466 399.068 86.206V86.05ZM404.154 88.156C403.33 88.156 402.672 87.9177 402.178 87.441C401.684 86.9643 401.437 86.3317 401.437 85.543V84.022C401.437 83.2247 401.684 82.5877 402.178 82.111C402.672 81.6343 403.33 81.396 404.154 81.396C404.986 81.396 405.649 81.6343 406.143 82.111C406.645 82.5877 406.897 83.2247 406.897 84.022V85.543C406.897 86.3317 406.645 86.9643 406.143 87.441C405.649 87.9177 404.986 88.156 404.154 88.156ZM404.167 87.051C404.643 87.051 405.02 86.9123 405.298 86.635C405.584 86.3577 405.727 85.985 405.727 85.517V84.061C405.727 83.5757 405.588 83.1943 405.311 82.917C405.033 82.6397 404.652 82.501 404.167 82.501C403.69 82.501 403.309 82.6397 403.023 82.917C402.745 83.1943 402.607 83.5757 402.607 84.061V85.517C402.607 85.9937 402.745 86.3707 403.023 86.648C403.309 86.9167 403.69 87.051 404.167 87.051ZM410.908 88.156C410.362 88.156 409.881 88.0477 409.465 87.831C409.049 87.6143 408.729 87.311 408.503 86.921C408.278 86.5223 408.165 86.063 408.165 85.543V84.009C408.165 83.489 408.278 83.034 408.503 82.644C408.729 82.2453 409.049 81.9377 409.465 81.721C409.881 81.5043 410.362 81.396 410.908 81.396C411.42 81.396 411.875 81.5043 412.273 81.721C412.681 81.929 412.997 82.2193 413.222 82.592C413.448 82.9647 413.56 83.3893 413.56 83.866V84.009H412.39V83.866C412.39 83.4673 412.252 83.1423 411.974 82.891C411.697 82.631 411.342 82.501 410.908 82.501C410.423 82.501 410.042 82.6397 409.764 82.917C409.487 83.1857 409.348 83.5583 409.348 84.035V85.517C409.348 85.9937 409.487 86.3707 409.764 86.648C410.042 86.9167 410.423 87.051 410.908 87.051C411.342 87.051 411.697 86.9297 411.974 86.687C412.252 86.4357 412.39 86.115 412.39 85.725V85.582H413.56V85.725C413.56 86.453 413.318 87.0423 412.832 87.493C412.347 87.935 411.706 88.156 410.908 88.156ZM414.095 82.618V81.552H419.568V82.618H417.423V88H416.24V82.618H414.095ZM423.772 83.788C424.456 83.788 425.002 83.9743 425.41 84.347C425.817 84.7197 426.021 85.2137 426.021 85.829V85.959C426.021 86.5743 425.817 87.0683 425.41 87.441C425.002 87.8137 424.456 88 423.772 88H420.574V81.552H421.744V83.788H423.772ZM424.851 85.842C424.851 85.53 424.751 85.2873 424.552 85.114C424.352 84.9407 424.075 84.854 423.72 84.854H421.744V86.934H423.72C424.075 86.934 424.352 86.8517 424.552 86.687C424.751 86.5137 424.851 86.2667 424.851 85.946V85.842Z" fill="#261E1E"/>
</g>
<defs>
<linearGradient id="paint0_linear_2816_83447" x1="448.531" y1="35.3985" x2="-0.937705" y2="35.3985" gradientUnits="userSpaceOnUse">
<stop stop-color="#F6C0B1" stop-opacity="0"/>
<stop offset="0.302083" stop-color="#F6C0B1"/>
</linearGradient>
</defs>
</svg>
