<svg width="458" height="172" viewBox="0 0 458 172" fill="none" xmlns="http://www.w3.org/2000/svg">
<line opacity="0.1" x1="2" y1="111.847" x2="450" y2="111.847" stroke="#966F7B"/>
<path opacity="0.1" d="M2 4C2 1.79086 3.79086 0 6 0H68.9703C71.1794 0 72.9703 1.79086 72.9703 4V19.8613C72.9703 22.0704 71.1794 23.8613 68.9703 23.8613H6C3.79087 23.8613 2 22.0704 2 19.8613V4Z" fill="#F6C0B1"/>
<path opacity="0.1" d="M2 31.8381C2 29.629 3.79086 27.8381 6 27.8381H68.9703C71.1794 27.8381 72.9703 29.629 72.9703 31.8381V47.6994C72.9703 49.9085 71.1794 51.6994 68.9703 51.6994H6C3.79087 51.6994 2 49.9085 2 47.6994V31.8381Z" fill="#F6C0B1"/>
<path opacity="0.1" d="M2 59.6763C2 57.4671 3.79086 55.6763 6 55.6763H68.9703C71.1794 55.6763 72.9703 57.4671 72.9703 59.6763V75.5375C72.9703 77.7467 71.1794 79.5375 68.9703 79.5375H6C3.79087 79.5375 2 77.7467 2 75.5375V59.6763Z" fill="#F6C0B1"/>
<path opacity="0.1" d="M2 87.5144C2 85.3053 3.79086 83.5144 6 83.5144H68.9703C71.1794 83.5144 72.9703 85.3053 72.9703 87.5144V103.376C72.9703 105.585 71.1794 107.376 68.9703 107.376H6C3.79087 107.376 2 105.585 2 103.376V87.5144Z" fill="#F6C0B1"/>
<path opacity="0.1" d="M2 120.324C2 118.115 3.79086 116.324 6 116.324H68.9703C71.1794 116.324 72.9703 118.115 72.9703 120.324V136.185C72.9703 138.394 71.1794 140.185 68.9703 140.185H6C3.79087 140.185 2 138.394 2 136.185V120.324Z" fill="#F6C0B1"/>
<path opacity="0.1" d="M2 148.162C2 145.953 3.79086 144.162 6 144.162H68.9703C71.1794 144.162 72.9703 145.953 72.9703 148.162V164.023C72.9703 166.232 71.1794 168.023 68.9703 168.023H6C3.79087 168.023 2 166.232 2 164.023V148.162Z" fill="#F6C0B1"/>
<path opacity="0.1" d="M77.4062 4C77.4062 1.79086 79.1971 0 81.4063 0H144.377C146.586 0 148.377 1.79086 148.377 4V19.8613C148.377 22.0704 146.586 23.8613 144.377 23.8613H81.4063C79.1971 23.8613 77.4062 22.0704 77.4062 19.8613V4Z" fill="#F6C0B1"/>
<path opacity="0.1" d="M77.4062 31.8381C77.4062 29.629 79.1971 27.8381 81.4063 27.8381H144.377C146.586 27.8381 148.377 29.629 148.377 31.8381V47.6994C148.377 49.9085 146.586 51.6994 144.377 51.6994H81.4063C79.1971 51.6994 77.4062 49.9085 77.4062 47.6994V31.8381Z" fill="#F6C0B1"/>
<path opacity="0.1" d="M77.4062 59.6763C77.4062 57.4671 79.1971 55.6763 81.4063 55.6763H144.377C146.586 55.6763 148.377 57.4671 148.377 59.6763V75.5375C148.377 77.7467 146.586 79.5375 144.377 79.5375H81.4063C79.1971 79.5375 77.4062 77.7467 77.4062 75.5375V59.6763Z" fill="#F6C0B1"/>
<path opacity="0.1" d="M77.4062 87.5144C77.4062 85.3053 79.1971 83.5144 81.4063 83.5144H144.377C146.586 83.5144 148.377 85.3053 148.377 87.5144V103.376C148.377 105.585 146.586 107.376 144.377 107.376H81.4063C79.1971 107.376 77.4062 105.585 77.4062 103.376V87.5144Z" fill="#F6C0B1"/>
<path opacity="0.1" d="M77.4062 120.324C77.4062 118.115 79.1971 116.324 81.4063 116.324H144.377C146.586 116.324 148.377 118.115 148.377 120.324V136.185C148.377 138.394 146.586 140.185 144.377 140.185H81.4063C79.1971 140.185 77.4062 138.394 77.4062 136.185V120.324Z" fill="#F6C0B1"/>
<path opacity="0.1" d="M77.4062 148.162C77.4062 145.953 79.1971 144.162 81.4063 144.162H144.377C146.586 144.162 148.377 145.953 148.377 148.162V164.023C148.377 166.232 146.586 168.023 144.377 168.023H81.4063C79.1971 168.023 77.4062 166.232 77.4062 164.023V148.162Z" fill="#F6C0B1"/>
<path opacity="0.1" d="M152.812 4C152.812 1.79086 154.602 0 156.812 0H219.782C221.991 0 223.782 1.79086 223.782 4V19.8613C223.782 22.0704 221.991 23.8613 219.782 23.8613H156.812C154.602 23.8613 152.812 22.0704 152.812 19.8613V4Z" fill="#F6C0B1"/>
<path opacity="0.1" d="M152.812 31.8381C152.812 29.629 154.602 27.8381 156.812 27.8381H219.782C221.991 27.8381 223.782 29.629 223.782 31.8381V47.6994C223.782 49.9085 221.991 51.6994 219.782 51.6994H156.812C154.602 51.6994 152.812 49.9085 152.812 47.6994V31.8381Z" fill="#F6C0B1"/>
<path opacity="0.1" d="M152.812 59.6763C152.812 57.4671 154.602 55.6763 156.812 55.6763H219.782C221.991 55.6763 223.782 57.4671 223.782 59.6763V75.5375C223.782 77.7467 221.991 79.5375 219.782 79.5375H156.812C154.602 79.5375 152.812 77.7467 152.812 75.5375V59.6763Z" fill="#F6C0B1"/>
<path opacity="0.1" d="M152.812 87.5144C152.812 85.3053 154.602 83.5144 156.812 83.5144H219.782C221.991 83.5144 223.782 85.3053 223.782 87.5144V103.376C223.782 105.585 221.991 107.376 219.782 107.376H156.812C154.602 107.376 152.812 105.585 152.812 103.376V87.5144Z" fill="#F6C0B1"/>
<path opacity="0.1" d="M152.812 120.324C152.812 118.115 154.602 116.324 156.812 116.324H219.782C221.991 116.324 223.782 118.115 223.782 120.324V136.185C223.782 138.394 221.991 140.185 219.782 140.185H156.812C154.602 140.185 152.812 138.394 152.812 136.185V120.324Z" fill="#F6C0B1"/>
<path opacity="0.1" d="M152.812 148.162C152.812 145.953 154.602 144.162 156.812 144.162H219.782C221.991 144.162 223.782 145.953 223.782 148.162V164.023C223.782 166.232 221.991 168.023 219.782 168.023H156.812C154.602 168.023 152.812 166.232 152.812 164.023V148.162Z" fill="#F6C0B1"/>
<path opacity="0.1" d="M228.218 4C228.218 1.79086 230.009 0 232.218 0H295.188C297.397 0 299.188 1.79086 299.188 4V19.8613C299.188 22.0704 297.397 23.8613 295.188 23.8613H232.218C230.009 23.8613 228.218 22.0704 228.218 19.8613V4Z" fill="#F6C0B1"/>
<path opacity="0.1" d="M228.218 31.8381C228.218 29.629 230.009 27.8381 232.218 27.8381H295.188C297.397 27.8381 299.188 29.629 299.188 31.8381V47.6994C299.188 49.9085 297.397 51.6994 295.188 51.6994H232.218C230.009 51.6994 228.218 49.9085 228.218 47.6994V31.8381Z" fill="#F6C0B1"/>
<path opacity="0.1" d="M228.218 59.6763C228.218 57.4671 230.009 55.6763 232.218 55.6763H295.188C297.397 55.6763 299.188 57.4671 299.188 59.6763V75.5375C299.188 77.7467 297.397 79.5375 295.188 79.5375H232.218C230.009 79.5375 228.218 77.7467 228.218 75.5375V59.6763Z" fill="#F6C0B1"/>
<path opacity="0.1" d="M228.218 87.5144C228.218 85.3053 230.009 83.5144 232.218 83.5144H295.188C297.397 83.5144 299.188 85.3053 299.188 87.5144V103.376C299.188 105.585 297.397 107.376 295.188 107.376H232.218C230.009 107.376 228.218 105.585 228.218 103.376V87.5144Z" fill="#F6C0B1"/>
<path opacity="0.1" d="M228.218 120.324C228.218 118.115 230.009 116.324 232.218 116.324H295.188C297.397 116.324 299.188 118.115 299.188 120.324V136.185C299.188 138.394 297.397 140.185 295.188 140.185H232.218C230.009 140.185 228.218 138.394 228.218 136.185V120.324Z" fill="#F6C0B1"/>
<path opacity="0.1" d="M228.218 148.162C228.218 145.953 230.009 144.162 232.218 144.162H295.188C297.397 144.162 299.188 145.953 299.188 148.162V164.023C299.188 166.232 297.397 168.023 295.188 168.023H232.218C230.009 168.023 228.218 166.232 228.218 164.023V148.162Z" fill="#F6C0B1"/>
<path opacity="0.1" d="M303.624 4C303.624 1.79086 305.415 0 307.624 0H370.594C372.803 0 374.594 1.79086 374.594 4V19.8613C374.594 22.0704 372.803 23.8613 370.594 23.8613H307.624C305.415 23.8613 303.624 22.0704 303.624 19.8613V4Z" fill="#F6C0B1"/>
<path opacity="0.1" d="M303.624 31.8381C303.624 29.629 305.415 27.8381 307.624 27.8381H370.594C372.803 27.8381 374.594 29.629 374.594 31.8381V47.6994C374.594 49.9085 372.803 51.6994 370.594 51.6994H307.624C305.415 51.6994 303.624 49.9085 303.624 47.6994V31.8381Z" fill="#F6C0B1"/>
<path opacity="0.1" d="M303.624 59.6763C303.624 57.4671 305.415 55.6763 307.624 55.6763H370.594C372.803 55.6763 374.594 57.4671 374.594 59.6763V75.5375C374.594 77.7467 372.803 79.5375 370.594 79.5375H307.624C305.415 79.5375 303.624 77.7467 303.624 75.5375V59.6763Z" fill="#F6C0B1"/>
<path opacity="0.1" d="M303.624 87.5144C303.624 85.3053 305.415 83.5144 307.624 83.5144H370.594C372.803 83.5144 374.594 85.3053 374.594 87.5144V103.376C374.594 105.585 372.803 107.376 370.594 107.376H307.624C305.415 107.376 303.624 105.585 303.624 103.376V87.5144Z" fill="#F6C0B1"/>
<path opacity="0.1" d="M303.624 120.324C303.624 118.115 305.415 116.324 307.624 116.324H370.594C372.803 116.324 374.594 118.115 374.594 120.324V136.185C374.594 138.394 372.803 140.185 370.594 140.185H307.624C305.415 140.185 303.624 138.394 303.624 136.185V120.324Z" fill="#F6C0B1"/>
<path opacity="0.1" d="M303.624 148.162C303.624 145.953 305.415 144.162 307.624 144.162H370.594C372.803 144.162 374.594 145.953 374.594 148.162V164.023C374.594 166.232 372.803 168.023 370.594 168.023H307.624C305.415 168.023 303.624 166.232 303.624 164.023V148.162Z" fill="#F6C0B1"/>
<path opacity="0.1" d="M379.029 4C379.029 1.79086 380.82 0 383.029 0H446C448.209 0 450 1.79086 450 4V19.8613C450 22.0704 448.209 23.8613 446 23.8613H383.029C380.82 23.8613 379.029 22.0704 379.029 19.8613V4Z" fill="#F6C0B1"/>
<path opacity="0.1" d="M379.029 31.8381C379.029 29.629 380.82 27.8381 383.029 27.8381H446C448.209 27.8381 450 29.629 450 31.8381V47.6994C450 49.9085 448.209 51.6994 446 51.6994H383.029C380.82 51.6994 379.029 49.9085 379.029 47.6994V31.8381Z" fill="#F6C0B1"/>
<path opacity="0.1" d="M379.029 59.6763C379.029 57.4671 380.82 55.6763 383.029 55.6763H446C448.209 55.6763 450 57.4671 450 59.6763V75.5375C450 77.7467 448.209 79.5375 446 79.5375H383.029C380.82 79.5375 379.029 77.7467 379.029 75.5375V59.6763Z" fill="#F6C0B1"/>
<path opacity="0.1" d="M379.029 87.5144C379.029 85.3053 380.82 83.5144 383.029 83.5144H446C448.209 83.5144 450 85.3053 450 87.5144V103.376C450 105.585 448.209 107.376 446 107.376H383.029C380.82 107.376 379.029 105.585 379.029 103.376V87.5144Z" fill="#F6C0B1"/>
<path opacity="0.1" d="M379.029 120.324C379.029 118.115 380.82 116.324 383.029 116.324H446C448.209 116.324 450 118.115 450 120.324V136.185C450 138.394 448.209 140.185 446 140.185H383.029C380.82 140.185 379.029 138.394 379.029 136.185V120.324Z" fill="#F6C0B1"/>
<path opacity="0.1" d="M379.029 148.162C379.029 145.953 380.82 144.162 383.029 144.162H446C448.209 144.162 450 145.953 450 148.162V164.023C450 166.232 448.209 168.023 446 168.023H383.029C380.82 168.023 379.029 166.232 379.029 164.023V148.162Z" fill="#F6C0B1"/>
<path d="M2 108.031L74.0837 84.0052L148.995 57.8505L213.633 35.9898C220.571 33.6434 228.216 36.3071 232.194 42.4566L291.879 134.73C297.117 142.829 308.278 144.486 315.644 138.258L367.223 94.6471C373.071 89.703 381.602 89.5953 387.572 94.3902L450 144.526" stroke="url(#paint0_linear_2816_83591)" stroke-width="4" stroke-linecap="round" stroke-linejoin="round"/>
<rect x="37" y="116" width="101" height="24" rx="4" fill="#F6C0B1"/>
<path d="M49.056 132.156C48.406 132.156 47.834 132.026 47.34 131.766C46.846 131.506 46.4603 131.138 46.183 130.661C45.9143 130.184 45.78 129.638 45.78 129.023V126.475C45.78 125.851 45.9143 125.301 46.183 124.824C46.4603 124.347 46.846 123.979 47.34 123.719C47.834 123.45 48.406 123.316 49.056 123.316C49.68 123.316 50.2347 123.446 50.72 123.706C51.214 123.957 51.5953 124.313 51.864 124.772C52.1413 125.223 52.28 125.743 52.28 126.332V126.644H51.071V126.332C51.071 125.743 50.889 125.283 50.525 124.954C50.1697 124.616 49.6757 124.447 49.043 124.447C48.393 124.447 47.8903 124.629 47.535 124.993C47.1797 125.348 47.002 125.855 47.002 126.514V128.971C47.002 129.63 47.1797 130.137 47.535 130.492C47.8903 130.847 48.393 131.025 49.043 131.025C49.6757 131.025 50.1697 130.86 50.525 130.531C50.889 130.193 51.071 129.729 51.071 129.14V128.815H52.28V129.14C52.28 129.729 52.1413 130.254 51.864 130.713C51.5953 131.164 51.214 131.519 50.72 131.779C50.2347 132.03 49.68 132.156 49.056 132.156ZM59.8255 130.934V132H59.1365C58.8245 132 58.5515 131.948 58.3175 131.844C58.0922 131.731 57.9188 131.571 57.7975 131.363C57.3208 131.892 56.6448 132.156 55.7695 132.156C55.0762 132.156 54.5258 131.991 54.1185 131.662C53.7112 131.333 53.5075 130.878 53.5075 130.297C53.5075 129.768 53.6808 129.352 54.0275 129.049C54.3742 128.746 54.9072 128.546 55.6265 128.451L57.5635 128.191V127.775C57.5635 127.359 57.4422 127.043 57.1995 126.826C56.9655 126.609 56.6188 126.501 56.1595 126.501C55.7088 126.501 55.3578 126.609 55.1065 126.826C54.8638 127.034 54.7425 127.329 54.7425 127.71V127.801H53.5595V127.71C53.5595 126.999 53.7935 126.436 54.2615 126.02C54.7382 125.604 55.3838 125.396 56.1985 125.396C57.0132 125.396 57.6415 125.608 58.0835 126.033C58.5255 126.449 58.7465 127.038 58.7465 127.801V130.284C58.7465 130.717 58.9545 130.934 59.3705 130.934H59.8255ZM55.8475 131.142C56.2288 131.142 56.5668 131.06 56.8615 130.895C57.1648 130.73 57.3988 130.505 57.5635 130.219V129.114L55.8215 129.374C55.0588 129.495 54.6775 129.799 54.6775 130.284C54.6775 130.553 54.7815 130.765 54.9895 130.921C55.2062 131.068 55.4922 131.142 55.8475 131.142ZM67.8736 125.552V132H66.7816V127.138L66.6256 127.606L64.7796 132H63.8566L62.0106 127.606L61.8416 127.112V132H60.7496V125.552H62.2966L64.3116 130.375L66.3266 125.552H67.8736ZM72.0815 132.156C71.2582 132.156 70.5995 131.918 70.1055 131.441C69.6115 130.964 69.3645 130.332 69.3645 129.543V128.022C69.3645 127.225 69.6115 126.588 70.1055 126.111C70.5995 125.634 71.2582 125.396 72.0815 125.396C72.9135 125.396 73.5765 125.634 74.0705 126.111C74.5732 126.588 74.8245 127.225 74.8245 128.022V129.543C74.8245 130.332 74.5732 130.964 74.0705 131.441C73.5765 131.918 72.9135 132.156 72.0815 132.156ZM72.0945 131.051C72.5712 131.051 72.9482 130.912 73.2255 130.635C73.5115 130.358 73.6545 129.985 73.6545 129.517V128.061C73.6545 127.576 73.5159 127.194 73.2385 126.917C72.9612 126.64 72.5799 126.501 72.0945 126.501C71.6179 126.501 71.2365 126.64 70.9505 126.917C70.6732 127.194 70.5345 127.576 70.5345 128.061V129.517C70.5345 129.994 70.6732 130.371 70.9505 130.648C71.2365 130.917 71.6179 131.051 72.0945 131.051ZM82.5541 130.934V133.703H81.3711V132H76.3141V125.552H77.4841V130.934H80.4091V125.552H81.5921V130.934H82.5541ZM84.4232 129.205V129.517C84.4232 130.002 84.5619 130.384 84.8392 130.661C85.1252 130.93 85.5152 131.064 86.0092 131.064C86.4252 131.064 86.7719 130.96 87.0492 130.752C87.3352 130.544 87.4825 130.288 87.4912 129.985H88.6612C88.6265 130.626 88.3665 131.151 87.8812 131.558C87.3959 131.957 86.7719 132.156 86.0092 132.156C85.1772 132.156 84.5099 131.922 84.0072 131.454C83.5045 130.977 83.2532 130.345 83.2532 129.556V128.009C83.2532 127.489 83.3659 127.034 83.5912 126.644C83.8165 126.245 84.1372 125.938 84.5532 125.721C84.9692 125.504 85.4459 125.396 85.9832 125.396C86.7979 125.396 87.4479 125.634 87.9332 126.111C88.4185 126.588 88.6612 127.216 88.6612 127.996V129.205H84.4232ZM85.9832 126.488C85.5065 126.488 85.1252 126.631 84.8392 126.917C84.5619 127.194 84.4232 127.571 84.4232 128.048V128.23H87.4912V128.048C87.4912 127.571 87.3525 127.194 87.0752 126.917C86.8065 126.631 86.4425 126.488 85.9832 126.488ZM91.3219 125.565V128.23H94.2989V125.565H95.4819V132H94.2989V129.296H91.3219V132H90.1519V125.565H91.3219ZM98.3678 125.565V128.23H101.345V125.565H102.528V132H101.345V129.296H98.3678V132H97.1978V125.565H98.3678ZM106.74 132.156C105.916 132.156 105.258 131.918 104.764 131.441C104.27 130.964 104.023 130.332 104.023 129.543V128.022C104.023 127.225 104.27 126.588 104.764 126.111C105.258 125.634 105.916 125.396 106.74 125.396C107.572 125.396 108.235 125.634 108.729 126.111C109.231 126.588 109.483 127.225 109.483 128.022V129.543C109.483 130.332 109.231 130.964 108.729 131.441C108.235 131.918 107.572 132.156 106.74 132.156ZM106.753 131.051C107.229 131.051 107.606 130.912 107.884 130.635C108.17 130.358 108.313 129.985 108.313 129.517V128.061C108.313 127.576 108.174 127.194 107.897 126.917C107.619 126.64 107.238 126.501 106.753 126.501C106.276 126.501 105.895 126.64 105.609 126.917C105.331 127.194 105.193 127.576 105.193 128.061V129.517C105.193 129.994 105.331 130.371 105.609 130.648C105.895 130.917 106.276 131.051 106.753 131.051ZM113.494 132.156C112.948 132.156 112.467 132.048 112.051 131.831C111.635 131.614 111.315 131.311 111.089 130.921C110.864 130.522 110.751 130.063 110.751 129.543V128.009C110.751 127.489 110.864 127.034 111.089 126.644C111.315 126.245 111.635 125.938 112.051 125.721C112.467 125.504 112.948 125.396 113.494 125.396C114.006 125.396 114.461 125.504 114.859 125.721C115.267 125.929 115.583 126.219 115.808 126.592C116.034 126.965 116.146 127.389 116.146 127.866V128.009H114.976V127.866C114.976 127.467 114.838 127.142 114.56 126.891C114.283 126.631 113.928 126.501 113.494 126.501C113.009 126.501 112.628 126.64 112.35 126.917C112.073 127.186 111.934 127.558 111.934 128.035V129.517C111.934 129.994 112.073 130.371 112.35 130.648C112.628 130.917 113.009 131.051 113.494 131.051C113.928 131.051 114.283 130.93 114.56 130.687C114.838 130.436 114.976 130.115 114.976 129.725V129.582H116.146V129.725C116.146 130.453 115.904 131.042 115.418 131.493C114.933 131.935 114.292 132.156 113.494 132.156ZM116.681 126.618V125.552H122.154V126.618H120.009V132H118.826V126.618H116.681ZM126.358 127.788C127.042 127.788 127.588 127.974 127.996 128.347C128.403 128.72 128.607 129.214 128.607 129.829V129.959C128.607 130.574 128.403 131.068 127.996 131.441C127.588 131.814 127.042 132 126.358 132H123.16V125.552H124.33V127.788H126.358ZM127.437 129.842C127.437 129.53 127.337 129.287 127.138 129.114C126.938 128.941 126.661 128.854 126.306 128.854H124.33V130.934H126.306C126.661 130.934 126.938 130.852 127.138 130.687C127.337 130.514 127.437 130.267 127.437 129.946V129.842Z" fill="#261E1E"/>
<g opacity="0.75">
<rect x="177" y="68" width="58" height="24" rx="4" fill="#F6C0B1"/>
<path d="M191.799 75.472V84H190.577V76.577H187.132V84H185.91V75.472H191.799ZM196.06 84.156C195.237 84.156 194.578 83.9177 194.084 83.441C193.59 82.9643 193.343 82.3317 193.343 81.543V80.022C193.343 79.2247 193.59 78.5877 194.084 78.111C194.578 77.6343 195.237 77.396 196.06 77.396C196.892 77.396 197.555 77.6343 198.049 78.111C198.552 78.5877 198.803 79.2247 198.803 80.022V81.543C198.803 82.3317 198.552 82.9643 198.049 83.441C197.555 83.9177 196.892 84.156 196.06 84.156ZM196.073 83.051C196.55 83.051 196.927 82.9123 197.204 82.635C197.49 82.3577 197.633 81.985 197.633 81.517V80.061C197.633 79.5757 197.494 79.1943 197.217 78.917C196.94 78.6397 196.558 78.501 196.073 78.501C195.596 78.501 195.215 78.6397 194.929 78.917C194.652 79.1943 194.513 79.5757 194.513 80.061V81.517C194.513 81.9937 194.652 82.3707 194.929 82.648C195.215 82.9167 195.596 83.051 196.073 83.051ZM206.54 82.934V85.703H205.357V84H200.638V85.703H199.468V82.934H200.274C200.604 82.3187 200.777 81.5907 200.794 80.75L200.833 77.552H205.578V82.934H206.54ZM204.408 82.934V78.618H201.925L201.886 80.802C201.869 81.6167 201.717 82.3273 201.431 82.934H204.408ZM212.076 80.711C212.423 80.841 212.687 81.0317 212.869 81.283C213.06 81.5343 213.155 81.829 213.155 82.167V82.349C213.155 82.869 212.964 83.2763 212.583 83.571C212.202 83.857 211.638 84 210.893 84H207.656V77.552H210.737C211.491 77.552 212.054 77.695 212.427 77.981C212.8 78.2583 212.986 78.6613 212.986 79.19V79.359C212.986 79.6797 212.908 79.957 212.752 80.191C212.596 80.4163 212.371 80.5897 212.076 80.711ZM208.826 78.501V80.282H210.815C211.127 80.282 211.37 80.2083 211.543 80.061C211.725 79.905 211.816 79.7013 211.816 79.45V79.307C211.816 79.0557 211.725 78.8607 211.543 78.722C211.37 78.5747 211.123 78.501 210.802 78.501H208.826ZM211.985 82.05C211.985 81.7813 211.894 81.5777 211.712 81.439C211.53 81.2917 211.274 81.218 210.945 81.218H208.826V83.051H210.958C211.27 83.051 211.517 82.9773 211.699 82.83C211.89 82.674 211.985 82.466 211.985 82.206V82.05ZM217.071 84.156C216.247 84.156 215.589 83.9177 215.095 83.441C214.601 82.9643 214.354 82.3317 214.354 81.543V80.022C214.354 79.2247 214.601 78.5877 215.095 78.111C215.589 77.6343 216.247 77.396 217.071 77.396C217.903 77.396 218.566 77.6343 219.06 78.111C219.562 78.5877 219.814 79.2247 219.814 80.022V81.543C219.814 82.3317 219.562 82.9643 219.06 83.441C218.566 83.9177 217.903 84.156 217.071 84.156ZM217.084 83.051C217.56 83.051 217.937 82.9123 218.215 82.635C218.501 82.3577 218.644 81.985 218.644 81.517V80.061C218.644 79.5757 218.505 79.1943 218.228 78.917C217.95 78.6397 217.569 78.501 217.084 78.501C216.607 78.501 216.226 78.6397 215.94 78.917C215.662 79.1943 215.524 79.5757 215.524 80.061V81.517C215.524 81.9937 215.662 82.3707 215.94 82.648C216.226 82.9167 216.607 83.051 217.084 83.051ZM226.163 83.818V84H224.889L223.277 81.608L221.665 84H220.391V83.818L222.51 80.75L220.443 77.734V77.552H221.717L223.277 79.879L224.837 77.552H226.111V77.734L224.031 80.75L226.163 83.818Z" fill="#261E1E"/>
</g>
<g opacity="0.7">
<rect x="325" y="52" width="74" height="24" rx="4" fill="#F6C0B1"/>
<path d="M340.007 59.472V59.667L337.29 66.518C337.073 67.0553 336.809 67.4367 336.497 67.662C336.194 67.8873 335.769 68 335.223 68H334.131V66.895H335.158C335.401 66.895 335.596 66.8517 335.743 66.765C335.89 66.6783 336.02 66.5007 336.133 66.232L333.338 59.667V59.472H334.56L336.757 64.802L338.785 59.472H340.007ZM341.515 61.565V64.23H344.492V61.565H345.675V68H344.492V65.296H341.515V68H340.345V61.565H341.515ZM348.522 61.552V66.141L351.564 61.552H352.643V68H351.499V63.411L348.47 68H347.391V61.552H348.522ZM363.266 67.818V68H362.031L360.211 65.296H359.158V68H357.988V65.296H356.935L355.115 68H353.88V67.818L355.908 64.75L353.984 61.734V61.552H355.219L356.948 64.256H357.988V61.552H359.158V64.256H360.185L361.927 61.552H363.162V61.734L361.225 64.75L363.266 67.818ZM365.022 65.205V65.517C365.022 66.0023 365.161 66.3837 365.438 66.661C365.724 66.9297 366.114 67.064 366.608 67.064C367.024 67.064 367.371 66.96 367.648 66.752C367.934 66.544 368.081 66.2883 368.09 65.985H369.26C369.225 66.6263 368.965 67.1507 368.48 67.558C367.995 67.9567 367.371 68.156 366.608 68.156C365.776 68.156 365.109 67.922 364.606 67.454C364.103 66.9773 363.852 66.3447 363.852 65.556V64.009C363.852 63.489 363.965 63.034 364.19 62.644C364.415 62.2453 364.736 61.9377 365.152 61.721C365.568 61.5043 366.045 61.396 366.582 61.396C367.397 61.396 368.047 61.6343 368.532 62.111C369.017 62.5877 369.26 63.216 369.26 63.996V65.205H365.022ZM366.582 62.488C366.105 62.488 365.724 62.631 365.438 62.917C365.161 63.1943 365.022 63.5713 365.022 64.048V64.23H368.09V64.048C368.09 63.5713 367.951 63.1943 367.674 62.917C367.405 62.631 367.041 62.488 366.582 62.488ZM371.921 61.565V64.23H374.898V61.565H376.081V68H374.898V65.296H371.921V68H370.751V61.565H371.921ZM378.927 61.552V66.141L381.969 61.552H383.048V68H381.904V63.411L378.875 68H377.796V61.552H378.927ZM385.715 65.205V65.517C385.715 66.0023 385.854 66.3837 386.131 66.661C386.417 66.9297 386.807 67.064 387.301 67.064C387.717 67.064 388.064 66.96 388.341 66.752C388.627 66.544 388.775 66.2883 388.783 65.985H389.953C389.919 66.6263 389.659 67.1507 389.173 67.558C388.688 67.9567 388.064 68.156 387.301 68.156C386.469 68.156 385.802 67.922 385.299 67.454C384.797 66.9773 384.545 66.3447 384.545 65.556V64.009C384.545 63.489 384.658 63.034 384.883 62.644C385.109 62.2453 385.429 61.9377 385.845 61.721C386.261 61.5043 386.738 61.396 387.275 61.396C388.09 61.396 388.74 61.6343 389.225 62.111C389.711 62.5877 389.953 63.216 389.953 63.996V65.205H385.715ZM387.275 62.488C386.799 62.488 386.417 62.631 386.131 62.917C385.854 63.1943 385.715 63.5713 385.715 64.048V64.23H388.783V64.048C388.783 63.5713 388.645 63.1943 388.367 62.917C388.099 62.631 387.735 62.488 387.275 62.488Z" fill="#261E1E"/>
</g>
<defs>
<linearGradient id="paint0_linear_2816_83591" x1="448.531" y1="35.3887" x2="-0.937705" y2="35.3887" gradientUnits="userSpaceOnUse">
<stop stop-color="#F6C0B1" stop-opacity="0"/>
<stop offset="0.302083" stop-color="#F6C0B1"/>
</linearGradient>
</defs>
</svg>
