<svg width="458" height="172" viewBox="0 0 458 172" fill="none" xmlns="http://www.w3.org/2000/svg">
<line opacity="0.1" x1="2" y1="111.847" x2="450" y2="111.847" stroke="#966F7B"/>
<path opacity="0.1" d="M2 4C2 1.79086 3.79086 0 6 0H68.9703C71.1794 0 72.9703 1.79086 72.9703 4V19.8613C72.9703 22.0704 71.1794 23.8613 68.9703 23.8613H6C3.79087 23.8613 2 22.0704 2 19.8613V4Z" fill="#FECE30"/>
<path opacity="0.1" d="M2 31.8381C2 29.629 3.79086 27.8381 6 27.8381H68.9703C71.1794 27.8381 72.9703 29.629 72.9703 31.8381V47.6994C72.9703 49.9085 71.1794 51.6994 68.9703 51.6994H6C3.79087 51.6994 2 49.9085 2 47.6994V31.8381Z" fill="#FECE30"/>
<path opacity="0.1" d="M2 59.6763C2 57.4671 3.79086 55.6763 6 55.6763H68.9703C71.1794 55.6763 72.9703 57.4671 72.9703 59.6763V75.5375C72.9703 77.7467 71.1794 79.5375 68.9703 79.5375H6C3.79087 79.5375 2 77.7467 2 75.5375V59.6763Z" fill="#FECE30"/>
<path opacity="0.1" d="M2 87.5144C2 85.3053 3.79086 83.5144 6 83.5144H68.9703C71.1794 83.5144 72.9703 85.3053 72.9703 87.5144V103.376C72.9703 105.585 71.1794 107.376 68.9703 107.376H6C3.79087 107.376 2 105.585 2 103.376V87.5144Z" fill="#FECE30"/>
<path opacity="0.1" d="M2 120.324C2 118.115 3.79086 116.324 6 116.324H68.9703C71.1794 116.324 72.9703 118.115 72.9703 120.324V136.185C72.9703 138.394 71.1794 140.185 68.9703 140.185H6C3.79087 140.185 2 138.394 2 136.185V120.324Z" fill="#FECE30"/>
<path opacity="0.1" d="M2 148.162C2 145.953 3.79086 144.162 6 144.162H68.9703C71.1794 144.162 72.9703 145.953 72.9703 148.162V164.023C72.9703 166.232 71.1794 168.023 68.9703 168.023H6C3.79087 168.023 2 166.232 2 164.023V148.162Z" fill="#FECE30"/>
<path opacity="0.1" d="M77.4059 4C77.4059 1.79086 79.1967 0 81.4059 0H144.376C146.585 0 148.376 1.79086 148.376 4V19.8613C148.376 22.0704 146.585 23.8613 144.376 23.8613H81.4059C79.1967 23.8613 77.4059 22.0704 77.4059 19.8613V4Z" fill="#FECE30"/>
<path opacity="0.1" d="M77.406 31.8381C77.406 29.629 79.1969 27.8381 81.406 27.8381H144.376C146.585 27.8381 148.376 29.629 148.376 31.8381V47.6994C148.376 49.9085 146.585 51.6994 144.376 51.6994H81.406C79.1969 51.6994 77.406 49.9085 77.406 47.6994V31.8381Z" fill="#FECE30"/>
<path opacity="0.1" d="M77.406 59.6763C77.406 57.4671 79.1969 55.6763 81.406 55.6763H144.376C146.585 55.6763 148.376 57.4671 148.376 59.6763V75.5375C148.376 77.7467 146.585 79.5375 144.376 79.5375H81.406C79.1969 79.5375 77.406 77.7467 77.406 75.5375V59.6763Z" fill="#FECE30"/>
<path opacity="0.1" d="M77.406 87.5144C77.406 85.3053 79.1969 83.5144 81.406 83.5144H144.376C146.585 83.5144 148.376 85.3053 148.376 87.5144V103.376C148.376 105.585 146.585 107.376 144.376 107.376H81.406C79.1969 107.376 77.406 105.585 77.406 103.376V87.5144Z" fill="#FECE30"/>
<path opacity="0.1" d="M77.406 120.324C77.406 118.115 79.1969 116.324 81.406 116.324H144.376C146.585 116.324 148.376 118.115 148.376 120.324V136.185C148.376 138.394 146.585 140.185 144.376 140.185H81.406C79.1969 140.185 77.406 138.394 77.406 136.185V120.324Z" fill="#FECE30"/>
<path opacity="0.1" d="M77.406 148.162C77.406 145.953 79.1969 144.162 81.406 144.162H144.376C146.585 144.162 148.376 145.953 148.376 148.162V164.023C148.376 166.232 146.585 168.023 144.376 168.023H81.406C79.1969 168.023 77.406 166.232 77.406 164.023V148.162Z" fill="#FECE30"/>
<path opacity="0.1" d="M152.812 4C152.812 1.79086 154.603 0 156.812 0H219.782C221.991 0 223.782 1.79086 223.782 4V19.8613C223.782 22.0704 221.991 23.8613 219.782 23.8613H156.812C154.603 23.8613 152.812 22.0704 152.812 19.8613V4Z" fill="#FECE30"/>
<path opacity="0.1" d="M152.812 31.8381C152.812 29.629 154.603 27.8381 156.812 27.8381H219.782C221.991 27.8381 223.782 29.629 223.782 31.8381V47.6994C223.782 49.9085 221.991 51.6994 219.782 51.6994H156.812C154.603 51.6994 152.812 49.9085 152.812 47.6994V31.8381Z" fill="#FECE30"/>
<path opacity="0.1" d="M152.812 59.6763C152.812 57.4671 154.603 55.6763 156.812 55.6763H219.782C221.991 55.6763 223.782 57.4671 223.782 59.6763V75.5375C223.782 77.7467 221.991 79.5375 219.782 79.5375H156.812C154.603 79.5375 152.812 77.7467 152.812 75.5375V59.6763Z" fill="#FECE30"/>
<path opacity="0.1" d="M152.812 87.5144C152.812 85.3053 154.603 83.5144 156.812 83.5144H219.782C221.991 83.5144 223.782 85.3053 223.782 87.5144V103.376C223.782 105.585 221.991 107.376 219.782 107.376H156.812C154.603 107.376 152.812 105.585 152.812 103.376V87.5144Z" fill="#FECE30"/>
<path opacity="0.1" d="M152.812 120.324C152.812 118.115 154.603 116.324 156.812 116.324H219.782C221.991 116.324 223.782 118.115 223.782 120.324V136.185C223.782 138.394 221.991 140.185 219.782 140.185H156.812C154.603 140.185 152.812 138.394 152.812 136.185V120.324Z" fill="#FECE30"/>
<path opacity="0.1" d="M152.812 148.162C152.812 145.953 154.603 144.162 156.812 144.162H219.782C221.991 144.162 223.782 145.953 223.782 148.162V164.023C223.782 166.232 221.991 168.023 219.782 168.023H156.812C154.603 168.023 152.812 166.232 152.812 164.023V148.162Z" fill="#FECE30"/>
<path opacity="0.1" d="M228.218 4C228.218 1.79086 230.009 0 232.218 0H295.188C297.397 0 299.188 1.79086 299.188 4V19.8613C299.188 22.0704 297.397 23.8613 295.188 23.8613H232.218C230.009 23.8613 228.218 22.0704 228.218 19.8613V4Z" fill="#FECE30"/>
<path opacity="0.1" d="M228.218 31.8381C228.218 29.629 230.009 27.8381 232.218 27.8381H295.188C297.397 27.8381 299.188 29.629 299.188 31.8381V47.6994C299.188 49.9085 297.397 51.6994 295.188 51.6994H232.218C230.009 51.6994 228.218 49.9085 228.218 47.6994V31.8381Z" fill="#FECE30"/>
<path opacity="0.1" d="M228.218 59.6763C228.218 57.4671 230.009 55.6763 232.218 55.6763H295.188C297.397 55.6763 299.188 57.4671 299.188 59.6763V75.5375C299.188 77.7467 297.397 79.5375 295.188 79.5375H232.218C230.009 79.5375 228.218 77.7467 228.218 75.5375V59.6763Z" fill="#FECE30"/>
<path opacity="0.1" d="M228.218 87.5144C228.218 85.3053 230.009 83.5144 232.218 83.5144H295.188C297.397 83.5144 299.188 85.3053 299.188 87.5144V103.376C299.188 105.585 297.397 107.376 295.188 107.376H232.218C230.009 107.376 228.218 105.585 228.218 103.376V87.5144Z" fill="#FECE30"/>
<path opacity="0.1" d="M228.218 120.324C228.218 118.115 230.009 116.324 232.218 116.324H295.188C297.397 116.324 299.188 118.115 299.188 120.324V136.185C299.188 138.394 297.397 140.185 295.188 140.185H232.218C230.009 140.185 228.218 138.394 228.218 136.185V120.324Z" fill="#FECE30"/>
<path opacity="0.1" d="M228.218 148.162C228.218 145.953 230.009 144.162 232.218 144.162H295.188C297.397 144.162 299.188 145.953 299.188 148.162V164.023C299.188 166.232 297.397 168.023 295.188 168.023H232.218C230.009 168.023 228.218 166.232 228.218 164.023V148.162Z" fill="#FECE30"/>
<path opacity="0.1" d="M303.624 4C303.624 1.79086 305.415 0 307.624 0H370.594C372.803 0 374.594 1.79086 374.594 4V19.8613C374.594 22.0704 372.803 23.8613 370.594 23.8613H307.624C305.415 23.8613 303.624 22.0704 303.624 19.8613V4Z" fill="#FECE30"/>
<path opacity="0.1" d="M303.624 31.8381C303.624 29.629 305.415 27.8381 307.624 27.8381H370.594C372.803 27.8381 374.594 29.629 374.594 31.8381V47.6994C374.594 49.9085 372.803 51.6994 370.594 51.6994H307.624C305.415 51.6994 303.624 49.9085 303.624 47.6994V31.8381Z" fill="#FECE30"/>
<path opacity="0.1" d="M303.624 59.6763C303.624 57.4671 305.415 55.6763 307.624 55.6763H370.594C372.803 55.6763 374.594 57.4671 374.594 59.6763V75.5375C374.594 77.7467 372.803 79.5375 370.594 79.5375H307.624C305.415 79.5375 303.624 77.7467 303.624 75.5375V59.6763Z" fill="#FECE30"/>
<path opacity="0.1" d="M303.624 87.5144C303.624 85.3053 305.415 83.5144 307.624 83.5144H370.594C372.803 83.5144 374.594 85.3053 374.594 87.5144V103.376C374.594 105.585 372.803 107.376 370.594 107.376H307.624C305.415 107.376 303.624 105.585 303.624 103.376V87.5144Z" fill="#FECE30"/>
<path opacity="0.1" d="M303.624 120.324C303.624 118.115 305.415 116.324 307.624 116.324H370.594C372.803 116.324 374.594 118.115 374.594 120.324V136.185C374.594 138.394 372.803 140.185 370.594 140.185H307.624C305.415 140.185 303.624 138.394 303.624 136.185V120.324Z" fill="#FECE30"/>
<path opacity="0.1" d="M303.624 148.162C303.624 145.953 305.415 144.162 307.624 144.162H370.594C372.803 144.162 374.594 145.953 374.594 148.162V164.023C374.594 166.232 372.803 168.023 370.594 168.023H307.624C305.415 168.023 303.624 166.232 303.624 164.023V148.162Z" fill="#FECE30"/>
<path opacity="0.1" d="M379.03 4C379.03 1.79086 380.821 0 383.03 0H446C448.209 0 450 1.79086 450 4V19.8613C450 22.0704 448.209 23.8613 446 23.8613H383.03C380.821 23.8613 379.03 22.0704 379.03 19.8613V4Z" fill="#FECE30"/>
<path opacity="0.1" d="M379.03 31.8381C379.03 29.629 380.821 27.8381 383.03 27.8381H446C448.209 27.8381 450 29.629 450 31.8381V47.6994C450 49.9085 448.209 51.6994 446 51.6994H383.03C380.821 51.6994 379.03 49.9085 379.03 47.6994V31.8381Z" fill="#FECE30"/>
<path opacity="0.1" d="M379.03 59.6763C379.03 57.4671 380.821 55.6763 383.03 55.6763H446C448.209 55.6763 450 57.4671 450 59.6763V75.5375C450 77.7467 448.209 79.5375 446 79.5375H383.03C380.821 79.5375 379.03 77.7467 379.03 75.5375V59.6763Z" fill="#FECE30"/>
<path opacity="0.1" d="M379.03 87.5144C379.03 85.3053 380.821 83.5144 383.03 83.5144H446C448.209 83.5144 450 85.3053 450 87.5144V103.376C450 105.585 448.209 107.376 446 107.376H383.03C380.821 107.376 379.03 105.585 379.03 103.376V87.5144Z" fill="#FECE30"/>
<path opacity="0.1" d="M379.03 120.324C379.03 118.115 380.821 116.324 383.03 116.324H446C448.209 116.324 450 118.115 450 120.324V136.185C450 138.394 448.209 140.185 446 140.185H383.03C380.821 140.185 379.03 138.394 379.03 136.185V120.324Z" fill="#FECE30"/>
<path opacity="0.1" d="M379.03 148.162C379.03 145.953 380.821 144.162 383.03 144.162H446C448.209 144.162 450 145.953 450 148.162V164.023C450 166.232 448.209 168.023 446 168.023H383.03C380.821 168.023 379.03 166.232 379.03 164.023V148.162Z" fill="#FECE30"/>
<path d="M2 108.49L65.8009 88.5842C70.9674 86.9723 76.5985 88.0814 80.7679 91.5321L141.692 141.955C146.195 145.682 152.373 146.657 157.805 144.497L219.574 119.937C223.337 118.44 227.529 118.427 231.302 119.899L295.849 145.087C299.643 146.568 303.859 146.546 307.638 145.025L374.353 118.182C376.293 117.402 378.368 117.009 380.459 117.026L450 117.608" stroke="url(#paint0_linear_2816_83351)" stroke-width="4" stroke-linecap="round" stroke-linejoin="round"/>
<rect x="29" y="116" width="57" height="24" rx="4" fill="#FECE30"/>
<path d="M42.655 127.684C43.5303 127.996 43.968 128.603 43.968 129.504V129.738C43.968 130.215 43.838 130.639 43.578 131.012C43.3267 131.376 42.967 131.658 42.499 131.857C42.0397 132.056 41.5023 132.156 40.887 132.156C39.8557 132.156 39.067 131.913 38.521 131.428C37.9837 130.934 37.715 130.228 37.715 129.309V129.036H38.924V129.309C38.924 130.453 39.5783 131.025 40.887 131.025C41.459 131.025 41.9183 130.904 42.265 130.661C42.6117 130.418 42.785 130.093 42.785 129.686V129.465C42.785 129.084 42.6463 128.793 42.369 128.594C42.0917 128.386 41.6887 128.282 41.16 128.282H39.795V127.19H41.095C41.5717 127.19 41.9357 127.086 42.187 126.878C42.447 126.67 42.577 126.375 42.577 125.994V125.773C42.577 125.357 42.421 125.032 42.109 124.798C41.8057 124.564 41.3853 124.447 40.848 124.447C40.2067 124.447 39.73 124.586 39.418 124.863C39.1147 125.132 38.963 125.552 38.963 126.124V126.423H37.754V126.137C37.754 125.227 38.0183 124.529 38.547 124.044C39.0843 123.559 39.847 123.316 40.835 123.316C41.7277 123.316 42.4383 123.528 42.967 123.953C43.4957 124.369 43.76 124.932 43.76 125.643V125.89C43.76 126.306 43.6647 126.666 43.474 126.969C43.2833 127.272 43.0103 127.511 42.655 127.684ZM51.5589 130.934V132H50.8699C50.5579 132 50.2849 131.948 50.0509 131.844C49.8255 131.731 49.6522 131.571 49.5309 131.363C49.0542 131.892 48.3782 132.156 47.5029 132.156C46.8095 132.156 46.2592 131.991 45.8519 131.662C45.4445 131.333 45.2409 130.878 45.2409 130.297C45.2409 129.768 45.4142 129.352 45.7609 129.049C46.1075 128.746 46.6405 128.546 47.3599 128.451L49.2969 128.191V127.775C49.2969 127.359 49.1755 127.043 48.9329 126.826C48.6989 126.609 48.3522 126.501 47.8929 126.501C47.4422 126.501 47.0912 126.609 46.8399 126.826C46.5972 127.034 46.4759 127.329 46.4759 127.71V127.801H45.2929V127.71C45.2929 126.999 45.5269 126.436 45.9949 126.02C46.4715 125.604 47.1172 125.396 47.9319 125.396C48.7465 125.396 49.3749 125.608 49.8169 126.033C50.2589 126.449 50.4799 127.038 50.4799 127.801V130.284C50.4799 130.717 50.6879 130.934 51.1039 130.934H51.5589ZM47.5809 131.142C47.9622 131.142 48.3002 131.06 48.5949 130.895C48.8982 130.73 49.1322 130.505 49.2969 130.219V129.114L47.5549 129.374C46.7922 129.495 46.4109 129.799 46.4109 130.284C46.4109 130.553 46.5149 130.765 46.7229 130.921C46.9395 131.068 47.2255 131.142 47.5809 131.142ZM55.2801 125.851C56.0428 125.851 56.6495 126.089 57.1001 126.566C57.5595 127.034 57.7891 127.662 57.7891 128.451V129.517C57.7891 130.34 57.5508 130.986 57.0741 131.454C56.5975 131.922 55.9431 132.156 55.1111 132.156C54.2271 132.156 53.5381 131.9 53.0441 131.389C52.5501 130.869 52.3031 130.15 52.3031 129.231V127.424C52.3031 126.575 52.3941 125.886 52.5761 125.357C52.7581 124.828 53.0441 124.425 53.4341 124.148C53.8241 123.862 54.3441 123.676 54.9941 123.589L56.0341 123.472C56.2075 123.455 56.3288 123.42 56.3981 123.368C56.4675 123.316 56.5021 123.238 56.5021 123.134V122.952H57.6591V123.225C57.6591 123.606 57.5595 123.897 57.3601 124.096C57.1608 124.287 56.8445 124.412 56.4111 124.473L55.2411 124.629C54.5911 124.716 54.1231 124.911 53.8371 125.214C53.5511 125.517 53.4038 125.977 53.3951 126.592C53.6291 126.358 53.9108 126.176 54.2401 126.046C54.5695 125.916 54.9161 125.851 55.2801 125.851ZM56.6191 128.542C56.6191 127.467 56.1165 126.93 55.1111 126.93C54.7991 126.93 54.5001 126.995 54.2141 127.125C53.9368 127.255 53.6898 127.441 53.4731 127.684V129.27C53.4731 129.851 53.6075 130.293 53.8761 130.596C54.1535 130.899 54.5565 131.051 55.0851 131.051C55.5878 131.051 55.9691 130.917 56.2291 130.648C56.4891 130.379 56.6191 129.989 56.6191 129.478V128.542ZM61.7837 132.156C60.9604 132.156 60.3017 131.918 59.8077 131.441C59.3137 130.964 59.0667 130.332 59.0667 129.543V128.022C59.0667 127.225 59.3137 126.588 59.8077 126.111C60.3017 125.634 60.9604 125.396 61.7837 125.396C62.6157 125.396 63.2787 125.634 63.7727 126.111C64.2754 126.588 64.5267 127.225 64.5267 128.022V129.543C64.5267 130.332 64.2754 130.964 63.7727 131.441C63.2787 131.918 62.6157 132.156 61.7837 132.156ZM61.7967 131.051C62.2734 131.051 62.6504 130.912 62.9277 130.635C63.2137 130.358 63.3567 129.985 63.3567 129.517V128.061C63.3567 127.576 63.218 127.194 62.9407 126.917C62.6634 126.64 62.282 126.501 61.7967 126.501C61.32 126.501 60.9387 126.64 60.6527 126.917C60.3754 127.194 60.2367 127.576 60.2367 128.061V129.517C60.2367 129.994 60.3754 130.371 60.6527 130.648C60.9387 130.917 61.32 131.051 61.7967 131.051ZM65.0981 126.618V125.552H70.5711V126.618H68.4261V132H67.2431V126.618H65.0981ZM77.4446 130.934V132H76.7556C76.4436 132 76.1706 131.948 75.9366 131.844C75.7113 131.731 75.538 131.571 75.4166 131.363C74.94 131.892 74.264 132.156 73.3886 132.156C72.6953 132.156 72.145 131.991 71.7376 131.662C71.3303 131.333 71.1266 130.878 71.1266 130.297C71.1266 129.768 71.3 129.352 71.6466 129.049C71.9933 128.746 72.5263 128.546 73.2456 128.451L75.1826 128.191V127.775C75.1826 127.359 75.0613 127.043 74.8186 126.826C74.5846 126.609 74.238 126.501 73.7786 126.501C73.328 126.501 72.977 126.609 72.7256 126.826C72.483 127.034 72.3616 127.329 72.3616 127.71V127.801H71.1786V127.71C71.1786 126.999 71.4126 126.436 71.8806 126.02C72.3573 125.604 73.003 125.396 73.8176 125.396C74.6323 125.396 75.2606 125.608 75.7026 126.033C76.1446 126.449 76.3656 127.038 76.3656 127.801V130.284C76.3656 130.717 76.5736 130.934 76.9896 130.934H77.4446ZM73.4666 131.142C73.848 131.142 74.186 131.06 74.4806 130.895C74.784 130.73 75.018 130.505 75.1826 130.219V129.114L73.4406 129.374C72.678 129.495 72.2966 129.799 72.2966 130.284C72.2966 130.553 72.4006 130.765 72.6086 130.921C72.8253 131.068 73.1113 131.142 73.4666 131.142Z" fill="#261E1E"/>
<g opacity="0.75">
<rect x="134" y="77" width="108" height="24" rx="4" fill="#FECE30"/>
<path d="M144.132 84.472V88.19H147.616V84.472H148.838V93H147.616V89.295H144.132V93H142.91V84.472H144.132ZM156.673 91.934V93H155.984C155.672 93 155.399 92.948 155.165 92.844C154.94 92.7313 154.766 92.571 154.645 92.363C154.168 92.8917 153.492 93.156 152.617 93.156C151.924 93.156 151.373 92.9913 150.966 92.662C150.559 92.3327 150.355 91.8777 150.355 91.297C150.355 90.7683 150.528 90.3523 150.875 90.049C151.222 89.7457 151.755 89.5463 152.474 89.451L154.411 89.191V88.775C154.411 88.359 154.29 88.0427 154.047 87.826C153.813 87.6093 153.466 87.501 153.007 87.501C152.556 87.501 152.205 87.6093 151.954 87.826C151.711 88.034 151.59 88.3287 151.59 88.71V88.801H150.407V88.71C150.407 87.9993 150.641 87.436 151.109 87.02C151.586 86.604 152.231 86.396 153.046 86.396C153.861 86.396 154.489 86.6083 154.931 87.033C155.373 87.449 155.594 88.0383 155.594 88.801V91.284C155.594 91.7173 155.802 91.934 156.218 91.934H156.673ZM152.695 92.142C153.076 92.142 153.414 92.0597 153.709 91.895C154.012 91.7303 154.246 91.505 154.411 91.219V90.114L152.669 90.374C151.906 90.4953 151.525 90.7987 151.525 91.284C151.525 91.5527 151.629 91.765 151.837 91.921C152.054 92.0683 152.34 92.142 152.695 92.142ZM162.888 86.552V93H161.705V87.618H158.767V93H157.597V86.552H162.888ZM167.543 86.396C168.297 86.396 168.899 86.63 169.35 87.098C169.801 87.5573 170.026 88.1727 170.026 88.944V90.608C170.026 91.3793 169.801 91.999 169.35 92.467C168.899 92.9263 168.297 93.156 167.543 93.156C166.824 93.156 166.234 92.9393 165.775 92.506V95.21H164.605V86.552H165.658L165.71 87.098C166.178 86.63 166.789 86.396 167.543 86.396ZM168.843 88.996C168.843 88.5367 168.704 88.1727 168.427 87.904C168.158 87.6353 167.79 87.501 167.322 87.501C166.984 87.501 166.676 87.579 166.399 87.735C166.13 87.8823 165.922 88.0903 165.775 88.359V91.206C165.922 91.466 166.13 91.674 166.399 91.83C166.668 91.9773 166.975 92.051 167.322 92.051C167.79 92.051 168.158 91.9167 168.427 91.648C168.704 91.3793 168.843 91.0153 168.843 90.556V88.996ZM176.737 93H175.554V90.595H174.475L172.525 93H171.212V92.844L173.071 90.556C172.499 90.4693 172.049 90.2657 171.719 89.945C171.399 89.6157 171.238 89.204 171.238 88.71V88.528C171.238 87.9213 171.455 87.4403 171.888 87.085C172.322 86.7297 172.898 86.552 173.617 86.552H176.737V93ZM175.554 89.594V87.605H173.63C173.258 87.605 172.963 87.6873 172.746 87.852C172.53 88.0167 172.421 88.2463 172.421 88.541V88.697C172.421 88.983 172.525 89.204 172.733 89.36C172.95 89.516 173.249 89.594 173.63 89.594H175.554ZM187.361 92.818V93H186.126L184.306 90.296H183.253V93H182.083V90.296H181.03L179.21 93H177.975V92.818L180.003 89.75L178.079 86.734V86.552H179.314L181.043 89.256H182.083V86.552H183.253V89.256H184.28L186.022 86.552H187.257V86.734L185.32 89.75L187.361 92.818ZM189.117 90.205V90.517C189.117 91.0023 189.255 91.3837 189.533 91.661C189.819 91.9297 190.209 92.064 190.703 92.064C191.119 92.064 191.465 91.96 191.743 91.752C192.029 91.544 192.176 91.2883 192.185 90.985H193.355C193.32 91.6263 193.06 92.1507 192.575 92.558C192.089 92.9567 191.465 93.156 190.703 93.156C189.871 93.156 189.203 92.922 188.701 92.454C188.198 91.9773 187.947 91.3447 187.947 90.556V89.009C187.947 88.489 188.059 88.034 188.285 87.644C188.51 87.2453 188.831 86.9377 189.247 86.721C189.663 86.5043 190.139 86.396 190.677 86.396C191.491 86.396 192.141 86.6343 192.627 87.111C193.112 87.5877 193.355 88.216 193.355 88.996V90.205H189.117ZM190.677 87.488C190.2 87.488 189.819 87.631 189.533 87.917C189.255 88.1943 189.117 88.5713 189.117 89.048V89.23H192.185V89.048C192.185 88.5713 192.046 88.1943 191.769 87.917C191.5 87.631 191.136 87.488 190.677 87.488ZM196.015 86.565V89.23H198.992V86.565H200.175V93H198.992V90.296H196.015V93H194.845V86.565H196.015ZM203.061 86.565V89.23H206.038V86.565H207.221V93H206.038V90.296H203.061V93H201.891V86.565H203.061ZM211.433 93.156C210.61 93.156 209.951 92.9177 209.457 92.441C208.963 91.9643 208.716 91.3317 208.716 90.543V89.022C208.716 88.2247 208.963 87.5877 209.457 87.111C209.951 86.6343 210.61 86.396 211.433 86.396C212.265 86.396 212.928 86.6343 213.422 87.111C213.925 87.5877 214.176 88.2247 214.176 89.022V90.543C214.176 91.3317 213.925 91.9643 213.422 92.441C212.928 92.9177 212.265 93.156 211.433 93.156ZM211.446 92.051C211.923 92.051 212.3 91.9123 212.577 91.635C212.863 91.3577 213.006 90.985 213.006 90.517V89.061C213.006 88.5757 212.867 88.1943 212.59 87.917C212.313 87.6397 211.931 87.501 211.446 87.501C210.969 87.501 210.588 87.6397 210.302 87.917C210.025 88.1943 209.886 88.5757 209.886 89.061V90.517C209.886 90.9937 210.025 91.3707 210.302 91.648C210.588 91.9167 210.969 92.051 211.446 92.051ZM218.188 93.156C217.642 93.156 217.161 93.0477 216.745 92.831C216.329 92.6143 216.008 92.311 215.783 91.921C215.557 91.5223 215.445 91.063 215.445 90.543V89.009C215.445 88.489 215.557 88.034 215.783 87.644C216.008 87.2453 216.329 86.9377 216.745 86.721C217.161 86.5043 217.642 86.396 218.188 86.396C218.699 86.396 219.154 86.5043 219.553 86.721C219.96 86.929 220.276 87.2193 220.502 87.592C220.727 87.9647 220.84 88.3893 220.84 88.866V89.009H219.67V88.866C219.67 88.4673 219.531 88.1423 219.254 87.891C218.976 87.631 218.621 87.501 218.188 87.501C217.702 87.501 217.321 87.6397 217.044 87.917C216.766 88.1857 216.628 88.5583 216.628 89.035V90.517C216.628 90.9937 216.766 91.3707 217.044 91.648C217.321 91.9167 217.702 92.051 218.188 92.051C218.621 92.051 218.976 91.9297 219.254 91.687C219.531 91.4357 219.67 91.115 219.67 90.725V90.582H220.84V90.725C220.84 91.453 220.597 92.0423 220.112 92.493C219.626 92.935 218.985 93.156 218.188 93.156ZM221.374 87.618V86.552H226.847V87.618H224.702V93H223.519V87.618H221.374ZM231.051 88.788C231.736 88.788 232.282 88.9743 232.689 89.347C233.096 89.7197 233.3 90.2137 233.3 90.829V90.959C233.3 91.5743 233.096 92.0683 232.689 92.441C232.282 92.8137 231.736 93 231.051 93H227.853V86.552H229.023V88.788H231.051ZM232.13 90.842C232.13 90.53 232.03 90.2873 231.831 90.114C231.632 89.9407 231.354 89.854 230.999 89.854H229.023V91.934H230.999C231.354 91.934 231.632 91.8517 231.831 91.687C232.03 91.5137 232.13 91.2667 232.13 90.946V90.842Z" fill="#261E1E"/>
</g>
<g opacity="0.7">
<rect x="290" y="52" width="134" height="24" rx="4" fill="#FECE30"/>
<path d="M302.303 59.472C303.126 59.472 303.776 59.6887 304.253 60.122C304.73 60.5467 304.968 61.1317 304.968 61.877V62.072C304.968 62.8173 304.73 63.4067 304.253 63.84C303.776 64.2647 303.126 64.477 302.303 64.477H300.132V68H298.91V59.472H302.303ZM302.277 63.385C302.762 63.385 303.131 63.2723 303.382 63.047C303.633 62.8217 303.759 62.4967 303.759 62.072V61.877C303.759 61.461 303.629 61.1403 303.369 60.915C303.118 60.6897 302.754 60.577 302.277 60.577H300.132V63.385H302.277ZM312.191 66.934V68H311.502C311.19 68 310.917 67.948 310.683 67.844C310.457 67.7313 310.284 67.571 310.163 67.363C309.686 67.8917 309.01 68.156 308.135 68.156C307.441 68.156 306.891 67.9913 306.484 67.662C306.076 67.3327 305.873 66.8777 305.873 66.297C305.873 65.7683 306.046 65.3523 306.393 65.049C306.739 64.7457 307.272 64.5463 307.992 64.451L309.929 64.191V63.775C309.929 63.359 309.807 63.0427 309.565 62.826C309.331 62.6093 308.984 62.501 308.525 62.501C308.074 62.501 307.723 62.6093 307.472 62.826C307.229 63.034 307.108 63.3287 307.108 63.71V63.801H305.925V63.71C305.925 62.9993 306.159 62.436 306.627 62.02C307.103 61.604 307.749 61.396 308.564 61.396C309.378 61.396 310.007 61.6083 310.449 62.033C310.891 62.449 311.112 63.0383 311.112 63.801V66.284C311.112 66.7173 311.32 66.934 311.736 66.934H312.191ZM308.213 67.142C308.594 67.142 308.932 67.0597 309.227 66.895C309.53 66.7303 309.764 66.505 309.929 66.219V65.114L308.187 65.374C307.424 65.4953 307.043 65.7987 307.043 66.284C307.043 66.5527 307.147 66.765 307.355 66.921C307.571 67.0683 307.857 67.142 308.213 67.142ZM317.262 64.737C317.591 64.8583 317.843 65.0403 318.016 65.283C318.189 65.517 318.276 65.803 318.276 66.141V66.323C318.276 66.9037 318.033 67.3543 317.548 67.675C317.071 67.9957 316.404 68.156 315.546 68.156C314.688 68.156 314.012 67.961 313.518 67.571C313.033 67.181 312.79 66.6523 312.79 65.985V65.725H313.96V65.92C313.96 66.31 314.099 66.609 314.376 66.817C314.653 67.0163 315.056 67.116 315.585 67.116C316.088 67.116 316.465 67.038 316.716 66.882C316.976 66.726 317.106 66.4963 317.106 66.193V66.076C317.106 65.8073 317.015 65.6037 316.833 65.465C316.651 65.3177 316.395 65.244 316.066 65.244H314.727V64.23H316.001C316.339 64.23 316.599 64.1607 316.781 64.022C316.963 63.8833 317.054 63.6883 317.054 63.437V63.32C317.054 63.034 316.928 62.8173 316.677 62.67C316.434 62.5227 316.07 62.449 315.585 62.449C315.056 62.449 314.653 62.5573 314.376 62.774C314.099 62.982 313.96 63.2853 313.96 63.684V63.853H312.79V63.658C312.79 63.216 312.903 62.826 313.128 62.488C313.362 62.1413 313.687 61.877 314.103 61.695C314.519 61.5043 315 61.409 315.546 61.409C316.369 61.409 317.019 61.5693 317.496 61.89C317.973 62.2107 318.211 62.6483 318.211 63.203V63.385C318.211 64.0177 317.895 64.4683 317.262 64.737ZM325.939 66.934V69.703H324.756V68H320.037V69.703H318.867V66.934H319.673C320.002 66.3187 320.175 65.5907 320.193 64.75L320.232 61.552H324.977V66.934H325.939ZM323.807 66.934V62.618H321.324L321.285 64.802C321.267 65.6167 321.116 66.3273 320.83 66.934H323.807ZM329.992 61.396C330.746 61.396 331.349 61.63 331.799 62.098C332.25 62.5573 332.475 63.1727 332.475 63.944V65.608C332.475 66.3793 332.25 66.999 331.799 67.467C331.349 67.9263 330.746 68.156 329.992 68.156C329.273 68.156 328.684 67.9393 328.224 67.506V70.21H327.054V61.552H328.107L328.159 62.098C328.627 61.63 329.238 61.396 329.992 61.396ZM331.292 63.996C331.292 63.5367 331.154 63.1727 330.876 62.904C330.608 62.6353 330.239 62.501 329.771 62.501C329.433 62.501 329.126 62.579 328.848 62.735C328.58 62.8823 328.372 63.0903 328.224 63.359V66.206C328.372 66.466 328.58 66.674 328.848 66.83C329.117 66.9773 329.425 67.051 329.771 67.051C330.239 67.051 330.608 66.9167 330.876 66.648C331.154 66.3793 331.292 66.0153 331.292 65.556V63.996ZM340.032 66.934V68H339.343C339.031 68 338.758 67.948 338.524 67.844C338.298 67.7313 338.125 67.571 338.004 67.363C337.527 67.8917 336.851 68.156 335.976 68.156C335.282 68.156 334.732 67.9913 334.325 67.662C333.917 67.3327 333.714 66.8777 333.714 66.297C333.714 65.7683 333.887 65.3523 334.234 65.049C334.58 64.7457 335.113 64.5463 335.833 64.451L337.77 64.191V63.775C337.77 63.359 337.648 63.0427 337.406 62.826C337.172 62.6093 336.825 62.501 336.366 62.501C335.915 62.501 335.564 62.6093 335.313 62.826C335.07 63.034 334.949 63.3287 334.949 63.71V63.801H333.766V63.71C333.766 62.9993 334 62.436 334.468 62.02C334.944 61.604 335.59 61.396 336.405 61.396C337.219 61.396 337.848 61.6083 338.29 62.033C338.732 62.449 338.953 63.0383 338.953 63.801V66.284C338.953 66.7173 339.161 66.934 339.577 66.934H340.032ZM336.054 67.142C336.435 67.142 336.773 67.0597 337.068 66.895C337.371 66.7303 337.605 66.505 337.77 66.219V65.114L336.028 65.374C335.265 65.4953 334.884 65.7987 334.884 66.284C334.884 66.5527 334.988 66.765 335.196 66.921C335.412 67.0683 335.698 67.142 336.054 67.142ZM349.861 67.818V68H348.626L346.806 65.296H345.753V68H344.583V65.296H343.53L341.71 68H340.475V67.818L342.503 64.75L340.579 61.734V61.552H341.814L343.543 64.256H344.583V61.552H345.753V64.256H346.78L348.522 61.552H349.757V61.734L347.82 64.75L349.861 67.818ZM352.23 61.552V66.141L355.272 61.552H356.351V68H355.207V63.411L352.178 68H351.099V61.552H352.23ZM357.037 62.618V61.552H362.51V62.618H360.365V68H359.182V62.618H357.037ZM364.261 65.205V65.517C364.261 66.0023 364.4 66.3837 364.677 66.661C364.963 66.9297 365.353 67.064 365.847 67.064C366.263 67.064 366.61 66.96 366.887 66.752C367.173 66.544 367.32 66.2883 367.329 65.985H368.499C368.464 66.6263 368.204 67.1507 367.719 67.558C367.234 67.9567 366.61 68.156 365.847 68.156C365.015 68.156 364.348 67.922 363.845 67.454C363.342 66.9773 363.091 66.3447 363.091 65.556V64.009C363.091 63.489 363.204 63.034 363.429 62.644C363.654 62.2453 363.975 61.9377 364.391 61.721C364.807 61.5043 365.284 61.396 365.821 61.396C366.636 61.396 367.286 61.6343 367.771 62.111C368.256 62.5877 368.499 63.216 368.499 63.996V65.205H364.261ZM365.821 62.488C365.344 62.488 364.963 62.631 364.677 62.917C364.4 63.1943 364.261 63.5713 364.261 64.048V64.23H367.329V64.048C367.329 63.5713 367.19 63.1943 366.913 62.917C366.644 62.631 366.28 62.488 365.821 62.488ZM375.179 68H374.009V62.618H371.526L371.461 65.673C371.444 66.4703 371.279 67.0597 370.967 67.441C370.664 67.8137 370.196 68 369.563 68H369.212V66.934H369.42C369.741 66.934 369.97 66.8257 370.109 66.609C370.256 66.3923 370.339 66.0413 370.356 65.556L370.447 61.552H375.179V68ZM380.094 63.788C380.779 63.788 381.325 63.9743 381.732 64.347C382.139 64.7197 382.343 65.2137 382.343 65.829V65.959C382.343 66.5743 382.139 67.0683 381.732 67.441C381.325 67.8137 380.779 68 380.094 68H376.896V61.552H378.066V63.788H380.094ZM381.173 65.842C381.173 65.53 381.073 65.2873 380.874 65.114C380.675 64.9407 380.397 64.854 380.042 64.854H378.066V66.934H380.042C380.397 66.934 380.675 66.8517 380.874 66.687C381.073 66.5137 381.173 66.2667 381.173 65.946V65.842ZM384.807 61.565V64.23H387.784V61.565H388.967V68H387.784V65.296H384.807V68H383.637V61.565H384.807ZM393.179 68.156C392.356 68.156 391.697 67.9177 391.203 67.441C390.709 66.9643 390.462 66.3317 390.462 65.543V64.022C390.462 63.2247 390.709 62.5877 391.203 62.111C391.697 61.6343 392.356 61.396 393.179 61.396C394.011 61.396 394.674 61.6343 395.168 62.111C395.671 62.5877 395.922 63.2247 395.922 64.022V65.543C395.922 66.3317 395.671 66.9643 395.168 67.441C394.674 67.9177 394.011 68.156 393.179 68.156ZM393.192 67.051C393.669 67.051 394.046 66.9123 394.323 66.635C394.609 66.3577 394.752 65.985 394.752 65.517V64.061C394.752 63.5757 394.614 63.1943 394.336 62.917C394.059 62.6397 393.678 62.501 393.192 62.501C392.716 62.501 392.334 62.6397 392.048 62.917C391.771 63.1943 391.632 63.5757 391.632 64.061V65.517C391.632 65.9937 391.771 66.3707 392.048 66.648C392.334 66.9167 392.716 67.051 393.192 67.051ZM399.934 68.156C399.388 68.156 398.907 68.0477 398.491 67.831C398.075 67.6143 397.754 67.311 397.529 66.921C397.303 66.5223 397.191 66.063 397.191 65.543V64.009C397.191 63.489 397.303 63.034 397.529 62.644C397.754 62.2453 398.075 61.9377 398.491 61.721C398.907 61.5043 399.388 61.396 399.934 61.396C400.445 61.396 400.9 61.5043 401.299 61.721C401.706 61.929 402.022 62.2193 402.248 62.592C402.473 62.9647 402.586 63.3893 402.586 63.866V64.009H401.416V63.866C401.416 63.4673 401.277 63.1423 401 62.891C400.722 62.631 400.367 62.501 399.934 62.501C399.448 62.501 399.067 62.6397 398.79 62.917C398.512 63.1857 398.374 63.5583 398.374 64.035V65.517C398.374 65.9937 398.512 66.3707 398.79 66.648C399.067 66.9167 399.448 67.051 399.934 67.051C400.367 67.051 400.722 66.9297 401 66.687C401.277 66.4357 401.416 66.115 401.416 65.725V65.582H402.586V65.725C402.586 66.453 402.343 67.0423 401.858 67.493C401.372 67.935 400.731 68.156 399.934 68.156ZM403.121 62.618V61.552H408.594V62.618H406.449V68H405.266V62.618H403.121ZM412.797 63.788C413.482 63.788 414.028 63.9743 414.435 64.347C414.843 64.7197 415.046 65.2137 415.046 65.829V65.959C415.046 66.5743 414.843 67.0683 414.435 67.441C414.028 67.8137 413.482 68 412.797 68H409.599V61.552H410.769V63.788H412.797ZM413.876 65.842C413.876 65.53 413.777 65.2873 413.577 65.114C413.378 64.9407 413.101 64.854 412.745 64.854H410.769V66.934H412.745C413.101 66.934 413.378 66.8517 413.577 66.687C413.777 66.5137 413.876 66.2667 413.876 65.946V65.842Z" fill="#261E1E"/>
</g>
<defs>
<linearGradient id="paint0_linear_2816_83351" x1="448.531" y1="35.8963" x2="-0.937705" y2="35.8963" gradientUnits="userSpaceOnUse">
<stop stop-color="#FECE30" stop-opacity="0"/>
<stop offset="0.302083" stop-color="#FECE30"/>
</linearGradient>
</defs>
</svg>
