<svg width="64" height="64" viewBox="0 0 64 64" fill="none" xmlns="http://www.w3.org/2000/svg">
<path fill-rule="evenodd" clip-rule="evenodd" d="M41.5966 48.7247L42.1814 53.8618L37.6629 54L30.746 44.0208C28.4205 44.6842 25.6656 45.0067 23.893 42.1272C23.7239 41.8637 23.5713 41.5898 23.4361 41.3071C22.9853 41.4022 22.526 41.45 22.0655 41.45C20.7451 41.45 18.5659 41.0537 17.442 40.2751C16.5587 39.6828 15.8576 38.8529 15.4181 37.8794C13.0424 38.2065 11.0458 37.6444 9.70266 36.253C8.03509 34.5253 7.55538 31.6458 8.428 28.6005C9.58844 24.5046 13.0606 19.8836 19.9913 18.1651C20.5955 17.4171 21.316 16.7729 22.1249 16.2577C26.4743 13.4473 33.5466 13.1986 38.8919 15.8615C40.9709 15.4765 43.1152 15.6855 45.0825 16.4651C48.8364 17.8897 51.5952 20.8107 52.2224 23.82C53.2466 24.3765 54.0867 25.2217 54.6376 26.252C55.8123 28.4711 55.9984 30.6948 55.1874 32.4887C55.927 33.9869 56.1704 35.6825 55.8819 37.3288C55.714 38.4281 55.2944 39.4735 54.6568 40.3837C54.0187 41.2939 53.1799 42.0437 52.2051 42.5752C51.9325 42.7187 51.6508 42.8435 51.3613 42.9489C51.6849 47.1731 45.6831 48.8238 43.256 48.8238L43.2304 48.7833C42.6693 48.7992 42.1196 48.7796 41.5966 48.7247ZM43.5982 45.8061C42.9017 45.8444 42.1953 45.8182 41.5326 45.7254L38.3985 45.555L39.463 51.443L38.9239 51.5351L33.8801 43.0302C36.8926 42.1322 40.032 41.7676 43.1594 41.9479C43.6679 41.9825 44.176 42.0312 44.683 42.0939C45.6957 42.7235 46.8298 43.1295 48.0108 43.2853C47.9555 44.7704 45.8741 45.6241 43.5982 45.8061ZM40.4556 39.0896L40.4492 39.0406C40.8943 39.0563 41.3603 39.0832 41.85 39.1227C40.7404 37.011 40.8433 34.4509 42.316 31.6478L44.5015 32.5167C42.9682 36.0628 44.4036 38.1229 45.4008 39.0246C46.934 40.4261 49.2455 40.8466 50.7788 40.0057C51.364 39.6813 51.8674 39.2267 52.2492 38.6767C52.6315 38.1267 52.8827 37.4962 52.9833 36.8336C53.0903 36.2213 53.0889 35.5951 52.9788 34.9836H52.9601C52.3343 35.3146 51.6376 35.4875 50.9303 35.4875C50.2231 35.4875 49.5263 35.3146 48.901 34.9836L49.2223 32.8112C50.6204 32.9419 51.8647 32.587 52.317 31.6339C53.4629 29.2156 52.0675 26.1102 48.6764 25.8317L48.6437 25.8497C48.5045 25.8444 48.3651 25.843 48.2257 25.8453H48.1572C45.416 25.8453 42.6245 27.4164 41.496 29.4666L39.8559 28.6742C40.1757 27.6185 40.7216 26.6465 41.4549 25.8269C40.8238 25.2836 40.3474 24.5809 40.0744 23.7907C39.8015 23.0005 39.7418 22.1514 39.9016 21.3303L41.5189 21.1782C41.5927 21.8397 41.8629 22.4633 42.2941 22.9673C42.7254 23.4713 43.2976 23.8321 43.9357 24.0025C45.2939 23.3949 46.7675 23.0945 48.2531 23.1225H48.8653C47.8167 21.2466 46.1551 19.7958 44.1642 19.0175C39.2985 17.1377 36.0228 20.0909 35.2735 21.1045C33.446 23.551 34.6248 25.8592 35.5065 27.3611L34.0537 28.6742C32.7922 27.5758 31.945 26.0722 31.6551 24.4171C29.8002 24.9746 27.3103 24.8364 25.9169 22.4498L27.2327 21.5284C28.6992 22.6387 31.0201 22.5558 32.1485 21.2151C32.4237 20.601 32.7687 20.0212 33.1765 19.4874C33.8159 18.6411 34.5874 17.9051 35.4608 17.3082C31.8059 16.3084 26.6753 16.4789 23.5823 18.483C22.746 18.9731 22.0571 19.6826 21.5889 20.536C21.1207 21.3895 20.8907 22.355 20.9233 23.3298C20.9233 24.9101 22.1523 27.4072 23.8062 27.7988L22.8376 29.6924C21.7873 29.4417 20.8337 28.8839 20.0964 28.0891L18.671 29.9319L17.2547 29.227L18.6253 25.5413C18.398 24.828 18.2808 24.0836 18.2781 23.3344C18.2783 22.7341 18.3379 22.1352 18.4562 21.5468C14.0886 23.3897 11.9048 26.3982 11.1144 29.1994C10.5067 31.3371 10.7397 33.2629 11.7449 34.2996C12.5352 35.1197 13.7459 35.3224 14.8881 35.2487L17.9491 32.8299L18.9405 33.6776L18.0268 36.7045C18.5065 38.2387 20.0781 39.0312 22.9427 38.4599C23.0864 37.2378 23.5606 36.0791 24.3133 35.1104C24.8789 34.3194 25.6185 33.6712 26.4743 33.2169L27.9728 29.1487L29.4759 29.0704L29.316 32.4106C30.4712 32.2903 31.6898 32.3353 32.9237 32.3809C34.3834 32.4349 35.8647 32.4896 37.2883 32.2724L37.7726 34.0277C36.1895 34.7654 34.5918 34.7064 33.0108 34.6479C30.7408 34.564 28.5052 34.4813 26.3966 36.7598C25.1128 38.142 25.5971 39.3583 26.3966 40.5746C27.3913 42.0912 29.1516 41.4939 31.0351 40.8549C31.3143 40.7602 31.5965 40.6644 31.879 40.5746L31.9133 40.5642C34.7825 39.6913 36.9765 39.0239 40.4556 39.0896Z" fill="black"/>
</svg>
