<svg width="64" height="64" viewBox="0 0 64 64" fill="none" xmlns="http://www.w3.org/2000/svg">
<path fill-rule="evenodd" clip-rule="evenodd" d="M46.5732 51.9143L28.6328 54C27.2855 50.0273 21.1735 42.3451 11 39.3259C12.1423 34.792 14.9591 33.8634 18.8401 34.7225C19.5381 34.8814 21.3444 35.5568 22.6088 35.9342C22.8431 36.54 23.9317 39.1769 23.9317 39.1769L25.118 38.8293C24.6737 35.3283 23.3801 24.8553 22.4281 14.4965C22.0864 10.7423 27.0365 10.1862 27.759 14.3376C28.3057 17.5009 29.8239 29.0018 29.8239 29.0018L31.43 29.0366C31.43 29.0366 31.513 15.6635 31.4837 12.9869C31.4398 9.21285 36.7853 8.79075 36.8536 13.0167C36.8878 15.9267 36.9659 29.9006 36.9659 29.9006L38.2401 30.2483C38.2401 30.2483 40.1293 17.5704 40.4466 14.9534C40.8957 11.2141 46.124 11.661 45.6163 15.8472C45.2795 18.6778 43.2829 31.8175 43.2829 31.8175L44.4447 32.2396C44.4447 32.2396 47.6911 23.0577 48.3111 21.0614C49.2874 17.8187 53.9495 19.3283 52.8267 22.9633C49.8473 32.3909 47.7534 42.0846 46.5732 51.9143V51.9143Z" fill="black"/>
</svg>
