<svg width="64" height="64" viewBox="0 0 64 64" fill="none" xmlns="http://www.w3.org/2000/svg">
<path fill-rule="evenodd" clip-rule="evenodd" d="M57.099 28.9456C53.9064 29.3945 53.4099 24.8005 56.4089 24.3815C59.4078 23.9625 60.0186 28.5116 57.099 28.9456ZM18.1967 36.5176C15.6545 40.5081 18.7627 46.0648 30.8083 46.0648L29.8152 47.9054C2.33783 47.9054 14.4926 29.7587 17.7548 29.4943C13.8521 28.9107 7.05477 34.1432 6.99519 40.8223L5.00911 40.4282C4.44804 22.8351 29.9791 20.6953 36.3892 23.733C36.5282 19.6128 28.0278 19.129 14.726 23.2791L14.4082 21.4135C38.4547 8.84348 47.8538 24.7456 42.1339 29.6539C46.1061 29.0653 52.248 21.9872 42.1985 17.5777L44.2739 16.7696C60.5101 22.9499 47.1041 38.7472 30.4359 38.5178C34.3336 40.1389 44.6662 40.6926 52.5856 31.8886L53.3652 33.5995C39.5868 51.0729 18.8024 42.3337 18.1967 36.5176ZM39.7456 15.4478C37.3425 15.7869 36.9701 12.3402 39.2491 12.0209C41.5281 11.7017 41.9303 15.1385 39.7456 15.4478ZM17.8094 16.9741C14.6217 17.4131 14.1252 12.824 17.1043 12.4C20.0835 11.976 20.7289 16.5501 17.8094 16.9741ZM7.17393 43.9099C9.42317 43.5907 9.8899 47.0325 7.67045 47.3418C5.30205 47.6959 4.92966 44.2442 7.17393 43.9099ZM12.3675 47.4016C15.3467 46.9776 15.9772 51.5517 13.0627 51.9658C9.87004 52.4396 9.37352 47.8456 12.3725 47.4266L12.3675 47.4016ZM34.979 46.0249C37.2233 45.7107 37.69 49.1475 35.4756 49.4567C33.0873 49.7959 32.7149 46.3442 34.979 46.0249Z" fill="black"/>
</svg>
