<svg width="64" height="64" viewBox="0 0 64 64" fill="none" xmlns="http://www.w3.org/2000/svg">
<path fill-rule="evenodd" clip-rule="evenodd" d="M45.5386 23.183C45.4313 24.7267 45.3036 26.6134 45.1606 28.7256L46.4017 28.755L45.0789 43.7167H44.134C44.0012 45.6148 43.865 47.5751 43.7254 49.5974C43.3526 54.0766 22.1417 54.057 21.5238 49.9895C21.3705 49.0878 21.1458 46.9511 20.8802 44.1773L19.8077 44.2018L18.4134 28.1032L19.491 28.1326C19.3327 26.2165 19.1897 24.4278 19.0671 22.884L16.4164 22.8546C16.4164 22.8546 14.3735 16.7043 19.3378 16.1261L21.4574 11.6861L42.086 11L44.6397 15.7144C49.1341 16.6945 47.8215 23.2124 47.8215 23.2124L45.5386 23.183ZM24.246 48.8623C29.9764 50.9696 36.1614 50.9059 40.9062 48.9113C40.9981 47.6911 41.1309 45.9122 41.279 43.7951L23.817 44.1626C23.9651 46.1327 24.1183 47.7499 24.246 48.8623V48.8623ZM32.3411 31.0877C25.4973 31.0877 25.1908 41.085 32.4586 41.085C39.139 41.0899 39.139 31.0877 32.3411 31.0877V31.0877ZM22.1724 22.9233C22.3001 24.6728 22.4278 26.4468 22.5554 28.2012L42.3056 28.6619C42.4333 26.7016 42.5559 24.8394 42.658 23.1536L22.1724 22.9233Z" fill="black"/>
</svg>
