<svg width="64" height="64" viewBox="0 0 64 64" fill="none" xmlns="http://www.w3.org/2000/svg">
<path fill-rule="evenodd" clip-rule="evenodd" d="M49.9972 49.0859C50.1003 52.3241 47.3292 53.9431 43.1483 53.9917C38.9673 54.0403 23.7728 53.8568 19.7871 53.9269C15.8013 53.9971 14.1799 51.7682 14.0986 48.53C13.8383 38.3892 14.1745 17.6867 14.1854 15.5819C14.1854 11.9498 15.6332 10.185 18.7838 10.1472C21.3271 10.104 41.7275 9.98532 44.9866 10.0015C48.7012 10.0015 49.9267 12.4301 49.9864 15.7924C50.0189 17.6597 49.6773 39.3013 49.9972 49.0859ZM45.7892 44.5147L42.9639 44.5741L42.9043 41.962H45.7837V33.4295L35.448 33.6454L35.3883 30.8336L45.7783 30.8875V22.3334L42.5518 22.3874L42.5084 19.8077H45.762V14.7508L18.2361 14.9397V19.6566H19.9172C20.1395 17.9889 20.8716 16.8124 22.7804 16.8124C25.2207 16.8124 25.7467 18.7931 25.7467 21.1893C25.7467 23.5855 25.2749 25.5068 22.7913 25.5068C20.8716 25.5068 20.1558 24.3249 19.9226 22.6788H18.247V30.6933H19.9009C20.1287 29.031 20.8553 27.8545 22.7696 27.8545C25.2044 27.8545 25.7304 29.8351 25.7358 32.2368C25.7412 34.6384 25.264 36.5543 22.7804 36.5543C20.9367 36.5543 20.1992 35.4749 19.9389 33.9206L18.2578 33.9584V41.7677H19.8847C20.1124 40.1001 20.8445 38.9289 22.7533 38.9235C25.1935 38.9235 25.7195 40.9042 25.7195 43.3058C25.7195 45.7074 25.2478 47.6233 22.7641 47.6233C20.9204 47.6233 20.1829 46.544 19.9226 44.9843L18.2958 45.022V49.8199L45.7729 49.7443L45.7892 44.5147ZM30.4265 39.0153C32.8613 39.0153 33.3873 40.9959 33.3927 43.3976C33.3982 45.7992 32.921 47.7151 30.4373 47.7151C27.9537 47.7151 27.4711 45.7344 27.4711 43.3382C27.4711 40.942 27.9863 39.0153 30.4265 39.0153ZM30.4861 36.6352C28.0025 36.6352 27.5253 34.6546 27.5199 32.253C27.5145 29.8513 28.0622 27.9354 30.4753 27.9354C32.8884 27.9354 33.4361 29.9161 33.4416 32.3177C33.447 34.7193 32.9698 36.6298 30.4861 36.6352ZM38.078 39.0423C40.5128 39.0423 41.0388 41.0229 41.0443 43.4246C41.0497 45.8262 40.5725 47.7421 38.0834 47.7421C35.5944 47.7421 35.1226 45.7614 35.1226 43.3598C35.1226 40.9582 35.6215 39.0477 38.0617 39.0423H38.078ZM27.5958 22.5979L27.547 19.7267L35.2528 19.7699C35.4534 18.0321 36.1746 16.7908 38.1377 16.7854C40.5779 16.7854 41.1039 18.7661 41.1039 21.1677C41.1039 23.5693 40.6321 25.4852 38.1485 25.4852C36.1692 25.4852 35.4371 24.2224 35.2582 22.4953L27.5958 22.5979Z" fill="black"/>
</svg>
