<svg width="64" height="64" viewBox="0 0 64 64" fill="none" xmlns="http://www.w3.org/2000/svg">
<path fill-rule="evenodd" clip-rule="evenodd" d="M41.6514 46.3289L42.9129 42.5881C48.5832 41.7697 50.8952 34.7895 43.2229 37.4805C41.7333 42.9052 37.6948 44.2078 37.6948 49.1269L23.4266 48.7841C23.4266 42.8409 16.1074 40.5356 16.2796 31.9571C16.426 24.9598 43.4899 24.9984 43.7482 32.2528C43.7654 32.6984 43.7654 33.1269 43.7482 33.5383C56.742 30.9116 53.1297 46.0289 41.6514 46.3289ZM29.79 29.9089C16.3958 29.9089 16.7187 34.4681 29.79 34.4681C44.1271 34.4681 43.2401 29.9089 29.79 29.9089ZM37.4063 23.2501C37.8007 22.8071 38.0963 22.2859 38.2737 21.7209C38.451 21.1559 38.5061 20.5599 38.4353 19.9721C38.121 17.9839 36.7648 18.1768 36.0544 15.9229C35.4904 14.1403 37.0489 11.3208 38.7281 10.0911L40.1575 11.428C39.1371 12.255 39.15 13.4762 39.4772 14.5217C40.0541 16.3599 41.5094 16.3042 41.8452 18.631C42.1293 20.5678 40.743 23.4472 38.8314 24.5185L37.4063 23.2501ZM28.0678 22.5517C29.0279 21.6176 29.7082 20.0364 29.4499 18.9266C28.9806 16.9384 26.5566 16.4842 26.0055 14.1832C25.5104 12.0793 27.3531 9.22978 29.0193 8L30.4487 9.3369C29.9697 9.75346 29.6189 10.2964 29.4368 10.903C29.2548 11.5096 29.2488 12.1551 29.4197 12.7649C29.8503 14.6417 32.2915 15.2458 32.8339 17.5769C33.2645 19.4794 31.383 22.7188 29.4843 23.8072L28.0678 22.5517ZM18.5959 23.2501C18.9894 22.8065 19.2844 22.2852 19.4617 21.7204C19.639 21.1555 19.6946 20.5598 19.6249 19.9721C19.3106 17.9839 17.9544 18.1768 17.244 15.9229C16.6757 14.1403 18.2343 11.3208 19.9134 10.0911L21.3385 11.428C20.3224 12.255 20.3353 13.4762 20.6625 14.5217C21.2394 16.3599 22.6904 16.3042 23.0305 18.631C23.3103 20.5678 21.9283 23.4472 20.0167 24.5185L18.5959 23.2501ZM45.8751 56L15.8749 55.73C15.8749 55.73 12 55.4087 12 51.6251L49.8877 51.3894C49.8963 55.1901 45.8708 56 45.8708 56H45.8751Z" fill="black"/>
</svg>
