<svg width="64" height="64" viewBox="0 0 64 64" fill="none" xmlns="http://www.w3.org/2000/svg">
<path fill-rule="evenodd" clip-rule="evenodd" d="M55.6377 37.6609C40.207 53.7252 15.4178 48.2894 9.28086 40.0054C10.2333 37.5661 11.5084 35.2674 13.0717 33.1715L8 28.4781L10.359 25.9599L15.2108 30.6663C16.6675 29.1624 18.3199 27.864 20.1229 26.8066L16.0863 19.9423L19.131 18.2056L23.0814 25.3694C25.1705 24.5407 27.3746 24.0427 29.6151 23.8933L29.697 16H33.0997L32.8539 23.9106C35.2691 24.1009 37.6449 24.6375 39.9094 25.504L43.6356 17.741L46.607 19.0436L43.1569 26.9194C45.0798 27.9342 46.9035 29.1291 48.6038 30.4883L53.1235 24.601L56 26.9281L51.2302 32.8025C52.8113 34.3154 54.2841 35.9389 55.6377 37.6609V37.6609ZM19.0189 31.7822C17.2991 33.2529 15.7821 34.9481 14.5078 36.8229L15.4911 40.9128C17.7806 42.3771 20.2671 43.5029 22.8744 44.2559C19.338 41.1777 18.096 36.2455 19.0189 31.7822ZM38.0809 28.3348C33.4534 26.7805 28.8388 26.7979 24.6296 28.426C19.4027 33.7012 21.4426 44.9593 31.6679 44.9593C41.048 44.9593 43.2647 33.571 38.0809 28.3348ZM43.4717 30.8704C44.5801 35.1036 43.7305 39.9229 40.9531 43.24C44.6722 41.7927 48.1777 39.8412 51.3725 37.4394C49.0544 34.8913 46.3953 32.6804 43.4717 30.8704V30.8704ZM31.5601 41.4425C23.2927 41.4425 23.6679 29.5505 31.4264 29.5505C39.1849 29.5505 39.09 41.4425 31.5601 41.4425Z" fill="black"/>
</svg>
