<svg width="196" height="196" viewBox="0 0 196 196" fill="none" xmlns="http://www.w3.org/2000/svg">
<g opacity="0.25">
<path fill-rule="evenodd" clip-rule="evenodd" d="M48.827 46.726C48.7914 46.9335 48.804 47.157 48.9267 47.3942C53.3602 55.9369 58.8023 64.4015 69.3645 65.1454C77.24 65.7002 88.2802 60.5652 89.972 52.057C91.5859 50.9268 92.9269 49.5594 93.8061 47.8974C94.1075 47.3255 93.6066 46.5862 92.9441 46.7776C92.0008 47.0504 91.1262 47.4401 90.2792 47.8814C87.6429 42.9115 83.1395 39.9623 77.4108 40.8689C74.4255 41.341 71.8932 42.7278 69.3237 44.135C68.5676 44.5491 67.8082 44.9649 67.0332 45.3597C60.8437 48.5106 55.3156 49.039 49.4975 44.6193C48.5553 43.9029 47.2819 45.534 48.2218 46.2733C48.391 46.4065 48.5627 46.5323 48.7348 46.6584L48.827 46.726ZM63.5602 49.8081C65.8294 49.2267 67.8985 48.1834 69.9702 47.1389C71.2064 46.5156 72.4435 45.8919 73.7247 45.3655C79.8224 42.8622 84.4095 44.3534 88.8373 48.6849C88.4651 48.9061 88.0953 49.1326 87.7248 49.3595C86.6582 50.0128 85.5852 50.6699 84.437 51.2134C80.3955 53.1264 75.9231 54.127 71.4575 54.1408C66.0692 54.158 60.9251 52.6541 56.33 50.0718C58.651 50.5039 61.0764 50.4443 63.5602 49.8081ZM81.0638 58.8035C77.3615 61.1647 73.0404 62.1813 68.6894 61.6518C61.3217 60.7532 56.6899 55.4371 52.849 49.6362C57.9278 53.5298 63.9625 55.9391 70.5142 56.4274C74.8514 56.7507 80.8724 56.2039 85.8595 54.2279C84.4451 55.8967 83.0364 57.545 81.0638 58.8035Z" fill="url(#paint0_linear_1151_10860)"/>
<path fill-rule="evenodd" clip-rule="evenodd" d="M21.3326 60.7911C21.2939 60.8118 21.2553 60.8326 21.2172 60.855C19.9174 61.631 18.7483 59.6148 20.0355 58.832C27.103 54.5303 36.5798 54.9933 43.3584 59.7959C48.6401 63.5383 51.0333 70.3123 47.1042 75.6628C48.233 75.9819 49.4036 76.1631 50.5877 76.3464C51.7083 76.5199 52.8411 76.6953 53.9619 76.9912C54.5682 77.1505 54.4525 77.9059 53.9619 78.1099C51.5365 79.1186 48.6252 78.9673 45.9775 78.0778C45.9259 78.1317 45.8709 78.1833 45.8055 78.2314C42.0242 80.9926 36.7654 81.4534 32.8145 78.6738C29.8385 76.5811 28.8172 73.2086 27.8146 69.8977C26.6563 66.0727 25.523 62.33 21.4293 60.7381C21.3975 60.7564 21.3649 60.7738 21.3326 60.7911ZM45.2909 74.9865C48.9117 68.7477 44.2341 62.5353 38.4011 60.0217C34.1406 58.1855 29.5169 57.7992 25.2232 59.0899C29.0114 59.483 32.387 61.0671 35.4955 63.9727C37.0021 65.3811 38.1562 67.0739 39.3061 68.7604C40.4245 70.4008 41.5389 72.0353 42.9698 73.3967C43.7022 74.0925 44.4805 74.5979 45.2909 74.9865ZM29.923 68.4407C30.5672 71.2206 31.2179 74.0286 33.4266 76.08C36.276 78.7277 40.321 78.7678 43.5326 77.0015C42.634 76.5052 41.803 75.9264 41.0878 75.2799C39.6106 73.9414 38.4976 72.2777 37.3828 70.6114C36.4232 69.1771 35.4623 67.7408 34.2667 66.5081C32.1485 64.3245 29.6372 62.5308 26.8577 61.4992C28.1025 62.87 28.9587 64.5974 29.5043 66.7029C29.6531 67.2761 29.7879 67.8578 29.923 68.4407Z" fill="url(#paint1_linear_1151_10860)"/>
<path fill-rule="evenodd" clip-rule="evenodd" d="M34.2734 95.7626C36.3847 95.5173 38.4765 94.8617 40.4732 93.6983C40.9294 93.4324 40.6062 92.8146 40.1339 92.8937C38.2003 93.2169 36.3217 93.4083 34.4992 93.4622C34.5462 90.0557 32.193 87.6635 29.1407 86.3018C26.9062 85.305 24.6384 85.2062 22.4077 85.109C19.4035 84.9781 16.4666 84.8502 13.769 82.5354C13.6601 82.4426 13.5443 82.3944 13.4263 82.3681C12.7454 81.9898 11.7047 82.4724 11.9832 83.4352C12.3325 84.6405 12.6329 85.9523 12.9424 87.3032C14.1859 92.7317 15.5743 98.7927 20.8525 101.121C26.2901 103.521 31.4709 100.439 34.2734 95.7626ZM15.1112 87.22C19.4622 92.2633 26.0781 96.0033 32.6905 95.8738C29.5006 99.8144 23.404 101.432 19.406 97.4544C17.0654 95.1261 16.0865 91.1656 15.179 87.4943L15.1112 87.22ZM26.9549 87.3208C29.7115 88.0922 32.9071 90.3525 32.7363 93.4645C26.1824 93.3063 20.4491 91.0999 15.8184 85.9053C17.0219 86.5208 18.332 86.8566 20.0456 86.899C20.6735 86.9147 21.2968 86.9059 21.9172 86.8972C23.605 86.8733 25.272 86.8498 26.9549 87.3208Z" fill="url(#paint2_linear_1151_10860)"/>
<path fill-rule="evenodd" clip-rule="evenodd" d="M106.695 59.2871C106.1 59.8797 105.254 59.1117 105.583 58.463C105.392 58.2463 105.324 57.9368 105.527 57.6148C106.804 55.5856 107.267 53.2889 107.732 50.9763C108.174 48.7861 108.618 46.5816 109.759 44.5767C111.582 41.3766 114.239 38.6578 117.306 36.6301C123.461 32.56 131.207 33.4311 134.593 40.3977C134.716 40.651 134.733 40.8894 134.71 41.1164C136.867 41.2264 139.111 41.6585 141.451 42.4758C142.009 42.6695 141.92 43.4901 141.311 43.5096C139.843 43.5559 138.417 43.4185 136.998 43.2819C136.624 43.2458 136.25 43.2098 135.876 43.1772C137.899 47.8171 136.154 52.928 131.572 55.5058C128.429 57.2743 124.451 57.7053 120.917 57.9758C119.671 58.0712 118.201 57.9705 116.667 57.8654C113.318 57.636 109.666 57.3858 107.391 59.1106C107.187 59.2653 106.968 59.2768 106.771 59.2103C106.758 59.2236 106.745 59.2373 106.731 59.251C106.719 59.2631 106.707 59.2752 106.695 59.2871ZM132.074 41.1393C126.258 32.505 116.194 37.3591 111.427 44.61C109.99 46.7957 109.53 49.2184 109.072 51.6314C108.812 53.0006 108.553 54.3667 108.116 55.6846C114.94 48.5013 122.668 41.7995 132.074 41.1393ZM115.117 55.5693C115.859 55.5563 116.602 55.5433 117.34 55.5023C125.613 55.0473 135.826 53.5847 133.568 43.058C132.483 43.0454 131.388 43.1085 130.267 43.3492C127.038 44.0438 123.703 45.4857 120.812 47.0457C116.657 49.2865 113.207 52.662 109.878 56.0559C111.546 55.6319 113.326 55.6007 115.117 55.5693Z" fill="url(#paint3_linear_1151_10860)"/>
<path fill-rule="evenodd" clip-rule="evenodd" d="M98 0C43.8753 0 0 43.8765 0 98C0 152.125 43.8753 196 98 196C152.125 196 196 152.125 196 98C196 43.8765 152.125 0 98 0ZM98 193.106C96.7036 193.106 95.4188 193.06 94.135 193.008C103.483 190.103 111.545 184.047 119.536 178.044C120.079 177.636 120.622 177.228 121.165 176.822C134.465 166.862 152.112 159.108 169.096 161.141C151.676 180.743 126.288 193.106 98 193.106ZM178.722 148.276C170.88 150.654 163.325 152.208 155.084 152.85L153.778 152.951C146.721 153.495 139.749 154.033 132.924 156.09C131.87 156.408 130.824 156.754 129.781 157.114C132.965 154.903 136.036 152.541 139.112 150.174C142.711 147.406 146.319 144.63 150.129 142.082C160.75 134.978 174.173 126.715 187.389 130.539C185.115 136.786 182.191 142.718 178.722 148.276ZM170.961 158.988C164.11 158.06 156.554 159.86 149.935 161.46C142.222 163.326 134.784 166.273 128.004 170.413C124.368 172.633 120.832 175.143 117.287 177.659C107.989 184.258 98.6272 190.902 87.2395 192.483C83.8215 192.098 80.4609 191.526 77.161 190.788C84.1069 189.283 91.3647 184.706 95.8921 181.324C98.9479 179.041 101.729 176.483 104.375 173.79L104.896 173.352C108.169 170.601 111.441 167.851 115.161 165.721C121.73 161.961 128.959 159.214 136.314 157.457C141.841 156.136 147.439 155.675 153.001 155.216C161.341 154.528 169.603 153.847 177.433 150.287C175.438 153.311 173.28 156.218 170.961 158.988ZM187.927 128.947C176.534 127.077 163.584 131.907 153.796 137.308C147.41 140.831 141.791 145.435 136.174 150.037C132.286 153.223 128.4 156.408 124.259 159.233C121.133 160.563 118.083 162.078 115.151 163.778C113.664 164.639 112.263 165.602 110.906 166.619C112.416 164.853 113.902 163.064 115.388 161.276C117.24 159.047 119.091 156.819 120.985 154.637C129.281 145.072 138.542 135.976 149.564 129.595C160.919 123.022 176.894 118.077 189.261 124.763C188.849 126.172 188.403 127.566 187.927 128.947ZM189.813 122.822C181.349 117.974 169.204 120.274 160.529 123.141C149.673 126.729 140.022 133.312 131.484 140.804C125.051 146.448 119.514 152.844 113.961 159.258C111.32 162.31 108.674 165.366 105.927 168.347C101.342 173.322 96.3839 177.959 90.6139 181.541C85.2611 184.864 74.8754 190.494 68.2401 188.27C68.1653 188.245 68.0944 188.243 68.0235 188.242C68.0075 188.241 67.9914 188.241 67.9753 188.24C55.6537 184.143 44.453 177.601 34.9499 169.177C42.4139 172.767 50.9852 174.336 59.0189 174.129C74.5671 173.733 89.5273 168.699 102.66 160.471C110.498 155.561 117.065 149.138 123.637 142.71C128.962 137.502 134.291 132.289 140.304 127.873C154.523 117.433 174.188 106.828 191.579 114.898C191.098 117.579 190.513 120.224 189.813 122.822ZM16.7185 48.5988C21.8651 51.1283 30.5694 45.9262 35.0911 43.2239C35.2983 43.1 35.4968 42.9814 35.6858 42.869C38.0779 41.4465 40.4092 39.9244 42.7131 38.3553C61.0466 28.4326 82.6306 21.8798 103.03 19.7731C123.951 17.6136 146.103 19.4212 164.624 30.1542C170.251 35.6789 175.203 41.8878 179.323 48.663C157.007 46.6262 137.631 58.3335 123.208 74.6324C119.257 79.0979 115.772 83.8901 112.288 88.6817C109.582 92.4036 106.875 96.1252 103.951 99.6929C100.464 103.946 96.1477 107.903 90.6391 109.179C83.6542 110.798 76.4148 107.904 74.3218 101.34C73.0816 94.5591 76.0973 87.2739 82.4117 85.0273C83.2885 85.0961 84.1551 85.2623 84.9964 85.5534C85.9007 86.5002 86.6893 87.4985 87.0469 88.9038C87.6361 91.2122 86.9014 93.0599 84.868 93.978C83.5671 93.821 82.367 95.46 83.5499 96.5168C87.2097 99.7881 92.669 98.6625 94.5156 93.9241C95.9838 90.1554 94.3345 86.4211 91.4862 84.029C89.5869 80.3325 85.6119 78.698 81.1486 78.4069C81.0695 78.3221 80.9686 78.2521 80.8162 78.2281C71.9171 76.7873 62.665 79.6517 56.3047 86.1334C51.0689 91.4701 47.2154 101.083 50.1611 108.498C44.0347 103.879 35.4095 103.075 28.5942 107.502C21.1875 112.314 18.4504 121.974 19.5117 130.38C20.0711 134.792 21.7251 138.868 24.3728 142.435C26.6503 145.504 29.0046 147.44 31.5812 149.073C38.5513 156.336 49.9284 159.245 60.1938 159.428C80.7405 159.795 97.5495 150.266 114.706 140.01C121.117 136.178 127.24 131.925 133.359 127.675C138.915 123.816 144.469 119.959 150.232 116.421C162.796 108.708 178.116 103.502 192.408 109.352C192.232 110.823 192.027 112.285 191.787 113.735C180.652 106.827 165.991 111.659 155.089 116.824C141.352 123.33 130.753 133.206 119.83 143.384C119.105 144.059 118.378 144.736 117.649 145.414C105.186 156.995 90.6999 166.207 73.8977 169.878C64.8462 171.855 54.8353 172.608 45.7379 170.492C40.1055 169.184 33.304 166.292 28.0097 162.375C12.4214 145.437 2.89415 122.835 2.89415 98C2.89415 79.9084 7.94889 62.9974 16.7185 48.5988ZM98 2.89415C107.615 2.89415 116.891 4.33492 125.639 6.98837C119.083 6.3465 112.229 6.99181 105.964 7.79186C95.9093 9.0756 86.0486 11.7623 76.6979 15.6685C66.499 19.929 57.1884 25.8491 48.1587 32.1635C46.9321 33.0215 45.7131 33.896 44.493 34.7711C41.0651 37.2301 37.6281 39.6954 33.9951 41.8179C33.7165 41.9807 33.4057 42.1655 33.0671 42.3667C29.1877 44.6723 21.6698 49.1403 17.3844 47.5604C34.2014 20.7405 64.0095 2.89415 98 2.89415ZM161.191 26.9471C143.665 17.4486 122.523 16.2646 103.03 18.1982C84.6193 20.0241 65.5454 25.6783 48.6229 34.206C49.2735 33.7401 49.9235 33.2732 50.5736 32.8062C55.1752 29.5005 59.7796 26.1928 64.6101 23.2483C74.7047 17.0944 85.644 12.6517 97.2034 10.1427C106.614 8.10019 118.525 6.18718 128.685 7.98327C140.807 12.1153 151.828 18.6131 161.191 26.9471ZM31.6752 144.195C27.9948 138.422 27.1844 127.34 31.7256 121.591C29.2464 126.206 28.7948 132.765 30.2115 137.254C30.2104 137.357 30.2264 137.464 30.2734 137.573C30.301 137.636 30.3327 137.695 30.3644 137.755C30.3906 137.804 30.4169 137.854 30.4407 137.905C30.4506 137.932 30.4602 137.96 30.4699 137.988C30.4851 138.032 30.5003 138.076 30.5164 138.118C34.9247 149.23 47.0228 154.572 58.2877 155.067C72.2988 155.684 85.3769 150.122 96.4641 141.92C103.44 136.76 110.181 131.28 116.923 125.8C122.8 121.022 128.677 116.245 134.71 111.679C142.979 105.422 151.595 100.177 161.433 96.7506C166.2 95.091 171.105 93.7568 176.079 92.8857C180.499 92.1109 184.773 92.2287 189.123 92.3486C190.384 92.3834 191.651 92.4184 192.93 92.4318C193.037 94.276 193.106 96.1305 193.106 98C193.106 101.041 192.948 104.043 192.669 107.01C179.858 101.738 165.541 105.621 153.706 111.866C148.341 114.696 143.404 118.225 138.471 121.75C136.408 123.225 134.345 124.699 132.252 126.121C124.478 131.403 116.454 136.226 108.349 140.977C95.107 148.741 81.8478 155.615 66.2916 156.658C54.1132 157.474 38.8321 155.422 31.6752 144.195ZM52.0306 131.712C53.2879 129.421 53.5814 126.522 52.6782 123.522C50.5267 116.372 42.1102 112.794 35.217 115.204C27.0698 118.053 24.0828 128.749 25.3528 136.49C25.9454 140.102 27.2188 143.211 28.9988 145.87C28.9761 145.847 28.9521 145.825 28.9282 145.804C28.8991 145.778 28.87 145.753 28.8429 145.723C26.1448 142.84 23.818 139.248 22.587 135.48C20.4539 128.945 20.6866 121.182 24.1114 115.113C28.6137 107.134 38.5432 104.266 46.5976 108.994C53.0163 112.762 59.1221 126.579 52.0306 131.712ZM62.3635 101.045C61.8363 115.461 74.4433 124.024 87.4722 125.409C95.0978 126.221 101.953 124.946 108.327 122.384C96.879 128.395 83.9098 130.931 72.3504 123.777C62.2466 117.523 54.1258 106.609 58.1547 94.2668C60.0929 88.3318 64.7201 83.6301 70.5921 81.5268C73.978 80.313 79.8247 79.7342 84.3568 81.1715C73.3625 79.9244 62.7624 90.1371 62.3635 101.045ZM89.0046 89.4883C88.8889 88.7788 88.6401 87.9994 88.286 87.2383C89.0768 87.957 89.7061 88.8969 90.1646 90.0717C89.9812 93.2501 88.9519 94.7459 87.1054 94.6095C88.5714 93.4278 89.36 91.6489 89.0046 89.4883ZM54.2702 148.239C60.5147 147.677 66.4291 145.238 71.7589 142.028C73.9719 140.695 76.1901 138.972 78.4426 137.222C82.0023 134.456 85.6484 131.623 89.4952 130.161C91.9114 130.087 94.3551 129.765 96.8045 129.136C109.258 125.947 122.105 117.853 130.882 107.954C131.317 107.598 131.751 107.241 132.184 106.882C132.833 106.345 133.493 105.796 134.165 105.238L134.168 105.235C149.858 92.1926 171.76 73.9867 192.275 85.6004C192.495 87.2979 192.671 89.0104 192.802 90.7365C191.409 90.8036 190.034 90.8583 188.671 90.9125C181.442 91.2001 174.569 91.4735 167.281 93.5046C159.426 95.695 151.738 98.6178 144.676 102.719C130.656 110.857 117.463 121.635 104.905 131.895L104.364 132.337C91.3085 143.001 77.3741 152.773 59.8098 152.673C52.6071 152.631 45.276 150.802 39.5989 146.284C44.1596 148.171 49.5066 148.668 54.2702 148.239ZM34.4754 140.735C33.508 139.277 32.7171 137.708 32.1669 136.06C35.5803 140.388 42.3234 142.111 47.5443 142.174C54.2044 142.255 59.4798 138.372 64.7768 134.472C68.3625 131.833 71.9582 129.186 75.9999 127.756C79.5542 129.188 83.3321 130.002 87.2131 130.15C84.6861 131.095 82.3788 132.581 80.0847 134.059C79.3062 134.561 78.5291 135.061 77.7455 135.539C72.3206 138.848 66.6434 142.277 60.5445 144.178C52.9681 146.54 40.9434 146.615 34.4754 140.735ZM49.0573 130.227C47.5764 132.783 39.7834 134.212 40.2648 130.678C41.9738 131.301 43.5601 131.593 45.3849 130.474C47.1569 129.386 48.2802 127.355 48.4957 125.314C48.6114 124.204 48.451 123.083 48.0808 122.025C49.9663 124.322 50.7491 127.306 49.0573 130.227ZM31.3119 131.041C31.2821 126.669 33.4896 120.051 37.9277 118.049C38.7622 117.934 39.6539 117.896 40.6167 117.969C41.732 118.054 42.8839 118.387 43.9877 118.897C45.4204 120.14 46.4222 122 46.7007 123.769C46.9449 125.316 46.5196 126.882 45.4846 128.069C44.2203 129.519 41.5405 130.365 40.4631 128.131C40.031 127.237 39.1668 127.312 38.557 127.768C38.0951 127.82 37.6733 128.061 37.4475 128.57C35.0645 133.92 39.2757 136.8 44.4645 136.366C46.2583 136.214 47.8068 135.674 49.0883 134.857C55.7098 133.627 57.9702 126.908 57.2515 120.714C60.8723 123.317 65.503 124.272 69.9525 124.591C71.3073 125.472 72.7103 126.263 74.1579 126.947C70.5071 128.507 67.4475 130.788 64.3778 133.076C61.7082 135.066 59.031 137.062 55.9506 138.594C49.1513 141.976 34.535 140.935 31.744 132.35C31.6718 132.123 31.5205 131.991 31.3474 131.924C31.3279 131.632 31.3142 131.337 31.3119 131.041ZM72.9326 106.161C78.3794 118.211 91.6443 119.656 102.443 113.97C111.051 109.437 117.113 101.914 123.19 94.3716C127.995 88.4087 132.809 82.4343 138.898 77.9174C151.375 68.6596 174.369 60.2786 188.766 69.5307C190.134 73.8966 191.189 78.4 191.92 83.0123C181.342 77.9954 169.148 81.0626 158.918 86.0509C149.099 90.8397 140.393 97.255 131.674 103.68C127.634 106.657 123.591 109.637 119.433 112.457C106.491 121.235 84.0634 127.886 71.2236 114.966C65.3379 109.042 63.3069 99.1657 68.2504 92.0432C70.4488 88.8751 73.7556 86.4727 77.4739 85.5041C71.6065 89.7795 69.5387 98.6522 72.9326 106.161ZM180.533 50.764C183.395 55.7545 185.821 61.0248 187.752 66.5311C179.162 61.8523 166.465 63.4077 157.679 65.8549C145.98 69.1146 135.894 75.8864 127.781 84.8382C125.363 87.5057 123.061 90.4564 120.731 93.4415C113.806 102.316 106.644 111.494 95.5299 114.441C88.5404 116.293 81.7412 114.071 77.6573 108.777C80.7829 111.1 85.0411 112.136 89.4138 111.626C99.5783 110.439 106.038 101.669 111.13 93.6708C118.417 82.226 126.453 71.501 137.297 63.159C149.953 53.4243 164.104 49.6957 179.941 50.9073C180.187 50.9268 180.374 50.8603 180.533 50.764ZM72.4123 79.3055C69.0826 80.156 66.0612 81.4993 64.0312 83.0352C54.0593 90.5818 52.6438 105.012 59.8087 114.904C61.9154 117.813 64.3591 120.365 67.0538 122.514C63.3882 121.675 59.7949 120.837 56.903 118.028C56.86 117.985 56.8139 117.961 56.7675 117.937C56.7496 117.927 56.7317 117.918 56.7139 117.907C56.3288 116.495 55.7947 115.161 55.1081 114.002C54.1865 112.451 53.0598 111.086 51.7967 109.892C47.5558 94.8101 58.102 81.128 72.4123 79.3055Z" fill="url(#paint4_linear_1151_10860)"/>
</g>
<defs>
<linearGradient id="paint0_linear_1151_10860" x1="152.717" y1="20.4167" x2="33.8917" y2="167.825" gradientUnits="userSpaceOnUse">
<stop stop-color="var(--color-quadra)"/>
<stop offset="1" stop-color="var(--color-role)"/>
</linearGradient>
<linearGradient id="paint1_linear_1151_10860" x1="152.717" y1="20.4167" x2="33.8917" y2="167.825" gradientUnits="userSpaceOnUse">
<stop stop-color="var(--color-quadra)"/>
<stop offset="1" stop-color="var(--color-role)"/>
</linearGradient>
<linearGradient id="paint2_linear_1151_10860" x1="152.717" y1="20.4167" x2="33.8917" y2="167.825" gradientUnits="userSpaceOnUse">
<stop stop-color="var(--color-quadra)"/>
<stop offset="1" stop-color="var(--color-role)"/>
</linearGradient>
<linearGradient id="paint3_linear_1151_10860" x1="152.717" y1="20.4167" x2="33.8917" y2="167.825" gradientUnits="userSpaceOnUse">
<stop stop-color="var(--color-quadra)"/>
<stop offset="1" stop-color="var(--color-role)"/>
</linearGradient>
<linearGradient id="paint4_linear_1151_10860" x1="152.717" y1="20.4167" x2="33.8917" y2="167.825" gradientUnits="userSpaceOnUse">
<stop stop-color="var(--color-quadra)"/>
<stop offset="1" stop-color="var(--color-role)"/>
</linearGradient>
</defs>
</svg>
