<svg width="196" height="196" viewBox="0 0 196 196" fill="none" xmlns="http://www.w3.org/2000/svg">
<g opacity="0.25">
<path d="M35.569 169.712C37.5738 167.962 39.9189 166.693 41.9293 164.898C44.5335 162.573 46.5382 159.575 48.0283 156.434C50.8044 150.58 51.7661 143.914 52.0813 137.503C52.4114 130.782 51.899 121.749 48.6736 114.917C43.2486 108.075 38.1767 101.017 34.0045 93.2754C31.4404 88.5198 28.7251 83.2885 27.8665 77.8991C27.7026 82.6409 28.952 87.7392 31.3716 92.912C36.4654 103.796 45.7921 114.239 43.8447 127.085C41.9523 139.565 31.8817 149.049 20.0586 152.471C24.5139 158.833 29.7268 164.622 35.569 169.712ZM105.06 192.817C105.085 192.636 105.153 192.444 105.272 192.254C109.347 185.705 108.713 175.427 107.351 168.124C105.842 160.024 102.865 152.032 98.035 145.327C93.5235 139.064 87.9472 133.67 82.0901 128.553C84.8949 132.214 87.5288 136.026 89.9966 140.046C95.5511 149.094 100.008 159.235 99.9812 170.036C99.9629 177.194 99.5743 187.594 94.1058 193.007C95.3998 193.06 96.6951 193.106 98.0006 193.106C100.378 193.106 102.726 192.989 105.06 192.817ZM177.678 149.904C177.542 149.773 177.425 149.61 177.37 149.373C175.087 139.466 171.781 131.087 164.672 123.595C158.722 117.323 151.643 111.947 144.236 107.516C134.981 101.978 125.224 98.8493 115.22 96.3117C120.534 99.3055 125.442 103.536 129.682 107.195C137.472 113.917 144.549 121.857 149.339 131.025C154.071 140.082 156.677 150.311 156.261 160.54C156.073 165.148 155.75 170.576 153.772 175.017C163.192 168.184 171.305 159.668 177.678 149.904ZM185.998 61.9085C176.694 62.1675 167.633 60.4116 158.368 60.4448C147.373 60.4849 136.726 63.4306 125.93 65.0926C115.87 66.6411 106.429 66.2056 96.3741 64.8886C87.6022 63.739 78.2572 64.0473 69.9197 60.7703C66.7481 63.8799 63.5571 68.2412 67.5677 72.0031C70.8607 75.0921 76.3155 76.189 80.5679 77.1506C89.8579 79.2493 99.376 79.7731 108.826 80.6809C126.007 82.3303 143.515 85.8755 159.072 93.5814C171.861 99.9153 184.004 109.167 189.954 122.328C192.003 114.561 193.107 106.41 193.107 98C193.107 85.221 190.569 73.0404 185.998 61.9085ZM98.0006 2.89415C74.2695 2.89415 52.5868 11.6064 35.9267 25.9786C36.4264 26.1196 36.9342 26.2835 37.4695 26.4921C39.0868 27.1236 40.4462 28.5289 42.2801 28.2263C44.3352 27.8882 47.4609 24.5768 49.633 23.7676C56.4392 21.2276 63.7153 23.6851 69.8635 26.8199C72.9686 28.4028 75.1567 30.6035 78.3099 29.5673C81.0023 28.6825 83.2134 27.918 86.15 28.0463C92.2936 28.3157 97.6395 31.9056 101.084 36.8423C101.138 36.9191 101.156 36.9924 101.181 37.0669C101.302 37.0371 101.417 37.0004 101.542 36.9741C107.247 35.7557 112.557 37.1116 118.06 38.5524C130.008 41.6804 140.896 34.0857 153.002 37.7913C163.339 40.9537 173.552 46.6216 182.059 53.508C166.092 23.4065 134.449 2.89415 98.0006 2.89415ZM11.4059 58.6842C14.378 58.5455 17.608 59.4705 20.3967 59.9668C25.244 60.8288 30.3458 61.8168 35.1071 60.2878C45.3508 52.6804 61.7931 50.4121 73.0729 49.1066C73.5761 48.4544 74.1664 47.8469 74.8793 47.3048C79.0469 44.1355 84.0719 45.2863 88.8092 43.9453C93.0444 42.7463 95.5844 39.263 99.5285 37.6125C95.6256 32.0672 83.5435 25.2026 77.7059 32.2403C77.4984 32.4913 77.0319 32.5383 76.766 32.3618C71.8992 29.1559 67.2123 25.6451 61.4527 24.2008C53.8293 22.289 48.065 26.1838 42.5552 30.9497C42.209 31.2488 41.5843 31.4471 41.1706 31.1285C38.9297 29.4069 37.0293 27.9524 34.4355 27.2704C24.7443 35.9849 16.871 46.6686 11.4059 58.6842ZM120.626 190.112C126.365 174.988 126.743 159.694 119.403 145.041C113.129 132.519 102.953 121.588 91.693 113.388C81.6981 106.109 70.6051 100.175 61.6911 91.4999C55.8661 85.832 45.7921 75.6629 48.5452 66.5689C48.8203 64.6044 49.7167 62.6547 51.1815 60.7623C56.4632 53.939 63.6752 52.9143 71.5278 50.8362C71.6963 50.7915 71.835 50.8305 71.9416 50.9119C72.0115 50.7743 72.0814 50.6391 72.1559 50.505C65.6535 51.3394 59.0009 52.395 52.6361 54.2416C52.6498 54.3929 52.6074 54.543 52.4653 54.6599C46.6815 59.3731 42.2938 63.9992 41.9672 71.8747C41.8078 75.7236 42.5185 79.2883 43.7759 82.673C43.8332 82.72 43.8939 82.7624 43.9432 82.8312C47.9549 88.4522 51.3007 94.2817 55.7858 99.5955C59.7334 104.272 63.7863 108.738 68.1878 112.992C70.2005 114.94 72.1365 116.925 74.0071 118.95C76.9677 121.476 79.9627 123.979 82.9349 126.517C92.7315 134.886 102.105 143.967 106.932 156.172C110.993 166.441 114.114 182.092 108.343 192.536C112.51 192.085 116.592 191.357 120.581 190.386C120.582 190.299 120.588 190.211 120.626 190.112ZM183.77 56.8606C175.314 49.5742 164.897 43.7218 154.376 40.047C149.163 38.2257 144.106 37.7409 138.675 38.7495C134.339 39.5542 130.203 41.0786 125.738 40.7107C115.666 39.8808 104.393 33.1618 95.6211 41.8615C93.1991 44.2628 91.3881 45.7517 87.9185 46.4474C82.1829 47.5959 76.8909 46.8211 73.4832 52.7137C72.556 54.3172 70.1902 57.8681 71.4086 59.7387C72.1445 60.87 77.0342 61.254 78.287 61.4569C83.5905 62.3165 89.0063 62.3773 94.3453 62.9435C105.67 64.1459 116.035 64.3648 127.34 62.4048C137.601 60.6259 147.902 58.3197 158.368 58.3415C167.235 58.361 176.266 59.4946 185.176 59.9714C184.72 58.9272 184.263 57.8853 183.77 56.8606ZM69.036 59.2298C69.0417 59.2241 69.0474 59.2241 69.0531 59.2195C69.7294 57.4475 70.189 55.5792 70.7748 53.7888C66.1601 54.6748 61.1615 55.3064 58.3281 59.5508C55.9967 63.0421 55.5222 67.1042 57.3263 70.7377C59.276 73.3613 61.2016 75.813 64.191 77.4372C67.4542 79.2092 71.4808 80.2362 75.0684 81.1302C81.8907 82.8301 88.8963 83.5705 95.8102 84.7843C109.845 87.2498 124.48 88.5576 138.19 92.5028C149.662 95.805 160.634 101.489 170.045 108.814C176.241 113.635 185.426 121.625 187.496 130.227C188.129 128.471 188.699 126.684 189.228 124.881C184.023 110.687 170.654 100.912 157.404 94.5878C142.35 87.4 125.613 84.1001 109.072 82.8117C101.94 82.2558 94.8153 81.889 87.7237 80.8827C80.796 79.9004 72.1422 78.8275 66.52 74.2106C60.5781 69.3313 64.4305 63.4501 69.036 59.2298ZM186.697 132.321C185.61 126.339 180.327 120.307 176.324 116.298C171.555 111.521 166.022 107.478 160.222 104.042C148.208 96.9214 135.377 93.0438 121.695 90.7033C108.392 88.427 95.1626 85.8434 81.8758 83.4949C77.0789 82.6467 72.2086 81.5658 67.625 79.8327C69.6836 80.9274 71.796 81.8833 73.7755 82.7682C88.9398 89.5525 105.207 91.4518 121.077 95.8096C134.569 99.5141 147.378 105.894 158.283 114.682C163.494 118.883 168.446 123.524 172.189 129.114C175.956 134.738 177.759 140.926 179.273 147.416C182.179 142.648 184.655 137.593 186.697 132.321ZM149.275 178.081C154.202 172.839 154.166 163.065 153.954 156.356C153.652 146.834 150.569 137.089 145.764 128.891C137.056 114.034 121.899 100.161 105.673 94.0238C101.264 93.0037 96.8223 91.9882 92.3693 90.8271C81.0574 87.8768 65.2627 83.5086 57.5086 73.8897C54.5823 70.2608 53.6986 65.9786 55.3996 61.5692C58.2433 54.198 64.5543 53.6627 71.3731 52.1452C71.4086 52.0592 71.4476 51.9767 71.4831 51.8919C67.0416 53.1045 62.2321 53.6925 58.2502 56.1477C53.0005 59.3846 47.3646 65.7632 51.4704 72.0386C55.9646 78.9078 66.2381 83.4822 73.5085 86.3409C86.2921 91.3681 100.003 95.0302 111.093 103.495C122.804 112.434 129.938 127.001 133.59 140.996C137.57 156.252 136.658 172.174 131.536 187.005C137.792 184.647 143.726 181.642 149.275 178.081ZM129.541 187.727C136.552 168.362 136.197 148.09 127.323 129.304C123.528 121.27 118.817 113.108 112.037 107.225C105.407 101.471 97.2383 97.7891 89.1255 94.6531C76.5081 89.776 60.0061 85.8927 51.1724 74.6909C54.8998 85.1121 65.9446 93.1825 74.5733 99.1496C84.9843 106.351 96.146 112.766 104.928 122.028C113.014 130.553 120.211 140.415 124.072 151.6C128.5 164.426 127.111 177.406 122.427 189.924C124.839 189.286 127.208 188.547 129.541 187.727ZM92.2008 192.725C98.8866 186.477 99.0413 171.283 97.4974 162.932C95.4675 151.963 89.3639 142.235 82.9658 133.297C79.0916 127.885 74.7303 123.157 70.2246 118.51C68.3517 116.917 66.4994 115.313 64.6999 113.679C54.8952 104.774 43.5157 92.8478 40.5894 79.4396C38.3337 69.0986 42.4279 61.2425 50.1029 55.0279C48.8834 55.4302 47.6764 55.8646 46.4855 56.3357C46.4821 56.4606 46.4351 56.589 46.3124 56.7002C40.7212 61.7583 36.0459 68.1965 35.4831 75.9586C34.9765 82.9344 38.132 89.9617 41.9442 95.6354C49.892 107.461 62.2126 115.796 71.3215 126.705C79.3151 136.28 85.327 147.162 87.0669 159.656C88.7037 171.407 85.2869 181.4 79.3163 191.259C83.4759 192.088 87.7352 192.636 92.0713 192.903C92.1079 192.842 92.14 192.781 92.2008 192.725ZM54.7439 131.043C56.9584 139.615 59.3265 148.251 58.0874 157.181C56.9687 165.238 53.3203 172.725 48.7034 179.348C53.3536 182.172 58.2777 184.584 63.4069 186.589C65.9928 181.33 68.6967 176.852 69.5013 170.86C70.3369 164.625 70.7564 158.158 69.5162 151.947C67.1722 140.21 60.5712 129.465 53.059 120.339C54.0585 123.791 54.5686 127.446 54.7439 131.043ZM46.685 178.055C50.4216 171.774 54.3313 165.81 55.6746 158.457C56.8552 151.992 55.9818 145.588 54.6064 139.265C53.6275 151.775 48.99 165.521 36.7084 170.7C39.8639 173.363 43.1982 175.815 46.685 178.055ZM42.6308 102.641C49.4381 112.349 58.0335 120.765 63.8047 131.18C68.6428 139.912 72.2935 149.619 72.3004 159.702C72.3038 164.852 71.9084 170.823 70.0916 175.696C68.6165 179.656 66.1051 183.12 64.3296 186.953C68.621 188.577 73.0591 189.898 77.621 190.894C84.9189 176.952 87.3134 163.532 81.5651 148.349C76.1883 134.145 65.0781 123.45 54.4711 113.036C45.8413 104.563 37.2276 95.2124 34.7163 82.9458C32.676 72.9785 36.9674 64.2467 43.855 57.4521C42.5919 58.024 41.3494 58.6395 40.1344 59.3112C39.1383 59.8614 38.2168 60.4448 37.3503 61.0523C37.2872 61.2139 37.1783 61.356 36.9835 61.4397C36.8608 61.4913 36.7393 61.5268 36.6167 61.5749C33.3294 64.0381 31.037 66.9185 29.6202 70.0935C26.8659 81.152 36.6453 94.1029 42.6308 102.641ZM19.027 151.003C26.4716 147.026 33.5735 144.684 38.2649 136.779C43.173 128.512 43.2165 119.949 39.2839 111.374C34.1535 100.186 24.7282 89.3863 25.8103 76.2921C26.2802 70.6081 28.7067 66.1643 32.3161 62.6558C30.0306 62.9332 27.7049 62.8163 25.3082 62.5309C20.5469 61.9647 15.3546 61.442 10.6437 60.3714C5.66453 71.9137 2.89416 84.6307 2.89416 98C2.89416 117.624 8.84181 135.857 19.027 151.003ZM31.4576 26.0783C31.4725 25.7356 31.696 25.4181 32.1442 25.4261C49.5436 9.62807 72.6477 0 98.0006 0C152.124 0 196.001 43.8753 196.001 98C196.001 152.124 152.124 196 98.0006 196C43.8768 196 0 152.124 0 98C0 69.5697 12.1188 43.9796 31.4576 26.0783Z" fill="url(#paint0_linear_1151_1928)"/>
</g>
<defs>
<linearGradient id="paint0_linear_1151_1928" x1="152.718" y1="20.4167" x2="33.8927" y2="167.826" gradientUnits="userSpaceOnUse">
<stop stop-color="var(--color-quadra)"/>
<stop offset="1" stop-color="var(--color-role)"/>
</linearGradient>
</defs>
</svg>
