<svg width="196" height="196" viewBox="0 0 196 196" fill="none" xmlns="http://www.w3.org/2000/svg">
<g opacity="0.25">
<path d="M65.5871 60.7245C63.1709 60.023 60.679 59.6207 58.6239 59.2676C49.6525 57.7272 43.2934 53.5814 38.6845 46.4761C42.3053 48.3719 46.536 49.047 50.3517 50.8202C55.6781 53.296 61.2154 56.5569 65.5871 60.7245ZM187.076 131.359C182.143 133.759 177.15 135.507 172.033 136.667C169.871 134.043 168.121 131.075 165.168 129.212C161.758 127.061 157.444 126.319 153.588 125.399C151.501 124.9 149.327 124.441 147.379 123.493C145.959 122.801 144.064 120.722 142.335 120.896C141.96 120.934 141.532 121.151 141.454 121.566C140.306 127.728 146.042 135.257 152.473 138.414C152.396 138.41 152.32 138.412 152.245 138.408C143.796 138.108 134.691 136.367 126.202 133.502C124.064 130.358 123.765 126.954 123.111 123.036C122.401 118.798 121.22 114.558 119.393 110.655C115.876 103.137 109.709 96.6956 103.596 91.2466C102.78 90.5199 101.309 91.2088 101.668 92.3699C104.337 100.984 105.224 110.124 108.5 118.561C110.109 122.704 112.347 125.882 115.054 128.884C114.593 128.654 114.13 128.425 113.678 128.187C93.0651 117.318 88.6384 93.2502 78.616 73.7705C77.9042 68.5118 80.1863 63.6301 79.7977 58.2613C79.4172 53.0014 76.8245 47.056 72.9423 43.4123C72.1835 42.7005 70.5822 43.1429 70.698 44.3419C71.2241 49.7794 70.7324 55.0657 70.894 60.5342C70.9078 60.9904 70.9399 61.4443 70.9868 61.8947C66.7975 57.0704 61.1352 53.7659 55.536 50.8374C49.5872 47.7254 41.9913 47.3414 36.7302 43.0902C36.7027 43.0363 36.6729 42.987 36.6454 42.9332C36.4539 42.5561 36.1731 42.3819 35.8774 42.3372C35.8304 42.2924 35.7788 42.2546 35.7318 42.2099C35.0063 41.5073 33.9953 42.5033 34.5444 43.2679C34.4641 43.5326 34.455 43.8295 34.5856 44.1367C37.787 51.6558 42.4096 57.1667 50.1385 60.4585C54.2522 62.2099 58.7179 62.6925 63.054 63.6072C65.9722 64.2215 68.3288 65.2474 70.6235 66.7168C72.0345 68.7811 73.2896 70.9348 74.4197 73.1596C73.4661 72.7011 72.4425 72.3114 71.3364 72.0031C67.2582 70.866 62.4694 70.0511 58.2559 69.5628C56.1767 69.321 53.8293 69.0963 51.9896 70.3147C47.5458 73.257 52.6865 78.8195 55.8053 80.6488C62.9749 84.8554 71.4476 79.8969 78.7707 83.1063C79.4974 84.9631 80.2035 86.8314 80.9153 88.6963C78.263 86.4498 75.2748 85.0514 70.7714 84.3155C62.8797 83.0261 54.5835 82.4988 46.9268 80.2099C45.6362 79.8236 44.3811 79.4064 43.1535 78.9594C42.7592 75.7878 42.6801 72.2598 41.5832 69.2751C40.8554 67.2979 38.6684 64.5161 36.1685 65.472C33.8452 66.3603 34.2509 69.9961 34.8 71.8357C35.2653 73.3923 35.9359 74.7964 36.7749 76.095C32.6864 73.8267 29.1033 70.8248 26.1358 66.5896C25.3461 65.4617 24.6904 64.3281 24.1242 63.1876C24.1861 63.1143 24.2377 63.0249 24.2686 62.9057C24.8326 60.7245 26.5438 58.8596 27.4138 56.7896C28.1107 55.1287 28.7033 53.4438 29.1079 51.6878C29.6088 49.5112 30.9544 44.4164 28.1623 43.0615C25.8836 41.9555 23.8124 44.8141 22.8783 46.4463C21.9086 48.1404 21.3733 49.9204 21.0902 51.7463C20.7922 48.8923 20.6787 45.9614 20.4793 42.9366C27.462 33.124 36.2534 24.6994 46.3778 18.1409C46.6311 21.0419 47.7762 24.0667 49.4095 26.64C48.2473 26.2571 47.0231 26.0267 45.5892 26.0909C43.4745 26.1872 38.9561 26.8646 38.8587 29.7049C38.7601 32.5807 42.7248 33.4793 44.8453 33.6776C47.43 33.9183 51.9312 33.7475 54.1892 31.7807C59.6681 35.8027 66.8846 37.5678 72.4769 41.419C72.5044 41.4385 72.5319 41.4477 72.5594 41.4649C75.2439 44.5997 78.2653 47.4641 81.3359 49.5869C86.9054 53.4358 93.8468 56.4641 100.444 57.9106C105.245 58.9639 111.692 60.5136 116.605 63.1785C118.346 65.0342 120.015 66.9609 121.68 68.9118C118.136 68.2458 114.246 69.2568 110.741 69.6488C101.886 70.6391 95.0159 69.3496 87.3707 65.103C86.777 64.774 85.7913 65.1752 85.8818 65.958C86.3552 70.0832 90.6122 73.9035 93.4938 76.479C97.4275 79.9944 102.489 82.1492 107.424 83.9098C112.342 85.6646 117.193 85.5981 122.11 83.9671C124.837 83.0616 129.704 80.6248 133.555 80.5239C135.16 81.6678 136.828 82.7395 138.557 83.7218C136.27 83.6484 133.958 83.8869 131.325 84.7259C126.487 86.2675 122.23 89.8918 117.028 90.3136C115.578 90.4305 115.575 92.4536 117.028 92.5716C121.799 92.9579 126.54 93.6536 131.319 92.8043C136.705 91.8461 141.526 89.0425 146.795 87.6877C150.417 89.1559 154.123 90.3365 157.766 91.25C158.728 91.4907 159.71 91.6936 160.689 91.8965C156.834 93.0656 153.286 94.9912 149.291 97.0785C142.282 100.742 134.677 103.27 126.758 103.842C125.941 103.901 125.758 104.826 126.365 105.294C134.518 111.586 148.207 110.294 157.339 107.48C165.768 104.883 171.098 97.7891 178.562 93.7487C183.395 93.7579 188.942 93.2547 192.831 91.1022C192.995 93.3831 193.107 95.6778 193.107 98C193.107 109.739 190.966 120.977 187.076 131.359ZM170.892 145.203C169.159 147.01 167.323 148.704 165.274 150.217C158.317 155.352 150.095 156.763 142.34 160.063C143.806 158.562 145.144 156.936 146.733 155.537C150.736 152.015 155.521 150.374 160.559 148.785C163.94 147.718 167.709 146.882 170.892 145.203ZM160.491 138.303C160.434 138.237 160.366 138.181 160.288 138.135C158.336 137.015 156.176 137.134 154.08 136.377C150.563 135.11 147.235 132.075 145.389 128.863C144.641 127.56 144.251 126.092 143.832 124.667C143.465 123.418 143.546 122.758 142.984 122.771C143.792 122.752 145.756 124.757 146.618 125.298C149.214 126.932 152.162 127.818 155.121 128.602C158.611 129.53 162.098 130.358 165.017 132.571C166.688 133.837 168.152 135.546 169.608 137.171C166.618 137.738 163.583 138.11 160.491 138.303ZM123.438 189.636C127.841 186.136 131.335 181.338 133.038 176.453C133.271 175.782 133.476 175.097 133.666 174.401C134.01 177.777 135.068 180.431 137.832 178.989C144.339 175.597 137.702 165.071 135.962 160.71C137.158 152.759 139.177 145.367 147.42 141.783C147.987 141.826 148.553 141.871 149.127 141.896C156.31 142.203 163.488 141.899 170.592 140.726C171.108 140.641 171.585 140.526 172.077 140.422C171.338 140.888 170.588 141.323 169.821 141.705C165.332 143.935 160.2 144.695 155.598 146.641C152.249 148.058 149.329 149.447 146.829 152.115C144.639 154.453 143.358 158.151 141.179 160.572C141.15 160.586 141.12 160.597 141.091 160.611C140.942 160.68 140.824 160.847 140.768 161C140.494 161.269 140.215 161.533 139.909 161.756C139.381 162.14 139.827 162.938 140.425 162.641C144.506 160.617 149.379 159.95 153.756 158.851C158.142 157.749 161.586 156.183 165.39 153.645C168.096 151.837 170.537 149.934 172.579 147.39C174.299 145.244 175.594 142.197 177.405 139.874C178.13 139.182 178.87 138.509 179.663 137.899C181.707 136.965 183.686 135.888 185.747 134.729C174.584 161.365 151.642 181.824 123.438 189.636ZM128.505 180.589C126.855 181.747 125.145 182.777 123.255 183.539C121.959 184.061 120.623 184.501 119.246 184.744C118.501 184.876 117.62 185.103 116.86 184.994C116.432 185.052 116.051 184.921 115.718 184.603C114.705 184.356 114.731 184.019 115.794 183.595C116.989 182.351 119.486 181.75 121.027 181.263C123.591 180.451 126.355 179.738 129.083 179.611C128.899 179.941 128.709 180.267 128.505 180.589ZM135.366 165.007L135.375 164.945C137.051 168.279 139.828 171.492 138.466 175.309C136.601 180.533 135.195 172.987 135.17 171.66C135.13 169.512 135.357 167.344 135.4 165.192C135.401 165.123 135.38 165.069 135.366 165.007ZM103.6 162.947C101.468 166.318 99.8873 170.272 97.4505 173.202C92.1573 179.565 84.739 181.402 77.4308 183.994C78.7811 182.113 79.9708 180.021 81.5411 178.459C84.6978 175.32 88.1948 172.801 91.8627 170.318C94.7477 168.366 97.9823 167.001 100.836 165.009C101.769 164.359 102.689 163.666 103.6 162.947ZM79.0653 156.07C74.0255 156.199 69.169 157.35 64.5601 159.394C56.853 162.811 48.3802 164.959 39.8822 163.081C36.8402 162.41 33.0279 161.35 30.3321 159.563C31.1401 159.555 31.9471 159.562 32.7528 159.609C33.5219 159.523 34.4939 159.243 35.2115 159.025C43.1845 156.613 48.7241 151.282 57.6874 151.6C65.03 151.86 72.0322 154.08 79.0653 156.07ZM97.1972 149.073C93.5579 147.899 89.913 146.765 86.3265 145.343C80.8373 143.165 76.7637 142.162 72.611 137.624C69.8418 134.599 67.2984 131.456 64.4053 128.59C67.3213 129.407 70.165 130.654 73.0901 131.323C76.554 132.114 80.2321 132.113 83.3762 133.973C89.0109 137.308 91.951 143.399 96.2378 148.058C96.5507 148.4 96.8716 148.739 97.1972 149.073ZM127.523 161.157C126.916 164.365 124.93 166.956 122.693 169.228C121.606 170.333 120.441 171.139 119.156 171.969C118.373 172.289 117.659 172.726 117.015 173.282C115.704 174.228 115.535 174.294 116.507 173.482C118.302 169.525 122.12 166.571 123.547 162.164C124.377 159.608 124.43 157.021 124.732 154.361C125.013 151.893 125.633 150.058 126.572 148.491C126.343 152.545 128.294 157.076 127.523 161.157ZM120.798 131.493C115.585 126.248 111.661 121.217 109.537 113.821C107.938 108.25 106.799 102.558 105.35 96.9455C110.204 102.548 115.183 107.734 118.089 114.943C120.214 120.218 120.471 127.166 123.127 132.409C122.344 132.113 121.567 131.808 120.798 131.493ZM19.0603 151.054C22.9734 149.35 26.3914 146.395 29.0815 143.197C30.0627 142.03 30.9155 140.791 31.7132 139.522C31.4576 141.222 31.4416 142.952 31.8049 144.643C32.1522 146.261 33.0921 149.22 35.3822 148.571C37.6093 147.941 37.4397 144.474 37.3572 142.801C37.2047 139.716 36.0814 137.109 34.8195 134.347C34.7954 134.296 34.7576 134.269 34.7266 134.228C36.0654 131.736 37.4248 129.263 39.1005 126.979C40.6055 126.159 42.0921 125.291 43.557 124.375C45.9124 122.901 48.1143 121.24 50.205 119.45C49.1287 121.583 48.2851 123.832 47.8518 126.331C47.3761 129.071 46.5841 136.541 51.1197 136.431C56.1469 136.309 58.2227 126.837 58.6353 123.407C59.0789 119.708 59.1018 115.169 58.2491 111.412C58.4473 111.186 58.6502 110.964 58.8474 110.735C63.1812 105.721 69.9289 101.295 76.742 101.852C81.6087 104.144 86.8412 106.792 91.1968 110.202C92.1275 111.759 93.0937 113.293 94.1024 114.791C91.7183 113.39 89.0923 112.46 85.8864 112.222C82.818 111.994 79.7347 112.152 76.6755 112.111C72.7073 112.057 69.4223 110.575 65.5779 110.041C64.0168 109.824 63.0471 111.699 64.4753 112.658C70.5983 116.77 75.6611 120.714 83.1389 121.779C89.0602 122.621 94.9483 122.117 100.752 123.181C104.045 126.63 107.819 129.606 112.295 131.823C118.103 134.701 124.422 136.264 130.566 138.191C131.821 138.586 133.069 138.955 134.317 139.308C133.357 139.5 132.391 139.77 131.416 140.15C127.212 141.794 123.46 144.697 119.65 147.038C117.173 148.56 114.719 149.891 112.257 151.036C108.844 151.78 105.489 151.336 102.464 148.379C98.678 144.677 95.9868 140.051 92.2261 136.324C88.6499 132.781 84.762 130.245 79.7267 129.452C73.5727 128.484 67.5815 127.191 61.4676 126.014C60.7444 125.876 59.8033 126.702 60.3718 127.44C66.4846 135.37 71.2138 144.318 81.1583 147.602C84.4055 148.675 87.9702 149.588 91.3664 149.986C94.7706 150.386 97.8333 151.286 100.906 152.321C101.936 153.034 103.044 153.604 104.229 154.012C98.2184 155.665 91.9624 156.076 85.0141 154.95C75.0261 153.332 65.1286 148.78 54.862 149.273C50.0204 149.506 45.6614 150.982 41.3253 153.108C37.2781 155.092 33.1196 157.968 28.5509 158.538C27.9949 158.606 27.8964 159.284 28.4213 159.498C37.6208 163.266 44.725 167.335 55.1027 165.753C64.1268 164.378 71.7239 157.257 80.7376 156.536C87.8177 158.486 94.9586 160.027 102.54 158.925C102.647 158.91 102.749 158.882 102.856 158.865C101.738 159.764 100.659 160.72 99.5033 161.552C96.3879 163.796 92.9103 165.385 89.8855 167.755C86.9489 170.057 84.174 172.31 81.611 175.045C80.1267 176.63 78.6607 178.209 77.3609 179.952C76.0382 181.729 74.8748 184.566 72.9125 185.752C71.9565 186.328 72.5732 188.016 73.6988 187.618C81.995 184.682 91.2094 183.855 97.6579 177.155C102.218 172.417 103.016 165.852 106.429 160.625C108.111 159.198 109.766 157.736 111.412 156.331C115.228 154.685 118.811 152.482 122.214 150.04C121.67 152.066 121.537 154.259 121.298 156.26C120.521 162.799 117.727 168.934 114.899 174.843C114.695 175.271 115.046 175.966 115.594 175.748C120.698 173.729 125.381 170.918 128.222 166.023C132.186 159.189 129.015 152.487 129.171 145.319C129.462 145.035 129.762 144.752 130.081 144.467C133.118 142.564 136.264 141.161 140.144 140.743C141.263 140.973 142.389 141.172 143.523 141.34C142.762 141.684 142.157 141.979 142.001 142.107C140.695 143.188 139.466 144.657 138.506 146.054C135.377 150.608 134.098 156.414 133.405 161.786C132.74 166.93 132.261 172.322 130.28 177.135C130.208 177.123 130.151 177.092 130.07 177.093C125.813 177.152 121.498 178.541 117.684 180.378C116.283 181.052 112.933 182.69 113.086 184.608C113.321 187.543 118.561 186.412 120.221 185.998C122.157 185.517 124.226 184.765 126.126 183.751C123.583 186.703 120.383 189.337 116.88 191.224C110.777 192.454 104.465 193.105 98.0006 193.105C65.1217 193.105 36.1422 176.418 19.0603 151.054ZM33.5965 136.305C33.6755 136.163 33.7535 136.018 33.8314 135.875C35.3937 138.48 36.9594 142.961 35.7662 145.689C34.2188 149.226 32.8996 143.111 32.8549 141.776C32.793 139.926 33.1001 138.085 33.5965 136.305ZM10.2677 134.763C19.4305 134.912 28.144 132.456 36.2981 128.429C33.9048 132.148 32.55 136.355 30.0226 140.087C27.4356 143.905 23.5064 148.632 18.9376 150.863C15.5575 145.816 12.6461 140.43 10.2677 134.763ZM27.29 121.146C26.2401 120.691 25.2062 120.187 24.2423 119.567C23.4044 119.027 20.0116 116.308 23.4067 116C25.3208 115.826 27.6431 117.666 28.7881 119.01C29.6799 120.056 30.3183 121.264 31.0542 122.409C29.783 122.042 28.5165 121.679 27.29 121.146ZM17.177 125.012C17.349 124.979 17.467 124.883 17.5553 124.764C18.0722 124.831 18.5892 124.891 19.1084 124.943C17.3742 126.37 14.7803 127.548 12.8134 127.962C12.1922 128.091 11.1973 128.493 11.5113 127.207C11.6913 126.472 13.5207 125.769 14.0376 125.591C15.06 125.241 16.1202 125.221 17.177 125.012ZM9.82643 133.645C8.263 129.78 6.92423 125.8 5.87316 121.702C7.62227 122.505 9.65335 123.023 10.8844 123.385C11.7372 123.636 12.6094 123.85 13.4897 124.047C12.5957 124.292 11.7417 124.69 10.9279 125.441C10.011 126.287 8.84986 128.115 10.1084 129.159C11.4219 130.248 13.7728 129.202 15.0543 128.639C16.8997 127.828 19.1657 126.552 20.5916 125.072C22.398 125.198 24.2033 125.234 25.9707 125.175C28.0385 125.108 30.2633 124.936 32.5351 124.634C32.6749 124.646 32.801 124.627 32.9122 124.58C36.2155 124.123 39.6026 123.385 42.7581 122.286C33.209 129.28 21.5131 134.136 9.82643 133.645ZM56.9229 118.712C56.9389 120.698 56.8851 122.709 56.516 124.666C56.2466 126.103 55.8776 127.539 55.2747 128.875C53.8877 131.956 54.2316 132.674 51.6733 131.626C49.2834 130.646 50.0193 128.923 50.5282 126.559C50.8572 125.026 51.3248 123.565 51.8853 122.099C52.9628 119.281 54.4093 116.497 55.9876 113.9C56.2203 113.654 56.4507 113.406 56.6799 113.157C56.9802 114.986 56.9091 116.975 56.9229 118.712ZM62.7674 97.1014C59.4572 98.839 56.8988 101.513 53.9256 104.152C48.4261 109.032 43.1398 111.574 36.4964 112.497C40.8989 110.598 44.3926 108.247 48.386 104.471C52.3679 100.704 57.3894 97.5805 62.7674 97.1014ZM3.61513 86.4669C3.68849 86.5793 3.7756 86.6824 3.89023 86.7684C9.36336 90.8214 13.3888 95.8658 20.5274 96.981C29.5102 98.3851 38.3807 94.8823 47.2913 94.2267C50.9363 93.9585 54.4689 94.2519 57.9178 94.9351C55.9142 95.397 54.0024 96.1455 52.3186 97.1873C49.2559 99.0786 46.9463 101.801 44.3398 104.206C40.2708 107.959 35.8144 110.739 30.794 113.007C30.0776 113.33 30.4696 114.428 31.1791 114.428C38.7888 114.428 44.7158 113.602 51.0016 108.967C56.1802 105.148 59.9317 99.254 66.2645 97.3203C68.2784 98.0562 70.2716 98.8826 72.2488 99.7697C69.9942 99.9348 67.7763 100.459 65.7934 101.28C58.7786 104.191 55.0191 111.444 49.7213 116.478C49.3087 116.87 48.8754 117.253 48.4501 117.638C44.1072 120.226 38.5504 121.523 33.2824 122.361C32.448 119.985 30.4902 117.206 28.3606 115.886C26.4739 114.718 22.5894 113.101 20.6489 114.965C18.486 117.044 20.8082 119.527 22.5849 120.769C24.1506 121.865 25.7312 122.597 27.3714 123.177C22.8301 123.729 18.0493 123.639 13.5768 122.769C10.3617 122.144 7.9455 120.104 5.21409 118.845C3.71256 112.134 2.89417 105.164 2.89417 98C2.89417 94.0926 3.1578 90.2505 3.61513 86.4669ZM21.1956 71.8288C21.2484 71.877 21.2942 71.9286 21.3481 71.9756C21.6599 72.2518 21.9762 72.5143 22.296 72.7641C21.4272 73.1733 20.571 73.6376 19.67 73.9401C17.5072 74.6657 15.1093 75.0978 12.8238 74.9981C10.9944 74.919 7.432 74.4571 10.8557 71.3921C11.6604 70.6712 13.7476 70.356 14.6646 70.3503C16.8653 70.3365 19.0385 71.3623 21.1956 71.8288ZM42.4887 91.3062C37.7984 91.9423 33.1345 92.8788 28.3698 93.2731C19.8122 93.9826 13.8886 90.8271 7.38386 86.5988C13.3934 85.7471 18.9881 83.7608 25.283 84.8863C31.4175 85.9821 36.6946 89.4024 42.4887 91.3062ZM98.2929 120.405C94.9368 119.966 91.4398 120.189 88.0183 119.896C81.6454 119.35 76.8543 117.63 72.1457 114.696C74.4977 115.093 76.8829 115.246 79.6728 115.123C82.1624 115.013 84.7986 114.856 87.2916 114.984C91.4237 115.199 94.5471 117.065 97.5238 119.48C97.7748 119.794 98.0362 120.096 98.2929 120.405ZM82.9968 94.0112C84.2439 97.0808 85.5758 100.101 87.13 102.989C87.4223 103.533 87.7192 104.076 88.0149 104.619C85.7569 103.09 83.3705 101.718 80.9394 100.447C72.862 96.228 64.5073 92.0776 55.3469 90.9429C51.9988 90.5279 48.7184 90.6265 45.462 90.952C40.4748 86.6515 33.1345 83.8467 26.7123 82.9435C18.9044 81.8455 12.0604 84.7775 4.41175 84.8439C4.15614 84.8462 3.95441 84.9253 3.79624 85.0445C5.10406 75.4485 7.83661 66.3088 11.7864 57.8452C13.7636 62.3028 16.1294 66.5873 19.4798 70.1497C16.8515 69.4104 14.378 68.6195 11.5354 69.7726C9.98575 70.3995 7.3128 72.1865 7.97301 74.2095C8.85903 76.9237 14.2416 76.8217 16.267 76.6406C18.7313 76.4194 22.3911 75.9586 24.483 74.2668C27.9502 76.3563 31.7728 77.3982 35.6952 78.4516C36.4631 78.9192 37.2506 79.3708 38.0701 79.7915C44.4017 83.0421 52.1031 84.3832 59.0629 85.3678C64.0053 86.0669 69.3489 86.632 74.1722 87.8825C77.793 88.8212 80.5657 91.2741 82.9968 94.0112ZM77.8824 80.8746C75.8892 80.0895 73.8214 79.8293 71.5668 79.8442C69.1885 79.858 66.8066 80.0585 64.4225 79.9474C61.9731 79.8316 53.4006 78.7588 53.7261 74.5419C54.031 70.5864 67.1436 74.3551 69.6412 74.9625C72.0929 75.5574 74.7338 76.479 76.7248 78.102C77.1214 79.0201 77.5053 79.9451 77.8824 80.8746ZM77.2577 62.8977C77.1248 65.2588 76.6308 67.675 76.5746 70.0316C76.4428 69.8024 76.3156 69.5697 76.1826 69.3439C76.2101 69.0826 76.1413 68.8052 75.9327 68.5553C72.8036 64.7843 73.4959 59.1714 73.787 54.7172C73.9315 52.5028 73.8547 50.4809 73.7011 48.4441C76.4199 52.669 77.526 58.1444 77.2577 62.8977ZM37.3056 73.4908C36.807 72.4306 36.3359 71.242 36.1479 70.0729C35.9599 69.3324 35.9657 68.5931 36.1628 67.8527C36.5353 66.9094 37.0076 66.7443 37.5784 67.361C39.8089 67.9776 40.1275 72.4317 40.4336 74.2725C40.6571 75.6216 40.9734 76.934 41.3081 78.2476C41.0227 78.1318 40.7385 78.0126 40.4565 77.8911C39.1991 76.5798 38.0781 75.1345 37.3056 73.4908ZM30.9407 75.0004C27.6362 73.6158 24.5483 71.8678 21.8857 68.9519C18.2602 64.9826 15.4302 60.6293 13.194 55.7534C13.1298 55.6147 13.0473 55.515 12.9579 55.429C14.5178 52.3194 16.244 49.3106 18.1227 46.4062C18.4608 57.4784 22.6616 67.8607 30.9407 75.0004ZM22.4473 58.9215C22.6616 55.7248 22.7224 52.3309 23.8801 49.3553C24.7936 47.0091 27.7519 43.01 27.4035 48.1083C27.2213 50.7938 26.5232 53.5103 25.6888 56.0617C25.1226 57.7925 23.895 59.5634 23.2932 61.3354C22.9711 60.5353 22.6892 59.7307 22.4473 58.9215ZM116.24 4.66045C119.251 6.83822 121.806 8.68246 123.82 12.2231C125.832 15.7568 126.969 19.2412 127.672 22.979C126.431 20.9583 124.886 19.5072 123.325 20.5972C121.952 21.5554 122.323 23.7951 122.777 25.1132C123.166 26.2468 123.796 27.2291 124.575 28.1312C125.613 29.3324 127.182 30.1611 128.067 31.4437C128.218 31.6637 128.414 31.7795 128.62 31.8506C128.721 34.7562 128.649 37.7099 128.469 40.6671C128.038 39.0051 127.541 37.326 126.918 35.6009C124.84 29.8356 122.245 24.2031 118.651 19.2424C119.678 17.3454 119.972 14.6656 119.667 12.552C119.445 11.0138 118.495 7.24856 116.33 7.27492C114.799 7.29326 114.336 9.8321 114.313 10.9565C114.279 12.6575 114.914 14.0604 115.548 15.4657C113.277 13.046 110.636 10.9749 107.873 9.16615C105.922 7.88929 103.897 6.65025 101.853 5.52583C101.471 5.31608 96.8831 3.52801 95.9421 2.94574C96.6298 2.93084 97.3106 2.89301 98.0006 2.89301C104.242 2.89301 110.336 3.51196 116.24 4.66045ZM140.883 86.5243C138.481 87.3404 136.121 88.4923 133.692 89.1754C131.054 89.9182 128.458 90.2448 125.845 90.3732C126.692 89.9675 127.527 89.5468 128.344 89.141C132.869 86.9002 136.615 86.295 140.883 86.5243ZM126.002 73.8805C127.623 75.6698 129.411 77.318 131.319 78.8401C126.439 79.6689 120.708 82.2065 117.845 82.273C112.289 82.4025 107.147 80.0322 102.197 77.7971C98.372 76.0686 91.8111 72.2323 88.9307 67.8791C93.2714 69.8138 97.0436 72.1509 102.15 72.8742C110.176 74.0112 118.438 70.764 125.849 73.7063C125.902 73.7636 125.951 73.8221 126.002 73.8805ZM108.965 53.8759C108.451 53.5103 107.938 53.1447 107.41 52.7951C102.687 49.682 97.3003 47.7346 92.806 44.3029C87.8212 40.4986 83.6914 35.8474 81.4219 29.9422C80.3078 27.0434 79.674 24.1023 78.8429 21.2769C84.2576 26.5895 91.7561 29.9502 97.3817 35.2926C102.667 40.3095 105.06 47.7954 108.965 53.8759ZM118.176 52.1303C117.713 49.29 117.296 46.5552 116.456 43.802C116.434 43.7309 116.404 43.6461 116.372 43.5544C117.204 45.1877 118.049 46.8199 118.761 48.5026C120.565 52.7676 121.03 56.7403 121.311 61.3354C121.343 61.8432 121.361 62.4186 121.384 63.026C119.79 59.6321 118.807 56.0056 118.176 52.1303ZM128.42 28.5358C128.428 28.6321 128.432 28.7295 128.439 28.8258C127.786 28.2951 127.097 27.7999 126.455 27.2199C125.725 26.5586 125.049 25.8926 124.556 25.0261C124.329 24.6249 123.292 22.5125 123.887 22.0632C125.121 21.1267 127.503 26.2434 128.42 28.5358ZM129.888 23.0008C129.875 21.4053 129.99 19.8132 130.147 18.2165C130.235 17.3191 130.27 16.1671 130.883 15.4324C131.196 15.0576 133.069 14.1246 133.452 14.4559C133.689 14.6599 133.219 16.2932 133.143 16.5717C132.669 18.314 131.724 20.0585 130.836 21.6208C130.577 22.0747 130.225 22.532 129.888 23.0008ZM117.807 15.0805C117.745 15.5127 117.634 15.9654 117.526 16.4239C117.291 15.9276 117.032 15.4393 116.789 14.9338C116.199 13.7063 115.75 12.607 115.494 11.274C115.43 10.9416 115.227 10.4866 115.25 10.1588C115.316 9.17304 116.672 8.65495 117.259 9.50313C118.175 10.8236 118.026 13.5607 117.807 15.0805ZM119.617 24.1665C119.671 24.2146 119.728 24.2341 119.784 24.2673C119.906 24.5046 120.026 24.743 120.144 24.9814C118.764 25.2737 117.498 25.4021 116.006 25.2886C114.475 25.1717 110.971 25.2508 110.051 23.8868C108.62 21.7675 112.618 22.0987 113.856 22.2431C115.739 22.4632 118.144 22.8426 119.617 24.1665ZM112.617 14.9292C110.53 15.3006 108.537 16.0239 106.391 16.2118C103.666 16.4503 99.3589 16.793 96.9622 15.4118C94.1345 13.7819 97.5582 12.842 99.2672 12.4924C101.132 12.1119 102.973 11.9778 104.848 12.2357C107.194 12.5589 110.484 13.5183 112.617 14.9292ZM70.0321 34.5189C69.138 33.3028 68.3311 32.0833 67.5906 30.8545C69.6905 27.7369 75.1189 16.8698 68.824 15.1058C65.9218 14.2931 64.2162 17.8681 63.7405 20.1433C63.6202 20.721 63.5548 21.317 63.5136 21.9188C62.341 18.2658 61.6453 14.4192 61.3255 10.2321C71.7846 5.85593 83.1962 3.31711 95.1581 2.96522C95.1638 3.01909 95.1695 3.07296 95.1741 3.12684C95.189 3.28845 95.2681 3.38015 95.4125 3.4409C101.092 5.82614 106.299 8.72143 110.705 12.56C108.009 11.5743 104.895 11.156 102.341 11.0104C100.152 10.8877 92.7258 10.8602 92.5928 14.3882C92.453 18.0928 99.4896 18.1787 101.685 18.3896C105.391 18.7449 110.724 18.6452 114.002 16.6417C114.194 16.5236 114.309 16.3769 114.388 16.2233C115.704 17.7179 116.918 19.3352 118.016 21.0912C116.523 20.5399 114.879 20.3496 113.258 20.2568C111.495 20.1559 107.935 20.1387 107.456 22.4162C106.875 25.1877 110.867 26.1528 112.77 26.4852C115.555 26.9735 118.128 26.9219 120.832 26.3878C124.024 33.3074 125.887 40.8643 126.788 48.3547C127.795 56.746 127.06 64.9115 129.876 73.0908C129.913 73.1986 129.957 73.2971 129.995 73.4037C127.993 71.5732 126.076 69.6408 124.125 67.6532C123.435 64.641 123.723 60.0895 123.579 58.3071C123.319 55.0542 122.653 51.9962 121.407 48.9805C119.801 45.0972 117.279 38.4939 113.766 36.0101C113.268 35.6583 112.728 36.2371 112.825 36.7334C113.488 40.1605 114.712 43.3825 115.023 46.9219C115.312 50.2092 115.386 53.6582 116.036 56.9065C116.296 58.2109 116.671 59.4705 117.135 60.6935C116.907 60.478 116.678 60.2671 116.449 60.0551C116.439 60.031 116.435 60.0081 116.421 59.984C114.778 57.3948 112.725 55.0634 111.206 52.4054C110.074 50.4224 109.487 48.1782 108.449 46.1529C106.481 42.3096 104.08 38.463 101.27 35.1952C94.2193 26.9918 82.5142 23.5555 76.1448 14.857C75.927 14.5063 75.6943 14.1613 75.4467 13.8197C75.2244 13.4782 74.9906 13.1481 74.7842 12.7893C74.6822 12.6128 74.524 12.5119 74.3521 12.4729C74.2375 12.3457 74.1332 12.215 74.0128 12.0901C73.3194 11.3646 72.172 12.2895 72.6466 13.1446C76.6743 20.4127 76.0737 29.3014 80.6711 36.3884C83.4014 40.5961 87.1873 44.0645 91.3985 46.711C96.7123 50.0511 102.636 52.0741 107.873 55.5585C109.268 56.487 110.553 57.5059 111.794 58.5639C103.714 55.037 94.4738 53.3624 86.8779 49.2109C80.4866 45.7161 74.3235 40.3554 70.0321 34.5189ZM66.551 28.483C65.861 26.562 65.5172 24.4519 65.4449 22.4609C65.4002 21.2253 65.2283 18.8985 66.198 17.9438C69.2022 17.1964 70.345 18.1168 69.6263 20.7015C69.5346 21.0694 69.4246 21.4316 69.2939 21.7881C68.8434 23.5911 67.9104 25.3127 67.2113 27.0343C67.0496 27.432 66.7849 27.9432 66.551 28.483ZM48.6702 16.6715C52.5031 14.3412 56.5171 12.2815 60.6813 10.5038C60.1999 17.9036 62.0166 24.3453 65.3555 30.8029C65.383 30.8557 65.4048 30.9141 65.4323 30.9669C65.4392 30.9818 65.4518 30.9886 65.4598 31.0024C65.6822 31.4276 65.8885 31.8517 66.1235 32.2781C66.7872 33.4793 67.5356 34.7035 68.3529 35.9253C65.0621 34.0799 61.5994 32.4466 58.3006 30.8385C52.2315 27.879 50.0399 22.7475 48.6702 16.6715ZM52.3301 30.2436C50.5408 30.7124 48.7585 31.1606 46.873 31.2614C45.7864 31.3199 41.7494 31.5388 41.1649 30.0109C40.5035 28.279 46.3973 28.0441 47.728 28.2802C49.3224 28.5633 50.6268 29.2693 52.0125 29.925C52.118 30.0316 52.2223 30.1416 52.3301 30.2436ZM151.312 80.8724C151.214 82.1045 151.181 83.1304 151.242 84.0232C150.164 82.8048 149.157 81.4604 148.35 80.0551C145.793 75.6033 144.179 70.6907 143.045 65.7081C140.974 56.6165 140.899 46.679 137.93 37.8784C139.802 40.2488 141.846 42.5148 143.605 44.8129C147.78 50.27 151.248 56.0491 152.569 62.8988C153.754 69.0482 151.788 74.8055 151.312 80.8724ZM184.955 89.2201C181.577 88.4338 178.463 87.3014 175.682 84.782C171.798 81.2621 169.2 76.6452 167.307 71.8117C165.904 68.2241 165.594 64.5791 164.808 60.854C164.656 60.1296 164.521 59.3066 164.295 58.5306C164.483 58.6797 164.669 58.8287 164.847 58.9788C170.988 64.139 176.985 71.0483 179.672 78.674C181.295 83.2794 182.116 86.5483 184.955 89.2201ZM174.008 93.6124C174.429 93.6353 174.868 93.6559 175.317 93.6754C170.479 96.1088 166.041 99.8328 161.452 102.226C156.552 104.782 150.632 106.254 145.137 106.685C141.121 106.999 133.766 107.343 129.344 105.344C135.322 105.089 141.137 103.965 146.846 102C154.055 99.521 160.062 93.6307 167.911 93.0633C169.949 93.3063 171.989 93.5023 174.008 93.6124ZM192.629 88.4533C191.475 89.0837 190.213 89.5743 188.88 89.9491C185.793 87.2108 184.697 84.68 183.344 80.6087C182.293 77.4464 181.387 74.5625 179.468 71.8208C174.796 65.1431 169.109 60.4918 162.816 55.4692C162.281 55.0416 161.612 55.6904 162.06 56.2256C162.287 56.4961 162.474 56.7942 162.646 57.1036C162.631 57.1094 162.615 57.1151 162.602 57.1025C162.629 57.1288 162.659 57.1541 162.687 57.1804C164.461 60.4884 163.415 65.7723 163.963 69.2694C164.556 73.0495 165.885 76.526 167.809 79.8454C171.345 85.9477 175.739 89.1456 181.433 90.9979C177.976 91.1136 174.508 90.8363 171.54 90.497C166 89.8631 160.578 88.8362 155.261 87.1719C152.926 83.2461 155.299 77.1277 155.865 72.904C156.706 66.6102 155.61 60.7073 152.807 55.0072C148.532 46.3145 141.457 37.4222 134.542 30.6677C134.323 30.3193 134.118 29.9662 133.881 29.6235C133.222 28.6687 131.672 29.5375 132.304 30.5451C136.412 37.0921 136.781 43.7263 137.469 51.2672C138.078 57.9266 139.012 64.6995 140.866 71.1365C141.974 74.9775 143.672 79.1668 146.101 82.304C146.883 83.3138 147.673 84.1081 148.481 84.7912C145.041 83.4456 141.673 81.8707 138.557 79.9577C136.334 78.2991 134.563 76.2096 133.485 73.2696C131.883 68.8992 131.081 64.1012 130.855 59.4786C130.624 54.7344 130.324 50.4018 129.613 46.0875C130.342 39.153 130.825 32.1841 129.999 25.2806C132.809 22.8426 138.21 15.0507 134.157 12.481C132.036 11.1353 130.088 13.2535 129.164 14.9911C128.792 15.688 128.52 16.4651 128.321 17.2835C126.898 12.8775 124.55 8.68819 121.123 5.73788C159.481 15.3212 188.615 48.1839 192.629 88.4533ZM98.0006 0C43.8768 0 0 43.8753 0 98C0 110.711 2.44715 122.845 6.85202 133.991C6.84629 134.167 6.91277 134.343 7.04115 134.47C9.50205 140.601 12.5567 146.427 16.1478 151.872C16.1122 151.881 16.079 151.893 16.0435 151.9C15.9231 151.928 15.9735 152.117 16.095 152.087C16.1489 152.074 16.2005 152.052 16.2544 152.039C33.7982 178.524 63.8529 196 98.0006 196C152.126 196 196.001 152.124 196.001 98C196.001 43.8753 152.126 0 98.0006 0Z" fill="url(#paint0_linear_1151_7363)"/>
</g>
<defs>
<linearGradient id="paint0_linear_1151_7363" x1="152.718" y1="20.4167" x2="33.8928" y2="167.826" gradientUnits="userSpaceOnUse">
<stop stop-color="var(--color-sociotype-primary)"/>
<stop offset="1" stop-color="var(--color-sociotype-secondary)"/>
</linearGradient>
</defs>
</svg>
