<svg width="196" height="196" viewBox="0 0 196 196" fill="none" xmlns="http://www.w3.org/2000/svg">
<g opacity="0.25">
<path d="M92.4255 192.93C100.709 187.103 103.455 174.936 96.3615 166.78C94.3144 164.426 95.4423 163.76 94.8451 160.463C94.6388 159.32 94.3511 158.197 93.9729 157.111C96.992 155.846 100.125 155.232 103.093 153.643C107.597 151.234 111.784 147.478 114.613 143.235C119.354 136.123 120.588 127.186 117.835 119.059C117.566 118.266 117.25 117.473 116.903 116.685C117.078 116.566 117.244 116.411 117.386 116.188C118.604 114.287 118.254 111.207 117.493 108.672C118.733 100.148 126.114 93.6043 134.162 91.6501C139.266 90.411 145.748 91.469 149.532 95.4314C152.052 98.0711 152.945 101.867 155.189 104.708C155.272 104.813 155.377 104.882 155.481 104.954C155.513 104.985 155.547 105.011 155.581 105.039C155.581 105.039 155.591 105.048 155.597 105.051C156.253 105.595 157.125 105.655 158.397 105.431C160.789 105.009 162.785 103.211 165.147 102.616C169.178 101.601 174.793 103.039 176.725 107.139C178.021 109.888 176.244 113.468 177.56 116.12C178.296 117.602 179.654 118.345 180.595 119.718C182.251 122.131 182.419 124.25 181.828 127.112C181.644 128.009 179.005 133.368 176.797 134.024C174.647 133.153 175.639 128.158 174.823 126.036C174.187 124.383 173.197 123.144 171.979 122.216C165.462 115.331 153.124 116.472 145.318 120.196C135.515 124.874 127.401 131.071 121.318 140.192C115.107 149.508 111.761 160.456 112.815 171.726C113.335 177.275 114.905 186.381 119.869 190.551C112.844 192.205 105.53 193.106 98.0006 193.106C96.1277 193.106 94.272 193.037 92.4255 192.93ZM29.5641 164.006C29.5538 163.937 29.548 163.87 29.5286 163.798C26.9943 154.268 29.8873 142.486 36.3026 134.889C39.8467 130.693 45.2625 127.329 50.5706 125.913C53.2963 125.187 58.2422 124.367 61.2166 125.743C61.2269 125.819 61.2361 125.896 61.2475 125.972C53.1347 123.174 43.9043 129.857 39.8719 136.751C34.9238 145.211 31.6376 159.664 35.7112 169.836C33.5758 167.982 31.5253 166.04 29.5641 164.006ZM5.94996 74.0181C9.06878 71.5687 14.2691 71.2443 17.5633 72.8891C20.1526 74.182 21.0512 76.0491 23.9202 75.7603C25.2108 75.6296 26.0578 74.7872 27.4814 75.4371C28.662 75.9758 30.7286 79.1141 29.6111 80.6637C29.5882 80.6947 29.5515 80.7211 29.5251 80.7497C29.4907 80.7348 29.469 80.7107 29.4323 80.6981C18.1513 77.0704 8.55184 88.8155 7.05375 98.9215C5.35049 110.392 12.2575 126.313 22.3923 132.289C22.4611 132.329 22.5298 132.357 22.5975 132.383C19.4362 136.72 16.965 141.997 16.722 147.408C7.95009 133.008 2.89532 116.095 2.89532 98C2.89532 89.7153 3.959 81.6793 5.94996 74.0181ZM69.122 7.37235C67.241 9.09623 65.6386 11.2213 64.238 13.8828C62.1519 17.8475 61.2051 21.1955 57.2828 23.7412C53.8144 25.9923 50.8778 29.1604 49.0072 32.8661C46.6655 30.2826 43.1134 29.1902 39.5326 30.8878C35.2802 32.9062 34.6842 37.0131 33.726 40.9491C28.8351 40.1972 23.8078 41.4099 19.7159 44.0117C31.5539 26.8795 48.8593 13.8243 69.122 7.37235ZM102.636 3.01221C102.676 3.01909 102.708 3.03972 102.752 3.04316C108.374 3.39504 114.205 5.58886 117.14 10.7227C118.688 13.4334 118.476 16.5763 121.068 18.228C123.749 19.9358 126.023 19.5885 128.246 22.3314C129.627 24.0369 130.789 26.4417 131.252 28.5702C132.207 32.9509 131.291 37.3489 128.812 41.0568C127.321 43.2862 125.551 44.5241 125.189 40.8723C125.059 39.5576 125.8 38.3633 125.48 36.9741C125.473 36.942 125.458 36.9145 125.451 36.8824C125.307 32.6208 124.873 28.5667 121.599 25.3253C117.485 21.254 111.141 19.1771 105.468 18.9478C100.202 18.7358 94.9655 19.7043 90.4849 22.5446C88.1604 24.0175 85.8703 25.8181 84.0719 27.8905C83.1343 28.9713 82.3847 30.4614 81.4666 31.6683C78.0211 33.5378 75.3344 37.0406 73.5635 40.5204C72.4471 42.712 71.8041 44.3247 69.7787 45.8136C68.5225 46.7374 67.1711 47.3288 65.9733 48.3719C63.415 50.5967 61.4917 53.4484 60.4532 56.6784C58.7889 61.8581 58.7408 67.8527 61.7633 72.3664C60.4968 72.0008 59.1981 71.4197 57.9946 71.3864C54.7474 71.2982 51.6125 72.8925 49.1081 74.9385C46.7503 72.3481 46.5979 67.7816 47.3062 64.249C47.4243 64.006 47.493 63.7321 47.4908 63.4272C47.5515 63.1854 47.6145 62.9504 47.6822 62.7234C48.3745 60.3921 49.5906 58.2235 51.1987 56.4067C51.9965 55.507 53.4785 54.6588 54.0195 53.5963C55.3125 51.0528 53.09 48.7799 52.3323 46.46C50.7574 41.6334 51.5793 36.6956 54.4929 32.5692C57.0639 28.9278 60.6905 28.0784 63.7887 25.3493C66.0261 23.3802 66.5384 19.9186 67.8199 17.3305C70.5352 11.8483 73.5417 8.47614 77.9649 5.02723C84.4261 3.64147 91.1257 2.8953 98.0006 2.8953C99.556 2.8953 101.099 2.93885 102.636 3.01221ZM171.262 37.3569C168.051 34.9568 164.277 33.4702 160.353 33.4587C159.441 33.4564 157.174 34.2244 156.351 33.9917C156.299 33.9768 153.773 31.0838 154.063 31.3738C151.971 29.2831 149.758 28.4911 146.765 28.1094C142.354 27.5455 138.229 28.945 134.949 31.65C134.844 27.62 133.472 23.6828 130.992 20.4768C129.934 19.1094 128.736 18.0331 127.277 17.1196C126.182 16.4353 122.137 15.3946 122.166 15.4175C121.954 15.2444 120.15 9.79312 119.176 8.43029C118.184 7.04225 117.044 5.95106 115.703 4.92178C115.471 4.74526 115.23 4.5997 114.995 4.43923C137.497 8.50021 157.253 20.4516 171.262 37.3569ZM167.544 98.1823C167.353 97.2997 167.485 95.601 167.517 94.9717C167.643 92.5212 168.461 90.7044 170.059 88.8969C171.346 87.4424 173.099 86.0062 174.948 85.3998C171.507 87.9971 170.78 94.0651 171.594 98.353C170.309 98.0917 168.974 98.0344 167.544 98.1823ZM162.954 99.4305C162.455 98.0894 161.888 96.7839 161.852 95.2491C161.789 92.5097 162.581 89.862 163.967 87.5192C165.433 85.0399 167.119 83.4673 169.833 82.5458C172.423 81.6678 176.321 81.9589 178.753 83.8135C177.597 83.4387 176.332 83.3504 175.049 83.488C172.561 83.7528 170.757 85.4881 169.038 87.1948C167.048 89.1674 165.986 91.1354 165.592 93.9023C165.428 95.052 165.173 97.0211 165.548 98.5341C164.917 98.7187 163.982 99.0442 162.954 99.4305ZM157.925 101.607C157.467 99.5783 156.692 97.6963 155.656 95.9999C155.105 91.2053 153.974 86.4498 153.832 81.5268C153.697 76.8607 154.256 72.2025 155.765 67.7679C156.941 64.3063 162.556 54.6794 167.491 58.1845C167.469 58.518 167.438 58.8585 167.37 59.2252C166.57 63.4719 166.841 67.683 172.598 67.8882C174.119 67.9432 175.36 67.4446 176.384 66.6217C176.414 66.6354 176.433 66.6595 176.466 66.6709C180.365 68.0601 182.971 73.2307 181.326 77.2825C181.128 77.7673 181.454 78.4493 181.897 78.6854C184.301 79.9669 185.947 81.3366 186.633 83.8731C186.943 85.0136 186.048 90.6414 183.96 89.721C183.69 89.6018 183.262 87.5111 183.065 87.1478C182.761 86.5862 182.396 86.091 181.983 85.6681C179.58 79.8385 170.173 80.0276 165.74 83.4307C161.431 86.7409 157.948 94.9351 160.381 100.454C159.349 100.888 158.453 101.303 157.925 101.607ZM150.67 90.5669C149.431 83.5659 148.578 76.5248 150.281 69.4883C152.081 62.0472 157.626 50.4786 166.549 54.629C166.784 54.9362 166.984 55.2754 167.137 55.656C161.053 53.4885 154.833 64.1906 153.349 68.9633C151.493 74.935 151.182 81.2025 151.675 87.4103C151.763 88.5152 151.862 90.0947 152.088 91.7211C151.634 91.3154 151.159 90.9314 150.67 90.5669ZM145.676 87.8458C142.299 80.0975 142.705 72.0352 146.557 64.2467C148.543 60.2327 151.525 55.868 155.638 53.8221C156.481 53.4025 157.391 53.0851 158.316 52.8581C154.707 54.7356 151.74 58.7209 149.693 62.9573C145.791 71.0357 145.121 80.2477 147.642 88.7146C147.002 88.3937 146.349 88.0991 145.676 87.8458ZM135.871 86.6469C134.617 86.7959 133.413 87.0435 132.242 87.3461C130.274 86.4051 128.757 84.5837 127.464 82.61C126.691 81.4294 125.585 79.9772 125.762 78.4596C126.032 76.1351 128.233 75.8256 130.227 76.1443C130.39 76.1695 130.541 76.1638 130.686 76.1431C132.919 76.3884 134.792 75.3488 134.746 71.987C134.678 67.0928 128.741 64.006 124.391 64.2078C121.477 64.3419 118.502 65.8113 116.218 67.5283C115.728 67.8974 114.942 69.0023 114.346 69.1364C113.582 69.3072 111.266 67.9799 110.272 67.8538C103.951 67.0469 98.8362 72.0489 96.7673 77.6584C96.6458 77.992 96.6447 78.2877 96.7272 78.5376C95.3231 78.8424 93.8399 79.3433 92.6478 78.9467C91.4202 76.0022 89.717 73.9631 87.608 72.5727C86.0858 67.8676 84.6473 62.6466 86.3529 57.9358C88.0435 53.2696 96.1839 49.0791 96.6722 57.7455C96.7409 58.9467 95.793 60.2465 95.9363 61.5715C96.4613 66.3718 102.295 65.7425 105.342 63.5349C107.979 61.6242 109.699 58.0298 110.136 54.8674C110.595 51.54 109.341 50.0511 108.46 47.15C107.458 43.8467 108.333 40.2293 106.93 37.3959C108.931 35.8462 109.968 34.0444 113.208 33.6868C115.711 33.4105 118.402 33.6512 120.616 35.0966C123.39 36.9065 122.955 37.7317 122.727 40.8631C122.579 42.8747 122.088 45.4835 124.735 46.3947C129.5 48.0326 132.948 41.1176 134.314 35.97C134.374 35.923 134.434 35.8737 134.492 35.8107C136.918 33.1916 140.743 31.3887 144.361 31.4276C146.844 31.454 149.556 32.4019 151.304 34.1338C151.915 34.739 152.671 36.6371 153.492 37.2744C154.941 38.4 155.734 38.1891 157.46 38.0171C161.843 37.5781 166.591 37.7317 170.081 40.9227C174.612 45.0674 181.76 57.9403 173.596 61.7732C169.805 63.5533 171.266 60.7164 170.802 58.157C170.437 56.1488 169.966 54.6382 168.606 53.0908C161.284 44.7682 150.176 52.9395 145.707 59.8946C140.685 67.7117 138.541 78.1822 142.139 86.8658C140.111 86.4887 138.002 86.3947 135.871 86.6469ZM125.437 90.2265C123.661 88.4636 122.319 84.2571 122.576 80.9618C122.623 81.1188 122.664 81.2815 122.717 81.4305C123.583 83.8364 126.09 86.6687 129.001 88.4166C127.747 88.9301 126.556 89.533 125.437 90.2265ZM120.709 94.1201C118.816 91.9102 117.596 89.525 117.642 86.1575C117.673 83.8869 118.735 81.0477 120.432 78.9582C119.529 82.03 120.087 85.9603 121.195 88.498C121.583 89.3898 122.394 90.6093 123.385 91.6718C122.427 92.4203 121.532 93.2341 120.709 94.1201ZM115.229 104.022C113.957 102.239 112.435 100.596 111.536 98.604C110.27 95.797 111.653 93.3602 111.457 90.4913C111.13 85.7666 107.879 82.8243 104.098 80.4907C102.634 79.5863 101.216 78.7633 99.5709 78.4642C99.5755 78.455 99.5824 78.4458 99.5858 78.4355C102.372 71.2294 107.801 70.0075 114.093 72.4295C114.556 72.6071 115.256 72.4134 115.573 72.0375C118.711 68.3456 122.035 65.1121 127.267 67.0469C128.242 67.4068 133.837 71.1778 131.29 73.3808C131.254 73.4117 131.065 73.4186 130.79 73.4163C128.444 72.9372 125.722 72.7527 123.783 74.4215C123.674 74.5155 123.593 74.6313 123.496 74.7333C119.098 75.7626 115.957 80.4723 115.289 84.8015C114.63 89.0791 116.103 93.2605 118.945 96.2807C117.292 98.5605 116.034 101.162 115.229 104.022ZM79.3966 69.9674C78.287 65.6715 78.9289 60.6695 81.4643 57.0899C82.6231 55.4531 84.2656 53.8599 86.1374 52.8111C82.3859 57.2458 83.9665 65.7276 85.8061 71.5813C83.9069 70.7136 81.7566 70.2207 79.3966 69.9674ZM73.8925 69.7439C72.3061 62.8713 74.4048 56.1935 80.7972 52.175C82.6174 51.0322 85.6927 49.9823 88.7095 49.7347C85.6354 50.5714 82.9108 53.0163 80.9336 55.4703C77.3517 59.913 77.0445 64.7132 77.8217 69.831C77.2428 69.7932 76.6583 69.7623 76.0588 69.7451C75.3172 69.7244 74.5997 69.7244 73.8925 69.7439ZM92.0128 34.9224C93.4983 35.9414 94.2766 36.9431 95.9948 37.4807C96.5679 37.6607 97.2453 37.0383 97.7989 37.0165C102.024 36.8503 104.103 36.7139 105.262 40.8528C105.917 43.1968 104.802 45.3299 105.104 47.5432C105.448 48.0097 105.793 48.4762 106.136 48.9427C107.46 51.0437 107.851 53.3384 107.31 55.8279C106.818 57.9942 103.497 64.1161 100.404 62.4243C97.6636 60.9262 100.47 57.1644 100.075 54.8731C99.9022 53.8748 99.4563 53.0335 98.8373 52.3389C96.3054 45.9614 86.7518 46.5139 81.548 49.2247C74.2054 53.0472 69.2492 61.8661 71.8419 69.8849C69.9782 70.0935 68.1729 70.5394 66.3069 71.4093C65.8323 71.6306 65.1824 72.1349 64.6139 72.4168C59.0239 66.0807 61.7507 55.1711 67.5368 49.9353C69.5059 48.153 72.1571 47.3586 73.8684 45.3104C75.488 43.3722 76.0508 40.611 77.5844 38.5421C81.133 33.7521 86.5076 31.1457 92.0128 34.9224ZM113.596 25.2324C106.077 23.6381 98.0316 27.2325 92.3372 31.9927C91.1532 31.3164 89.9325 30.6723 88.5307 30.4373C87.326 30.2367 86.1764 30.2528 85.0794 30.4281C85.5333 29.7943 86.017 29.1731 86.5947 28.608C90.1594 25.1224 94.4107 22.4964 99.3715 21.7193C104.698 20.8849 110.103 21.4821 114.991 23.8513C117.383 25.0101 119.139 26.5311 120.417 28.3283C118.428 26.7958 115.985 25.739 113.596 25.2324ZM104.919 35.0851C104.534 34.8089 104.114 34.543 103.617 34.3023C101.352 33.21 99.9102 33.963 97.6854 33.9882C96.5507 34.0008 95.5351 33.6684 94.5551 33.2031C99.5583 29.2842 106.666 26.1196 113.021 27.3219C116.38 27.9581 119.299 29.2407 121.154 32.0947C120.822 31.9205 120.483 31.7554 120.138 31.6041C114.491 29.1089 108.048 29.784 104.919 35.0851ZM100.895 103.855C99.5858 103.814 98.9348 104.075 97.5685 104.185C94.1689 104.46 94.084 104.764 91.8375 101.944C90.8701 100.729 89.8717 99.5634 88.6648 98.5903C86.7036 97.0108 84.4009 96.2979 82.1268 96.4928C81.0047 96.3839 79.8974 96.4033 78.7673 96.7243C76.5643 97.349 76.241 98.6568 74.7384 100.02C66.1968 90.45 45.0138 94.4823 43.079 107.987C42.4715 109.07 42.2686 110.349 42.7214 111.804C43.2785 113.595 45.6121 114.463 45.8482 116.134C46.0947 117.888 43.8309 118.946 42.1322 119.103C34.0194 119.858 33.3042 111.024 34.1592 105.924C34.5478 103.607 34.338 102.178 33.3042 100.035C31.9001 97.13 31.9413 95.7466 33.9415 92.8868C35.4533 90.7228 37.1291 89.6305 39.5006 88.7376C41.7471 87.8917 45.094 87.7793 46.8431 86.0302C48.3974 84.476 48.1647 81.7698 49.5952 79.9703C51.4945 77.5805 53.4934 76.7575 56.3635 76.2486C59.4033 75.7099 60.0623 76.7438 62.8476 76.8859C64.7801 76.9833 65.4025 76.4297 66.9774 75.6411C73.6414 72.3045 84.0536 72.6747 88.5811 79.0831C88.8906 79.8144 89.2654 80.47 89.7193 81.0328C89.8603 81.3159 90.0586 81.5177 90.2924 81.6483C91.2735 82.5745 92.5355 83.143 94.1574 83.1945C95.8458 83.2484 97.5628 82.4071 99.2718 82.8266C102.447 83.6083 105.844 86.8578 106.841 89.6889C108.179 93.484 106.596 96.8951 108.714 100.551C111.226 104.889 114.458 107.824 114.717 112.65C111.574 107.845 106.864 104.043 100.895 103.855ZM91.8489 152.95C91.638 152.658 91.418 152.375 91.1887 152.098C94.0645 149.641 97.1501 148.001 99.4105 144.69C100.961 142.416 102.344 139.993 103.251 137.38C104.904 132.62 104.639 127.206 101.963 122.844C95.4778 112.27 79.9479 111.123 72.917 121.343C72.8082 121.502 72.7474 121.658 72.7245 121.807C72.1285 122.757 71.9474 123.823 72.1365 124.842C72.0631 125.472 72.1434 126.116 72.4597 126.735C73.2197 128.218 76.3499 128.669 76.1459 130.315C75.6634 134.213 68.1511 130.444 66.919 129.132C65.3922 127.508 64.5612 125.776 64.7492 123.422C64.8317 122.395 65.1366 121.515 65.4266 120.652C66.935 119.933 67.3614 118.377 66.8376 116.711C66.0249 114.128 62.8052 112.33 65.469 109.674C67.6101 107.541 71.388 106.276 74.1343 105.147C75.4651 104.599 76.3729 104.255 77.3093 103.195C78.1793 102.21 78.6779 101.01 79.3988 100.107C84.3699 97.7891 87.389 104.175 90.1285 106.979C92.4495 109.358 94.3419 108.978 97.4493 108.487C106.411 107.068 113.29 114.058 115.522 122.383C117.651 130.318 115.511 139.107 109.975 145.113C104.973 150.539 99.3268 152.289 93.0651 154.963C92.7109 154.267 92.312 153.592 91.8489 152.95ZM79.7897 168.732C83.1572 170.55 84.8479 175.159 84.308 179.115C83.8759 182.274 82.4386 184.678 80.1542 186.931C78.7902 188.276 76.8428 188.559 75.6439 189.934C75.5178 190.08 75.433 190.229 75.3779 190.376C73.8409 190.001 72.3187 189.589 70.8138 189.141C78.2412 186.295 84.9373 175.576 79.7897 168.732ZM68.3162 184.159C70.9949 182.922 74.0369 180.532 75.7631 178.117C77.0319 176.342 78.3695 172.238 77.9615 169.346C81.6064 172.376 78.8693 178.013 76.7144 181.027C74.1034 184.68 71.7754 186.373 67.6032 187.319C67.2548 187.397 67.0118 187.603 66.8662 187.865C65.4266 187.367 64.0053 186.835 62.5989 186.27C64.6598 185.834 66.8238 184.849 68.3162 184.159ZM61.6865 152.83C63.854 153.808 65.2214 156.017 65.8289 158.362C63.5732 160.664 61.7977 163.888 61.7255 167.056C60.9484 170.129 59.6325 172.567 57.159 174.713C54.9457 176.634 52.714 178.412 49.7809 179.076C49.4531 179.151 49.2605 179.362 49.1631 179.613C48.339 179.118 47.532 178.598 46.7239 178.079C55.9303 177.57 67.6135 160.62 61.6865 152.83ZM89.6734 150.517C89.5256 150.382 89.3708 150.262 89.2195 150.136C95.3987 145.555 100.026 137.603 98.7422 129.987C97.2453 121.12 90.0907 116.581 82.0523 117.374C89.6001 115.188 98.7502 119.764 101.381 127.938C102.963 132.85 101.428 137.758 98.7606 141.983C96.373 145.766 92.9161 147.79 89.6734 150.517ZM94.1448 133.071C94.1287 129.575 92.179 125.806 89.4728 123.269C88.8631 122.393 88.0733 121.599 87.0922 120.925C86.0354 120.198 84.8491 119.62 83.6077 119.215C91.3847 119.743 97.4241 126.14 96.4739 134.747C95.871 140.216 92.2054 145.676 87.6091 148.991C86.8492 148.534 86.0572 148.162 85.2433 147.912C89.4029 144.011 94.17 139.169 94.1448 133.071ZM89.5909 133.056C90.5893 131.312 91.0397 129.469 90.9641 127.704C92.3349 130.411 92.8656 133.557 92.053 136.137C91.5016 137.885 90.3738 139.778 89.3915 141.313C87.7398 143.893 85.3671 145.087 83.1527 146.953C83.0048 145.115 82.3045 143.462 81.1835 142.163C84.6404 140.618 88.2407 135.414 89.5909 133.056ZM67.3545 156.9C66.9556 153.967 65.4816 151.239 62.6849 149.812C60.8601 148.88 59.2887 148.902 57.3562 149.025C56.3326 149.091 55.3228 149.605 54.8311 148.859C53.6768 147.108 58.0714 143.623 58.805 143.211C61.0871 141.926 63.6225 141.722 66.0983 142.492C67.578 142.952 68.832 144.178 70.4561 144.312C72.2396 144.459 73.6816 143.116 75.4009 143.127C78.1747 143.144 80.0361 145.367 80.231 147.947C79.2636 148.284 78.3111 148.828 77.3964 149.62C76.2949 150.572 74.022 153.975 74.1091 153.918C73.3262 154.422 71.3112 154.402 70.3805 154.821C69.2412 155.331 68.268 156.078 67.3545 156.9ZM18.3244 85.3815C12.128 91.8873 11.9469 101.636 14.9511 109.737C16.3655 113.549 18.3806 116.746 21.2564 119.6C23.974 122.298 26.7777 123.462 30.0077 124.902C27.8322 126.467 25.8275 128.365 23.9867 130.604C23.8938 130.467 23.7643 130.345 23.5855 130.247C14.8583 125.468 8.80974 112.601 8.80286 102.843C8.79713 94.3792 15.2801 82.9596 24.3936 82.2191C22.0771 82.6409 20.4414 83.1579 18.3244 85.3815ZM32.182 123.481C27.2052 121.098 22.8301 119.059 19.6334 114.075C15.6033 107.79 13.8702 98.3576 17.0143 91.4105C17.7926 89.6912 18.7462 88.3089 19.9222 87.2636C12.0535 97.7421 20.8747 118.128 32.5339 123.278C32.417 123.346 32.2989 123.412 32.182 123.481ZM70.3427 102.078C70.1467 102.172 69.9575 102.276 69.7638 102.375C66.8559 99.905 62.2023 99.325 58.633 99.599C53.6184 99.9852 50.2417 101.585 47.0529 104.767C46.6953 104.918 46.3423 105.088 46.0018 105.276C50.0881 95.5173 66.1808 94.7471 73.5073 100.852C72.5033 101.335 71.3135 101.617 70.3427 102.078ZM61.7014 108.084C58.5986 105.109 55.0408 103.439 50.3849 103.904C52.5925 102.38 55.0741 101.412 58.1425 101.134C61.1111 100.864 65.8232 100.958 68.6245 102.973C67.2777 103.722 65.9802 104.557 64.7022 105.432C63.5067 106.25 62.4591 107.103 61.7014 108.084ZM39.2071 72.2759C42.4532 72.7756 44.0269 74.3757 46.3961 76.2704C46.536 76.3827 46.6792 76.4423 46.8214 76.4778C46.9257 76.5913 47.0311 76.7025 47.1412 76.8114C46.6368 77.381 46.1543 77.9977 45.768 78.5845C44.9783 79.7881 44.9015 82.1767 44.0911 83.0753C42.1414 85.2382 37.5073 85.1041 35.0235 86.8097C32.4365 88.584 29.8289 91.5824 28.8672 94.621C27.5514 98.7748 30.857 101.616 30.6404 105.823C30.4937 108.649 29.6077 110.816 30.4719 113.696C31.4278 116.874 33.7592 119.74 36.7107 121.323C35.9324 121.614 35.1668 121.928 34.4229 122.282C29.3555 119.158 24.797 114.316 22.0335 109.124C18.2763 102.067 17.6355 90.1142 25.024 85.1442C25.1718 85.1305 25.3048 85.1007 25.4561 85.0927C27.3107 84.9906 28.5474 85.3253 30.3458 84.5012C32.9832 83.2943 34.7449 80.5847 33.7088 77.5816C33.1517 75.9655 31.9711 74.4261 30.5384 73.3796C33.1403 71.8839 36.2327 71.8174 39.2071 72.2759ZM25.9937 71.9893C24.8841 67.5111 31.892 64.8577 35.1931 64.6594C38.9217 64.4359 41.0262 66.2709 43.8367 67.8676C43.8584 69.3084 44.0521 70.7136 44.4235 72.0317C39.6049 68.9737 32.9133 68.757 28.2849 72.2564C27.533 72.0569 26.7582 72.0397 25.9937 71.9893ZM22.3648 70.8179C21.089 66.3959 23.5408 62.2042 28.0992 60.3279C31.8703 58.7759 42.0681 58.7198 43.5065 63.9613C43.6108 64.3384 43.7908 64.6261 44.0109 64.8485C43.9845 65.0548 43.9742 65.26 43.9536 65.4651C42.9426 64.7362 41.6887 64.1963 40.7671 63.7928C37.8615 62.5217 34.5856 62.1217 31.4301 62.7865C27.5147 63.6117 22.8645 67.1008 23.1213 71.43C22.9448 71.2947 22.6926 71.0895 22.3648 70.8179ZM12.6713 55.9918C12.6908 55.9574 12.7172 55.9322 12.7332 55.8909C12.7515 55.8417 12.7756 55.7981 12.7951 55.7488C13.3671 54.598 13.9505 53.453 14.5671 52.3297C18.8746 45.7677 26.5656 43.6862 34.7094 45.5889C36.172 45.9316 37.3377 44.9264 37.4592 43.4948C37.6368 41.3984 37.4019 39.5507 38.5343 37.5735C40.9012 33.4426 45.1663 32.7584 47.3853 37.3753C47.3876 37.3821 47.3922 37.3844 47.3945 37.3902C46.8764 39.8132 46.8374 42.3222 47.2558 44.8095C47.5802 46.7386 48.496 48.2252 49.053 50.066C49.8909 52.8295 49.1722 52.8925 47.579 55.1711C46.7549 56.3494 46.0316 57.7558 45.439 59.2825C41.072 54.5579 31.5012 54.5659 26.404 57.514C23.7013 59.0785 19.5554 64.7213 19.6196 68.9794C15.4039 66.8509 10.4041 67.2452 6.98842 70.3617C8.49683 65.3861 10.4041 60.5858 12.6713 55.9918ZM35.7169 131.999C29.3887 138.076 24.6285 150.17 25.675 159.723C23.4411 157.109 21.3366 154.384 19.3938 151.537C19.4248 151.464 19.466 151.403 19.4786 151.32C20.5515 144.984 20.8483 140.1 24.6813 134.621C28.7789 128.767 34.0733 124.514 40.6296 122.556C44.1037 122.915 48.1556 121.27 49.1745 117.749C49.8393 115.453 48.9419 114.606 48.1773 112.737C45.8758 107.102 50.691 105.393 55.732 106.903C57.9396 107.563 59.2027 108.995 60.5346 110.664C60.4016 111.451 60.4268 112.318 60.6561 113.296C60.9002 114.34 61.4389 115.279 61.9605 116.171C62.5978 117.26 62.7342 117.924 62.9382 118.692C62.4763 120.094 61.4642 121.617 61.2498 122.948C61.2235 123.11 61.2177 123.277 61.2005 123.442C53.2871 119.955 40.9264 126.997 35.7169 131.999ZM39.2541 172.764C38.0907 167.91 36.3611 163.7 36.4218 158.445C36.4803 153.214 37.4122 148.042 39.4673 143.22C41.9764 137.334 45.5858 131.33 51.9782 129.145C54.8494 128.163 59.197 127.738 62.2826 129.083C62.9829 130.34 63.9617 131.453 65.061 132.354C67.9563 134.728 72.8208 135.426 75.8628 132.907C77.8606 131.252 78.2962 129.205 76.9402 127.103C76.2777 126.075 74.963 126.435 74.7315 124.899C74.5825 123.898 74.9493 123.146 75.598 122.576C76.4737 121.997 77.5202 121.592 78.2744 121.503C79.267 121.385 80.4098 121.583 81.3761 121.788C85.1322 122.586 88.1226 125.419 87.3145 129.422C86.6429 132.748 84.0754 135.82 81.6099 138.05C80.7594 138.82 79.5948 139.408 78.812 140.278C77.8056 139.753 76.6583 139.416 75.4009 139.316C72.603 139.092 71.2241 139.8 68.4835 139.053C66.049 138.39 63.4127 138.201 60.9346 138.885C56.6696 140.063 51.3741 143.785 51.4704 148.764C51.5059 150.569 52.267 152.465 54.164 153.029C55.3239 153.375 56.5045 152.863 57.6416 152.537C63.1055 155.614 59.8193 164.124 56.9183 167.88C53.6849 172.067 50.6016 174.83 45.4276 176.315C45.0952 176.41 44.9152 176.627 44.8384 176.872C42.9208 175.576 41.0697 174.192 39.2541 172.764ZM51.3317 180.86C54.0528 180.334 56.579 178.336 58.5769 176.61C60.4979 174.951 61.8344 173.236 62.7903 171.228C63.0849 171.726 63.4608 172.204 63.8953 172.665C63.8345 172.759 63.7783 172.859 63.7371 172.979C62.8557 175.513 61.7289 177.581 59.5431 179.245C57.7837 180.582 56.1618 181.483 54.1376 182.255C54.0918 182.271 54.062 182.299 54.0207 182.32C53.1152 181.848 52.22 181.361 51.3317 180.86ZM56.9836 183.825C58.672 183.103 60.3076 181.773 61.502 180.847C63.7978 179.064 64.9945 176.903 65.9481 174.296C68.6291 175.764 71.5611 175.167 72.6018 171.955C72.031 170.531 72.3886 169.326 73.6747 168.339C73.8661 168.251 74.0564 168.183 74.2467 168.129C74.4002 168.178 74.5687 168.201 74.7636 168.154C75.0192 168.093 75.2633 168.068 75.5109 168.032C75.6038 168.044 75.6954 168.055 75.7883 168.075C77.5191 169.728 74.9905 175.194 74.3292 176.078C72.909 177.974 70.7209 179.638 68.738 180.908C67.2342 181.871 64.669 182.758 62.8797 183.282C61.3243 183.737 59.8675 183.435 58.6846 184.594C58.1172 184.336 57.543 184.093 56.9836 183.825ZM78.1575 191.019C80.9474 188.904 83.3521 187.267 85.1173 183.838C86.5065 181.14 86.8515 177.628 86.3299 174.654C85.4497 169.641 81.2179 165.827 76.2628 166.005C74.5641 165.353 72.65 165.339 71.1313 166.482C69.0922 168.017 69.2343 175.403 65.7235 169.761C62.4935 164.57 69.8429 157.458 74.8851 158.339C75.8341 158.504 76.8531 158.234 77.3529 157.335C78.1048 155.983 78.9828 153.65 80.3892 152.849C84.5992 150.451 88.6292 154.948 90.0608 158.343C91.199 161.042 90.062 164.538 91.3813 166.898C91.9635 167.939 93.7344 168.886 94.546 169.664C96.8876 171.91 98.5577 175.411 98.5439 178.755C98.5233 183.926 93.3894 190.151 88.4195 192.626C84.9385 192.278 81.517 191.732 78.1575 191.019ZM123.772 189.543C123.67 189.475 123.56 189.414 123.433 189.366C116.951 186.945 115.707 174.37 115.381 168.786C114.819 159.144 118.058 149.359 123.467 141.448C128.227 134.482 134.16 128.484 141.697 124.583C147.58 121.537 156.317 118.387 163.452 120.043C159.15 120.204 154.894 121.682 151.032 123.917C145.393 125.744 139.681 129.282 135.117 132.815C128.969 137.574 126.12 144.235 124.304 151.628C122.543 158.789 122.466 166.663 124.212 173.826C125.518 179.175 128.57 182.957 132.082 186.791C129.369 187.833 126.596 188.75 123.772 189.543ZM135.312 185.501C134.656 184.598 133.774 183.952 132.935 183.058C131.058 181.059 129.394 178.695 128.183 176.221C124.909 169.534 125.278 161.112 126.483 153.94C127.656 146.946 130.476 139.867 136.22 135.438C137.899 134.144 139.743 132.805 141.675 131.53C141.31 131.933 140.957 132.339 140.619 132.748C134.813 139.779 131.509 148.636 131.601 157.813C131.652 162.928 132.214 167.923 133.672 172.857C134.936 177.134 137.195 179.996 139.57 183.556C138.169 184.238 136.75 184.886 135.312 185.501ZM142.462 182.074C139.823 178.859 137.438 176.298 136.169 172.168C134.896 168.022 134.476 163.729 134.316 159.428C133.951 149.664 136.027 141.026 142.641 133.573C145.495 130.357 149.793 127.104 154.402 125.355C148.224 130.298 143.89 139.844 142.676 146.45C141.247 154.22 141.37 162.991 143.477 170.641C144.154 173.093 145.263 175.363 146.687 177.435C147.175 178.146 147.527 178.637 147.845 179C146.087 180.083 144.291 181.105 142.462 182.074ZM150.705 177.166C147.834 176.82 145.906 171.238 145.345 169.223C143.671 163.215 143.265 156.993 144 150.825C144.706 144.882 146.437 139.535 149.543 134.399C151.445 131.254 154.588 128.099 158.167 126.347C153.251 132.083 151.728 142.876 152.641 148.991C153.452 154.411 155.455 159.599 159.499 163.428C160.315 164.203 161.992 166.012 163.452 166.966C159.505 170.713 155.249 174.135 150.705 177.166ZM165.822 164.651C164.829 165.367 165.07 165.461 162.697 163.668C158.971 160.852 156.474 157.169 155.257 152.651C153.375 145.659 154.758 127.367 163.874 124.97C164.293 124.976 164.711 125.003 165.13 125.064C162.278 128.096 161.441 135.259 161.857 138.722C162.66 145.399 167.134 153.212 174.022 155.148C171.499 158.498 168.756 161.668 165.822 164.651ZM175.038 153.743C174.407 153.528 173.744 153.384 173.134 153.069C170.228 151.566 168.027 148.269 166.857 145.357C165.896 142.971 165.371 140.524 165.172 137.96C165.062 136.563 165.312 126.607 168.879 126.826C171.476 128.985 171.459 131.977 172.998 134.087C173.364 134.733 173.873 135.179 174.471 135.453C174.961 135.755 175.54 136.011 176.251 136.205C176.849 136.368 177.273 136.082 177.476 135.671C178.849 135.387 180.224 134.675 181.199 133.756C185.501 129.7 187.509 122.247 184.438 117.037C183.945 116.201 182.177 115.118 181.85 114.355C181.11 112.628 182 109.969 181.722 108.106C181.242 104.899 179.492 102.608 176.869 100.738C175.873 100.03 174.879 99.4843 173.87 99.0637C172.99 96.3277 172.592 92.7367 174.11 90.2139C175.643 87.6624 179.465 86.6091 181.122 89.2671C181.614 90.0557 181.58 91.1629 182.11 91.9148C183.527 93.9195 185.356 94.0949 187.06 92.23C189.069 90.0328 189.587 85.6956 188.98 82.8759C188.26 79.5279 186.506 78.4241 184.037 77.0372C185.627 71.8323 182.816 66.9483 177.9 64.9631C179.386 62.8094 180.149 59.8637 180.488 57.5266C180.874 54.8605 180.592 52.1165 179.795 49.4768C188.241 63.6851 193.107 80.2717 193.107 98C193.107 118.828 186.394 138.078 175.038 153.743ZM98.0006 0C43.8768 0 0 43.8765 0 98C0 148.108 37.615 189.402 86.1431 195.261C86.3792 195.493 86.7105 195.624 87.1311 195.499C87.2137 195.474 87.2916 195.443 87.3753 195.418C90.8666 195.795 94.4084 196 98.0006 196C152.126 196 196.001 152.125 196.001 98C196.001 43.8765 152.126 0 98.0006 0Z" fill="url(#paint0_linear_1151_25866)"/>
</g>
<defs>
<linearGradient id="paint0_linear_1151_25866" x1="152.718" y1="20.4167" x2="33.8928" y2="167.826" gradientUnits="userSpaceOnUse">
<stop stop-color="var(--color-quadra)"/>
<stop offset="1" stop-color="var(--color-role)"/>
</linearGradient>
</defs>
</svg>
