<svg width="196" height="196" viewBox="0 0 196 196" fill="none" xmlns="http://www.w3.org/2000/svg">
<g opacity="0.25">
<path fill-rule="evenodd" clip-rule="evenodd" d="M136.459 49.5705C135.352 48.1996 134.48 46.6408 134.063 44.7003C134.031 44.5484 134.014 44.3975 133.996 44.2467L133.987 44.1637L133.979 44.0988C133.975 44.07 133.972 44.0413 133.968 44.0125C133.165 41.4955 133.673 39.0759 134.771 36.2895C134.924 35.9014 135.079 35.501 135.237 35.0922C136.485 31.8619 137.939 28.101 140.297 25.71C140.54 25.4636 140.938 25.4785 141.181 25.71C141.932 26.4216 141.637 27.8222 141.368 29.0996C141.301 29.4211 141.235 29.7348 141.188 30.0278C141.364 31.7092 141.772 33.3987 142.392 35.0046C142.571 35.3484 142.756 35.6893 142.942 36.0314C143.364 36.8073 143.791 37.5908 144.144 38.4248C144.61 39.1286 145.106 39.8037 145.665 40.3997C146.348 41.1293 147.039 41.7837 147.709 42.419C149.641 44.251 151.404 45.9233 152.361 48.7761C153.432 51.9729 154.109 55.8115 154.086 59.1871C154.066 62.2515 153.051 65.0694 152.03 67.9033L152.028 67.9085L152.027 67.9117C151.922 68.203 151.817 68.4945 151.713 68.7865L151.71 68.798C151.595 69.2057 151.48 69.6133 151.365 70.0198C151.314 70.2002 151.261 70.408 151.203 70.6333C150.9 71.8246 150.473 73.5037 149.54 74.1977C149.488 74.2401 149.436 74.2791 149.375 74.3031C149.35 74.3175 149.326 74.3344 149.303 74.3513C149.269 74.3762 149.234 74.4009 149.196 74.4166C149.047 74.4785 148.864 74.404 148.749 74.3031C148.524 74.2229 148.33 74.0636 148.208 73.8458C148.062 73.7713 147.949 73.6441 147.915 73.4504C146.813 67.2529 144.612 63.0841 140.995 58.0753C138.909 55.1868 137.508 52.538 136.459 49.5705ZM150.695 54.8934C150.051 50.7052 148.876 47.7457 146.217 44.4217C143.449 40.9614 140.057 36.3926 139.753 31.684C139.38 32.9391 138.986 34.1915 138.577 35.4948L138.377 36.1313C136.237 42.9528 139.976 46.8574 144.28 51.3534L144.284 51.3569L144.295 51.3686C144.555 51.6406 144.818 51.9147 145.081 52.1918C148.285 55.5639 149.891 59.0564 150.461 62.7942C150.937 60.3161 151.142 57.7921 150.695 54.8934ZM140.475 53.4343C141.724 55.5605 143.152 57.6282 144.724 59.8851C146.729 62.7644 147.889 65.5668 148.56 68.6478C148.667 64.2315 147.582 60.2244 144.103 56.6643C143.069 55.6044 141.927 54.649 140.792 53.6999L140.475 53.4343Z" fill="url(#paint0_linear_1151_11989)"/>
<path fill-rule="evenodd" clip-rule="evenodd" d="M59.1561 64.0548C59.1357 64.0126 59.1146 63.9692 59.0945 63.9271C59.0929 63.9125 59.0918 63.8981 59.0907 63.8838C59.0871 63.8385 59.0836 63.7939 59.0636 63.7459C56.1185 56.6353 58.1798 50.3607 60.4428 43.472C60.5155 43.2507 60.5884 43.0287 60.6614 42.806C62.4644 37.3066 63.1819 31.2088 62.587 25.4159C63.0902 23.5442 63.3596 21.5085 63.2896 19.1198C63.2449 17.616 60.9606 17.608 60.9468 19.1198C60.9411 19.6517 60.9124 20.1755 60.87 20.6947C59.1488 23.253 57.0278 25.1191 54.7503 27.1227C53.9628 27.8156 53.156 28.5254 52.3411 29.2855C49.0171 32.3871 47.6417 36.0446 47.6176 40.6523C47.5775 48.166 51.0594 53.9831 54.6351 59.957C55.6561 61.6628 56.6847 63.3813 57.6412 65.1558C58.2131 66.2172 59.7364 65.2853 59.2367 64.2228C59.2106 64.1673 59.1834 64.1111 59.1561 64.0548ZM58.1145 26.4223C59.0235 25.4492 59.7765 24.5517 60.4333 23.6233C59.7654 26.8327 58.5266 29.8522 57.2832 32.8831C55.8255 36.4366 54.3611 40.0063 53.8025 43.9156C53.3142 47.337 53.6237 50.8524 54.4513 54.2394C52.6059 50.05 51.1422 45.7243 50.976 41.2621C50.7238 34.4789 53.7005 31.1481 58.1145 26.4223ZM57.7036 47.3595L57.7003 47.3678L57.6987 47.3718C57.5778 47.6782 57.4565 47.9859 57.3351 48.2952C56.4457 50.5635 55.868 52.582 55.6342 54.5248C54.2197 48.7984 53.8793 43.4032 57.0692 37.1473C57.6663 35.9764 58.2583 34.8849 58.8263 33.8376C59.6834 32.2573 60.486 30.7775 61.1692 29.2775C61.2677 31.3085 61.3056 33.3384 61.121 35.3821C60.7332 39.6789 59.2589 43.4164 57.7036 47.3595Z" fill="url(#paint1_linear_1151_11989)"/>
<path fill-rule="evenodd" clip-rule="evenodd" d="M31.0516 57.4057C31.2705 57.4607 31.4493 57.6326 31.4436 57.9467C31.3152 65.5001 31.8791 71.5623 36.7791 77.6682C37.8925 79.0559 39.1228 80.3218 40.3502 81.5847C42.3272 83.619 44.2965 85.6453 45.7561 88.1593C50.2768 95.9466 49.432 104.809 45.4524 112.631C44.9607 113.598 43.7835 113.124 43.5772 112.287C42.9651 111.488 42.7002 110.45 42.4412 109.436C42.3021 108.891 42.1647 108.352 41.976 107.861C41.6344 106.971 41.1656 106.204 40.643 105.484C38.8081 103.528 36.7125 101.877 34.6003 100.212C32.055 98.2063 29.4856 96.1815 27.3195 93.582C23.1462 88.5731 22.6717 82.9785 23.5589 76.8842C23.0545 71.4867 25.2071 66.3586 27.8376 61.234C28.1338 60.016 28.8616 59.0654 29.6056 58.0936C29.76 57.892 29.915 57.6895 30.067 57.4836C30.3352 57.1214 30.7948 57.1764 31.0516 57.4057ZM37.5997 85.8502C36.6848 84.8413 35.7577 83.8189 34.8661 82.716C31.345 78.3593 29.0228 72.2317 28.852 66.2681C26.3166 73.4123 26.1596 80.3514 32.4465 86.5248C34.3889 88.4322 36.4541 90.1935 38.5159 91.9519C39.488 92.781 40.4604 93.6103 41.4178 94.4531C42.6431 95.5317 43.6769 96.7604 44.5595 98.1266C44.6031 98.1943 44.6994 98.4155 44.822 98.7078C44.4896 96.9529 43.9818 95.268 43.3056 93.7528C41.8863 90.577 39.7757 88.2496 37.5997 85.8502ZM44.09 110.444L44.101 110.41C44.1077 110.388 44.1145 110.367 44.1217 110.346C44.0513 110.209 43.9786 110.077 43.9054 109.943L43.8638 109.867C43.9268 110.08 43.9956 110.289 44.0747 110.488C44.0801 110.474 44.0851 110.459 44.09 110.444ZM35.2658 92.8906C31.739 90.3993 28.2251 87.917 26.0025 84.2198C27.4605 89.1978 31.165 92.8599 35.6077 96.875C36.0818 97.3031 36.6091 97.7584 37.1659 98.2391C40.0421 100.722 43.7056 103.885 44.8839 107.503C45.2025 105.807 45.3103 104.033 45.2335 102.266C45.0638 102.22 44.908 102.131 44.8197 101.977C42.5577 98.0418 38.9049 95.4614 35.2658 92.8906Z" fill="url(#paint2_linear_1151_11989)"/>
<path d="M154.514 91.2681C154.909 92.2103 156.454 91.8424 156.089 90.8337C154.762 87.1663 156.31 83.3318 157.739 79.7917C158.139 78.8001 158.53 77.8312 158.846 76.896C160.047 73.3416 159.677 70.0955 158.507 66.5824C158.336 66.0678 157.555 66.0139 157.409 66.5824C157.059 67.9316 156.905 69.2884 156.75 70.6522C156.658 71.4677 156.565 72.2862 156.43 73.1066C156.168 74.6954 155.659 76.091 155.137 77.5238C154.876 78.2397 154.611 78.9661 154.372 79.7294C153.161 83.6058 152.933 87.4868 154.514 91.2681Z" fill="url(#paint3_linear_1151_11989)"/>
<path d="M54.0419 73.0902C53.3784 71.3854 52.7313 69.7228 51.3622 68.2619C49.9609 66.7661 48.8388 65.1986 47.6932 63.5984C47.1429 62.8296 46.587 62.0531 45.9923 61.2735C45.355 60.438 46.7877 59.3514 47.4445 60.1537C47.7447 60.5206 48.0356 60.8904 48.325 61.2583C49.2788 62.4708 50.2173 63.6639 51.4264 64.6743C51.8049 64.9909 52.1875 65.2894 52.5664 65.5851C53.6184 66.406 54.6432 67.2057 55.4782 68.3112C57.3236 70.756 57.7477 73.045 56.3299 75.8406C56.1178 76.2578 55.4484 76.2498 55.2352 75.8406C54.7572 74.928 54.3972 74.0031 54.0419 73.0902Z" fill="url(#paint4_linear_1151_11989)"/>
<path d="M31.8081 105.013C31.0402 104.419 29.9398 105.452 30.7147 106.108C33.5206 108.48 36.2944 111.889 38.2521 115.009C39.9406 117.7 40.4036 120.652 40.8752 123.658C41.0084 124.506 41.1422 125.359 41.3044 126.212C41.466 127.061 42.6397 126.911 42.8793 126.212C45.8651 117.486 38.0354 109.824 31.8081 105.013Z" fill="url(#paint5_linear_1151_11989)"/>
<path d="M40.9639 47.9623C39.5793 55.2132 41.3742 64.2854 45.9911 70.1906C46.4576 70.7877 45.6449 71.6428 45.1406 71.0422C40.9398 66.0436 38.0273 59.9183 37.9505 53.2967C37.8989 48.8245 39.2917 44.8977 40.6947 40.9418C41.6922 38.1292 42.695 35.302 43.1875 32.2537C43.2975 31.5694 44.2133 31.8456 44.2856 32.4027C44.7476 36.0234 43.6619 39.2082 42.5566 42.4502C41.9456 44.2423 41.3286 46.052 40.9639 47.9623Z" fill="url(#paint6_linear_1151_11989)"/>
<path d="M107.636 25.5995C109.15 26.4704 110.76 27.175 112.369 27.8794C114.217 28.6881 116.064 29.4965 117.764 30.5557C119.142 31.4143 120.303 32.5291 121.462 33.6421C122.585 34.7207 123.706 35.7975 125.022 36.6374C125.808 37.1406 126.602 36.1744 126.227 35.4316C123.567 30.1843 120.249 27.6719 114.991 25.2087L114.484 24.9711C108.087 21.9787 102.964 19.5819 100.969 12.0881C100.607 10.731 98.5845 11.3053 98.8756 12.6647C100.158 18.6501 102.231 22.4899 107.636 25.5995Z" fill="url(#paint7_linear_1151_11989)"/>
<path d="M127.632 29.3646C127.402 28.9272 127.219 28.577 127.096 28.4114C124.937 25.4889 122.076 24.1885 119.13 22.8494C117.428 22.0756 115.697 21.289 114.057 20.1691C113.277 19.6361 113.98 18.389 114.806 18.8888C116.519 19.9267 118.453 20.4553 120.389 20.9848C122.711 21.6196 125.037 22.2556 126.994 23.7716C129.666 25.8405 131.215 28.4355 131.73 31.7079C131.808 32.1984 131.674 32.5962 131.252 32.885C129.947 33.7758 128.478 30.9772 127.632 29.3646Z" fill="url(#paint8_linear_1151_11989)"/>
<path d="M159.43 48.0104C159.513 48.443 159.577 48.8794 159.642 49.3158C159.778 50.2356 159.914 51.1554 160.216 52.0393C160.497 52.868 161.523 52.7946 161.832 52.0393C162.329 50.8203 161.829 49.0417 161.465 47.7495C161.438 47.6541 161.412 47.5614 161.387 47.4717C160.869 45.608 160.279 44.0732 159.304 42.3963C158.754 41.4495 157.314 42.2932 157.837 43.2537C158.69 44.8148 159.1 46.2716 159.43 48.0104Z" fill="url(#paint9_linear_1151_11989)"/>
<path d="M148.257 30.2231C148.447 31.3636 148.984 32.2794 149.634 33.2043C150.568 34.5339 148.423 35.7202 147.481 34.4629C146.034 32.5315 144.577 29.5572 146.246 27.3072C146.604 26.8223 147.247 26.7868 147.6 27.3072C148.024 27.9314 148.092 28.6608 148.159 29.3892C148.185 29.6693 148.211 29.9493 148.257 30.2231Z" fill="url(#paint10_linear_1151_11989)"/>
<path fill-rule="evenodd" clip-rule="evenodd" d="M98 0C152.124 0 196 43.8765 196 98C196 144.468 163.646 183.355 120.245 193.434C117.303 194.442 114.273 194.952 111.217 195.088C106.892 195.672 102.485 196 98 196C43.8754 196 0 152.125 0 98C0 43.8765 43.8754 0 98 0ZM26.1945 147.092C25.5294 151.011 24.8643 154.93 24.9287 158.862C26.405 160.633 27.9558 162.338 29.5547 163.997C28.4978 157.803 29.6774 151.913 30.8916 145.85C31.4458 143.082 32.0072 140.279 32.3664 137.395C33.8541 125.434 30.9073 116.477 23.6449 107.092C17.5815 99.2562 13.1011 90.2001 11.6282 80.3703C10.8958 75.4921 10.6505 70.9531 11.2454 66.0314C11.8406 61.0971 13.253 56.929 14.7542 52.4992C14.8892 52.1008 15.0249 51.7003 15.1608 51.297C11.0413 58.5891 7.84688 66.4692 5.7585 74.7929C5.78316 75.6418 5.77746 76.491 5.77176 77.3398C5.75811 79.3708 5.74448 81.3993 6.14707 83.4146C7.04339 87.8974 9.07675 91.9102 11.1571 95.907C12.8571 99.1722 14.9858 102.183 17.1122 105.191C19.6167 108.734 22.118 112.272 23.912 116.215C26.8405 122.657 27.6509 129.841 27.4503 136.845C27.3527 140.266 26.7736 143.679 26.1945 147.092ZM24.5378 142.863C24.7327 141.427 24.9138 139.993 25.0502 138.564C25.8995 129.635 25.1063 120.2 20.6075 112.272C18.9263 109.31 16.9025 106.351 14.8515 103.352C14.0164 102.132 13.1765 100.904 12.3537 99.6666C13.367 101.854 14.2816 104.09 14.8456 106.639C15.598 110.045 15.9184 113.489 16.2393 116.94C16.422 118.903 16.6048 120.869 16.8675 122.83C17.5058 127.596 19.3006 131.226 21.2757 135.221C21.6552 135.989 22.0418 136.771 22.4277 137.576C23.2369 139.263 23.9968 141.04 24.5378 142.863ZM8.52657 93.4691C6.50812 89.8322 4.9149 86.0795 4.2352 82.1423C3.36868 87.3025 2.89415 92.5945 2.89415 98C2.89415 120.18 10.5072 140.569 23.2346 156.744C23.1704 153.612 23.5005 150.476 23.9177 147.346C22.7005 143.273 21.0763 140.265 18.5157 136.703C15.8416 132.98 14.5304 129.232 14.1521 124.643C13.9403 122.09 13.9229 119.533 13.9055 116.977C13.881 113.365 13.8565 109.755 13.2833 106.161C12.7757 102.984 11.519 100.232 10.2468 97.447C9.65174 96.1441 9.0533 94.8338 8.52657 93.4691ZM28.3982 45.0662C30.1771 40.1662 31.0712 35.0519 31.658 29.8848C25.684 35.7041 20.4723 42.2982 16.1878 49.5112C12.787 61.6517 11.313 74.3665 15.1883 86.6561C15.7304 88.3765 16.3998 90.0007 17.1506 91.5664C15.1562 82.3395 16.4342 72.7974 20.2419 63.7092C21.2859 61.2177 22.4233 58.7697 23.5608 56.3216C25.2803 52.6208 27.0007 48.918 28.3982 45.0662ZM170.687 68.153C173.405 58.847 174.04 48.2412 172.282 38.6418C154.854 16.8606 128.065 2.8953 98 2.8953C73.5138 2.8953 51.1938 12.1543 34.3367 27.3552C37.6483 36.1861 31.6329 47.0931 27.3168 54.9192C27.0931 55.3248 26.8736 55.7227 26.6606 56.111C23.0237 62.7418 19.561 69.1605 18.4309 76.7873C17.3259 84.2433 18.5444 91.4758 21.1497 98.4275C22.5206 100.458 23.9822 102.428 25.4492 104.404C27.4875 107.151 29.5362 109.912 31.3657 112.869C35.8978 120.194 36.7368 128.374 35.8428 136.79C35.4522 140.466 34.4547 144.186 33.4526 147.922C31.8816 153.779 30.2995 159.677 31.0288 165.517C47.5099 181.865 69.9456 192.2 94.7929 193.026C89.5605 192.05 84.7637 189.234 80.8059 185.573C80.4953 185.351 80.1858 185.125 79.8832 184.893C79.7915 185.048 79.6597 185.191 79.4339 185.292C76.5174 186.59 73.1526 185.54 70.1537 184.605C69.7454 184.478 69.3434 184.352 68.9507 184.235C64.4427 182.893 59.9324 180.503 56.4927 177.31C50.0453 171.325 44.8817 162.741 43.0455 154.081C40.525 142.202 44.0106 131.433 48.2836 120.47C48.7856 119.182 49.3342 117.85 49.897 116.483C53.6413 107.391 58.0097 96.7839 53.4071 87.5937C53.3987 87.5772 53.3918 87.5608 53.3856 87.5445C53.3804 87.5311 53.3758 87.5176 53.3711 87.5041C53.3661 87.4897 53.3612 87.4753 53.3556 87.4607C53.3074 87.3972 53.2612 87.3318 53.2151 87.2665C53.1471 87.1702 53.0792 87.074 53.0048 86.9839C52.4443 86.295 52.6082 85.4675 53.0656 84.9391C53.3315 84.3373 54.143 83.9854 54.8135 84.562C60.7646 89.6786 65.0995 95.6721 67.7919 102.344C67.8726 101.417 67.9623 100.489 68.0519 99.5615C68.3011 96.9836 68.5504 94.4046 68.6069 91.8289C68.7284 86.3569 68.4831 80.9572 67.8928 75.5081C67.6282 73.0661 67.2416 70.5543 66.8496 68.0075C65.6104 59.9554 64.3173 51.5532 66.6526 43.9063C66.8521 38.236 68.1576 32.5968 71.0552 27.6841C71.6466 26.6835 72.2919 25.7459 72.9578 24.8313C74.2404 22.7337 75.7282 20.7485 77.2401 18.9031C77.3468 18.7727 77.4571 18.6374 77.5708 18.4981C79.9794 15.5452 83.9096 10.727 87.7175 9.89628C87.8378 9.86992 87.9375 9.88367 88.0292 9.91118C88.1289 9.84814 88.255 9.82063 88.4063 9.85731C90.3958 10.3331 89.0844 13.1418 88.2622 14.9028C88.082 15.2886 87.9254 15.6241 87.8321 15.8737C86.1311 20.423 86.1815 24.2157 86.4429 28.7535C86.922 30.6436 87.7071 32.4879 88.8648 34.2484C90.9607 37.4334 93.5704 40.1666 96.1804 42.9002C98.372 45.1955 100.564 47.4911 102.452 50.0545C106.451 55.4852 106.646 61.3755 105.255 67.2097C108.456 60.4528 110.351 53.0564 108.136 46.013C106.803 43.504 105.246 41.1084 103.533 38.847C103.272 38.5036 103.01 38.1611 102.747 37.8185C100.889 35.3968 99.0251 32.9681 97.9759 30.2001C97.3879 29.188 96.9088 28.0933 96.581 26.891C96.0503 24.9413 98.9674 24.1688 99.5864 26.0623C101.021 30.4521 105.517 32.6649 109.869 34.8076C112.345 36.0262 114.774 37.2221 116.568 38.7828C117.171 39.3055 117.73 39.8682 118.267 40.4482C120.711 42.1114 123.06 43.8719 125.065 46.1815C128.036 49.6018 130.827 53.1263 133.346 56.8996C138.345 64.3889 143.122 74.4926 142.497 83.7734C142.188 88.3513 141.102 92.4673 138.255 96.0606C137.91 96.4962 137.567 96.8859 137.222 97.2779C134.636 106.769 137.923 117.32 140.882 126.818C141.535 128.913 142.172 130.956 142.726 132.926C141.866 121.8 144.088 112.271 152.715 103.996C153.827 102.929 155.279 103.557 155.801 104.609C156.107 104.954 156.29 105.423 156.211 105.98C155.242 112.793 156.935 119.605 158.618 126.379C159.518 130.001 160.416 133.612 160.902 137.207C162.042 145.636 162.168 153.984 159.032 162.022C156.808 167.723 153.622 173.223 149.588 177.881C159.884 171.217 168.806 162.623 175.849 152.601C175.674 151.151 175.547 149.702 175.419 148.256C175.094 144.557 174.769 140.875 173.673 137.242C172.33 132.779 170.691 128.394 168.751 124.138C165.064 116.046 161.385 107.892 162.269 98.7657C163 91.2175 165.349 84.3015 167.724 77.3108C168.75 74.2911 169.78 71.2575 170.687 68.153ZM187.153 125.797C187.592 126.313 188.033 126.831 188.467 127.355C191.466 118.108 193.106 108.248 193.106 98C193.106 93.0186 192.718 88.1266 191.98 83.3516C190.467 89.3508 187.394 94.9947 184.31 100.287C180.992 105.975 178.939 111.329 181.647 117.767C182.947 120.855 185.041 123.315 187.153 125.797ZM183.202 140.26C185.019 136.602 186.601 132.809 187.943 128.903C182.317 123.654 177.339 115.501 178.655 107.652C179.241 104.155 181.158 100.992 183.021 97.9177C183.651 96.8771 184.276 95.8454 184.841 94.8159C187.595 89.7909 190.267 83.9889 191.015 78.1478C189.977 73.2604 188.555 68.5175 186.798 63.9384C186.818 67.4091 186.652 70.8672 186.449 74.3849C186.222 78.3106 185.92 82.8839 184.381 86.546C183.103 89.587 180.514 91.8368 178.011 94.0117C177.223 94.6962 176.444 95.3732 175.717 96.0652C172.535 99.0935 171.183 102.477 170.981 106.099C171.735 110.934 174.026 115.152 176.347 119.423C177.633 121.791 178.928 124.175 179.975 126.689C181.888 131.286 183.129 135.663 183.202 140.26ZM177.301 92.5728C185.495 85.4594 186.67 72.9475 186.109 62.1939C186.046 62.0369 185.985 61.8784 185.924 61.7198C185.846 61.5164 185.767 61.3114 185.683 61.1107C185.057 67.7667 183.512 74.0628 180.336 80.0563C179.235 82.1324 178.053 84.0203 176.908 85.85C174.482 89.7244 172.219 93.339 171.236 97.9267C172.399 96.545 173.835 95.3943 175.298 94.2213L175.302 94.2185C175.97 93.6826 176.644 93.1421 177.301 92.5728ZM185.186 59.9955C182.256 53.2834 178.59 46.9655 174.261 41.168C175.609 48.4154 175.911 55.5952 174.76 63.0513C173.813 69.1906 171.632 74.9807 169.45 80.7717C167.587 85.7196 165.722 90.6693 164.627 95.8371C162.542 105.681 165.752 113.232 169.323 121.631C170.037 123.312 170.766 125.027 171.47 126.801C174.525 134.5 177.042 142.004 177.489 150.199C178.648 148.437 179.746 146.632 180.789 144.791C181.684 136.518 176.963 128.213 172.91 121.081C172.524 120.402 172.142 119.731 171.774 119.074C168.616 113.444 167.509 107.833 168.367 101.435C169.237 94.9385 171.801 89.807 175.614 84.5826C181.184 76.9478 184.152 69.2831 185.186 59.9955ZM136.336 182.844C136.277 182.898 136.213 182.929 136.15 182.956C134.877 184.34 133.5 185.626 132.03 186.811C135.209 185.593 138.301 184.204 141.306 182.665C143.522 181.027 145.58 179.059 147.48 176.657C152.882 169.829 157.665 161.297 158.024 152.409C158.365 143.963 156.384 135.533 154.456 127.361C154.232 126.412 153.992 125.466 153.753 124.521L153.75 124.51C152.993 121.522 152.237 118.537 151.961 115.451C151.829 113.981 151.893 112.568 152.057 111.168C148.568 119.021 149.346 127.983 150.113 136.826C150.576 142.165 151.036 147.461 150.55 152.442C149.408 164.149 145.131 174.885 136.336 182.844ZM85.6199 14.8502C79.9141 20.6591 75.9162 29.0493 81.0271 36.4915C82.6023 38.7843 85.1098 40.0841 87.6162 41.3833C88.5531 41.869 89.4899 42.3546 90.3778 42.8919C90.1314 42.5687 89.8929 42.2397 89.6648 41.9062C84.029 33.6237 82.1355 23.9865 85.6199 14.8502ZM94.9305 83.4788C96.3759 81.4455 97.804 79.4006 99.2047 77.3398C101.732 71.1984 103.405 63.5476 101.393 57.2045C100.17 53.3485 97.335 50.4212 94.5009 47.4945C94.2087 47.1928 93.9165 46.8911 93.6261 46.5884C92.1452 46.038 90.6865 45.5929 89.2779 45.1631C86.1512 44.2089 83.2707 43.3299 80.9388 41.5417C81.9821 43.4068 83.2664 45.1791 84.6333 47.0655C85.432 48.1677 86.259 49.3089 87.0825 50.5302C90.63 55.7947 92.5166 61.7813 93.8244 67.957C94.9133 73.0965 95.4062 78.2464 94.9305 83.4788ZM105.227 91.1022C109.892 80.8506 113.73 69.776 112.275 58.6189C110.923 68.7538 104.457 78.489 98.4237 87.5718C96.2646 90.8224 94.1601 93.9906 92.3664 97.0624C82.8518 113.352 72.6105 138.072 82.7705 156.077C81.6323 148.341 82.9114 140.588 86.4108 133.353C87.8568 130.365 89.4555 127.458 91.0537 124.552C92.3197 122.25 93.5856 119.949 94.7746 117.608C95.5901 116.001 96.3539 114.317 97.1219 112.623C97.3707 112.074 97.62 111.525 97.8716 110.976C98.8688 103.78 101.882 97.4796 105.227 91.1022ZM117.405 70.1084C120.777 64.492 123.193 58.7003 120.363 51.6099C117.24 43.7859 112.055 40.4654 104.946 36.6004C104.944 36.5997 104.942 36.5986 104.941 36.5976C104.94 36.597 104.939 36.5963 104.938 36.5958C105.089 36.77 105.241 36.9441 105.392 37.1182C106.94 38.8973 108.491 40.6798 109.801 42.6248C113.361 47.9123 116.635 53.9012 117.567 60.2809C118.075 63.7493 117.96 67.0033 117.405 70.1084ZM124.471 100.861C128.896 98.0919 133.316 95.3254 136.179 90.5211C142.348 80.1652 137.99 67.1684 131.837 57.9117C129.376 54.2083 126.806 50.5921 123.85 47.2509C123.138 46.4463 122.38 45.7345 121.599 45.0605C121.621 45.1012 121.642 45.1427 121.663 45.184C121.68 45.2172 121.696 45.2503 121.714 45.2829C131.882 58.063 129.282 77.2962 122.495 91.1091C121.708 92.7129 120.91 94.2916 120.119 95.8575C117.76 100.525 115.458 105.082 113.643 109.848C113.657 109.83 113.669 109.812 113.682 109.794C113.701 109.766 113.72 109.739 113.739 109.711C113.77 109.665 113.801 109.619 113.835 109.573C116.676 105.739 120.575 103.299 124.471 100.861ZM141.745 167.589C143.174 163.2 143.819 158.514 143.606 153.79C143.153 143.763 140.576 134.527 137.945 125.096C137.286 122.734 136.623 120.36 135.99 117.958C134.629 112.8 133.634 106.015 134.5 99.991C133.542 100.822 132.558 101.572 131.531 102.275C127.824 108.764 127.578 115.743 128.374 122.949C129.579 128.3 132.032 133.372 134.494 138.465C137.128 143.912 139.773 149.384 140.914 155.242C141.66 159.069 142.161 163.456 141.745 167.589ZM102.497 189.721C100.793 190.488 98.9869 190.904 97.13 191.015C106.837 192.89 117.631 191.657 126.03 186.993C130.745 184.375 134.542 180.757 137.397 176.531C138.597 173.212 138.841 169.519 138.454 166.013C138.394 165.473 138.336 164.932 138.277 164.392C137.648 158.578 137.023 152.801 135.03 147.251C134.042 144.499 132.861 141.746 131.673 138.975C131.24 137.964 130.805 136.952 130.379 135.936C131.031 139.996 131.568 144.081 131.373 148.207C131.157 152.789 129.78 157.115 128.399 161.451L128.246 161.932C127.021 169.454 123.744 178.368 118.091 183.066C116.136 184.69 112.448 187.147 109.063 188.222C107.021 189.1 104.819 189.618 102.497 189.721ZM90.1818 134.707C91.4139 128.821 94.1832 121.267 97.514 116.082C97.514 116.011 97.5161 115.941 97.5181 115.871C97.5198 115.813 97.5215 115.755 97.522 115.696C96.0494 118.299 94.6296 120.926 93.2023 123.566L92.9384 124.054C89.2006 130.969 85.9053 137.943 85.3551 145.889C84.8118 153.71 87.424 162.118 92.0627 168.502C97.5404 176.038 104.074 173.153 107.441 167.5C105.408 168.161 103.038 168.141 100.653 167.488C94.3436 165.762 91.4609 160.484 90.1692 154.462C88.7513 147.853 88.796 141.331 90.1818 134.707ZM102.784 140.776C100.503 133.584 98.2173 126.379 97.6263 118.886C97.6147 118.739 97.6111 118.595 97.6075 118.452L97.6073 118.448C97.6046 118.339 97.6018 118.229 97.5954 118.118C93.8748 125.745 90.787 133.569 90.599 142.202C90.5073 146.394 91.1515 150.67 92.5945 154.622C93.9619 158.365 96.0217 161.355 99.9818 162.775C101.985 163.493 105.709 164.21 107.938 162.882C107.403 155.338 105.096 148.064 102.784 140.776ZM121.915 174.501C127.225 164.35 126.433 155.252 124.601 144.491C124.047 141.239 123.112 137.925 122.17 134.592C120.658 129.235 119.13 123.825 119.147 118.527C119.159 115.226 119.93 111.945 121.298 108.931C117.587 111.832 114.65 115.282 112.66 119.982C111.066 123.742 110.425 127.675 109.778 131.648L109.716 132.023C109.566 137.126 109.715 142.345 110.208 147.489C113.772 159.721 116.286 173.357 108.919 184.183C108.771 184.399 108.617 184.601 108.464 184.803L108.424 184.855L108.361 184.939L108.371 184.935C113.942 182.815 118.466 181.094 121.915 174.501ZM127.028 129.164C126.729 127.789 126.43 126.414 126.146 125.038C124.64 117.754 125.008 110.841 127.869 104.607C127.767 104.668 127.664 104.73 127.56 104.793L127.401 104.889C127.282 104.96 127.162 105.033 127.044 105.104C121.912 112.228 123.828 120.932 125.661 129.255C125.898 130.329 126.133 131.398 126.351 132.455C127.791 139.425 128.928 146.876 128.858 154.112C129.519 150.621 129.892 147.096 129.514 143.222C129.051 138.477 128.039 133.817 127.028 129.164ZM116.401 76.0625L116.399 76.0651C115.914 76.7649 115.429 77.4646 114.95 78.1662C113.295 82.069 111.1 85.7907 108.785 89.4803C106.311 94.9718 103.96 100.519 102.911 106.419C101.305 115.452 103.405 124.982 106.004 133.816C105.628 121.977 107.547 110.21 113.289 99.4236C114.468 97.2082 115.781 94.9887 117.107 92.7474C120.661 86.7367 124.309 80.568 125.731 73.8966C127.292 66.577 127.052 59.0109 124.345 52.3687C126.374 61.6837 121.386 68.8746 116.401 76.0625ZM74.6107 63.1819C78.2086 70.2253 81.7561 77.1782 83.308 85.0227C84.1115 89.0837 84.7672 93.743 84.5081 98.2212C87.0401 94.5121 89.6591 90.8546 92.2805 87.1994C94.582 77.5186 90.85 65.9649 86.593 57.7226C85.3705 55.3556 83.7359 53.2633 82.1056 51.1765C80.3839 48.9726 78.6669 46.7748 77.4452 44.2662C75.3442 39.9485 75.248 35.625 75.7867 31.0219C75.609 28.6882 75.9105 26.4107 76.5982 24.2318C74.66 26.7832 72.9991 29.5444 71.9205 32.7939C68.5519 42.9446 69.7794 53.7246 74.6107 63.1819ZM66.6893 146.072C65.4984 155.617 67.5558 164.593 72.6278 172.74C77.4212 180.442 87.5581 188.192 97.1266 185.808C102.603 184.443 105.493 180.26 106.898 175.371C105.394 176.533 103.558 177.419 101.307 177.895C91.8518 179.894 86.4452 169.425 84.1436 162.095C84.0885 161.919 84.0391 161.742 83.9897 161.565C83.9589 161.455 83.9282 161.345 83.896 161.235C73.5974 147.62 74.8663 126.909 80.5675 111.259C78.1261 115.276 75.8165 119.381 73.798 123.616C72.4767 126.388 71.4299 129.256 70.3841 132.12C69.7408 133.882 69.0977 135.644 68.3914 137.381C67.7048 140.255 67.0549 143.135 66.6893 146.072ZM146.956 163.864C148.714 157.319 148.671 150.591 148.347 143.922C148.197 140.847 147.855 137.836 147.518 134.875C147.067 130.915 146.626 127.044 146.671 123.227C145.474 127.758 144.791 132.486 144.13 137.161C144.109 137.309 144.011 137.405 143.887 137.46C146.326 147.998 147.179 159.761 143.853 169.901C143.462 171.095 143.003 172.251 142.498 173.375C144.438 170.486 146.015 167.373 146.956 163.864ZM69.4872 66.5196C70.0848 70.3244 70.6693 74.0462 70.8603 77.5255C71.1818 83.4032 70.5308 89.1508 69.8796 94.9002C69.4815 98.4149 69.0833 101.93 68.9072 105.477C70.5852 110.756 71.2856 116.418 71.0059 122.37C73.5034 116.045 76.7197 110.288 80.3348 104.545C81.1406 103.265 81.9761 102.003 82.8129 100.742C82.8713 100.138 82.9034 99.5348 82.8897 98.9342C82.843 96.8997 82.2243 94.8332 81.6228 92.8236C81.3973 92.0706 81.1743 91.3256 80.9847 90.5933C79.8878 86.3535 78.5444 82.1848 77.0051 78.0825C75.8868 75.1044 74.5172 72.2407 73.1512 69.3846C71.2955 65.5044 69.4465 61.6383 68.2435 57.5186C68.5448 60.5187 69.02 63.5445 69.4872 66.5196ZM52.4191 164.335C52.7527 164.937 53.0965 165.537 53.4564 166.135C56.2084 170.707 58.9765 175.14 63.4238 178.298C66.9323 180.791 73.3533 183.704 77.9897 183.326C76.7139 182.191 75.5586 180.981 74.566 179.738C69.8299 173.807 66.4039 166.921 64.8451 159.495C63.1326 151.33 64.6181 143.462 66.6939 135.53C68.8636 127.235 69.2361 118.156 67.4022 109.799C66.1907 104.283 63.5132 99.278 60.2408 94.6703C63.198 105.087 60.5697 117.461 57.2744 127.003C56.9245 128.017 56.5722 129.016 56.2231 130.006C53.8727 136.673 51.6678 142.927 51.3016 150.267C51.0678 154.934 51.2408 159.787 52.4191 164.335ZM54.0336 127.971C55.6665 123.322 57.3026 118.664 57.8464 113.766C58.1467 111.054 58.3106 107.92 58.2017 104.703C57.1247 109.858 55.0025 114.972 52.874 120.101C50.2476 126.429 47.6118 132.781 46.9185 139.261C46.2273 145.72 47.134 151.746 49.251 157.472C48.5702 150.331 49.6121 142.796 51.4219 136.048C52.1514 133.329 53.0919 130.651 54.0336 127.971Z" fill="url(#paint11_linear_1151_11989)"/>
</g>
<defs>
<linearGradient id="paint0_linear_1151_11989" x1="152.717" y1="20.4167" x2="33.8917" y2="167.825" gradientUnits="userSpaceOnUse">
<stop stop-color="var(--color-quadra)"/>
<stop offset="1" stop-color="var(--color-role)"/>
</linearGradient>
<linearGradient id="paint1_linear_1151_11989" x1="152.717" y1="20.4167" x2="33.8917" y2="167.825" gradientUnits="userSpaceOnUse">
<stop stop-color="var(--color-quadra)"/>
<stop offset="1" stop-color="var(--color-role)"/>
</linearGradient>
<linearGradient id="paint2_linear_1151_11989" x1="152.717" y1="20.4167" x2="33.8917" y2="167.825" gradientUnits="userSpaceOnUse">
<stop stop-color="var(--color-quadra)"/>
<stop offset="1" stop-color="var(--color-role)"/>
</linearGradient>
<linearGradient id="paint3_linear_1151_11989" x1="152.717" y1="20.4167" x2="33.8917" y2="167.825" gradientUnits="userSpaceOnUse">
<stop stop-color="var(--color-quadra)"/>
<stop offset="1" stop-color="var(--color-role)"/>
</linearGradient>
<linearGradient id="paint4_linear_1151_11989" x1="152.717" y1="20.4167" x2="33.8917" y2="167.825" gradientUnits="userSpaceOnUse">
<stop stop-color="var(--color-quadra)"/>
<stop offset="1" stop-color="var(--color-role)"/>
</linearGradient>
<linearGradient id="paint5_linear_1151_11989" x1="152.717" y1="20.4167" x2="33.8917" y2="167.825" gradientUnits="userSpaceOnUse">
<stop stop-color="var(--color-quadra)"/>
<stop offset="1" stop-color="var(--color-role)"/>
</linearGradient>
<linearGradient id="paint6_linear_1151_11989" x1="152.717" y1="20.4167" x2="33.8917" y2="167.825" gradientUnits="userSpaceOnUse">
<stop stop-color="var(--color-quadra)"/>
<stop offset="1" stop-color="var(--color-role)"/>
</linearGradient>
<linearGradient id="paint7_linear_1151_11989" x1="152.717" y1="20.4167" x2="33.8917" y2="167.825" gradientUnits="userSpaceOnUse">
<stop stop-color="var(--color-quadra)"/>
<stop offset="1" stop-color="var(--color-role)"/>
</linearGradient>
<linearGradient id="paint8_linear_1151_11989" x1="152.717" y1="20.4167" x2="33.8917" y2="167.825" gradientUnits="userSpaceOnUse">
<stop stop-color="var(--color-quadra)"/>
<stop offset="1" stop-color="var(--color-role)"/>
</linearGradient>
<linearGradient id="paint9_linear_1151_11989" x1="152.717" y1="20.4167" x2="33.8917" y2="167.825" gradientUnits="userSpaceOnUse">
<stop stop-color="var(--color-quadra)"/>
<stop offset="1" stop-color="var(--color-role)"/>
</linearGradient>
<linearGradient id="paint10_linear_1151_11989" x1="152.717" y1="20.4167" x2="33.8917" y2="167.825" gradientUnits="userSpaceOnUse">
<stop stop-color="var(--color-quadra)"/>
<stop offset="1" stop-color="var(--color-role)"/>
</linearGradient>
<linearGradient id="paint11_linear_1151_11989" x1="152.717" y1="20.4167" x2="33.8917" y2="167.825" gradientUnits="userSpaceOnUse">
<stop stop-color="var(--color-quadra)"/>
<stop offset="1" stop-color="var(--color-role)"/>
</linearGradient>
</defs>
</svg>
