<svg width="196" height="196" viewBox="0 0 196 196" fill="none" xmlns="http://www.w3.org/2000/svg">
<g opacity="0.25">
<path d="M38.0376 145.175C37.4231 144.198 38.9672 143.305 39.5783 144.274C39.9216 144.817 40.2742 145.358 40.6273 145.899C41.8131 147.717 43.0049 149.544 43.8741 151.528C44.0735 151.987 43.5764 152.397 43.1819 152.063C41.3162 150.478 40.0168 148.373 38.7373 146.3C38.5045 145.922 38.2724 145.546 38.0376 145.175Z" fill="url(#paint0_linear_1151_14863)"/>
<path d="M44.8487 138.151C44.0463 136.985 43.1764 135.936 42.0221 135.105C40.9046 134.299 39.865 136.137 40.9481 136.942C41.829 137.596 42.4275 138.482 43.0289 139.372C43.1724 139.584 43.3164 139.797 43.4641 140.007C43.5554 140.137 43.6501 140.276 43.7483 140.421C44.3096 141.246 44.9874 142.243 45.8184 142.65C46.3708 142.922 46.9806 142.476 46.8442 141.862C46.578 140.664 45.6143 139.264 44.909 138.239L44.8487 138.151Z" fill="url(#paint1_linear_1151_14863)"/>
<path d="M56.4081 163.601C55.872 162.945 56.7895 162.001 57.3502 162.658C62.6748 168.912 67.6125 175.728 72.2617 182.489C72.7765 183.237 71.6733 183.969 71.0646 183.414C67.4185 180.092 64.718 175.878 62.0249 171.676C60.2404 168.892 58.4591 166.112 56.4081 163.601Z" fill="url(#paint2_linear_1151_14863)"/>
<path d="M62.6462 180.131C62.4754 179.964 62.3027 179.795 62.1346 179.627C61.3999 178.893 60.2594 180.032 60.9941 180.767C61.1633 180.936 61.331 181.107 61.4988 181.279C61.8833 181.672 62.2686 182.065 62.6756 182.432C62.7718 182.519 62.8688 182.61 62.9673 182.703C63.4076 183.116 63.8767 183.556 64.4247 183.757C64.8178 183.903 65.2706 183.45 65.125 183.057C64.9219 182.506 64.4806 182.036 64.066 181.595C63.9751 181.498 63.8855 181.403 63.8 181.308C63.4329 180.901 63.0391 180.516 62.6462 180.131Z" fill="url(#paint3_linear_1151_14863)"/>
<path d="M60.5295 157.596C60.3774 157.431 60.2247 157.265 60.0646 157.111C59.89 156.944 59.7193 156.773 59.5488 156.602C59.2994 156.353 59.0502 156.104 58.7888 155.866C58.2043 155.334 59.0731 154.47 59.6554 154.999C60.5425 155.809 61.5432 156.839 61.9054 158.016C62.0212 158.39 61.5684 158.559 61.3128 158.361C61.0274 158.138 60.7779 157.867 60.5295 157.596Z" fill="url(#paint4_linear_1151_14863)"/>
<path d="M61.9316 78.7183C55.7574 86.514 48.956 94.2963 41.6741 101.074C40.9774 101.723 39.9475 100.702 40.6254 100.026C43.5017 97.1506 46.1105 93.9587 48.7215 90.764C52.5231 86.1128 56.3295 81.4555 60.9737 77.7616C61.6605 77.2142 62.4743 78.0322 61.9316 78.7183Z" fill="url(#paint5_linear_1151_14863)"/>
<path d="M57.673 90.97C54.5573 93.9141 51.7442 97.1993 48.9322 100.483C46.8304 102.938 44.7291 105.392 42.5026 107.702C41.9551 108.27 42.8103 109.128 43.3686 108.569C44.1467 107.789 44.9357 107.007 45.7289 106.221C50.3131 101.679 55.0413 96.995 58.6352 91.7107C59.037 91.1201 58.1644 90.5054 57.673 90.97Z" fill="url(#paint6_linear_1151_14863)"/>
<path d="M40.8243 78.3788C45.6025 72.2775 50.4341 66.1079 56.9964 62.2508C57.4278 61.9968 57.8465 62.576 57.5179 62.9248C55.2481 65.3354 52.9933 67.7763 50.7353 70.2207C45.131 76.2876 39.5062 82.3766 33.5845 88.0753C33.266 88.3823 32.7908 87.9081 33.0981 87.5896C35.8206 84.7682 38.3153 81.5827 40.8243 78.3788Z" fill="url(#paint7_linear_1151_14863)"/>
<path d="M52.8273 59.8475C55.7075 56.8223 58.5857 53.7993 61.246 50.5921C61.7936 49.9323 60.9797 49.146 60.3195 49.6647C54.461 54.2574 49.5306 60.3844 44.83 66.2259L44.8027 66.2598C44.3003 66.8842 43.8004 67.5053 43.3024 68.1208C42.7109 68.8542 43.7396 69.9082 44.3518 69.1695C47.0323 65.9342 49.9316 62.889 52.8273 59.8475Z" fill="url(#paint8_linear_1151_14863)"/>
<path d="M102.467 97.6564C101.81 96.8953 101.159 96.14 100.497 95.4175C99.6772 94.5226 101.001 93.1887 101.835 94.0794C102.395 94.6786 102.969 95.277 103.547 95.879C105.888 98.3192 108.288 100.82 110.005 103.684C110.219 104.04 109.79 104.478 109.432 104.259C106.725 102.593 104.571 100.095 102.467 97.6564Z" fill="url(#paint9_linear_1151_14863)"/>
<path d="M99.8813 84.876C99.196 84.2899 98.2059 85.2478 98.8788 85.8796C99.526 86.4868 100.129 87.187 100.737 87.8928C101.872 89.211 103.025 90.5487 104.512 91.3366C104.91 91.5467 105.317 91.1276 105.115 90.7337C103.957 88.471 101.788 86.5073 99.8813 84.876Z" fill="url(#paint10_linear_1151_14863)"/>
<path d="M104.734 83.6926C104.911 84.1778 104.282 84.3957 103.962 84.1431C101.685 82.3388 99.8705 79.9225 98.1224 77.5948C97.9996 77.4313 97.8772 77.2683 97.755 77.106C97.1739 76.3349 98.4885 75.3344 99.0883 76.0769C99.6314 76.7485 100.22 77.3989 100.81 78.0516C102.366 79.7725 103.936 81.5093 104.734 83.6926Z" fill="url(#paint11_linear_1151_14863)"/>
<path d="M94.4512 105.652C94.8451 105.917 95.3838 105.386 95.113 104.99C93.1253 102.095 90.7945 99.4226 88.4744 96.7626C87.6007 95.761 86.7284 94.7609 85.8767 93.7515C84.9667 92.6709 83.4195 94.2293 84.3269 95.3004C84.8002 95.8591 85.2711 96.4256 85.7438 96.9942C88.366 100.148 91.0409 103.366 94.4512 105.652Z" fill="url(#paint12_linear_1151_14863)"/>
<path d="M71.9071 64.2148C73.4109 65.5191 74.7806 66.9599 76.1285 68.4213C76.3583 68.6705 76.5959 68.9209 76.8359 69.174C77.8855 70.2804 78.9829 71.4372 79.6806 72.7551C79.9362 73.2377 79.4972 74.032 78.892 73.7809C77.1796 73.0726 75.9211 71.5837 74.7772 70.1739C74.6708 70.0428 74.5646 69.9117 74.4585 69.7808L74.4539 69.775C73.2448 68.2823 72.0448 66.8008 70.6313 65.4905C69.7705 64.695 71.0371 63.4606 71.9071 64.2148Z" fill="url(#paint13_linear_1151_14863)"/>
<path d="M74.6862 62.9352C75.5048 64.004 76.3625 65.124 77.3619 65.8995C77.958 66.3615 79.0881 65.9695 78.7809 65.0731C78.2535 63.534 76.9932 62.1292 75.9006 60.9113L75.7813 60.7783C75.1163 60.0357 74.4275 59.3169 73.7388 58.5984C73.0458 57.8754 72.3527 57.1523 71.6848 56.4056C70.9019 55.531 69.6697 56.8033 70.4079 57.6824C71.5667 59.0625 72.7072 60.462 73.8454 61.8592C74.123 62.1997 74.401 62.5627 74.6837 62.9319L74.6862 62.9352Z" fill="url(#paint14_linear_1151_14863)"/>
<path d="M88.9867 59.5926C88.55 59.9754 88.1064 60.3468 87.6365 60.6872C87.0095 61.1411 86.402 60.0946 87.029 59.6476C87.4588 59.3407 87.8577 58.997 88.2574 58.6526L88.3437 58.5782C88.4006 58.5293 88.4569 58.4798 88.5131 58.4304C88.8609 58.1247 89.204 57.8231 89.6549 57.683C90.0584 57.5569 90.4481 58.0498 90.2143 58.4086C89.9759 58.7735 89.6359 59.0533 89.2989 59.3306C89.1934 59.4173 89.0883 59.5038 88.9867 59.5926Z" fill="url(#paint15_linear_1151_14863)"/>
<path d="M62.7718 130.492C61.997 129.484 60.2502 130.452 61.0273 131.513C61.6903 132.416 62.3111 133.346 62.9318 134.276C63.4076 134.989 63.8841 135.703 64.3788 136.403C65.3588 137.79 66.3663 139.192 68.1154 139.552C68.512 139.635 68.8857 139.306 68.7756 138.892C68.4284 137.575 67.5869 136.591 66.7276 135.587C66.5574 135.388 66.3864 135.188 66.2184 134.984C65.4233 134.02 64.6757 133.022 63.9277 132.023C63.5447 131.512 63.1615 131 62.7718 130.492Z" fill="url(#paint16_linear_1151_14863)"/>
<path d="M65.5613 125.103C66.4019 126.012 67.2759 126.958 67.9781 127.977C68.0429 128.071 68.1112 128.168 68.1818 128.269C68.7705 129.112 69.5167 130.181 69.6825 131.129C69.804 131.821 69.1747 132.32 68.5305 132.015C67.8261 131.682 67.2029 130.984 66.6306 130.343C66.431 130.119 66.2375 129.903 66.049 129.711C65.5867 129.241 65.1656 128.725 64.7442 128.209C64.3852 127.769 64.0257 127.329 63.6408 126.917C62.4786 125.675 64.3538 123.798 65.5103 125.048L65.5613 125.103Z" fill="url(#paint17_linear_1151_14863)"/>
<path d="M130.72 145.094C130.257 145.691 129.794 146.288 129.325 146.883L129.126 147.136C126.719 150.187 124.371 153.163 122.454 156.566C122.196 157.025 122.901 157.436 123.16 156.978C124.682 154.274 126.756 151.94 128.821 149.614C129.637 148.695 130.454 147.775 131.234 146.836C132.8 144.95 134.315 143.026 135.83 141.102C136.923 139.714 138.016 138.326 139.129 136.951C139.427 136.582 138.981 136.14 138.612 136.434C135.508 138.912 133.122 141.992 130.72 145.094Z" fill="url(#paint18_linear_1151_14863)"/>
<path d="M158.822 96.8517C156.358 99.6501 153.838 102.425 151.239 105.109C150.266 106.114 148.709 104.558 149.704 103.574C150.311 102.974 150.905 102.348 151.503 101.718C153.534 99.578 155.598 97.4032 158.275 96.1438C158.74 95.9244 159.168 96.4589 158.822 96.8517Z" fill="url(#paint19_linear_1151_14863)"/>
<path d="M152.642 111.57C150.951 113.282 149.409 115.137 148.149 117.191C147.729 117.877 148.802 118.5 149.226 117.82C150.503 115.772 152.139 113.994 153.888 112.339C154.55 111.713 155.271 111.126 155.993 110.538C157.026 109.697 158.062 108.854 158.929 107.892C159.392 107.377 158.816 106.638 158.2 106.946C156.229 107.934 154.455 109.732 152.898 111.311L152.642 111.57Z" fill="url(#paint20_linear_1151_14863)"/>
<path d="M136.824 167.935C142.407 163.339 148.051 158.693 152.857 153.357C153.129 153.055 152.771 152.512 152.402 152.767C147.184 156.352 142.453 160.661 137.74 164.952C135.62 166.884 133.503 168.811 131.347 170.668C130.664 171.258 131.654 172.231 132.336 171.656C133.816 170.411 135.318 169.175 136.824 167.935Z" fill="url(#paint21_linear_1151_14863)"/>
<path d="M154.542 136.046C151.564 140.547 146.344 144.357 141.857 147.26C141.184 147.696 140.613 146.656 141.238 146.202C143.648 144.454 145.875 142.427 148.01 140.352C148.549 139.828 149.079 139.278 149.612 138.724C150.865 137.423 152.134 136.106 153.572 135.076C154.151 134.66 154.921 135.473 154.542 136.046Z" fill="url(#paint22_linear_1151_14863)"/>
<path fill-rule="evenodd" clip-rule="evenodd" d="M0 98C0 43.8765 43.8756 0 98.0007 0C152.125 0 196.001 43.8765 196.001 98C196.001 152.125 152.125 196 98.0007 196C43.8756 196 0 152.125 0 98ZM189.099 121.399C189.402 121.635 189.708 121.872 190.015 122.113C192.027 114.411 193.106 106.332 193.106 98C193.106 96.7254 193.06 95.4623 193.01 94.1981C190.015 92.0696 187.181 89.7772 184.624 87.126C183.307 85.7596 182.176 84.2273 181.05 82.7003C179.959 81.221 178.871 79.7468 177.621 78.4332C176.406 77.1555 174.821 76.4017 173.257 75.6574C171.512 74.8272 169.792 74.009 168.638 72.489C168.248 71.976 168.08 71.4007 167.906 70.8061C167.762 70.3127 167.614 69.806 167.332 69.3106C166.789 68.3547 166.059 67.5994 165.243 66.9426C165.431 67.6488 165.63 68.3588 165.83 69.0721C167.034 73.3783 168.272 77.8045 167.549 82.2123C167.325 83.5857 166.698 84.671 166.082 85.7379C165.562 86.6396 165.049 87.5283 164.792 88.5668C163.253 90.7526 164.013 92.3653 167.075 93.4037C167.611 93.625 168.145 93.8496 168.679 94.0754C168.979 94.2668 169.285 94.4234 169.587 94.5781C170.131 94.8561 170.663 95.1279 171.121 95.5838C172.412 96.871 172.501 97.5392 172.191 99.2929C172.026 100.23 171.733 100.769 171.495 101.207C171.02 102.082 170.762 102.556 172.166 105.001C172.949 106.367 174.31 107.528 175.53 108.568L175.645 108.666C175.714 108.725 175.784 108.784 175.852 108.843L176.073 109.032L176.386 109.301C178.217 110.867 179.912 112.316 181.415 114.265C183.655 117.168 186.286 119.213 189.097 121.397L189.099 121.399ZM166.064 160.796C165.574 162.544 164.774 164.663 163.725 166.703C169.271 161.397 174.171 155.431 178.306 148.926C177.542 148.226 176.824 147.487 176.108 146.749C174.721 145.322 173.342 143.901 171.642 142.789C170.166 141.821 171.546 139.44 173.031 140.413C174.878 141.623 176.375 143.143 177.88 144.673C178.502 145.305 179.126 145.939 179.777 146.553C183.821 139.756 187.031 132.41 189.293 124.657C189.004 124.649 188.708 124.557 188.434 124.342C187.64 123.718 186.773 123.1 185.888 122.47L185.884 122.468C185.546 122.227 185.205 121.984 184.865 121.739C184.332 123.99 182.377 125.445 180.133 127.115C179.855 127.323 179.572 127.533 179.287 127.748C177.875 128.817 177.092 130.045 176.378 131.165C175.331 132.806 174.433 134.215 171.917 134.547C170.914 134.679 170.684 134.386 170.464 134.108C170.147 133.706 169.854 133.333 167.29 134.307C166.541 134.591 165.768 135.285 165.05 135.93C164.664 136.275 164.295 136.607 163.953 136.854C163.377 137.27 162.604 137.704 161.766 138.174C158.936 139.761 155.375 141.758 156.245 144.884C156.612 146.203 157.508 147.289 158.427 148.402C159.449 149.64 160.498 150.912 160.879 152.574C161.004 153.116 161.011 153.719 161.018 154.325C161.029 155.309 161.041 156.3 161.557 157.041C162.067 157.774 163.241 158.26 164.286 158.692C164.697 158.863 165.088 159.024 165.41 159.19C165.964 159.473 166.225 160.219 166.064 160.796ZM12.6559 122.791C9.73802 117.018 6.82007 111.246 3.24261 105.861C7.24287 154.706 48.1235 193.106 98.0007 193.106C106.57 193.106 114.867 191.954 122.766 189.829C120.529 188.004 118.56 185.897 116.592 183.792C114.727 181.797 112.862 179.801 110.772 178.049C110.446 178.682 109.613 178.986 108.905 178.371C106.965 176.691 105.636 174.568 104.301 172.434C103.336 170.893 102.368 169.346 101.164 167.957C99.5774 166.126 97.6601 164.706 95.7376 163.282L95.7342 163.28C94.8208 162.603 93.9057 161.925 93.025 161.203C89.8996 158.639 87.8627 155.404 85.8234 152.166C84.9026 150.704 83.9812 149.241 82.959 147.839C83.0117 148.512 83.0266 149.195 82.9865 149.899C82.9049 151.315 82.5754 152.692 82.2458 154.068C81.8719 155.63 81.4978 157.193 81.485 158.816C81.4538 162.898 82.6287 167.127 83.785 171.29C84.4561 173.705 85.121 176.099 85.5402 178.428C85.7431 179.557 84.3757 180.618 83.469 179.635C82.6181 178.711 81.6572 177.831 80.6886 176.943C78.6251 175.053 76.5261 173.13 75.3803 170.69C74.9779 169.831 75.8743 168.59 76.821 169.249C79.2269 170.922 81.4941 173.125 83.4232 175.481C83.3531 172.465 82.237 169.648 81.1165 166.82C80.129 164.327 79.1381 161.826 78.8567 159.173C78.6069 156.818 78.8315 154.587 79.0551 152.366C79.3269 149.666 79.5972 146.981 79.0103 144.109C76.8829 146.164 75.0444 148.42 73.3595 150.909C72.4666 152.226 70.6292 151.611 70.2934 150.471C64.8535 147.65 59.2417 143.462 55.4466 138.749C54.3314 137.364 53.3739 135.892 52.4192 134.425C50.9992 132.243 49.5854 130.07 47.6684 128.207C45.2855 125.892 42.4799 124.223 39.6621 122.548C39.0046 122.157 38.3465 121.765 37.693 121.365C32.9615 118.467 29.7326 115.219 26.8717 110.514C26.4832 109.875 26.0725 109.141 25.6345 108.358C23.1924 103.991 19.9029 98.1099 14.8927 98.8379C19.5715 108.577 22.9929 119.237 24.9999 129.83C25.0775 130.24 25.2844 131.06 25.5544 132.131C26.7283 136.784 29.0945 146.165 27.2075 147.084C26.3536 147.5 25.5913 145.924 24.9529 143.678C24.8543 143.602 24.7604 143.513 24.6755 143.403C19.8466 137.015 16.2513 129.903 12.6559 122.791ZM31.987 63.342C24.0004 67.5775 15.7844 71.9347 6.86577 70.7892C4.29482 79.4132 2.89416 88.5404 2.89416 98C2.89416 98.7484 2.91929 99.4904 2.94442 100.233C2.95282 100.481 2.96121 100.728 2.96867 100.977C3.16123 101.072 3.34119 101.212 3.49249 101.416C4.30171 102.513 5.06737 103.636 5.81355 104.771C8.48517 101.841 10.4653 98.457 12.4356 95.0902C14.5658 91.4501 16.6844 87.8298 19.6529 84.8244C21.4332 83.0232 23.5206 81.6506 25.6147 80.2736C26.3936 79.7614 27.1734 79.2486 27.9388 78.7129C32.1843 75.7408 34.8355 72.3469 36.9445 67.6337C38.4036 64.3728 39.9728 61.4122 41.7024 58.5914C38.4808 59.8981 35.253 61.6099 31.987 63.342ZM42.7111 20.8494C42.6022 20.8757 42.5048 20.8711 42.4154 20.8505C37.003 24.7567 32.0055 29.2006 27.5307 34.1338C43.8321 22.8884 65.8461 21.6471 84.9178 24.3407C93.0498 25.489 101.395 27.5411 109.835 29.6165C129.204 34.3791 149.07 39.264 167.995 33.6295C164.5 29.831 160.692 26.3316 156.627 23.1429C151.803 24.2928 146.328 24.1908 141.293 24.0971C140.37 24.0799 139.463 24.063 138.576 24.0541C131.643 23.9842 125.222 23.2862 118.575 21.2184C108.75 18.1627 99.3795 15.6147 89.0144 15.1596C85.8268 15.0198 82.6289 15.0301 79.4321 15.139L78.8461 15.1926C78.3554 15.2375 77.8701 15.282 77.3907 15.3247C73.6678 15.6605 69.961 16.1305 66.2828 16.7918C63.3912 17.3126 60.4812 17.7483 57.5705 18.1841C52.5895 18.9299 47.6067 19.6759 42.7111 20.8494ZM147.692 22.2427C150.117 22.0719 152.54 21.9013 154.96 21.8328C139.082 9.93983 119.365 2.89415 98.0007 2.89415C78.4085 2.89415 60.2045 8.82344 45.0723 18.9788C52.4962 17.146 59.95 15.7327 67.5586 14.7768C75.3929 13.7922 84.3929 13.1033 92.3487 14.1567C98.9291 14.6106 105.475 15.7029 111.951 17.6721C120.38 20.235 128.073 22.4896 136.944 22.673C140.532 22.7467 144.115 22.4945 147.692 22.2427ZM162.289 62.148C162.574 62.0896 162.89 62.1297 163.214 62.3269L163.558 62.5349C165.75 63.8616 167.926 65.1787 169.352 67.3759C169.672 67.8691 169.932 68.4533 170.197 69.0473C170.668 70.1054 171.153 71.195 172.017 71.8586C172.711 72.3914 173.647 72.6842 174.585 72.9773C175.313 73.2051 176.042 73.4331 176.658 73.7739C178.93 75.0311 180.453 77.2758 181.952 79.4843C182.681 80.5579 183.403 81.623 184.203 82.5619C186.778 85.5832 189.656 88.2264 192.793 90.6162C191.905 79.0614 188.961 68.0888 184.311 58.0596C167.235 62.2913 147.929 60.7417 131.152 56.1592C123.655 54.1119 116.667 51.0472 109.6 47.9479C108.62 47.5178 107.637 47.0871 106.652 46.6583C96.0028 42.0219 85.405 39.4143 73.7549 40.0745L74.0059 40.3827C75.0001 41.6043 76.0003 42.833 77.0755 44.0266C77.7621 44.7888 78.5161 45.5238 79.276 46.2647C81.2154 48.1556 83.1935 50.0842 84.19 52.5968C84.3505 53.0014 84.488 53.4152 84.6152 53.8335C85.9277 51.8873 88.1685 50.2539 89.8557 49.2418C91.8203 48.0636 94.9472 46.5643 96.9736 48.2618C97.251 48.4945 97.2648 48.7799 97.141 49.0115C97.2201 49.3037 97.2109 49.6912 97.1055 50.1771C97.3932 51.9492 98.0259 53.5091 98.8592 54.9476C100.111 55.9974 101.587 56.5955 103.122 57.2171C103.529 57.3821 103.941 57.5488 104.353 57.726C105.005 58.0068 105.638 58.3335 106.267 58.6716C109.059 59.618 111.817 60.6262 114.561 61.6289C127.816 66.4736 140.718 71.1891 155.282 68.1759C157.153 65.2795 159.819 62.046 162.289 62.148ZM81.2672 141.456C81.4139 141.562 81.5411 141.705 81.6454 141.878C83.6149 144.144 85.2534 146.573 86.8782 148.982L87.0051 149.17C87.7714 148.124 88.4673 146.993 89.1662 145.857C90.486 143.712 91.8168 141.549 93.6542 139.911C94.5709 139.094 95.5007 138.424 96.3928 137.782C97.1205 137.258 97.8231 136.752 98.4729 136.199C93.0576 132.614 90.241 126.798 87.4399 121.014C86.5799 119.239 85.7213 117.466 84.7895 115.761C83.8073 114.438 82.8747 113.085 81.9417 111.732L81.9378 111.726C81.3261 110.839 80.7141 109.951 80.0877 109.071C78.9415 107.813 77.6864 106.58 76.4027 105.346C76.4084 106.199 76.1895 107.061 75.6279 107.94C75.348 108.376 74.9295 108.697 74.5155 109.014C74.124 109.314 73.7365 109.611 73.4741 110C72.0533 112.106 72.7433 113.783 73.6017 115.869C73.6857 116.074 73.7715 116.282 73.8569 116.495C75.4135 120.372 75.9935 123.196 75.9453 127.367C75.8892 132.215 75.8651 136.16 78.6 140.272C79.1799 139.962 79.9789 140.077 80.4327 140.548C80.684 140.808 80.9239 141.075 81.1631 141.34L81.2672 141.456ZM53.209 47.0163C51.2944 49.1233 49.38 51.2301 47.5481 53.4106C44.8098 56.6669 41.9649 60.1823 39.9556 63.9636C39.1259 65.5232 38.4838 67.1608 37.8422 68.7971C37.0471 70.8251 36.2526 72.8514 35.1026 74.7253C33.0601 78.0526 30.0618 80.2936 27.0524 82.5428C24.7706 84.2483 22.4824 85.9585 20.5996 88.1507C18.4321 90.6746 16.6578 93.4289 14.9018 96.1924C21.7711 94.9426 25.6486 101.935 29.1704 108.286C30.8517 111.317 32.4519 114.203 34.2578 115.976C36.8759 118.547 39.8868 120.477 42.8943 122.404C45.7618 124.241 48.6262 126.077 51.1437 128.465C52.0819 127.077 53.2912 125.929 54.507 124.774C56.1238 123.239 57.7521 121.692 58.7694 119.558C59.4495 118.13 59.9473 116.639 60.4447 115.15C61.0857 113.229 61.726 111.312 62.7548 109.535C65.0678 105.541 68.5936 102.917 72.3852 104.978C71.7194 102.709 70.4145 100.587 69.1082 98.4624L68.9993 98.2854C67.5024 100.067 65.6722 101.541 63.8534 103.006C63.3619 103.402 62.8711 103.797 62.388 104.197C59.5936 106.514 56.8644 108.901 54.4402 111.608C54.0092 112.089 53.3456 111.392 53.741 110.91C57.7654 105.983 62.7537 100.484 68.3448 97.2068C67.7775 96.2624 67.2422 95.311 66.7872 94.3379C66.7763 94.3182 66.7658 94.2985 66.7554 94.2788L66.7387 94.2466L66.7073 94.1852C66.6929 94.1567 66.6781 94.1277 66.6634 94.0995C62.217 99.1917 57.2236 103.64 52.2252 108.092C48.9745 110.987 45.7216 113.885 42.616 116.963C42.1598 117.414 41.4973 116.737 41.9168 116.264C44.1362 113.763 46.5937 111.52 49.0533 109.275L49.0562 109.272C50.5255 107.931 51.9961 106.589 53.4166 105.191C54.8183 103.813 56.1896 102.406 57.5602 100.999C60.2575 98.2317 62.9545 95.4645 65.8748 92.9235C65.9268 92.8796 65.9797 92.8539 66.0336 92.8278L66.0536 92.818C65.1114 90.607 64.6552 88.2092 64.9463 85.5374C65.073 84.3771 65.3662 83.2335 65.6595 82.0893C66.072 80.48 66.4848 78.8695 66.4353 77.2102C66.3963 75.9483 66.1246 74.8766 65.704 73.9138C65.6031 73.782 65.5401 73.6479 65.5183 73.508C65.0976 72.6598 64.5566 71.8953 63.9526 71.1606C62.9003 72.147 61.8364 73.1009 60.7779 74.05C57.5092 76.9807 54.2907 79.8663 51.6171 83.5269C51.0543 84.2972 49.7614 83.5716 50.3185 82.7682C53.5851 78.0435 57.8467 72.9991 62.6952 69.7359L62.5564 69.5859L62.3054 69.3156C61.7898 68.7607 61.2632 68.194 60.7524 67.5936C59.0812 65.629 56.7716 62.8266 58.2468 60.0964C58.7467 59.1717 59.6169 58.6938 60.4899 58.2143C60.6136 58.1464 60.7373 58.0784 60.8601 58.0091C61.2063 57.813 61.6312 57.6751 62.0611 57.5356C62.6387 57.3482 63.2253 57.1578 63.642 56.8194C66.4535 54.5328 65.7455 52.0087 65.0029 49.3611C64.9154 49.0491 64.8274 48.7353 64.7446 48.42C64.648 48.0516 64.5492 47.6912 64.4516 47.3355C63.9761 45.6018 63.5318 43.9819 63.5365 42.1159C63.5388 41.1472 63.6465 40.1946 63.7533 39.2501C63.9103 37.8612 64.0653 36.4899 63.8804 35.1104C61.7356 36.508 59.7983 39.0444 58.0513 41.3318C57.2439 42.3889 56.4771 43.3929 55.7492 44.2066C54.9077 45.147 54.0576 46.0825 53.209 47.0163ZM110.408 121.487C110.457 121.494 110.505 121.5 110.558 121.522C113.687 122.82 114.953 126.385 116.195 129.884C116.734 131.402 117.269 132.908 117.949 134.211C117.906 130.925 118.456 127.59 119.346 124.451C119.523 123.826 119.73 123.208 119.952 122.594L119.999 122.398C120.157 121.748 120.316 121.097 120.504 120.447C121.316 117.636 121.956 114.738 121.672 111.79C121.634 111.399 121.567 111.015 121.501 110.632C121.451 110.348 121.402 110.064 121.365 109.781C120.579 110.181 119.779 110.557 118.979 110.933C118.329 111.238 117.678 111.544 117.035 111.863C116.878 111.941 116.72 112.019 116.561 112.096C115.447 112.643 114.309 113.202 113.301 113.925C111.406 115.289 111.212 116.879 111.005 118.576C110.901 119.43 110.793 120.312 110.463 121.205C110.44 121.268 110.418 121.321 110.397 121.374C110.383 121.408 110.369 121.443 110.354 121.48C110.362 121.481 110.369 121.482 110.377 121.483C110.387 121.485 110.398 121.486 110.408 121.487ZM94.3041 90.1795C94.9334 91.6512 92.8622 92.4914 92.3006 91.0242L92.1873 90.7284C88.1391 80.1555 84.0587 69.4984 82.881 58.1719C82.376 53.3057 80.3916 51.4523 77.5476 48.796C76.8994 48.1906 76.2066 47.5435 75.4765 46.8096C73.994 45.3195 72.7145 43.6863 71.4403 42.0598C69.8359 40.012 68.2399 37.9748 66.2576 36.2474C66.1805 37.2802 66.0395 38.3008 65.8985 39.3213C65.5406 41.9111 65.1828 44.5003 65.8702 47.2876C65.9899 47.7722 66.1387 48.2903 66.2937 48.8301C67.0604 51.4999 67.9788 54.6977 66.2759 56.9707C65.71 57.7257 64.9386 58.0746 64.1642 58.4248C63.6384 58.6626 63.1112 58.901 62.6459 59.2676C58.685 62.388 61.2476 65.0371 63.6604 67.5313C63.903 67.782 64.144 68.0312 64.3767 68.2791C65.8954 69.8975 67.2055 71.4575 68.0766 73.2387C72.3359 77.0234 76.5941 81.8157 79.1891 86.8383C79.5387 87.5146 78.7318 88.0773 78.177 87.6189C75.7359 85.6056 73.7367 83.1194 71.7326 80.6272L71.73 80.6242C70.8792 79.566 70.0272 78.5064 69.1403 77.4819C69.1432 77.5506 69.149 77.6172 69.1549 77.6837C69.1631 77.7768 69.1713 77.8701 69.1713 77.969C69.1689 79.4556 68.8269 80.9164 68.4869 82.3684C68.3297 83.0402 68.1728 83.7101 68.0503 84.3797C67.3866 88.0086 67.954 91.1893 69.5105 94.213C70.9568 96.114 72.613 97.6845 74.3302 99.3127C75.3783 100.307 76.4492 101.322 77.5088 102.447C80.4866 105.61 83.3911 109.31 85.3385 113.345C86.5233 115.317 87.577 117.376 88.6274 119.43C91.5635 125.169 94.4747 130.859 100.154 134.441C100.883 133.463 101.461 132.277 101.805 130.698C101.864 130.428 101.92 130.156 101.976 129.884C102.37 127.969 102.772 126.01 104.221 124.572C104.953 123.846 105.61 123.55 106.19 123.287C107.251 122.808 108.054 122.445 108.584 119.79C108.695 119.232 108.565 118.762 108.433 118.282C108.293 117.776 108.15 117.258 108.284 116.613C109.087 112.775 113.604 110.746 117.051 109.197C117.549 108.973 118.025 108.76 118.464 108.552C122.59 106.602 125.604 104.257 127.881 100.228C128.31 99.4717 128.685 98.6992 129.049 97.9278C129.045 97.9238 129.039 97.9206 129.034 97.9175C129.029 97.9143 129.024 97.9112 129.019 97.9072C128.308 97.294 127.586 96.6778 126.86 96.0574L126.851 96.0497L126.836 96.0365C122.548 92.3726 118.091 88.5647 114.413 84.4107C111.283 80.8758 110.377 77.4269 109.337 72.9372C108.246 68.2288 104.971 65.2275 101.716 62.2449C99.2275 59.9642 96.7506 57.6944 95.2715 54.6806C95.1945 56.0398 95.1445 57.4007 95.0945 58.7611C94.9676 62.2164 94.8408 65.6679 94.2709 69.0768C94.1132 70.0195 93.948 70.9454 93.785 71.8585C92.8249 77.2378 91.944 82.173 93.1591 87.4928C93.5046 88.3101 93.853 89.1246 94.2016 89.9397L94.3041 90.1795ZM91.6002 66.75C91.8134 66.6068 92.0587 66.7569 92.1435 66.9632C92.2627 65.8617 92.3648 64.7453 92.4324 63.6037C92.4577 63.1764 92.4696 62.7474 92.4815 62.3181L92.4863 62.1446C92.3562 62.2683 92.2256 62.3911 92.0956 62.5134C91.8705 62.7249 91.6466 62.9354 91.4317 63.1452C91.1218 63.4476 90.8158 63.7538 90.5097 64.06C89.8481 64.722 89.1866 65.3839 88.486 66.0061C87.5289 66.8555 86.1202 65.4663 87.0727 64.5917C87.5315 64.1715 88.0026 63.6577 88.494 63.1219C89.6858 61.8223 90.9972 60.3923 92.539 59.8511C92.563 58.3346 92.5986 56.8194 92.7636 55.3121C92.7897 55.0754 92.937 54.3682 93.0981 53.5944C93.2842 52.7009 93.4888 51.7184 93.5465 51.2695C91.175 51.148 87.5644 55.3935 86.6268 56.9775C86.1913 57.7134 85.8749 58.5008 85.6457 59.3135C85.64 59.4121 85.6319 59.5083 85.6228 59.6046C85.6993 60.4549 85.76 61.3117 85.8207 62.168C86.0006 64.7088 86.1803 67.2454 86.7736 69.596C87.8178 73.7384 89.2276 77.7524 90.7876 81.7125C90.6829 78.2332 91.137 74.8174 91.6074 71.2793C91.7806 69.9763 91.9563 68.6549 92.1069 67.3094C91.7886 67.7755 91.3768 68.1804 90.9697 68.5806C90.8346 68.7134 90.6991 68.8466 90.5686 68.9805C90.1423 69.4161 89.4637 68.7375 89.8993 68.3112C90.033 68.1805 90.1652 68.0457 90.298 67.9103C90.7068 67.4933 91.1209 67.071 91.6002 66.75ZM148.52 79.5381C148.739 79.1794 148.955 78.8253 149.168 78.4791C136.59 84.3316 121.788 78.7072 111.238 71.0311C111.535 71.7636 111.813 72.4721 112.083 73.1604C113.819 77.5822 115.227 81.1694 119.22 84.9333C120.447 86.0894 121.727 87.2039 123.009 88.3201C125.568 90.5472 128.135 92.7815 130.296 95.3683C130.7 94.5969 131.144 93.8485 131.668 93.1401C131.672 93.1318 131.675 93.1236 131.678 93.1154C131.681 93.1081 131.683 93.1008 131.685 93.0935C131.692 93.0717 131.698 93.0499 131.713 93.0278C133.693 90.0331 135.315 89.6458 137.625 89.0944C138.537 88.8767 139.556 88.6335 140.746 88.1943C143.97 87.0035 146.379 83.0515 148.52 79.5381ZM139.492 120.148L139.494 120.139C139.794 118.269 140.093 116.398 140.487 114.541C140.966 112.279 141.818 110.351 142.681 108.4C143.232 107.154 143.787 105.899 144.251 104.542C145.383 101.234 144.462 99.0422 143.455 96.6424C142.945 95.4299 142.414 94.1644 142.114 92.6748C141.944 91.8334 141.892 91.1251 141.952 90.4592C141.154 90.688 140.329 90.8407 139.51 90.9923C137.494 91.3655 135.511 91.7325 134.048 93.2135C132.799 96.5317 131.178 100.108 129.003 103.165C129.176 103.8 129.339 104.425 129.5 105.044C130.219 107.805 130.904 110.437 132.303 113.193C133.425 115.401 134.81 117.434 136.194 119.465C137.128 120.834 138.061 122.203 138.912 123.626C139.12 122.469 139.306 121.308 139.492 120.148ZM106.542 59.8301C105.181 59.3544 103.816 58.877 102.375 58.5971C101.999 58.5249 101.65 58.4401 101.319 58.345C102.273 59.4507 103.308 60.5098 104.345 61.5713C106.02 63.2859 107.701 65.0065 109.059 66.9391C110.138 67.8387 111.267 68.7017 112.391 69.5613C113.37 70.3105 114.348 71.0579 115.285 71.8243C116.256 72.6186 117.29 73.3556 118.331 74.0777C128.192 79.3582 138.629 80.8471 150.093 77.0234C150.113 76.9935 150.132 76.963 150.152 76.9331C150.162 76.9183 150.172 76.9037 150.182 76.8893C150.284 76.7233 150.387 76.5575 150.49 76.3919C151.484 74.7868 152.469 73.1955 153.296 71.6019C153.557 71.0964 153.924 70.4202 154.368 69.6625C140.657 73.5098 126.33 67.6538 112.987 62.1999C111.818 61.7218 110.653 61.2457 109.499 60.7806C108.498 60.5143 107.521 60.1727 106.542 59.8301ZM95.8125 34.8685C69.8177 27.9099 40.0989 31.1445 17.7307 47.0182C15.4348 50.6242 13.3774 54.3929 11.5755 58.3071C17.5117 54.0444 23.8193 50.6012 30.6255 47.7713C34.6968 46.0795 39.018 44.312 43.424 42.9492C45.0333 42.2145 46.6735 41.5428 48.4352 41.0454C51.8819 40.0745 54.8689 39.2195 57.8742 37.6652C57.9696 37.539 58.0649 37.4131 58.1603 37.2872C58.4853 36.858 58.8114 36.4275 59.1328 35.9883C60.5954 33.9917 62.1278 32.5532 64.4604 31.7107C65.03 31.5056 65.8622 31.8724 66.1143 32.4535C68.8801 34.3378 70.9983 36.7219 73.0477 39.2115C73.0561 39.2094 73.0639 39.2065 73.0716 39.2036C73.085 39.1987 73.0982 39.1938 73.1142 39.1931C82.1991 38.5581 91.0214 39.6757 99.5927 42.7979C103.428 44.1957 107.16 45.8355 110.891 47.4752C115.733 49.6029 120.575 51.7304 125.64 53.328C144.98 59.4281 163.71 59.0567 183.403 56.1351C181.886 53.0449 180.196 50.0568 178.363 47.1661C167.154 52.9372 151.371 50.5015 139.647 47.9684C131.033 46.1075 122.686 43.3512 114.336 40.5941C108.198 38.5675 102.059 36.5404 95.8125 34.8685ZM96.9931 28.6057C73.74 23.6793 45.2717 21.819 25.1214 36.9156C22.8427 39.631 20.7142 42.4735 18.7462 45.4353C37.7675 32.2368 63.1434 27.5947 85.7443 31.2465C96.0183 32.907 105.941 35.9801 115.864 39.053C121.269 40.7271 126.675 42.4012 132.137 43.8467C140.062 45.9454 148.159 47.5329 156.365 47.9042C161.397 48.1327 166.208 47.45 171.053 46.7624C173.21 46.4564 175.373 46.1494 177.566 45.9213C174.924 41.8924 171.993 38.0721 168.786 34.4994C149.321 40.8637 128.642 35.9821 108.969 31.3379C104.928 30.384 100.93 29.4401 96.9931 28.6057ZM32.0821 60.6406C35.5958 58.8575 39.0766 57.091 42.9254 55.9219C43.1146 55.8646 43.2807 55.8692 43.4332 55.9001C45.4024 52.975 47.579 50.1577 50.0709 47.2841C51.6859 45.4227 53.2367 43.575 54.7474 41.6964C50.8014 43.4848 46.6394 44.8292 42.4779 46.1734C39.3397 47.187 36.201 48.2008 33.1563 49.4046C25.2784 52.52 17.2642 56.1362 10.3331 61.0695C9.29573 63.5292 8.37647 66.0486 7.54547 68.6092C10.1367 67.7586 12.7803 67.1708 15.4287 66.582C19.3828 65.7029 23.3479 64.8213 27.1651 63.0593C28.8371 62.2875 30.4633 61.4622 32.0821 60.6406ZM22.8955 132.755C20.6237 121.511 17.3914 110.209 12.6037 99.7583C10.9749 102.216 9.22466 104.602 7.09042 106.76C10.0165 111.476 12.5251 116.437 15.0335 121.398C17.7044 126.679 20.3753 131.961 23.5499 136.947C23.3742 135.873 23.2285 134.902 23.1163 134.154C23.0143 133.473 22.9397 132.976 22.8955 132.755ZM66.7676 144.668C68.3273 145.748 69.8855 146.828 71.3307 148.044C72.8277 145.84 74.4816 143.605 76.4818 141.844C72.8788 139.619 73.0366 134.036 73.1845 128.805C73.2776 125.51 73.3668 122.355 72.5102 120.266C72.1826 119.467 71.7307 118.637 71.2657 117.782C70.0334 115.518 68.7095 113.085 69.3661 110.632C69.7507 109.195 70.669 108.335 71.5049 107.553L71.5382 107.521C66.6767 104.205 63.387 113.134 61.8239 117.377C61.6731 117.786 61.538 118.153 61.4195 118.46C60.1526 121.742 58.1193 123.914 56.0188 126.158C54.8865 127.367 53.7346 128.598 52.6728 130.034C52.98 130.378 53.2825 130.729 53.5748 131.096C54.3139 132.028 55.0172 132.973 55.7171 133.914C57.5047 136.316 59.2699 138.688 61.5524 140.728C63.1803 142.182 64.975 143.426 66.7676 144.668ZM164.811 77.0566C164.768 76.7323 164.721 76.409 164.67 76.0893C164.576 75.5088 164.449 74.934 164.323 74.358L164.286 74.1889C161.775 77.5529 158.856 80.681 155.955 83.7894L155.952 83.7919C154.337 85.5226 152.727 87.2477 151.197 89.0035C150.592 89.6969 149.614 88.6929 150.194 88.0006C151.285 86.6974 152.36 85.3391 153.444 83.9698C156.647 79.9217 159.926 75.7766 163.934 72.6702C163.686 71.6895 163.417 70.713 163.148 69.7372L163.147 69.7341C162.774 68.3797 162.4 67.0263 162.086 65.6646C162.075 65.6184 162.071 65.574 162.067 65.5297C162.066 65.5142 162.064 65.4968 162.062 65.4812C160.221 66.4321 158.125 69.2632 156.84 70.9986C156.557 71.3801 156.314 71.7087 156.121 71.9526C153.973 74.6726 152.029 77.5805 150.293 80.5801C149.832 81.3774 149.409 82.2216 148.984 83.0712C148.921 83.1969 148.857 83.3244 148.794 83.4501C148.599 83.9341 148.402 84.4135 148.206 84.8902C146.973 87.887 145.781 90.782 145.63 94.072C145.739 94.4086 145.856 94.745 145.972 95.0792C146.281 95.9683 146.585 96.8423 146.727 97.6653C147.198 100.376 146.838 102.455 145.897 104.963C143.887 110.321 142.915 115.547 141.915 120.929C141.513 123.095 141.105 125.287 140.623 127.523C140.414 128.498 138.794 128.791 138.376 127.817C137.993 126.925 137.571 126.054 137.132 125.192C136.553 125.94 135.842 126.641 135.151 127.323C134.749 127.72 134.353 128.11 133.994 128.499C133.291 129.259 132.531 129.97 131.766 130.679C130.828 131.736 129.882 132.787 128.937 133.838L128.933 133.843C126.476 136.574 124.019 139.306 121.688 142.134C116.602 148.306 111.472 154.42 105.83 160.098C105.284 160.649 104.443 159.805 104.98 159.246C110.014 154.003 114.6 148.385 119.192 142.761C119.871 141.93 120.55 141.098 121.231 140.267C121.986 139.346 122.74 138.409 123.499 137.468C126.357 133.918 129.277 130.293 132.546 127.113C132.665 126.946 132.783 126.78 132.899 126.614C133.222 126.156 133.539 125.708 133.852 125.289C133.98 125.117 134.12 124.915 134.27 124.696C134.707 124.062 135.236 123.295 135.837 122.779C135.303 121.827 134.751 120.884 134.19 119.945C132.967 121.778 131.393 123.333 129.818 124.89L129.814 124.893C128.677 126.017 127.538 127.142 126.533 128.371C126.147 128.844 125.337 128.21 125.69 127.72C128.001 124.516 130.351 121.311 133.72 119.154L133.282 118.428C131.763 115.911 130.243 113.391 128.962 110.741C128.821 110.449 128.66 110.134 128.491 109.802C127.88 108.606 127.154 107.183 126.814 105.798C126.219 106.422 125.593 107.002 124.931 107.532L124.878 107.681C124.585 108.5 124.295 109.313 124.212 110.254C124.209 110.283 124.206 110.312 124.202 110.341C124.198 110.371 124.194 110.402 124.191 110.433C124.195 110.465 124.197 110.498 124.198 110.531L124.199 110.538C124.2 110.557 124.201 110.575 124.202 110.593C124.926 114.083 124.127 117.16 122.886 120.515C120.933 125.788 119.932 130.949 119.371 136.556C119.32 137.062 118.672 137.476 118.267 137.013C116.652 135.168 115.729 132.964 114.813 130.776C114.611 130.294 114.409 129.812 114.2 129.335C111.015 134.524 106.557 139.204 102.247 143.729C100.722 145.329 99.2161 146.911 97.7909 148.489C97.2751 149.06 96.4716 148.228 96.9553 147.652C98.9339 145.299 100.807 142.752 102.691 140.191C105.994 135.7 109.333 131.161 113.339 127.525C112.491 125.903 111.44 124.404 109.847 123.212C109.753 123.141 109.676 123.055 109.617 122.958C109.364 123.314 109.084 123.576 108.695 123.942C108.443 124.179 108.143 124.46 107.775 124.837C105.55 127.121 105.056 129.073 104.534 131.135C104.174 132.558 103.8 134.034 102.835 135.708C101.779 137.538 100.247 138.51 98.5914 139.562C98.2755 139.763 97.9552 139.966 97.6327 140.179C94.7119 142.106 92.9151 144.843 91.0846 147.632C90.3062 148.818 89.5215 150.013 88.6419 151.16C88.5914 151.225 88.5376 151.279 88.4837 151.333C90.8197 154.692 93.339 157.887 96.9553 160.39C102.252 164.055 106.393 168.542 109.411 174.121C109.723 174.022 110.084 174.062 110.45 174.324C113.286 176.362 115.643 178.902 117.999 181.44C120.298 183.918 122.596 186.394 125.339 188.403C125.559 188.565 125.704 188.759 125.8 188.967C129.894 187.718 133.863 186.186 137.703 184.419C141.835 179.508 146.105 174.717 151.086 170.66C151.784 170.091 152.716 170.977 152.089 171.663C151.198 172.637 150.304 173.609 149.409 174.582C147.164 177.024 144.916 179.468 142.708 181.948C147.659 179.306 152.338 176.23 156.717 172.787C156.725 172.668 156.752 172.549 156.822 172.431C157.296 171.622 157.794 170.834 158.292 170.046C159.07 168.814 159.849 167.582 160.534 166.272C160.679 165.996 160.842 165.704 161.01 165.402C161.52 164.488 162.078 163.485 162.339 162.57C162.414 162.31 162.483 162.084 162.543 161.889C162.735 161.262 162.834 160.936 162.72 160.729C162.595 160.505 162.218 160.42 161.432 160.243C160.958 160.136 160.336 159.996 159.53 159.772C158.96 159.613 158.549 159.069 158.546 158.479C158.519 153.889 157.671 151.408 155.024 147.727C154.367 146.813 153.843 145.984 153.384 145.113C153.378 145.174 153.362 145.234 153.326 145.292C150.933 148.94 147.407 151.69 143.883 154.439C141.235 156.504 138.587 158.569 136.421 161.015C135.739 161.785 134.63 160.659 135.297 159.89C140.203 154.234 146.516 148.888 152.693 144.659C152.854 144.551 153.031 144.582 153.169 144.678C152.889 144.105 152.625 143.511 152.386 142.84C152.243 142.442 152.392 141.848 152.719 141.574C154.983 139.69 157.402 138.031 159.823 136.369C160.953 135.594 162.084 134.818 163.199 134.019C163.446 133.843 163.689 133.664 163.931 133.487C165.742 132.157 167.468 130.889 169.804 131.15C170.142 131.188 170.448 131.406 170.743 131.617C171.028 131.82 171.303 132.016 171.587 132.035C172.825 132.119 172.852 132.02 172.93 131.74C172.964 131.615 173.008 131.455 173.172 131.259C173.294 131.114 173.337 130.688 173.379 130.266C173.413 129.926 173.447 129.589 173.522 129.407C173.926 128.419 174.911 127.636 175.787 126.94C176.003 126.768 176.213 126.602 176.406 126.438C176.787 126.116 177.233 125.783 177.703 125.434C179.79 123.88 182.334 121.986 181.603 119.135C181.033 118.608 180.494 118.061 180.03 117.477C179.423 116.716 178.849 116 178.275 115.308C176.77 117.286 174.78 119.045 172.875 120.727C172.023 121.48 171.188 122.217 170.421 122.953C169.712 123.635 168.665 122.586 169.343 121.874C170.288 120.882 171.202 119.768 172.128 118.639C173.588 116.859 175.083 115.037 176.784 113.589C176.032 112.768 175.227 111.963 174.313 111.15C170.241 116.328 165.197 121.049 160.387 125.552C159.832 126.072 159.28 126.589 158.732 127.103C158.43 127.387 157.977 126.937 158.276 126.648C160.436 124.553 162.368 122.088 164.312 119.609C167.02 116.154 169.751 112.671 173.146 110.124C171.616 108.764 170.133 107.24 169.213 105.402C169.07 105.546 168.924 105.689 168.778 105.832L168.774 105.836C168.387 106.214 168 106.593 167.649 106.993C167.365 107.315 167.053 107.615 166.743 107.913L166.67 107.983C165.343 109.647 163.822 111.16 162.303 112.671C161.46 113.509 160.617 114.347 159.809 115.21C159.504 115.535 159.198 115.861 158.892 116.187C155.158 120.161 151.342 124.222 148.333 128.751C147.892 129.416 146.822 128.803 147.257 128.123C151.372 121.671 156.598 116.071 161.811 110.484L161.819 110.476C163.33 108.855 164.841 107.236 166.324 105.597C166.367 105.528 166.411 105.459 166.455 105.39L166.568 105.21C166.761 104.903 166.953 104.598 167.15 104.303C167.268 104.127 167.384 103.932 167.505 103.729C167.849 103.151 168.226 102.519 168.748 102.148C168.841 101.795 168.966 101.456 169.091 101.118C169.387 100.313 169.681 99.5169 169.538 98.5616C169.351 97.3111 168.155 96.6257 166.733 96.0606C165.997 96.6291 165.276 97.2252 164.564 97.8407C163.879 98.6402 163.141 99.4046 162.406 100.166C161.832 100.761 161.26 101.354 160.715 101.96C158.897 103.984 157.041 105.948 155.038 107.792C154.601 108.194 153.962 107.563 154.385 107.139C155.912 105.607 157.247 103.91 158.582 102.212C158.932 101.767 159.282 101.322 159.636 100.88C159.787 100.692 159.938 100.5 160.091 100.307C160.982 99.1818 161.911 98.0095 162.975 97.0211C163.152 96.7893 163.33 96.535 163.514 96.2733C163.771 95.9065 164.039 95.525 164.328 95.1712C163.112 94.6978 162.033 94.1442 161.567 93.2421C160.922 91.9962 160.997 89.5869 161.459 88.2321C161.777 87.3001 162.342 86.5955 162.919 85.8765C163.583 85.0491 164.262 84.2027 164.596 82.9687C164.993 81.505 165.056 79.9795 164.952 78.4665C163.007 81.0041 160.803 83.3514 158.597 85.7005C156.72 87.6995 154.841 89.6998 153.121 91.8197C152.698 92.3412 151.798 91.6397 152.192 91.1033L152.396 90.8271C155.991 85.9516 159.838 80.7361 164.703 77.1059C164.73 77.0849 164.759 77.0748 164.788 77.0646C164.796 77.062 164.803 77.0594 164.811 77.0566Z" fill="url(#paint23_linear_1151_14863)"/>
</g>
<defs>
<linearGradient id="paint0_linear_1151_14863" x1="152.718" y1="20.4167" x2="33.8929" y2="167.826" gradientUnits="userSpaceOnUse">
<stop stop-color="var(--color-quadra)"/>
<stop offset="1" stop-color="var(--color-role)"/>
</linearGradient>
<linearGradient id="paint1_linear_1151_14863" x1="152.718" y1="20.4167" x2="33.8929" y2="167.826" gradientUnits="userSpaceOnUse">
<stop stop-color="var(--color-quadra)"/>
<stop offset="1" stop-color="var(--color-role)"/>
</linearGradient>
<linearGradient id="paint2_linear_1151_14863" x1="152.718" y1="20.4167" x2="33.8929" y2="167.826" gradientUnits="userSpaceOnUse">
<stop stop-color="var(--color-quadra)"/>
<stop offset="1" stop-color="var(--color-role)"/>
</linearGradient>
<linearGradient id="paint3_linear_1151_14863" x1="152.718" y1="20.4167" x2="33.8929" y2="167.826" gradientUnits="userSpaceOnUse">
<stop stop-color="var(--color-quadra)"/>
<stop offset="1" stop-color="var(--color-role)"/>
</linearGradient>
<linearGradient id="paint4_linear_1151_14863" x1="152.718" y1="20.4167" x2="33.8929" y2="167.826" gradientUnits="userSpaceOnUse">
<stop stop-color="var(--color-quadra)"/>
<stop offset="1" stop-color="var(--color-role)"/>
</linearGradient>
<linearGradient id="paint5_linear_1151_14863" x1="152.718" y1="20.4167" x2="33.8929" y2="167.826" gradientUnits="userSpaceOnUse">
<stop stop-color="var(--color-quadra)"/>
<stop offset="1" stop-color="var(--color-role)"/>
</linearGradient>
<linearGradient id="paint6_linear_1151_14863" x1="152.718" y1="20.4167" x2="33.8929" y2="167.826" gradientUnits="userSpaceOnUse">
<stop stop-color="var(--color-quadra)"/>
<stop offset="1" stop-color="var(--color-role)"/>
</linearGradient>
<linearGradient id="paint7_linear_1151_14863" x1="152.718" y1="20.4167" x2="33.8929" y2="167.826" gradientUnits="userSpaceOnUse">
<stop stop-color="var(--color-quadra)"/>
<stop offset="1" stop-color="var(--color-role)"/>
</linearGradient>
<linearGradient id="paint8_linear_1151_14863" x1="152.718" y1="20.4167" x2="33.8929" y2="167.826" gradientUnits="userSpaceOnUse">
<stop stop-color="var(--color-quadra)"/>
<stop offset="1" stop-color="var(--color-role)"/>
</linearGradient>
<linearGradient id="paint9_linear_1151_14863" x1="152.718" y1="20.4167" x2="33.8929" y2="167.826" gradientUnits="userSpaceOnUse">
<stop stop-color="var(--color-quadra)"/>
<stop offset="1" stop-color="var(--color-role)"/>
</linearGradient>
<linearGradient id="paint10_linear_1151_14863" x1="152.718" y1="20.4167" x2="33.8929" y2="167.826" gradientUnits="userSpaceOnUse">
<stop stop-color="var(--color-quadra)"/>
<stop offset="1" stop-color="var(--color-role)"/>
</linearGradient>
<linearGradient id="paint11_linear_1151_14863" x1="152.718" y1="20.4167" x2="33.8929" y2="167.826" gradientUnits="userSpaceOnUse">
<stop stop-color="var(--color-quadra)"/>
<stop offset="1" stop-color="var(--color-role)"/>
</linearGradient>
<linearGradient id="paint12_linear_1151_14863" x1="152.718" y1="20.4167" x2="33.8929" y2="167.826" gradientUnits="userSpaceOnUse">
<stop stop-color="var(--color-quadra)"/>
<stop offset="1" stop-color="var(--color-role)"/>
</linearGradient>
<linearGradient id="paint13_linear_1151_14863" x1="152.718" y1="20.4167" x2="33.8929" y2="167.826" gradientUnits="userSpaceOnUse">
<stop stop-color="var(--color-quadra)"/>
<stop offset="1" stop-color="var(--color-role)"/>
</linearGradient>
<linearGradient id="paint14_linear_1151_14863" x1="152.718" y1="20.4167" x2="33.8929" y2="167.826" gradientUnits="userSpaceOnUse">
<stop stop-color="var(--color-quadra)"/>
<stop offset="1" stop-color="var(--color-role)"/>
</linearGradient>
<linearGradient id="paint15_linear_1151_14863" x1="152.718" y1="20.4167" x2="33.8929" y2="167.826" gradientUnits="userSpaceOnUse">
<stop stop-color="var(--color-quadra)"/>
<stop offset="1" stop-color="var(--color-role)"/>
</linearGradient>
<linearGradient id="paint16_linear_1151_14863" x1="152.718" y1="20.4167" x2="33.8929" y2="167.826" gradientUnits="userSpaceOnUse">
<stop stop-color="var(--color-quadra)"/>
<stop offset="1" stop-color="var(--color-role)"/>
</linearGradient>
<linearGradient id="paint17_linear_1151_14863" x1="152.718" y1="20.4167" x2="33.8929" y2="167.826" gradientUnits="userSpaceOnUse">
<stop stop-color="var(--color-quadra)"/>
<stop offset="1" stop-color="var(--color-role)"/>
</linearGradient>
<linearGradient id="paint18_linear_1151_14863" x1="152.718" y1="20.4167" x2="33.8929" y2="167.826" gradientUnits="userSpaceOnUse">
<stop stop-color="var(--color-quadra)"/>
<stop offset="1" stop-color="var(--color-role)"/>
</linearGradient>
<linearGradient id="paint19_linear_1151_14863" x1="152.718" y1="20.4167" x2="33.8929" y2="167.826" gradientUnits="userSpaceOnUse">
<stop stop-color="var(--color-quadra)"/>
<stop offset="1" stop-color="var(--color-role)"/>
</linearGradient>
<linearGradient id="paint20_linear_1151_14863" x1="152.718" y1="20.4167" x2="33.8929" y2="167.826" gradientUnits="userSpaceOnUse">
<stop stop-color="var(--color-quadra)"/>
<stop offset="1" stop-color="var(--color-role)"/>
</linearGradient>
<linearGradient id="paint21_linear_1151_14863" x1="152.718" y1="20.4167" x2="33.8929" y2="167.826" gradientUnits="userSpaceOnUse">
<stop stop-color="var(--color-quadra)"/>
<stop offset="1" stop-color="var(--color-role)"/>
</linearGradient>
<linearGradient id="paint22_linear_1151_14863" x1="152.718" y1="20.4167" x2="33.8929" y2="167.826" gradientUnits="userSpaceOnUse">
<stop stop-color="var(--color-quadra)"/>
<stop offset="1" stop-color="var(--color-role)"/>
</linearGradient>
<linearGradient id="paint23_linear_1151_14863" x1="152.718" y1="20.4167" x2="33.8929" y2="167.826" gradientUnits="userSpaceOnUse">
<stop stop-color="var(--color-quadra)"/>
<stop offset="1" stop-color="var(--color-role)"/>
</linearGradient>
</defs>
</svg>
