<svg width="32" height="32" viewBox="0 0 32 32" fill="none" xmlns="http://www.w3.org/2000/svg">
<path d="M22.1404 8.41431L12.1421 8.41431C11.5898 8.41431 11.1421 8.86202 11.1421 9.41431C11.1421 9.96659 11.5898 10.4143 12.1421 10.4143L19.7279 10.4143L8.70708 21.4351C8.31655 21.8256 8.31655 22.4588 8.70708 22.8493C9.0976 23.2399 9.73077 23.2399 10.1213 22.8493L21.1421 11.8285V19.4143C21.1421 19.9666 21.5898 20.4143 22.1421 20.4143C22.6944 20.4143 23.1421 19.9666 23.1421 19.4143V9.415C23.1421 9.41413 23.1421 9.41258 23.1421 9.41171C23.1421 9.41158 23.1421 9.41184 23.1421 9.41171C23.1417 9.27721 23.1148 9.14856 23.0662 9.03152C23.0174 8.91358 22.9451 8.80308 22.8492 8.7072C22.7528 8.61079 22.6416 8.53818 22.5229 8.48937C22.4097 8.44269 22.286 8.41621 22.1563 8.41441" fill="#261E1E"/>
</svg>
